<svg height="682.66669pt" viewBox="-21 -21 682.66669 682.66669" width="682.66669pt" xmlns="http://www.w3.org/2000/svg"><path d="m640 320c0 103.3125-48.964844 195.199219-124.960938 253.703125-53.988281 41.570313-121.625 66.296875-195.039062 66.296875s-141.050781-24.726562-195.039062-66.296875c-75.996094-58.503906-124.960938-150.390625-124.960938-253.703125 0-176.722656 143.277344-320 320-320s320 143.277344 320 320zm0 0" fill="#68fcdf"/><path d="m640 320c0 176.722656-143.277344 320-320 320s-320-143.277344-320-320c0-57.773438 15.3125-111.960938 42.101562-158.75 55.148438 96.335938 158.949219 161.25 277.898438 161.25s222.765625-64.914062 277.898438-161.25c26.789062 46.789062 42.101562 100.976562 42.101562 158.75zm0 0" fill="#10e2c4"/><path d="m601.578125 472.125v.015625c-54.117187 99.960937-159.929687 167.859375-281.578125 167.859375s-227.460938-67.898438-281.578125-167.859375v-.015625zm0 0" fill="#1aba9f"/><path d="m619.289062 433.5c-4.441406 11.6875-9.527343 23.039062-15.242187 34.015625-15.785156 30.320313-36.28125 57.796875-60.523437 81.449219-8.988282 8.800781-18.507813 17.046875-28.484376 24.738281-19.902343 15.335937-41.675781 28.371094-64.902343 38.722656-17.523438 7.8125-35.859375 14.089844-54.863281 18.664063-68.375-22.917969-117.636719-87.492188-117.636719-163.574219 0-95.28125 77.238281-172.5 172.5-172.5 83.628906 0 153.347656 59.496094 169.152343 138.484375zm0 0" fill="#ff9f00"/><path d="m619.289062 433.5c-4.441406 11.6875-9.527343 23.039062-15.242187 34.015625-15.785156 30.320313-36.28125 57.796875-60.523437 81.449219-8.988282 8.800781-18.507813 17.046875-28.484376 24.738281-19.902343 15.335937-41.675781 28.371094-64.902343 38.722656v-317.410156c83.628906 0 153.347656 59.496094 169.152343 138.484375zm0 0" fill="#ed771b"/><path d="m544.101562 467.507812c0 51.898438-42.070312 93.960938-93.964843 93.960938s-93.960938-42.0625-93.960938-93.960938c0-51.898437 42.066407-93.960937 93.960938-93.960937s93.964843 42.0625 93.964843 93.960937zm0 0" fill="#ed771b"/><path d="m544.101562 467.507812c0 51.890626-42.066406 93.960938-93.964843 93.960938v-187.921875c51.898437 0 93.964843 42.0625 93.964843 93.960937zm0 0" fill="#c55835"/><path d="m277.640625 279.578125-115.273437 57.703125-15.875-46.613281-13.585938-39.894531 66.800781 13.296874zm0 0" fill="#ff9f00"/><path d="m422.382812 250.773438-13.703124 40.210937-15.757813 46.296875-115.28125-57.703125 77.394531-15.402344zm0 0" fill="#ed771b"/><path d="m417.484375 389.117188c-48.171875 0-92.695313 25.695312-116.78125 67.425781l-6.332031 10.960937h-33.464844l-6.332031-10.960937c-24.085938-41.730469-68.601563-67.425781-116.78125-67.425781 4.683593-19.054688 13.152343-36.617188 24.574219-51.835938 26.265624-35.03125 68.121093-57.703125 115.269531-57.703125h.003906c33.828125 0 64.921875 11.664063 89.5 31.1875 9.679687 7.691406 18.351563 16.609375 25.773437 26.515625 11.421876 15.222656 19.890626 32.789062 24.570313 51.835938zm0 0" fill="#ff9f00"/><path d="m417.484375 389.117188c-48.171875 0-92.695313 25.695312-116.78125 67.425781l-6.332031 10.960937h-16.730469v-187.925781c33.828125 0 64.921875 11.664063 89.5 31.1875 9.679687 7.691406 18.351563 16.609375 25.773437 26.515625 11.421876 15.222656 19.890626 32.789062 24.570313 51.835938zm0 0" fill="#ed771b"/><path d="m260.90625 423.8125v43.691406l-6.332031-10.960937c-24.085938-41.730469-68.601563-67.425781-116.78125-67.425781 4.683593-19.054688 13.152343-36.617188 24.574219-51.835938l41.398437 11.445312c33.757813 9.335938 57.140625 40.058594 57.140625 75.085938zm0 0" fill="#fff"/><path d="m417.484375 389.117188c-48.171875 0-92.695313 25.695312-116.78125 67.425781l-6.332031 10.960937v-43.691406c0-35.027344 23.378906-65.75 57.148437-75.085938l41.394531-11.445312c11.421876 15.222656 19.890626 32.789062 24.570313 51.835938zm0 0" fill="#d0f6ff"/><path d="m203.765625 348.726562c19.183594 5.304688 35.019531 17.515626 45.109375 33.496094" fill="#fff"/><path d="m240.257812 387.671875c-9.015624-14.277344-22.945312-24.621094-39.207031-29.117187l5.433594-19.65625c21.164063 5.851562 39.28125 19.304687 51.015625 37.878906zm0 0" fill="#323b5a"/><path d="m350.765625 348.726562c-19.183594 5.304688-35.015625 17.515626-45.109375 33.496094" fill="#fff"/><path d="m314.277344 387.671875-17.246094-10.894531c11.734375-18.574219 29.851562-32.027344 51.019531-37.878906l5.433594 19.65625c-16.261719 4.496093-30.1875 14.839843-39.207031 29.117187zm0 0" fill="#20273a"/><path d="m604.046875 467.515625c-15.785156 30.320313-36.28125 57.796875-60.523437 81.449219-8.988282 8.800781-18.507813 17.046875-28.484376 24.738281-53.988281 41.570313-121.625 66.296875-195.039062 66.296875-32.585938 0-64.046875-4.875-93.675781-13.9375-.699219-.210938-1.386719-.421875-2.085938-.652344-.886719-.273437-1.761719-.546875-2.636719-.835937-2.3125-.738281-4.613281-1.511719-6.898437-2.3125-.867187-.300781-1.714844-.601563-2.578125-.914063-4.710938-1.675781-9.351562-3.460937-13.953125-5.363281-.824219-.335937-1.632813-.671875-2.449219-1.023437-3.597656-1.507813-7.148437-3.085938-10.683594-4.734376-1.898437-.890624-3.789062-1.789062-5.664062-2.703124-1.9375-.945313-3.875-1.921876-5.800781-2.921876-.949219-.492187-1.898438-.988281-2.851563-1.492187-.875-.457031-1.746094-.921875-2.621094-1.394531-1.5625-.839844-3.117187-1.699219-4.664062-2.566406-.914062-.511719-1.828125-1.039063-2.726562-1.550782-4.523438-2.613281-8.988282-5.324218-13.371094-8.148437-.703125-.433594-1.386719-.886719-2.089844-1.347657-.988281-.648437-1.988281-1.300781-2.964844-1.964843-1.121094-.75-2.246094-1.511719-3.359375-2.273438-.839843-.578125-1.675781-1.164062-2.515625-1.75-.960937-.675781-1.9375-1.363281-2.898437-2.050781-2.886719-2.074219-5.738281-4.199219-8.550781-6.359375-8.574219-6.601563-16.8125-13.628906-24.664063-21.050781-15.234375-14.390625-29.046875-30.25-41.21875-47.378906 29.511719-23.636719 66.957031-37.757813 107.710937-37.757813zm0 0" fill="#ff9f00"/><path d="m543.523438 548.964844c-8.988282 8.800781-18.507813 17.046875-28.484376 24.738281-53.988281 41.570313-121.625 66.296875-195.039062 66.296875s-141.050781-24.726562-195.039062-66.296875c-8.574219-6.601563-16.8125-13.628906-24.664063-21.050781 107.050781-1.363282 296.953125-3.515625 443.226563-3.6875zm0 0" fill="#ed771b"/><path d="m294.371094 467.507812-3.300782 4.554688c-6.625 9.125-20.230468 9.125-26.855468 0l-3.308594-4.554688zm0 0" fill="#20273a"/><path d="m226.324219 467.515625v158.546875c-.699219-.210938-1.386719-.421875-2.085938-.652344-.886719-.273437-1.761719-.546875-2.636719-.835937-2.3125-.738281-4.613281-1.511719-6.898437-2.3125-.867187-.300781-1.714844-.601563-2.578125-.914063-4.710938-1.675781-9.351562-3.460937-13.953125-5.363281-.824219-.335937-1.632813-.671875-2.449219-1.023437-3.597656-1.507813-7.148437-3.085938-10.683594-4.734376-1.898437-.875-3.789062-1.789062-5.664062-2.703124-1.9375-.945313-3.875-1.921876-5.800781-2.921876-.949219-.492187-1.898438-.988281-2.851563-1.492187-.875-.457031-1.746094-.921875-2.621094-1.394531-1.5625-.839844-3.117187-1.699219-4.664062-2.566406-.914062-.511719-1.828125-1.039063-2.726562-1.550782-4.523438-2.613281-8.988282-5.324218-13.371094-8.148437-.703125-.433594-1.386719-.886719-2.089844-1.347657-.988281-.648437-1.988281-1.300781-2.964844-1.964843-1.121094-.75-2.246094-1.511719-3.359375-2.273438-.839843-.578125-1.675781-1.164062-2.515625-1.75-.960937-.675781-1.9375-1.363281-2.898437-2.050781-2.886719-2.074219-5.738281-4.199219-8.550781-6.359375-8.574219-6.601563-16.8125-13.628906-24.664063-21.050781-15.234375-14.390625-29.046875-30.25-41.21875-47.378906 29.511719-23.636719 66.957031-37.757813 107.710937-37.757813zm0 0" fill="#323b5a"/><path d="m226.324219 551.164062v74.898438c-37.109375-11.335938-71.347657-29.25-101.363281-52.359375-8.574219-6.601563-16.8125-13.628906-24.664063-21.050781 34.726563-.441406 78.179687-.976563 126.027344-1.488282zm0 0" fill="#20273a"/><path d="m199.707031 264.070312-53.214843 26.597657-13.585938-39.894531zm0 0" fill="#323b5a"/><path d="m422.382812 250.773438-13.703124 40.210937-53.644532-26.808594zm0 0" fill="#20273a"/><g fill="#323b5a"><path d="m274.234375 189.453125c0 2.742187-1.03125 5.386719-2.886719 7.40625l-23.589844 25.65625h17.886719c5.386719 0 9.75 4.367187 9.75 9.753906s-4.363281 9.753907-9.75 9.753907h-39.917969c-6.042968 0-10.945312-4.898438-10.945312-10.945313 0-2.742187 1.03125-5.382813 2.890625-7.40625l23.585937-25.660156h-15.558593c-5.390625 0-9.757813-4.363281-9.757813-9.75s4.371094-9.753907 9.757813-9.753907h37.589843c6.046876 0 10.945313 4.898438 10.945313 10.945313zm0 0"/><path d="m385.320312 145.433594c0 2.746094-1.027343 5.390625-2.890624 7.410156l-23.582032 25.65625h17.878906c5.386719 0 9.757813 4.367188 9.757813 9.75 0 5.390625-4.371094 9.757812-9.757813 9.757812h-39.914062c-6.046875 0-10.945312-4.902343-10.945312-10.945312 0-2.746094 1.03125-5.386719 2.886718-7.410156l23.589844-25.652344h-15.5625c-5.382812 0-9.75-4.371094-9.75-9.757812 0-5.382813 4.367188-9.75 9.75-9.75h37.59375c6.046875 0 10.945312 4.898437 10.945312 10.941406zm0 0"/><path d="m272.46875 55.6875c0 2.199219-.824219 4.3125-2.308594 5.929688l-18.875 20.53125h14.308594c4.3125 0 7.808594 3.496093 7.808594 7.808593 0 4.308594-3.496094 7.808594-7.808594 7.808594h-31.941406c-4.832032 0-8.761719-3.929687-8.761719-8.761719 0-2.199218.828125-4.3125 2.316406-5.925781l18.878907-20.535156h-12.457032c-4.3125 0-7.804687-3.496094-7.804687-7.808594 0-4.308594 3.492187-7.804687 7.804687-7.804687h30.085938c4.835937 0 8.753906 3.921874 8.753906 8.757812zm0 0"/></g></svg>