<svg id="Flat" height="512" viewBox="0 0 512 512" width="512" xmlns="http://www.w3.org/2000/svg"><rect fill="#529ddf" height="416" rx="16" width="240" x="24" y="72"/><path d="m64 128h200v304h-200z" fill="#4384c3"/><path d="m48 96h192v368h-192z" fill="#d4e4f0"/><path d="m72 24h48v48h-48z" fill="#4384c3"/><circle cx="96" cy="48" fill="#529ddf" r="8"/><path d="m64 128h176v304h-176z" fill="#c1d7e6"/><path d="m80 144h408v272h-408z" fill="#7ab355"/><path d="m476.58008 416h-49.09008a246.898 246.898 0 0 1 -81.90991-167.75 31.11439 31.11439 0 0 0 -50.49-22.23 69.55175 69.55175 0 0 1 -38.68018 15.12988l-31.65991 2.27a94.55427 94.55427 0 0 1 -97.65-68.34985 62.49534 62.49534 0 0 0 -20.28-31.07003h41.47a94.78132 94.78132 0 0 1 9.57 22.28 62.85053 62.85053 0 0 0 64.61 45.22l31.66-2.26a37.70141 37.70141 0 0 0 20.97-8.21 63.12114 63.12114 0 0 1 102.41 45.09 214.88388 214.88388 0 0 0 74.57008 148.88z" fill="#7bcadf"/><path d="m284.71 416h-32.26q-4.815-38.265-7.61-76.74-2.46-33.67492-3.34-67.43994-.63-23.85022-.47-47.71008.27-40.06514 2.75-80.11h32.07q-2.565 40.14-2.82 80.33-.12012 18.88494.26 37.79.6449 32.835 2.82 65.63 2.9251 44.23502 8.6 88.25002z" fill="#d4e4f0"/><path d="m276.11 327.75a289.78691 289.78691 0 0 0 -31.27 11.51q-2.46-33.67492-3.34-67.43994 15.66-5.59515 31.79-9.70007.64494 32.83501 2.82 65.63001z" fill="#c1d7e6"/><path d="m488 251.38v32.19007l-161.32007 17.53993a303.77264 303.77264 0 0 0 -126.68993 43.59 39.7771 39.7771 0 0 1 -7.52 22.66l26.81 48.64h-36.55l-17.8-32.3a40.3916 40.3916 0 0 1 -14.36-.82 302.55375 302.55375 0 0 0 -29.99 33.12h-39.47a336.1026 336.1026 0 0 1 43.8-52.8 40.016 40.016 0 0 1 .96-40.07 261.57325 261.57325 0 0 0 -45.87-42.85v-38.51q7.92 4.86 15.5 10.23a293.11644 293.11644 0 0 1 56.7 52.76 40.05217 40.05217 0 0 1 35.22 10.13 335.82627 335.82627 0 0 1 135.8-45.6z" fill="#d4e4f0"/><path d="m392 56a47.99956 47.99956 0 0 0 -48 48c0 40 48 88 48 88s48-48 48-88a47.99956 47.99956 0 0 0 -48-48zm0 64a16 16 0 1 1 16-16 15.99555 15.99555 0 0 1 -16 16z" fill="#e04446"/><circle cx="160" cy="344" fill="#4d6987" r="8"/></svg>