<svg id="Layer_5" enable-background="new 0 0 64 64" height="512" viewBox="0 0 64 64" width="512" xmlns="http://www.w3.org/2000/svg"><g><g><g><path d="m46 56h-28c-2.209 0-4-1.791-4-4v-42h36v42c0 2.209-1.791 4-4 4z" fill="#69d6f4"/></g><g><path d="m50 6v.2c-2.44.5-4.56 1.88-6 3.8h-30v-4c0-2.21 1.79-4 4-4h28c2.21 0 4 1.79 4 4z" fill="#969faa"/></g><g><path d="m50 52v6c0 2.21-1.79 4-4 4h-28c-2.21 0-4-1.79-4-4v-6c0 2.21 1.79 4 4 4h28c2.21 0 4-1.79 4-4z" fill="#969faa"/></g><g><path d="m44 51c0 .55-.45 1-1 1h-.59c-.26 0-.52-.11-.7-.29l-1.71-1.71 1.71-1.71c.18-.18.44-.29.7-.29h.59c.55 0 1 .45 1 1z" fill="#fcd770"/></g><g><path d="m34 49v2c0 .55-.45 1-1 1h-2c-.55 0-1-.45-1-1v-2c0-.55.45-1 1-1h2c.55 0 1 .45 1 1z" fill="#fcd770"/></g><g><path d="m24 50-1.71 1.71c-.18.18-.44.29-.7.29h-.59c-.55 0-1-.45-1-1v-2c0-.55.45-1 1-1h.59c.26 0 .52.11.7.29z" fill="#fcd770"/></g><g><path d="m14 29.71-3-1.71h-7c-1.1 0-2-.9-2-2v-8c0-1.1.9-2 2-2h10 8c1.1 0 2 .9 2 2v8c0 1.1-.9 2-2 2h-2v2.42c0 .87-.71 1.58-1.58 1.58-.28 0-.55-.07-.78-.21z" fill="#ffeaa7"/></g><g><path d="m40 42v-8c0-1.1.9-2 2-2h2v-2.42c0-.87.71-1.58 1.58-1.58.28 0 .55.07.78.21l3.52 2.01 3.12 1.78h7c1.1 0 2 .9 2 2v8c0 1.1-.9 2-2 2h-10-8c-1.1 0-2-.9-2-2z" fill="#e6e9ed"/></g><g><path d="m52 6c5.52 0 10 4.48 10 10s-4.48 10-10 10c-.69 0-1.36-.07-2-.2-4.56-.93-8-4.97-8-9.8 0-2.25.75-4.33 2-6 1.44-1.92 3.56-3.3 6-3.8.64-.13 1.31-.2 2-.2z" fill="#f0d0b4"/></g><g><path d="m55 18v1c0 1.66-1.34 3-3 3s-3-1.34-3-3v-1z" fill="#ff826e"/></g></g><g><path d="m31 5h6v2h-6z"/><path d="m27 5h2v2h-2z"/><path d="m21.586 47h-.586c-1.103 0-2 .897-2 2v2c0 1.103.897 2 2 2h.586c.534 0 1.036-.208 1.414-.586l2.414-2.414-2.414-2.414c-.378-.378-.88-.586-1.414-.586zm0 4h-.586v-2h.586l1 1z"/><path d="m33 47h-2c-1.103 0-2 .897-2 2v2c0 1.103.897 2 2 2h2c1.103 0 2-.897 2-2v-2c0-1.103-.897-2-2-2zm-2 4v-2h2l.001 2z"/><path d="m38.586 50 2.414 2.414c.378.378.88.586 1.414.586h.586c1.103 0 2-.897 2-2v-2c0-1.103-.897-2-2-2h-.586c-.534 0-1.036.208-1.414.586zm3.828-1h.586l.001 2h-.587l-1-1z"/><path d="m48 19c0 2.206 1.794 4 4 4s4-1.794 4-4v-2h-8zm6 0c0 1.103-.897 2-2 2s-2-.897-2-2z"/><path d="m56 14c.551 0 1 .448 1 1h2c0-1.654-1.346-3-3-3s-3 1.346-3 3h2c0-.552.449-1 1-1z"/><path d="m47 15c0-.552.449-1 1-1s1 .448 1 1h2c0-1.654-1.346-3-3-3s-3 1.346-3 3z"/><path d="m57 39h2v2h-2z"/><path d="m43 39h12v2h-12z"/><path d="m43 35h16v2h-16z"/><path d="m60 31h-6.734l-2.266-1.295v-2.756c.33.03.662.051 1 .051 6.065 0 11-4.935 11-11s-4.935-11-11-11c-.37 0-.735.02-1.096.055-.443-2.306-2.471-4.055-4.904-4.055h-28c-2.757 0-5 2.243-5 5v9h-9c-1.654 0-3 1.346-3 3v8c0 1.654 1.346 3 3 3h6.734l2.266 1.295v27.705c0 2.757 2.243 5 5 5h28c2.757 0 5-2.243 5-5v-13h9c1.654 0 3-1.346 3-3v-8c0-1.654-1.346-3-3-3zm1-15c0 4.963-4.038 9-9 9s-9-4.037-9-9 4.038-9 9-9 9 4.037 9 9zm-43-13h28c1.463 0 2.68 1.054 2.943 2.441-2.148.623-4.031 1.878-5.422 3.559h-28.521v-3c0-1.654 1.346-3 3-3zm-14 24c-.551 0-1-.448-1-1v-8c0-.552.449-1 1-1h18c.551 0 1 .448 1 1v8c0 .552-.449 1-1 1h-3v3.42c0 .421-.504.711-.868.504l-6.866-3.924zm42 34h-28c-1.654 0-3-1.346-3-3v-2.026c.838.635 1.87 1.026 3 1.026h28c1.13 0 2.162-.391 3-1.026v2.026c0 1.654-1.346 3-3 3zm3-9c0 1.654-1.346 3-3 3h-28c-1.654 0-3-1.346-3-3v-20.562l2.139 1.222c.388.223.832.34 1.281.34 1.423 0 2.58-1.157 2.58-2.58v-1.42h1c1.654 0 3-1.346 3-3v-8c0-1.654-1.346-3-3-3h-7v-4h27.214c-.77 1.502-1.214 3.199-1.214 5 0 5.024 3.39 9.263 8 10.574v1.989l-2.139-1.222c-.388-.224-.832-.341-1.281-.341-1.423 0-2.58 1.157-2.58 2.58v1.42h-1c-1.654 0-3 1.346-3 3v8c0 1.654 1.346 3 3 3h7zm12-10c0 .552-.449 1-1 1h-18c-.551 0-1-.448-1-1v-8c0-.552.449-1 1-1h3v-3.42c0-.421.503-.711.868-.504l6.866 3.924h7.266c.551 0 1 .448 1 1z"/><path d="m17 37h14v2h-14z"/><path d="m33 37h2v2h-2z"/><path d="m17 41h18v2h-18z"/><path d="m5 19h2v2h-2z"/><path d="m9 19h12v2h-12z"/><path d="m5 23h16v2h-16z"/></g></g></svg>