<svg height="480pt" viewBox="-71 0 479 480" width="480pt" xmlns="http://www.w3.org/2000/svg"><path d="m106.992188 444.425781 4 20c.453124 4.046875 3.699218 7.214844 7.757812 7.574219h99.503906c4.058594-.359375 7.304688-3.527344 7.761719-7.574219l4-20c.820313-2.6875.4375-5.597656-1.050781-7.980469-1.488282-2.382812-3.933594-4.003906-6.710938-4.445312h-107.503906c-2.773438.441406-5.222656 2.0625-6.710938 4.445312-1.488281 2.382813-1.871093 5.292969-1.046874 7.980469zm0 0" fill="#818085"/><path d="m90.023438 379.359375c-1 1.339844-1.53125 2.96875-1.519532 4.640625v40c0 4.417969 3.582032 8 8 8h144c4.417969 0 8-3.582031 8-8v-40c.011719-1.671875-.523437-3.300781-1.519531-4.640625-48.703125 27.519531-108.261719 27.519531-156.960937 0zm0 0" fill="#414042"/><path d="m230.015625 35.574219-4-20c-.457031-4.046875-3.703125-7.214844-7.761719-7.574219h-99.503906c-4.058594.359375-7.304688 3.527344-7.757812 7.574219l-4 20c-.824219 2.6875-.441407 5.597656 1.046874 7.980469 1.488282 2.382812 3.9375 4.003906 6.710938 4.445312h107.503906c2.777344-.441406 5.222656-2.0625 6.710938-4.445312 1.488281-2.382813 1.871094-5.292969 1.050781-7.980469zm0 0" fill="#6c6b6f"/><path d="m246.984375 100.640625c.996094-1.339844 1.53125-2.96875 1.519531-4.640625v-40c0-4.417969-3.582031-8-8-8h-144c-4.417968 0-8 3.582031-8 8v40c-.011718 1.671875.519532 3.300781 1.519532 4.640625 48.699218-27.519531 108.257812-27.519531 156.960937 0zm0 0" fill="#414042"/><path d="m246.984375 100.640625c-76.96875-43.34375-174.5-16.085937-217.84375 60.878906-43.339844 76.96875-16.085937 174.496094 60.882813 217.839844 76.964843 43.34375 174.496093 16.085937 217.839843-60.878906 43.34375-76.96875 16.085938-174.496094-60.878906-217.839844zm-134.480469 227.359375c-13.257812 0-24-10.746094-24-24s10.742188-24 24-24c13.253906 0 24 10.746094 24 24s-10.746094 24-24 24zm112 0c-13.257812 0-24-10.746094-24-24s10.742188-24 24-24c13.253906 0 24 10.746094 24 24s-10.746094 24-24 24zm40-104c0 8.835938-7.164062 16-16 16h-160c-8.839844 0-16-7.164062-16-16v-48c0-8.835938 7.160156-16 16-16h160c8.835938 0 16 7.164062 16 16zm0 0" fill="#58ab6d"/><path d="m230.015625 35.574219-4-20c-.457031-4.046875-3.703125-7.214844-7.761719-7.574219h-16c4.058594.359375 7.304688 3.527344 7.761719 7.574219l4 20c.820313 2.6875.4375 5.597656-1.050781 7.980469-1.488282 2.382812-3.933594 4.003906-6.710938 4.445312h16c2.777344-.441406 5.222656-2.0625 6.710938-4.445312 1.488281-2.382813 1.871094-5.292969 1.050781-7.980469zm0 0" fill="#363638"/><path d="m240.503906 48h-24c4.417969 0 8 3.582031 8 8v34.191406c7.753906 2.886719 15.269532 6.382813 22.480469 10.449219.996094-1.339844 1.53125-2.96875 1.519531-4.640625v-40c0-4.417969-3.582031-8-8-8zm0 0" fill="#212021"/><path d="m230.015625 444.425781-4 20c-.457031 4.046875-3.703125 7.214844-7.761719 7.574219h-16c4.058594-.359375 7.304688-3.527344 7.761719-7.574219l4-20c.820313-2.6875.4375-5.597656-1.050781-7.980469-1.488282-2.382812-3.933594-4.003906-6.710938-4.445312h16c2.777344.441406 5.222656 2.0625 6.710938 4.445312 1.488281 2.382813 1.871094 5.292969 1.050781 7.980469zm0 0" fill="#363638"/><path d="m240.503906 432h-24c4.417969 0 8-3.582031 8-8v-34.191406c7.753906-2.886719 15.269532-6.382813 22.480469-10.449219.996094 1.339844 1.53125 2.96875 1.519531 4.640625v40c0 4.417969-3.582031 8-8 8zm0 0" fill="#212021"/><path d="m246.984375 100.640625c-23.921875-13.585937-50.972656-20.703125-78.480469-20.640625-4 0-8 .191406-12 .480469 23.382813 1.699219 46.089844 8.585937 66.480469 20.160156 50.351563 28.3125 81.515625 81.589844 81.515625 139.359375s-31.164062 111.046875-81.515625 139.359375c-20.390625 11.574219-43.097656 18.460937-66.480469 20.160156 4 .289063 8 .480469 12 .480469 72.738282.027344 136.335938-49.027344 154.78125-119.390625 18.445313-70.359375-12.90625-144.308594-76.300781-179.96875zm0 0" fill="#2c5637"/><path d="m88.503906 160h160c8.835938 0 16 7.164062 16 16v48c0 8.835938-7.164062 16-16 16h-160c-8.839844 0-16-7.164062-16-16v-48c0-8.835938 7.160156-16 16-16zm0 0" fill="#d1d3d4"/><path d="m256.503906 160h-24c8.835938 0 16 7.164062 16 16v48c0 8.835938-7.164062 16-16 16h24c8.835938 0 16-7.164062 16-16v-48c0-8.835938-7.164062-16-16-16zm0 0" fill="#838485"/><path d="m248.503906 304c0 13.253906-10.746094 24-24 24-13.257812 0-24-10.746094-24-24s10.742188-24 24-24c13.253906 0 24 10.746094 24 24zm0 0" fill="#ff9811"/><path d="m136.503906 304c0 13.253906-10.746094 24-24 24-13.257812 0-24-10.746094-24-24s10.742188-24 24-24c13.253906 0 24 10.746094 24 24zm0 0" fill="#ff9811"/><path d="m112.503906 280c-2.734375.027344-5.441406.523438-8 1.472656 9.582032 3.339844 16.007813 12.378906 16.007813 22.527344s-6.425781 19.1875-16.007813 22.527344c2.558594.949218 5.265625 1.445312 8 1.472656 13.253906 0 24-10.746094 24-24s-10.746094-24-24-24zm0 0" fill="#df850f"/><path d="m224.503906 280c-2.734375.027344-5.441406.523438-8 1.472656 9.582032 3.339844 16.007813 12.378906 16.007813 22.527344s-6.425781 19.1875-16.007813 22.527344c2.558594.949218 5.265625 1.445312 8 1.472656 13.253906 0 24-10.746094 24-24s-10.746094-24-24-24zm0 0" fill="#df850f"/><g fill="#231f20"><path d="m336.503906 240c-.050781-58.363281-30.398437-112.515625-80.152344-143.023438 0-.335937.152344-.640624.152344-.976562v-40c0-8.835938-7.164062-16-16-16h-2.449218c.230468-2 .167968-4.019531-.191407-6l-4-20c-1.160156-7.8125-7.714843-13.691406-15.609375-14h-99.503906c-7.890625.308594-14.449219 6.1875-15.609375 14l-4 20c-.359375 1.980469-.421875 4-.191406 6h-2.445313c-8.839844 0-16 7.164062-16 16v40c0 .335938.132813.640625.152344.976562-49.792969 30.472657-80.15625 84.644532-80.15625 143.023438s30.363281 112.550781 80.15625 143.023438c0 .335937-.152344.640624-.152344.976562v40c0 8.835938 7.160156 16 16 16h2.445313c-.230469 2-.164063 4.019531.191406 6l4 20c1.160156 7.8125 7.71875 13.691406 15.609375 14h99.503906c7.894532-.308594 14.449219-6.1875 15.609375-14l4-20c.359375-1.980469.421875-4 .191407-6h2.449218c8.835938 0 16-7.164062 16-16v-40c0-.335938-.136718-.640625-.152344-.976562 49.746094-30.515626 80.089844-84.664063 80.152344-143.023438zm-221.671875-202.855469 4-20c.132813-.664062.382813-1.074219.160157-1.144531l98.582031-.175781c.320312.375.527343.832031.601562 1.320312l4 20c.210938.972657.050781 1.992188-.449219 2.855469h-106.398437c-.570313-.835938-.75-1.878906-.496094-2.855469zm-18.328125 18.855469h144l.0625 32.246094c-2.878906-1.375-5.792968-2.660156-8.742187-3.863282-.609375-.246093-1.234375-.453124-1.851563-.695312-2.511718-.992188-5.039062-1.945312-7.597656-2.816406-1.121094-.375-2.25-.703125-3.375-1.0625-2.089844-.65625-4.183594-1.296875-6.296875-1.871094-1.265625-.34375-2.535156-.65625-3.808594-.976562-2.023437-.496094-4.054687-.96875-6.097656-1.394532-1.308594-.269531-2.613281-.535156-3.933594-.796875-2.074219-.386719-4.144531-.714843-6.234375-1.015625-1.277344-.1875-2.550781-.378906-3.832031-.539062-2.277344-.269532-4.558594-.480469-6.847656-.664063-1.085938-.085937-2.175781-.207031-3.269531-.269531-3.386719-.160156-6.777344-.28125-10.175782-.28125-3.402344 0-6.792968.121094-10.175781.328125-1.089844.0625-2.167969.183594-3.265625.273437-2.289062.183594-4.566406.390626-6.847656.664063-1.28125.160156-2.550782.351563-3.832032.535156-2.089843.304688-4.160156.632813-6.230468 1.015625-1.3125.238282-2.625.507813-3.9375.800782-2.03125.421874-4.054688.894531-6.0625 1.390624-1.289063.320313-2.570313.632813-3.851563.984376-2.085937.566406-4.148437 1.199218-6.214843 1.847656-1.152344.359375-2.3125.703125-3.457032 1.089844-2.511718.847656-4.984375 1.78125-7.445312 2.75-.65625.265624-1.335938.480468-1.992188.753906-2.929687 1.199218-5.832031 2.46875-8.6875 3.839844zm125.671875 386.855469-4 20c-.136719.664062-.386719 1.074219-.160156 1.144531l-98.585937.175781c-.320313-.375-.527344-.832031-.597657-1.320312l-4-20c-.214843-.972657-.054687-1.992188.445313-2.855469h106.402344c.566406.835938.75 1.878906.496093 2.855469zm18.328125-18.855469h-144l-.066406-32.273438c2.804688 1.34375 5.648438 2.601563 8.527344 3.769532 2.402344.984375 4.800781 1.847656 7.257812 2.710937.503906.175781.992188.386719 1.496094.5625 35.46875 12.296875 74.050781 12.296875 109.519531 0 .472657-.160156.929688-.355469 1.398438-.523437 2.472656-.871094 4.9375-1.75 7.363281-2.75 2.867188-1.167969 5.703125-2.417969 8.503906-3.753906zm2.519532-51.59375c-22.726563 12.871094-48.402344 19.621094-74.519532 19.59375-3.28125 0-6.550781-.105469-9.808594-.3125-81.898437-5.253906-144.835937-74.570312-142.1875-156.59375 2.648438-82.023438 69.929688-147.132812 151.996094-147.09375 3.277344 0 6.546875.105469 9.804688.3125 3.890625.253906 7.753906.703125 11.59375 1.246094 18.699218 2.625 36.734375 8.75 53.160156 18.058594 47.84375 26.898437 77.453125 77.523437 77.445312 132.410156-.011718 54.890625-29.632812 105.503906-77.484374 132.386718zm0 0"/><path d="m248.503906 152h-160c-13.257812 0-24 10.746094-24 24v48c0 13.253906 10.742188 24 24 24h160c13.253906 0 24-10.746094 24-24v-48c0-13.253906-10.746094-24-24-24zm8 72c0 4.417969-3.582031 8-8 8h-160c-4.417968 0-8-3.582031-8-8v-48c0-4.417969 3.582032-8 8-8h160c4.417969 0 8 3.582031 8 8zm0 0"/><path d="m112.503906 272c-17.675781 0-32 14.328125-32 32s14.324219 32 32 32c17.671875 0 32-14.328125 32-32s-14.328125-32-32-32zm0 48c-8.839844 0-16-7.164062-16-16s7.160156-16 16-16c8.835938 0 16 7.164062 16 16s-7.164062 16-16 16zm0 0"/><path d="m224.503906 272c-17.675781 0-32 14.328125-32 32s14.324219 32 32 32c17.671875 0 32-14.328125 32-32s-14.328125-32-32-32zm0 48c-8.839844 0-16-7.164062-16-16s7.160156-16 16-16c8.835938 0 16 7.164062 16 16s-7.164062 16-16 16zm0 0"/><path d="m224.503906 184h16v32h-16zm0 0"/><path d="m192.503906 184h16v32h-16zm0 0"/><path d="m160.503906 184h16v32h-16zm0 0"/><path d="m128.503906 184h16v32h-16zm0 0"/><path d="m96.503906 184h16v32h-16zm0 0"/></g></svg>