<svg xmlns="http://www.w3.org/2000/svg" width="40" height="40" viewBox="0 0 40 40"><defs><style>.a,.c{fill:#6dbf67;}.a{opacity:0.2;}.b{fill:none;}</style></defs><g transform="translate(-76 -556)"><circle class="a" cx="20" cy="20" r="20" transform="translate(76 556)"/><g transform="translate(-5956 -1723)"><rect class="b" width="24" height="24" transform="translate(6040 2287)"/><g transform="translate(6042.59 2288.905)"><path class="c" d="M6078.012,2368.011c-.375,0-.667.15-.569.572a2.7,2.7,0,0,0,5.25,0c.1-.421-.194-.572-.569-.572Z" transform="translate(-6070.658 -2349.664)"/><path class="c" d="M6084.25,2297.686a1.25,1.25,0,0,1-1.25-1.25v-.565a1.25,1.25,0,0,1,2.5,0v.565A1.25,1.25,0,0,1,6084.25,2297.686Z" transform="translate(-6074.84 -2294.621)"/><path class="c" d="M6068.43,2357.883h-17.319a.75.75,0,0,1,0-1.5h17.319a.75.75,0,0,1,0,1.5Z" transform="translate(-6050.361 -2340.943)"/><path class="c" d="M6071.6,2316.478a.75.75,0,0,1-.75-.75V2309a6.324,6.324,0,1,0-12.647,0v6.728a.75.75,0,0,1-1.5,0V2309a7.824,7.824,0,0,1,15.647-.074h0v6.8A.75.75,0,0,1,6071.6,2316.478Z" transform="translate(-6055.119 -2299.537)"/></g></g></g></svg>