<svg xmlns="http://www.w3.org/2000/svg" width="48" height="48" viewBox="0 0 48 48"><defs><style>.a{fill:none;}.b{fill:#3db5ea;}.c{fill:#f7ab20;}</style></defs><rect class="a" width="48" height="48"/><g transform="translate(3.207 8.763)"><path class="b" d="M4363.346,10408.333h-18.322a6.76,6.76,0,0,1-.513-13.5,6.23,6.23,0,0,1,6.316-3.644,8.519,8.519,0,0,1,7.063-3.744,8.751,8.751,0,0,1,8.488,8.125,6.742,6.742,0,0,1-3.032,12.763Z" transform="translate(-4328.333 -10377.992)"/><path class="c" d="M4343.555,10374.744a1.512,1.512,0,0,1-1.5-1.5v-3.221a1.5,1.5,0,0,1,3,0v3.221A1.511,1.511,0,0,1,4343.555,10374.744Z" transform="translate(-4330.234 -10368.523)"/><path class="c" d="M4323.127,10395.172h-3.212a1.5,1.5,0,0,1,0-3h3.212a1.5,1.5,0,0,1,0,3Z" transform="translate(-4318.415 -10380.344)"/><path class="c" d="M4326.839,10409.592a1.572,1.572,0,0,1-1.069-.425,1.529,1.529,0,0,1,0-2.138l2.275-2.263a1.5,1.5,0,0,1,2.122,2.126l-2.266,2.274A1.572,1.572,0,0,1,4326.839,10409.592Z" transform="translate(-4321.873 -10386.425)"/><path class="c" d="M4355.73,10380.729a1.53,1.53,0,0,1-1.062-.437,1.507,1.507,0,0,1,0-2.124l2.272-2.276a1.505,1.505,0,0,1,2.125,2.132l-2.271,2.269A1.531,1.531,0,0,1,4355.73,10380.729Z" transform="translate(-4336.324 -10371.995)"/><path class="c" d="M4329.1,10380.723a1.506,1.506,0,0,1-1.059-.443l-2.275-2.275a1.489,1.489,0,0,1,0-2.105,1.508,1.508,0,0,1,2.131,0l2.266,2.256a1.506,1.506,0,0,1-1.062,2.568Z" transform="translate(-4321.873 -10372.004)"/><path class="c" d="M4335.4,10394.39a8.233,8.233,0,0,1,5.219-3.312,7.744,7.744,0,0,1,4.284-3.418,6.322,6.322,0,1,0-9.5,6.73Z" transform="translate(-4325.406 -10375.618)"/></g></svg>