<svg xmlns="http://www.w3.org/2000/svg" width="40" height="40" viewBox="0 0 40 40"><defs><style>.a{fill:none;}.b{fill:#b5b9ba;}</style></defs><g transform="translate(-4696 -10927)"><rect class="a" width="40" height="40" transform="translate(4696 10927)"/><g transform="translate(4698.516 10929.632)"><path class="b" d="M4721.757,10938.717a5.141,5.141,0,0,1-2.945-1.059c-2.848-1.991-4.243-.375-4.3-.3a1.25,1.25,0,1,1-1.922-1.6c1-1.2,3.885-2.78,7.656-.146a2.177,2.177,0,0,0,1.877.547c.829-.3,1.348-1.6,1.442-1.93a1.25,1.25,0,0,1,2.406.679c-.081.288-.855,2.837-3.007,3.605A3.576,3.576,0,0,1,4721.757,10938.717Z" transform="translate(-4708.023 -10933.316)"/><path class="b" d="M4735.571,10976.355h-32.1a1.43,1.43,0,0,1-1.436-1.385v-13.576a1.4,1.4,0,0,1,1.049-1.388l.943-.364v-10.665a1.451,1.451,0,0,1,1.436-1.429h3.01a1.451,1.451,0,0,1,1.436,1.429v8.365l4.579-1.753a1.4,1.4,0,0,1,1.275.115,1.436,1.436,0,0,1,.677,1.223V10959l8.891-3.368a1.389,1.389,0,0,1,1.273.118,1.433,1.433,0,0,1,.675,1.22v1.6l7.779-2.94a1.39,1.39,0,0,1,1.272.119,1.432,1.432,0,0,1,.675,1.22v17.954A1.451,1.451,0,0,1,4735.571,10976.355Zm-31.034-2.5h29.969v-15.341l-7.687,2.905a1.416,1.416,0,0,1-2.04-1.277v-1.627l-8.889,3.368a1.39,1.39,0,0,1-1.272-.116,1.435,1.435,0,0,1-.677-1.223v-2.067l-4.579,1.753a1.393,1.393,0,0,1-1.275-.116,1.434,1.434,0,0,1-.677-1.222v-8.844h-.881v11.311l-1.992.768Z" transform="translate(-4702.037 -10941.619)"/><g transform="translate(9.975 24.444)"><path class="b" d="M4728.922,10991.982h-2.443a.5.5,0,0,0-.5.5v2.442a.5.5,0,0,0,.5.5h2.443a.5.5,0,0,0,.5-.5v-2.442a.5.5,0,0,0-.5-.5Z" transform="translate(-4725.978 -10991.982)"/><path class="b" d="M4742.81,10991.982h-2.443a.5.5,0,0,0-.5.5v2.442a.5.5,0,0,0,.5.5h2.443a.5.5,0,0,0,.5-.5v-2.442a.5.5,0,0,0-.5-.5Z" transform="translate(-4734.08 -10991.982)"/><path class="b" d="M4756.7,10991.982h-2.443a.5.5,0,0,0-.5.5v2.442a.5.5,0,0,0,.5.5h2.443a.5.5,0,0,0,.5-.5v-2.442a.5.5,0,0,0-.5-.5Z" transform="translate(-4742.181 -10991.982)"/></g></g><rect class="a" width="40" height="40" transform="translate(4696 10927)"/></g></svg>