<svg xmlns="http://www.w3.org/2000/svg" width="40" height="40" viewBox="0 0 40 40"><defs><style>.a{fill:none;}.b{fill:#b5b9ba;}</style></defs><g transform="translate(-952 -10831)"><rect class="a" width="40" height="40" transform="translate(952 10831)"/><path class="b" d="M985.366,10874.527H965.432c-.031,0-.061,0-.092,0s-.082,0-.125,0a7.432,7.432,0,0,1-.558-14.844,6.855,6.855,0,0,1,6.946-4.014,9.385,9.385,0,0,1,7.766-4.111,9.616,9.616,0,0,1,9.326,8.934,7.411,7.411,0,0,1-3.331,14.035Zm-19.771-2.5h19.771a4.912,4.912,0,0,0,1.692-9.525,1.252,1.252,0,0,1-.819-1.158,7.158,7.158,0,0,0-6.868-7.285,6.894,6.894,0,0,0-6.046,3.586,1.251,1.251,0,0,1-1.389.617,4.333,4.333,0,0,0-5.207,3.014,1.241,1.241,0,0,1-1.264.9l-.125-.008c-.041,0-.082-.006-.124-.006a4.933,4.933,0,1,0,0,9.865l.044,0,.13-.008A1.774,1.774,0,0,1,965.595,10872.027Z" transform="translate(-3.373 -11.993)"/></g></svg>