<svg width="30" height="30" viewBox="0 0 40 40" fill="none" xmlns="http://www.w3.org/2000/svg">
<path d="M21 40.9994C15.6957 40.9994 10.6085 38.8923 6.85796 35.1416C3.10716 31.3909 1 26.3039 1 20.9999C1 15.6959 3.10716 10.6086 6.85796 6.85819C10.6088 3.10748 15.6959 1.00037 21 1.00037C26.3041 1.00037 31.3915 3.10748 35.142 6.85819C38.8928 10.6089 41 15.6959 41 20.9999C40.994 26.3023 38.885 31.3855 35.1358 35.1359C31.3861 38.8851 26.3023 40.9941 20.9994 41L21 40.9994ZM21 4.33328C16.5796 4.33328 12.3403 6.08925 9.21513 9.21492C6.08938 12.3402 4.33337 16.5794 4.33337 20.9995C4.33337 25.4196 6.08938 29.659 9.21513 32.7841C12.3405 35.9098 16.5798 37.6658 21 37.6658C25.4202 37.6658 29.6597 35.9098 32.7849 32.7841C35.9106 29.6588 37.6666 25.4196 37.6666 20.9995C37.6614 16.5807 35.904 12.3445 32.7794 9.22064C29.655 6.09601 25.4186 4.33842 21 4.33328ZM7.17796 1.48846C7.49084 1.80058 7.66644 2.22469 7.66644 2.66663C7.66644 3.10858 7.49083 3.5327 7.17796 3.84481L3.8446 7.17809C3.42123 7.58695 2.81373 7.74245 2.24601 7.58695C1.67867 7.43107 1.23524 6.98762 1.07933 6.4203C0.923829 5.8526 1.07933 5.24507 1.4882 4.82175L4.82156 1.48846C5.13369 1.17559 5.55781 1 5.99976 1C6.44172 1 6.86585 1.1756 7.17796 1.48846ZM40.5116 4.82175L37.1782 1.48846C36.7549 1.07961 36.1474 0.924106 35.5797 1.07961C35.0123 1.23548 34.5689 1.67893 34.413 2.24626C34.2575 2.81396 34.413 3.42148 34.8218 3.84481L38.1552 7.17809C38.5786 7.58695 39.1861 7.74245 39.7538 7.58695C40.3211 7.43107 40.7646 6.98762 40.9205 6.4203C41.076 5.8526 40.9205 5.24507 40.5116 4.82175ZM26.9334 19.333H22.6666V10.9998C22.6666 10.4042 22.3489 9.85396 21.8332 9.55635C21.3176 9.25873 20.6822 9.25873 20.1666 9.55635C19.6509 9.85396 19.3332 10.4042 19.3332 10.9998V20.9996C19.3332 21.4416 19.5088 21.8657 19.8213 22.1782C20.1338 22.4907 20.5579 22.6663 20.9999 22.6663H26.9334C27.5286 22.6663 28.0788 22.3486 28.3768 21.8329C28.6745 21.3173 28.6745 20.6819 28.3768 20.1663C28.0788 19.6507 27.5286 19.333 26.9334 19.333Z" fill="#42A0D4" stroke="#002445"/>
</svg>

