<svg xmlns="http://www.w3.org/2000/svg" xmlns:xlink="http://www.w3.org/1999/xlink" width="486.001" height="80" viewBox="0 0 486.001 80"><defs><style>.a{fill:#034ea2;}.b{opacity:0.2;fill:url(#a);}.c{fill:#fff;}.d{fill:#009c53;font-size:42px;font-family:JioType-Bold, JioType;font-weight:700;}.e,.g{fill:#1d60ab;}.f{fill:#e30513;}.g{font-size:17px;font-family:JioType-Medium, JioType;font-weight:500;}</style><linearGradient id="a" x1="0.5" y1="0.028" x2="0.5" y2="1.028" gradientUnits="objectBoundingBox"><stop offset="0" stop-color="#fff"/><stop offset="0.16" stop-color="#fff" stop-opacity="0.859"/><stop offset="0.51" stop-color="#fff" stop-opacity="0.522"/><stop offset="0.99" stop-color="#fff" stop-opacity="0"/></linearGradient></defs><g transform="translate(-157.999 -149)"><g transform="translate(158 149)"><circle class="a" cx="40" cy="40" r="40" transform="translate(-0.001)"/><circle class="b" cx="40" cy="40" r="40" transform="translate(-0.001)"/><path class="c" d="M84.581,41.211a.911.911,0,0,0-.8-.459H78.163a.177.177,0,0,1-.177-.216L80.5,28.952a.922.922,0,0,0-1.7-.655L69.313,44.9a.926.926,0,0,0,.791,1.385h5.687a.178.178,0,0,1,.171.217L73.441,58.083a.911.911,0,0,0,.589,1.058,1.007,1.007,0,0,0,.337.061.907.907,0,0,0,.8-.469L84.59,42.112A.9.9,0,0,0,84.581,41.211Z" transform="translate(-34.509 -13.812)"/><path class="c" d="M59.7,79.718A27.13,27.13,0,0,1,43.079,28.234a2.016,2.016,0,0,1,1.509,3.738,23.087,23.087,0,1,0,25.48,5.51,2.015,2.015,0,0,1,2.921-2.775A27.13,27.13,0,0,1,59.7,79.718Z" transform="translate(-13.173 -13.941)"/><path class="c" d="M66.274,83.245A18.263,18.263,0,0,1,48.433,53.257a2.015,2.015,0,0,1,2.987,2.7,14.234,14.234,0,1,0,24.007,4.9,2.014,2.014,0,1,1,3.8-1.324A18.252,18.252,0,0,1,66.27,83.273Z" transform="translate(-21.872 -26.106)"/></g><g transform="translate(256.254 149)"><text class="d" transform="translate(-0.254 39)"><tspan x="0" y="0">e</tspan><tspan class="e" y="0">Analyti</tspan><tspan class="f" y="0">X</tspan></text><text class="g" transform="translate(-0.254 69)"><tspan x="0" y="0">Monitor, Analyse and Control your Energy Assets</tspan></text></g></g></svg>