<svg xmlns="http://www.w3.org/2000/svg" width="40" height="40" viewBox="0 0 40 40"><defs><style>.a{fill:none;}.b{fill:#b5b9ba;}</style></defs><g transform="translate(-2871 -9871)"><rect class="a" width="40" height="40" transform="translate(2871 9871)"/><g transform="translate(2874.53 9873.293)"><g transform="translate(0 0)"><path class="b" d="M2895.963,9914.259a16.49,16.49,0,1,1,3.143-32.681,1.25,1.25,0,0,1-.474,2.455,14.165,14.165,0,0,0-2.669-.254,13.971,13.971,0,1,0,13.489,10.265,1.25,1.25,0,1,1,2.41-.664,16.5,16.5,0,0,1-15.9,20.879Z" transform="translate(-2879.473 -9879.289)"/><path class="b" d="M2920.763,9881.142a1.241,1.241,0,0,1-.87-.353l-2.21-2.142a1.25,1.25,0,0,1,1.741-1.795l2.21,2.143a1.249,1.249,0,0,1-.87,2.146Z" transform="translate(-2901.541 -9876.5)"/><path class="b" d="M2917.912,9886.781a1.25,1.25,0,0,1-.688-2.295l2.544-1.674a1.25,1.25,0,1,1,1.375,2.088l-2.545,1.674A1.235,1.235,0,0,1,2917.912,9886.781Z" transform="translate(-2901.166 -9880.063)"/></g><g transform="translate(11.517 8.139)"><path class="b" d="M2915.052,9897.121l-1.746,8a.382.382,0,0,0,.373.463h3.894a.381.381,0,0,1,.333.568l-6.521,11.484a.382.382,0,0,1-.705-.27l1.733-8.014a.381.381,0,0,0-.373-.461h-3.923a.382.382,0,0,1-.331-.572l6.562-11.469A.381.381,0,0,1,2915.052,9897.121Z" transform="translate(-2907.477 -9896.398)"/><path class="b" d="M2910.7,9917.726a.636.636,0,0,1-.236-.044.628.628,0,0,1-.4-.731l1.733-8.014a.124.124,0,0,0-.12-.149h-3.923a.64.64,0,0,1-.556-.957l6.562-11.472a.64.64,0,0,1,1.18.455l-1.746,8a.122.122,0,0,0,.025.1.124.124,0,0,0,.1.046h3.894a.639.639,0,0,1,.556.955l-6.521,11.483A.626.626,0,0,1,2910.7,9917.726Zm3.611-21.174a.113.113,0,0,0-.1.063l-6.562,11.472a.123.123,0,0,0,.107.184h3.923a.642.642,0,0,1,.625.776l-1.733,8.012a.115.115,0,0,0,.077.142.114.114,0,0,0,.151-.054l6.521-11.484a.118.118,0,0,0,0-.122.121.121,0,0,0-.106-.062h-3.894a.637.637,0,0,1-.625-.774l1.746-8a.114.114,0,0,0-.076-.142A.158.158,0,0,0,2914.309,9896.552Z" transform="translate(-2907.114 -9896.034)"/></g></g></g></svg>