<svg width="36" height="36" viewBox="0 0 42 42" fill="none" xmlns="http://www.w3.org/2000/svg">
<path d="M18.2698 20.96C18.6054 22.7082 20.3004 23.8573 22.0486 23.5217C23.7968 23.1861 24.9459 21.4911 24.6103 19.7429C24.2748 17.9947 22.5797 16.8456 20.8315 17.1811C20.673 17.2116 20.5248 17.265 20.3772 17.3171L13.7627 13.2787L11.6151 13.691L12.0273 15.8386L18.2278 20.4877C18.234 20.6441 18.2394 20.8015 18.2698 20.96ZM23.3422 19.9863C23.5435 21.0351 22.8539 22.0523 21.8052 22.2536C20.7564 22.4549 19.7392 21.7653 19.5379 20.7166C19.3366 19.6678 20.0262 18.6506 21.0749 18.4493C22.1237 18.2479 23.1409 18.9375 23.3422 19.9863ZM13.2012 15.1042L13.1266 14.7156L13.5153 14.641L19.1497 18.0813C18.8691 18.3652 18.6431 18.6986 18.4832 19.0645L13.2012 15.1042Z" fill="#42A0D4"/>
<path d="M21 1C9.97185 1 1 9.97185 1 21C1 32.0281 9.97185 41 21 41C32.0281 41 41 32.0281 41 21C41 9.97185 32.0281 1 21 1ZM21 39.5185C11.0368 39.5185 2.89122 31.6098 2.50011 21.7407H5.44453V20.2593H2.50011C2.57848 18.2791 2.96604 16.377 3.62078 14.6029L6.34434 15.7319L6.9118 14.3628L4.19324 13.2361C5.01103 11.4732 6.09631 9.8585 7.39992 8.44711L9.47628 10.5235L10.5236 9.47619L8.4472 7.39983C9.85825 6.0963 11.4723 5.01092 13.2362 4.19314L14.3629 6.9117L15.7319 6.34425L14.603 3.62069C16.3771 2.96593 18.2792 2.5784 20.2594 2.50001V5.44444H21.7408V2.50001C23.721 2.57839 25.6231 2.96595 27.3972 3.62069L26.2682 6.34425L27.6373 6.9117L28.764 4.19314C30.5269 5.01094 32.1416 6.09621 33.553 7.39983L31.4766 9.47619L32.5239 10.5235L34.6003 8.44711C35.9038 9.85816 36.9892 11.4722 37.8069 13.2361L35.0884 14.3628L35.6558 15.7319L38.3794 14.6029C39.0342 16.377 39.4224 18.2792 39.5001 20.2593H36.5557V21.7407H39.5001C39.1089 31.6099 30.9632 39.5185 21 39.5185Z" fill="#42A0D4"/>
<path d="M32.6207 22.6567C31.5528 22.6567 30.6838 23.5257 30.6838 24.5936C30.6838 25.6615 31.5528 26.5305 32.6207 26.5305C33.6886 26.5305 34.5576 25.6615 34.5576 24.5936C34.5576 23.5257 33.6886 22.6567 32.6207 22.6567ZM32.6207 25.2393C32.2644 25.2393 31.975 24.9499 31.975 24.5936C31.975 24.2374 32.2644 23.948 32.6207 23.948C32.9769 23.948 33.2663 24.2374 33.2663 24.5936C33.2663 24.9499 32.9769 25.2393 32.6207 25.2393Z" fill="#42A0D4"/>
<path d="M9.37848 22.6567C8.31057 22.6567 7.44159 23.5257 7.44159 24.5936C7.44159 25.6615 8.31057 26.5305 9.37848 26.5305C10.4464 26.5305 11.3154 25.6615 11.3154 24.5936C11.3154 23.5257 10.4464 22.6567 9.37848 22.6567ZM9.37848 25.2393C9.02224 25.2393 8.73285 24.9499 8.73285 24.5936C8.73285 24.2374 9.02224 23.948 9.37848 23.948C9.73473 23.948 10.0241 24.2374 10.0241 24.5936C10.0241 24.9499 9.73473 25.2393 9.37848 25.2393Z" fill="#42A0D4"/>
<path d="M22.7511 28.0035H20.2278C20.0905 28.0035 19.9792 28.1145 19.9792 28.2514V30.8958C19.9792 30.9615 20.0054 31.0246 20.052 31.0711C20.0987 31.1175 20.1619 31.1436 20.2278 31.1436H22.7511C22.8171 31.1436 22.8803 31.1175 22.9269 31.0711C22.9735 31.0246 22.9997 30.9615 22.9997 30.8958V28.2514C22.9997 28.1857 22.9735 28.1226 22.9269 28.0761C22.8803 28.0297 22.8171 28.0035 22.7511 28.0035ZM22.5025 30.648H20.4764V28.4992H22.5025V30.648ZM28.4879 29.8178L26.9962 27.3394C26.9254 27.2226 26.7731 27.1849 26.6557 27.2551C26.5376 27.325 26.4987 27.477 26.5687 27.5947L27.4861 29.1263C27.1906 29.2836 26.9811 29.5647 26.9157 29.8923C26.8502 30.2198 26.9354 30.5594 27.148 30.8177C27.3605 31.0759 27.678 31.2256 28.0131 31.2255V32.0052C28.0131 32.3293 27.8396 32.6287 27.5582 32.7908C27.2766 32.9528 26.9298 32.9528 26.6482 32.7908C26.3667 32.6287 26.1932 32.3293 26.1932 32.0052V29.9491C26.1927 29.6202 26.0765 29.302 25.8648 29.0497C25.653 28.7975 25.3594 28.6272 25.0347 28.5687V26.8228C25.0347 26.5949 24.9447 26.3761 24.7842 26.2138C24.6237 26.0514 24.4056 25.9586 24.177 25.9554H18.797C18.5649 25.9534 18.3417 26.0439 18.1769 26.2068C18.012 26.3697 17.9194 26.5915 17.9194 26.8228V34.2333H17.8199C17.6715 34.2333 17.5293 34.292 17.4244 34.3967C17.3195 34.5012 17.2605 34.6431 17.2605 34.7909V36.2221C17.2605 36.37 17.3195 36.5118 17.4244 36.6164C17.5292 36.721 17.6715 36.7797 17.8199 36.7797H25.1539C25.3023 36.7797 25.4446 36.721 25.5495 36.6164C25.6544 36.5119 25.7133 36.37 25.7133 36.2221V34.7909C25.7133 34.6431 25.6544 34.5012 25.5495 34.3967C25.4446 34.292 25.3023 34.2333 25.1539 34.2333H25.0471V29.0743C25.1959 29.1174 25.3316 29.1965 25.4423 29.3047C25.6126 29.4752 25.7083 29.706 25.7083 29.9465V32.0027C25.7083 32.5038 25.9766 32.9669 26.4119 33.2175C26.8473 33.4681 27.3837 33.4681 27.8191 33.2175C28.2545 32.9669 28.5227 32.5039 28.5227 32.0027V29.9465C28.5222 29.9014 28.5105 29.8571 28.4879 29.8178ZM25.2161 34.7907V36.2219C25.2149 36.2556 25.1877 36.2827 25.154 36.2839H17.82C17.7857 36.2839 17.7578 36.2561 17.7578 36.2219V34.7907C17.7578 34.7565 17.7857 34.7288 17.82 34.7288H25.154C25.1877 34.7301 25.2149 34.7571 25.2161 34.7907ZM18.4166 34.2331V26.8226C18.4166 26.7227 18.4569 26.627 18.5285 26.5571C18.5999 26.4872 18.6967 26.4489 18.7969 26.4509H24.177C24.3829 26.4509 24.5499 26.6173 24.5499 26.8226V34.2331H18.4166ZM28.0256 30.7322C27.8361 30.7337 27.6562 30.649 27.5371 30.5019C27.4179 30.3549 27.3726 30.1617 27.414 29.9773C27.4555 29.7928 27.579 29.6374 27.7497 29.555L28.0256 30.0135L28.0256 30.7322Z" fill="#42A0D4"/>
<path d="M18.2698 20.96C18.6054 22.7082 20.3004 23.8573 22.0486 23.5217C23.7968 23.1861 24.9459 21.4911 24.6103 19.7429C24.2748 17.9947 22.5797 16.8456 20.8315 17.1811C20.673 17.2116 20.5248 17.265 20.3772 17.3171L13.7627 13.2787L11.6151 13.691L12.0273 15.8386L18.2278 20.4877C18.234 20.6441 18.2394 20.8015 18.2698 20.96ZM23.3422 19.9863C23.5435 21.0351 22.8539 22.0523 21.8052 22.2536C20.7564 22.4549 19.7392 21.7653 19.5379 20.7166C19.3366 19.6678 20.0262 18.6506 21.0749 18.4493C22.1237 18.2479 23.1409 18.9375 23.3422 19.9863ZM13.2012 15.1042L13.1266 14.7156L13.5153 14.641L19.1497 18.0813C18.8691 18.3652 18.6431 18.6986 18.4832 19.0645L13.2012 15.1042Z" stroke="#42A0D4" stroke-width="0.7"/>
<path d="M21 1C9.97185 1 1 9.97185 1 21C1 32.0281 9.97185 41 21 41C32.0281 41 41 32.0281 41 21C41 9.97185 32.0281 1 21 1ZM21 39.5185C11.0368 39.5185 2.89122 31.6098 2.50011 21.7407H5.44453V20.2593H2.50011C2.57848 18.2791 2.96604 16.377 3.62078 14.6029L6.34434 15.7319L6.9118 14.3628L4.19324 13.2361C5.01103 11.4732 6.09631 9.8585 7.39992 8.44711L9.47628 10.5235L10.5236 9.47619L8.4472 7.39983C9.85825 6.0963 11.4723 5.01092 13.2362 4.19314L14.3629 6.9117L15.7319 6.34425L14.603 3.62069C16.3771 2.96593 18.2792 2.5784 20.2594 2.50001V5.44444H21.7408V2.50001C23.721 2.57839 25.6231 2.96595 27.3972 3.62069L26.2682 6.34425L27.6373 6.9117L28.764 4.19314C30.5269 5.01094 32.1416 6.09621 33.553 7.39983L31.4766 9.47619L32.5239 10.5235L34.6003 8.44711C35.9038 9.85816 36.9892 11.4722 37.8069 13.2361L35.0884 14.3628L35.6558 15.7319L38.3794 14.6029C39.0342 16.377 39.4224 18.2792 39.5001 20.2593H36.5557V21.7407H39.5001C39.1089 31.6099 30.9632 39.5185 21 39.5185Z" stroke="#42A0D4" stroke-width="0.7"/>
<path d="M32.6207 22.6567C31.5528 22.6567 30.6838 23.5257 30.6838 24.5936C30.6838 25.6615 31.5528 26.5305 32.6207 26.5305C33.6886 26.5305 34.5576 25.6615 34.5576 24.5936C34.5576 23.5257 33.6886 22.6567 32.6207 22.6567ZM32.6207 25.2393C32.2644 25.2393 31.975 24.9499 31.975 24.5936C31.975 24.2374 32.2644 23.948 32.6207 23.948C32.9769 23.948 33.2663 24.2374 33.2663 24.5936C33.2663 24.9499 32.9769 25.2393 32.6207 25.2393Z" stroke="#42A0D4" stroke-width="0.7"/>
<path d="M9.37848 22.6567C8.31057 22.6567 7.44159 23.5257 7.44159 24.5936C7.44159 25.6615 8.31057 26.5305 9.37848 26.5305C10.4464 26.5305 11.3154 25.6615 11.3154 24.5936C11.3154 23.5257 10.4464 22.6567 9.37848 22.6567ZM9.37848 25.2393C9.02224 25.2393 8.73285 24.9499 8.73285 24.5936C8.73285 24.2374 9.02224 23.948 9.37848 23.948C9.73473 23.948 10.0241 24.2374 10.0241 24.5936C10.0241 24.9499 9.73473 25.2393 9.37848 25.2393Z" stroke="#42A0D4" stroke-width="0.7"/>
<path d="M22.7511 28.0035H20.2278C20.0905 28.0035 19.9792 28.1145 19.9792 28.2514V30.8958C19.9792 30.9615 20.0054 31.0246 20.052 31.0711C20.0987 31.1175 20.1619 31.1436 20.2278 31.1436H22.7511C22.8171 31.1436 22.8803 31.1175 22.9269 31.0711C22.9735 31.0246 22.9997 30.9615 22.9997 30.8958V28.2514C22.9997 28.1857 22.9735 28.1226 22.9269 28.0761C22.8803 28.0297 22.8171 28.0035 22.7511 28.0035ZM22.5025 30.648H20.4764V28.4992H22.5025V30.648ZM28.4879 29.8178L26.9962 27.3394C26.9254 27.2226 26.7731 27.1849 26.6557 27.2551C26.5376 27.325 26.4987 27.477 26.5687 27.5947L27.4861 29.1263C27.1906 29.2836 26.9811 29.5647 26.9157 29.8923C26.8502 30.2198 26.9354 30.5594 27.148 30.8177C27.3605 31.0759 27.678 31.2256 28.0131 31.2255V32.0052C28.0131 32.3293 27.8396 32.6287 27.5582 32.7908C27.2766 32.9528 26.9298 32.9528 26.6482 32.7908C26.3667 32.6287 26.1932 32.3293 26.1932 32.0052V29.9491C26.1927 29.6202 26.0765 29.302 25.8648 29.0497C25.653 28.7975 25.3594 28.6272 25.0347 28.5687V26.8228C25.0347 26.5949 24.9447 26.3761 24.7842 26.2138C24.6237 26.0514 24.4056 25.9586 24.177 25.9554H18.797C18.5649 25.9534 18.3417 26.0439 18.1769 26.2068C18.012 26.3697 17.9194 26.5915 17.9194 26.8228V34.2333H17.8199C17.6715 34.2333 17.5293 34.292 17.4244 34.3967C17.3195 34.5012 17.2605 34.6431 17.2605 34.7909V36.2221C17.2605 36.37 17.3195 36.5118 17.4244 36.6164C17.5292 36.721 17.6715 36.7797 17.8199 36.7797H25.1539C25.3023 36.7797 25.4446 36.721 25.5495 36.6164C25.6544 36.5119 25.7133 36.37 25.7133 36.2221V34.7909C25.7133 34.6431 25.6544 34.5012 25.5495 34.3967C25.4446 34.292 25.3023 34.2333 25.1539 34.2333H25.0471V29.0743C25.1959 29.1174 25.3316 29.1965 25.4423 29.3047C25.6126 29.4752 25.7083 29.706 25.7083 29.9465V32.0027C25.7083 32.5038 25.9766 32.9669 26.4119 33.2175C26.8473 33.4681 27.3837 33.4681 27.8191 33.2175C28.2545 32.9669 28.5227 32.5039 28.5227 32.0027V29.9465C28.5222 29.9014 28.5105 29.8571 28.4879 29.8178ZM25.2161 34.7907V36.2219C25.2149 36.2556 25.1877 36.2827 25.154 36.2839H17.82C17.7857 36.2839 17.7578 36.2561 17.7578 36.2219V34.7907C17.7578 34.7565 17.7857 34.7288 17.82 34.7288H25.154C25.1877 34.7301 25.2149 34.7571 25.2161 34.7907ZM18.4166 34.2331V26.8226C18.4166 26.7227 18.4569 26.627 18.5285 26.5571C18.5999 26.4872 18.6967 26.4489 18.7969 26.4509H24.177C24.3829 26.4509 24.5499 26.6173 24.5499 26.8226V34.2331H18.4166ZM28.0256 30.7322C27.8361 30.7337 27.6562 30.649 27.5371 30.5019C27.4179 30.3549 27.3726 30.1617 27.414 29.9773C27.4555 29.7928 27.579 29.6374 27.7497 29.555L28.0256 30.0135L28.0256 30.7322Z" stroke="#42A0D4" stroke-width="0.7"/>
</svg>

