<svg width="36" height="36" viewBox="0 0 42 42" fill="none" xmlns="http://www.w3.org/2000/svg">
<path d="M18.7742 21.4585C19.8723 22.8596 21.9052 23.1061 23.3063 22.0081C24.7074 20.9101 24.954 18.8771 23.8559 17.476C22.7579 16.0749 20.7249 15.8284 19.3238 16.9264C19.1968 17.026 19.0894 17.1413 18.982 17.2551L11.2528 16.6894L9.53161 18.0384L10.8805 19.7596L18.5208 21.0577C18.5979 21.194 18.6747 21.3315 18.7742 21.4585ZM22.8396 18.2725C23.4983 19.1131 23.3504 20.333 22.5098 20.9918C21.6693 21.6505 20.4493 21.5026 19.7906 20.662C19.1318 19.8215 19.2798 18.6015 20.1203 17.9428C20.9609 17.284 22.1809 17.432 22.8396 18.2725ZM11.5885 18.5696L11.3444 18.2581L11.6559 18.014L18.24 18.4961C18.1203 18.877 18.0718 19.2768 18.097 19.6753L11.5885 18.5696Z" fill="#42A0D4"/>
<path d="M21 1C9.97185 1 1 9.97185 1 21C1 32.0282 9.97185 41 21 41C32.0282 41 41 32.0282 41 21C41 9.97185 32.0282 1 21 1ZM21 39.5185C11.0368 39.5185 2.89122 31.6098 2.50011 21.7407H5.44453V20.2593H2.50011C2.57848 18.2791 2.96604 16.377 3.62078 14.6029L6.34434 15.7319L6.9118 14.3628L4.19324 13.2361C5.01103 11.4732 6.09631 9.8585 7.39992 8.44711L9.47628 10.5235L10.5236 9.47619L8.4472 7.39983C9.85825 6.0963 11.4723 5.01092 13.2362 4.19314L14.3629 6.9117L15.7319 6.34425L14.603 3.62069C16.3771 2.96593 18.2792 2.5784 20.2594 2.50001V5.44444H21.7408V2.50001C23.721 2.57839 25.6231 2.96595 27.3972 3.62069L26.2682 6.34425L27.6373 6.9117L28.764 4.19314C30.5269 5.01094 32.1416 6.09621 33.553 7.39983L31.4766 9.47619L32.5239 10.5235L34.6003 8.44711C35.9038 9.85816 36.9892 11.4722 37.807 13.2361L35.0884 14.3628L35.6558 15.7319L38.3794 14.6029C39.0342 16.377 39.4224 18.2792 39.5001 20.2593H36.5557V21.7407H39.5001C39.1089 31.61 30.9632 39.5185 21 39.5185Z" fill="#42A0D4"/>
<path d="M32.622 22.6548C31.5541 22.6548 30.6851 23.5238 30.6851 24.5917C30.6851 25.6596 31.5541 26.5286 32.622 26.5286C33.6899 26.5286 34.5589 25.6596 34.5589 24.5917C34.5589 23.5238 33.6899 22.6548 32.622 22.6548ZM32.622 25.2374C32.2658 25.2374 31.9764 24.948 31.9764 24.5917C31.9764 24.2355 32.2658 23.9461 32.622 23.9461C32.9783 23.9461 33.2677 24.2355 33.2677 24.5917C33.2677 24.948 32.9783 25.2374 32.622 25.2374Z" fill="#42A0D4"/>
<path d="M9.37865 22.6548C8.31074 22.6548 7.44176 23.5238 7.44176 24.5917C7.44176 25.6596 8.31074 26.5286 9.37865 26.5286C10.4466 26.5286 11.3155 25.6596 11.3155 24.5917C11.3155 23.5238 10.4466 22.6548 9.37865 22.6548ZM9.37865 25.2374C9.02241 25.2374 8.73302 24.948 8.73302 24.5917C8.73302 24.2355 9.02241 23.9461 9.37865 23.9461C9.7349 23.9461 10.0243 24.2355 10.0243 24.5917C10.0243 24.948 9.7349 25.2374 9.37865 25.2374Z" fill="#42A0D4"/>
<path d="M22.7518 28.0008H20.2285C20.0912 28.0008 19.9799 28.1118 19.9799 28.2487V30.8931C19.9799 30.9588 20.0061 31.0219 20.0527 31.0684C20.0994 31.1148 20.1626 31.1409 20.2285 31.1409H22.7518C22.8178 31.1409 22.881 31.1148 22.9276 31.0684C22.9743 31.0219 23.0004 30.9588 23.0004 30.8931V28.2487C23.0004 28.183 22.9743 28.1199 22.9276 28.0734C22.881 28.027 22.8178 28.0008 22.7518 28.0008ZM22.5032 30.6453H20.4771V28.4965H22.5032V30.6453ZM28.4886 29.8151L26.9969 27.3367C26.9261 27.2199 26.7738 27.1822 26.6564 27.2524C26.5383 27.3222 26.4994 27.4743 26.5694 27.592L27.4869 29.1236C27.1913 29.2809 26.9818 29.562 26.9164 29.8895C26.8509 30.2171 26.9361 30.5567 27.1487 30.815C27.3612 31.0732 27.6788 31.2229 28.0138 31.2228V32.0025C28.0138 32.3266 27.8403 32.626 27.5589 32.7881C27.2773 32.9501 26.9305 32.9501 26.6489 32.7881C26.3674 32.626 26.1939 32.3266 26.1939 32.0025V29.9464C26.1934 29.6175 26.0772 29.2993 25.8655 29.047C25.6537 28.7948 25.3601 28.6245 25.0354 28.566V26.8201C25.0354 26.5922 24.9454 26.3734 24.7849 26.2111C24.6244 26.0487 24.4063 25.9559 24.1777 25.9527H18.7977C18.5656 25.9507 18.3424 26.0412 18.1776 26.2041C18.0128 26.367 17.9201 26.5888 17.9201 26.8201V34.2306H17.8206C17.6722 34.2306 17.53 34.2893 17.4251 34.394C17.3202 34.4985 17.2612 34.6404 17.2612 34.7882V36.2194C17.2612 36.3673 17.3202 36.5091 17.4251 36.6137C17.5299 36.7183 17.6722 36.777 17.8206 36.777H25.1546C25.303 36.777 25.4453 36.7183 25.5502 36.6137C25.6551 36.5092 25.714 36.3673 25.714 36.2194V34.7882C25.714 34.6404 25.6551 34.4985 25.5502 34.394C25.4453 34.2893 25.303 34.2306 25.1546 34.2306H25.0478V29.0715C25.1966 29.1147 25.3323 29.1938 25.443 29.302C25.6134 29.4725 25.709 29.7033 25.709 29.9438V32C25.709 32.5011 25.9773 32.9642 26.4126 33.2148C26.848 33.4654 27.3844 33.4654 27.8198 33.2148C28.2552 32.9642 28.5234 32.5012 28.5234 32V29.9438C28.5229 29.8987 28.5112 29.8544 28.4886 29.8151ZM25.2169 34.788V36.2192C25.2156 36.2528 25.1884 36.28 25.1547 36.2812H17.8207C17.7864 36.2812 17.7585 36.2534 17.7585 36.2192V34.788C17.7585 34.7538 17.7864 34.7261 17.8207 34.7261H25.1547C25.1884 34.7274 25.2156 34.7544 25.2169 34.788ZM18.4173 34.2304V26.8199C18.4173 26.72 18.4576 26.6243 18.5292 26.5544C18.6006 26.4845 18.6974 26.4462 18.7977 26.4482H24.1777C24.3836 26.4482 24.5506 26.6146 24.5506 26.8199V34.2304H18.4173ZM28.0263 30.7295C27.8368 30.731 27.6569 30.6463 27.5378 30.4992C27.4186 30.3522 27.3733 30.159 27.4147 29.9746C27.4562 29.7901 27.5797 29.6347 27.7504 29.5523L28.0263 30.0108L28.0263 30.7295Z" fill="#42A0D4"/>
<path d="M18.7742 21.4585C19.8723 22.8596 21.9052 23.1061 23.3063 22.0081C24.7074 20.9101 24.954 18.8771 23.8559 17.476C22.7579 16.0749 20.7249 15.8284 19.3238 16.9264C19.1968 17.026 19.0894 17.1413 18.982 17.2551L11.2528 16.6894L9.53161 18.0384L10.8805 19.7596L18.5208 21.0577C18.5979 21.194 18.6747 21.3315 18.7742 21.4585ZM22.8396 18.2725C23.4983 19.1131 23.3504 20.333 22.5098 20.9918C21.6693 21.6505 20.4493 21.5026 19.7906 20.662C19.1318 19.8215 19.2798 18.6015 20.1203 17.9428C20.9609 17.284 22.1809 17.432 22.8396 18.2725ZM11.5885 18.5696L11.3444 18.2581L11.6559 18.014L18.24 18.4961C18.1203 18.877 18.0718 19.2768 18.097 19.6753L11.5885 18.5696Z" stroke="#42A0D4" stroke-width="0.7"/>
<path d="M21 1C9.97185 1 1 9.97185 1 21C1 32.0282 9.97185 41 21 41C32.0282 41 41 32.0282 41 21C41 9.97185 32.0282 1 21 1ZM21 39.5185C11.0368 39.5185 2.89122 31.6098 2.50011 21.7407H5.44453V20.2593H2.50011C2.57848 18.2791 2.96604 16.377 3.62078 14.6029L6.34434 15.7319L6.9118 14.3628L4.19324 13.2361C5.01103 11.4732 6.09631 9.8585 7.39992 8.44711L9.47628 10.5235L10.5236 9.47619L8.4472 7.39983C9.85825 6.0963 11.4723 5.01092 13.2362 4.19314L14.3629 6.9117L15.7319 6.34425L14.603 3.62069C16.3771 2.96593 18.2792 2.5784 20.2594 2.50001V5.44444H21.7408V2.50001C23.721 2.57839 25.6231 2.96595 27.3972 3.62069L26.2682 6.34425L27.6373 6.9117L28.764 4.19314C30.5269 5.01094 32.1416 6.09621 33.553 7.39983L31.4766 9.47619L32.5239 10.5235L34.6003 8.44711C35.9038 9.85816 36.9892 11.4722 37.807 13.2361L35.0884 14.3628L35.6558 15.7319L38.3794 14.6029C39.0342 16.377 39.4224 18.2792 39.5001 20.2593H36.5557V21.7407H39.5001C39.1089 31.61 30.9632 39.5185 21 39.5185Z" stroke="#42A0D4" stroke-width="0.7"/>
<path d="M32.622 22.6548C31.5541 22.6548 30.6851 23.5238 30.6851 24.5917C30.6851 25.6596 31.5541 26.5286 32.622 26.5286C33.6899 26.5286 34.5589 25.6596 34.5589 24.5917C34.5589 23.5238 33.6899 22.6548 32.622 22.6548ZM32.622 25.2374C32.2658 25.2374 31.9764 24.948 31.9764 24.5917C31.9764 24.2355 32.2658 23.9461 32.622 23.9461C32.9783 23.9461 33.2677 24.2355 33.2677 24.5917C33.2677 24.948 32.9783 25.2374 32.622 25.2374Z" stroke="#42A0D4" stroke-width="0.7"/>
<path d="M9.37865 22.6548C8.31074 22.6548 7.44176 23.5238 7.44176 24.5917C7.44176 25.6596 8.31074 26.5286 9.37865 26.5286C10.4466 26.5286 11.3155 25.6596 11.3155 24.5917C11.3155 23.5238 10.4466 22.6548 9.37865 22.6548ZM9.37865 25.2374C9.02241 25.2374 8.73302 24.948 8.73302 24.5917C8.73302 24.2355 9.02241 23.9461 9.37865 23.9461C9.7349 23.9461 10.0243 24.2355 10.0243 24.5917C10.0243 24.948 9.7349 25.2374 9.37865 25.2374Z" stroke="#42A0D4" stroke-width="0.7"/>
<path d="M22.7518 28.0008H20.2285C20.0912 28.0008 19.9799 28.1118 19.9799 28.2487V30.8931C19.9799 30.9588 20.0061 31.0219 20.0527 31.0684C20.0994 31.1148 20.1626 31.1409 20.2285 31.1409H22.7518C22.8178 31.1409 22.881 31.1148 22.9276 31.0684C22.9743 31.0219 23.0004 30.9588 23.0004 30.8931V28.2487C23.0004 28.183 22.9743 28.1199 22.9276 28.0734C22.881 28.027 22.8178 28.0008 22.7518 28.0008ZM22.5032 30.6453H20.4771V28.4965H22.5032V30.6453ZM28.4886 29.8151L26.9969 27.3367C26.9261 27.2199 26.7738 27.1822 26.6564 27.2524C26.5383 27.3222 26.4994 27.4743 26.5694 27.592L27.4869 29.1236C27.1913 29.2809 26.9818 29.562 26.9164 29.8895C26.8509 30.2171 26.9361 30.5567 27.1487 30.815C27.3612 31.0732 27.6788 31.2229 28.0138 31.2228V32.0025C28.0138 32.3266 27.8403 32.626 27.5589 32.7881C27.2773 32.9501 26.9305 32.9501 26.6489 32.7881C26.3674 32.626 26.1939 32.3266 26.1939 32.0025V29.9464C26.1934 29.6175 26.0772 29.2993 25.8655 29.047C25.6537 28.7948 25.3601 28.6245 25.0354 28.566V26.8201C25.0354 26.5922 24.9454 26.3734 24.7849 26.2111C24.6244 26.0487 24.4063 25.9559 24.1777 25.9527H18.7977C18.5656 25.9507 18.3424 26.0412 18.1776 26.2041C18.0128 26.367 17.9201 26.5888 17.9201 26.8201V34.2306H17.8206C17.6722 34.2306 17.53 34.2893 17.4251 34.394C17.3202 34.4985 17.2612 34.6404 17.2612 34.7882V36.2194C17.2612 36.3673 17.3202 36.5091 17.4251 36.6137C17.5299 36.7183 17.6722 36.777 17.8206 36.777H25.1546C25.303 36.777 25.4453 36.7183 25.5502 36.6137C25.6551 36.5092 25.714 36.3673 25.714 36.2194V34.7882C25.714 34.6404 25.6551 34.4985 25.5502 34.394C25.4453 34.2893 25.303 34.2306 25.1546 34.2306H25.0478V29.0715C25.1966 29.1147 25.3323 29.1938 25.443 29.302C25.6134 29.4725 25.709 29.7033 25.709 29.9438V32C25.709 32.5011 25.9773 32.9642 26.4126 33.2148C26.848 33.4654 27.3844 33.4654 27.8198 33.2148C28.2552 32.9642 28.5234 32.5012 28.5234 32V29.9438C28.5229 29.8987 28.5112 29.8544 28.4886 29.8151ZM25.2169 34.788V36.2192C25.2156 36.2528 25.1884 36.28 25.1547 36.2812H17.8207C17.7864 36.2812 17.7585 36.2534 17.7585 36.2192V34.788C17.7585 34.7538 17.7864 34.7261 17.8207 34.7261H25.1547C25.1884 34.7274 25.2156 34.7544 25.2169 34.788ZM18.4173 34.2304V26.8199C18.4173 26.72 18.4576 26.6243 18.5292 26.5544C18.6006 26.4845 18.6974 26.4462 18.7977 26.4482H24.1777C24.3836 26.4482 24.5506 26.6146 24.5506 26.8199V34.2304H18.4173ZM28.0263 30.7295C27.8368 30.731 27.6569 30.6463 27.5378 30.4992C27.4186 30.3522 27.3733 30.159 27.4147 29.9746C27.4562 29.7901 27.5797 29.6347 27.7504 29.5523L28.0263 30.0108L28.0263 30.7295Z" stroke="#42A0D4" stroke-width="0.7"/>
</svg>


