<svg width="36" height="36" viewBox="0 0 42 42" fill="none" xmlns="http://www.w3.org/2000/svg">
<path d="M19.0127 17.3872C17.5732 18.4344 17.2541 20.4573 18.3013 21.8968C19.3485 23.3363 21.3713 23.6554 22.8108 22.6082C24.2503 21.561 24.5694 19.5382 23.5223 18.0987C23.4273 17.9682 23.3159 17.8567 23.206 17.7453L24.0479 10.0413L22.7615 8.27295L20.9931 9.55939L19.4223 17.1484C19.2834 17.2205 19.1433 17.2923 19.0127 17.3872ZM22.0512 21.564C21.1876 22.1922 19.9737 22.0007 19.3455 21.1372C18.7173 20.2736 18.9088 19.0597 19.7724 18.4314C20.6359 17.8032 21.8498 17.9947 22.4781 18.8583C23.1063 19.7219 22.9148 20.9358 22.0512 21.564ZM22.1569 10.3096L22.477 10.0768L22.7098 10.3968L21.9924 16.9594C21.616 16.8261 21.2182 16.7634 20.819 16.7743L22.1569 10.3096Z" fill="#6DC534"/>
<path d="M21 1C9.97185 1 1 9.97185 1 21C1 32.0281 9.97185 41 21 41C32.0281 41 41 32.0281 41 21C41 9.97185 32.0281 1 21 1ZM21 39.5185C11.0368 39.5185 2.89122 31.6098 2.50011 21.7407H5.44453V20.2593H2.50011C2.57848 18.2791 2.96604 16.377 3.62078 14.6029L6.34434 15.7319L6.9118 14.3628L4.19324 13.2361C5.01103 11.4732 6.09631 9.8585 7.39992 8.44711L9.47628 10.5235L10.5236 9.47619L8.4472 7.39983C9.85825 6.0963 11.4723 5.01092 13.2362 4.19314L14.3629 6.9117L15.7319 6.34425L14.603 3.62069C16.3771 2.96593 18.2792 2.5784 20.2594 2.50001V5.44444H21.7408V2.50001C23.721 2.57839 25.6231 2.96595 27.3972 3.62069L26.2682 6.34425L27.6373 6.9117L28.764 4.19314C30.5269 5.01094 32.1416 6.09621 33.553 7.39983L31.4766 9.47619L32.5239 10.5235L34.6003 8.44711C35.9038 9.85816 36.9892 11.4722 37.807 13.2361L35.0884 14.3628L35.6558 15.7319L38.3794 14.6029C39.0342 16.377 39.4224 18.2792 39.5001 20.2593H36.5557V21.7407H39.5001C39.1089 31.6099 30.9632 39.5185 21 39.5185Z" fill="#6DC534"/>
<path d="M32.6207 22.6577C31.5528 22.6577 30.6838 23.5267 30.6838 24.5946C30.6838 25.6625 31.5528 26.5315 32.6207 26.5315C33.6886 26.5315 34.5576 25.6625 34.5576 24.5946C34.5576 23.5267 33.6886 22.6577 32.6207 22.6577ZM32.6207 25.2402C32.2645 25.2402 31.9751 24.9509 31.9751 24.5946C31.9751 24.2384 32.2645 23.949 32.6207 23.949C32.977 23.949 33.2664 24.2384 33.2664 24.5946C33.2664 24.9509 32.977 25.2402 32.6207 25.2402Z" fill="#6DC534"/>
<path d="M9.37854 22.6577C8.31063 22.6577 7.44165 23.5267 7.44165 24.5946C7.44165 25.6625 8.31063 26.5315 9.37854 26.5315C10.4465 26.5315 11.3154 25.6625 11.3154 24.5946C11.3154 23.5267 10.4465 22.6577 9.37854 22.6577ZM9.37854 25.2402C9.0223 25.2402 8.73291 24.9509 8.73291 24.5946C8.73291 24.2384 9.0223 23.949 9.37854 23.949C9.73479 23.949 10.0242 24.2384 10.0242 24.5946C10.0242 24.9509 9.73479 25.2402 9.37854 25.2402Z" fill="#6DC534"/>
<path d="M22.751 28.0042H20.2277C20.0904 28.0042 19.979 28.1152 19.979 28.2521V30.8965C19.979 30.9622 20.0052 31.0253 20.0519 31.0718C20.0986 31.1182 20.1617 31.1443 20.2277 31.1443H22.751C22.8169 31.1443 22.8802 31.1182 22.9268 31.0718C22.9734 31.0253 22.9996 30.9622 22.9996 30.8965V28.2521C22.9996 28.1864 22.9734 28.1233 22.9268 28.0768C22.8802 28.0304 22.8169 28.0042 22.751 28.0042ZM22.5023 30.6487H20.4763V28.4999H22.5023V30.6487ZM28.4878 29.8185L26.9961 27.3401C26.9253 27.2233 26.773 27.1856 26.6556 27.2558C26.5375 27.3256 26.4985 27.4777 26.5685 27.5954L27.486 29.127C27.1904 29.2843 26.981 29.5654 26.9155 29.893C26.85 30.2205 26.9353 30.5601 27.1478 30.8184C27.3603 31.0766 27.6779 31.2263 28.013 31.2262V32.0059C28.013 32.33 27.8395 32.6294 27.558 32.7915C27.2764 32.9535 26.9296 32.9535 26.648 32.7915C26.3666 32.6294 26.1931 32.33 26.1931 32.0059V29.9498C26.1925 29.6209 26.0763 29.3027 25.8646 29.0504C25.6529 28.7982 25.3592 28.6279 25.0345 28.5694V26.8235C25.0345 26.5956 24.9445 26.3768 24.784 26.2145C24.6236 26.0521 24.4055 25.9593 24.1768 25.9561H18.7968C18.5647 25.9541 18.3415 26.0446 18.1767 26.2075C18.0119 26.3704 17.9192 26.5922 17.9192 26.8235V34.234H17.8198C17.6714 34.234 17.5291 34.2927 17.4242 34.3974C17.3193 34.5019 17.2604 34.6438 17.2604 34.7916V36.2228C17.2604 36.3707 17.3193 36.5125 17.4242 36.6171C17.5291 36.7217 17.6714 36.7804 17.8198 36.7804H25.1538C25.3022 36.7804 25.4444 36.7217 25.5493 36.6171C25.6542 36.5126 25.7132 36.3707 25.7132 36.2228V34.7916C25.7132 34.6438 25.6542 34.5019 25.5493 34.3974C25.4445 34.2927 25.3022 34.234 25.1538 34.234H25.0469V29.075C25.1957 29.1181 25.3315 29.1972 25.4421 29.3054C25.6125 29.4759 25.7082 29.7067 25.7082 29.9472V32.0034C25.7082 32.5045 25.9764 32.9676 26.4117 33.2182C26.8471 33.4688 27.3835 33.4688 27.8189 33.2182C28.2543 32.9676 28.5225 32.5046 28.5225 32.0034V29.9472C28.5221 29.9021 28.5103 29.8578 28.4878 29.8185ZM25.216 34.7914V36.2226C25.2148 36.2562 25.1876 36.2834 25.1538 36.2846H17.8198C17.7855 36.2846 17.7577 36.2568 17.7577 36.2226V34.7914C17.7577 34.7572 17.7855 34.7295 17.8198 34.7295H25.1538C25.1876 34.7308 25.2148 34.7578 25.216 34.7914ZM18.4164 34.2338V26.8233C18.4164 26.7234 18.4567 26.6277 18.5283 26.5578C18.5998 26.4879 18.6966 26.4496 18.7968 26.4516H24.1768C24.3827 26.4516 24.5497 26.618 24.5497 26.8233V34.2338H18.4164ZM28.0255 30.7329C27.8359 30.7344 27.656 30.6497 27.5369 30.5026C27.4177 30.3556 27.3724 30.1624 27.4138 29.978C27.4553 29.7935 27.5789 29.6381 27.7496 29.5557L28.0255 30.0142L28.0255 30.7329Z" fill="#6DC534"/>
<path d="M19.0127 17.3872C17.5732 18.4344 17.2541 20.4573 18.3013 21.8968C19.3485 23.3363 21.3713 23.6554 22.8108 22.6082C24.2503 21.561 24.5694 19.5382 23.5223 18.0987C23.4273 17.9682 23.3159 17.8567 23.206 17.7453L24.0479 10.0413L22.7615 8.27295L20.9931 9.55939L19.4223 17.1484C19.2834 17.2205 19.1433 17.2923 19.0127 17.3872ZM22.0512 21.564C21.1876 22.1922 19.9737 22.0007 19.3455 21.1372C18.7173 20.2736 18.9088 19.0597 19.7724 18.4314C20.6359 17.8032 21.8498 17.9947 22.4781 18.8583C23.1063 19.7219 22.9148 20.9358 22.0512 21.564ZM22.1569 10.3096L22.477 10.0768L22.7098 10.3968L21.9924 16.9594C21.616 16.8261 21.2182 16.7634 20.819 16.7743L22.1569 10.3096Z" stroke="#6DC534" stroke-width="0.7"/>
<path d="M21 1C9.97185 1 1 9.97185 1 21C1 32.0281 9.97185 41 21 41C32.0281 41 41 32.0281 41 21C41 9.97185 32.0281 1 21 1ZM21 39.5185C11.0368 39.5185 2.89122 31.6098 2.50011 21.7407H5.44453V20.2593H2.50011C2.57848 18.2791 2.96604 16.377 3.62078 14.6029L6.34434 15.7319L6.9118 14.3628L4.19324 13.2361C5.01103 11.4732 6.09631 9.8585 7.39992 8.44711L9.47628 10.5235L10.5236 9.47619L8.4472 7.39983C9.85825 6.0963 11.4723 5.01092 13.2362 4.19314L14.3629 6.9117L15.7319 6.34425L14.603 3.62069C16.3771 2.96593 18.2792 2.5784 20.2594 2.50001V5.44444H21.7408V2.50001C23.721 2.57839 25.6231 2.96595 27.3972 3.62069L26.2682 6.34425L27.6373 6.9117L28.764 4.19314C30.5269 5.01094 32.1416 6.09621 33.553 7.39983L31.4766 9.47619L32.5239 10.5235L34.6003 8.44711C35.9038 9.85816 36.9892 11.4722 37.807 13.2361L35.0884 14.3628L35.6558 15.7319L38.3794 14.6029C39.0342 16.377 39.4224 18.2792 39.5001 20.2593H36.5557V21.7407H39.5001C39.1089 31.6099 30.9632 39.5185 21 39.5185Z" stroke="#6DC534" stroke-width="0.7"/>
<path d="M32.6207 22.6577C31.5528 22.6577 30.6838 23.5267 30.6838 24.5946C30.6838 25.6625 31.5528 26.5315 32.6207 26.5315C33.6886 26.5315 34.5576 25.6625 34.5576 24.5946C34.5576 23.5267 33.6886 22.6577 32.6207 22.6577ZM32.6207 25.2402C32.2645 25.2402 31.9751 24.9509 31.9751 24.5946C31.9751 24.2384 32.2645 23.949 32.6207 23.949C32.977 23.949 33.2664 24.2384 33.2664 24.5946C33.2664 24.9509 32.977 25.2402 32.6207 25.2402Z" stroke="#6DC534" stroke-width="0.7"/>
<path d="M9.37854 22.6577C8.31063 22.6577 7.44165 23.5267 7.44165 24.5946C7.44165 25.6625 8.31063 26.5315 9.37854 26.5315C10.4465 26.5315 11.3154 25.6625 11.3154 24.5946C11.3154 23.5267 10.4465 22.6577 9.37854 22.6577ZM9.37854 25.2402C9.0223 25.2402 8.73291 24.9509 8.73291 24.5946C8.73291 24.2384 9.0223 23.949 9.37854 23.949C9.73479 23.949 10.0242 24.2384 10.0242 24.5946C10.0242 24.9509 9.73479 25.2402 9.37854 25.2402Z" stroke="#6DC534" stroke-width="0.7"/>
<path d="M22.751 28.0042H20.2277C20.0904 28.0042 19.979 28.1152 19.979 28.2521V30.8965C19.979 30.9622 20.0052 31.0253 20.0519 31.0718C20.0986 31.1182 20.1617 31.1443 20.2277 31.1443H22.751C22.8169 31.1443 22.8802 31.1182 22.9268 31.0718C22.9734 31.0253 22.9996 30.9622 22.9996 30.8965V28.2521C22.9996 28.1864 22.9734 28.1233 22.9268 28.0768C22.8802 28.0304 22.8169 28.0042 22.751 28.0042ZM22.5023 30.6487H20.4763V28.4999H22.5023V30.6487ZM28.4878 29.8185L26.9961 27.3401C26.9253 27.2233 26.773 27.1856 26.6556 27.2558C26.5375 27.3256 26.4985 27.4777 26.5685 27.5954L27.486 29.127C27.1904 29.2843 26.981 29.5654 26.9155 29.893C26.85 30.2205 26.9353 30.5601 27.1478 30.8184C27.3603 31.0766 27.6779 31.2263 28.013 31.2262V32.0059C28.013 32.33 27.8395 32.6294 27.558 32.7915C27.2764 32.9535 26.9296 32.9535 26.648 32.7915C26.3666 32.6294 26.1931 32.33 26.1931 32.0059V29.9498C26.1925 29.6209 26.0763 29.3027 25.8646 29.0504C25.6529 28.7982 25.3592 28.6279 25.0345 28.5694V26.8235C25.0345 26.5956 24.9445 26.3768 24.784 26.2145C24.6236 26.0521 24.4055 25.9593 24.1768 25.9561H18.7968C18.5647 25.9541 18.3415 26.0446 18.1767 26.2075C18.0119 26.3704 17.9192 26.5922 17.9192 26.8235V34.234H17.8198C17.6714 34.234 17.5291 34.2927 17.4242 34.3974C17.3193 34.5019 17.2604 34.6438 17.2604 34.7916V36.2228C17.2604 36.3707 17.3193 36.5125 17.4242 36.6171C17.5291 36.7217 17.6714 36.7804 17.8198 36.7804H25.1538C25.3022 36.7804 25.4444 36.7217 25.5493 36.6171C25.6542 36.5126 25.7132 36.3707 25.7132 36.2228V34.7916C25.7132 34.6438 25.6542 34.5019 25.5493 34.3974C25.4445 34.2927 25.3022 34.234 25.1538 34.234H25.0469V29.075C25.1957 29.1181 25.3315 29.1972 25.4421 29.3054C25.6125 29.4759 25.7082 29.7067 25.7082 29.9472V32.0034C25.7082 32.5045 25.9764 32.9676 26.4117 33.2182C26.8471 33.4688 27.3835 33.4688 27.8189 33.2182C28.2543 32.9676 28.5225 32.5046 28.5225 32.0034V29.9472C28.5221 29.9021 28.5103 29.8578 28.4878 29.8185ZM25.216 34.7914V36.2226C25.2148 36.2562 25.1876 36.2834 25.1538 36.2846H17.8198C17.7855 36.2846 17.7577 36.2568 17.7577 36.2226V34.7914C17.7577 34.7572 17.7855 34.7295 17.8198 34.7295H25.1538C25.1876 34.7308 25.2148 34.7578 25.216 34.7914ZM18.4164 34.2338V26.8233C18.4164 26.7234 18.4567 26.6277 18.5283 26.5578C18.5998 26.4879 18.6966 26.4496 18.7968 26.4516H24.1768C24.3827 26.4516 24.5497 26.618 24.5497 26.8233V34.2338H18.4164ZM28.0255 30.7329C27.8359 30.7344 27.656 30.6497 27.5369 30.5026C27.4177 30.3556 27.3724 30.1624 27.4138 29.978C27.4553 29.7935 27.5789 29.6381 27.7496 29.5557L28.0255 30.0142L28.0255 30.7329Z" stroke="#6DC534" stroke-width="0.7"/>
</svg>

