<svg xmlns="http://www.w3.org/2000/svg" width="40" height="40" viewBox="0 0 40 40"><defs><style>.a{fill:none;}.b{fill:#b5b9ba;}.c{fill:#fff;}</style></defs><g transform="translate(-5080 -1712)"><rect class="a" width="40" height="40" transform="translate(5080 1712)"/><g transform="translate(5084.522 1713.81)"><path class="b" d="M5125.647,1716.344h-22.355a1.972,1.972,0,0,0-1.972,1.972v3.03h20.16a1.666,1.666,0,0,1,1.666,1.667v24h3.029a1.972,1.972,0,0,0,1.973-1.972v-26.192A2.5,2.5,0,0,0,5125.647,1716.344Z" transform="translate(-5096.959 -1716.344)"/><path class="b" d="M5112.263,1734.755h-19.325a2.086,2.086,0,0,0-2.083,2.083V1760a2.086,2.086,0,0,0,2.083,2.083h19.325a2.086,2.086,0,0,0,2.083-2.083v-23.162A2.086,2.086,0,0,0,5112.263,1734.755Z" transform="translate(-5090.854 -1727.084)"/><g transform="translate(5.506 12.377)"><path class="c" d="M5117.855,1746.049h4.971a1.115,1.115,0,0,1,0,2.229h-4.971a1.115,1.115,0,0,1,0-2.229Z" transform="translate(-5111.461 -1746.049)"/><path class="c" d="M5115.435,1785.928h-10.251a1.115,1.115,0,1,1,0-2.229h10.251a1.115,1.115,0,0,1,0,2.229Z" transform="translate(-5104.069 -1768.011)"/><path class="c" d="M5115.435,1774.439h-10.251a1.115,1.115,0,1,1,0-2.229h10.251a1.115,1.115,0,0,1,0,2.229Z" transform="translate(-5104.069 -1761.31)"/><path class="c" d="M5115.435,1762.949h-10.251a1.115,1.115,0,1,1,0-2.229h10.251a1.115,1.115,0,0,1,0,2.229Z" transform="translate(-5104.069 -1754.607)"/></g></g></g></svg>