<svg xmlns="http://www.w3.org/2000/svg" width="59.13" height="59.13" viewBox="0 0 59.13 59.13"><defs><style>.a{fill:#e30513;}.b{fill:#fff;}</style></defs><path class="a" d="M100.565,6A29.565,29.565,0,1,0,130.13,35.565,29.526,29.526,0,0,0,100.565,6Z" transform="translate(-71 -6)"/><path class="b" d="M92.007,24.059h-.986c-1.872,0-2.858,1.084-2.858,3.154V37.364c0,2.661-.887,3.548-2.956,3.548a5.04,5.04,0,0,1-4.041-1.971A3.492,3.492,0,0,0,78.9,42.39c0,2.759,2.562,4.435,7.293,4.435,5.716,0,8.771-2.858,8.771-9.264V27.213C94.964,25.143,93.978,24.059,92.007,24.059Zm8.87,5.125h-.69c-1.675,0-2.956.788-2.956,3.154V43.178c0,2.464,1.183,3.154,2.956,3.154h.69c1.675,0,2.858-.788,2.858-3.154V32.338C103.833,29.874,102.651,29.184,100.877,29.184Zm-.3-7.884c-2.07,0-3.449,1.183-3.449,3.055s1.38,3.055,3.548,3.055c2.07,0,3.449-1.183,3.449-3.055C104.03,22.483,102.749,21.3,100.581,21.3Zm14.29,7.687c-5.617,0-9.264,3.548-9.264,8.771,0,5.42,3.548,8.87,9.165,8.87s9.264-3.449,9.264-8.87C124.036,32.535,120.39,28.987,114.871,28.987Zm0,12.713a3.573,3.573,0,0,1-3.646-3.843,3.628,3.628,0,0,1,3.646-3.843,3.573,3.573,0,0,1,3.646,3.843A3.628,3.628,0,0,1,114.871,41.7Z" transform="translate(-71.115 -6.222)"/></svg>