<svg xmlns="http://www.w3.org/2000/svg" width="575.553" height="399.887" viewBox="0 0 575.553 399.887"><defs><style>.a{opacity:0.5;}.b,.f{fill:#f7ab20;}.b{opacity:0.1;}.b,.k,.s,.u{isolation:isolate;}.c,.j,.u{fill:#fff;}.c{opacity:0.574;}.d{fill:#d38c16;}.e{fill:#efb751;}.g{fill:#e59358;}.h{fill:#f37920;}.i{fill:#ffd430;}.k{fill:#2e4661;opacity:0.07;}.l{fill:#ffa400;}.m{fill:#fffff5;}.n{fill:#c4e5bc;}.o{fill:#6dbf67;}.p{fill:#d8f0fb;}.q{fill:#edd373;}.r{opacity:0.4;}.s{fill:#d3ecd1;}.t{fill:#e7f5e8;}.v{fill:#2b8924;}.w{fill:#fdd471;}.x{fill:#f7e3c1;}.y{fill:#f5d394;}</style></defs><g class="a" transform="translate(-7824.308 -4087.017)"><g transform="translate(7914.101 4087.017)"><circle class="b" cx="199.944" cy="199.944" r="199.944"/></g><path class="c" d="M8126.273,4406.622H7938.834V4136.913h208.037v252.138C8146.871,4398.742,8137.65,4406.622,8126.273,4406.622Z" transform="translate(69.794 41.198)"/><rect class="d" width="207.692" height="12.522" transform="translate(8008.577 4178.11)"/><g transform="translate(8057.862 4323.271)"><g transform="translate(0)"><path class="d" d="M8072.145,4219.589c2.8,0,2.8-3.165,0-3.165H7967.9c-2.8,0-2.8,3.165,0,3.165Z" transform="translate(-7965.8 -4216.424)"/></g></g><g transform="translate(8053.134 4199.318)"><path class="e" d="M8012.109,4148.528a55.147,55.147,0,0,0-41.791,19.084l41.791,36.211,41.8-36.211A55.15,55.15,0,0,0,8012.109,4148.528Z" transform="translate(-7957.345 -4148.528)"/><path class="f" d="M8050.121,4174.378l-54.73,7.869v55.3a55.265,55.265,0,0,0,55.3-55.239v-.059A55.283,55.283,0,0,0,8050.121,4174.378Z" transform="translate(-7936.645 -4127.185)"/><path class="g" d="M7976.244,4159.084a55.265,55.265,0,0,0,6.592,77.879l.049.041a55.672,55.672,0,0,0,6.385,4.641l29.258-46.919Z" transform="translate(-7963.212 -4139.813)"/><path class="g" d="M8006.986,4233.943a55.061,55.061,0,0,1-29.893-8.78l29.9-46.516Z" transform="translate(-7951.75 -4123.66)"/><path class="h" d="M8051.66,4185.529a55.016,55.016,0,0,0-12.937-28.343l-41.791,36.213Z" transform="translate(-7935.37 -4141.379)"/></g><g transform="translate(8033.086 4340.234)"><g transform="translate(0 27.593)"><rect class="i" width="20.313" height="48.929" transform="translate(0 18.947)"/><rect class="i" width="20.313" height="22.992"/></g><g transform="translate(133.735 7.45)"><rect class="i" width="20.313" height="48.929" transform="translate(0 41.295)"/><rect class="i" width="20.447" height="45.344"/></g><g transform="translate(89.155 40.285)"><rect class="i" width="20.313" height="51.69" transform="translate(0 4.597)"/><rect class="i" width="20.313" height="34.305"/></g><g transform="translate(44.579 0)"><rect class="i" width="20.313" height="69.418" transform="translate(0 26.881)"/><rect class="i" width="20.313" height="55.523"/></g></g><g transform="translate(8013.84 4181.567)"><g transform="translate(0 0)"><path class="j" d="M7944.361,4144.7a2.674,2.674,0,1,1,2.67-2.678v0A2.675,2.675,0,0,1,7944.361,4144.7Zm0-4.9a2.225,2.225,0,1,0,2.229,2.225,2.225,2.225,0,0,0-2.229-2.225Z" transform="translate(-7941.689 -4139.354)"/></g><g transform="translate(8.234 0)"><path class="j" d="M7948.875,4144.7a2.674,2.674,0,1,1,2.67-2.678v0A2.675,2.675,0,0,1,7948.875,4144.7Zm0-4.9a2.225,2.225,0,1,0,2.229,2.225,2.227,2.227,0,0,0-2.229-2.225Z" transform="translate(-7946.201 -4139.354)"/></g><g transform="translate(16.466 0)"><path class="j" d="M7953.381,4144.7a2.674,2.674,0,1,1,2.674-2.676h0A2.674,2.674,0,0,1,7953.381,4144.7Zm0-4.9a2.225,2.225,0,1,0,2.225,2.225,2.227,2.227,0,0,0-2.225-2.225Z" transform="translate(-7950.707 -4139.354)"/></g></g><path class="k" d="M8001.875,4381.57H7869.268v-204.8h144.924v192.473a12.314,12.314,0,0,1-12.295,12.331Z" transform="translate(-17.647 74.105)"/><g transform="translate(7835.144 4235.366)"><path class="l" d="M7998.473,4382.854H7860.24V4168.273H8016.4V4364.9A17.942,17.942,0,0,1,7998.473,4382.854Z" transform="translate(-7860.24 -4168.273)"/><rect class="m" width="126.412" height="79.937" transform="translate(16.586 17.143)"/><path class="n" d="M7944.66,4202.187a5.281,5.281,0,0,0,3.148,2.615,8.348,8.348,0,0,0,9.352-2.346c3.086-4.48,2.219-10.893,5.535-15.549a10.9,10.9,0,0,1,5.82-4.111,9.951,9.951,0,0,1,7.355.7,10.548,10.548,0,0,1,4.775,9.54,113.224,113.224,0,0,1-2.166,21.037,18.129,18.129,0,0,1-3.953,9.369,23.34,23.34,0,0,1-13.795,5.837,161.477,161.477,0,0,1-39.537-.45l-31.729-2.974c-2.979-.279-11.762.172-13.543-1.895s-.373-8.854.652-10.964a15.111,15.111,0,0,1,14.307-7.05c13.143.669,7.945-13.054,12.158-19.573a10.451,10.451,0,0,1,11.393-4.509c4.043,1.375,5.732,5.433,7.723,8.8a7.3,7.3,0,0,0,4.715,3.938c3.756.653,6.9-3.175,10.721-3.033a6.4,6.4,0,0,1,5.172,3.405C7944.09,4197.408,7943.625,4200.1,7944.66,4202.187Z" transform="translate(-7847.998 -4157.321)"/><path class="o" d="M7984.281,4246.85s.014-5.752.02-6.063q.047-12.882.043-25.759c0-8.205.684-16.407.549-24.588-.059-3.787-1.7-5.763-5.684-4.751a18.435,18.435,0,0,0-9.988,6.537c-1.672,2.176-3.064,4.9-5.662,5.783-4.65,1.568-8.461-3.669-12.637-6.25a12.982,12.982,0,0,0-14.791,1.105c-4.875,4.122-6,11.256-10.129,16.127a16.667,16.667,0,0,1-19.168,4.219c-2.619-1.216-4.871-3.109-7.453-4.405a19.1,19.1,0,0,0-26.17,13.578v23.434S7984.479,4247.061,7984.281,4246.85Z" transform="translate(-7849.535 -4154.109)"/><rect class="d" width="9.503" height="9.503" transform="translate(18.652 109.266)"/><rect class="d" width="9.503" height="9.503" transform="translate(18.652 123.314)"/><rect class="m" width="27.678" height="2.892" transform="translate(36.004 112.157)"/><rect class="m" width="27.678" height="2.892" transform="translate(35.588 127.444)"/><rect class="m" width="120.628" height="3.124" transform="translate(19.89 149.015)"/><rect class="m" width="53.706" height="42.808" transform="translate(19.89 158.093)"/><rect class="m" width="58.664" height="18.643" transform="translate(81.857 158.505)"/><rect class="m" width="58.664" height="18.643" transform="translate(81.237 182.052)"/></g><g transform="translate(8176.414 4198.092)"><g transform="translate(0 65.884)"><path class="p" d="M8031.5,4187.3a.56.56,0,0,1-.557-.485c-.107-.76-.176-1.533-.207-2.287a.564.564,0,0,1,1.127-.046c.031.729.1,1.465.193,2.188a.564.564,0,0,1-.48.634h0Z" transform="translate(-8030.738 -4183.944)"/></g><g transform="translate(0.249 6.097)"><path class="q" d="M8031.438,4207.627h-.082a.563.563,0,0,1-.475-.643v-.011a26.428,26.428,0,0,1,1.086-4.449.563.563,0,1,1,1.066.359,25.028,25.028,0,0,0-1.039,4.247A.565.565,0,0,1,8031.438,4207.627Zm2.818-8.479a.56.56,0,0,1-.562-.56.546.546,0,0,1,.066-.262,34.667,34.667,0,0,1,2.35-3.9.566.566,0,1,1,.926.652h0a34.987,34.987,0,0,0-2.291,3.776.557.557,0,0,1-.488.28Zm5.08-7.376a.563.563,0,0,1-.566-.561.573.573,0,0,1,.137-.376c.986-1.116,2.039-2.22,3.154-3.267a.562.562,0,1,1,.771.818c-1.088,1.03-2.125,2.1-3.072,3.194a.578.578,0,0,1-.424.182Zm6.533-6.157a.564.564,0,0,1-.564-.562.575.575,0,0,1,.219-.447c1.178-.928,2.422-1.815,3.686-2.647a.564.564,0,0,1,.619.942h0c-1.236.811-2.453,1.683-3.594,2.59a.551.551,0,0,1-.379.114Zm7.518-4.925a.563.563,0,0,1-.273-1.057c1.307-.719,2.664-1.412,4.029-2.058a.561.561,0,1,1,.479,1.016c-1.34.653-2.676,1.306-3.965,2.031a.583.583,0,0,1-.3.061Zm8.105-3.849a.567.567,0,0,1-.568-.558.574.574,0,0,1,.357-.53c1.377-.559,2.8-1.09,4.248-1.586a.564.564,0,0,1,.367,1.067c-1.41.487-2.82,1.014-4.178,1.56a.511.511,0,0,1-.256.038Zm8.494-2.923a.562.562,0,0,1-.57-.553.57.57,0,0,1,.416-.553c1.426-.407,2.891-.793,4.369-1.14a.562.562,0,1,1,.26,1.093h0c-1.459.346-2.916.724-4.318,1.128a.538.538,0,0,1-.2.018Zm71.807-1.595h-.457a.564.564,0,1,1,0-1.128h.449c1.4,0,2.732-.048,3.99-.146a.565.565,0,0,1,.086,1.126c-1.314.09-2.691.139-4.111.139Zm-4.941-.174h-.031c-1.34-.088-2.812-.207-4.494-.377a.562.562,0,1,1,.111-1.119h0c1.668.164,3.125.288,4.459.371a.567.567,0,0,1,.543.581.561.561,0,0,1-.58.544Zm-58.131-.3a.56.56,0,0,1-.584-.537.567.567,0,0,1,.48-.581c1.447-.272,2.939-.524,4.445-.742a.562.562,0,1,1,.164,1.112h0c-1.486.22-2.969.466-4.4.739a.42.42,0,0,1-.148,0Zm71.566-.265a.562.562,0,0,1-.109-1.117,31.186,31.186,0,0,0,4.25-1.13.563.563,0,1,1,.365,1.065h0a32.334,32.334,0,0,1-4.412,1.173.629.629,0,0,1-.148,0Zm-22.359-.281h-.064l-1.334-.148c-1.037-.112-2.076-.222-3.123-.327a.563.563,0,0,1,.109-1.121c1.047.1,2.094.213,3.135.328l1.336.147a.561.561,0,1,1-.059,1.121Zm-40.318-.76a.561.561,0,1,1-.062-1.121c1.465-.161,2.973-.3,4.488-.408a.563.563,0,1,1,.084,1.123c-1.5.112-3,.247-4.451.4Zm31.371-.105h-.045c-1.506-.119-3.014-.227-4.467-.325a.563.563,0,1,1,.068-1.124c1.461.088,2.971.194,4.488.326a.564.564,0,0,1,.541.584.557.557,0,0,1-.582.539Zm-8.963-.537h-.023c-1.51-.06-3.016-.1-4.475-.123a.563.563,0,1,1,.018-1.125h0c1.469.021,2.982.061,4.5.119a.565.565,0,0,1-.021,1.129Zm-13.471,0a.565.565,0,0,1-.02-1.129c1.471-.059,2.988-.1,4.5-.117a.564.564,0,0,1,0,1.128c-1.51.018-3.016.058-4.471.118Zm62.17-1.248a.563.563,0,0,1-.27-1.059,29.049,29.049,0,0,0,3.7-2.384.564.564,0,0,1,.682.9,30.384,30.384,0,0,1-3.842,2.477.586.586,0,0,1-.318.042Zm7.146-5.379a.563.563,0,0,1-.4-.962,38.293,38.293,0,0,0,2.939-3.3.562.562,0,1,1,.881.7h0a38.567,38.567,0,0,1-3.02,3.4.564.564,0,0,1-.441.137Zm5.586-7.007a.562.562,0,0,1-.475-.866c.777-1.206,1.535-2.5,2.242-3.839a.562.562,0,0,1,1.055.389.5.5,0,0,1-.076.142c-.725,1.365-1.492,2.68-2.287,3.921a.563.563,0,0,1-.5.225Z" transform="translate(-8030.875 -4151.196)"/></g><g transform="translate(144.455 0)"><path class="p" d="M8110.424,4151.056a.565.565,0,0,1-.564-.563.557.557,0,0,1,.049-.225c.3-.656.592-1.361.871-2.059a.564.564,0,0,1,1.047.421h0c-.283.709-.584,1.413-.881,2.091A.564.564,0,0,1,8110.424,4151.056Z" transform="translate(-8109.859 -4147.856)"/></g></g><g class="r" transform="translate(8300.227 4150.624)"><path class="i" d="M8145.338,4123.408l-2.357,53.41-17.646-18.515s20.064-36.4,20.2-35.791l-.77-.656c.6-.167-21.459,35.055-21.459,35.055l-24.754-6.414,45.539-28.019Z" transform="translate(-8098.555 -4121.856)"/></g><g transform="translate(8233.188 4297.31)"><path class="s" d="M8199.316,4325.976H8045.4V4206.521h165.238v108.123A11.331,11.331,0,0,1,8199.316,4325.976Z" transform="translate(-8049.402 -4198.638)"/><g transform="translate(4.315 0)"><g transform="translate(-4)"><path class="t" d="M8203.314,4322.014H8047.768V4202.2h166.357V4311.2A10.818,10.818,0,0,1,8203.314,4322.014Z" transform="translate(-8047.768 -4202.203)"/><path class="o" d="M0,0H166.132V9.539H0Z" transform="translate(0.215 0.118)"/><path class="u" d="M8213.5,4227.936v-.369h-20.422v-20.038h-.367v20.038h-24.48v-20.038h-.369v20.038h-24.479v-20.038h-.369v20.038h-24.492v-20.038h-.369v20.038h-24.463v-20.038h-.371v20.038h-24.477v-20.038h-.373v20.038h-20.383v.369h20.383v22.64h-20.383v.37h20.383v22.642h-20.383v.369h20.383V4296.6h-20.383v.369h20.383v21.066h.373v-21.066h24.477v21.066h.371v-21.066h24.477v21.066h.371v-21.066h24.48v21.066h.365v-21.066h24.482v21.066h.369v-21.066h24.48v21.066h.367v-21.066H8213.5v-.369h-20.422v-22.642H8213.5v-.371h-20.422v-22.642H8213.5v-.37h-20.422v-22.64Zm-45.646,0v22.64h-24.473v-22.64Zm-49.338,23.012h24.477v22.645h-24.471Zm-.369,22.645h-24.457v-22.645h24.477Zm25.221-22.645h24.477v22.645h-24.477Zm-.371-23.012v22.64h-24.475v-22.64Zm-24.832,0v22.64h-24.475v-22.64Zm-49.346,0h24.477v22.64h-24.477Zm0,23.012h24.477v22.645h-24.477Zm0,45.652v-22.644h24.477V4296.6Zm24.832,0v-22.644h24.482V4296.6Zm24.838,0v-22.644h24.477V4296.6Zm24.836,0v-22.644H8167.8V4296.6Zm49.34,0h-24.475v-22.644h24.475Zm0-23.013h-24.475v-22.642h24.475Zm0-23.012h-24.475v-22.64h24.475Z" transform="translate(-8047.505 -4197.808)"/></g><path class="v" d="M8193.213,4215.841a5.076,5.076,0,0,0-3.562,8.688L8172,4239.734l-1.342,1.157a5.072,5.072,0,0,0-6.311,7.941c.121.093.244.185.369.266l-3.869,9.314-1.635,3.97a5.048,5.048,0,0,0-5.531,2.4l-17.057-10.787L8123.988,4246a5.074,5.074,0,1,0-9.678-.846l-23.924,9.762-2.346.96a5.075,5.075,0,1,0-8.133,5.709l-3.553,4.03-16.959,19.251a5.112,5.112,0,1,0,1.3,1.309l14.48-16.439,6.283-7.133a5.073,5.073,0,0,0,6.986-4.7v-.2l.35-.141,26.207-10.7a5.066,5.066,0,0,0,6.99,1.546,5.144,5.144,0,0,0,1-.836l11.463,7.244,18.6,11.763a4.71,4.71,0,0,0-.062.76,5.073,5.073,0,1,0,7.908-4.213l5.525-13.307a5.069,5.069,0,0,0,5.447-7.517l3.123-2.69,13.377-11.518,2.889-2.483a5.075,5.075,0,1,0,1.959-9.757Z" transform="translate(-8044.77 -4190.943)"/></g></g><g transform="translate(7824.308 4146.703)"><path class="w" d="M7875.723,4196.085h77.963a.725.725,0,0,0,.691-.751v-74.872a.726.726,0,0,0-.691-.752H7855a.726.726,0,0,0-.691.752v52.284C7854.3,4185.634,7863.895,4196.085,7875.723,4196.085Z" transform="translate(-7854.306 -4119.71)"/><path class="w" d="M7908.119,4162.33l-.359,24.288a.8.8,0,0,1-.812.786.791.791,0,0,1-.639-.336l-19.07-26.752a.8.8,0,0,1,.186-1.111.807.807,0,0,1,.516-.146l19.734,1.23a.8.8,0,0,1,.748.844.723.723,0,0,1-.031.182l-.24.8A.923.923,0,0,0,7908.119,4162.33Z" transform="translate(-7827.239 -4087.222)"/><g transform="translate(12.919 12.496)"><rect class="j" width="61.477" height="2.562"/><rect class="j" width="73.323" height="2.562" transform="translate(0 19.532)"/><rect class="j" width="73.323" height="2.562" transform="translate(0 39.063)"/></g></g><g transform="translate(7914.699 4119.313)"><path class="x" d="M7977.02,4156.606h-73.2v-51.895h68.551l14.68,15.507v25.668A10.4,10.4,0,0,1,7977.02,4156.606Z" transform="translate(-7903.818 -4104.703)"/><path class="y" d="M7956.039,4120.351l-14.74.369v-16.013Z" transform="translate(-7872.869 -4104.707)"/><g transform="translate(12.672 13.48)"><rect class="j" width="46.7" height="2.225" transform="translate(7.399)"/><rect class="j" width="54.098" height="2.225" transform="translate(0 10.748)"/><rect class="j" width="54.098" height="2.225" transform="translate(0 21.499)"/></g></g></g></svg>