<svg xmlns="http://www.w3.org/2000/svg" width="32" height="32" viewBox="0 0 32 32"><defs><style>.a{fill:#056bc3;}.b{fill:none;}.c{fill:#fff;}</style></defs><path class="a" d="M16,0A16,16,0,1,1,0,16,16,16,0,0,1,16,0Z"/><g transform="translate(6 6)"><rect class="b" width="20" height="20"/><path class="c" d="M7408.445,8245.46a1.3,1.3,0,0,0-1.976-.009c-1.67,1.934-4.874,6.193-5.054,10.574-.005.107-.009.22-.009.33a6.057,6.057,0,0,0,12.114,0C7413.521,8251.989,7410.161,8247.479,7408.445,8245.46Zm-1.03.808a.043.043,0,0,1,.039-.017.055.055,0,0,1,.04.017,22.068,22.068,0,0,1,4.477,7.874c-.5.464-1.685.788-4.4-.808-1.969-1.156-3.306-1.051-4.136-.684A23.309,23.309,0,0,1,7407.415,8246.268Z" transform="translate(-7397.781 -8243.749)"/></g></svg>