<svg width="15" height="15" viewBox="0 0 15 15" fill="none" xmlns="http://www.w3.org/2000/svg">
<path d="M7.50245 15C6.01887 15.0005 4.56865 14.561 3.33487 13.7371C2.10109 12.9133 1.13941 11.742 0.571391 10.3714C0.00345735 9.00074 -0.145308 7.49246 0.143948 6.03748C0.433311 4.58233 1.1476 3.24561 2.19662 2.19662C3.24564 1.14763 4.58228 0.433285 6.03748 0.143949C7.49252 -0.145308 9.00074 0.00345533 10.3714 0.571392C11.7419 1.13943 12.9132 2.10112 13.7371 3.33487C14.5611 4.56865 15.0005 6.01908 15 7.50245C14.9972 9.48997 14.2063 11.3953 12.801 12.8007C11.3956 14.2061 9.49037 14.9969 7.50272 14.9997L7.50245 15ZM7.50245 1.09021C6.23405 1.08969 4.99398 1.46535 3.93904 2.1696C2.88413 2.87395 2.06178 3.87519 1.57609 5.04689C1.09026 6.21854 0.962869 7.50797 1.21005 8.75224C1.45715 9.99628 2.06764 11.1392 2.96439 12.0363C3.86111 12.9334 5.00367 13.5444 6.24768 13.792C7.49161 14.0398 8.78117 13.9129 9.95303 13.4276C11.125 12.9424 12.1266 12.1205 12.8314 11.0659C13.5361 10.0112 13.9123 8.77131 13.9123 7.50299C13.9109 5.80315 13.2352 4.17337 12.0335 2.97119C10.8319 1.76899 9.20229 1.09267 7.50253 1.09048L7.50245 1.09021Z" fill="white"/>
<path d="M8.37228 4.94767C8.37228 5.42806 7.98281 5.8175 7.50245 5.8175C7.02209 5.8175 6.63262 5.42803 6.63262 4.94767C6.63262 4.46731 7.02209 4.07784 7.50245 4.07784C7.98281 4.07784 8.37228 4.46731 8.37228 4.94767Z" fill="white"/>
<path d="M6.82571 6.48621H8.17405V10.9253H6.82571V6.48621Z" fill="white"/>
</svg>
