<svg xmlns="http://www.w3.org/2000/svg" width="40" height="40" viewBox="0 0 40 40"><defs><style>.a{fill:none;}.b{fill:#b5b9ba;}</style></defs><g transform="translate(-5464 -2288)"><rect class="a" width="40" height="40" transform="translate(5464 2288)"/><g transform="translate(5468.544 2294.317)"><rect class="b" width="7.5" height="5" rx="2.5" transform="translate(6.866 4.578)"/><path class="b" d="M5503.1,2309.011l-4.857-4.857a1.25,1.25,0,1,0-1.768,1.768l3.035,3.035a3.87,3.87,0,0,0,.816,7.654,3.833,3.833,0,0,0,1.371-.256v11.286a1.25,1.25,0,0,1-2.5,0v-1.6a3.754,3.754,0,0,0-3.75-3.75h-1.734v-15.223a3.913,3.913,0,0,0-3.908-3.909h-8.572a3.913,3.913,0,0,0-3.908,3.909v23.189a3.881,3.881,0,0,0,.267,1.409h-1.438a1.25,1.25,0,0,0,0,2.5h18.732a1.25,1.25,0,0,0,0-2.5h-1.438a3.892,3.892,0,0,0,.267-1.409v-5.466h1.734a1.251,1.251,0,0,1,1.25,1.25v1.6a3.75,3.75,0,0,0,7.5,0v-15.978A3.727,3.727,0,0,0,5503.1,2309.011Zm-21.867,22.658a1.41,1.41,0,0,1-1.408-1.409v-23.189a1.41,1.41,0,0,1,1.408-1.409h8.572a1.41,1.41,0,0,1,1.408,1.409v23.189a1.41,1.41,0,0,1-1.408,1.409Zm19.094-17.558a1.371,1.371,0,1,1,1.371-1.371A1.373,1.373,0,0,1,5500.329,2314.111Z" transform="translate(-5474.905 -2303.162)"/></g></g></svg>