<svg xmlns="http://www.w3.org/2000/svg" width="40" height="40" viewBox="0 0 40 40"><defs><style>.a{fill:none;}.b{fill:#b5b9ba;}</style></defs><g transform="translate(-4696 -11119)"><rect class="a" width="40" height="40" transform="translate(4696 11119)"/><g transform="translate(4698.516 11121.61)"><path class="b" d="M4721.758,11130.663a5.138,5.138,0,0,1-2.946-1.058c-2.849-1.992-4.243-.375-4.3-.306a1.25,1.25,0,1,1-1.922-1.6c1-1.2,3.885-2.78,7.656-.146a2.191,2.191,0,0,0,1.873.549c.8-.283,1.328-1.524,1.448-1.937a1.25,1.25,0,0,1,2.4.685c-.081.288-.855,2.837-3.007,3.6A3.575,3.575,0,0,1,4721.758,11130.663Z" transform="translate(-4708.023 -11125.266)"/><path class="b" d="M4736.33,11147.693a1.394,1.394,0,0,0-1.271-.117l-7.779,2.94v-1.6a1.439,1.439,0,0,0-.676-1.223,1.393,1.393,0,0,0-1.272-.116l-8.89,3.367v-2.073a1.436,1.436,0,0,0-.677-1.223,1.387,1.387,0,0,0-1.275-.115l-4.579,1.753v-8.365a1.452,1.452,0,0,0-1.436-1.429h-3.01a1.451,1.451,0,0,0-1.436,1.429v10.665l-.943.363a1.4,1.4,0,0,0-1.049,1.388v13.577a1.43,1.43,0,0,0,1.436,1.385h32.1a1.451,1.451,0,0,0,1.435-1.43v-17.953A1.439,1.439,0,0,0,4736.33,11147.693Zm-20.873,13.257a.5.5,0,0,1-.5.5h-2.443a.5.5,0,0,1-.5-.5v-2.443a.5.5,0,0,1,.5-.5h2.443a.5.5,0,0,1,.5.5Zm5.787,0a.5.5,0,0,1-.5.5H4718.3a.5.5,0,0,1-.5-.5v-2.443a.5.5,0,0,1,.5-.5h2.443a.5.5,0,0,1,.5.5Zm5.787,0a.5.5,0,0,1-.5.5h-2.442a.5.5,0,0,1-.5-.5v-2.443a.5.5,0,0,1,.5-.5h2.442a.5.5,0,0,1,.5.5Z" transform="translate(-4702.037 -11133.564)"/></g><rect class="a" width="40" height="40" transform="translate(4696 11119)"/></g></svg>