<svg xmlns="http://www.w3.org/2000/svg" width="40" height="40" viewBox="0 0 40 40"><defs><style>.a{fill:#b5b9ba;}.b{fill:none;}</style></defs><g transform="translate(-3064 -9679)"><g transform="translate(3071.631 9682.247)"><path class="a" d="M3099.3,9701.29l-1.831-.032.055-3.124a1.25,1.25,0,0,0-2.5-.044l-.054,3.125-5.833-.1.054-3.124a1.25,1.25,0,0,0-2.5-.044l-.054,3.124-1.832-.031a2.315,2.315,0,0,0-2.367,2.256l-.125,7.185a5.125,5.125,0,0,0,5.064,5.175l8.843.154a5.125,5.125,0,0,0,5.241-5l.125-7.185A2.314,2.314,0,0,0,3099.3,9701.29Z" transform="translate(-3082.315 -9692.582)"/><path class="a" d="M3094.048,9689.293a1.25,1.25,0,1,0-1.228-1.271A1.25,1.25,0,0,0,3094.048,9689.293Z" transform="translate(-3088.443 -9686.793)"/><path class="a" d="M3114.4,9689.756a1.25,1.25,0,1,0-1.228-1.271A1.251,1.251,0,0,0,3114.4,9689.756Z" transform="translate(-3100.315 -9687.063)"/><path class="a" d="M3107.707,9751.664a5.117,5.117,0,0,1-5.112-5.111v-6.585a1.25,1.25,0,0,1,2.5,0v6.585a2.612,2.612,0,0,0,5.223,0v-1.875a5.1,5.1,0,0,1,10.193,0v5.469a1.25,1.25,0,0,1-2.5,0v-5.469a2.6,2.6,0,0,0-5.193,0v1.875A5.117,5.117,0,0,1,3107.707,9751.664Z" transform="translate(-3094.145 -9717.082)"/></g><rect class="b" width="40" height="40" transform="translate(3064 9679)"/></g></svg>