<svg xmlns="http://www.w3.org/2000/svg" width="32" height="32" viewBox="0 0 32 32"><defs><style>.a{fill:#ed7623;}.b{fill:none;}.c{fill:#fff;}</style></defs><path class="a" d="M16,0A16,16,0,1,1,0,16,16,16,0,0,1,16,0Z"/><g transform="translate(6 6)"><rect class="b" width="20" height="20"/><g transform="translate(1.177 1.201)"><path class="c" d="M4919.741,9996.236h.018a3.058,3.058,0,0,1,2.773,1.817l-5.565-.031a3.06,3.06,0,0,1,2.775-1.786m0-1.249a4.3,4.3,0,0,0-4.3,4.276l8.6.048a4.3,4.3,0,0,0-4.277-4.324Z" transform="translate(-4910.9 -9990.565)"/><path class="c" d="M4933.71,9977.2a.625.625,0,0,1-.625-.626v-2.182a.625.625,0,1,1,1.25,0v2.182A.625.625,0,0,1,4933.71,9977.2Z" transform="translate(-4924.869 -9973.767)"/><path class="c" d="M4960.86,10004.171a.626.626,0,0,1-.162-1.229l2.109-.564a.625.625,0,1,1,.323,1.207l-2.109.565A.619.619,0,0,1,4960.86,10004.171Z" transform="translate(-4946.363 -9996.4)"/><path class="c" d="M4950.819,9984.72a.625.625,0,0,1-.5-1.006l1.329-1.731a.625.625,0,0,1,.992.761l-1.33,1.732A.623.623,0,0,1,4950.819,9984.72Z" transform="translate(-4938.414 -9980.077)"/><path class="c" d="M4898.574,10004.171a.618.618,0,0,1-.162-.021l-2.109-.564a.625.625,0,0,1,.323-1.208l2.109.564a.625.625,0,0,1-.162,1.229Z" transform="translate(-4895.383 -9996.4)"/><path class="c" d="M4911.579,9984.721a.621.621,0,0,1-.5-.244l-1.33-1.732a.625.625,0,0,1,.992-.761l1.33,1.731a.624.624,0,0,1-.5,1.006Z" transform="translate(-4906.296 -9980.078)"/><path class="c" d="M4910.67,10021.094h-16.4a.625.625,0,0,1,0-1.25h16.4a.625.625,0,1,1,0,1.25Z" transform="translate(-4893.648 -10010.245)"/><path class="c" d="M4917.371,10031.093h-11.61a.625.625,0,0,1,0-1.25h11.61a.625.625,0,0,1,0,1.25Z" transform="translate(-4902.743 -10018.16)"/><g transform="translate(5.729 13.769)"><path class="c" d="M4936.217,10039.948a.625.625,0,0,1,.441,1.067l-2.475,2.475a.625.625,0,0,1-.884-.884l2.475-2.476A.626.626,0,0,1,4936.217,10039.948Z" transform="translate(-4930.622 -10039.93)"/><path class="c" d="M4921.771,10039.858a.622.622,0,0,1,.441.184l2.494,2.494a.625.625,0,0,1-.884.884l-2.494-2.494a.625.625,0,0,1,.442-1.067Z" transform="translate(-4921.146 -10039.858)"/></g><path class="c" d="M4924.042,9999.313a4.3,4.3,0,0,0-8.6-.048Z" transform="translate(-4910.9 -9990.566)"/><path class="c" d="M4933.71,9977.2a.625.625,0,0,1-.625-.626v-2.182a.625.625,0,1,1,1.25,0v2.182A.625.625,0,0,1,4933.71,9977.2Z" transform="translate(-4924.869 -9973.767)"/><path class="c" d="M4960.86,10004.171a.626.626,0,0,1-.162-1.229l2.109-.564a.625.625,0,1,1,.323,1.207l-2.109.565A.619.619,0,0,1,4960.86,10004.171Z" transform="translate(-4946.363 -9996.4)"/><path class="c" d="M4950.819,9984.72a.625.625,0,0,1-.5-1.006l1.329-1.731a.625.625,0,0,1,.992.761l-1.33,1.732A.623.623,0,0,1,4950.819,9984.72Z" transform="translate(-4938.414 -9980.077)"/><path class="c" d="M4898.574,10004.171a.618.618,0,0,1-.162-.021l-2.109-.564a.625.625,0,0,1,.323-1.208l2.109.564a.625.625,0,0,1-.162,1.229Z" transform="translate(-4895.383 -9996.4)"/><path class="c" d="M4911.579,9984.721a.621.621,0,0,1-.5-.244l-1.33-1.732a.625.625,0,0,1,.992-.761l1.33,1.731a.624.624,0,0,1-.5,1.006Z" transform="translate(-4906.296 -9980.078)"/><path class="c" d="M4910.67,10021.094h-16.4a.625.625,0,0,1,0-1.25h16.4a.625.625,0,1,1,0,1.25Z" transform="translate(-4893.648 -10010.245)"/><path class="c" d="M4917.371,10031.093h-11.61a.625.625,0,0,1,0-1.25h11.61a.625.625,0,0,1,0,1.25Z" transform="translate(-4902.743 -10018.16)"/><g transform="translate(5.729 13.769)"><path class="c" d="M4936.217,10039.948a.625.625,0,0,1,.441,1.067l-2.475,2.475a.625.625,0,0,1-.884-.884l2.475-2.476A.626.626,0,0,1,4936.217,10039.948Z" transform="translate(-4930.622 -10039.93)"/><path class="c" d="M4921.771,10039.858a.622.622,0,0,1,.441.184l2.494,2.494a.625.625,0,0,1-.884.884l-2.494-2.494a.625.625,0,0,1,.442-1.067Z" transform="translate(-4921.146 -10039.858)"/></g></g></g></svg>