<svg xmlns="http://www.w3.org/2000/svg" width="32" height="32" viewBox="0 0 32 32"><defs><style>.a{fill:#ed7623;}.b{fill:none;}.c{fill:#fff;}</style></defs><path class="a" d="M16,0A16,16,0,1,1,0,16,16,16,0,0,1,16,0Z"/><g transform="translate(6 6)"><rect class="b" width="20" height="20"/><g transform="translate(1.227 1.203)"><g transform="translate(0.457)"><path class="c" d="M4732.287,9999.322a4.3,4.3,0,1,0-8.6-.049Z" transform="translate(-4719.601 -9990.575)"/><path class="c" d="M4741.955,9977.208a.624.624,0,0,1-.625-.624V9974.4a.625.625,0,0,1,1.25,0v2.184A.624.624,0,0,1,4741.955,9977.208Z" transform="translate(-4733.571 -9973.775)"/><path class="c" d="M4769.1,10004.178a.625.625,0,0,1-.162-1.229l2.109-.565a.626.626,0,0,1,.324,1.209l-2.11.564A.609.609,0,0,1,4769.1,10004.178Z" transform="translate(-4755.064 -9996.406)"/><path class="c" d="M4759.063,9984.727a.615.615,0,0,1-.38-.129.624.624,0,0,1-.116-.876l1.329-1.732a.625.625,0,0,1,.992.761l-1.329,1.732A.623.623,0,0,1,4759.063,9984.727Z" transform="translate(-4747.115 -9980.085)"/><path class="c" d="M4706.819,10004.179a.624.624,0,0,1-.162-.022l-2.109-.564a.626.626,0,0,1,.324-1.209l2.109.566a.626.626,0,0,1-.162,1.229Z" transform="translate(-4704.084 -9996.407)"/><path class="c" d="M4719.824,9984.727a.624.624,0,0,1-.5-.244L4718,9982.75a.625.625,0,0,1,.992-.761l1.329,1.732a.624.624,0,0,1-.5,1Z" transform="translate(-4714.998 -9980.085)"/></g><g transform="translate(0 9.599)"><path class="c" d="M4718.914,10021.1h-16.4a.625.625,0,1,1,0-1.25h16.4a.625.625,0,1,1,0,1.25Z" transform="translate(-4701.893 -10019.851)"/><path class="c" d="M4725.615,10031.1H4714a.625.625,0,1,1,0-1.249h11.61a.625.625,0,1,1,0,1.249Z" transform="translate(-4710.986 -10027.767)"/><g transform="translate(5.729 4.17)"><path class="c" d="M4730.016,10043.591a.625.625,0,0,1-.442-1.067l2.475-2.475a.625.625,0,0,1,.884.883l-2.475,2.476A.623.623,0,0,1,4730.016,10043.591Z" transform="translate(-4729.391 -10039.865)"/><path class="c" d="M4744.389,10043.609a.625.625,0,0,1-.442-.184l-2.494-2.494a.625.625,0,0,1,.885-.883l2.493,2.494a.625.625,0,0,1-.441,1.066Z" transform="translate(-4738.795 -10039.865)"/></g></g></g><rect class="b" width="20" height="20"/></g></svg>