<svg width="30" height="30" viewBox="0 0 40 40" fill="none" xmlns="http://www.w3.org/2000/svg">
<path d="M6.41241 0C2.9121 0 0 2.74859 0 6.40019C0 7.29162 0.198945 8.44935 0.500004 9.26264C2.21623 12.9516 3.94954 16.6477 5.67498 20.3377C5.77989 20.5623 5.99613 20.7222 6.23748 20.7752L20.0247 23.6754L12.2247 31.8376C11.8525 32.2221 12.0316 32.9749 12.5372 33.1501C19.3285 35.267 25.9966 38.0117 32.8002 40C33.1027 40 33.3973 39.8117 33.5251 39.5374C35.4724 35.3825 37.5075 31.2573 39.4375 27.1002C39.7662 26.2257 40 24.9869 40 24.0003C40 19.9377 36.7385 16.8002 32.7871 16.8002C28.8359 16.8002 25.5999 19.94 25.5999 24.0003C25.5999 24.9877 25.8362 26.228 26.1624 27.1002C27.8538 30.6733 29.5608 34.2502 31.2623 37.8252L14.2493 32.0378L22.1743 23.7506C22.568 23.341 22.3178 22.5296 21.7619 22.413L7.54897 19.4255C9.12348 16.0343 10.7496 12.659 12.299 9.26331C12.5976 8.45223 12.799 7.29287 12.799 6.40086C12.799 2.75183 9.91199 0.000671433 6.41139 0.000671433L6.41241 0ZM6.41241 1.59987C9.09801 1.59987 11.1998 3.57453 11.1998 6.39983C11.1998 6.99135 10.9819 8.19842 10.7997 8.69978C9.34211 11.8346 7.86774 14.9677 6.39951 18.0998C4.96622 14.9523 3.48234 11.9084 1.99933 8.69978C1.81685 8.20005 1.59921 6.99276 1.59921 6.39983C1.59921 3.57674 3.72682 1.59987 6.41241 1.59987ZM6.40014 3.59988C4.86327 3.59988 3.60018 4.86304 3.60018 6.39983C3.60018 7.93663 4.86334 9.19978 6.40014 9.19978C7.93701 9.19978 9.20009 7.93663 9.20009 6.39983C9.20009 4.86304 7.93694 3.59988 6.40014 3.59988ZM6.40014 5.19975C7.0723 5.19975 7.60022 5.72766 7.60022 6.39983C7.60022 7.07201 7.07231 7.59991 6.40014 7.59991C5.72797 7.59991 5.20005 7.07201 5.20005 6.39983C5.20005 5.72766 5.72796 5.19975 6.40014 5.19975ZM32.7882 18.3998C35.9071 18.3998 38.4007 20.7788 38.4007 23.9997C38.4007 24.6831 38.1616 25.9241 37.9381 26.5249C36.2346 30.1262 34.5145 33.7264 32.8005 37.325C31.1219 33.71 29.3272 30.0656 27.6629 26.5249C27.4402 25.9231 27.2005 24.682 27.2005 24C27.2005 20.7765 29.6693 18.3998 32.7882 18.3998ZM32.8005 20.4001C30.8217 20.4001 29.2006 22.0215 29.2006 24C29.2006 25.9788 30.822 27.5999 32.8005 27.5999C34.7793 27.5999 36.4004 25.9785 36.4004 24C36.4004 22.0212 34.779 20.4001 32.8005 20.4001ZM32.8005 22C33.9147 22 34.8005 22.8859 34.8005 24C34.8005 25.1142 33.9147 26 32.8005 26C31.6864 26 30.8005 25.1139 30.8005 24C30.8005 22.8859 31.6864 22 32.8005 22Z" fill="#42A0D4"/>
</svg>


