<svg width="30" height="30" viewBox="0 0 42 42" fill="none" xmlns="http://www.w3.org/2000/svg">
<path d="M0.3 8.70701C0.3 5.25865 3.02131 2.65537 6.31985 2.60749H6.41139C9.7501 2.60749 12.499 5.22811 12.499 8.70768C12.499 9.56199 12.3051 10.6799 12.0213 11.456C11.1034 13.4676 10.1602 15.4686 9.21579 17.472C8.56739 18.8475 7.91847 20.2241 7.27686 21.606L7.11794 21.9483L7.48726 22.0259L21.7002 25.0134L21.7003 25.0134C21.8442 25.0436 21.9777 25.173 22.0375 25.3672C22.0974 25.5613 22.06 25.7435 21.958 25.8496L21.9575 25.8501L14.0325 34.1373L13.7074 34.4772L14.1527 34.6287L31.1657 40.4161L31.8386 40.645L31.5332 40.0031C31.1023 39.0978 30.6711 38.1924 30.2399 37.2871C28.9701 34.6207 27.7002 31.9544 26.439 29.2902C26.1272 28.451 25.8999 27.253 25.8999 26.3071C25.8999 22.4148 28.9993 19.407 32.7871 19.407C36.5766 19.407 39.7 22.414 39.7 26.3071C39.7 27.253 39.4748 28.4502 39.1606 29.291C38.1158 31.5412 37.0448 33.7727 35.9725 36.0067C35.0619 37.9041 34.1504 39.8032 33.2534 41.7169L33.2531 41.7175C33.1798 41.8751 33.0106 41.9904 32.8377 42.0052C29.461 41.0166 26.1159 39.8414 22.7648 38.6475C22.4613 38.5394 22.1578 38.4311 21.8542 38.3228C18.7939 37.2312 15.7257 36.1367 12.6317 35.1721C12.4995 35.1246 12.3869 34.9916 12.3436 34.8097C12.2999 34.626 12.3417 34.4549 12.4402 34.3531L12.4416 34.3517L20.2416 26.1895L20.6142 25.7996L20.0865 25.6886L6.30185 22.789C6.30146 22.7889 6.30108 22.7889 6.3007 22.7888C6.14189 22.7535 6.00821 22.6491 5.94679 22.5176L5.94674 22.5175C5.48499 21.53 5.02271 20.5421 4.56038 19.5541C3.29661 16.8536 2.03238 14.152 0.777206 11.4541C0.491488 10.6765 0.3 9.56089 0.3 8.70701ZM11.0717 11.1331L11.0772 11.1213L11.0817 11.1091C11.1819 10.8333 11.2854 10.3856 11.3635 9.9425C11.4417 9.49889 11.4998 9.02883 11.4998 8.70665C11.4998 5.71093 9.25893 3.60669 6.41241 3.60669C3.56794 3.60669 1.29921 5.71115 1.29921 8.70665C1.29921 9.02948 1.35724 9.4999 1.43539 9.94362C1.51344 10.3867 1.61705 10.8343 1.71753 11.1095L1.7218 11.1212L1.72701 11.1325C2.38492 12.5559 3.04029 13.9413 3.69074 15.3163C4.51211 17.0526 5.32563 18.7723 6.12649 20.531L6.39557 21.1219L6.67115 20.534C7.03066 19.767 7.39058 19 7.75056 18.2328C8.86046 15.8673 9.97091 13.5006 11.0717 11.1331ZM38.2093 28.96L38.2148 28.9484L38.2193 28.9363C38.3396 28.6129 38.459 28.1335 38.5481 27.655C38.6372 27.1769 38.7007 26.6751 38.7007 26.3066C38.7007 22.9155 36.0683 20.4067 32.7882 20.4067C29.5064 20.4067 26.9005 22.9148 26.9005 26.3068C26.9005 26.6748 26.9642 27.1763 27.0533 27.6543C27.1425 28.1327 27.2618 28.6122 27.3815 28.9358L27.3859 28.9478L27.3914 28.9593C28.1288 30.5283 28.8891 32.1118 29.653 33.7028C30.6187 35.7141 31.5901 37.7374 32.5284 39.7582L32.797 40.3367L33.0713 39.7608C33.4794 38.904 33.8879 38.047 34.2964 37.1899C35.6036 34.4477 36.9113 31.7041 38.2093 28.96ZM20.5175 4.83075L23.6369 9.156L23.8266 9.41909L24.0741 9.20942L34.4282 0.437914L35.7475 2.25515L23.4794 12.6383L18.8668 6.23333L20.5175 4.83075ZM3.90018 8.70665C3.90018 7.33553 5.02896 6.2067 6.40014 6.2067C7.77125 6.2067 8.90009 7.33554 8.90009 8.70665C8.90009 10.0778 7.77132 11.2066 6.40014 11.2066C5.02902 11.2066 3.90018 10.0778 3.90018 8.70665ZM7.90022 8.70665C7.90022 7.86878 7.23798 7.20657 6.40014 7.20657C5.56227 7.20657 4.90005 7.86879 4.90005 8.70665C4.90005 9.54451 5.56229 10.2067 6.40014 10.2067C7.238 10.2067 7.90022 9.54451 7.90022 8.70665ZM29.5006 26.3068C29.5006 24.494 30.9874 23.007 32.8005 23.007C34.6134 23.007 36.1004 24.4937 36.1004 26.3068C36.1004 28.1197 34.6136 29.6067 32.8005 29.6067C30.9877 29.6067 29.5006 28.1199 29.5006 26.3068ZM35.1005 26.3068C35.1005 25.027 34.0803 24.0068 32.8005 24.0068C31.5207 24.0068 30.5005 25.027 30.5005 26.3068C30.5005 27.5864 31.5206 28.6069 32.8005 28.6069C34.0803 28.6069 35.1005 27.5867 35.1005 26.3068Z" fill="#42A0D4" stroke="#42A0D4" stroke-width="0.6"/>
</svg>


