<svg width="20" height="19" viewBox="0 0 17 34" fill="none" xmlns="http://www.w3.org/2000/svg">
<path fill-rule="evenodd" clip-rule="evenodd" d="M8.49993 2.26706C7.59824 2.26706 6.73335 2.62517 6.09564 3.26289C5.45818 3.90063 5.09986 4.76532 5.09986 5.66728V19.6928L5.0567 20.1482C5.04531 20.2679 4.98057 20.3761 4.88049 20.4425L4.66397 20.5862C3.64087 21.385 2.89266 22.4833 2.52366 23.7279C2.15465 24.9723 2.18334 26.3009 2.60572 27.5282C3.02809 28.7556 3.82304 29.8207 4.87978 30.5744C5.93627 31.3283 7.20198 31.7334 8.49993 31.7334C9.79787 31.7334 11.0633 31.3283 12.1201 30.5744C13.1766 29.8207 13.9715 28.7556 14.3939 27.5282C14.8163 26.3009 14.845 24.9723 14.4759 23.7279C14.1072 22.4833 13.359 21.385 12.3359 20.5862C12.0608 20.3716 11.9 20.0419 11.9 19.6928V5.66728C11.9 4.76537 11.5417 3.90062 10.904 3.26288C10.2665 2.62514 9.40161 2.26706 8.49993 2.26706ZM2.83314 19.1638V5.66704C2.83314 4.16388 3.43029 2.72266 4.49299 1.65992C5.55568 0.59694 6.99708 0 8.49993 0C10.0028 0 11.4442 0.59694 12.5069 1.65992C13.5696 2.72266 14.1665 4.16388 14.1665 5.66704V19.1638C15.3387 20.2123 16.2001 21.5683 16.6493 23.0831C17.1525 24.7803 17.1134 26.592 16.5373 28.2656C15.9613 29.9393 14.8772 31.3914 13.4366 32.4196C11.9956 33.4474 10.2699 34 8.5 34C6.73015 34 5.00413 33.4474 3.56345 32.4196C2.12253 31.3914 1.03847 29.9393 0.462687 28.2656C-0.113359 26.592 -0.152499 24.7803 0.350748 23.0831C0.799914 21.5684 1.66126 20.2123 2.83329 19.1638H2.83314ZM8.49993 23.8013C7.56103 23.8013 6.79977 24.5623 6.79977 25.5013C6.79977 26.4404 7.56103 27.2015 8.49993 27.2015C9.43883 27.2015 10.1998 26.4404 10.1998 25.5013C10.1998 24.5623 9.43883 23.8013 8.49993 23.8013ZM9.63328 21.6988V11.3343C9.63328 10.7084 9.12578 10.2009 8.49993 10.2009C7.87387 10.2009 7.36657 10.7084 7.36657 11.3343V21.6988C5.7281 22.1864 4.5333 23.7045 4.5333 25.5013C4.5333 27.6922 6.3091 29.4683 8.49993 29.4683C10.6905 29.4683 12.4666 27.6922 12.4666 25.5013C12.4666 23.7045 11.2718 22.1864 9.63328 21.6988Z" fill="black"/>
</svg>

