<svg width="20" height="19" viewBox="0 0 35 19" fill="none" xmlns="http://www.w3.org/2000/svg">
<path fill-rule="evenodd" clip-rule="evenodd" d="M18.2647 18.925C17.0977 19.2374 15.8984 18.5452 15.5856 17.3787C15.2728 16.2121 15.9655 15.0133 17.1325 14.7006C17.9104 14.4922 22.5512 14.0038 31.0552 13.2354C23.3061 16.8201 19.0427 18.7167 18.2653 18.9249L18.2647 18.925Z" fill="black"/>
<path d="M34.6475 13.9824C34.8785 15.1166 35 16.2908 35 17.4933H30.625C30.625 16.9491 30.5945 16.4122 30.535 15.8842C30.9998 15.6697 31.4792 15.4479 31.9733 15.2195L34.6475 13.9824ZM33.6743 10.8028L30.8575 11.0572C30.2743 11.11 29.71 11.1612 29.1641 11.2113C26.8442 6.51216 22.0028 3.27997 16.4063 3.27997C8.55313 3.27997 2.1875 9.64344 2.1875 17.4932H0C0 7.83211 7.83516 0 17.5 0C24.7943 0 31.0461 4.46084 33.6742 10.8028L33.6743 10.8028Z" fill="black"/>
</svg>
