<svg xmlns="http://www.w3.org/2000/svg" width="32" height="32" viewBox="0 0 32 32"><defs><style>.a{fill:#056bc3;}.b{fill:none;}.c{fill:#fff;}</style></defs><path class="a" d="M16,0A16,16,0,1,1,0,16,16,16,0,0,1,16,0Z"/><g transform="translate(6 8)"><rect class="b" width="16.012" height="16.012" transform="translate(0 0)"/><g transform="translate(1.885 1.981)"><path class="c" d="M5695.973,9991.682h-10.806a.665.665,0,0,1,0-1.329h10.806a.538.538,0,1,0,0-1.069.664.664,0,1,1,0-1.328,1.864,1.864,0,1,1,0,3.727Z" transform="translate(-5679.78 -9987.955)"/><path class="c" d="M5665.031,10029.511a.664.664,0,0,0,0-1.328.534.534,0,1,1,0-1.068h11.4a.665.665,0,0,0,0-1.329h-11.4a1.863,1.863,0,1,0,0,3.726Z" transform="translate(-5663.168 -10017.41)"/><path class="c" d="M5688.576,10009.114h-14.167a.665.665,0,1,1,0-1.329h14.167a.665.665,0,0,1,0,1.329Z" transform="translate(-5671.403 -10003.396)"/><path class="c" d="M5682.549,10018.113h-13.926a.664.664,0,0,1,0-1.328h13.926a.664.664,0,0,1,0,1.328Z" transform="translate(-5666.898 -10010.403)"/></g></g></svg>