<svg width="47" height="47" viewBox="0 0 47 47" fill="none" xmlns="http://www.w3.org/2000/svg">
<path d="M23.5 1C17.5324 1 11.8092 3.37068 7.59012 7.59013C3.37068 11.8099 1 17.5329 1 23.5C1 29.4671 3.37068 35.1908 7.59012 39.4099C11.8099 43.6293 17.5329 46 23.5 46C29.4671 46 35.1908 43.6293 39.4099 39.4099C43.6293 35.1901 46 29.4671 46 23.5C45.9931 17.5348 43.6206 11.8151 39.4025 7.59763C35.1843 3.38018 29.4647 1.00692 23.5001 1.00008L23.5 1ZM25.2605 41.514V40.6096C25.2595 39.9812 24.9236 39.401 24.3796 39.087C23.8352 38.7732 23.1648 38.7732 22.6204 39.087C22.0764 39.401 21.7405 39.9812 21.7395 40.6096V41.514C17.5696 41.1003 13.6718 39.2551 10.7085 36.2922C7.74558 33.329 5.90039 29.431 5.48666 25.2611H6.39103C6.85786 25.2611 7.30582 25.0754 7.63583 24.7454C7.96616 24.4154 8.15153 23.9675 8.15153 23.5006C8.15153 23.0338 7.96616 22.5858 7.63583 22.2558C7.30582 21.9258 6.85788 21.7401 6.39103 21.7401H5.48666C5.90039 17.5702 7.74558 13.6723 10.7085 10.709C13.6717 7.74615 17.5696 5.90096 21.7395 5.48722V6.39159C21.7405 7.02001 22.0764 7.6002 22.6204 7.91428C23.1648 8.228 23.8352 8.228 24.3796 7.91428C24.9236 7.60023 25.2595 7.02 25.2605 6.39159V5.48722C29.4304 5.90095 33.3282 7.74615 36.2915 10.709C39.2544 13.6723 41.0996 17.5702 41.5133 21.7401H40.609C40.1421 21.7401 39.6942 21.9258 39.3642 22.2558C39.0338 22.5858 38.8485 23.0338 38.8485 23.5006C38.8485 23.9675 39.0338 24.4154 39.3642 24.7454C39.6942 25.0754 40.1421 25.2611 40.609 25.2611H41.5133C41.0996 29.431 39.2544 33.3289 36.2915 36.2922C33.3283 39.2551 29.4304 41.1003 25.2605 41.514Z" fill="#00479A" stroke="white" stroke-width="2"/>
<path d="M33.2793 14.6069C28.0551 18.5498 23.46 23.2628 19.6512 28.5853C18.9749 27.697 18.279 26.8411 17.5636 26.0186H17.5633C16.3977 24.6757 15.1509 23.4055 13.8293 22.2154C13.4306 21.8591 12.8716 21.7421 12.3634 21.9092C11.8548 22.0763 11.4743 22.5021 11.3648 23.026C11.2553 23.5499 11.4339 24.0922 11.8326 24.4487C13.0634 25.557 14.2245 26.7396 15.3099 27.9899C16.4355 29.2861 17.492 30.6403 18.4755 32.047C18.7035 32.3718 19.0508 32.593 19.4414 32.6618C19.8323 32.7305 20.2343 32.6416 20.5591 32.4138C20.5988 32.3861 20.9608 31.9994 20.9611 31.9988C22.8288 29.1382 24.9515 26.4521 27.3029 23.9736C29.6749 21.4336 32.2684 19.1099 35.0528 17.0294C35.4841 16.7124 35.7138 16.1892 35.6555 15.6569C35.5972 15.1246 35.26 14.6636 34.7701 14.4473C34.2804 14.231 33.7122 14.2919 33.2796 14.6073L33.2793 14.6069Z" fill="#00479A"/>
</svg>
