<svg width="46" height="38" viewBox="0 0 46 38" fill="none" xmlns="http://www.w3.org/2000/svg">
<path fill-rule="evenodd" clip-rule="evenodd" d="M38.3963 26.062C39.1187 25.3999 40.0727 24.9861 41.1297 24.9861L41.1295 24.9862C43.3725 24.9862 45.1902 26.8044 45.1891 29.0468C45.1891 31.2891 43.3714 33.1074 41.1285 33.1074C38.8862 33.1074 37.0679 31.2896 37.0679 29.0468C37.0679 28.702 37.124 28.3729 37.205 28.0535L25.5787 21.1056C24.7785 21.8783 23.6914 22.3563 22.4909 22.3563C21.3109 22.3563 20.2415 21.8939 19.4457 21.1445L7.8734 28.2644C7.93005 28.5169 7.96512 28.777 7.96512 29.0468C7.96512 31.022 6.36383 32.6239 4.38795 32.6239C2.41277 32.6239 0.810791 31.0226 0.810791 29.0468C0.810791 27.0716 2.41207 25.4696 4.38795 25.4696C5.24958 25.4696 6.02975 25.7869 6.64754 26.2946L18.2274 19.1698C18.1092 18.7695 18.0434 18.347 18.0434 17.9089C18.0434 15.8548 19.4382 14.1304 21.3309 13.6194V7.10156C19.8488 6.64133 18.7648 5.27514 18.7648 3.64084C18.7648 1.63001 20.3949 0 22.4057 0C24.4165 0 26.0465 1.62988 26.0465 3.64084C26.0465 5.21201 25.0462 6.53825 23.652 7.04866V13.6198C25.5442 14.1313 26.9389 15.8552 26.9389 17.9093C26.9389 18.3269 26.8774 18.73 26.7695 19.1136L38.3963 26.062ZM39.5402 10.7184C39.5402 13.0411 37.6512 14.9306 35.3284 14.9306C33.0057 14.9306 31.1167 13.0411 31.1167 10.7184C31.1167 8.39621 33.0057 6.50666 35.3284 6.50666C37.6512 6.50666 39.5402 8.39621 39.5402 10.7184ZM37.2201 10.7184C37.2201 9.67546 36.3714 8.82675 35.3284 8.82675C34.2855 8.82675 33.4368 9.67546 33.4368 10.7184C33.4368 11.7613 34.2855 12.61 35.3284 12.61C36.3719 12.61 37.2201 11.7613 37.2201 10.7184ZM9.65369 14.9306C11.9764 14.9306 13.8654 13.0411 13.8654 10.7184C13.8654 8.39621 11.9764 6.50666 9.65369 6.50666C7.33098 6.50666 5.44198 8.39621 5.44198 10.7184C5.44198 13.0411 7.33098 14.9306 9.65369 14.9306ZM9.65369 8.82675C10.6966 8.82675 11.5453 9.67546 11.5453 10.7184C11.5453 11.7613 10.6971 12.61 9.65369 12.61C8.61074 12.61 7.76207 11.7613 7.76207 10.7184C7.76261 9.67542 8.61078 8.82675 9.65369 8.82675ZM18.2783 33.1073C18.2783 30.7846 20.1684 28.895 22.4911 28.895C24.8138 28.895 26.7033 30.7846 26.7028 33.1073C26.7028 35.4295 24.8138 37.319 22.4911 37.319C20.1684 37.319 18.2783 35.4295 18.2783 33.1073ZM20.5989 33.1073C20.5989 34.1502 21.4481 34.9989 22.4911 34.9989C23.5345 34.9989 24.3827 34.1502 24.3827 33.1073C24.3827 32.0644 23.534 31.2157 22.4911 31.2157C21.4482 31.2157 20.5989 32.0644 20.5989 33.1073Z" fill="#00479A"/>
</svg>
