<svg width="30" height="46" viewBox="0 0 30 46" fill="none" xmlns="http://www.w3.org/2000/svg">
<path d="M27.2664 21.5624C23.2587 12.2999 16.1995 1.09234 15.7871 0.435867C15.6179 0.1648 15.32 0 14.9998 0C14.6795 0 14.3816 0.1648 14.2124 0.435867C13.7998 1.09236 6.74041 12.2998 2.73307 21.5624C1.38329 24.677 0.379944 27.5663 0.0894739 29.7657C0.080202 29.8 0.0755664 29.8354 0.0751797 29.8708C0.0261163 30.2362 0.00139101 30.6043 0.000231903 30.9732C-0.0275838 35.966 2.44841 40.6428 6.59954 43.4384C10.7507 46.234 16.0283 46.7782 20.6651 44.8893C25.3027 43.0006 28.6872 38.928 29.6859 34.0357C29.6959 33.9945 29.7037 33.9529 29.7091 33.9109C29.9038 32.9441 30.0011 31.9599 30 30.9739C30 28.6928 28.8797 25.2861 27.2671 21.5631L27.2664 21.5624ZM4.77159 21.5624C8.01521 14.3363 13.0684 5.90355 14.9998 2.75029C16.9311 5.90335 21.9843 14.3362 25.2281 21.5624C26.9248 25.3381 28.1248 28.7881 28.1248 30.9732C28.1259 31.7036 28.0649 32.4329 27.942 33.1533C25.9397 34.1428 23.675 34.4793 21.4699 34.1147C19.2648 33.7501 17.2308 32.7028 15.6565 31.1214C13.9478 29.4003 11.7716 28.2144 9.39559 27.7096C7.01971 27.2048 4.54751 27.4031 2.28289 28.2802C2.9242 25.9758 3.7567 23.7287 4.77201 21.5625L4.77159 21.5624Z" fill="#F1AD33"/>
</svg>
