<svg width="36" height="36" viewBox="0 0 36 36" fill="none" xmlns="http://www.w3.org/2000/svg">
<path d="M18 0C13.226 0 8.64784 1.89622 5.27203 5.27203C1.89622 8.64784 0 13.226 0 18C0 22.774 1.89622 27.3522 5.27203 30.728C8.64784 34.1038 13.226 36 18 36C22.774 36 27.3522 34.1038 30.728 30.728C34.1038 27.3522 36 22.774 36 18C35.9898 13.229 34.0903 8.65626 30.7166 5.28351C27.3433 1.90985 22.7711 0.010332 18.0002 0.000153271L18 0ZM18 34.8219C13.5441 34.8219 9.27081 33.0521 6.11924 29.902C2.96797 26.7517 1.19703 22.4788 1.1955 18.0228C1.194 13.5672 2.962 9.29285 6.11112 6.14051C9.26025 2.9881 13.5326 1.21555 17.9888 1.21257C22.4447 1.20958 26.7188 2.97639 29.8727 6.12436C33.026 9.27234 34.8 13.544 34.8044 17.9998C34.7999 22.4554 33.028 26.7267 29.8777 29.8775C26.7271 33.0278 22.4557 34.7997 18 34.8042V34.8219ZM19.0072 19.7145C18.5525 19.9833 18.0096 20.0598 17.4983 19.9277C16.9868 19.7956 16.5492 19.4655 16.2816 19.0102C16.0138 18.5549 15.9384 18.012 16.0715 17.5008C16.2048 16.9899 16.5357 16.5528 16.9916 16.2862C17.4475 16.0192 17.9907 15.9448 18.5014 16.0793C19.0123 16.2135 19.4484 16.5454 19.7142 17.0019C19.9788 17.4557 20.0526 17.9959 19.9202 18.5041C19.7878 19.0123 19.4595 19.4476 19.0072 19.7145ZM16.2858 20.9704L10.6712 30.7037C8.43263 29.426 6.57376 27.5764 5.28466 25.3444C3.99556 23.1125 3.32231 20.5783 3.33402 18.0007H14.5712C14.57 18.6019 14.7278 19.1923 15.0292 19.7125C15.3302 20.2326 15.7637 20.6641 16.2856 20.9621L16.2858 20.9704ZM32.6612 18.0003C32.672 20.5776 31.9991 23.1118 30.7109 25.344C29.4227 27.5766 27.5653 29.4272 25.3286 30.7075L19.714 20.9704H19.7442C20.7935 20.3501 21.4351 19.2195 21.4285 18.0003H32.6612ZM16.2858 15.0473L10.6712 5.31856C12.8999 4.03337 15.4272 3.35683 18 3.35683C20.5728 3.35683 23.1001 4.03335 25.3288 5.31856L19.7142 15.0519C19.1935 14.7502 18.6025 14.5912 18.0006 14.5903C17.3988 14.5897 16.8072 14.7472 16.2858 15.0474L16.2858 15.0473Z" fill="#F1AD33"/>
</svg>
