<svg width="25" height="50" viewBox="0 0 25 50" fill="none" xmlns="http://www.w3.org/2000/svg">
<path d="M12.477 0C8.08823 0.0225321 5.14706 2.22555 5.12405 6.60678V27.4717C2.0332 29.7448 0 33.399 0 37.5202C0 44.403 5.6051 50 12.5 50C19.3949 50 25 44.403 25 37.5202C25 33.3881 22.9591 29.7212 19.8529 27.4491C19.7692 13.573 19.9714 19.7446 19.83 6.60652C19.8529 2.22463 16.9118 0.0224168 12.477 0ZM12.454 1.4681C15.4412 1.49063 18.3824 2.95927 18.3594 6.60678C18.4074 20.2155 18.3824 13.9744 18.3824 27.7929C18.3859 28.0274 18.5095 28.2573 18.704 28.3894C21.6155 30.3712 23.5294 33.7309 23.5294 37.5203C23.5294 43.6099 18.5999 48.532 12.5 48.532C6.39959 48.532 1.47057 43.6099 1.47057 37.5203C1.47057 33.7422 3.37463 30.3967 6.27293 28.4124C6.46748 28.2803 6.59104 28.0509 6.59461 27.8158V6.60744C6.61759 2.95993 9.55885 1.49117 12.454 1.4681ZM12.3391 4.124C11.9541 4.166 11.6304 4.56542 11.6727 4.94999C11.7151 5.33456 12.1149 5.63464 12.5 5.59213H15.4411C15.8297 5.5993 16.1764 5.24597 16.1764 4.8578C16.1764 4.46965 15.8297 4.11837 15.4411 4.12348L12.3391 4.124ZM9.39794 7.0602C9.01293 7.10219 8.68919 7.50162 8.73157 7.88619C8.77395 8.27076 9.17377 8.57085 9.55877 8.52833H15.4411C15.8297 8.5355 16.1764 8.18217 16.1764 7.79401C16.1764 7.40586 15.8297 7.05457 15.4411 7.05968L9.39794 7.0602ZM12.3391 9.99641C11.9541 10.0384 11.6304 10.4378 11.6727 10.8224C11.7151 11.207 12.1149 11.507 12.5 11.4645H15.4411C15.8297 11.4717 16.1764 11.1184 16.1764 10.7302C16.1764 10.3421 15.8297 9.99077 15.4411 9.99588L12.3391 9.99641ZM9.39794 12.9326C9.01293 12.9746 8.68919 13.374 8.73157 13.7586C8.77395 14.1432 9.17377 14.4432 9.55877 14.4007H15.4411C15.8297 14.4079 16.1764 14.0546 16.1764 13.6664C16.1764 13.2783 15.8297 12.927 15.4411 12.9321L9.39794 12.9326ZM12.3391 15.8688C11.9541 15.9108 11.6304 16.3102 11.6727 16.6948C11.7151 17.0794 12.1149 17.3795 12.5 17.3369H15.4411C15.8297 17.3441 16.1764 16.9908 16.1764 16.6026C16.1764 16.2145 15.8297 15.8632 15.4411 15.8683L12.3391 15.8688ZM9.39794 18.805C9.01293 18.847 8.68919 19.2464 8.73157 19.631C8.77395 20.0156 9.17377 20.3157 9.55877 20.2731H15.4411C15.8297 20.2803 16.1764 19.927 16.1764 19.5388C16.1764 19.1507 15.8297 18.7994 15.4411 18.8045L9.39794 18.805ZM9.85749 23.0491C9.57103 23.3333 9.55877 23.6682 9.55877 23.9437V31.6456C7.40296 32.7353 5.8823 34.9229 5.8823 37.4955C5.8823 41.136 8.85407 44.1023 12.5 44.1023C16.1464 44.1023 19.1176 41.1353 19.1176 37.4955C19.1176 34.9213 17.602 32.7327 15.4411 31.6456V23.9437C15.4503 23.4091 14.7349 23.0235 14.2922 23.3241C12.9754 23.9335 11.878 23.1761 10.7995 22.7961C10.4329 22.7065 10.1046 22.9349 9.85749 23.0491Z" fill="#F1AD33"/>
</svg>
