<svg width="37" height="37" viewBox="0 0 37 37" fill="none" xmlns="http://www.w3.org/2000/svg">
<path d="M34.6348 33.5089H32.1525V12.3345C32.1525 11.5872 31.656 11.089 30.9113 11.089C30.6631 11.089 30.539 11.089 30.4149 11.2135L25.4504 13.7046C24.9539 13.9537 24.7057 14.3274 24.7057 14.8256V33.5089H22.2234V17.3167C22.2234 16.5694 21.727 16.0712 20.9823 16.0712C20.734 16.0712 20.6099 16.0712 20.4858 16.1957L15.5213 18.6868C15.0248 18.9359 14.7766 19.3096 14.7766 19.8078V33.5089H12.2943V22.2989C12.2943 21.5516 11.7979 21.0534 11.0532 21.0534C10.805 21.0534 10.6809 21.0534 10.5567 21.1779L5.5922 23.669C5.09574 23.9181 4.84752 24.2918 4.84752 24.79V33.5089H2.36525C1.62057 33.5089 1.12411 34.0071 1.12411 34.7544C1.12411 35.5018 1.62057 36 2.36525 36H34.6348C35.3794 36 35.8759 35.5018 35.8759 34.7544C35.8759 34.0071 35.3794 33.5089 34.6348 33.5089ZM9.81206 33.5089H7.32979V25.5374L9.81206 24.2918V33.5089ZM19.7411 33.5089H17.2589V20.5552L19.7411 19.3096V33.5089ZM29.6702 33.5089H27.1879V15.573L29.6702 14.3274V33.5089ZM36 2.37011V7.35231C36 8.09964 35.5035 8.59786 34.7589 8.59786C34.6348 8.59786 34.3865 8.59786 34.2624 8.47331C33.766 8.34875 33.3936 7.97509 33.3936 7.35231V5.35943C25.5745 12.4591 15.3972 16.4448 4.7234 16.1957H2.24113C1.49645 16.1957 1 15.573 1 14.9502C1 14.3274 1.62057 13.7046 2.24113 13.7046C13.9078 14.2028 23.4645 10.9644 31.4078 3.74021H29.6702C28.9255 3.74021 28.4291 3.24199 28.4291 2.49466V2.37011V2.24555C28.4291 1.49822 28.9255 1 29.6702 1H34.7589C35.3794 1.12456 36 1.62278 36 2.37011Z" fill="#00479A" stroke="white" stroke-width="0.5"/>
</svg>
