<svg width="325" height="237" viewBox="0 0 325 237" fill="none" xmlns="http://www.w3.org/2000/svg">
<path d="M224.402 171.85V195.828" stroke="#FFB327" stroke-width="8" stroke-linecap="round"/>
<path d="M275.268 150.78L292.223 167.736" stroke="#FFB327" stroke-width="8" stroke-linecap="round"/>
<path d="M296.337 99.9141H320.316" stroke="#FFB327" stroke-width="8" stroke-linecap="round"/>
<path d="M275.268 49.0479L292.223 32.0925" stroke="#FFB327" stroke-width="8" stroke-linecap="round"/>
<path d="M224.402 27.9786V4.00006" stroke="#FFB327" stroke-width="8" stroke-linecap="round"/>
<path d="M173.536 49.0479L156.58 32.0925" stroke="#FFB327" stroke-width="8" stroke-linecap="round"/>
<path d="M152.466 99.9141H128.488" stroke="#FFB327" stroke-width="8" stroke-linecap="round"/>
<path d="M173.536 150.78L156.58 167.736" stroke="#FFB327" stroke-width="8" stroke-linecap="round"/>
<path d="M224.402 139.878C202.33 139.878 184.438 121.986 184.438 99.9143C184.438 77.8426 202.33 59.9501 224.402 59.9501C246.473 59.9501 264.366 77.8426 264.366 99.9143C264.366 121.986 246.473 139.878 224.402 139.878Z" fill="#FFB327"/>
<path d="M3.00002 167.054C3.00002 130.287 32.5735 101.513 68.5414 101.513C76.5342 101.513 83.7277 103.111 90.9213 105.509C93.3192 78.3335 115.699 55.9535 143.674 55.9535C173.248 55.9535 197.226 79.9321 197.226 109.506C197.226 115.9 195.628 122.294 194.029 127.889C196.427 127.09 199.624 127.09 202.022 127.09C231.595 127.09 255.574 151.068 255.574 180.642C255.574 209.416 232.395 233.395 203.62 234.194H66.1435C30.975 230.198 3.00002 202.223 3.00002 167.054Z" fill="#75B2F3" stroke="white" stroke-width="5.2" stroke-linejoin="round"/>
</svg>
