<svg width="39" height="41" viewBox="0 0 39 41" fill="none" xmlns="http://www.w3.org/2000/svg">
<path d="M38.6921 20.6288L17.3467 5.5525C17.3136 5.52762 17.2708 5.52161 17.2336 5.50559C17.1891 5.48214 17.1432 5.45869 17.0945 5.44554C17.0615 5.4381 17.0229 5.44125 16.9885 5.4381C16.944 5.43381 16.8981 5.42065 16.8494 5.4278L5.73109 6.86895V5.45013C6.58516 4.94193 7.16386 4.01075 7.16386 2.92857C7.16386 1.31214 5.87995 0 4.29832 0C2.71668 0 1.43277 1.31039 1.43277 2.92857C1.43277 4.00935 2.01008 4.94342 2.86554 5.4516V38.0714H1.43277C0.63916 38.0714 0 38.7261 0 39.5357C0 40.3454 0.639152 41 1.43277 41H7.16386C7.95611 41 8.59663 40.3454 8.59663 39.5357C8.59663 38.7261 7.95608 38.0714 7.16386 38.0714H5.73109V11.5225L9.50078 19.3667C9.51226 19.393 9.538 19.4004 9.55227 19.4239C9.59956 19.5045 9.65693 19.5703 9.72997 19.6244C9.76159 19.6507 9.79434 19.6667 9.83015 19.6873C9.86037 19.7033 9.88304 19.7267 9.91746 19.7399L34.7388 28.224C34.8132 28.2474 34.8877 28.2577 34.9638 28.2577C35.2232 28.2577 35.4681 28.1141 35.5943 27.8742L38.9126 21.5763C39.0875 21.2497 38.9929 20.8413 38.6921 20.6291L38.6921 20.6288ZM20.1549 9.3157L22.5263 10.9922L17.3826 20.7472L14.6259 19.8043L20.1549 9.3157ZM26.0852 13.5038L28.4549 15.182L24.2769 23.1067L21.5188 22.1624L26.0852 13.5038ZM32.0142 17.693L34.3866 19.3681L31.1744 25.4623L28.4163 24.518L32.0142 17.693ZM15.6476 7.05939L10.1746 17.4441L5.79731 8.33625L15.6476 7.05939Z" fill="#F1AD33"/>
</svg>
