<svg width="25" height="24" viewBox="0 0 25 24" fill="none" xmlns="http://www.w3.org/2000/svg">
<path d="M5.40655 5.42316e-06C5.16193 5.42316e-06 4.92738 0.0967596 4.75436 0.269129C4.58157 0.44128 4.48444 0.67495 4.48444 0.918658V2.30892H3.68841C2.71016 2.30892 1.77198 2.69594 1.08033 3.385C0.388687 4.07406 0 5.00869 0 5.98334V20.3256C0 21.3 0.388687 22.2346 1.08033 22.9237C1.77198 23.6128 2.71011 24 3.68841 24H21.3116C22.2898 24 23.228 23.6128 23.9197 22.9237C24.6113 22.2346 25 21.3 25 20.3256V5.98334C25 5.00874 24.6113 4.07406 23.9197 3.385C23.228 2.69594 22.2899 2.30892 21.3116 2.30892H20.5156V0.918658C20.5156 0.590372 20.34 0.287282 20.0546 0.123027C19.7693 -0.0410091 19.4179 -0.0410091 19.1325 0.123027C18.8472 0.287277 18.6716 0.590361 18.6716 0.918658V2.30892H13.4221V0.918658C13.4221 0.590372 13.2463 0.287282 12.9609 0.123027C12.6758 -0.0410091 12.3241 -0.0410091 12.039 0.123027C11.7537 0.287277 11.5779 0.590361 11.5779 0.918658V2.30892H6.32835V0.918658C6.32835 0.674955 6.23123 0.441285 6.05843 0.269129C5.88542 0.0967651 5.65088 5.42316e-06 5.40647 5.42316e-06H5.40655ZM23.156 20.3258C23.156 20.813 22.9617 21.2803 22.6159 21.6248C22.2699 21.9693 21.801 22.1628 21.3118 22.1628H3.68858C3.19935 22.1628 2.73048 21.9693 2.38444 21.6248C2.03863 21.2803 1.84439 20.8129 1.84439 20.3258V10.3009H23.1558L23.156 20.3258ZM11.5782 4.14575V5.53602C11.5782 5.86409 11.754 6.16739 12.0394 6.33143C12.3245 6.49568 12.6761 6.49568 12.9613 6.33143C13.2466 6.16739 13.4224 5.86409 13.4224 5.53602V4.14575H18.6719V5.53602C18.6719 5.86409 18.8475 6.16739 19.1329 6.33143C19.4182 6.49568 19.7696 6.49568 20.055 6.33143C20.3403 6.16739 20.5159 5.86409 20.5159 5.53602V4.14575H21.3119C21.8012 4.14575 22.27 4.33927 22.6161 4.684C22.9619 5.02852 23.1561 5.49565 23.1561 5.98306V8.46323H1.84476V5.98306C1.84476 5.49565 2.039 5.02853 2.38481 4.684C2.73084 4.33927 3.19972 4.14575 3.68896 4.14575H4.48499V5.53602C4.48499 5.86409 4.66058 6.16739 4.94593 6.33143C5.23128 6.49568 5.58269 6.49568 5.86803 6.33143C6.15338 6.16739 6.32897 5.86409 6.32897 5.53602V4.14575H11.5782Z" fill="#0C6190"/>
</svg>
