<svg width="62" height="56" viewBox="0 0 62 56" fill="none" xmlns="http://www.w3.org/2000/svg">
<path d="M30.6019 10.378L30.43 10.1997V10.4474V18.0953V18.1953H30.53H37.7245H37.8245V18.0953V17.9075V17.8672L37.7965 17.8381L30.6019 10.378ZM37.8216 29.6478V20.2054V20.1054H37.7216H28.5264V10.0532V9.95324H28.4264H2.95748H2.85748V10.0532V50.9359V51.0359H2.95748H31.6808L31.6774 52.8466H1.04727V8.14257H31.016L39.7195 17.1372V28.1012L37.8216 29.6478ZM47.752 44.9969L45.098 42.9419H59.0125H59.1125V42.8419V12.0253V11.9253H59.0125H50.0928V2.25432V2.15432H49.9928H24.4381H24.3381V2.25432V5.91224L22.2811 5.9129V0.1H52.726L61.166 8.7715L61.1665 44.9969H47.752ZM52.3123 2.01337L52.1403 1.83505V2.08279V9.72987V9.82987H52.2403H59.4344H59.5344V9.72987V9.54206V9.5017L59.5063 9.47264L52.3123 2.01337ZM41.9873 11.8697H37.0108L35.4148 10.059H41.9882L41.9873 11.8697ZM41.9999 17.728V15.9173H53.438L53.4375 17.728H41.9999ZM41.9999 23.5862V21.7755H53.438L53.4375 23.5862H41.9999ZM41.9999 29.4468V27.6361H53.438L53.4375 29.4468H41.9999ZM8.75767 20.1048V18.2941H20.3845V20.1048H8.75767ZM8.75707 24.1523H31.8335V25.963H8.75707V24.1523ZM8.75707 30.0096H31.8335V31.8202H8.75707V30.0096ZM8.7584 37.6808V35.8702H28.763L26.1751 37.6808H8.7584Z" fill="#0C6190" stroke="#F7F7F7" stroke-width="0.2"/>
<path d="M38.3716 39.472H37.5216V40.322V42.9629L30.5851 38.2145L37.5216 33.4639V35.7416V36.5916H38.3716H44.8313V39.472H38.3716ZM41.1018 47.9139H41.9518V47.0639V44.4242L48.8911 49.1755L41.9518 53.9254V51.6443V50.7943H41.1018H34.6421V47.9139H41.1018Z" stroke="#0C6190" stroke-width="1.7"/>
</svg>
