<svg width="66" height="43" viewBox="0 0 66 43" fill="none" xmlns="http://www.w3.org/2000/svg">
<mask id="path-1-inside-1_387_157" fill="white">
<path fill-rule="evenodd" clip-rule="evenodd" d="M27.5104 21.709C29.0989 22.5384 30.9041 23.0076 32.8169 23.0076C34.7293 23.0076 36.534 22.5386 38.1223 21.7096C43.1535 24.1569 46.9815 29.9796 48.1639 37.0346C48.316 37.947 48.0621 38.873 47.4664 39.5769C46.8782 40.2719 46.0176 40.671 45.1072 40.671H20.5272C19.6153 40.671 18.7557 40.2724 18.1665 39.5759C17.5713 38.8721 17.3174 37.9461 17.4706 37.0342C18.6538 29.9748 22.4788 24.158 27.5104 21.709ZM25.4862 20.3631C22.9388 18.2515 21.3136 15.0642 21.3136 11.5043C21.3136 5.16095 26.4736 0 32.8169 0C39.1602 0 44.3202 5.16095 44.3202 11.5038C44.3202 15.0643 42.6947 18.2519 40.1469 20.3636C41.7212 21.2914 43.1728 22.5113 44.4633 23.9669C45.578 21.6633 47.1634 19.7837 49.0254 18.5524C47.5821 17.1695 46.6821 15.2237 46.6821 13.0716C46.6821 8.88547 50.088 5.48047 54.2732 5.48047C58.4585 5.48047 61.8643 8.88637 61.8643 13.0716C61.8643 15.2239 60.9644 17.1698 59.5211 18.5526C62.579 20.5764 64.8425 24.3258 65.5824 28.7392C65.7625 29.8163 65.4622 30.9104 64.7583 31.7426C64.0593 32.5697 63.0367 33.0446 61.9535 33.0446L61.9535 33.0446H49.4244C49.7828 34.2156 50.0701 35.4307 50.2797 36.6802C50.5366 38.2157 50.1085 39.7767 49.1038 40.9626C48.107 42.1384 46.6497 42.8155 45.1072 42.8155L45.1072 42.8156H20.5273C18.9837 42.8156 17.527 42.1396 16.5286 40.9612C15.5254 39.7753 15.0973 38.2143 15.3543 36.6788C15.5637 35.4293 15.8509 34.2143 16.2089 33.0436H3.68033C2.59675 33.0436 1.57406 32.5697 0.874058 31.7421C0.171128 30.9104 -0.129206 29.8159 0.0513956 28.7387C0.790835 24.3262 3.05471 20.5762 6.11264 18.5522C4.66939 17.1694 3.76953 15.2236 3.76953 13.0716C3.76953 8.88547 7.17543 5.48047 11.3606 5.48047C15.5459 5.48047 18.9518 8.88637 18.9518 13.0716C18.9518 15.2235 18.0522 17.1691 16.6093 18.5518C18.4711 19.7824 20.0561 21.6611 21.1713 23.9635C22.4612 22.5093 23.9123 21.2905 25.4862 20.3631ZM23.4592 11.5039C23.4592 6.34346 27.657 2.14535 32.8169 2.14535C37.977 2.14535 42.1746 6.34398 42.1746 11.5039C42.1746 16.664 37.977 20.8616 32.8169 20.8616C27.6568 20.8616 23.4592 16.6638 23.4592 11.5039ZM11.3606 20.6636C10.1726 20.6636 9.04749 20.3893 8.04526 19.9006C5.10359 21.423 2.87102 24.8941 2.16774 29.0949C2.09191 29.5484 2.21713 30.0074 2.51247 30.3571C2.80781 30.7068 3.22289 30.8994 3.68036 30.8994H16.9632C17.6938 29.0718 18.6047 27.3809 19.6661 25.8705C18.5835 23.1343 16.7952 20.9981 14.6762 19.9007C13.6739 20.3893 12.5487 20.6636 11.3606 20.6636ZM61.9535 30.8994H48.6694C47.9392 29.0739 47.029 27.3845 45.9687 25.8751C47.0511 23.1372 48.8386 20.9986 50.9583 19.9008C51.9604 20.3893 53.0854 20.6636 54.2732 20.6636C55.4611 20.6636 56.5861 20.3894 57.5882 19.9009C60.53 21.4235 62.7623 24.8948 63.4661 29.0949C63.5424 29.5484 63.4167 30.0079 63.1213 30.3571C62.8255 30.7068 62.4114 30.8994 61.9535 30.8994ZM11.3606 7.62518C8.35832 7.62518 5.91527 10.0682 5.91527 13.0706C5.91527 16.0739 8.35832 18.517 11.3606 18.517C14.363 18.517 16.806 16.0739 16.806 13.0706C16.806 10.0682 14.363 7.62518 11.3606 7.62518ZM48.8279 13.0706C48.8279 10.0682 51.2709 7.62518 54.2732 7.62518C57.2756 7.62518 59.7186 10.0682 59.7186 13.0706C59.7186 16.0739 57.2756 18.517 54.2732 18.517C51.2709 18.517 48.8279 16.0739 48.8279 13.0706Z"/>
</mask>
<path fill-rule="evenodd" clip-rule="evenodd" d="M27.5104 21.709C29.0989 22.5384 30.9041 23.0076 32.8169 23.0076C34.7293 23.0076 36.534 22.5386 38.1223 21.7096C43.1535 24.1569 46.9815 29.9796 48.1639 37.0346C48.316 37.947 48.0621 38.873 47.4664 39.5769C46.8782 40.2719 46.0176 40.671 45.1072 40.671H20.5272C19.6153 40.671 18.7557 40.2724 18.1665 39.5759C17.5713 38.8721 17.3174 37.9461 17.4706 37.0342C18.6538 29.9748 22.4788 24.158 27.5104 21.709ZM25.4862 20.3631C22.9388 18.2515 21.3136 15.0642 21.3136 11.5043C21.3136 5.16095 26.4736 0 32.8169 0C39.1602 0 44.3202 5.16095 44.3202 11.5038C44.3202 15.0643 42.6947 18.2519 40.1469 20.3636C41.7212 21.2914 43.1728 22.5113 44.4633 23.9669C45.578 21.6633 47.1634 19.7837 49.0254 18.5524C47.5821 17.1695 46.6821 15.2237 46.6821 13.0716C46.6821 8.88547 50.088 5.48047 54.2732 5.48047C58.4585 5.48047 61.8643 8.88637 61.8643 13.0716C61.8643 15.2239 60.9644 17.1698 59.5211 18.5526C62.579 20.5764 64.8425 24.3258 65.5824 28.7392C65.7625 29.8163 65.4622 30.9104 64.7583 31.7426C64.0593 32.5697 63.0367 33.0446 61.9535 33.0446L61.9535 33.0446H49.4244C49.7828 34.2156 50.0701 35.4307 50.2797 36.6802C50.5366 38.2157 50.1085 39.7767 49.1038 40.9626C48.107 42.1384 46.6497 42.8155 45.1072 42.8155L45.1072 42.8156H20.5273C18.9837 42.8156 17.527 42.1396 16.5286 40.9612C15.5254 39.7753 15.0973 38.2143 15.3543 36.6788C15.5637 35.4293 15.8509 34.2143 16.2089 33.0436H3.68033C2.59675 33.0436 1.57406 32.5697 0.874058 31.7421C0.171128 30.9104 -0.129206 29.8159 0.0513956 28.7387C0.790835 24.3262 3.05471 20.5762 6.11264 18.5522C4.66939 17.1694 3.76953 15.2236 3.76953 13.0716C3.76953 8.88547 7.17543 5.48047 11.3606 5.48047C15.5459 5.48047 18.9518 8.88637 18.9518 13.0716C18.9518 15.2235 18.0522 17.1691 16.6093 18.5518C18.4711 19.7824 20.0561 21.6611 21.1713 23.9635C22.4612 22.5093 23.9123 21.2905 25.4862 20.3631ZM23.4592 11.5039C23.4592 6.34346 27.657 2.14535 32.8169 2.14535C37.977 2.14535 42.1746 6.34398 42.1746 11.5039C42.1746 16.664 37.977 20.8616 32.8169 20.8616C27.6568 20.8616 23.4592 16.6638 23.4592 11.5039ZM11.3606 20.6636C10.1726 20.6636 9.04749 20.3893 8.04526 19.9006C5.10359 21.423 2.87102 24.8941 2.16774 29.0949C2.09191 29.5484 2.21713 30.0074 2.51247 30.3571C2.80781 30.7068 3.22289 30.8994 3.68036 30.8994H16.9632C17.6938 29.0718 18.6047 27.3809 19.6661 25.8705C18.5835 23.1343 16.7952 20.9981 14.6762 19.9007C13.6739 20.3893 12.5487 20.6636 11.3606 20.6636ZM61.9535 30.8994H48.6694C47.9392 29.0739 47.029 27.3845 45.9687 25.8751C47.0511 23.1372 48.8386 20.9986 50.9583 19.9008C51.9604 20.3893 53.0854 20.6636 54.2732 20.6636C55.4611 20.6636 56.5861 20.3894 57.5882 19.9009C60.53 21.4235 62.7623 24.8948 63.4661 29.0949C63.5424 29.5484 63.4167 30.0079 63.1213 30.3571C62.8255 30.7068 62.4114 30.8994 61.9535 30.8994ZM11.3606 7.62518C8.35832 7.62518 5.91527 10.0682 5.91527 13.0706C5.91527 16.0739 8.35832 18.517 11.3606 18.517C14.363 18.517 16.806 16.0739 16.806 13.0706C16.806 10.0682 14.363 7.62518 11.3606 7.62518ZM48.8279 13.0706C48.8279 10.0682 51.2709 7.62518 54.2732 7.62518C57.2756 7.62518 59.7186 10.0682 59.7186 13.0706C59.7186 16.0739 57.2756 18.517 54.2732 18.517C51.2709 18.517 48.8279 16.0739 48.8279 13.0706Z" fill="#0C6190"/>
<path d="M27.5104 21.709L27.6029 21.5317L27.5135 21.4851L27.4229 21.5292L27.5104 21.709ZM38.1223 21.7096L38.2098 21.5298L38.1192 21.4857L38.0298 21.5323L38.1223 21.7096ZM48.1639 37.0346L48.3612 37.0017L48.3611 37.0016L48.1639 37.0346ZM47.4664 39.5769L47.6191 39.7062L47.6191 39.7061L47.4664 39.5769ZM18.1665 39.5759L18.0138 39.7051L18.0138 39.7051L18.1665 39.5759ZM17.4706 37.0342L17.6678 37.0673L17.6678 37.0672L17.4706 37.0342ZM25.4862 20.3631L25.5878 20.5354L25.8331 20.3908L25.6139 20.2091L25.4862 20.3631ZM40.1469 20.3636L40.0193 20.2096L39.8 20.3913L40.0453 20.5359L40.1469 20.3636ZM44.4633 23.9669L44.3137 24.0996L44.5127 24.324L44.6434 24.054L44.4633 23.9669ZM49.0254 18.5524L49.1357 18.7192L49.3445 18.5812L49.1638 18.408L49.0254 18.5524ZM59.5211 18.5526L59.3827 18.4082L59.2021 18.5813L59.4107 18.7194L59.5211 18.5526ZM65.5824 28.7392L65.7797 28.7063L65.7797 28.7062L65.5824 28.7392ZM64.7583 31.7426L64.6056 31.6134L64.6055 31.6135L64.7583 31.7426ZM61.9535 33.0446L61.8774 33.2296L61.914 33.2446H61.9535V33.0446ZM61.9535 33.0446L62.0296 32.8597L61.993 32.8446H61.9535V33.0446ZM49.4244 33.0446V32.8446H49.1541L49.2332 33.1031L49.4244 33.0446ZM50.2797 36.6802L50.4769 36.6472L50.4769 36.6471L50.2797 36.6802ZM49.1038 40.9626L49.2563 41.0919L49.2564 41.0919L49.1038 40.9626ZM45.1072 42.8155V42.6155H44.8496L44.9134 42.865L45.1072 42.8155ZM45.1072 42.8156V43.0156H45.3648L45.301 42.766L45.1072 42.8156ZM16.5286 40.9612L16.3759 41.0904L16.376 41.0905L16.5286 40.9612ZM15.3543 36.6788L15.157 36.6457L15.157 36.6458L15.3543 36.6788ZM16.2089 33.0436L16.4002 33.1021L16.4792 32.8436H16.2089V33.0436ZM0.874058 31.7421L0.721311 31.8712L0.721355 31.8712L0.874058 31.7421ZM0.0513956 28.7387L0.248642 28.7718L0.248645 28.7718L0.0513956 28.7387ZM6.11264 18.5522L6.22302 18.719L6.43166 18.5809L6.25101 18.4078L6.11264 18.5522ZM16.6093 18.5518L16.4709 18.4074L16.2902 18.5806L16.499 18.7187L16.6093 18.5518ZM21.1713 23.9635L20.9913 24.0507L21.122 24.3205L21.3209 24.0962L21.1713 23.9635ZM8.04526 19.9006L8.13291 19.7208L8.04258 19.6768L7.95333 19.723L8.04526 19.9006ZM2.16774 29.0949L1.97049 29.0619L1.97048 29.062L2.16774 29.0949ZM2.51247 30.3571L2.35967 30.4862L2.35967 30.4862L2.51247 30.3571ZM16.9632 30.8994V31.0994H17.0986L17.1489 30.9736L16.9632 30.8994ZM19.6661 25.8705L19.8297 25.9855L19.8917 25.8973L19.852 25.797L19.6661 25.8705ZM14.6762 19.9007L14.7681 19.7231L14.6789 19.6769L14.5885 19.7209L14.6762 19.9007ZM48.6694 30.8994L48.4837 30.9737L48.534 31.0994H48.6694V30.8994ZM45.9687 25.8751L45.7827 25.8015L45.7431 25.9018L45.8051 25.99L45.9687 25.8751ZM50.9583 19.9008L51.0459 19.7211L50.9556 19.677L50.8663 19.7232L50.9583 19.9008ZM57.5882 19.9009L57.6802 19.7233L57.5909 19.6771L57.5006 19.7211L57.5882 19.9009ZM63.4661 29.0949L63.2688 29.128L63.2689 29.1281L63.4661 29.0949ZM63.1213 30.3571L63.274 30.4863L63.2741 30.4863L63.1213 30.3571ZM32.8169 22.8076C30.9372 22.8076 29.1637 22.3466 27.6029 21.5317L27.4178 21.8863C29.0342 22.7302 30.871 23.2076 32.8169 23.2076V22.8076ZM38.0298 21.5323C36.4693 22.3468 34.6962 22.8076 32.8169 22.8076V23.2076C34.7623 23.2076 36.5988 22.7304 38.2149 21.8869L38.0298 21.5323ZM48.3611 37.0016C47.1713 29.902 43.3147 24.0129 38.2098 21.5298L38.0348 21.8895C42.9922 24.3008 46.7918 30.0571 47.9666 37.0677L48.3611 37.0016ZM47.6191 39.7061C48.2529 38.9572 48.5229 37.9719 48.3612 37.0017L47.9666 37.0675C48.1091 37.9222 47.8713 38.7888 47.3138 39.4477L47.6191 39.7061ZM45.1072 40.871C46.0765 40.871 46.9928 40.446 47.6191 39.7062L47.3138 39.4477C46.7635 40.0978 45.9588 40.471 45.1072 40.471V40.871ZM20.5272 40.871H45.1072V40.471H20.5272V40.871ZM18.0138 39.7051C18.641 40.4465 19.5565 40.871 20.5272 40.871V40.471C19.6741 40.471 18.8704 40.0983 18.3192 39.4468L18.0138 39.7051ZM17.2733 37.001C17.1104 37.9709 17.3806 38.9562 18.0138 39.7051L18.3192 39.4468C17.7621 38.788 17.5244 37.9214 17.6678 37.0673L17.2733 37.001ZM27.4229 21.5292C22.3175 24.014 18.464 29.8972 17.2733 37.0011L17.6678 37.0672C18.8435 30.0523 22.64 24.3019 27.5979 21.8889L27.4229 21.5292ZM25.6139 20.2091C23.1101 18.1337 21.5136 15.002 21.5136 11.5043H21.1136C21.1136 15.1265 22.7674 18.3692 25.3586 20.5171L25.6139 20.2091ZM21.5136 11.5043C21.5136 5.27139 26.584 0.2 32.8169 0.2V-0.2C26.3631 -0.2 21.1136 5.05052 21.1136 11.5043H21.5136ZM32.8169 0.2C39.0498 0.2 44.1202 5.27139 44.1202 11.5038H44.5202C44.5202 5.05051 39.2707 -0.2 32.8169 -0.2V0.2ZM44.1202 11.5038C44.1202 15.0021 42.5234 18.1342 40.0193 20.2096L40.2745 20.5176C42.8661 18.3697 44.5202 15.1266 44.5202 11.5038H44.1202ZM40.0453 20.5359C41.5999 21.4521 43.0357 22.6581 44.3137 24.0996L44.613 23.8342C43.31 22.3645 41.8424 21.1307 40.2484 20.1913L40.0453 20.5359ZM44.6434 24.054C45.7447 21.778 47.3078 19.928 49.1357 18.7192L48.9151 18.3856C47.0191 19.6394 45.4114 21.5485 44.2833 23.8798L44.6434 24.054ZM49.1638 18.408C47.758 17.0611 46.8821 15.1667 46.8821 13.0716H46.4821C46.4821 15.2806 47.4061 17.2779 48.8871 18.6968L49.1638 18.408ZM46.8821 13.0716C46.8821 8.99594 50.1985 5.68047 54.2732 5.68047V5.28047C49.9776 5.28047 46.4821 8.775 46.4821 13.0716H46.8821ZM54.2732 5.68047C58.348 5.68047 61.6643 8.99682 61.6643 13.0716H62.0643C62.0643 8.77591 58.5689 5.28047 54.2732 5.28047V5.68047ZM61.6643 13.0716C61.6643 15.167 60.7885 17.0614 59.3827 18.4082L59.6595 18.697C61.1404 17.2782 62.0643 15.2808 62.0643 13.0716H61.6643ZM59.4107 18.7194C62.4136 20.7068 64.6526 24.4023 65.3852 28.7723L65.7797 28.7062C65.0325 24.2494 62.7443 20.446 59.6315 18.3858L59.4107 18.7194ZM65.3852 28.7722C65.5556 29.7915 65.2715 30.8262 64.6056 31.6134L64.911 31.8717C65.6529 30.9946 65.9695 29.8412 65.7797 28.7063L65.3852 28.7722ZM64.6055 31.6135C63.9446 32.3957 62.9778 32.8446 61.9535 32.8446V33.2446C63.0956 33.2446 64.1741 32.7438 64.911 31.8717L64.6055 31.6135ZM62.0297 32.8597L62.0296 32.8597L61.8773 33.2295L61.8774 33.2296L62.0297 32.8597ZM61.9535 32.8446H49.4244V33.2446H61.9535V32.8446ZM49.2332 33.1031C49.589 34.2657 49.8743 35.4724 50.0824 36.7132L50.4769 36.6471C50.266 35.3891 49.9766 34.1654 49.6157 32.9861L49.2332 33.1031ZM50.0824 36.7132C50.3296 38.1908 49.9178 39.6925 48.9512 40.8333L49.2564 41.0919C50.2993 39.861 50.7435 38.2405 50.4769 36.6472L50.0824 36.7132ZM48.9512 40.8332C47.9923 41.9644 46.5908 42.6155 45.1072 42.6155V43.0155C46.7087 43.0155 48.2217 42.3125 49.2563 41.0919L48.9512 40.8332ZM44.9134 42.865L44.9135 42.8652L45.301 42.766L45.301 42.7659L44.9134 42.865ZM45.1072 42.6156H20.5273V43.0156H45.1072V42.6156ZM20.5273 42.6156C19.0426 42.6156 17.6416 41.9656 16.6812 40.8319L16.376 41.0905C17.4123 42.3137 18.9248 43.0156 20.5273 43.0156V42.6156ZM16.6813 40.832C15.7161 39.6912 15.3043 38.1895 15.5515 36.7118L15.157 36.6458C14.8904 38.2391 15.3346 39.8595 16.3759 41.0904L16.6813 40.832ZM15.5515 36.7119C15.7595 35.4709 16.0447 34.2644 16.4002 33.1021L16.0177 32.9851C15.657 34.1642 15.3679 35.3877 15.157 36.6457L15.5515 36.7119ZM16.2089 32.8436H3.68033V33.2436H16.2089V32.8436ZM3.68033 32.8436C2.65554 32.8436 1.68873 32.3955 1.02676 31.6129L0.721355 31.8712C1.4594 32.7438 2.53796 33.2436 3.68033 33.2436V32.8436ZM1.0268 31.613C0.361881 30.8263 0.0777451 29.7911 0.248642 28.7718L-0.145851 28.7057C-0.336157 29.8407 -0.0196252 30.9946 0.721311 31.8712L1.0268 31.613ZM0.248645 28.7718C0.980804 24.4027 3.22006 20.7066 6.22302 18.719L6.00225 18.3855C2.88937 20.4458 0.600865 24.2497 -0.145854 28.7057L0.248645 28.7718ZM6.25101 18.4078C4.84537 17.061 3.96953 15.1666 3.96953 13.0716H3.56953C3.56953 15.2805 4.49342 17.2777 5.97427 18.6966L6.25101 18.4078ZM3.96953 13.0716C3.96953 8.99594 7.28587 5.68047 11.3606 5.68047V5.28047C7.06499 5.28047 3.56953 8.775 3.56953 13.0716H3.96953ZM11.3606 5.68047C15.4354 5.68047 18.7518 8.99682 18.7518 13.0716H19.1518C19.1518 8.77591 15.6563 5.28047 11.3606 5.28047V5.68047ZM18.7518 13.0716C18.7518 15.1666 17.8762 17.0607 16.4709 18.4074L16.7477 18.6962C18.2282 17.2774 19.1518 15.2804 19.1518 13.0716H18.7518ZM16.499 18.7187C18.3267 19.9267 19.8895 21.7759 20.9913 24.0507L21.3513 23.8763C20.2228 21.5463 18.6154 19.6381 16.7196 18.385L16.499 18.7187ZM21.3209 24.0962C22.5983 22.6561 24.0335 21.4512 25.5878 20.5354L25.3847 20.1908C23.7911 21.1298 22.3241 22.3625 21.0217 23.8308L21.3209 24.0962ZM32.8169 1.94535C27.5465 1.94535 23.2592 6.23303 23.2592 11.5039H23.6592C23.6592 6.4539 27.7674 2.34535 32.8169 2.34535V1.94535ZM42.3746 11.5039C42.3746 6.23354 38.0874 1.94535 32.8169 1.94535V2.34535C37.8665 2.34535 41.9746 6.45441 41.9746 11.5039H42.3746ZM32.8169 21.0616C38.0874 21.0616 42.3746 16.7744 42.3746 11.5039H41.9746C41.9746 16.5535 37.8665 20.6616 32.8169 20.6616V21.0616ZM23.2592 11.5039C23.2592 16.7743 27.5464 21.0616 32.8169 21.0616V20.6616C27.7673 20.6616 23.6592 16.5534 23.6592 11.5039H23.2592ZM7.95761 20.0804C8.98648 20.582 10.1415 20.8636 11.3606 20.8636V20.4636C10.2037 20.4636 9.10849 20.1965 8.13291 19.7208L7.95761 20.0804ZM2.365 29.128C3.06101 24.9705 5.26635 21.564 8.13719 20.0782L7.95333 19.723C4.94083 21.2821 2.68103 24.8176 1.97049 29.0619L2.365 29.128ZM2.66527 30.2281C2.40806 29.9235 2.2988 29.5239 2.36501 29.1279L1.97048 29.062C1.88503 29.573 2.02621 30.0913 2.35967 30.4862L2.66527 30.2281ZM3.68036 30.6994C3.28175 30.6994 2.92259 30.5328 2.66527 30.2281L2.35967 30.4862C2.69304 30.8809 3.16402 31.0994 3.68036 31.0994V30.6994ZM16.9632 30.6994H3.68036V31.0994H16.9632V30.6994ZM19.5024 25.7555C18.4317 27.2792 17.5135 28.9839 16.7775 30.8252L17.1489 30.9736C17.874 29.1597 18.7777 27.4825 19.8297 25.9855L19.5024 25.7555ZM14.5842 20.0783C16.6511 21.1487 18.411 23.2421 19.4801 25.9441L19.852 25.797C18.7559 23.0265 16.9392 20.8475 14.7681 19.7231L14.5842 20.0783ZM11.3606 20.8636C12.5798 20.8636 13.7349 20.582 14.7638 20.0805L14.5885 19.7209C13.6129 20.1965 12.5176 20.4636 11.3606 20.4636V20.8636ZM48.6694 31.0994H61.9535V30.6994H48.6694V31.0994ZM45.8051 25.99C46.856 27.4861 47.759 29.1618 48.4837 30.9737L48.8551 30.8251C48.1195 28.986 47.202 27.2828 46.1324 25.7601L45.8051 25.99ZM50.8663 19.7232C48.6945 20.848 46.8785 23.0295 45.7827 25.8015L46.1547 25.9486C47.2236 23.2448 48.9828 21.1492 51.0503 20.0784L50.8663 19.7232ZM54.2732 20.4636C53.1165 20.4636 52.0214 20.1966 51.0459 19.7211L50.8707 20.0806C51.8994 20.5821 53.0543 20.8636 54.2732 20.8636V20.4636ZM57.5006 19.7211C56.5251 20.1966 55.43 20.4636 54.2732 20.4636V20.8636C55.4922 20.8636 56.6471 20.5821 57.6759 20.0807L57.5006 19.7211ZM63.6633 29.0619C62.9523 24.8184 60.6928 21.2825 57.6802 19.7233L57.4963 20.0785C60.3673 21.5644 62.5723 24.9713 63.2688 29.128L63.6633 29.0619ZM63.2741 30.4863C63.6076 30.0919 63.7494 29.573 63.6633 29.0617L63.2689 29.1281C63.3355 29.5238 63.2258 29.9239 62.9686 30.228L63.2741 30.4863ZM61.9535 31.0994C62.4704 31.0994 62.9403 30.8808 63.274 30.4863L62.9687 30.228C62.7107 30.5329 62.3524 30.6994 61.9535 30.6994V31.0994ZM6.11527 13.0706C6.11527 10.1787 8.46878 7.82518 11.3606 7.82518V7.42518C8.24787 7.42518 5.71527 9.95778 5.71527 13.0706H6.11527ZM11.3606 18.317C8.46881 18.317 6.11527 15.9635 6.11527 13.0706H5.71527C5.71527 16.1843 8.24784 18.717 11.3606 18.717V18.317ZM16.606 13.0706C16.606 15.9635 14.2525 18.317 11.3606 18.317V18.717C14.4734 18.717 17.006 16.1843 17.006 13.0706H16.606ZM11.3606 7.82518C14.2525 7.82518 16.606 10.1787 16.606 13.0706H17.006C17.006 9.95778 14.4734 7.42518 11.3606 7.42518V7.82518ZM54.2732 7.42518C51.1605 7.42518 48.6279 9.95778 48.6279 13.0706H49.0279C49.0279 10.1787 51.3814 7.82518 54.2732 7.82518V7.42518ZM59.9186 13.0706C59.9186 9.95778 57.386 7.42518 54.2732 7.42518V7.82518C57.1651 7.82518 59.5186 10.1787 59.5186 13.0706H59.9186ZM54.2732 18.717C57.386 18.717 59.9186 16.1843 59.9186 13.0706H59.5186C59.5186 15.9635 57.1651 18.317 54.2732 18.317V18.717ZM48.6279 13.0706C48.6279 16.1843 51.1604 18.717 54.2732 18.717V18.317C51.3814 18.317 49.0279 15.9635 49.0279 13.0706H48.6279Z" fill="#F7F7F7" mask="url(#path-1-inside-1_387_157)"/>
</svg>
