<svg width="50" height="60" viewBox="0 0 50 60" fill="none" xmlns="http://www.w3.org/2000/svg">
<path d="M3.15529 33.3329L14.8413 34.4438L5.35253 56.4761C5.17299 56.8794 5.17414 57.3182 5.35599 57.7205C5.53843 58.1229 5.89059 58.4655 6.35533 58.6916C6.75137 58.8917 7.21264 58.9987 7.68489 59C8.30897 58.9982 8.90879 58.8098 9.35909 58.4735L48.2302 29.9454C48.6845 29.6118 48.9582 29.1554 48.9957 28.6703C49.0326 28.1848 48.8311 27.7069 48.4311 27.3333C48.0316 26.9597 47.4641 26.7192 46.8441 26.6603L35.1587 25.5494L44.6474 3.51705C44.8812 2.97485 44.7906 2.38005 44.4003 1.89584C44.0106 1.4112 43.3629 1.08839 42.6349 1.01556C41.9064 0.942731 41.1749 1.12796 40.6409 1.51999L1.76984 30.047C1.31549 30.3806 1.04184 30.8365 1.00431 31.322C0.967365 31.8071 1.16885 32.2855 1.56835 32.6591C1.96785 33.0322 2.53536 33.2732 3.15535 33.3321L3.15529 33.3329ZM41.1544 4.33164L31.7528 26.1614C31.6108 26.4918 31.6668 26.8546 31.9058 27.1496C32.1448 27.4441 32.5414 27.6396 32.9854 27.6814L45.3682 28.8588L8.8456 55.6629L18.2472 33.8332C18.3892 33.5027 18.3332 33.1399 18.0942 32.845C17.8552 32.5505 17.4585 32.3549 17.0146 32.3131L4.63174 31.1357L41.1544 4.33164Z" fill="#0C6190" stroke="#F7F7F7" stroke-width="0.2"/>
</svg>
