<svg width="62" height="61" viewBox="0 0 62 61" fill="none" xmlns="http://www.w3.org/2000/svg">
<path d="M6.91917 17.7812C4.20326 17.7812 1.97559 20.0089 1.97559 22.7248C1.97559 25.4411 4.20326 27.6613 6.91917 27.6613H16.7918C19.5077 27.6613 21.7354 25.4411 21.7354 22.7252C21.7354 20.0093 19.5077 17.7816 16.7918 17.7816L6.91917 17.7812ZM6.91917 19.7572H16.7918C18.4401 19.7572 19.7594 21.0766 19.7594 22.7248C19.7594 24.3732 18.44 25.685 16.7918 25.685L6.91917 25.6855C5.27082 25.6855 3.95153 24.3732 3.95153 22.7253C3.95153 21.0769 5.27093 19.7576 6.91917 19.7576V19.7572Z" fill="#0C6190"/>
<path d="M0.991708 37.5391C0.72978 37.5378 0.47799 37.641 0.29191 37.8257C0.10627 38.0101 0.000880505 38.2614 0 38.5233V59.2671C0.00088186 59.5291 0.106271 59.78 0.29191 59.9647C0.47799 60.1495 0.72978 60.2527 0.991708 60.2514H24.6965V58.2754H1.97607V39.515H24.6965V37.5391L0.991708 37.5391Z" fill="#0C6190"/>
<path d="M60.6503 17.8636C60.2887 17.7044 59.8672 17.7763 59.5783 18.0457L45.4406 31.3018V18.767C45.4428 18.3918 45.232 18.0474 44.896 17.8785C44.5604 17.71 44.1583 17.7462 43.8584 17.9724L24.1058 32.7886C23.8566 32.9764 23.7107 33.271 23.7124 33.5832V59.2635C23.7142 59.8063 24.1538 60.2459 24.6966 60.2477H60.2566C60.7994 60.2459 61.2391 59.8063 61.2409 59.2635V18.767C61.2409 18.3754 61.0093 18.0205 60.6504 17.8631L60.6503 17.8636ZM43.4646 20.7435V33.5842C43.4646 33.978 43.6979 34.3338 44.059 34.4908C44.4202 34.6473 44.8396 34.575 45.127 34.306L59.2648 21.0578V58.2738H25.6882V34.0814L43.4646 20.7435Z" fill="#0C6190"/>
<path d="M34.5762 42.4727C34.3143 42.4718 34.0625 42.575 33.8764 42.7593C33.6907 42.944 33.5858 43.195 33.5845 43.4569V59.2653H35.5604V44.4491H48.4011V59.2653H50.3771L50.3775 43.4569C50.3753 42.9141 49.9357 42.4744 49.3928 42.4727H34.5762Z" fill="#0C6190"/>
<path d="M34.5757 47.4062V49.3822H49.3919V47.4062H34.5757Z" fill="#0C6190"/>
<path d="M34.5757 53.3359V55.3119H49.3919V53.3359H34.5757Z" fill="#0C6190"/>
<path d="M5.92822 26.6719V38.5203H7.90417V26.6719H5.92822Z" fill="#0C6190"/>
<path d="M15.8076 26.6719V38.5203H17.7836V26.6719H15.8076Z" fill="#0C6190"/>
<path d="M36.5524 1.97657C36.5524 3.45955 35.8756 4.17434 35.1233 4.55047C34.3715 4.9266 33.5848 4.93719 33.5848 4.93719H26.6728C24.2317 4.93719 22.9463 6.23673 22.3342 7.45995C21.7226 8.68318 21.7363 9.88078 21.7363 9.88078C21.7363 9.88078 21.7336 10.3261 21.4082 10.8143C21.0828 11.3024 20.3737 11.8571 18.7686 11.8571C16.4324 11.8571 15.151 12.781 14.4887 13.7748C13.8263 14.7679 13.8325 15.801 13.8325 15.801V18.7687H15.8085V15.801C15.8085 15.801 15.8111 15.3557 16.1365 14.8675C16.462 14.3794 17.175 13.8246 18.7686 13.8246C21.1197 13.8246 22.3862 12.9008 23.0485 11.907C23.7108 10.9135 23.7121 9.87987 23.7121 9.87987C23.7121 9.87987 23.7227 9.09365 24.0984 8.34136C24.4746 7.58908 25.1942 6.91223 26.6723 6.91223H33.5847C33.5847 6.91223 34.7819 6.9259 36.0056 6.31429C37.2292 5.70356 38.5288 4.43272 38.5288 1.97656L36.5524 1.97657Z" fill="#0C6190"/>
<path d="M17.7844 0C17.7844 0 17.7782 0.714349 17.3179 1.45114C16.8575 2.18793 15.9346 2.96008 13.8325 2.96008C10.9958 2.96008 9.44457 4.16389 8.67029 5.40258C7.89596 6.64172 7.90479 7.90411 7.90479 7.90411V18.768H9.88073V7.90411C9.88073 7.90411 9.88691 7.18976 10.3473 6.45297C10.8076 5.71614 11.7456 4.93647 13.8326 4.93647C16.686 4.93647 18.2206 3.73966 18.9948 2.50109C19.7691 1.26251 19.7603 0 19.7603 0H17.7844Z" fill="#0C6190"/>
</svg>
