<svg xmlns="http://www.w3.org/2000/svg" width="256" height="215" viewBox="0 0 256 215" xml:space="preserve">
  <path d="M54.216 31.742c0-16.235 12.988-29.327 29.327-29.327 16.235 0 29.327 13.092 29.327 29.327-.105 16.339-13.197 29.326-29.327 29.326-16.235.001-29.327-13.091-29.327-29.326zm161.765 125.781h-53.212v-47.551c0-23.166-20.244-41.89-43.023-41.89H48.419c-25.008 0-46.431 21.67-46.419 43.023v87.177c-.029 9.661 6.794 14.706 13.586 14.718 6.809.012 13.586-5.033 13.586-14.718v-84.913h9.057v99.499h88.31v-99.499h9.057l.092 57.027c-.061 9.882 6.048 14.091 12.362 14.3h67.93c18.526 0 18.526-27.173.001-27.173zm-.798-93.244v7.118h-5.571c1.371-3.67 3.316-6.278 5.571-7.118zm-6.499 27.013h6.499V84.35h-7.427c.088 2.476.398 4.819.928 6.942zm-6.985 2.962c1.989 2.608 4.686 4.731 7.781 6.013-1.194-1.636-2.211-3.669-2.962-6.013h-4.819zm6.013-12.866h7.472v-7.029h-6.499c-.531 2.166-.841 4.554-.973 7.029zm7.471 20.028v-7.118h-5.571c1.371 3.625 3.316 6.278 5.571 7.118zM204.794 84.35h-6.897c.177 2.476.884 4.819 1.945 6.941h5.836a37.173 37.173 0 0 1-.884-6.941zm4.553-18.833c-3.006 1.282-5.659 3.316-7.604 5.88h4.731c.751-2.255 1.724-4.244 2.873-5.88zm-3.669 8.842h-5.792c-1.105 2.122-1.768 4.509-1.989 7.029h6.897a38.65 38.65 0 0 1 .884-7.029zM254 43.942v101.065h-77.324V41.82l69.808-8.356v10.478H254zm-12.865-4.465-37.137 4.465h37.137v-4.465zm-1.636 43.37c0-12.6-10.213-22.857-22.857-22.857-12.6 0-22.857 10.213-22.857 22.857 0 12.6 10.213 22.857 22.857 22.857 12.644-.044 22.857-10.257 22.857-22.857zm-45.669 34.971v9.107h45.669v-9.107H193.83zm24.315-16.402c2.255-.796 4.244-3.448 5.615-7.118h-5.615v7.118zm5.748-1.15c3.095-1.282 5.747-3.36 7.781-6.013h-4.775c-.796 2.344-1.813 4.377-3.006 6.013zm3.758-8.974h5.836a19.319 19.319 0 0 0 1.945-6.941h-6.897c-.089 2.475-.398 4.818-.884 6.941zm-2.034-6.942h-7.472v6.941h6.499c.531-2.122.84-4.465.973-6.941zm-.973-9.991h-6.499v7.029h7.472c-.133-2.475-.442-4.863-.973-7.029zm3.891 7.029h6.897a17.95 17.95 0 0 0-1.989-7.029h-5.792c.53 2.166.795 4.554.884 7.029zm3.05-9.947a19.129 19.129 0 0 0-7.604-5.88c1.149 1.636 2.122 3.625 2.874 5.88h4.73zm-13.44-7.162v7.118h5.615c-1.37-3.67-3.36-6.278-5.615-7.118z"/>
</svg>
