<svg width="37" height="39" viewBox="0 0 37 39" fill="none" xmlns="http://www.w3.org/2000/svg">
<path d="M35.5404 11.6222H21.2973V7.05163C21.2973 6.99042 21.282 6.92894 21.259 6.86399L20.6459 5.49603C20.5769 5.32738 20.4123 5.21619 20.2284 5.21619H12.8147C12.6538 5.21619 12.5081 5.30439 12.4199 5.44231C12.3357 5.58023 12.3279 5.74889 12.4084 5.89055L13.3204 8.58339C13.4008 8.7328 13.558 8.82475 13.7267 8.82475H17.0795V11.6181H1.45599C1.20688 11.6181 1 11.825 1 12.0779V33.8734C1 34.1263 1.20688 34.3332 1.45599 34.3332H2.15332L5.72827 38.1842C5.809 38.2839 5.93542 38.3377 6.06185 38.3377H34.6473C34.9001 38.3377 35.111 38.127 35.111 37.8779V34.3372H35.5403C35.7931 34.3372 36 34.1303 36 33.8774V12.0819C36 11.829 35.7972 11.6222 35.5404 11.6222ZM17.5396 7.91278H14.0066L13.5698 6.13966H19.9374L20.3819 7.15133V11.626H17.9956V8.37281C17.9956 8.11595 17.7925 7.91278 17.5396 7.91278ZM1.9202 12.5416H35.0846V33.421H1.9202V12.5416ZM34.1917 37.4218H6.26179L3.39942 34.337H34.1922L34.1917 37.4218Z" fill="black" stroke="black" stroke-width="0.7"/>
<path d="M7.9826 29.1358H15.5848C15.8183 29.1358 16.0058 28.963 16.0058 28.7478V17.3315C16.0058 17.1164 15.8183 16.9436 15.5848 16.9436H7.9826C7.75261 16.9436 7.56506 17.1164 7.56506 17.3315V28.7478C7.56531 28.963 7.75261 29.1358 7.9826 29.1358V29.1358ZM8.40729 17.7195H15.1642V28.3604H8.40729V17.7195Z" fill="black" stroke="black" stroke-width="0.7"/>
<path d="M4.61168 7.08088C5.16818 7.96515 6.30912 8.42324 7.3419 8.07249C7.67211 8.35311 8.07732 8.50287 8.5019 8.50287C9.54385 8.50287 10.3786 7.66563 10.3786 6.64102C10.3786 5.68207 9.64778 4.88684 8.70482 4.78861C8.39302 4.17125 7.81316 3.72224 7.1389 3.56795C6.90307 2.11332 5.62072 1 4.09294 1C2.39087 1 1 2.37536 1 4.06397C0.999671 5.93041 2.69255 7.44602 4.61168 7.0809V7.08088ZM4.09301 2.11329C5.17276 2.11329 6.04961 2.98813 6.04961 4.06394C6.04961 4.17162 6.08743 4.28843 6.14861 4.37262C6.25715 4.52696 6.43146 4.62517 6.62025 4.62517C7.16261 4.62517 7.65303 4.99487 7.79903 5.51855C7.87434 5.78056 8.12924 5.96296 8.4167 5.92087C8.47327 5.91141 8.5203 5.89738 8.51109 5.88824C8.92616 5.88824 9.26558 6.22042 9.26558 6.63187C9.26558 7.04366 8.92616 7.3755 8.51109 7.3755C8.2141 7.3755 8.0207 7.17907 7.93585 7.06683C7.81317 6.92652 7.64806 6.8518 7.47835 6.8518C7.38889 6.8518 7.29449 6.8704 7.20503 6.91738C6.5025 7.30078 5.6914 6.93141 5.45565 6.23901C5.40861 6.10327 5.30468 5.98646 5.16819 5.92087C5.03136 5.85528 4.87579 5.84615 4.73897 5.89281C4.50775 5.97699 4.30055 6.00962 4.09301 6.00962C3.00862 6.00962 2.13144 5.13478 2.13144 4.06356C2.13144 2.98775 3.00365 2.11325 4.09301 2.11325V2.11329Z" fill="black" stroke="black" stroke-width="0.5"/>
<path d="M29.1358 20.695C29.1358 19.4512 28.6418 18.2588 27.7624 17.3795C26.8831 16.4998 25.6902 16.0057 24.4463 16.0057C23.2028 16.0057 22.0099 16.4997 21.1306 17.3795C20.2513 18.2588 19.7572 19.4513 19.7572 20.695C19.7572 21.9388 20.2512 23.1313 21.1306 24.0105C22.0099 24.8903 23.2028 25.3843 24.4463 25.3843C25.6897 25.3825 26.8812 24.8881 27.7605 24.0088C28.6394 23.13 29.1339 21.938 29.1357 20.6952L29.1358 20.695ZM21.0508 20.695C21.0508 19.7945 21.4086 18.9311 22.0452 18.294C22.6822 17.6575 23.5458 17.2997 24.4463 17.2997C25.3473 17.2997 26.2108 17.6575 26.8474 18.294C27.4845 18.931 27.8423 19.7945 27.8423 20.695C27.8423 21.5955 27.4845 22.459 26.8474 23.096C26.2108 23.7326 25.3473 24.0904 24.4463 24.0904C23.5462 24.089 22.6836 23.7304 22.0474 23.0942C21.4108 22.4577 21.0525 21.5951 21.0507 20.6951L21.0508 20.695Z" fill="black" stroke="black" stroke-width="0.3"/>
<path d="M25.5737 22.5702C25.7274 22.5737 25.8775 22.5339 26.0009 22.4576C26.3403 22.2603 26.424 21.8714 26.1887 21.5876L24.9143 20.0796C24.8113 19.9242 24.634 19.8133 24.4274 19.7731C24.2203 19.7334 24.0028 19.7688 23.8286 19.87C23.6545 19.9717 23.5405 20.1302 23.5144 20.3061C23.4882 20.4824 23.553 20.6592 23.6921 20.7932L24.9592 22.3388C25.1083 22.4929 25.3363 22.5789 25.5737 22.5702Z" fill="black"/>
<line x1="20.6072" y1="28.2857" x2="29.2237" y2="28.2857" stroke="black" stroke-width="1.7" stroke-linecap="round"/>
</svg>
