<svg width="29" height="34" viewBox="0 0 29 34" fill="none" xmlns="http://www.w3.org/2000/svg">
<path d="M26.0256 0H2.97441C1.33846 0 0 1.33846 0 2.97441V28.2564C0 29.8923 1.33846 31.2308 2.97441 31.2308H4.46145V32.7178C4.46145 33.1283 4.79471 33.4613 5.20497 33.4613H9.29483C9.70537 33.4613 10.0384 33.1281 10.0384 32.7178V31.2308H18.9614V32.7178C18.9614 33.1283 19.2946 33.4613 19.7049 33.4613H23.7948C24.2053 33.4613 24.5383 33.1281 24.5383 32.7178V31.2308H26.0253C27.6613 31.2308 28.9997 29.8923 28.9997 28.2564L29 2.97441C29 1.33846 27.6615 0 26.0259 0H26.0256ZM8.55131 31.9742H5.94883V31.2307H8.55131V31.9742ZM23.0512 31.9742H20.4488V31.2307H23.0512V31.9742ZM27.5127 28.2563C27.5127 29.0766 26.8457 29.7433 26.0257 29.7433H2.97448C2.15421 29.7433 1.48744 29.0763 1.48744 28.2563V2.97435C1.48744 2.15408 2.15448 1.48731 2.97448 1.48731H26.0257C26.8459 1.48731 27.5127 2.15434 27.5127 2.97435V28.2563Z" fill="black"/>
<path d="M24.5383 11.1538H18.9614C18.5509 11.1538 18.2179 11.4871 18.2179 11.8973C18.2179 12.3079 18.5511 12.6408 18.9614 12.6408H24.5383C24.9489 12.6408 25.2818 12.3076 25.2818 11.8973C25.2818 11.487 24.9488 11.1538 24.5383 11.1538Z" fill="black"/>
<path d="M24.5383 7.43604H18.9614C18.5509 7.43604 18.2179 7.76929 18.2179 8.17956C18.2179 8.5901 18.5511 8.92308 18.9614 8.92308H24.5383C24.9489 8.92308 25.2818 8.58982 25.2818 8.17956C25.2818 7.76928 24.9488 7.43604 24.5383 7.43604Z" fill="black"/>
<path d="M24.5383 3.71826H18.9614C18.5509 3.71826 18.2179 4.05151 18.2179 4.46178C18.2179 4.87232 18.5511 5.2053 18.9614 5.2053H24.5383C24.9489 5.2053 25.2818 4.87205 25.2818 4.46178C25.2818 4.0515 24.9488 3.71826 24.5383 3.71826Z" fill="black"/>
<path d="M24.5383 14.8718H18.9614C18.5509 14.8718 18.2179 15.2051 18.2179 15.6153C18.2179 16.0259 18.5511 16.3589 18.9614 16.3589H24.5383C24.9489 16.3589 25.2818 16.0256 25.2818 15.6153C25.2818 15.2051 24.9488 14.8718 24.5383 14.8718Z" fill="black"/>
<path d="M24.5383 18.5896H18.9614C18.5509 18.5896 18.2179 18.9229 18.2179 19.3331C18.2179 19.7437 18.5511 20.0766 18.9614 20.0766H24.5383C24.9489 20.0766 25.2818 19.7434 25.2818 19.3331C25.2818 18.9228 24.9488 18.5896 24.5383 18.5896Z" fill="black"/>
<path d="M24.5383 22.3076H18.9614C18.5509 22.3076 18.2179 22.6409 18.2179 23.0511C18.2179 23.4617 18.5511 23.7947 18.9614 23.7947H24.5383C24.9489 23.7947 25.2818 23.4614 25.2818 23.0511C25.2818 22.6409 24.9488 22.3076 24.5383 22.3076Z" fill="black"/>
<path d="M24.5383 26.0254H18.9614C18.5509 26.0254 18.2179 26.3586 18.2179 26.7689C18.2179 27.1795 18.5511 27.5124 18.9614 27.5124H24.5383C24.9489 27.5124 25.2818 27.1792 25.2818 26.7689C25.2818 26.3586 24.9488 26.0254 24.5383 26.0254Z" fill="black"/>
<path d="M9.66672 2.97437C6.38166 2.97437 3.7179 5.6378 3.7179 8.92319C3.7179 12.2082 6.38133 14.872 9.66672 14.872C12.9518 14.872 15.6155 12.2086 15.6155 8.92319C15.6155 5.6378 12.9518 2.97437 9.66672 2.97437V2.97437ZM12.2477 5.29057L10.8929 6.64536C10.5283 6.44825 10.1107 6.33596 9.66672 6.33596C9.22269 6.33596 8.80569 6.44825 8.44053 6.64536L7.08574 5.29057C7.81526 4.77085 8.70484 4.46147 9.66672 4.46147C10.6286 4.46147 11.5185 4.77087 12.2477 5.29057V5.29057ZM8.56707 8.92292C8.56707 8.31658 9.06035 7.82308 9.66692 7.82308C10.2733 7.82308 10.7668 8.31635 10.7668 8.92292C10.7665 9.52953 10.273 10.0228 9.66665 10.0228C9.06031 10.0228 8.56707 9.5295 8.56707 8.92292V8.92292ZM6.03437 6.34195L7.38915 7.69674C7.19205 8.06189 7.07976 8.47943 7.07976 8.92292C7.07976 9.3664 7.19205 9.78396 7.38915 10.1491L6.03437 11.5039C5.51465 10.7747 5.20527 9.88481 5.20527 8.92292C5.20527 7.96131 5.51467 7.07146 6.03437 6.34195ZM7.08574 12.5555L8.44053 11.2008C8.80569 11.3979 9.22269 11.5102 9.66672 11.5102C10.1107 11.5102 10.5278 11.3979 10.8929 11.2008L12.2477 12.5555C11.5185 13.0753 10.6286 13.3846 9.66672 13.3846C8.70484 13.3846 7.81552 13.0752 7.08574 12.5555V12.5555ZM13.2991 11.5039L11.9443 10.1491C12.1414 9.78396 12.2537 9.36695 12.2537 8.92292C12.2537 8.4789 12.1414 8.06189 11.9443 7.69674L13.2991 6.34195C13.8191 7.07146 14.1282 7.96131 14.1282 8.92292C14.1282 9.88481 13.819 10.7747 13.2991 11.5039Z" fill="black"/>
<path d="M9.66672 16.3589C6.38166 16.3589 3.7179 19.0223 3.7179 22.3077C3.7179 25.5928 6.38133 28.2565 9.66672 28.2565C12.9518 28.2565 15.6155 25.5931 15.6155 22.3077C15.6155 19.0227 12.9518 16.3589 9.66672 16.3589V16.3589ZM12.2477 18.6748L10.8929 20.0304C10.5278 19.8338 10.1107 19.7215 9.66672 19.7215C9.22269 19.7215 8.80569 19.8338 8.44053 20.0304L7.08574 18.6748C7.81526 18.1551 8.70484 17.8463 9.66672 17.8463C10.6286 17.8463 11.5185 18.1551 12.2477 18.6748ZM8.56707 22.3077C8.56707 21.7014 9.06035 21.2083 9.66692 21.2083C10.2733 21.2083 10.7668 21.7013 10.7668 22.3077C10.7665 22.9141 10.273 23.4076 9.66665 23.4076C9.06031 23.4076 8.56707 22.914 8.56707 22.3077V22.3077ZM6.03437 19.727L7.38915 21.0821C7.19205 21.4464 7.07976 21.8642 7.07976 22.3082C7.07976 22.7523 7.19205 23.169 7.38915 23.5344L6.03437 24.8895C5.51465 24.1592 5.20527 23.2699 5.20527 22.3077C5.20527 21.3456 5.51467 20.4562 6.03437 19.727V19.727ZM7.08574 25.9406L8.44053 24.585C8.80569 24.7821 9.22322 24.8944 9.66672 24.8944C10.1102 24.8944 10.5278 24.7821 10.8929 24.585L12.2477 25.9406C11.5185 26.4603 10.6286 26.7692 9.66672 26.7692C8.70484 26.7692 7.81526 26.4603 7.08574 25.9406V25.9406ZM13.2991 24.8884L11.9443 23.5334C12.1414 23.169 12.2537 22.7512 12.2537 22.3072C12.2537 21.8632 12.1414 21.4464 11.9443 21.081L13.2991 19.7259C13.8191 20.4562 14.1282 21.3456 14.1282 22.3077C14.1282 23.2699 13.819 24.1592 13.2991 24.8884V24.8884Z" fill="black"/>
</svg>
