<svg width="33" height="37" viewBox="0 0 33 37" fill="none" xmlns="http://www.w3.org/2000/svg">
<path d="M16.4994 33.0047C16.8298 33.0047 17.0979 32.7366 17.0979 32.4062V10.4021H24.5962C25.1404 10.4021 25.5837 10.8453 25.5837 11.3896V32.4062C25.5837 32.7366 25.8518 33.0047 26.1822 33.0047C26.5126 33.0047 26.7807 32.7366 26.7807 32.4062L26.7812 11.3889C26.7812 10.1846 25.8016 9.2041 24.5964 9.2041H16.4994C16.169 9.2041 15.9009 9.47222 15.9009 9.80263V32.4062C15.9009 32.7366 16.169 33.0047 16.4994 33.0047L16.4994 33.0047Z" fill="black" stroke="black" stroke-width="0.3"/>
<path d="M6.81606 33.0047C7.14646 33.0047 7.41458 32.7366 7.41458 32.4062V11.3889C7.41458 10.8446 7.8578 10.4014 8.40208 10.4014H16.4991C16.8295 10.4014 17.0977 10.1333 17.0977 9.80287C17.0977 9.47247 16.8295 9.20435 16.4991 9.20435H8.40208C7.19778 9.20435 6.21727 10.184 6.21727 11.3892V32.4065C6.21727 32.7369 6.48566 33.005 6.81606 33.005L6.81606 33.0047Z" fill="black" stroke="black" stroke-width="0.3"/>
<path d="M1.59799 33.0047H31.4015C31.7319 33.0047 32 32.7366 32 32.4062V3.36575C32 2.06147 30.9385 1 29.6343 1H3.36673C2.0617 1 1.00098 2.06181 1.00098 3.36575L1.00072 32.4062C0.999915 32.7366 1.26803 33.0047 1.59844 33.0047H1.59799ZM2.19652 31.8077V3.36603C2.19652 2.72179 2.721 2.19759 3.36495 2.19759L29.6338 2.19733C30.2781 2.19733 30.8026 2.72181 30.8026 3.36603V31.8077H2.19597L2.19652 31.8077Z" fill="black" stroke="black" stroke-width="0.3"/>
<path d="M8.48369 7.86897H24.5156C24.846 7.86897 25.1141 7.60085 25.1141 7.27044V4.13051C25.1141 3.8001 24.846 3.53198 24.5156 3.53198H8.48369C8.15329 3.53198 7.88516 3.8001 7.88516 4.13051V7.27017C7.88516 7.60084 8.15329 7.86896 8.48369 7.86896V7.86897ZM23.9168 6.67166H9.08248L9.08222 4.72931H23.9165L23.9168 6.67166Z" fill="black" stroke="black" stroke-width="0.3"/>
<path d="M1.59799 35.8789H31.4015C31.7319 35.8789 32 35.6108 32 35.2804V32.4059C32 32.0755 31.7319 31.8074 31.4015 31.8074C31.0711 31.8074 30.8029 32.0755 30.8029 32.4059V34.6819H2.19705V32.4059C2.19705 32.0755 1.92893 31.8074 1.59853 31.8074C1.26812 31.8074 1 32.0755 1 32.4059V35.2804C0.999734 35.6108 1.26786 35.8789 1.59826 35.8789H1.59799Z" fill="black" stroke="black" stroke-width="0.3"/>
<path d="M18.6892 20.7025C18.8327 20.7025 18.976 20.6512 19.091 20.5472L21.341 18.5078L23.591 20.5472C23.8364 20.7688 24.2144 20.7511 24.4371 20.5057C24.6587 20.2604 24.641 19.8824 24.3956 19.6597L21.7438 17.2563C21.5153 17.0493 21.168 17.0493 20.9395 17.2563L18.2877 19.6597C18.0423 19.8813 18.0243 20.2604 18.2462 20.5057C18.3638 20.6362 18.5261 20.7025 18.6892 20.7025L18.6892 20.7025Z" fill="black" stroke="black" stroke-width="0.3"/>
<path d="M21.341 25.1069C21.6715 25.1069 21.9396 24.8388 21.9396 24.5084V17.7008C21.9396 17.3704 21.6715 17.1023 21.341 17.1023C21.0106 17.1023 20.7425 17.3704 20.7425 17.7008V24.5084C20.7423 24.8388 21.0104 25.1069 21.341 25.1069Z" fill="black" stroke="black" stroke-width="0.3"/>
<path d="M11.6577 25.1068C11.8021 25.1068 11.9456 25.0555 12.0595 24.9515L14.7113 22.5481C14.9567 22.3265 14.9746 21.9474 14.7527 21.702C14.5311 21.4566 14.1521 21.4387 13.9067 21.6606L11.6567 23.7L9.40665 21.6606C9.16125 21.439 8.78326 21.4566 8.56061 21.702C8.33793 21.9474 8.35664 22.3254 8.60204 22.5481L11.2538 24.9515C11.3699 25.0552 11.5145 25.1068 11.6578 25.1068H11.6577Z" fill="black" stroke="black" stroke-width="0.3"/>
<path d="M11.6577 25.1069C11.9881 25.1069 12.2562 24.8388 12.2562 24.5084V17.7008C12.2562 17.3704 11.9881 17.1023 11.6577 17.1023C11.3273 17.1023 11.0592 17.3704 11.0592 17.7008V24.5084C11.0592 24.8388 11.3273 25.1069 11.6577 25.1069Z" fill="black" stroke="black" stroke-width="0.3"/>
</svg>
