<svg width="39" height="32" viewBox="0 0 39 32" fill="none" xmlns="http://www.w3.org/2000/svg">
<path fill-rule="evenodd" clip-rule="evenodd" d="M28.1837 5.58896C29.6069 7.2636 30.4661 9.43188 30.4661 11.8C30.4661 14.1681 29.6069 16.3366 28.1837 18.011C27.9689 18.2636 28.0003 18.6429 28.252 18.8569C28.5046 19.0712 28.8831 19.0404 29.0979 18.7886C30.6994 16.904 31.6658 14.4638 31.6658 11.7998C31.6658 9.13572 30.6991 6.69555 29.0979 4.81109C28.8831 4.55903 28.5046 4.5285 28.252 4.74278C28 4.95707 27.9689 5.33608 28.1837 5.58867V5.58896Z" fill="black" stroke="black" stroke-width="0.2"/>
<path fill-rule="evenodd" clip-rule="evenodd" d="M10.5012 4.8112C8.89973 6.6958 7.93329 9.13596 7.93329 11.7999C7.93329 14.4639 8.9 16.9042 10.5012 18.7887C10.716 19.0407 11.0945 19.0713 11.3471 18.857C11.5991 18.6427 11.6302 18.2637 11.4154 18.0111C9.99227 16.3365 9.13301 14.1682 9.13301 11.8001C9.13301 9.43199 9.99227 7.26344 11.4154 5.58907C11.6302 5.33649 11.5989 4.95721 11.3471 4.74318C11.0945 4.5289 10.716 4.5597 10.5012 4.81149V4.8112Z" fill="black" stroke="black" stroke-width="0.2"/>
<path fill-rule="evenodd" clip-rule="evenodd" d="M30.8742 3.8002C32.7762 5.9235 33.9331 8.72792 33.9331 11.7997C33.9331 14.8717 32.7762 17.6761 30.8742 19.7992C30.6535 20.0459 30.6744 20.4257 30.9211 20.6464C31.1678 20.8671 31.5476 20.8462 31.7683 20.5995C33.8605 18.2638 35.133 15.1792 35.133 11.7991C35.133 8.41931 33.8604 5.33471 31.7683 2.99871C31.5476 2.75201 31.1677 2.73112 30.9211 2.95183C30.6744 3.17255 30.6535 3.55236 30.8742 3.79903V3.8002Z" fill="black" stroke="black" stroke-width="0.2"/>
<path fill-rule="evenodd" clip-rule="evenodd" d="M7.83139 2.99997C5.73915 5.33564 4.46661 8.4203 4.46661 11.8004C4.46661 15.1802 5.73922 18.2647 7.83139 20.6008C8.0521 20.8474 8.43192 20.8683 8.67858 20.6476C8.92528 20.4269 8.94617 20.0471 8.72546 19.8004C6.82344 17.6771 5.66658 14.8727 5.66658 11.801C5.66658 8.72891 6.82344 5.92449 8.72546 3.80147C8.94617 3.55477 8.92528 3.17496 8.67858 2.95428C8.43188 2.73356 8.05207 2.75445 7.83139 3.00115V2.99997Z" fill="black" stroke="black" stroke-width="0.2"/>
<path fill-rule="evenodd" clip-rule="evenodd" d="M33.5542 2.00796C35.9397 4.57779 37.3995 8.01998 37.3995 11.7999C37.3995 15.5798 35.9397 19.0218 33.5542 21.5918C33.3287 21.8342 33.3431 22.214 33.5853 22.4395C33.8282 22.6645 34.208 22.6506 34.4336 22.4077C37.0183 19.6236 38.5992 15.8948 38.5992 11.7998C38.5992 7.7047 37.0176 3.97582 34.4336 1.19184C34.208 0.94889 33.8282 0.934964 33.5853 1.15996C33.3429 1.3855 33.3284 1.76531 33.5542 2.0077V2.00796Z" fill="black" stroke="black" stroke-width="0.2"/>
<path fill-rule="evenodd" clip-rule="evenodd" d="M5.16568 1.19207C2.58138 3.97619 1 7.70493 1 11.8C1 15.895 2.5809 19.6239 5.16568 22.4079C5.39122 22.6509 5.77103 22.6648 6.01397 22.4398C6.25638 22.2142 6.27085 21.8344 6.04504 21.592C3.65953 19.0217 2.19972 15.58 2.19972 11.8001C2.19972 8.02021 3.65953 4.57823 6.04504 2.00819C6.27058 1.76578 6.25611 1.38596 6.01397 1.16045C5.77103 0.935453 5.39121 0.94938 5.16568 1.19232V1.19207Z" fill="black" stroke="black" stroke-width="0.2"/>
<path fill-rule="evenodd" clip-rule="evenodd" d="M16.1998 22.7023V21.7975C16.1998 21.3751 16.0509 20.9667 15.7788 20.6407C13.6579 18.0864 11.3999 14.4318 11.3999 11.7998C11.3999 7.16383 15.1638 3.3999 19.7998 3.3999C24.4358 3.3999 28.1998 7.16383 28.1998 11.7998C28.1998 14.4321 25.942 18.0867 23.8204 20.6427C23.5493 20.966 23.4009 21.3748 23.4009 21.7977C23.4004 22.0833 23.4004 22.4031 23.4004 22.7021C24.0994 22.9493 24.5998 23.616 24.5998 24.3995C24.5998 24.8602 24.4265 25.2809 24.1415 25.5995C24.4265 25.9179 24.5998 26.3387 24.5998 26.7994C24.5998 27.7937 23.7941 28.5994 22.7998 28.5994V29.1994C22.7998 30.1937 21.9941 30.9994 20.9998 30.9994H18.5998C17.6056 30.9994 16.7999 30.1937 16.7999 29.1994V28.5994C15.8056 28.5994 14.9999 27.7937 14.9999 26.7994C14.9999 26.3387 15.1732 25.918 15.4582 25.5995C15.1732 25.281 14.9999 24.8602 14.9999 24.3995C14.9999 23.616 15.5008 22.9488 16.1999 22.7021L16.1998 22.7023ZM17.9998 28.5997V29.1997C17.9998 29.5308 18.2688 29.7997 18.5998 29.7997H20.9998C21.3309 29.7997 21.5998 29.5308 21.5998 29.1997V28.5997H17.9998ZM23.3998 26.7997C23.3998 27.1308 23.1309 27.3997 22.7998 27.3997H16.7998C16.4688 27.3997 16.1998 27.1308 16.1998 26.7997C16.1998 26.4687 16.4688 26.1997 16.7998 26.1997H22.7998C23.1309 26.1997 23.3998 26.4687 23.3998 26.7997ZM23.3998 24.3997C23.3998 24.7308 23.1309 24.9997 22.7998 24.9997H16.7998C16.4688 24.9997 16.1998 24.7308 16.1998 24.3997C16.1998 24.0687 16.4688 23.7997 16.7998 23.7997H22.7998C23.1309 23.7997 23.3998 24.0687 23.3998 24.3997ZM22.2003 22.5998C22.2003 22.3308 22.2003 22.0507 22.2009 21.7975C22.2009 21.0936 22.4486 20.4128 22.8987 19.8752C24.8444 17.5298 26.9995 14.2167 26.9995 11.7996C26.9995 7.82567 23.7735 4.59962 19.7996 4.59962C15.8257 4.59962 12.5996 7.82567 12.5996 11.7996C12.5996 14.2156 14.7548 17.5295 16.7 19.8717C17.1519 20.4117 17.3996 21.0934 17.3996 21.7971V22.5993L22.2003 22.5998Z" fill="black" stroke="black" stroke-width="0.2"/>
<path fill-rule="evenodd" clip-rule="evenodd" d="M21.7206 10.3618C22.0219 10.7628 22.2003 11.2613 22.2003 11.8007C22.2003 13.1252 21.1248 14.2007 19.8003 14.2007C18.4758 14.2007 17.4003 13.1252 17.4003 11.8007C17.4003 11.2607 17.579 10.7625 17.8803 10.3613C18.0793 10.0964 18.026 9.72003 17.7614 9.52101C17.4968 9.32199 17.1202 9.3753 16.9214 9.63994C16.4687 10.2418 16.2003 10.9902 16.2003 11.8005C16.2003 13.7874 17.8133 15.4004 19.8003 15.4004C21.7873 15.4004 23.4003 13.7874 23.4003 11.8005C23.4003 10.9905 23.1321 10.2423 22.68 9.64076C22.481 9.37585 22.1046 9.32255 21.84 9.5213C21.5754 9.72004 21.5218 10.0966 21.7205 10.3613L21.7206 10.3618Z" fill="black" stroke="black" stroke-width="0.2"/>
<path fill-rule="evenodd" clip-rule="evenodd" d="M19.1999 8.80019V11.8002C19.1999 12.1312 19.4688 12.4002 19.7999 12.4002C20.131 12.4002 20.3999 12.1312 20.3999 11.8002V8.80019C20.3999 8.46912 20.131 8.2002 19.7999 8.2002C19.4688 8.2002 19.1999 8.46912 19.1999 8.80019Z" fill="black" stroke="black" stroke-width="0.2"/>
<path fill-rule="evenodd" clip-rule="evenodd" d="M35.1242 30.4C35.1242 30.5591 35.061 30.7118 34.9485 30.8243C34.836 30.9368 34.6834 31 34.5243 31C34.1929 31 33.9243 30.7314 33.9243 30.4C33.9243 30.0687 34.1929 29.8 34.5243 29.8C34.6834 29.8 34.836 29.8633 34.9485 29.9758C35.061 30.0883 35.1242 30.2409 35.1242 30.4Z" fill="black" stroke="black" stroke-width="0.2"/>
<path fill-rule="evenodd" clip-rule="evenodd" d="M4.47534 30.4C4.47534 30.5591 4.53856 30.7118 4.65105 30.8243C4.76355 30.9368 4.91623 31 5.07534 31C5.40667 31 5.67533 30.7314 5.67533 30.4C5.67533 30.0687 5.40667 29.8 5.07534 29.8C4.91623 29.8 4.76355 29.8633 4.65105 29.9758C4.53856 30.0883 4.47534 30.2409 4.47534 30.4Z" fill="black" stroke="black" stroke-width="0.2"/>
<path fill-rule="evenodd" clip-rule="evenodd" d="M28.0161 30.9996H30.4161C30.7472 30.9996 31.0161 30.7306 31.0161 30.3996C31.0161 30.0685 30.7472 29.7996 30.4161 29.7996H28.0161C27.6851 29.7996 27.4161 30.0685 27.4161 30.3996C27.4161 30.7306 27.6851 30.9996 28.0161 30.9996Z" fill="black" stroke="black" stroke-width="0.2"/>
<path fill-rule="evenodd" clip-rule="evenodd" d="M11.5836 29.7996H9.18361C8.85255 29.7996 8.58362 30.0685 8.58362 30.3996C8.58362 30.7306 8.85255 30.9996 9.18361 30.9996H11.5836C11.9147 30.9996 12.1836 30.7306 12.1836 30.3996C12.1836 30.0685 11.9147 29.7996 11.5836 29.7996Z" fill="black" stroke="black" stroke-width="0.2"/>
</svg>
