<svg width="33" height="36" viewBox="0 0 33 36" fill="none" xmlns="http://www.w3.org/2000/svg">
<path d="M29.1296 1H3.87037C3.10944 1.00103 2.37981 1.30369 1.84163 1.84163C1.30369 2.37982 1.00105 3.10944 1 3.87037V24.537C1.00077 25.1985 1.22963 25.8395 1.64788 26.352C2.06614 26.8643 2.64841 27.2167 3.2963 27.35V29.1296C3.29706 29.7911 3.52593 30.4321 3.94418 30.9446C4.36243 31.4569 4.94471 31.8093 5.59259 31.9426V34.8704C5.59259 35.0226 5.65307 35.1687 5.76071 35.2763C5.86835 35.3839 6.01443 35.4444 6.16666 35.4444H9.61111C9.76334 35.4444 9.90942 35.3839 10.0171 35.2763C10.1247 35.1687 10.1852 35.0226 10.1852 34.8704V32H14.2037V34.8704C14.2037 35.0226 14.2642 35.1687 14.3718 35.2763C14.4795 35.3839 14.6255 35.4444 14.7778 35.4444H18.2222C18.3744 35.4444 18.5205 35.3839 18.6282 35.2763C18.7358 35.1687 18.7963 35.0226 18.7963 34.8704V32H23.3889V34.8704C23.3889 35.0226 23.4494 35.1687 23.557 35.2763C23.6646 35.3839 23.8107 35.4444 23.963 35.4444H27.4074C27.5596 35.4444 27.7057 35.3839 27.8134 35.2763C27.921 35.1687 27.9815 35.0226 27.9815 34.8704V31.7565C28.4928 31.5336 28.9279 31.166 29.2339 30.6996C29.5397 30.2332 29.7029 29.6876 29.7037 29.1296V27.35C30.3516 27.2167 30.9339 26.8643 31.3521 26.352C31.7704 25.8395 31.9992 25.1985 32 24.537V3.87037C31.999 3.10944 31.6963 2.37981 31.1584 1.84163C30.6202 1.30369 29.8906 1.00105 29.1296 1H29.1296ZM9.03703 34.2963H6.74074V32H9.03703V34.2963ZM17.6481 34.2963H15.3518V32H17.6481V34.2963ZM26.8333 34.2963H24.537V32H26.8333V34.2963ZM28.5555 29.1296C28.5555 29.5863 28.3741 30.0246 28.0512 30.3474C27.7283 30.6703 27.29 30.8518 26.8334 30.8518H6.1667C5.71 30.8518 5.27173 30.6704 4.94887 30.3474C4.62602 30.0245 4.44451 29.5863 4.44451 29.1296V27.4074H28.5556L28.5555 29.1296ZM30.8518 24.537C30.8518 24.9937 30.6704 25.432 30.3475 25.7549C30.0246 26.0777 29.5863 26.2592 29.1297 26.2592H3.8704C3.41371 26.2592 2.97544 26.0778 2.65258 25.7549C2.32972 25.4319 2.14821 24.9937 2.14821 24.537V3.87037C2.14821 3.41368 2.32966 2.9754 2.65258 2.65255C2.9755 2.32969 3.41377 2.14818 3.8704 2.14818H29.1297C29.5863 2.14818 30.0246 2.32963 30.3475 2.65255C30.6703 2.97546 30.8518 3.41373 30.8518 3.87037V24.537Z" fill="black" stroke="black" stroke-width="0.3"/>
<path d="M16.5 3.29626C13.6071 3.29626 10.8328 4.44546 8.78776 6.49107C6.74209 8.53648 5.59296 11.3107 5.59296 14.2033C5.59296 17.096 6.74215 19.8705 8.78776 21.9156C10.8332 23.9613 13.6074 25.1104 16.5 25.1104C19.3926 25.1104 22.1672 23.9612 24.2123 21.9156C26.258 19.8702 27.4071 17.096 27.4071 14.2033C27.4038 11.3115 26.2536 8.53923 24.2087 6.49435C22.1638 4.44946 19.3919 3.29961 16.5 3.29626ZM16.5 23.9629C16.3583 23.9629 16.2204 23.9475 16.0805 23.9417C16.2363 23.8981 16.3668 23.7904 16.4393 23.6454L17.5874 21.3491C17.6761 21.1712 17.6666 20.9601 17.5621 20.7909C17.4578 20.6215 17.273 20.5185 17.0741 20.5185H16.1997L16.9109 18.7389C17.4406 18.6107 17.8794 18.2401 18.0934 17.7389C18.3076 17.2373 18.2725 16.6645 17.9986 16.193C17.7249 15.7217 17.2446 15.4072 16.7031 15.3449C16.1613 15.2827 15.622 15.4797 15.2484 15.8765C14.8747 16.2734 14.7102 16.8235 14.8048 17.3603C14.8996 17.897 15.2423 18.3578 15.7292 18.6028L14.8194 20.8768C14.7476 21.0539 14.7684 21.2551 14.8753 21.4135C14.9821 21.5721 15.1608 21.6669 15.352 21.6667H16.1454L15.413 23.1324C15.3448 23.2685 15.3335 23.4261 15.3815 23.5706C15.4296 23.7152 15.5332 23.8346 15.6695 23.9028C15.7018 23.9135 15.7349 23.9215 15.7687 23.9263C12.3822 23.6267 9.40389 21.5652 7.93111 18.5011C6.45833 15.437 6.70863 11.8235 8.59001 8.99182C10.4717 6.16016 13.7057 4.52914 17.1014 4.69959C20.4972 4.87027 23.5515 6.81723 25.1397 9.82321C26.7279 12.8291 26.6149 16.4497 24.8425 19.3509C23.07 22.252 19.8997 24.0045 16.5 23.9629ZM16.5 17.6481C16.2678 17.6481 16.0585 17.5082 15.9698 17.2937C15.8809 17.0792 15.9298 16.8324 16.0941 16.6681C16.2584 16.5038 16.5052 16.4549 16.7197 16.5438C16.9342 16.6325 17.0741 16.8418 17.0741 17.074C17.0741 17.2263 17.0136 17.3724 16.906 17.48C16.7983 17.5876 16.6523 17.6481 16.5 17.6481Z" fill="black" stroke="black" stroke-width="0.3"/>
<path d="M19.7905 9.37842H11.9134C11.6959 9.37842 11.5196 9.48263 11.5196 9.61115V11.0075C11.5196 11.0693 11.5611 11.1285 11.6349 11.1721C11.7088 11.2158 11.809 11.2403 11.9134 11.2403H21.366C21.4704 11.2403 21.5706 11.2158 21.6445 11.1721C21.7183 11.1285 21.7598 11.0693 21.7598 11.0075V9.61115C21.7598 9.54944 21.7183 9.49021 21.6445 9.44658C21.5706 9.40294 21.4704 9.37842 21.366 9.37842H19.7905Z" fill="black" stroke="black" stroke-width="0.3"/>
<path d="M11.0541 14.964C10.4369 14.964 9.84464 15.2092 9.40833 15.6456C8.97203 16.082 8.72675 16.6742 8.72675 17.2913C8.72675 17.9084 8.97195 18.5008 9.40833 18.9371C9.84472 19.3734 10.437 19.6186 11.0541 19.6186C11.6712 19.6186 12.2635 19.3734 12.6998 18.9371C13.1361 18.5007 13.3814 17.9084 13.3814 17.2913C13.3814 16.6742 13.1362 16.0819 12.6998 15.6456C12.2634 15.2093 11.6712 14.964 11.0541 14.964ZM11.0541 18.0672C10.7403 18.0672 10.4573 17.8781 10.3375 17.5882C10.2173 17.2983 10.2835 16.9648 10.5055 16.7428C10.7275 16.5208 11.061 16.4546 11.3509 16.5748C11.6408 16.6946 11.8299 16.9776 11.8299 17.2914C11.8299 17.4971 11.7481 17.6945 11.6027 17.84C11.4572 17.9854 11.2598 18.0672 11.0541 18.0672Z" fill="black" stroke="black" stroke-width="0.3"/>
<path d="M19.8979 17.2913C19.8979 17.9085 20.1432 18.5008 20.5795 18.9371C21.0159 19.3734 21.6082 19.6186 22.2253 19.6186C22.8424 19.6186 23.4347 19.3734 23.871 18.9371C24.3073 18.5007 24.5526 17.9084 24.5526 17.2913C24.5526 16.6742 24.3074 16.0819 23.871 15.6456C23.4346 15.2093 22.8424 14.964 22.2253 14.964C21.6082 14.964 21.0158 15.2092 20.5795 15.6456C20.1432 16.082 19.8979 16.6742 19.8979 17.2913ZM23.0011 17.2913C23.0011 17.6051 22.812 17.8881 22.5221 18.0079C22.2323 18.1281 21.8987 18.0619 21.6767 17.8399C21.4547 17.6179 21.3886 17.2844 21.5088 16.9945C21.6286 16.7046 21.9115 16.5155 22.2253 16.5155C22.431 16.5155 22.6285 16.5973 22.7739 16.7427C22.9194 16.8882 23.0011 17.0856 23.0011 17.2913Z" fill="black" stroke="black" stroke-width="0.3"/>
</svg>
