<svg width="38" height="38" viewBox="0 0 38 38" fill="none" xmlns="http://www.w3.org/2000/svg">
<path d="M12.0331 10.3919V27.8064C12.0331 28.4221 12.2777 29.0127 12.7131 29.4483C13.1487 29.8837 13.7393 30.1283 14.355 30.1283H23.6428C24.2585 30.1283 24.8491 29.8837 25.2847 29.4483C25.7201 29.0127 25.9647 28.4221 25.9647 27.8064V10.3919C25.9647 9.77616 25.7201 9.18554 25.2847 8.74994C24.8491 8.31458 24.2585 8.06995 23.6428 8.06995H14.355C13.7393 8.06995 13.1487 8.31458 12.7131 8.74994C12.2777 9.18556 12.0331 9.77617 12.0331 10.3919ZM14.355 9.23091H23.6428C23.9506 9.23091 24.2461 9.35323 24.4637 9.57091C24.6814 9.78859 24.8037 10.084 24.8037 10.3919H13.194C13.194 10.084 13.3164 9.78859 13.534 9.57091C13.7517 9.35323 14.0472 9.23091 14.355 9.23091ZM13.194 11.5529H24.8037V26.6454H13.194V11.5529ZM24.8037 27.8064C24.8037 28.1143 24.6814 28.4097 24.4637 28.6274C24.2461 28.8451 23.9506 28.9674 23.6428 28.9674H14.355C14.0472 28.9674 13.7517 28.8451 13.534 28.6274C13.3164 28.4097 13.194 28.1143 13.194 27.8064H24.8037Z" fill="black" stroke="black" stroke-width="0.4"/>
<path d="M19.5793 21.1305C19.5793 21.4511 19.3194 21.711 18.9988 21.711C18.6783 21.711 18.4183 21.4511 18.4183 21.1305C18.4183 20.81 18.6783 20.55 18.9988 20.55C19.3194 20.55 19.5793 20.81 19.5793 21.1305Z" fill="black" stroke="black" stroke-width="0.4"/>
<path d="M18.999 15.9069C17.5205 15.9084 16.1308 16.6131 15.2559 17.8051L16.1935 18.49C16.8486 17.5959 17.8906 17.0678 18.999 17.0678C20.1073 17.0678 21.1493 17.5959 21.8044 18.49L22.742 17.8051C21.8671 16.613 20.4774 15.9084 18.999 15.9069V15.9069Z" fill="black" stroke="black" stroke-width="0.4"/>
<path d="M18.9989 18.2289C18.2566 18.2281 17.5591 18.5834 17.1234 19.1843L18.0657 19.8623H18.0654C18.2916 19.5777 18.6353 19.4119 18.9988 19.4119C19.3624 19.4119 19.706 19.5777 19.9322 19.8623L20.8745 19.1843H20.8742C20.4386 18.5834 19.741 18.2281 18.9988 18.2289H18.9989Z" fill="black" stroke="black" stroke-width="0.4"/>
<path d="M34.0914 1.10425C33.3888 1.10321 32.7099 1.35718 32.1807 1.81947C31.6515 2.28153 31.3082 2.92007 31.2146 3.61665C31.1213 4.31297 31.2838 5.01943 31.6725 5.60483L27.2955 9.98181L28.1162 10.8025L32.4932 6.42553C33.259 6.93319 34.2196 7.04851 35.0836 6.73625C35.9476 6.42424 36.6129 5.72143 36.8772 4.84141C37.1415 3.9616 36.9736 3.00874 36.4244 2.27203C35.8753 1.53551 35.0101 1.1025 34.0914 1.10429L34.0914 1.10425ZM34.0914 5.74812C33.6296 5.74812 33.1864 5.56465 32.8599 5.23813C32.5335 4.9116 32.3499 4.46844 32.3499 4.0067C32.3499 3.54497 32.5334 3.10175 32.8599 2.77528C33.1865 2.44882 33.6296 2.26529 34.0914 2.26529C34.5531 2.26529 34.9963 2.44876 35.3228 2.77528C35.6492 3.10181 35.8328 3.54497 35.8328 4.0067C35.8328 4.46844 35.6493 4.91166 35.3228 5.23813C34.9963 5.56459 34.5531 5.74812 34.0914 5.74812Z" fill="black" stroke="black" stroke-width="0.4"/>
<path d="M34.0914 31.2894C33.5226 31.2894 32.9667 31.4579 32.4932 31.773L28.1162 27.396L27.2955 28.2167L31.6725 32.5937C31.1944 33.3185 31.0659 34.2193 31.3224 35.0488C31.5787 35.8784 32.1929 36.5495 32.9965 36.8781C33.8001 37.207 34.7087 37.1585 35.4728 36.7465C36.2371 36.3344 36.7766 35.6018 36.9435 34.7497C37.1106 33.8977 36.8873 33.0158 36.335 32.3457C35.7828 31.6758 34.9595 31.2881 34.0914 31.2894L34.0914 31.2894ZM34.0914 35.9333C33.6296 35.9333 33.1864 35.7498 32.86 35.4233C32.5335 35.0968 32.35 34.6536 32.35 34.1919C32.35 33.7301 32.5334 33.2869 32.86 32.9604C33.1865 32.634 33.6296 32.4504 34.0914 32.4504C34.5531 32.4504 34.9963 32.6339 35.3228 32.9604C35.6493 33.287 35.8328 33.7301 35.8328 34.1919C35.8328 34.6536 35.6493 35.0968 35.3228 35.4233C34.9963 35.7498 34.5531 35.9333 34.0914 35.9333Z" fill="black" stroke="black" stroke-width="0.4"/>
<path d="M32.35 21.4213C32.9325 21.4233 33.4946 21.2067 33.9245 20.8138C34.3547 20.421 34.6214 19.8807 34.6719 19.3005C34.7225 18.7202 34.5527 18.1421 34.1969 17.6811C33.8411 17.2198 33.3248 16.9091 32.7509 16.8109C32.1766 16.7124 31.5865 16.8334 31.0975 17.1498C30.6082 17.4663 30.256 17.955 30.1104 18.5189H27.1256V19.6799H30.1104C30.2387 20.1769 30.5282 20.6172 30.9332 20.9323C31.3385 21.2475 31.8366 21.4195 32.3499 21.4213L32.35 21.4213ZM32.35 17.9384C32.6578 17.9384 32.9533 18.0607 33.171 18.2784C33.3886 18.496 33.5109 18.7915 33.5109 19.0993C33.5109 19.4072 33.3886 19.7026 33.171 19.9203C32.9533 20.138 32.6578 20.2603 32.35 20.2603C32.0421 20.2603 31.7467 20.138 31.529 19.9203C31.3113 19.7026 31.189 19.4072 31.189 19.0993C31.189 18.7915 31.3113 18.496 31.529 18.2784C31.7467 18.0607 32.0421 17.9384 32.35 17.9384Z" fill="black" stroke="black" stroke-width="0.4"/>
<path d="M3.90639 6.90907C4.47521 6.90907 5.03107 6.74062 5.50454 6.4255L9.88153 10.8025L10.7022 9.98178L6.32525 5.6048C6.80337 4.87996 6.9319 3.97918 6.67535 3.14965C6.41905 2.32012 5.80489 1.64895 5.0013 1.32036C4.19771 0.99151 3.2891 1.03997 2.52492 1.45201C1.76067 1.86405 1.22119 2.59666 1.05427 3.44874C0.887128 4.30083 1.11051 5.1827 1.66275 5.85281C2.21498 6.52272 3.03826 6.91035 3.9064 6.90909L3.90639 6.90907ZM3.90639 2.2652C4.36818 2.2652 4.81135 2.44867 5.13781 2.77519C5.46427 3.10172 5.64781 3.54488 5.64781 4.00662C5.64781 4.46835 5.46433 4.91157 5.13781 5.23804C4.81129 5.5645 4.36812 5.74804 3.90639 5.74804C3.44465 5.74804 3.00143 5.56456 2.67497 5.23804C2.3485 4.91151 2.16497 4.46835 2.16497 4.00662C2.16497 3.54488 2.34844 3.10166 2.67497 2.77519C3.00149 2.44873 3.44465 2.2652 3.90639 2.2652V2.2652Z" fill="black" stroke="black" stroke-width="0.4"/>
<path d="M6.80885 34.1918C6.80885 33.623 6.6404 33.0672 6.32528 32.5937L10.7023 28.2167L9.88156 27.396L5.50458 31.773C4.77974 31.2949 3.87896 31.1663 3.04943 31.4229C2.2199 31.6792 1.54873 32.2933 1.22014 33.0969C0.89129 33.9005 0.939746 34.8091 1.35179 35.5733C1.76383 36.3376 2.49644 36.877 3.34852 37.044C4.20061 37.2111 5.08248 36.9877 5.75259 36.4355C6.4225 35.8832 6.81013 35.06 6.80887 34.1918L6.80885 34.1918ZM2.16498 34.1918C2.16498 33.73 2.34845 33.2869 2.67497 32.9604C3.0015 32.634 3.44466 32.4504 3.9064 32.4504C4.36813 32.4504 4.81135 32.6339 5.13782 32.9604C5.46428 33.2869 5.64782 33.7301 5.64782 34.1918C5.64782 34.6536 5.46434 35.0968 5.13782 35.4233C4.81129 35.7497 4.36813 35.9333 3.9064 35.9333C3.44466 35.9333 3.00144 35.7498 2.67497 35.4233C2.34851 35.0967 2.16498 34.6536 2.16498 34.1918Z" fill="black" stroke="black" stroke-width="0.4"/>
<path d="M5.6477 16.7773C5.06515 16.7752 4.50306 16.9919 4.07317 17.3847C3.64298 17.7776 3.37632 18.3179 3.32577 18.8981C3.27522 19.4783 3.44498 20.0565 3.80078 20.5175C4.15659 20.9788 4.67284 21.2895 5.24682 21.3877C5.82108 21.4862 6.41117 21.3651 6.90017 21.0487C7.38943 20.7323 7.74164 20.2435 7.88726 19.6796H10.8721V18.5187H7.88726C7.75898 18.0216 7.46952 17.5813 7.0645 17.2662C6.65919 16.9511 6.16113 16.779 5.64778 16.7772L5.6477 16.7773ZM5.6477 20.2602C5.33984 20.2602 5.04441 20.1379 4.82673 19.9202C4.60906 19.7025 4.48674 19.4071 4.48674 19.0992C4.48674 18.7914 4.60906 18.496 4.82673 18.2783C5.04441 18.0606 5.33984 17.9383 5.6477 17.9383C5.95557 17.9383 6.251 18.0606 6.46867 18.2783C6.68635 18.496 6.80867 18.7914 6.80867 19.0992C6.80867 19.4071 6.68635 19.7025 6.46867 19.9202C6.251 20.1379 5.95557 20.2602 5.6477 20.2602Z" fill="black" stroke="black" stroke-width="0.4"/>
<path d="M18.4183 31.2893V32.5327C17.6824 32.7226 17.0861 33.2609 16.8218 33.9735C16.5575 34.6862 16.6588 35.4831 17.0928 36.1068C17.5269 36.7308 18.2388 37.103 18.9988 37.103C19.7589 37.103 20.4708 36.7308 20.9048 36.1068C21.3389 35.483 21.4402 34.6862 21.1759 33.9735C20.9115 33.2609 20.3152 32.7227 19.5793 32.5327V31.2893H18.4183ZM20.1598 34.7722C20.1598 35.0801 20.0375 35.3755 19.8198 35.5932C19.6021 35.8109 19.3067 35.9332 18.9988 35.9332C18.691 35.9332 18.3955 35.8109 18.1779 35.5932C17.9602 35.3755 17.8379 35.0801 17.8379 34.7722C17.8379 34.4643 17.9602 34.1689 18.1779 33.9512C18.3955 33.7336 18.691 33.6112 18.9988 33.6112C19.3067 33.6112 19.6021 33.7336 19.8198 33.9512C20.0375 34.1689 20.1598 34.4643 20.1598 34.7722Z" fill="black" stroke="black" stroke-width="0.4"/>
<path d="M19.5793 6.90912V5.66576C20.3153 5.47581 20.9116 4.93753 21.1759 4.2249C21.4402 3.51226 21.3389 2.71537 20.9048 2.09164C20.4707 1.46762 19.7589 1.09546 18.9988 1.09546C18.2388 1.09546 17.5269 1.46759 17.0928 2.09164C16.6588 2.71539 16.5575 3.51226 16.8218 4.2249C17.0861 4.93753 17.6824 5.47576 18.4183 5.66576V6.90912H19.5793ZM17.8379 3.42622C17.8379 3.11836 17.9602 2.82293 18.1778 2.60525C18.3955 2.38757 18.691 2.26525 18.9988 2.26525C19.3067 2.26525 19.6021 2.38757 19.8198 2.60525C20.0375 2.82293 20.1598 3.11836 20.1598 3.42622C20.1598 3.73408 20.0375 4.02951 19.8198 4.24719C19.6021 4.46487 19.3067 4.58719 18.9988 4.58719C18.691 4.58719 18.3955 4.46487 18.1778 4.24719C17.9602 4.02951 17.8379 3.73408 17.8379 3.42622Z" fill="black" stroke="black" stroke-width="0.4"/>
</svg>
