<svg width="38" height="32" viewBox="0 0 38 32" fill="none" xmlns="http://www.w3.org/2000/svg">
<path d="M36.8667 8.68571C37.1779 8.38086 37.3333 8 37.3333 7.61913V6.09541C37.3333 5.71454 37.1779 5.33342 36.8667 5.02883C36.5555 4.72372 36.1667 4.57143 35.7779 4.57143H31.8891L31.8888 0.761992C31.8888 0.304849 31.5776 0 31.111 0H27.9998C27.5331 0 27.2219 0.304849 27.2219 0.761992V4.57143H6.99998V1.52372H8.55544V4.87602H10.1109L10.1112 0.761992C10.1112 0.304849 9.79997 0 9.3333 0H6.22211C5.75545 0 5.44451 0.304849 5.44451 0.761992V4.57143H1.55546C1.16666 4.57143 0.777864 4.72372 0.466665 5.02857C0.155466 5.33342 0 5.71429 0 6.09515V7.61888C0 7.99974 0.155466 8.38087 0.466665 8.68546C0.777864 8.99056 1.16666 9.14286 1.55546 9.14286V27.4286C1.16666 27.4286 0.777597 27.5809 0.466665 27.8857C0.155466 28.1906 0 28.5714 0 28.9523V30.476C0 30.8569 0.155466 31.238 0.466665 31.5426C0.777864 31.8477 1.16666 32 1.55546 32H35.7773C36.1661 32 36.5552 31.8477 36.8661 31.5429C37.1776 31.238 37.3331 30.8571 37.3331 30.4763V28.9526C37.3331 28.5717 37.1776 28.1906 36.8664 27.886C36.5552 27.5809 36.1664 27.4286 35.7776 27.4286V9.14286C36.1664 9.14286 36.5555 8.99056 36.8667 8.68571ZM28.778 1.52359H30.3335V4.57129H28.778V1.52359ZM34.2223 27.4286H5.13372V28.9523H35.7783V30.476L1.55573 30.4763V28.9526H5.44451V27.4288L3.11146 27.4286V9.14286H32.2V7.61913H1.55546V6.09541H35.7773V7.61913H31.8886V9.14286H34.2219L34.2223 27.4286ZM8.5557 12.1906H10.1112V13.7143H8.5557V15.238H7.00024V13.7143H5.44478V12.1906H7.00024V10.6668H8.5557V12.1906ZM27.2223 12.1906H31.889V13.7143H27.2223V12.1906Z" fill="black"/>
<path d="M19.2487 24.0838C19.2487 24.5254 18.8907 24.8834 18.4491 24.8834C18.0075 24.8834 17.6495 24.5254 17.6495 24.0838C17.6495 23.6422 18.0075 23.2842 18.4491 23.2842C18.8907 23.2842 19.2487 23.6422 19.2487 24.0838Z" fill="black"/>
<path d="M13.3334 17.2464C14.6376 15.9281 16.4478 15.1111 18.4488 15.1111C20.4663 15.1111 22.2898 15.9414 23.5964 17.279" stroke="black" stroke-width="1.8" stroke-miterlimit="10" stroke-linecap="square"/>
<path d="M15.0301 19.8308C15.9001 18.9467 17.1106 18.3987 18.449 18.3987C19.804 18.3987 21.0277 18.9607 21.9 19.8639" stroke="black" stroke-width="1.8" stroke-miterlimit="10" stroke-linecap="square"/>
<path d="M16.726 22.4159C17.162 21.9657 17.7729 21.6858 18.449 21.6858C19.1418 21.6858 19.7658 21.9796 20.2036 22.4491" stroke="black" stroke-width="1.8" stroke-miterlimit="10" stroke-linecap="square"/>
</svg>
