<svg width="51" height="51" viewBox="0 0 51 51" fill="none" xmlns="http://www.w3.org/2000/svg">
<circle cx="25.5" cy="25.5" r="25.5" fill="#810180"/>
<path d="M14.9946 13.1607L11.038 20.4164C11.014 20.4597 11.0006 20.5088 11 20.5582V22.0698C11 23.4232 11.8959 24.5753 13.1304 24.9608V38.6976C13.1304 38.856 13.2754 38.9998 13.4348 39H36.5652C36.7246 39 36.8696 38.856 36.8696 38.6976V24.9608C38.1041 24.5755 39 23.4233 39 22.0698V20.5582C38.9992 20.5088 38.986 20.4597 38.962 20.4164L35.0054 13.1607C34.9543 13.065 34.8481 13.0011 34.7392 13H15.261C15.1273 13.0042 15.0457 13.0791 14.9948 13.1607H14.9946ZM15.4417 13.6048H18.7989L16.5638 20.2559H11.818L15.4417 13.6048ZM19.4362 13.6048H22.8317L21.9949 20.2559H17.2014L19.4362 13.6048ZM23.4403 13.6048H26.5598L27.3966 20.2559H22.6032L23.4403 13.6048ZM27.1687 13.6048H30.5642L32.7992 20.2559H28.0058L27.1687 13.6048ZM31.2012 13.6048H34.5585L38.1822 20.2559H33.4363L31.2012 13.6048ZM11.6089 20.8606H16.4786V22.0698C16.4786 23.415 15.398 24.4884 14.0437 24.4884C12.6895 24.4884 11.6089 23.415 11.6089 22.0698V20.8606ZM17.0871 20.8606H21.9568V22.0698C21.9568 23.415 20.8762 24.4884 19.522 24.4884C18.1677 24.4884 17.0871 23.415 17.0871 22.0698V20.8606ZM22.5654 20.8606H27.4351V22.0698C27.4351 23.415 26.3545 24.4884 25.0002 24.4884C23.646 24.4884 22.5654 23.415 22.5654 22.0698V20.8606ZM28.0436 20.8606H32.9133V22.0698C32.9133 23.415 31.8327 24.4884 30.4785 24.4884C29.1242 24.4884 28.0436 23.415 28.0436 22.0698V20.8606ZM33.5219 20.8606H38.3916V22.0698C38.3916 23.415 37.311 24.4884 35.9567 24.4884C34.6025 24.4884 33.5219 23.415 33.5219 22.0698V20.8606ZM16.7828 23.3832C17.2743 24.3965 18.3139 25.0933 19.5218 25.0933C20.73 25.0933 21.7694 24.3965 22.2608 23.3832C22.7523 24.3965 23.7919 25.0933 24.9998 25.0933C26.208 25.0933 27.2474 24.3965 27.7389 23.3832C28.2303 24.3965 29.2699 25.0933 30.4779 25.0933C31.686 25.0933 32.7254 24.3965 33.2169 23.3832C33.7084 24.3965 34.748 25.0933 35.9559 25.0933C36.0578 25.0933 36.161 25.0935 36.2603 25.0838V38.3952H23.4778V29.0231C23.4778 28.8648 23.3328 28.7207 23.1733 28.7207H17.0864C16.927 28.7207 16.782 28.8648 16.782 29.0231V38.3952H13.7385V25.0838C13.8378 25.0935 13.941 25.0933 14.0429 25.0933C15.2511 25.0933 16.2905 24.3965 16.7819 23.3832H16.7828ZM26.1888 28.7211C26.0391 28.735 25.9124 28.8742 25.913 29.0235V33.2559C25.913 33.4143 26.058 33.5581 26.2174 33.5583H32.9131C33.0725 33.5583 33.2175 33.4143 33.2175 33.2559V29.0235C33.2175 28.8651 33.0725 28.7211 32.9131 28.7211H26.2174C26.2079 28.7209 26.1983 28.7209 26.189 28.7211H26.1888ZM17.391 29.3257H22.8692V38.3954H17.391V29.3257ZM26.5214 29.3257H32.6083V32.9535H26.5214V29.3257ZM21.6517 33.2559C21.3156 33.2559 21.0431 33.5267 21.0431 33.8605C21.0431 34.1943 21.3157 34.4651 21.6517 34.4651C21.9878 34.4651 22.2603 34.1943 22.2603 33.8605C22.2603 33.5265 21.9878 33.2559 21.6517 33.2559Z" fill="white" stroke="white" stroke-width="0.5"/>
</svg>
