<svg width="30" height="28" viewBox="0 0 30 28" fill="none" xmlns="http://www.w3.org/2000/svg">
<path d="M4.99457 1.1607L1.038 8.41645C1.01401 8.45968 1.00064 8.50881 1 8.55816V10.0698C1 11.4232 1.89587 12.5753 3.13038 12.9608V26.6976C3.13038 26.856 3.27538 26.9998 3.43481 27H26.5652C26.7246 27 26.8696 26.856 26.8696 26.6976V12.9608C28.1041 12.5755 29 11.4233 29 10.0698V8.55816C28.9992 8.50881 28.986 8.45968 28.962 8.41645L25.0054 1.1607C24.9543 1.06496 24.8481 1.00106 24.7392 1H5.261C5.12726 1.00422 5.04573 1.07908 4.99478 1.1607H4.99457ZM5.44166 1.60482H8.79889L6.56384 8.25592H1.81798L5.44166 1.60482ZM9.43622 1.60482H12.8317L11.9949 8.25592H7.20144L9.43622 1.60482ZM13.4403 1.60482H16.5598L17.3966 8.25592H12.6032L13.4403 1.60482ZM17.1687 1.60482H20.5642L22.7992 8.25592H18.0058L17.1687 1.60482ZM21.2012 1.60482H24.5585L28.1822 8.25592H23.4363L21.2012 1.60482ZM1.6089 8.86057H6.47856V10.0698C6.47856 11.415 5.39797 12.4884 4.04373 12.4884C2.6895 12.4884 1.6089 11.415 1.6089 10.0698V8.86057ZM7.08715 8.86057H11.9568V10.0698C11.9568 11.415 10.8762 12.4884 9.52198 12.4884C8.16775 12.4884 7.08715 11.415 7.08715 10.0698V8.86057ZM12.5654 8.86057H17.4351V10.0698C17.4351 11.415 16.3545 12.4884 15.0002 12.4884C13.646 12.4884 12.5654 11.415 12.5654 10.0698V8.86057ZM18.0436 8.86057H22.9133V10.0698C22.9133 11.415 21.8327 12.4884 20.4785 12.4884C19.1242 12.4884 18.0436 11.415 18.0436 10.0698V8.86057ZM23.5219 8.86057H28.3916V10.0698C28.3916 11.415 27.311 12.4884 25.9567 12.4884C24.6025 12.4884 23.5219 11.415 23.5219 10.0698V8.86057ZM6.7828 11.3832C7.27427 12.3965 8.31389 13.0933 9.52182 13.0933C10.73 13.0933 11.7694 12.3965 12.2608 11.3832C12.7523 12.3965 13.7919 13.0933 14.9998 13.0933C16.208 13.0933 17.2474 12.3965 17.7389 11.3832C18.2303 12.3965 19.2699 13.0933 20.4779 13.0933C21.686 13.0933 22.7254 12.3965 23.2169 11.3832C23.7084 12.3965 24.748 13.0933 25.9559 13.0933C26.0578 13.0933 26.161 13.0935 26.2603 13.0838V26.3952H13.4778V17.0231C13.4778 16.8648 13.3328 16.7207 13.1733 16.7207H7.08639C6.92696 16.7207 6.78195 16.8648 6.78195 17.0231V26.3952H3.73848V13.0838C3.83784 13.0935 3.94102 13.0933 4.04292 13.0933C5.25107 13.0933 6.29047 12.3965 6.78193 11.3832H6.7828ZM16.1888 16.7211C16.0391 16.735 15.9124 16.8742 15.913 17.0235V21.2559C15.913 21.4143 16.058 21.5581 16.2174 21.5583H22.9131C23.0725 21.5583 23.2175 21.4143 23.2175 21.2559V17.0235C23.2175 16.8651 23.0725 16.7211 22.9131 16.7211H16.2174C16.2079 16.7209 16.1983 16.7209 16.189 16.7211H16.1888ZM7.39095 17.3257H12.8692V26.3954H7.39095V17.3257ZM16.5214 17.3257H22.6083V20.9535H16.5214V17.3257ZM11.6517 21.2559C11.3156 21.2559 11.0431 21.5267 11.0431 21.8605C11.0431 22.1943 11.3157 22.4651 11.6517 22.4651C11.9878 22.4651 12.2603 22.1943 12.2603 21.8605C12.2603 21.5265 11.9878 21.2559 11.6517 21.2559Z" fill="white" stroke="white" stroke-width="0.5"/>
</svg>
