<svg width="51" height="51" viewBox="0 0 51 51" fill="none" xmlns="http://www.w3.org/2000/svg">
<circle cx="25.5" cy="25.5" r="25.5" fill="#047D85"/>
<path d="M39.9998 26C39.9998 22.0217 38.4194 18.2064 35.6063 15.3935C32.7932 12.5804 28.9781 11 24.9999 11C21.0217 11 17.2064 12.5804 14.3934 15.3935C11.5803 18.2066 10 22.0218 10 26C10 29.9782 11.5803 33.7936 14.3934 36.6065C17.2065 39.4196 21.0217 41 24.9999 41C28.9766 40.9955 32.7896 39.414 35.6018 36.6017C38.4136 33.7895 39.9955 29.977 40 25.9998L39.9998 26ZM38.0325 21.8863C37.4117 21.8559 36.7915 21.9601 36.2147 22.1914C36.1251 22.2211 36.0174 22.2568 35.9266 22.2842C35.4329 21.8381 34.7989 21.5783 34.1341 21.5491C33.6278 21.5226 33.1389 21.7351 32.8127 22.1232C32.4865 22.511 32.3615 23.0295 32.4746 23.5235C32.5255 23.7101 32.5981 23.8902 32.6909 24.0601C32.7159 24.111 32.749 24.1771 32.7781 24.2408C32.6049 24.2655 32.4281 24.242 32.2674 24.1726C32.0951 23.9732 31.8692 23.8271 31.6165 23.7518C31.3641 23.6762 31.0951 23.6741 30.8415 23.7462C30.6272 23.8262 30.4409 23.9679 30.3067 24.1533C30.1725 24.3387 30.0957 24.5599 30.0865 24.7884C30.0022 25.5992 30.257 26.4084 30.7909 27.0242C31.201 27.4396 31.7124 27.7414 32.2746 27.8998C32.2389 27.9599 32.2028 28.0206 32.1671 28.0813C32.0698 28.2468 31.9722 28.4134 31.8671 28.5682C31.7377 28.7596 31.5915 28.9471 31.4368 29.1453V29.1456C31.0258 29.6206 30.6948 30.1596 30.4576 30.7411C30.293 31.2542 30.1992 31.7872 30.1784 32.3256C30.1608 32.6673 30.1153 33.0069 30.0424 33.3411C29.9415 33.6381 29.7781 33.9102 29.5632 34.1388C29.1457 34.6197 28.6683 35.045 28.1424 35.4045C27.8621 35.6093 27.4841 35.8063 27.271 35.584V35.5837C26.8924 35.1447 26.6427 34.6096 26.5486 34.0375C26.4983 33.748 26.4728 33.4545 26.4722 33.1607C26.4778 32.6837 26.4153 32.2081 26.2858 31.7488C26.2266 31.5771 26.1534 31.4105 26.0668 31.2509C25.9829 31.1256 25.9302 30.9819 25.9138 30.8319C26.0204 29.7485 25.6156 29.1351 25.2576 28.8113C24.3761 28.0133 22.9978 28.2036 22.6921 28.258C22.215 28.2905 21.8103 28.0988 21.2603 27.8393L21.1198 27.7732C20.2998 27.3899 19.9995 26.7151 20.1162 25.5176H20.1159C20.193 24.9128 20.4457 24.3435 20.8424 23.8804C21.2394 23.4173 21.7632 23.0807 22.3495 22.9119C23.4534 22.6283 24.5442 22.9125 25.8549 23.3125H25.8546C26.5927 23.4592 27.3429 23.536 28.0956 23.5417L28.1694 23.5452C28.7784 23.6211 29.3924 23.447 29.8709 23.0628C30.1412 22.8256 30.3105 22.4941 30.3444 22.1363C30.4343 21.4402 30.2141 20.7396 29.7418 20.2205C28.8159 19.2628 27.1126 19.327 25.745 19.3771C25.287 19.4068 24.8272 19.4042 24.3694 19.3696C24.3867 19.3354 24.4084 19.2955 24.4361 19.2491C24.4816 19.2176 24.5769 19.1681 24.6423 19.1339H24.6426C24.8632 19.0351 25.0629 18.8949 25.2301 18.7208C25.5766 18.2425 25.7641 17.6679 25.767 17.0777L25.7676 17.0726C25.7959 16.8473 26.7503 16.6313 27.7215 16.7095C27.7367 16.7107 27.7522 16.7116 27.7677 16.7119V16.7116C28.2078 16.7345 28.6314 16.5399 28.9004 16.1908C29.3688 15.5455 29.1111 14.5937 29.0266 14.333H29.0269C28.9882 14.0997 29.0203 13.8598 29.1191 13.6446C29.2176 13.4294 29.3783 13.2488 29.5804 13.1256C31.5679 13.8375 33.3647 14.9985 34.8304 16.5178C36.2965 18.0374 37.3923 19.8744 38.0324 21.8863L38.0325 21.8863ZM29.0154 22.0241C29.0148 22.0354 29.0142 22.0473 29.013 22.0589H29.0133C29.0124 22.0473 29.0133 22.0357 29.0157 22.0241H29.0154ZM16.5827 15.2446C16.6142 15.4259 16.6383 15.6173 16.6529 15.7321C16.669 15.8571 16.6833 15.9682 16.6976 16.0545H16.6973C16.7848 16.4057 16.788 16.7729 16.7071 17.1256C16.5919 17.461 16.3172 17.7111 15.7883 17.9622C15.6925 18.0074 15.5975 18.0518 15.5032 18.0952V18.0955C14.7699 18.3747 14.1127 18.8226 13.5841 19.4027C13.3148 19.7792 12.9689 20.0949 12.5696 20.3295C13.4829 18.339 14.8589 16.5955 16.5827 15.2446L16.5827 15.2446ZM11.4431 24.2923C11.9404 24.3349 13.005 24.4947 13.0574 25.0807H13.0577C13.0024 25.7599 13.0113 26.4426 13.0851 27.1201C13.2045 28.163 13.9277 28.7825 14.5652 29.3293C15.1667 29.8445 15.5346 30.193 15.5708 30.679H15.5705C15.5622 30.9986 15.4893 31.3135 15.3562 31.6043C15.2598 31.8532 15.1812 32.1085 15.1208 32.3683L15.1104 32.4171C14.9854 32.8728 14.9536 33.3487 15.017 33.8165C15.1116 34.1472 15.0762 34.5013 14.9176 34.8064C14.8357 34.8695 14.7324 34.8983 14.6295 34.8873C13.3842 33.4442 12.4565 31.7549 11.9077 29.9293C11.3586 28.104 11.2006 26.1831 11.4431 24.2924L11.4431 24.2923ZM20.2759 38.8249C21.0268 38.4619 22.1705 38.0633 23.3107 38.2678H23.311C24.1764 38.4392 24.9434 38.9357 25.4538 39.6553C25.3026 39.6604 25.1514 39.6669 24.9991 39.6669C23.3872 39.6684 21.788 39.3833 20.2762 38.8249L20.2759 38.8249ZM26.8601 39.5369C26.8601 39.4041 26.8202 39.2744 26.7458 39.1645C26.0345 38.0134 24.8741 37.2121 23.5455 36.9553C21.3464 36.5625 19.2676 37.8145 18.7568 38.1517L18.7571 38.152C17.6163 37.5633 16.5642 36.8178 15.6306 35.9369C15.7229 35.875 15.8083 35.8035 15.8851 35.7232C16.4916 35.0833 16.4235 34.1056 16.3291 33.58C16.3017 33.2821 16.3303 32.9815 16.4139 32.6943L16.4246 32.6443H16.4249C16.4732 32.4449 16.5348 32.2493 16.6095 32.0583C16.813 31.5925 16.9122 31.0877 16.8997 30.5794C16.8202 29.5059 16.083 28.874 15.4321 28.3163C14.9154 27.8737 14.469 27.4907 14.4091 26.9684H14.4094C14.3443 26.3619 14.3374 25.7503 14.3895 25.1422C14.3919 25.1175 14.3925 25.0925 14.3916 25.0678C14.3547 23.899 13.3475 23.1338 11.6743 22.9734C11.7776 22.519 11.9041 22.0704 12.0535 21.6294C12.1669 21.6654 12.2848 21.6862 12.4041 21.691C12.4211 21.6916 12.4377 21.6919 12.4547 21.6919C13.2961 21.6919 14.0452 20.9287 14.6065 20.2588L14.6062 20.2591C15.0124 19.8344 15.5106 19.5082 16.0624 19.3058C16.1609 19.26 16.2606 19.2141 16.3606 19.1665C17.0945 18.8748 17.6758 18.2939 17.9675 17.5599C18.1285 16.9974 18.1439 16.4031 18.0118 15.8328C17.9999 15.7611 17.9883 15.6689 17.9755 15.5653H17.9752C17.9401 15.1778 17.8639 14.7954 17.7478 14.4239C19.3835 13.3945 21.2201 12.7263 23.135 12.4638C23.1377 12.5447 23.1377 12.6236 23.1374 12.6638L23.1371 12.7498C23.1395 13.1239 23.1308 13.3968 22.9981 13.5066C22.832 13.6197 22.6505 13.7078 22.4588 13.7677C22.3293 13.8168 22.2005 13.8662 22.0773 13.923C21.457 14.1724 20.8877 14.5334 20.3972 14.9879C19.8579 15.5403 19.9055 16.0165 20.0406 16.3186C20.1755 16.6204 20.5115 16.7778 20.8296 16.6886C21.1481 16.599 21.3528 16.2898 21.3108 15.9618C21.3216 15.9502 21.3347 15.9362 21.3504 15.9198C21.7296 15.5865 22.1632 15.3213 22.6323 15.1353C22.7293 15.0906 22.8308 15.0528 22.9323 15.0141H22.9326C23.262 14.9073 23.5709 14.7451 23.8465 14.535C24.4784 14.0135 24.4736 13.2477 24.4703 12.7403L24.4706 12.6733C24.4712 12.5802 24.4712 12.4671 24.4647 12.3471C24.6421 12.3403 24.8197 12.3334 24.9989 12.3334C26.057 12.334 27.1111 12.4579 28.1405 12.7022C27.7143 13.2632 27.5655 13.9876 27.7358 14.6716C27.7399 14.6891 27.7459 14.7094 27.7518 14.7269V14.7266C27.8233 14.9356 27.8498 15.1573 27.8292 15.3772C27.8221 15.3778 27.8132 15.3784 27.8036 15.3784C27.2158 15.3323 24.653 15.2305 24.4438 16.9076H24.4453L24.4456 16.9079C24.4402 16.9409 24.4366 16.9742 24.4349 17.0076C24.4474 17.2954 24.3789 17.5808 24.2375 17.8317C24.17 17.8757 24.0995 17.9156 24.0268 17.951C23.7453 18.0698 23.5018 18.2638 23.3233 18.512C23.1804 18.7433 22.7456 19.4469 23.1123 20.0772C23.5292 20.7939 24.528 20.7558 25.7932 20.71C26.8971 20.6683 28.2694 20.6174 28.782 21.1472H28.7823C28.9888 21.3873 29.0745 21.7091 29.0153 22.0204C28.9825 22.1153 28.7525 22.2379 28.2376 22.2141L28.1614 22.2103C27.5186 22.2073 26.8769 22.1496 26.2439 22.0377C25.0531 21.674 23.5707 21.2219 22.0174 21.6204H22.0171C21.1659 21.8573 20.4043 22.3418 19.8293 23.0129C19.2543 23.6838 18.892 24.5105 18.7882 25.3883C18.6171 27.1445 19.2111 28.3531 20.5534 28.9811L20.6909 29.0457V29.0454C21.3397 29.4207 22.0804 29.6076 22.8295 29.585C22.8551 29.5829 22.8804 29.5793 22.9054 29.5746C23.1646 29.5252 23.9885 29.4597 24.3641 29.8016C24.5754 30.0502 24.6575 30.3832 24.5861 30.7014C24.5653 31.1076 24.6674 31.5106 24.8793 31.858C24.9323 31.955 24.9781 32.0559 25.0165 32.1595C25.1037 32.5011 25.1448 32.8526 25.1385 33.205C25.1406 33.5776 25.1757 33.9491 25.2439 34.3154C25.387 35.1309 25.7558 35.8901 26.3082 36.5071C26.6114 36.836 27.0385 37.0226 27.4858 37.0214C28.0111 36.9985 28.5156 36.8098 28.9269 36.4821C29.5489 36.0542 30.1123 35.547 30.6028 34.9729C30.9406 34.5964 31.1906 34.1496 31.3349 33.6651C31.4266 33.2601 31.484 32.8484 31.5063 32.4339C31.5206 32.013 31.5897 31.5958 31.7111 31.1928C31.9046 30.7461 32.1665 30.3321 32.4873 29.9658C32.6489 29.7586 32.8159 29.5446 32.9701 29.3166C33.0903 29.1393 33.2034 28.9482 33.315 28.7586C33.3683 28.6678 33.4216 28.5774 33.4754 28.4893V28.4896C33.7186 28.1806 33.8082 27.778 33.7195 27.3949C33.6165 27.1065 33.387 26.8812 33.0966 26.7839C32.9832 26.739 32.868 26.6973 32.7534 26.6559C32.3939 26.5637 32.062 26.386 31.7859 26.1378C31.5588 25.8747 31.4272 25.5425 31.4121 25.1952C31.8644 25.5169 32.4255 25.647 32.9733 25.5577C33.4373 25.5184 33.8516 25.2515 34.0787 24.8446C34.3248 24.3574 34.0707 23.844 33.8853 23.469C33.8451 23.3883 33.7847 23.2663 33.7737 23.2294C33.7534 23.1404 33.7763 23.0473 33.8356 22.9779C33.8909 22.9118 33.9743 22.8758 34.0603 22.8809C34.4403 22.8848 34.8028 23.0431 35.0641 23.3193C35.4493 23.8511 36.079 23.6416 36.6344 23.4571C37.1031 23.3011 37.7454 23.0886 38.0983 23.2729C38.3106 23.4208 38.4558 23.6467 38.5019 23.9014C38.5031 23.905 38.5049 23.908 38.5061 23.9116C38.8754 26.308 38.6007 28.7592 37.7106 31.0146C36.8201 33.2697 35.346 35.2474 33.4394 36.745C31.5326 38.2426 29.2621 39.2063 26.86 39.537L26.8601 39.5369Z" fill="white"/>
</svg>
