<svg width="30" height="30" viewBox="0 0 30 30" fill="none" xmlns="http://www.w3.org/2000/svg">
<path d="M29.9998 15C29.9998 11.0217 28.4194 7.20644 25.6063 4.39347C22.7932 1.58035 18.9781 0 14.9999 0C11.0217 0 7.20638 1.58035 4.39344 4.39347C1.58034 7.20659 0 11.0218 0 15C0 18.9782 1.58034 22.7936 4.39344 25.6065C7.20653 28.4196 11.0217 30 14.9999 30C18.9766 29.9955 22.7896 28.414 25.6018 25.6017C28.4136 22.7895 29.9955 18.977 30 14.9998L29.9998 15ZM28.0325 10.8863C27.4117 10.8559 26.7915 10.9601 26.2147 11.1914C26.1251 11.2211 26.0174 11.2568 25.9266 11.2842C25.4329 10.8381 24.7989 10.5783 24.1341 10.5491C23.6278 10.5226 23.1389 10.7351 22.8127 11.1232C22.4865 11.511 22.3615 12.0295 22.4746 12.5235C22.5255 12.7101 22.5981 12.8902 22.6909 13.0601C22.7159 13.111 22.749 13.1771 22.7781 13.2408C22.6049 13.2655 22.4281 13.242 22.2674 13.1726C22.0951 12.9732 21.8692 12.8271 21.6165 12.7518C21.3641 12.6762 21.0951 12.6741 20.8415 12.7462C20.6272 12.8262 20.4409 12.9679 20.3067 13.1533C20.1725 13.3387 20.0957 13.5599 20.0865 13.7884C20.0022 14.5992 20.257 15.4084 20.7909 16.0242C21.201 16.4396 21.7124 16.7414 22.2746 16.8998C22.2389 16.9599 22.2028 17.0206 22.1671 17.0813C22.0698 17.2468 21.9722 17.4134 21.8671 17.5682C21.7377 17.7596 21.5915 17.9471 21.4368 18.1453V18.1456C21.0258 18.6206 20.6948 19.1596 20.4576 19.7411C20.293 20.2542 20.1992 20.7872 20.1784 21.3256C20.1608 21.6673 20.1153 22.0069 20.0424 22.3411C19.9415 22.6381 19.7781 22.9102 19.5632 23.1388C19.1457 23.6197 18.6683 24.045 18.1424 24.4045C17.8621 24.6093 17.4841 24.8063 17.271 24.584V24.5837C16.8924 24.1447 16.6427 23.6096 16.5486 23.0375C16.4983 22.748 16.4728 22.4545 16.4722 22.1607C16.4778 21.6837 16.4153 21.2081 16.2858 20.7488C16.2266 20.5771 16.1534 20.4105 16.0668 20.2509C15.9829 20.1256 15.9302 19.9819 15.9138 19.8319C16.0204 18.7485 15.6156 18.1351 15.2576 17.8113C14.3761 17.0133 12.9978 17.2036 12.6921 17.258C12.215 17.2905 11.8103 17.0988 11.2603 16.8393L11.1198 16.7732C10.2998 16.3899 9.99955 15.7151 10.1162 14.5176H10.1159C10.193 13.9128 10.4457 13.3435 10.8424 12.8804C11.2394 12.4173 11.7632 12.0807 12.3495 11.9119C13.4534 11.6283 14.5442 11.9125 15.8549 12.3125H15.8546C16.5927 12.4592 17.3429 12.536 18.0956 12.5417L18.1694 12.5452C18.7784 12.6211 19.3924 12.447 19.8709 12.0628C20.1412 11.8256 20.3105 11.4941 20.3444 11.1363C20.4343 10.4402 20.2141 9.7396 19.7418 9.22051C18.8159 8.26279 17.1126 8.32702 15.745 8.37707C15.287 8.40684 14.8272 8.40416 14.3694 8.36963C14.3867 8.33541 14.4084 8.29553 14.4361 8.2491C14.4816 8.21755 14.5769 8.16815 14.6423 8.13392H14.6426C14.8632 8.03511 15.0629 7.89493 15.2301 7.72082C15.5766 7.24255 15.7641 6.66786 15.767 6.07769L15.7676 6.07263C15.7959 5.84733 16.7503 5.63126 17.7215 5.70954C17.7367 5.71073 17.7522 5.71162 17.7677 5.71192V5.71162C18.2078 5.73454 18.6314 5.53989 18.9004 5.19079C19.3688 4.54554 19.1111 3.59375 19.0266 3.33302H19.0269C18.9882 3.09969 19.0203 2.85981 19.1191 2.64462C19.2176 2.42945 19.3783 2.24879 19.5804 2.12557C21.5679 2.83749 23.3647 3.9985 24.8304 5.51782C26.2965 7.03745 27.3923 8.87441 28.0324 10.8863L28.0325 10.8863ZM19.0154 11.0241C19.0148 11.0354 19.0142 11.0473 19.013 11.0589H19.0133C19.0124 11.0473 19.0133 11.0357 19.0157 11.0241H19.0154ZM6.58269 4.24464C6.61424 4.42589 6.63834 4.61726 6.65293 4.73214C6.669 4.85714 6.68328 4.96816 6.69757 5.05446H6.69727C6.78477 5.40566 6.78804 5.77292 6.70709 6.12563C6.59192 6.46105 6.31721 6.71105 5.78831 6.96221C5.69248 7.00745 5.59754 7.05179 5.50319 7.09524V7.09554C4.76986 7.37471 4.11272 7.82263 3.58411 8.40267C3.31477 8.77916 2.96894 9.09493 2.56956 9.32946C3.48293 7.33897 4.85885 5.5955 6.58266 4.24463L6.58269 4.24464ZM1.44312 13.2923C1.94044 13.3349 3.00502 13.4947 3.05744 14.0807H3.05774C3.00238 14.7599 3.01131 15.4426 3.08512 16.1201C3.20446 17.163 3.92771 17.7825 4.56519 18.3293C5.16668 18.8445 5.53456 19.193 5.57083 19.679H5.57053C5.5622 19.9986 5.48928 20.3135 5.35624 20.6043C5.25982 20.8532 5.18124 21.1085 5.12083 21.3683L5.11041 21.4171C4.98542 21.8728 4.95357 22.3487 5.01696 22.8165C5.1116 23.1472 5.07619 23.5013 4.91755 23.8064C4.83571 23.8695 4.73243 23.8983 4.62946 23.8873C3.38421 22.4442 2.45652 20.7549 1.90772 18.9293C1.35861 17.104 1.20058 15.1831 1.44313 13.2924L1.44312 13.2923ZM10.2759 27.8249C11.0268 27.4619 12.1705 27.0633 13.3107 27.2678H13.311C14.1764 27.4392 14.9434 27.9357 15.4538 28.6553C15.3026 28.6604 15.1514 28.6669 14.9991 28.6669C13.3872 28.6684 11.788 28.3833 10.2762 27.8249L10.2759 27.8249ZM16.8601 28.5369C16.8601 28.4041 16.8202 28.2744 16.7458 28.1645C16.0345 27.0134 14.8741 26.2121 13.5455 25.9553C11.3464 25.5625 9.26756 26.8145 8.75678 27.1517L8.75708 27.152C7.61628 26.5633 6.56424 25.8178 5.63061 24.9369C5.72287 24.875 5.80828 24.8035 5.88507 24.7232C6.49161 24.0833 6.42346 23.1056 6.32911 22.58C6.30173 22.2821 6.3303 21.9815 6.41393 21.6943L6.42465 21.6443H6.42495C6.47316 21.4449 6.53477 21.2493 6.60947 21.0583C6.81305 20.5925 6.91215 20.0877 6.89965 19.5794C6.82018 18.5059 6.08297 17.874 5.43207 17.3163C4.91541 16.8737 4.46895 16.4907 4.40914 15.9684H4.40944C4.34426 15.3619 4.33742 14.7503 4.3895 14.1422C4.39188 14.1175 4.39248 14.0925 4.39158 14.0678C4.35468 12.899 3.34755 12.1338 1.67433 11.9734C1.77761 11.519 1.90409 11.0704 2.0535 10.6294C2.1669 10.6654 2.28475 10.6862 2.4041 10.691C2.42106 10.6916 2.43773 10.6919 2.45469 10.6919C3.29606 10.6919 4.04517 9.92874 4.60646 9.25879L4.60616 9.25909C5.01241 8.83439 5.51062 8.50819 6.06239 8.30579C6.1609 8.25996 6.2606 8.21412 6.3606 8.1665C7.09453 7.87484 7.6758 7.29389 7.96746 6.55994C8.12847 5.99744 8.14394 5.40306 8.0118 4.83285C7.9999 4.76112 7.98829 4.66886 7.97549 4.56529H7.9752C7.94008 4.17779 7.86389 3.79538 7.74781 3.42395C9.38354 2.39446 11.2201 1.72634 13.135 1.46379C13.1377 1.54474 13.1377 1.62361 13.1374 1.66379L13.1371 1.7498C13.1395 2.12391 13.1308 2.39683 12.9981 2.50665C12.832 2.61975 12.6505 2.70784 12.4588 2.76766C12.3293 2.81677 12.2005 2.86618 12.0773 2.92303C11.457 3.17243 10.8877 3.53344 10.3972 3.98795C9.85791 4.54033 9.90553 5.01652 10.0406 5.31862C10.1755 5.6204 10.5115 5.77784 10.8296 5.68856C11.1481 5.59898 11.3528 5.28975 11.3108 4.96177C11.3216 4.95016 11.3347 4.93618 11.3504 4.91981C11.7296 4.58647 12.1632 4.32129 12.6323 4.13527C12.7293 4.09063 12.8308 4.05283 12.9323 4.01414H12.9326C13.262 3.9073 13.5709 3.7451 13.8465 3.53497C14.4784 3.01353 14.4736 2.24772 14.4703 1.74029L14.4706 1.67333C14.4712 1.58017 14.4712 1.46708 14.4647 1.34714C14.6421 1.34029 14.8197 1.33345 14.9989 1.33345C16.057 1.33404 17.1111 1.45785 18.1405 1.7022C17.7143 2.26321 17.5655 2.98761 17.7358 3.67158C17.7399 3.68914 17.7459 3.70938 17.7518 3.72694V3.72664C17.8233 3.93557 17.8498 4.15729 17.8292 4.37724C17.8221 4.37784 17.8132 4.37843 17.8036 4.37843C17.2158 4.3323 14.653 4.23051 14.4438 5.90758H14.4453L14.4456 5.90788C14.4402 5.94091 14.4366 5.97425 14.4349 6.00758C14.4474 6.29538 14.3789 6.5808 14.2375 6.83166C14.17 6.87571 14.0995 6.91559 14.0268 6.95101C13.7453 7.06976 13.5018 7.26381 13.3233 7.51203C13.1804 7.74328 12.7456 8.44689 13.1123 9.07721C13.5292 9.79388 14.528 9.75578 15.7932 9.70996C16.8971 9.66829 18.2694 9.6174 18.782 10.1472H18.7823C18.9888 10.3873 19.0745 10.7091 19.0153 11.0204C18.9825 11.1153 18.7525 11.2379 18.2376 11.2141L18.1614 11.2103C17.5186 11.2073 16.8769 11.1496 16.2439 11.0377C15.0531 10.674 13.5707 10.2219 12.0174 10.6204H12.0171C11.1659 10.8573 10.4043 11.3418 9.82926 12.0129C9.25426 12.6838 8.89204 13.5105 8.7882 14.3883C8.61706 16.1445 9.21111 17.3531 10.5534 17.9811L10.6909 18.0457V18.0454C11.3397 18.4207 12.0804 18.6076 12.8295 18.585C12.8551 18.5829 12.8804 18.5793 12.9054 18.5746C13.1646 18.5252 13.9885 18.4597 14.3641 18.8016C14.5754 19.0502 14.6575 19.3832 14.5861 19.7014C14.5653 20.1076 14.6674 20.5106 14.8793 20.858C14.9323 20.955 14.9781 21.0559 15.0165 21.1595C15.1037 21.5011 15.1448 21.8526 15.1385 22.205C15.1406 22.5776 15.1757 22.9491 15.2439 23.3154C15.387 24.1309 15.7558 24.8901 16.3082 25.5071C16.6114 25.836 17.0385 26.0226 17.4858 26.0214C18.0111 25.9985 18.5156 25.8098 18.9269 25.4821C19.5489 25.0542 20.1123 24.547 20.6028 23.9729C20.9406 23.5964 21.1906 23.1496 21.3349 22.6651C21.4266 22.2601 21.484 21.8484 21.5063 21.4339C21.5206 21.013 21.5897 20.5958 21.7111 20.1928C21.9046 19.7461 22.1665 19.3321 22.4873 18.9658C22.6489 18.7586 22.8159 18.5446 22.9701 18.3166C23.0903 18.1393 23.2034 17.9482 23.315 17.7586C23.3683 17.6678 23.4216 17.5774 23.4754 17.4893V17.4896C23.7186 17.1806 23.8082 16.778 23.7195 16.3949C23.6165 16.1065 23.387 15.8812 23.0966 15.7839C22.9832 15.739 22.868 15.6973 22.7534 15.6559C22.3939 15.5637 22.062 15.386 21.7859 15.1378C21.5588 14.8747 21.4272 14.5425 21.4121 14.1952C21.8644 14.5169 22.4255 14.647 22.9733 14.5577C23.4373 14.5184 23.8516 14.2515 24.0787 13.8446C24.3248 13.3574 24.0707 12.844 23.8853 12.469C23.8451 12.3883 23.7847 12.2663 23.7737 12.2294C23.7534 12.1404 23.7763 12.0473 23.8356 11.9779C23.8909 11.9118 23.9743 11.8758 24.0603 11.8809C24.4403 11.8848 24.8028 12.0431 25.0641 12.3193C25.4493 12.8511 26.079 12.6416 26.6344 12.4571C27.1031 12.3011 27.7454 12.0886 28.0983 12.2729C28.3106 12.4208 28.4558 12.6467 28.5019 12.9014C28.5031 12.905 28.5049 12.908 28.5061 12.9116C28.8754 15.308 28.6007 17.7592 27.7106 20.0146C26.8201 22.2697 25.346 24.2474 23.4394 25.745C21.5326 27.2426 19.2621 28.2063 16.86 28.537L16.8601 28.5369Z" fill="white"/>
</svg>
