<svg width="23" height="23" viewBox="0 0 23 23" fill="none" xmlns="http://www.w3.org/2000/svg">
<path d="M21.9371 20.8741H2.12601V1.06301C2.12601 0.476766 1.6492 0 1.06301 0C0.476811 0 0 0.476811 0 1.06301V21.937C0 22.5232 0.476811 23 1.06301 23H21.937C22.5232 23 23 22.5232 23 21.937C23 21.3508 22.5232 20.874 21.937 20.874L21.9371 20.8741Z" fill="#00479A"/>
<path d="M6.04788 9.56282C6.96715 9.56282 7.71491 8.82585 7.71491 7.91996C7.71491 7.73162 7.67601 7.55364 7.61648 7.38503L10.6521 4.70285C10.9538 4.99857 11.3689 5.18183 11.827 5.18183C12.5718 5.18183 13.1968 4.69464 13.4097 4.0291L16.4054 5.50532C16.5132 6.30953 17.2056 6.93423 18.0505 6.93423C19.0235 6.94127 19.8335 6.07565 19.6997 5.11789C19.659 4.82647 19.6167 4.68423 19.4731 4.4473C19.1451 3.90641 18.6554 3.64855 18.0505 3.64855C17.3057 3.64855 16.6807 4.13575 16.4678 4.80128L13.472 3.32506C13.3643 2.52085 12.6719 1.89615 11.827 1.89615C10.9077 1.89615 10.16 2.63311 10.16 3.539C10.16 3.75434 10.2048 3.95911 10.2816 4.14784L7.2688 6.80989C6.96397 6.48463 6.53151 6.2771 6.04789 6.2771C5.12862 6.2771 4.38086 7.01407 4.38086 7.91996C4.38086 8.82585 5.12865 9.56282 6.04788 9.56282Z" fill="#00479A"/>
<path d="M7.85953 13.9678C7.85953 13.3817 7.38254 12.9048 6.79652 12.9048H5.40285C4.81679 12.9048 4.33984 13.3818 4.33984 13.9678V19.1989H7.85957L7.85953 13.9678Z" fill="#00479A"/>
<path d="M11.522 9.03955C10.9359 9.03955 10.459 9.51654 10.459 10.1026V19.1992H13.9787V10.1026C13.9787 9.51649 13.5017 9.03955 12.9157 9.03955H11.522Z" fill="#00479A"/>
<path d="M18.0318 10.5854C17.4457 10.5854 16.9688 11.0624 16.9688 11.6485V19.1989H20.4885V11.6485C20.4885 11.0624 20.0115 10.5854 19.4255 10.5854H18.0318Z" fill="#00479A"/>
</svg>
