<svg width="84" height="148" viewBox="0 0 84 148" fill="none" xmlns="http://www.w3.org/2000/svg">
<path d="M0.150879 16.5933H82.9602V144.22C82.9602 144.861 82.7085 145.476 82.2605 145.93C81.8126 146.383 81.205 146.637 80.5714 146.637H2.53961C1.90608 146.637 1.29849 146.383 0.850521 145.93C0.402548 145.476 0.150879 144.861 0.150879 144.22V16.5933Z" fill="url(#paint0_linear_157_4909)"/>
<path d="M82.9028 16.3438L78.0495 10.819C77.7771 10.5498 77.4534 10.3396 77.0982 10.2011C76.7429 10.0626 76.3635 9.99868 75.9831 10.0133H7.07014C6.69903 10.0054 6.33011 10.0726 5.98502 10.2109C5.63993 10.3493 5.32563 10.556 5.06058 10.819L0.150411 16.3438C-0.0770872 16.5932 0.150411 16.9385 0.624365 16.9385H82.4289C82.7891 16.9385 83.1114 16.5932 82.9028 16.3438Z" fill="url(#paint1_linear_157_4909)"/>
<mask id="mask0_157_4909" style="mask-type:luminance" maskUnits="userSpaceOnUse" x="0" y="10" width="83" height="137">
<path d="M82.9035 16.3428L78.0502 10.818C77.7778 10.5489 77.4541 10.3386 77.0989 10.2001C76.7436 10.0616 76.3642 9.9977 75.9838 10.0123H7.07085C6.69974 10.0044 6.33081 10.0716 5.98572 10.21C5.64063 10.3483 5.32633 10.555 5.06128 10.818L0.151113 16.3428C0.0990086 16.3966 0.0698242 16.4689 0.0698242 16.5442C0.0698242 16.6196 0.0990086 16.6919 0.151113 16.7457V144.219C0.151113 144.86 0.402782 145.475 0.850756 145.928C1.29873 146.382 1.90631 146.636 2.53984 146.636H80.5717C81.2052 146.636 81.8128 146.382 82.2608 145.928C82.7087 145.475 82.9604 144.86 82.9604 144.219V16.6114C82.9708 16.5651 82.9711 16.5171 82.9613 16.4707C82.9514 16.4244 82.9317 16.3807 82.9035 16.3428Z" fill="white"/>
</mask>
<g mask="url(#mask0_157_4909)">
<g opacity="0.4">
<path opacity="0.02" d="M44.8732 10.0115C45.8318 9.85375 46.8031 9.78951 47.7738 9.81969C49.6696 9.81969 52.4565 9.70459 56.0017 9.66622L68.7226 9.58949H72.5142H75.5096C75.8816 9.5535 76.2561 9.5535 76.6281 9.58949C77.0337 9.64413 77.4258 9.7742 77.7846 9.97316C78.1374 10.1865 78.4463 10.4666 78.6946 10.798L80.1354 12.4094C81.1591 13.5605 82.2208 14.7498 83.2825 15.9776C83.377 16.0758 83.4496 16.1934 83.4954 16.3225C83.5412 16.4516 83.5591 16.5891 83.5479 16.7257C83.5266 16.865 83.4747 16.9976 83.3959 17.1138C83.3172 17.2301 83.2136 17.3269 83.0929 17.3971C82.8207 17.5475 82.511 17.6142 82.2018 17.589H74.4669H64.5518H19.9243H9.21289H1.06088C0.720256 17.6199 0.377089 17.5741 0.0560912 17.4547C-0.0762704 17.3899 -0.192635 17.296 -0.284484 17.1798C-0.376332 17.0636 -0.441338 16.9281 -0.474737 16.7833C-0.491622 16.6404 -0.476533 16.4955 -0.43059 16.3594C-0.384646 16.2233 -0.309023 16.0993 -0.209322 15.9967L2.71024 12.6972L4.01835 11.2201L4.70084 10.4719C4.97675 10.196 5.30588 9.98047 5.66771 9.83887C6.31912 9.61272 7.01026 9.52775 7.69624 9.58949H9.59205H13.0235L24.6828 9.72377C27.9056 9.72377 30.3702 9.72377 32.1712 9.87724C33.0591 9.86164 33.9468 9.91938 34.8254 10.0499C33.9468 10.1804 33.0591 10.2381 32.1712 10.2225L24.6828 10.376L13.0235 10.5103H7.69624C7.13779 10.4563 6.57446 10.5284 6.04687 10.7213C5.81247 10.8092 5.59921 10.9465 5.42125 11.1242L4.81459 11.8339L3.50648 13.4262L1.004 16.2269V16.3612H9.17497H19.8863H64.5518H74.4669H82.0502C82.0502 16.3612 82.0502 16.3612 82.0502 16.2461L79.3012 13.0809L77.8983 11.5078C77.7137 11.2785 77.4965 11.078 77.2538 10.9131C77.004 10.7776 76.7356 10.6806 76.4575 10.6254C76.1419 10.6047 75.8252 10.6047 75.5096 10.6254H72.5142H68.7226L55.9827 10.4911C52.4375 10.4911 49.6696 10.4911 47.7548 10.3376C46.7876 10.3023 45.8243 10.1933 44.8732 10.0115Z" fill="white"/>
<path opacity="0.03" d="M46.1812 10.0126C47.1144 9.85701 48.061 9.79915 49.006 9.83996L56.9305 9.59058H69.2533H75.8318C76.2019 9.57439 76.5724 9.61316 76.9314 9.70568C77.3224 9.80058 77.6943 9.96281 78.0309 10.1853C78.1956 10.3109 78.348 10.4522 78.4859 10.6073L78.8272 10.991L80.2111 12.564L83.2824 16.017C83.3706 16.1188 83.4379 16.2375 83.4802 16.3659C83.5225 16.4944 83.539 16.6301 83.5288 16.7652C83.511 16.9006 83.4623 17.03 83.3867 17.1432C83.311 17.2564 83.2104 17.3503 83.0928 17.4174C82.8236 17.5759 82.5114 17.6431 82.2017 17.6092H19.8862H9.19383H1.04182C0.713468 17.6506 0.380134 17.6043 0.0749482 17.475C-0.0603842 17.4198 -0.179891 17.3313 -0.272629 17.2173C-0.365367 17.1034 -0.428374 16.9677 -0.45588 16.8227C-0.472623 16.6814 -0.459293 16.5381 -0.416784 16.4025C-0.374275 16.2668 -0.303573 16.1419 -0.209424 16.0362L2.61534 12.8518L3.88554 11.413L4.51116 10.7224C4.75159 10.4415 5.04071 10.2075 5.36428 10.0318C5.97559 9.70367 6.66399 9.55109 7.35489 9.59058H12.4736L23.7158 9.72486C26.8439 9.72486 29.2705 9.72486 30.9388 9.87833C31.7942 9.84767 32.6506 9.8926 33.4982 10.0126C32.6578 10.1423 31.8075 10.1937 30.9578 10.1661C29.2895 10.1661 26.8628 10.2812 23.7347 10.3195L12.4926 10.4538H7.37384C6.84998 10.4124 6.32501 10.5186 5.85719 10.7608C5.6383 10.8813 5.44504 11.0442 5.28844 11.2404L4.68178 11.9501L3.41159 13.4273L1.0039 16.2088C1.0039 16.2088 1.0039 16.2089 1.0039 16.3048H9.17487H19.8673H43.2048H64.5706H82.0122C82.0122 16.3048 82.0122 16.3048 82.0122 16.1705L79.4149 13.1971L78.0309 11.6048L77.7087 11.2212L77.4243 10.9526C77.199 10.7959 76.949 10.6791 76.6849 10.6073C76.4013 10.577 76.1154 10.577 75.8318 10.6073H69.2533L56.9305 10.473C53.518 10.473 50.826 10.473 49.006 10.3195C48.058 10.291 47.1136 10.1884 46.1812 10.0126Z" fill="white"/>
<path opacity="0.05" d="M47.5278 10.0121C48.4255 9.8817 49.3321 9.82397 50.2388 9.83941C52.002 9.83941 54.5992 9.72431 57.8221 9.68595L69.7847 9.59003H73.3109H76.1547C76.5288 9.5961 76.8997 9.66082 77.2542 9.78186C77.6205 9.92005 77.9604 10.1212 78.259 10.3765C78.5623 10.6835 78.714 10.8945 78.9605 11.1439L80.3065 12.6594L83.264 15.9205C83.3541 16.0179 83.4241 16.1326 83.4697 16.2578C83.5153 16.383 83.5356 16.5162 83.5294 16.6495C83.5081 16.7888 83.4562 16.9214 83.3775 17.0377C83.2987 17.1539 83.1951 17.2507 83.0744 17.3209C82.814 17.4649 82.5164 17.5251 82.2213 17.4936H74.5243H64.6091H43.2243H19.8489H9.15648H1.02343C0.693032 17.5018 0.366259 17.4224 0.0755209 17.2634C-0.0548735 17.2089 -0.169884 17.1226 -0.259214 17.0121C-0.348545 16.9016 -0.409405 16.7704 -0.436349 16.6303C-0.453092 16.489 -0.439761 16.3457 -0.397253 16.2101C-0.354744 16.0744 -0.284043 15.9495 -0.189894 15.8438L2.54008 12.7745L3.77236 11.5084L4.36007 10.8369L4.6634 10.4916L5.06152 10.0888C5.63214 9.73968 6.29093 9.56636 6.95734 9.59003H8.66357H11.9054L22.7305 9.72431C25.7259 9.72431 28.0578 9.72431 29.6692 9.8586C30.4879 9.84283 31.3063 9.9006 32.1148 10.0312C31.3169 10.1391 30.5119 10.184 29.7071 10.1655C28.0957 10.1655 25.7638 10.1655 22.7685 10.319L11.9433 10.4341H8.70149H6.95734C6.46938 10.423 5.99082 10.5709 5.59235 10.8561C5.49275 10.9108 5.40301 10.9822 5.32693 11.0671L5.06152 11.5084L4.47382 12.199L3.26049 13.5994L0.985514 16.2083C0.985514 16.2083 0.985514 16.2083 0.985514 16.3234H4.11361H9.15648H19.8489H43.2243H64.6091H74.5243H82.1075C82.1075 16.3234 82.1075 16.3234 82.1075 16.1891L79.5103 13.2924L78.1832 11.7578L77.5765 11.0671C77.3813 10.8932 77.1565 10.7567 76.913 10.6643C76.6562 10.5747 76.3881 10.523 76.1167 10.5108H73.3109H69.7658L57.879 10.3957L50.2957 10.2423C49.3684 10.2418 48.4427 10.1648 47.5278 10.0121Z" fill="white"/>
<path opacity="0.07" d="M48.8735 10.0126C49.7329 9.88085 50.6018 9.82309 51.4708 9.83993L58.8455 9.68646L70.3152 9.59055H73.7466H76.0027H76.5145C76.8689 9.62986 77.2146 9.72704 77.5383 9.8783C77.8871 10.0398 78.1974 10.2753 78.4483 10.5689L79.0929 11.2787L80.382 12.7366L83.2447 15.9211C83.3367 16.0171 83.4079 16.1316 83.4536 16.2571C83.4993 16.3827 83.5186 16.5165 83.5101 16.65C83.4923 16.7855 83.4436 16.9149 83.368 17.0281C83.2923 17.1413 83.1917 17.2351 83.0741 17.3023C82.8133 17.4464 82.5175 17.513 82.221 17.4941H74.5429H64.6467H19.8107H9.11824H1.00415C0.681952 17.4843 0.365424 17.4058 0.0751965 17.2639C-0.0443316 17.2083 -0.151379 17.1285 -0.239394 17.0296C-0.327409 16.9306 -0.394539 16.8145 -0.436673 16.6884C-0.444781 16.5491 -0.425497 16.4095 -0.379938 16.2778C-0.334379 16.1461 -0.263451 16.0249 -0.17126 15.9211L2.44497 12.9668C3.26017 12.0652 3.98058 11.2403 4.8337 10.3195C5.34244 9.90189 5.96313 9.64799 6.61577 9.59055C7.17152 9.56227 7.72833 9.56227 8.28408 9.59055H11.4122L21.8013 9.72483L28.4556 9.85911C29.2428 9.84304 30.0297 9.90083 30.8064 10.0318C30.027 10.1358 29.2417 10.1871 28.4556 10.1852L21.8013 10.3195L11.4122 10.4538H8.28408C7.77221 10.4538 7.16555 10.4538 6.71056 10.4538C6.25115 10.5075 5.81676 10.694 5.45932 10.9909L0.966231 16.2088C0.966231 16.2088 0.966231 16.2088 0.966231 16.3239H9.09929H19.7917H81.5195C81.6961 16.3386 81.8737 16.3386 82.0503 16.3239C82.1641 16.3239 82.0503 16.2088 82.0503 16.1513L79.6047 13.4272L78.3345 11.9501L77.7089 11.2211C77.5502 11.0117 77.3414 10.8467 77.1022 10.7416C76.8688 10.631 76.619 10.5597 76.3629 10.5305C76.0852 10.5099 75.8064 10.5099 75.5287 10.5305H70.3152L58.8455 10.3963L51.4708 10.166C50.6022 10.1937 49.733 10.1424 48.8735 10.0126Z" fill="white"/>
<path opacity="0.08" d="M50.2011 10.0119C51.0351 9.88067 51.8787 9.8229 52.7226 9.83921L59.8129 9.70493L70.8655 9.58983H75.8895C76.5529 9.57086 77.2087 9.73677 77.7853 10.0694C78.0874 10.2602 78.3564 10.5 78.5815 10.7792L79.1882 11.4698L80.4394 12.8702L83.2263 15.9204C83.3183 16.0164 83.3895 16.1309 83.4352 16.2564C83.4809 16.382 83.5001 16.5158 83.4917 16.6493C83.4746 16.7801 83.4281 16.9051 83.3558 17.0148C83.2835 17.1246 83.1873 17.2161 83.0746 17.2824C82.8231 17.4326 82.5315 17.4997 82.2404 17.4742H64.6852H43.2245H19.7543H9.08087H1.00469C0.681771 17.4914 0.360403 17.4184 0.0757355 17.2632C-0.0520742 17.2076 -0.164122 17.1206 -0.250211 17.01C-0.3363 16.8995 -0.393697 16.7689 -0.417177 16.6301C-0.430973 16.4933 -0.414291 16.3551 -0.368362 16.2256C-0.322432 16.0961 -0.24842 15.9787 -0.151762 15.882L4.60674 10.5106C5.03518 10.0403 5.5989 9.7182 6.21818 9.58983C6.51458 9.5625 6.81282 9.5625 7.10922 9.58983H10.9009L20.8728 9.70493L27.2617 9.8584C28.0169 9.83257 28.7728 9.88399 29.5178 10.0119C28.7701 10.115 28.0163 10.1663 27.2617 10.1653L20.8728 10.2996L10.9009 10.4147H7.92442H7.14713C6.92063 10.3843 6.69115 10.3843 6.46464 10.4147C6.02571 10.5018 5.62656 10.7307 5.32715 11.067L0.947812 16.2081C0.947812 16.2081 0.947812 16.2081 0.947812 16.3232C0.947812 16.4383 0.947812 16.3232 1.06156 16.4191H9.1567H19.8302H43.3004H64.761H82.1457C82.1457 16.4191 82.1457 16.4191 82.1457 16.3232C82.1457 16.2273 82.1457 16.3232 82.1457 16.2273L79.719 13.4265L78.4867 12.0069C78.1446 11.558 77.757 11.1465 77.3303 10.7792C76.8911 10.529 76.3934 10.4031 75.8895 10.4147H74.1643H70.8655L59.8129 10.2996L52.7226 10.1653C51.8794 10.1799 51.0365 10.1286 50.2011 10.0119Z" fill="white"/>
<path opacity="0.1" d="M51.5465 10.0121C52.3422 9.88066 53.1481 9.82287 53.9542 9.83945L60.7792 9.70516L71.4147 9.59006H74.5807C75.1494 9.59006 75.6613 9.59006 76.2869 9.59006C76.9707 9.61868 77.6306 9.85239 78.1828 10.2615C78.4187 10.4767 78.6403 10.7074 78.8463 10.9521L79.434 11.6235L80.6284 12.9663L83.3015 15.9781C83.4695 16.1683 83.5638 16.4136 83.5669 16.6687C83.5498 16.802 83.5035 16.9298 83.4313 17.0426C83.3592 17.1555 83.263 17.2506 83.1498 17.321C82.7706 17.5895 81.8227 17.4744 81.6142 17.4936H74.5997H64.7225H43.2239H19.6968H9.04232H0.985098C0.666362 17.5055 0.350836 17.4256 0.0751049 17.2634C-0.0482063 17.204 -0.155614 17.1155 -0.23809 17.0053C-0.320566 16.8952 -0.375698 16.7666 -0.398849 16.6304C-0.410989 16.4981 -0.395302 16.3648 -0.352821 16.2392C-0.310341 16.1135 -0.242031 15.9984 -0.152393 15.9014L4.43548 10.7602L4.7009 10.4533C4.81311 10.3535 4.93362 10.2636 5.0611 10.1847C5.30573 10.0071 5.57375 9.86506 5.85735 9.76271C6.38675 9.60876 6.93756 9.54395 7.48775 9.57088H10.3504L19.8295 9.68598L25.9151 9.85863C26.6326 9.83145 27.3508 9.8829 28.0574 10.0121C27.3479 10.1143 26.6316 10.1592 25.9151 10.1464L19.8106 10.2807L10.3315 10.4149H7.46879C7.02518 10.347 6.57168 10.4001 6.15511 10.5687C5.73853 10.7373 5.37396 11.0154 5.09902 11.3741L0.947181 16.2083C0.947181 16.2083 0.85239 16.2083 0.85239 16.3234C0.856913 16.3505 0.870867 16.3751 0.89173 16.3927C0.912592 16.4103 0.938986 16.4197 0.966139 16.4194H4.03736H9.04232H19.6968H64.7225H74.5997H82.1829C82.1829 16.4194 82.1829 16.4194 82.1829 16.3043C81.4246 15.4026 80.6663 14.5394 79.908 13.6761C79.5098 13.2157 79.1307 12.7553 78.7325 12.3141L78.0501 11.5084C77.892 11.2996 77.7142 11.1068 77.5192 10.9329C77.1405 10.6281 76.6757 10.4533 76.1922 10.4341H71.4147L60.7981 10.2998L53.9732 10.1656C53.1618 10.1684 52.3512 10.1171 51.5465 10.0121Z" fill="white"/>
<path opacity="0.11" d="M52.8738 10.0116C53.6379 9.88354 54.4127 9.83214 55.1867 9.85809L61.7273 9.7238L71.9268 9.58952H74.9791C75.5346 9.55219 76.0919 9.55219 76.6474 9.58952C77.2899 9.69412 77.8854 9.99538 78.3536 10.4528L83.2069 15.92C83.375 16.1102 83.4693 16.3555 83.4723 16.6106C83.4587 16.7401 83.4157 16.8646 83.3466 16.9744C83.2775 17.0842 83.1843 17.1764 83.0742 17.2437C82.714 17.5314 81.7661 17.3972 81.5575 17.4355H74.6378H64.7606H43.2241H19.6591H8.98567H0.966364C0.659921 17.4518 0.354155 17.3926 0.0753298 17.2629C-0.0456902 17.2053 -0.15164 17.1197 -0.233969 17.0131C-0.316298 16.9065 -0.3727 16.7818 -0.398624 16.649C-0.404998 16.3807 -0.310086 16.12 -0.133209 15.92L4.24613 10.9899L4.758 10.4144C4.97643 10.2181 5.21848 10.0505 5.47841 9.91564C5.97177 9.68784 6.5098 9.57634 7.05194 9.58952H9.80087L18.9198 9.70462L24.7399 9.8389C25.4257 9.82396 26.1113 9.87535 26.7874 9.99237C26.1098 10.0949 25.4249 10.1398 24.7399 10.1267L18.9198 10.2609L9.80087 10.376H7.05194C6.63786 10.3828 6.23024 10.481 5.85757 10.6638C5.67893 10.7564 5.51319 10.8725 5.36466 11.0091L4.89071 11.5654L0.928447 16.2078C0.928447 16.2078 0.833658 16.2078 0.833658 16.3421C0.838181 16.3692 0.852134 16.3937 0.872996 16.4113C0.893858 16.4289 0.920252 16.4384 0.947406 16.438H8.98567H19.6591H43.2241H64.7606H82.1073C82.1073 16.438 82.1073 16.438 82.1073 16.3421C82.1073 16.2462 82.1073 16.3421 82.1073 16.227L77.6901 11.105C77.3655 10.7786 76.9476 10.5639 76.4957 10.4911C75.9906 10.4606 75.4842 10.4606 74.9791 10.4911H71.9268L61.7273 10.376L55.1867 10.165C54.4132 10.166 53.6406 10.1148 52.8738 10.0116Z" fill="white"/>
<path opacity="0.13" d="M54.22 10.0118C54.9457 9.88261 55.6828 9.83117 56.4192 9.85835L62.6943 9.72407L72.4578 9.58979H75.3963C75.9434 9.54271 76.4944 9.58809 77.0267 9.72407C77.3219 9.80077 77.6033 9.92376 77.8609 10.0886C78.1175 10.2574 78.3476 10.4643 78.5434 10.7024L83.1881 15.9395C83.3534 16.1238 83.4476 16.3621 83.4535 16.6109C83.4429 16.7412 83.4011 16.8669 83.3318 16.9772C83.2624 17.0875 83.1676 17.179 83.0554 17.244C82.7142 17.5317 81.7852 17.4166 81.5577 17.4358H64.8177H43.2243H19.6024H8.94794H0.947589C0.646542 17.4642 0.343775 17.4043 0.0755131 17.2631C-0.044789 17.2072 -0.149396 17.1217 -0.228842 17.0145C-0.308288 16.9074 -0.360064 16.7818 -0.379482 16.6493C-0.38688 16.3865 -0.291498 16.1315 -0.114067 15.9395L4.07569 11.2396C4.36677 10.848 4.69714 10.488 5.06151 10.1653C5.51628 9.84364 6.04502 9.64549 6.59712 9.58979C7.58295 9.58979 8.37919 9.58979 9.25127 9.58979L17.9531 9.70489L23.5078 9.81999C24.1431 9.80991 24.778 9.8613 25.4036 9.97345C24.7765 10.0716 24.1423 10.1166 23.5078 10.1077L17.9531 10.2228L9.25127 10.3379C8.43607 10.3379 7.48816 10.3379 6.69191 10.3379C6.30093 10.3903 5.9258 10.5277 5.59234 10.7408C5.26798 11.0333 4.96981 11.3543 4.70131 11.7L0.909674 16.093C0.909674 16.093 0.814882 16.1889 0.814882 16.2464C0.814882 16.304 0.814881 16.3423 0.92863 16.3615H8.94794H19.6024H43.2243H64.8177H74.6759H82.1265C82.1265 16.3615 82.2213 16.3615 82.1265 16.2464C82.0317 16.1313 82.1265 16.2464 82.1265 16.1313L77.8798 11.2971C77.6039 10.9416 77.2267 10.6804 76.7992 10.549C76.3399 10.4401 75.867 10.4014 75.3963 10.4339H72.4578L62.6943 10.2804L56.4192 10.1461C55.6838 10.159 54.9485 10.1141 54.22 10.0118Z" fill="white"/>
<path opacity="0.15" d="M55.5662 10.0122C56.2614 9.89515 56.9659 9.84377 57.6705 9.85869L63.6613 9.72441L73.0077 9.59012H75.8135C76.3569 9.56811 76.899 9.65953 77.406 9.85869C77.6732 9.97501 77.9223 10.1301 78.1453 10.3191C78.345 10.5072 78.5348 10.7057 78.7141 10.9138L83.1693 15.9398C83.3386 16.1232 83.4393 16.3607 83.4536 16.6112C83.4416 16.7386 83.3991 16.8611 83.3297 16.9681C83.2603 17.075 83.1662 17.1633 83.0555 17.2251C82.7143 17.5129 81.8043 17.3978 81.5768 17.4169H74.7139H64.8557H19.5267L8.85323 17.4361H0.928715C0.634316 17.455 0.340165 17.3955 0.0755975 17.2635C-0.0421891 17.2065 -0.14388 17.1203 -0.220089 17.013C-0.296297 16.9057 -0.344565 16.7808 -0.36044 16.6496C-0.367837 16.3869 -0.272457 16.1318 -0.0950263 15.9398C1.26996 14.386 2.63495 12.8897 3.88619 11.5085L4.81514 10.4726C5.19237 10.1321 5.64908 9.89439 6.14221 9.78196C6.57961 9.65368 7.03284 9.58908 7.48824 9.59012H8.72052H16.9863L22.2756 9.72441C22.9105 9.69561 23.5467 9.74066 24.1714 9.85869C23.5436 9.95038 22.91 9.99526 22.2756 9.99298L16.9863 10.1081L8.72052 10.2232H7.48824C7.0992 10.2012 6.70914 10.24 6.33179 10.3383C5.97267 10.4288 5.64078 10.6066 5.36493 10.8562L4.51181 11.8538L0.890799 16.1892C0.890799 16.1892 0.796008 16.2851 0.796008 16.3427C0.796008 16.3578 0.79895 16.3728 0.804667 16.3867C0.810383 16.4007 0.818762 16.4134 0.829324 16.4241C0.839887 16.4348 0.852426 16.4432 0.866227 16.449C0.880028 16.4548 0.89482 16.4578 0.909758 16.4578H3.96202H8.89115H19.5267H64.8557H74.7139H82.1266C82.1266 16.4578 82.2403 16.4578 82.2214 16.3427C82.2024 16.2276 82.2214 16.3427 82.2214 16.2084L78.0695 11.5085C77.8273 11.1402 77.4939 10.8426 77.1026 10.6452C76.6995 10.4805 76.267 10.4021 75.8324 10.415H73.0077L63.6613 10.2999L57.6705 10.1656C56.9661 10.1726 56.2623 10.1212 55.5662 10.0122Z" fill="white"/>
<path opacity="0.16" d="M56.8928 10.0124C57.5563 9.89638 58.2292 9.84499 58.9024 9.8589L64.5899 9.7438L73.5381 9.59033H76.2491C76.7743 9.62433 77.2857 9.77497 77.7468 10.0316C77.9872 10.1849 78.2098 10.365 78.4104 10.5687L78.8843 11.125L83.1499 15.9209C83.3221 16.1023 83.4232 16.3409 83.4343 16.5923C83.4259 16.7183 83.3869 16.8402 83.3207 16.9473C83.2546 17.0544 83.1634 17.1433 83.0551 17.2061C82.8236 17.3369 82.5619 17.4031 82.2968 17.398H74.7135H64.8742H43.1861H19.4315L8.85283 17.4363H3.94266H0.909358C0.620908 17.4575 0.332287 17.3977 0.0751972 17.2637C-0.038744 17.2015 -0.137216 17.114 -0.212762 17.0076C-0.288307 16.9013 -0.338944 16.7789 -0.36084 16.6498C-0.349764 16.3985 -0.248685 16.1598 -0.076468 15.9784L3.71517 11.7005L4.56828 10.7413C4.87237 10.3818 5.25544 10.0993 5.68682 9.91645C6.08651 9.72882 6.51727 9.61822 6.95701 9.59033H8.13242L15.9811 9.70543L20.9861 9.82053C21.5769 9.79558 22.1687 9.84064 22.7492 9.95482C22.1656 10.0426 21.5759 10.0811 20.9861 10.0699L15.9811 10.2042L8.13242 10.3001H6.95701C6.59943 10.3035 6.24568 10.3751 5.91431 10.5111C5.58521 10.6519 5.29781 10.8766 5.08016 11.1634L4.24599 12.1417L0.871441 16.1894C0.871441 16.1894 0.871441 16.2853 0.871441 16.3429C0.871441 16.4004 0.871441 16.458 0.98519 16.4772H8.85283H19.4884H43.243H64.9311H74.7704H79.3962H82.1641C82.1959 16.4725 82.225 16.4564 82.2459 16.4317C82.2668 16.407 82.2782 16.3754 82.2778 16.3429C82.2778 16.3429 82.2778 16.3429 82.1641 16.2086L78.3724 11.7197L77.8985 11.1634C77.7714 11.0156 77.6247 10.8865 77.4625 10.7797C77.1109 10.5702 76.7137 10.4516 76.306 10.4344H73.6519L64.7226 10.3193L59.0351 10.2042C58.3168 10.2053 57.5998 10.1411 56.8928 10.0124Z" fill="white"/>
<path opacity="0.18" d="M58.2389 10.0116C58.8644 9.89856 59.4999 9.85355 60.1348 9.8773L65.5568 9.74302H74.069H75.9648H76.6852C77.1869 9.83786 77.6603 10.0479 78.0692 10.3569C78.2499 10.5258 78.4208 10.7051 78.5811 10.894L79.055 11.412L83.131 16.016C83.2895 16.1894 83.3833 16.4132 83.3964 16.649C83.387 16.7725 83.3497 16.8921 83.2872 16.9985C83.2247 17.105 83.1389 17.1955 83.0362 17.2629C82.8082 17.4024 82.544 17.4693 82.2779 17.4547H74.6946H64.8554H43.2241H19.3937H8.77708H0.890485C0.607392 17.4587 0.327603 17.3929 0.0752834 17.2629C-0.0355513 17.2039 -0.131082 17.1194 -0.203551 17.016C-0.276019 16.9127 -0.323384 16.7935 -0.341797 16.6682C-0.330721 16.4169 -0.22964 16.1782 -0.0574232 15.9968L3.54463 11.9491L4.34087 11.0475L4.75795 10.5871C4.91014 10.4249 5.08215 10.2831 5.26982 10.1651C5.97644 9.73353 6.79722 9.53259 7.62064 9.58955H15.0712L19.7918 9.70465C20.345 9.6794 20.8991 9.72451 21.4411 9.83893C20.8958 9.92653 20.3438 9.96504 19.7918 9.95403L15.0712 10.0691H7.62064C7.27336 10.049 6.92522 10.049 6.57794 10.0691C6.25019 10.1264 5.93544 10.2434 5.64899 10.4144C5.51678 10.5012 5.39578 10.6043 5.28878 10.7214L4.90962 11.1818L4.11337 12.1026L0.852568 15.9393C0.852568 15.9393 0.852569 16.0352 0.73882 16.0927C0.744445 16.1283 0.759878 16.1616 0.783351 16.1888C0.806824 16.2159 0.837385 16.2358 0.871527 16.2462H8.85292H19.4695H43.2999H64.9501H74.7894H81.9935C81.9935 16.2462 82.1073 16.2462 82.1642 16.2462C82.1791 16.2462 82.1939 16.2432 82.2077 16.2374C82.2215 16.2316 82.234 16.2232 82.2446 16.2125C82.2552 16.2018 82.2635 16.1891 82.2692 16.1751C82.275 16.1612 82.2779 16.1462 82.2779 16.1311C82.2779 16.1311 82.2779 16.1311 82.1642 15.9776L78.3725 11.6997L77.9175 11.1626L77.5004 10.7022C77.1931 10.4685 76.836 10.3109 76.4578 10.2418C76.2686 10.2231 76.0781 10.2231 75.889 10.2418H73.9932L65.481 10.1459L60.0589 10.0308C59.4525 10.0647 58.8445 10.0583 58.2389 10.0116Z" fill="white"/>
<path opacity="0.2" d="M59.5666 10.0119C60.191 9.89122 60.8274 9.84614 61.4624 9.87758L66.619 9.76248L74.6194 9.58983H75.8137C76.2629 9.56301 76.713 9.62157 77.1408 9.76248C77.61 9.91657 78.0336 10.1869 78.3731 10.549L79.2452 11.5273L83.0368 15.9012C83.1953 16.0746 83.2891 16.2984 83.3022 16.5342C83.2998 16.6545 83.2672 16.7721 83.2075 16.8762C83.1478 16.9802 83.063 17.0672 82.961 17.1289C82.7388 17.2658 82.4814 17.3326 82.2216 17.3207H74.8469H65.0076H43.2247H19.3184H8.72078H0.853141C0.593258 17.3654 0.326543 17.3457 0.075856 17.2632C-0.0355983 17.2073 -0.130847 17.1231 -0.200615 17.0189C-0.270383 16.9147 -0.312294 16.794 -0.322266 16.6685C-0.306044 16.4277 -0.212889 16.1988 -0.0568506 16.0163L3.35562 12.1796C3.88645 11.5849 4.34144 11.0478 4.91019 10.4723C5.51554 9.94979 6.29581 9.68203 7.09038 9.72411H14.1049L18.5411 9.82003C19.0629 9.79445 19.5857 9.83961 20.0957 9.95431C19.5822 10.0423 19.0617 10.0808 18.5411 10.0694L14.1049 10.1845H7.09038C6.46023 10.1672 5.84591 10.3858 5.36519 10.7984L3.90541 12.4673L0.853141 16.1697C0.853141 16.1697 0.739392 16.2848 0.720434 16.3616C0.724451 16.3958 0.739724 16.4276 0.763795 16.452C0.787867 16.4763 0.819337 16.4918 0.853141 16.4958C1.0799 16.5222 1.30888 16.5222 1.53564 16.4958H3.84853H8.72078H19.3184H43.2247H65.0076H74.8469H82.1837C82.2129 16.4859 82.2388 16.4682 82.2588 16.4446C82.2789 16.4209 82.2922 16.3922 82.2974 16.3616C82.2706 16.3029 82.2318 16.2506 82.1837 16.2081L78.6575 12.1029L77.8044 11.1053C77.5634 10.8365 77.2558 10.6377 76.9133 10.5298C76.5605 10.4041 76.1877 10.3456 75.8137 10.3572H74.6194L66.5432 10.2421L61.3866 10.127C60.7778 10.1379 60.1692 10.0994 59.5666 10.0119Z" fill="white"/>
<path opacity="0.21" d="M60.9122 10.0118C61.4735 9.89735 62.0464 9.85225 62.6185 9.87756L67.5097 9.76245H75.0929H76.2683C76.7019 9.80399 77.1252 9.92079 77.5196 10.1078C77.9162 10.3207 78.2648 10.6146 78.5433 10.971C78.8087 11.2779 79.0931 11.5849 79.3585 11.911L83.1501 16.0546C83.3018 16.227 83.4006 16.4403 83.4345 16.6685C83.4321 16.7887 83.3995 16.9064 83.3398 17.0104C83.2801 17.1145 83.1953 17.2014 83.0933 17.2632C82.8784 17.4008 82.6268 17.4678 82.3729 17.455H74.9033H65.083H43.2243H19.2422H8.64455H3.81021H1.51627C1.26982 17.2632 0.435657 17.4358 0.0754521 17.2632C-0.0348842 17.2079 -0.128381 17.1234 -0.195132 17.0187C-0.261883 16.914 -0.299402 16.793 -0.303711 16.6685C-0.290589 16.4327 -0.196746 16.2088 -0.0382959 16.0354L3.16563 12.3522C3.65855 11.8151 4.11354 11.2779 4.5875 10.7792C4.82046 10.4886 5.10787 10.2475 5.43322 10.0697C5.75857 9.89197 6.11544 9.78102 6.48331 9.74327C7.11472 9.70602 7.74773 9.70602 8.37913 9.74327H10.1043H13.1187L17.2895 9.85837C17.7786 9.84815 18.2676 9.8867 18.7492 9.97347C18.2676 10.0602 17.7786 10.0988 17.2895 10.0886H13.1187H10.1043H8.37913C7.81039 10.0886 7.12789 10.0886 6.57811 10.0886C6.28417 10.1241 6.00022 10.2187 5.743 10.367C5.48578 10.5152 5.26049 10.7141 5.08041 10.9518L3.69646 12.5632L0.83378 16.1697C0.773276 16.2204 0.727425 16.2867 0.701072 16.3615C0.70078 16.3991 0.714132 16.4355 0.738593 16.4638C0.763054 16.4921 0.796925 16.5103 0.83378 16.515H3.81021H8.64455H19.2422H43.2243H65.083H74.9033H79.4533H82.2022C82.2022 16.515 82.335 16.515 82.316 16.3615C82.2892 16.3029 82.2504 16.2506 82.2022 16.2081L78.8656 12.3714L78.0504 11.4314C77.8394 11.1338 77.5679 10.8852 77.2542 10.7024C76.6121 10.4112 75.9085 10.2859 75.2067 10.338H67.6234L62.7322 10.2229C62.1204 10.2091 61.5112 10.1384 60.9122 10.0118Z" fill="white"/>
<path opacity="0.23" d="M62.2582 10.0117C62.7751 9.90002 63.3038 9.85491 63.8318 9.87737L68.4386 9.78145H75.6617C76.4648 9.71224 77.2672 9.92199 77.9366 10.3761C78.2339 10.6442 78.5126 10.9326 78.7708 11.2394L79.5671 12.1218L83.0554 16.0544C83.207 16.2268 83.3058 16.4401 83.3397 16.6683C83.3332 16.7828 83.3007 16.8943 83.2449 16.994C83.189 17.0938 83.1112 17.1793 83.0174 17.2438C82.8066 17.3765 82.5643 17.4494 82.316 17.4548H74.9413H65.1399H43.2242H19.1474H8.56871L3.77229 17.263H1.47836C1.2319 17.263 0.416699 17.263 0.0754521 17.0903C-0.0321723 17.0366 -0.123893 16.9551 -0.190462 16.8541C-0.257031 16.753 -0.296094 16.636 -0.303711 16.5148C-0.274504 16.2795 -0.175334 16.0588 -0.0193391 15.8818L2.99501 12.5055L4.34104 11.0284C4.55877 10.7869 4.80014 10.5683 5.06145 10.3761C5.32378 10.1576 5.62677 9.9945 5.95249 9.89655C6.56844 9.7209 7.21125 9.66236 7.8483 9.7239H9.45975H12.2845H16.1709C16.6287 9.71339 17.0862 9.75198 17.5359 9.839C17.0818 9.87971 16.625 9.87971 16.1709 9.839L12.2845 9.9541H9.45975H7.8483C7.29921 9.92298 6.74873 9.98127 6.2179 10.1268C5.96841 10.2186 5.73724 10.3551 5.53541 10.5296C5.3196 10.7404 5.11699 10.9647 4.92874 11.201L3.62063 12.7165L0.814821 16.1695C0.814821 16.1695 0.701071 16.2846 0.682113 16.3614C0.663155 16.4381 0.682114 16.5148 0.814821 16.534C0.947529 16.5532 1.02336 16.534 1.47836 16.534H8.56871H19.1474H43.2242H65.1399H74.9413H82.0127C82.0127 16.534 82.1643 16.534 82.2212 16.534C82.2781 16.534 82.3539 16.534 82.3349 16.3805C82.3037 16.3188 82.2656 16.2608 82.2212 16.2079C81.1027 14.9418 80.06 13.714 79.0552 12.563L78.2779 11.6614C78.0616 11.3779 77.8205 11.1147 77.5575 10.8749C77.0083 10.4771 76.3328 10.2994 75.6617 10.3761H68.4386L63.8318 10.1268C63.3049 10.1358 62.7783 10.0973 62.2582 10.0117Z" fill="white"/>
<path opacity="0.25" d="M63.5854 10.0119C64.0862 9.92504 64.594 9.8865 65.1021 9.89684L69.5193 9.78174C71.4151 9.78174 73.6712 9.78174 76.3632 9.78174C77.1373 9.81107 77.8705 10.1408 78.4107 10.7025L79.8705 12.3331L83.1692 16.0355C83.3203 16.2007 83.4193 16.4078 83.4536 16.6302C83.4536 16.7466 83.4261 16.8614 83.3733 16.9649C83.3206 17.0683 83.2441 17.1575 83.1502 17.2249C82.9421 17.3453 82.7075 17.4112 82.4677 17.4167H74.9982H65.2158H43.2243H19.0527H8.49297H0.776989C0.531897 17.4259 0.289095 17.3661 0.0755365 17.2441C-0.0273803 17.1864 -0.11431 17.1035 -0.177255 17.0029C-0.2402 16.9023 -0.277137 16.7874 -0.284668 16.6686C-0.253962 16.445 -0.154466 16.237 -0.000296136 16.0739L2.82447 12.9086L4.05675 11.5082L4.66341 10.8368C4.86816 10.5931 5.11164 10.3856 5.38382 10.223C5.89898 9.93433 6.48278 9.79494 7.0711 9.82011H8.5688H11.204H14.825C15.2513 9.80917 15.6775 9.84779 16.0952 9.93521C15.6723 9.96394 15.2479 9.96394 14.825 9.93521L11.204 10.0311H8.5688H7.0711C6.58 10.0263 6.09625 10.152 5.6682 10.3956C5.44813 10.5306 5.25518 10.7063 5.09945 10.9136L4.53071 11.585C4.13259 12.0454 3.71551 12.5058 3.31738 13.0045L0.795947 16.1698C0.735444 16.2205 0.689594 16.2868 0.663241 16.3616C0.66059 16.3818 0.661931 16.4023 0.667189 16.422C0.672447 16.4416 0.681514 16.46 0.693864 16.4761C0.706215 16.4922 0.721602 16.5056 0.739127 16.5156C0.756653 16.5256 0.775967 16.5319 0.795947 16.5343C0.877041 16.5532 0.96131 16.5532 1.0424 16.5343H8.49297H19.0527H43.2243H65.2158H74.9982H82.2402C82.2771 16.5251 82.3093 16.5023 82.3303 16.4704C82.3514 16.4384 82.3598 16.3996 82.354 16.3616C82.3228 16.2999 82.2846 16.2419 82.2402 16.189L79.2638 12.736L77.823 11.0862C77.4017 10.6352 76.8241 10.3671 76.2115 10.3381L69.5193 10.223H65.1969C64.654 10.208 64.1141 10.1373 63.5854 10.0119Z" fill="white"/>
<path opacity="0.26" d="M64.9315 10.0118C65.4004 9.92462 65.8768 9.88605 66.3534 9.89667H70.3915H73.311H74.9794C75.6096 9.83085 76.2449 9.83085 76.8752 9.89667C77.2107 9.9778 77.5309 10.1139 77.8231 10.2995C78.1129 10.514 78.3742 10.7655 78.6004 11.0477C79.0554 11.5273 79.5104 12.0452 79.9843 12.5824L83.0934 16.0737C83.2382 16.2334 83.3309 16.4344 83.3589 16.6492C83.3608 16.7633 83.334 16.8761 83.2809 16.9768C83.2278 17.0775 83.1503 17.1628 83.0555 17.2247C82.8612 17.3452 82.6388 17.4114 82.411 17.4166H75.0741H65.2917H43.2244H18.939H8.39826H3.65872H0.758116C0.514062 17.4162 0.273601 17.3571 0.056664 17.2439C-0.0415822 17.1843 -0.122902 17.1 -0.17938 16.9991C-0.235858 16.8983 -0.26557 16.7843 -0.265625 16.6684C-0.234904 16.4505 -0.135113 16.2485 0.0187486 16.0929C1.81977 14.1746 3.46913 12.2562 4.891 10.6448C5.29754 10.3241 5.76444 10.0907 6.26316 9.95874C6.76189 9.82681 7.28196 9.79916 7.7916 9.87749H10.2182H13.5738C13.9689 9.86613 14.3637 9.90479 14.7492 9.99259C14.358 10.0215 13.9651 10.0215 13.5738 9.99259L10.2182 10.0885H7.7916C7.35007 10.0498 6.90605 10.0498 6.46453 10.0885C6.01703 10.1747 5.60288 10.3875 5.27016 10.7024L0.777075 16.1696C0.716419 16.2247 0.665173 16.2895 0.625409 16.3615C0.622777 16.3842 0.624624 16.4072 0.630842 16.4291C0.637061 16.4511 0.647528 16.4716 0.661636 16.4895C0.675744 16.5073 0.693212 16.5221 0.713028 16.5331C0.732845 16.5441 0.754614 16.5509 0.777075 16.5533C0.858089 16.5729 0.942517 16.5729 1.02353 16.5533H3.65872H8.39826H18.939H43.2244H65.2917H75.0741H79.5672H82.2782C82.2782 16.5533 82.411 16.4382 82.373 16.3615C82.341 16.2953 82.2958 16.2366 82.2403 16.1888L79.4535 12.9277L78.1074 11.3738C77.9284 11.1293 77.718 10.91 77.4818 10.7216C77.2444 10.5661 76.981 10.4556 76.7045 10.3954C76.136 10.2884 75.5569 10.2498 74.9794 10.2803H73.311H70.3915L66.3534 10.1652C65.876 10.1553 65.4003 10.1039 64.9315 10.0118Z" fill="white"/>
<path opacity="0.28" d="M66.2582 10.0116C66.695 9.9241 67.1401 9.8855 67.5853 9.89653H71.3769H74.1069H75.6614C76.262 9.83758 76.8677 9.92984 77.4245 10.1651C77.729 10.2959 78.0058 10.4848 78.2398 10.7214L78.8654 11.4312L80.1545 12.8508L83.0741 16.1311C83.2128 16.29 83.3105 16.4811 83.3585 16.6875C83.3608 16.7995 83.3361 16.9105 83.2866 17.0108C83.237 17.111 83.1641 17.1976 83.0741 17.263C82.8775 17.3781 82.6564 17.4439 82.4295 17.4548H79.6047L75.2064 17.3589H65.443H43.2809H18.8628L8.30306 17.263H3.60144H0.719797C0.488017 17.261 0.260225 17.2017 0.0562601 17.0903C-0.035762 17.0301 -0.111624 16.9478 -0.164554 16.8508C-0.217483 16.7537 -0.245833 16.6449 -0.24707 16.534C-0.216349 16.3161 -0.116558 16.1141 0.0373033 15.9585L4.53039 10.9516C4.83062 10.5486 5.2291 10.2313 5.68684 10.0308C6.08996 9.86414 6.52156 9.7794 6.95703 9.78143H9.1941H12.2843C12.6362 9.7278 12.994 9.7278 13.3459 9.78143C12.9926 9.81029 12.6376 9.81029 12.2843 9.78143H9.1941L6.95703 10.2227C6.54257 10.2203 6.13355 10.3183 5.76416 10.5085C5.39477 10.6987 5.07574 10.9756 4.83372 11.3161L0.757712 16.1503C0.701026 16.2159 0.650268 16.2866 0.606047 16.3613C0.603042 16.4062 0.614299 16.4509 0.638173 16.4889C0.662048 16.5268 0.697291 16.5561 0.738755 16.5724C0.826209 16.5916 0.916715 16.5916 1.00417 16.5724H3.60144H8.30306H18.8059H43.224H65.3861H75.1496H79.6047H82.0503C82.1299 16.6017 82.2172 16.6017 82.2968 16.5724C82.3352 16.5592 82.3677 16.5327 82.3885 16.4976C82.4094 16.4625 82.4172 16.421 82.4105 16.3805L82.2589 16.2079L79.6616 13.1385L78.3914 11.6806L77.8037 10.99C77.6024 10.791 77.3639 10.6345 77.1023 10.5296C76.618 10.3216 76.0909 10.236 75.5666 10.2802H74.0121L71.4148 10.2035L67.6232 10.1076C67.1666 10.106 66.7106 10.074 66.2582 10.0116Z" fill="white"/>
<path opacity="0.3" d="M67.6234 10.0123C68.0219 9.92495 68.4292 9.88631 68.8367 9.89716H72.344H74.8844H76.3442C76.9166 9.94029 77.4668 10.1391 77.9367 10.4727C78.1678 10.6523 78.3778 10.8583 78.5623 11.0865L79.131 11.7196L80.3254 13.0624L83.0554 16.1126C83.194 16.2714 83.2917 16.4626 83.3397 16.6689C83.3398 16.7759 83.3159 16.8815 83.27 16.9778C83.224 17.0741 83.1571 17.1587 83.0743 17.2252C82.8845 17.3402 82.6697 17.4061 82.4487 17.417H75.2067H65.4432H43.2053H18.5597L8.18956 17.2636H3.52585H0.682127C0.459362 17.2641 0.241516 17.1973 0.0565078 17.0717C-0.0373919 17.0199 -0.114309 16.9415 -0.164819 16.8461C-0.21533 16.7507 -0.23724 16.6424 -0.227864 16.5346C-0.183896 16.3268 -0.0857009 16.1347 0.0565078 15.9783L4.17043 11.3935C4.49272 11.0673 4.70126 10.7604 5.06146 10.4343C5.40267 10.1824 5.78899 9.99997 6.19896 9.89716C6.89214 9.82269 7.59117 9.82269 8.28435 9.89716H11.0902C11.4176 9.8568 11.7486 9.8568 12.076 9.89716C12.3983 10.6453 5.44063 7.55678 0.701086 16.0358C0.701086 16.0358 0.568379 16.1701 0.549421 16.2469C0.54385 16.2696 0.542897 16.2932 0.546618 16.3163C0.550339 16.3393 0.558657 16.3614 0.571068 16.3812C0.583478 16.4009 0.599722 16.4179 0.618813 16.4311C0.637904 16.4442 0.659445 16.4534 0.682127 16.4579C0.769514 16.4777 0.860155 16.4777 0.947542 16.4579H3.48794H8.15165H18.6355H43.2811H65.5191H75.2825H82.1264C82.2074 16.4774 82.2919 16.4774 82.3729 16.4579C82.4093 16.442 82.4398 16.4149 82.4603 16.3805C82.4807 16.3461 82.4899 16.306 82.4866 16.266C82.4469 16.1941 82.3956 16.1293 82.335 16.0742C81.4818 15.0767 80.6856 14.1559 79.9083 13.2542L78.7329 11.8922L78.1831 11.24C78.0307 11.0321 77.8523 10.8451 77.6523 10.6837C77.274 10.3912 76.8191 10.2177 76.3442 10.1849C75.8892 10.1849 75.3773 10.1849 74.9223 10.1849H72.3819L68.8747 10.089C68.4563 10.0938 68.0381 10.0682 67.6234 10.0123Z" fill="white"/>
<path opacity="0.31" d="M68.9507 10.0116C69.3216 9.9578 69.6982 9.9578 70.0692 10.0116H73.2921H75.6429C76.1389 9.9494 76.6424 10.0055 77.1131 10.1754C77.5838 10.3452 78.0088 10.6242 78.3539 10.9899L83.0176 16.2078C83.1555 16.3598 83.2533 16.5446 83.302 16.7449C83.3109 16.8485 83.2928 16.9525 83.2495 17.0468C83.2063 17.141 83.1394 17.2221 83.0555 17.2821C82.8797 17.414 82.6678 17.4877 82.4489 17.4931H75.3017H65.5761H43.2244H18.5788L8.07598 17.2629H0.644378C0.427905 17.2608 0.216867 17.194 0.0377176 17.0711C-0.0461558 17.0111 -0.113046 16.93 -0.156287 16.8358C-0.199529 16.7415 -0.217612 16.6374 -0.208739 16.5339C-0.163806 16.3377 -0.0652678 16.1582 0.075633 16.016L3.86727 11.834L4.64455 10.9899C4.87846 10.6871 5.16818 10.433 5.49767 10.2418C6.08126 9.9357 6.73844 9.8027 7.39349 9.85811H9.93388C10.2232 9.81813 10.5166 9.81813 10.806 9.85811C10.5161 9.89042 10.2237 9.89042 9.93388 9.85811H7.39349C6.80535 9.83491 6.22207 9.97418 5.70621 10.261C5.42162 10.4385 5.17636 10.6736 4.9858 10.9516C4.73934 11.2201 4.49289 11.5271 4.24643 11.8148L0.720211 16.1503C0.720211 16.1503 0.587504 16.2845 0.568546 16.3613C0.555935 16.4071 0.560589 16.456 0.581607 16.4985C0.602625 16.5411 0.638508 16.5742 0.682294 16.5915C0.776192 16.6101 0.87277 16.6101 0.966668 16.5915H8.07598H18.5219H43.1676H65.5192H75.2448H82.0318C82.1127 16.6118 82.1973 16.6118 82.2783 16.5915C82.2783 16.5915 82.4299 16.4764 82.392 16.3996C82.3478 16.3249 82.297 16.2542 82.2403 16.1886L77.9558 11.105C77.6642 10.7866 77.3035 10.5412 76.9021 10.388C76.5007 10.2349 76.0696 10.1783 75.6429 10.2226L73.311 10.1842H70.0882C69.7051 10.157 69.3248 10.0992 68.9507 10.0116Z" fill="white"/>
<path opacity="0.33" d="M70.2771 10.0115C70.6165 9.95942 70.9616 9.95942 71.3009 10.0115H74.2773C74.9219 10.0115 75.6044 10.0115 76.4386 10.0115C76.8767 10.0662 77.301 10.2028 77.6898 10.4144C77.8981 10.5344 78.0841 10.6902 78.2396 10.8748L78.6946 11.3735L82.9981 16.1694C83.1314 16.3173 83.2288 16.4946 83.2824 16.6873C83.2934 16.7891 83.2783 16.892 83.2384 16.9861C83.1985 17.0802 83.1354 17.1623 83.0549 17.2245C82.892 17.3535 82.693 17.4273 82.4862 17.4355C82.2591 17.4537 82.0309 17.4537 81.8037 17.4355H79.7562L75.3958 17.2628L65.7272 17.3587H43.2618L18.3318 17.2628H7.90476H0.605867C0.402009 17.2555 0.204555 17.1889 0.0371231 17.071C-0.0432826 17.0088 -0.106473 16.9268 -0.146328 16.8327C-0.186184 16.7386 -0.201356 16.6356 -0.190377 16.5339C-0.140481 16.3452 -0.0424042 16.1732 0.0939971 16.0351L3.46855 12.2943C3.94251 11.7572 4.37854 11.2584 4.79562 10.8172C5.19644 10.3757 5.72916 10.0792 6.31228 9.97314C6.75925 9.91716 7.21134 9.91716 7.65831 9.97314H8.60622C8.86988 9.92947 9.1388 9.92947 9.40246 9.97314C9.13739 9.99241 8.87129 9.99241 8.60622 9.97314H7.65831C7.22976 9.92766 6.79769 9.92766 6.36915 9.97314C5.86333 10.0904 5.41005 10.3737 5.08 10.7788C4.68187 11.2392 4.24584 11.738 3.79084 12.2943L0.700658 16.1502C0.638191 16.2157 0.581126 16.2863 0.530034 16.3612C0.517423 16.407 0.522079 16.4559 0.543097 16.4985C0.564115 16.541 0.599998 16.5741 0.643784 16.5914C0.734985 16.6287 0.836955 16.6287 0.928156 16.5914H3.37376H7.92372H18.3507H43.2238L65.7272 16.5147H75.4338H79.7941H82.145C82.2323 16.5345 82.323 16.5345 82.4104 16.5147C82.4334 16.4845 82.4459 16.4473 82.4459 16.4092C82.4459 16.371 82.4334 16.3339 82.4104 16.3037C82.3662 16.2289 82.3154 16.1583 82.2587 16.0926L78.3344 11.5078L77.8983 10.9899C77.7689 10.8424 77.6149 10.719 77.4433 10.6254C77.1194 10.4246 76.758 10.294 76.3817 10.2417C75.6613 10.2417 74.9029 10.2417 74.2773 10.2417H71.3009C70.9532 10.1982 70.6104 10.1211 70.2771 10.0115Z" fill="white"/>
<path opacity="0.34" d="M71.6235 10.012C71.9319 9.97166 72.2441 9.97166 72.5524 10.012H75.2445C75.8828 9.95206 76.5264 10.0172 77.1403 10.2039C77.5253 10.3394 77.8707 10.5702 78.1451 10.8753L78.9603 11.7769L82.9794 15.9972C83.1158 16.1354 83.2139 16.3074 83.2638 16.496C83.2773 16.5933 83.2652 16.6925 83.2285 16.7834C83.1919 16.8744 83.1321 16.9539 83.0553 17.014C82.8994 17.1427 82.7065 17.2167 82.5055 17.225C82.2847 17.2437 82.0627 17.2437 81.842 17.225H79.8324L75.5099 17.2633H65.8223H43.2242H18.1615H7.77239H3.26034H0.568282C0.367273 17.2551 0.174342 17.1811 0.0184947 17.0523C-0.0564953 16.9915 -0.11374 16.9111 -0.14713 16.8199C-0.18052 16.7287 -0.188801 16.63 -0.171088 16.5344C-0.0999596 16.3613 -0.0041497 16.1997 0.113286 16.0548L3.16555 12.6785L4.34096 11.374C4.65256 10.9803 5.01617 10.6317 5.42157 10.3381C6.03399 9.99639 6.73621 9.85561 7.43114 9.93529C7.88613 9.93529 8.11363 9.93529 8.11363 9.93529C7.88681 9.96048 7.65796 9.96048 7.43114 9.93529C6.76485 9.91273 6.10637 10.086 5.53532 10.4341C5.17187 10.7375 4.84709 11.0855 4.56845 11.47C4.20825 11.8728 3.82909 12.3332 3.43097 12.8128L0.68203 16.1315C0.619186 16.2035 0.562131 16.2805 0.511408 16.3617C0.496342 16.408 0.49755 16.4581 0.514826 16.5035C0.532103 16.549 0.564384 16.587 0.606197 16.6111C0.795779 16.707 0.966403 16.6111 1.21286 16.6111H3.26034H7.77239H18.1615H43.2242H65.8223H75.5099H79.8324H81.842C82.0884 16.6111 82.2211 16.6111 82.3917 16.6111C82.4306 16.5941 82.4618 16.5631 82.4793 16.5241C82.4969 16.4851 82.4994 16.4409 82.4865 16.4001C82.4423 16.3253 82.3915 16.2547 82.3349 16.1891L78.7139 11.9112L77.9176 10.9904C77.6961 10.7258 77.4078 10.5269 77.0835 10.4149C76.4768 10.1939 75.83 10.1088 75.1876 10.1655H72.4956C72.2006 10.1435 71.9085 10.0921 71.6235 10.012Z" fill="white"/>
<path opacity="0.36" d="M72.9506 10.012C73.2332 9.96607 73.5212 9.96607 73.8037 10.012C74.3535 10.012 75.1498 10.012 76.2304 10.012C76.8537 10.0346 77.4555 10.2487 77.9556 10.6258C78.4675 11.1054 78.8845 11.6234 79.4154 12.1797L82.9605 16.1506C83.0826 16.2923 83.1788 16.4546 83.2449 16.6302C83.2648 16.7259 83.2576 16.8253 83.224 16.9169C83.1905 17.0086 83.132 17.0887 83.0553 17.1482C82.7899 17.2633 82.316 17.2633 81.8799 17.2633H79.9841H75.6237H65.9551H43.2053H17.934H7.58286H3.16561H1.15604C0.759272 17.3323 0.351501 17.2429 0.0185551 17.0139C-0.0569928 16.9585 -0.113882 16.8809 -0.144403 16.7917C-0.174923 16.7025 -0.177599 16.6059 -0.152069 16.5151C-0.0810457 16.3479 0.0148547 16.1926 0.132303 16.0547L4.64435 11.1054C5.00687 10.612 5.53103 10.2652 6.12309 10.1271C6.31629 10.0806 6.51758 10.0806 6.71079 10.1271C6.71079 10.1271 6.52121 10.1271 6.161 10.2997C5.62435 10.4796 5.15909 10.8293 4.83393 11.2972L0.663133 16.1315C0.595952 16.1998 0.538523 16.2773 0.492509 16.3617C0.492509 16.3617 0.492509 16.5535 0.492509 16.611C0.492509 16.6686 0.871672 16.611 1.08021 16.611H3.16561H7.60182H17.953H43.2432H65.993H75.6617H81.9178C82.1264 16.611 82.297 16.611 82.4676 16.611C82.4938 16.5749 82.5079 16.5312 82.5079 16.4863C82.5079 16.4415 82.4938 16.3978 82.4676 16.3617L82.297 16.1698L78.9983 12.3331C78.5243 11.7576 78.0504 11.1821 77.6333 10.7601C77.2082 10.4076 76.6842 10.1995 76.1356 10.1654H73.7279C73.4657 10.1321 73.206 10.0808 72.9506 10.012Z" fill="white"/>
<path opacity="0.38" d="M74.2971 10.0123C74.2971 10.0123 74.5436 10.0123 75.0365 10.0123H75.9465C76.3783 9.98936 76.8103 10.0546 77.2167 10.2041C77.4629 10.2945 77.6933 10.424 77.8992 10.5878C78.1152 10.7711 78.3179 10.9698 78.5058 11.1825L79.7571 12.5829C80.686 13.6188 81.7667 14.789 82.9421 16.1126C83.0635 16.2475 83.1598 16.4035 83.2264 16.573C83.2491 16.6622 83.247 16.756 83.2202 16.8441C83.1934 16.9321 83.1431 17.0109 83.0748 17.0718C82.7445 17.3075 82.3365 17.4038 81.9373 17.3403H75.7569L66.1262 17.2636H43.2247H17.6691H7.35583H3.01441H1.1186C0.932899 17.2954 0.742714 17.2879 0.560005 17.2417C0.377296 17.1955 0.206015 17.1115 0.0569383 16.995C-0.00932526 16.9373 -0.0559612 16.8599 -0.076374 16.7738C-0.0967868 16.6878 -0.0899422 16.5974 -0.0568097 16.5155C0.00627538 16.36 0.0961407 16.2171 0.208604 16.0934L4.00024 11.8731C4.43628 11.3935 4.77752 11.029 5.02398 10.7988C5.15161 10.6779 5.29919 10.5805 5.46002 10.5111C5.46002 10.5111 5.32731 10.6262 5.09981 10.8755L4.17086 12.0265L0.644642 16.1318L0.45506 16.3428C0.424241 16.3806 0.407387 16.4281 0.407387 16.4771C0.407387 16.5261 0.424241 16.5736 0.45506 16.6114C0.606725 16.7457 0.834224 16.6114 1.02381 16.6114H2.91962H7.26104H17.5743H43.1299H66.0314H75.6621H81.8235C82.0131 16.6114 82.2027 16.6114 82.3733 16.6114C82.3995 16.5752 82.4136 16.5315 82.4136 16.4867C82.4136 16.4418 82.3995 16.3982 82.3733 16.362L82.2027 16.151L79.4538 12.7363L78.2404 11.2976C77.9532 10.885 77.5598 10.5599 77.1029 10.3576C76.4337 10.1508 75.7361 10.0536 75.0365 10.0698C74.7888 10.076 74.541 10.0568 74.2971 10.0123Z" fill="white"/>
<path opacity="0.39" d="M75.6425 10.0123C75.8558 9.97507 76.0738 9.97507 76.2871 10.0123C76.9436 10.0198 77.5757 10.2648 78.0692 10.7029L80.1167 12.9474L82.9225 16.0551C83.039 16.1866 83.1349 16.3354 83.2068 16.4963C83.2325 16.5807 83.2336 16.6708 83.2101 16.7558C83.1866 16.8408 83.1394 16.9172 83.0741 16.9759C82.7898 17.2636 82.4485 17.2636 82.0125 17.2636H75.9269H66.3151H43.2241H17.3651H7.08979H2.86212H0.966302C0.792721 17.2887 0.6158 17.2741 0.448502 17.221C0.281204 17.1679 0.127768 17.0776 -0.000565182 16.9567C-0.0404994 16.8867 -0.0615234 16.8073 -0.0615234 16.7265C-0.0615234 16.6457 -0.0404994 16.5663 -0.000565182 16.4963C0.0795075 16.3627 0.16817 16.2345 0.26485 16.1126C1.6488 14.6163 2.71045 13.4269 3.44982 12.6404C3.78661 12.2097 4.17508 11.823 4.60627 11.4894C4.3007 11.9405 3.96499 12.37 3.60149 12.7747C2.93795 13.5612 1.95213 14.693 0.719845 16.2277C0.606096 16.3428 0.378599 16.5155 0.56818 16.7073C0.757762 16.8991 0.947344 16.8032 1.13693 16.8032H3.03274H7.26041H17.5357H43.3947H66.4857H76.0975H80.2494H82.1452C82.3348 16.8032 82.5433 16.8032 82.695 16.8032C82.7243 16.7685 82.7405 16.7243 82.7405 16.6785C82.7405 16.6328 82.7243 16.5886 82.695 16.5538L82.5244 16.3428L77.8796 10.8372C77.4413 10.4108 76.8734 10.1471 76.2681 10.089C75.87 10.0315 75.6236 10.0315 75.6425 10.0123Z" fill="white"/>
<path opacity="0.41" d="M76.9513 10.1465C76.9513 10.1465 77.1598 10.1465 77.5011 10.3191C77.9716 10.5927 78.3839 10.9578 78.7144 11.3934L82.9042 16.0166C83.0119 16.1368 83.1014 16.2726 83.1696 16.4195C83.2065 16.496 83.2172 16.5827 83.2001 16.6661C83.1829 16.7494 83.1388 16.8246 83.0748 16.8799C82.7904 17.2635 82.506 17.2635 82.089 17.2635H80.1931H76.0982H66.6191H43.2247H16.9676H6.76814H2.65422H0.758403C0.600491 17.288 0.439016 17.2708 0.289574 17.2137C0.140132 17.1566 0.00777381 17.0614 -0.0947143 16.9374C-0.284296 16.6113 -0.0947141 16.3811 0.151742 16.1509L2.65422 13.4268C2.92819 13.0974 3.23294 12.7955 3.56421 12.5252C3.33853 12.889 3.0782 13.2295 2.78693 13.5419C2.27506 14.175 1.51673 15.0766 0.530905 16.2468C0.436114 16.3811 0.208618 16.5346 0.360283 16.7264C0.511949 16.9182 0.720488 16.8799 0.91007 16.8607H2.59735H6.71127H16.9108H43.1678H66.4864H75.9655H80.0604H81.8614C82.051 16.8607 82.2596 16.8607 82.4112 16.8607C82.4279 16.8446 82.4411 16.8252 82.4501 16.8038C82.4592 16.7823 82.4638 16.7593 82.4638 16.736C82.4638 16.7127 82.4592 16.6896 82.4501 16.6682C82.4411 16.6468 82.4279 16.6274 82.4112 16.6113L82.2406 16.4003L78.5438 11.5085C78.1492 10.9128 77.5975 10.441 76.9513 10.1465Z" fill="white"/>
<path opacity="0.43" d="M78.0879 10.8564C78.5418 11.2529 78.9663 11.6825 79.3581 12.1417L82.8843 15.9784C82.9853 16.0969 83.0743 16.2255 83.1497 16.3621C83.1862 16.4297 83.2054 16.5056 83.2054 16.5827C83.2054 16.6598 83.1862 16.7356 83.1497 16.8033C83.0343 16.9266 82.8917 17.0204 82.7335 17.0771C82.5753 17.1338 82.4061 17.1517 82.2397 17.1294H80.3439L76.3248 17.2637H66.8457H43.2238H16.4359H6.35017H2.40687H0.643762C0.50123 17.2701 0.359798 17.2357 0.235717 17.1645C0.111636 17.0932 0.00993916 16.988 -0.0576896 16.8608C-0.15248 16.5731 0.0750169 16.4004 0.226682 16.1894C1.04188 15.3262 1.64854 14.6548 2.1225 14.2711C2.29427 13.9686 2.49766 13.6856 2.72916 13.427C2.57172 13.6948 2.38749 13.9455 2.17937 14.1752L0.56793 16.0935C0.473139 16.2278 0.264599 16.3429 0.340432 16.5347C0.396847 16.6158 0.475066 16.6788 0.5658 16.7162C0.656534 16.7536 0.75597 16.7638 0.852302 16.7457H2.40687H6.35017H16.4738H43.2238H66.8078H76.2869H80.287H82.0122C82.2018 16.7457 82.4103 16.7457 82.5431 16.6306C82.6758 16.5155 82.5431 16.2853 82.3914 16.1702L79.1685 12.3336C78.7688 11.8721 78.4074 11.378 78.0879 10.8564Z" fill="white"/>
<path opacity="0.44" d="M78.9984 11.8726C79.3854 12.1748 79.7354 12.5225 80.0411 12.9085L82.7901 16.0162C82.9797 16.2464 83.2072 16.4766 83.0555 16.7835C82.9619 16.9099 82.8378 17.0098 82.695 17.0736C82.5522 17.1375 82.3957 17.1631 82.2403 17.148H80.3445L76.5908 17.2631H67.1117H43.2244H15.7729H5.78199H1.99035H1.26994C0.992225 17.2826 0.713502 17.2826 0.435784 17.2631C0.316002 17.2491 0.203704 17.197 0.115106 17.1143C0.0265076 17.0315 -0.0338064 16.9224 -0.0571289 16.8027C-0.0571289 16.5533 0.132453 16.419 0.26516 16.2464C0.761555 15.6819 1.28678 15.144 1.83869 14.635C1.43855 15.2192 1.00161 15.7766 0.530573 16.3039C0.530573 16.4382 0.284117 16.5341 0.284117 16.7068C0.305611 16.7912 0.354873 16.8657 0.423792 16.918C0.49271 16.9703 0.577177 16.9973 0.663282 16.9945H2.04723H5.83886H15.8298H43.2812H67.1875H76.6666H80.572H82.2024C82.2934 17.0191 82.3893 17.0177 82.4796 16.9907C82.57 16.9636 82.6511 16.9118 82.7142 16.8411C82.847 16.6684 82.6195 16.5149 82.5436 16.3807C81.4061 15.057 80.5341 14.0019 79.9274 13.2921C79.585 12.8417 79.2746 12.3673 78.9984 11.8726Z" fill="white"/>
<path opacity="0.46" d="M79.851 12.8696C80.1442 13.1014 80.4112 13.3652 80.6473 13.6561L82.7895 16.0349C82.9412 16.2459 83.1687 16.4186 83.0739 16.7063C83.0077 16.8304 82.909 16.9337 82.7886 17.0048C82.6682 17.0759 82.5308 17.112 82.3914 17.1092H80.6662H76.8746L67.623 17.2626H43.2238H14.5401L4.71978 17.1667H1.38314H0.738562C0.528482 17.1829 0.319717 17.1216 0.150858 16.9941C0.0759618 16.9431 0.0227114 16.8655 0.00164616 16.7767C-0.019419 16.6879 -0.00676255 16.5943 0.0371099 16.5145C0.116626 16.3873 0.212226 16.2712 0.321482 16.1692C0.512056 15.9466 0.721383 15.7412 0.947101 15.5553C0.815854 15.7914 0.656699 16.0104 0.473147 16.2075L0.245649 16.4953C0.245649 16.5912 0.245649 16.783 0.378356 16.8598C0.533894 16.8996 0.696772 16.8996 0.85231 16.8598H1.45897H4.79561L14.5401 16.6488H43.148L67.623 16.6296H77.1021H80.8937H82.3914C82.581 16.6296 82.8085 16.6296 82.8843 16.4377C82.9601 16.2459 82.7516 16.1308 82.6758 15.9965L80.78 13.637C80.4436 13.4162 80.1321 13.1589 79.851 12.8696Z" fill="white"/>
<path opacity="0.48" d="M80.7424 13.8867C80.9446 14.0376 81.129 14.2114 81.2922 14.4047L82.7899 16.0353C82.9416 16.2271 83.1312 16.3614 83.1122 16.6108C83.0841 16.7349 83.0174 16.8466 82.9218 16.9295C82.8262 17.0124 82.7069 17.0621 82.5814 17.0712C82.3539 17.0712 81.9747 17.0712 81.7472 17.0712H80.8941L77.3868 17.263H68.0784H43.2242C31.2237 17.263 20.3796 17.263 12.512 17.263L3.16561 17.0712H0.5873C0.47547 17.0811 0.363096 17.0595 0.262684 17.0087C0.162272 16.9579 0.0777607 16.8799 0.0185547 16.7834C0.0185547 16.6299 0.0185547 16.534 0.0185547 16.534C0.0185547 16.534 0.0185547 16.534 0.0185547 16.745C0.088814 16.8241 0.178172 16.8834 0.277873 16.917C0.377574 16.9506 0.484199 16.9575 0.5873 16.9369H3.07082L12.3603 16.8218C20.228 16.8218 31.072 16.7067 43.0726 16.7067H67.9267H77.2352H80.8183H82.2022C82.2518 16.7392 82.308 16.7602 82.3666 16.7681C82.4252 16.7759 82.4848 16.7705 82.5411 16.7521C82.5974 16.7338 82.6489 16.7029 82.692 16.6619C82.735 16.6208 82.7685 16.5706 82.7899 16.5148C82.7899 16.323 82.6383 16.2271 82.5624 16.112L81.2353 14.5006C81.0412 14.3225 80.8749 14.1155 80.7424 13.8867Z" fill="white"/>
<path opacity="0.49" d="M81.6331 14.9033C82.0369 15.2479 82.4111 15.6265 82.7516 16.0351C82.8755 16.1691 82.9837 16.3172 83.0739 16.4764C83.0896 16.5798 83.07 16.6856 83.0183 16.7763C82.9666 16.8669 82.8859 16.9371 82.7896 16.9751C82.5722 17.059 82.3388 17.0918 82.1071 17.071H81.3866H78.05L68.8743 17.2629H43.2239C31.6025 17.2629 21.0807 17.2629 13.4595 17.2629L4.4544 17.071H1.98984H1.13672C1.42019 17.0386 1.70637 17.0386 1.98984 17.071H4.4544L13.4595 16.9559C21.0428 16.9559 31.6025 16.9559 43.2239 16.9559H68.8743L78.05 17.0519H81.3866C81.7779 17.081 82.1708 17.081 82.5621 17.0519C82.7137 17.0519 82.8464 16.8408 82.7896 16.6874C82.7327 16.5339 82.6379 16.4764 82.5621 16.3613C82.2135 15.9019 81.9028 15.4142 81.6331 14.9033Z" fill="white"/>
<path opacity="0.51" d="M82.5243 15.9199L82.6949 16.0542C82.6949 16.1693 82.9793 16.2844 83.0362 16.5338C83.0931 16.7832 82.7139 17.0517 82.3537 17.0326H79.5289L70.6565 17.2628H43.224C31.9629 17.2628 21.7823 17.2628 14.4076 17.2628H5.68684L14.4076 17.1477C21.7823 17.1477 31.9629 17.1477 43.224 17.1477H70.6565L79.5289 17.2436H82.2399C82.5433 17.2436 82.8845 17.2436 82.8656 16.8983C82.8466 16.553 82.676 16.5913 82.6191 16.4762C82.5622 16.3611 82.5054 15.9199 82.5243 15.9199Z" fill="white"/>
<path opacity="0.52" d="M82.6193 16.9185C82.3563 16.9688 82.0862 16.9688 81.8231 16.9185H79.5102L71.0738 17.2638C63.9455 17.2638 54.0115 17.3597 43.2243 17.3597C32.4371 17.3597 22.484 17.2638 15.3558 17.2638L6.95729 17.0719H15.3937C22.5219 17.0719 32.456 16.976 43.2622 16.976C54.0683 16.976 63.9835 16.976 71.1117 17.0719H79.5481H81.861L82.6193 16.9185Z" fill="white"/>
<path opacity="0.54" d="M81.2733 16.937H80.496H78.2779L70.1259 17.2631H43.2243H16.3037L8.15164 17.148L16.3037 17.0329L43.2243 16.937L70.1259 17.0329L78.2779 17.148H80.496L81.2733 16.937Z" fill="white"/>
<path opacity="0.56" d="M79.9459 16.937H79.1876L77.1022 17.0521H69.2345L43.2239 17.2631L17.2512 17.1672L43.2239 17.0713L69.1777 17.1672H77.0453H79.1876L79.9459 16.937Z" fill="white"/>
<path opacity="0.57" d="M78.6 16.937H77.8795H75.8131H68.2298L43.224 17.2631H68.2298H75.8131H77.8795L78.6 16.937Z" fill="white"/>
<path opacity="0.59" d="M77.2536 16.937H76.5711H74.6753H67.3764L43.2237 17.2631L19.1468 17.1672H43.2237H67.2816H74.5805H76.4763L77.2536 16.937Z" fill="white"/>
<path opacity="0.61" d="M75.9267 16.937H75.2631H73.3673H66.3528L43.2238 17.2631H66.3338H73.3484H75.2442L75.9267 16.937Z" fill="white"/>
<path opacity="0.62" d="M74.5804 16.937H73.9548H72.0589H65.3478L43.2236 17.2631H65.4046H72.1158H74.0116L74.5804 16.937Z" fill="white"/>
<path opacity="0.64" d="M73.3107 16.937H72.6851H70.9409H64.5141L43.2241 17.2631H64.4572H70.884H72.6282L73.3107 16.937Z" fill="white"/>
<path opacity="0.66" d="M71.9079 16.937C71.713 16.9653 71.5151 16.9653 71.3202 16.937H69.6518H63.5094L43.2242 17.2631H22.92H16.7775H15.1092C14.9143 17.2915 14.7164 17.2915 14.5215 17.2631H15.1092H16.7775H22.92H43.2242H63.5094H69.6518H71.3202L71.9079 16.937Z" fill="white"/>
<path opacity="0.67" d="M70.562 16.937C70.3798 16.9658 70.1944 16.9658 70.0122 16.937H68.4197H62.5617L43.2243 17.2631H23.868H18.0099H16.4175C16.2353 17.2919 16.0498 17.2919 15.8677 17.2631C16.0498 17.2344 16.2353 17.2344 16.4175 17.2631H18.0099H23.868H43.2243H62.5617H68.4197H70.0122C70.1746 17.1219 70.3609 17.0114 70.562 16.937Z" fill="white"/>
<path opacity="0.69" d="M69.2345 16.9371H68.7037H67.187H61.6133H43.2239H24.8155H19.2418H17.7252H17.1943C17.3702 16.909 17.5493 16.909 17.7252 16.9371H19.2418H24.8155H43.2239H61.6133H67.187H68.7037C68.8795 16.909 69.0586 16.909 69.2345 16.9371Z" fill="white"/>
<path opacity="0.7" d="M67.8886 16.9376H67.3957H65.9549H60.6656H43.2241H25.7636H20.4743H19.0334H18.5405C18.7036 16.9088 18.8704 16.9088 19.0334 16.9376H20.4743H25.7636H43.2241H60.6656H65.9549H67.3957C67.5588 16.9088 67.7256 16.9088 67.8886 16.9376Z" fill="white"/>
<path opacity="0.8" d="M59.8688 16.937H59.5276H58.5607H54.9776H43.2235H31.4505L27.8106 16.9949H31.3747H43.1477H54.9018H58.4849H59.4517L59.8688 16.937Z" fill="white"/>
<path opacity="0.85" d="M55.85 16.937H54.8453H52.1532H34.2756L31.6025 16.9756H34.2946H43.2429H52.1722H54.8642H55.869L55.85 16.937Z" fill="white"/>
</g>
</g>
<path opacity="0.02" d="M81.7653 16.7278C81.4945 16.76 81.2209 16.76 80.9501 16.7278H78.6182L69.9923 16.8429C62.6934 16.8429 52.6455 16.9388 41.555 16.9388C30.4645 16.9388 20.3977 16.9388 13.1178 16.8429L4.49178 16.7278H2.15993C1.88924 16.7619 1.61542 16.7619 1.34473 16.7278C1.61586 16.702 1.88879 16.702 2.15993 16.7278H4.49178L13.1178 16.6318C20.4166 16.6318 30.4645 16.6318 41.555 16.6318C52.6455 16.6318 62.7313 16.6318 69.9923 16.6318L78.6182 16.7278H80.9501H81.7653Z" fill="white"/>
<path opacity="0.03" d="M81.102 16.728C80.8376 16.7615 80.5702 16.7615 80.3058 16.728H77.9929L69.5186 16.9582C62.3524 16.9582 52.4562 17.0541 41.5174 17.0541C30.5785 17.0541 20.6634 17.0541 13.5351 16.9582L5.0608 16.8623H2.7479C2.48352 16.8958 2.21604 16.8958 1.95166 16.8623C2.21649 16.8371 2.48307 16.8371 2.7479 16.8623H5.0608L13.5351 16.7472C20.7013 16.7472 30.5975 16.7472 41.5174 16.7472C52.4373 16.7472 62.3713 16.7472 69.5186 16.7472L77.9929 16.8623H80.3058C80.5664 16.7921 80.833 16.7471 81.102 16.728Z" fill="white"/>
<path opacity="0.05" d="M80.438 16.7279C80.1736 16.7614 79.9062 16.7614 79.6418 16.7279H77.3858L69.0442 16.8238C61.9917 16.8238 52.2662 16.9197 41.5169 16.9197C30.7676 16.9197 21.061 16.9197 14.0086 16.8238L5.66701 16.7279H3.41099C3.14661 16.7614 2.87913 16.7614 2.61475 16.7279C2.87957 16.7027 3.14616 16.7027 3.41099 16.7279H5.66701L14.0086 16.6128C21.061 16.6128 30.7866 16.6128 41.5169 16.6128C52.2472 16.6128 61.9917 16.6128 69.0442 16.6128L77.3858 16.7279H79.6418C79.9066 16.7027 80.1732 16.7027 80.438 16.7279Z" fill="white"/>
<path opacity="0.07" d="M79.7753 16.7278C79.5172 16.7605 79.2561 16.7605 78.998 16.7278H76.7609L68.571 16.8237C61.6513 16.8237 52.0963 16.9196 41.5177 16.9196C30.939 16.9196 21.4031 17.0155 14.5402 16.958L6.35029 16.862H4.11322C3.85513 16.8947 3.59402 16.8947 3.33594 16.862H4.11322H6.35029L14.5402 16.4976C21.4599 16.4976 31.0149 16.4976 41.5746 16.4976C52.1343 16.4976 61.7081 16.4976 68.6279 16.4976L76.8178 16.6127H79.0549L79.7753 16.7278Z" fill="white"/>
<path opacity="0.08" d="M79.1113 16.728H78.353H76.1538L68.0966 16.8244L41.5552 16.9208L15.0137 16.8244L6.9565 16.863L15.0137 16.7666H41.5552H68.0966L76.1538 16.863H78.353L79.1113 16.728Z" fill="white"/>
<path opacity="0.1" d="M78.4475 16.7281H77.6892H75.5469L67.6224 16.9583H41.517H15.4306L7.50607 16.8432L15.4306 16.7473H41.517L67.6224 16.5171L75.5469 16.613H77.6892L78.4475 16.7281Z" fill="white"/>
<path opacity="0.11" d="M77.7845 16.728H77.0452H74.9218L67.1679 16.8244L41.5175 16.9208L15.8861 16.9401L8.13222 16.8437L15.8861 16.7473H41.5175H67.1679L74.9218 16.8437H77.0452L77.7845 16.728Z" fill="white"/>
<path opacity="0.13" d="M77.1017 16.728H76.3813H74.3148L66.7316 16.8244L41.5551 16.9208L16.4355 16.9401L8.85228 16.8437L16.4355 16.7473H41.593H66.7695L74.3528 16.8437H76.4192L77.1017 16.728Z" fill="white"/>
<path opacity="0.15" d="M75.7368 16.7282H73.7083L66.125 16.8246H41.4794H16.8337L9.25048 16.7282L16.8337 16.6318H41.4794H66.125L73.7083 16.7282H75.7368Z" fill="white"/>
<path opacity="0.16" d="M75.7746 16.728H75.0921H73.0825L65.7268 16.939H41.4982H17.2886L9.95183 16.8431H7.94226H7.25977C7.48658 16.8179 7.71544 16.8179 7.94226 16.8431H9.95183H17.2886H41.4982L65.7268 16.5361H73.0636H75.0731C75.3135 16.5723 75.5489 16.6367 75.7746 16.728Z" fill="white"/>
<path opacity="0.18" d="M74.5239 16.7282H72.6281L65.424 16.8246H41.6694H17.9338L10.7297 16.7282H8.83386H8.15137C8.37818 16.7029 8.60704 16.7029 8.83386 16.7282H10.7297L17.9338 16.6318H41.6694H65.424L72.6281 16.7282H74.5239Z" fill="white"/>
<path opacity="0.2" d="M74.4476 16.728H73.7841H71.8883H64.8169H41.5362L18.3314 16.9198H11.26L18.3314 16.5361H41.5931H64.8737L71.9451 16.6321H73.841L74.4476 16.728Z" fill="white"/>
<path opacity="0.21" d="M73.1206 16.7282H71.2248H64.324H41.5742H18.8244H11.9236L18.8244 16.6318H41.5742H64.324L71.2248 16.7282H73.1206Z" fill="white"/>
<path opacity="0.23" d="M73.1203 16.7283H72.4757H70.5799L63.8308 16.9201H41.4791H19.1464L41.4791 16.8242L63.8308 16.5557H70.5988H72.4946L73.1203 16.7283Z" fill="white"/>
<path opacity="0.25" d="M72.4568 16.7286H71.8123H69.9164L63.3 16.825H41.4223H19.5635L12.9471 16.7286H11.0513H10.4067C10.6207 16.6999 10.8374 16.6999 11.0513 16.7286H12.9471H19.5635H41.4223H63.3H69.9164H71.8123C72.0262 16.6999 72.2429 16.6999 72.4568 16.7286Z" fill="white"/>
<path opacity="0.26" d="M71.7743 16.728H71.1676H69.4045L62.9208 16.8244H41.517L20.227 16.9208L13.7433 16.8244H11.9802H11.3735C11.5747 16.7954 11.779 16.7954 11.9802 16.8244H13.7433H20.227H41.6118H63.0156H69.4993H71.2624C71.4286 16.7714 71.6004 16.7391 71.7743 16.728Z" fill="white"/>
<path opacity="0.28" d="M71.1104 16.7284H70.5227H68.7975H62.4466H41.5926H20.7386H14.3876H12.6624H12.0747C12.2696 16.6999 12.4675 16.6999 12.6624 16.7284H14.3876H20.7386H41.5926H62.4466H68.7975H70.5227C70.7176 16.6999 70.9155 16.6999 71.1104 16.7284Z" fill="white"/>
<path opacity="0.3" d="M70.4477 16.7283C70.2526 16.754 70.055 16.754 69.86 16.7283H68.1727L61.9354 16.901H41.4796H21.0427H14.8433H13.1561C12.961 16.9267 12.7634 16.9267 12.5684 16.901H13.1561H14.8433H21.0427H41.4796L61.9354 16.5557H68.1348H69.822L70.4477 16.7283Z" fill="white"/>
<path opacity="0.38" d="M67.1298 16.728C66.954 16.7562 66.7749 16.7562 66.599 16.728H65.1013H59.6224H41.5174H23.4313H17.9334H16.4547C16.2788 16.7562 16.0997 16.7562 15.9238 16.728H16.4547H17.9334H23.4313H41.5174H59.6224H65.1013H66.599H67.1298Z" fill="white"/>
<path opacity="0.39" d="M66.4475 16.728C66.2844 16.7568 66.1177 16.7568 65.9546 16.728H64.4948H59.1486H41.5175H23.9053H18.5591H17.0994C16.9363 16.7568 16.7695 16.7568 16.6064 16.728H17.0994H18.5591H23.9053H41.5175H59.1486H64.4948H65.9546H66.4475Z" fill="white"/>
<path opacity="0.41" d="M65.7267 16.728C65.5636 16.7568 65.3969 16.7568 65.2338 16.728H63.8309H58.6174H41.5551H24.4927H19.2982H17.8953C17.7322 16.7568 17.5654 16.7568 17.4023 16.728H17.8953H19.2982H24.4927H41.6498H58.807H64.0205H65.4234H65.7267Z" fill="white"/>
<path opacity="0.43" d="M65.1201 16.728C64.9636 16.7583 64.8028 16.7583 64.6462 16.728H63.2622L58.1435 16.8823H41.4414H24.7582H19.7153H18.3314C18.1748 16.9125 18.014 16.9125 17.8574 16.8823H18.3314H19.7153H24.7582H41.4414H58.1435H63.1864H64.5704L65.1201 16.728Z" fill="white"/>
<path opacity="0.44" d="M64.4565 16.728C64.3062 16.7572 64.1518 16.7572 64.0015 16.728H62.6555H57.7453H41.5171H25.3079H20.3977H19.0517C18.9014 16.7572 18.747 16.7572 18.5967 16.728H19.0517H20.3977H25.3079H41.5171H57.7453H62.6555H64.0015H64.4565Z" fill="white"/>
<path opacity="0.46" d="M63.8311 16.728C63.6808 16.7572 63.5264 16.7572 63.3761 16.728H62.0869H57.3095H41.5552H25.82H21.0425H19.7533C19.603 16.7572 19.4486 16.7572 19.2983 16.728H19.7533H21.0425H25.82H41.5552H57.3095H62.0869H63.3761H63.8311Z" fill="white"/>
<path opacity="0.48" d="M63.1299 16.728C62.9859 16.7566 62.8379 16.7566 62.6939 16.728H61.4237H56.7979H41.5176H26.3511H21.7253H20.4551C20.3111 16.7566 20.163 16.7566 20.019 16.728H20.4551H21.7253H26.3511H41.6124H56.8927H61.5185H62.7887H63.1299Z" fill="white"/>
<path opacity="0.49" d="M62.4661 16.728H62.0301H60.8168L56.2479 16.863H60.741H61.9543L62.4661 16.728Z" fill="white"/>
<path opacity="0.54" d="M60.4564 16.728H60.0772H58.9776H54.9206H41.5172H28.1327L24.0188 16.7859H28.0758H41.4603H54.8637H58.9208H60.0203L60.4564 16.728Z" fill="white"/>
<path opacity="0.59" d="M58.4661 16.728H58.1249H57.1391H53.4991H41.5175H29.5549L25.915 16.7859H29.5549H41.5175H53.4991H57.1391H58.1249L58.4661 16.728Z" fill="white"/>
<path opacity="0.64" d="M56.4754 16.728H56.1721H55.3H52.0961H41.5174H30.9577L27.8107 16.7859H26.9386H26.6353H27.8107H31.0146H41.5743H52.153H55.3569H56.5323L56.4754 16.728Z" fill="white"/>
<g opacity="0.4">
<mask id="mask1_157_4909" style="mask-type:luminance" maskUnits="userSpaceOnUse" x="0" y="16" width="83" height="131">
<path d="M0.149902 16.5923H82.9592V144.219C82.9592 144.86 82.7075 145.475 82.2596 145.929C81.8116 146.382 81.204 146.637 80.5705 146.637H2.53863C1.9051 146.637 1.29752 146.382 0.849545 145.929C0.401571 145.475 0.149902 144.86 0.149902 144.219V16.5923Z" fill="white"/>
</mask>
<g mask="url(#mask1_157_4909)">
<path style="mix-blend-mode:screen" opacity="0.6" d="M10.6154 9.07324H-4.41846V147.174H10.6154V9.07324Z" fill="url(#paint2_linear_157_4909)"/>
<path style="mix-blend-mode:screen" opacity="0.3" d="M69.6503 147.154H84.6841L84.6841 9.05255H69.6503L69.6503 147.154Z" fill="url(#paint3_linear_157_4909)"/>
</g>
</g>
<path opacity="0.02" d="M82.7893 144.911C82.7893 144.911 82.922 145.275 82.6186 145.851C82.4236 146.197 82.1509 146.493 81.8224 146.714C81.5909 146.841 81.3501 146.95 81.102 147.04C80.828 147.104 80.5488 147.142 80.2678 147.155C78.1255 147.328 75.0543 147.462 71.2437 147.577C63.6605 147.826 53.1197 147.98 41.4984 147.98C29.877 147.98 19.3742 147.826 11.753 147.577C7.96135 147.462 4.87117 147.328 2.74786 147.155C2.46055 147.144 2.17492 147.105 1.89474 147.04C1.65121 146.954 1.41633 146.845 1.19329 146.714C0.869221 146.475 0.608684 146.159 0.43496 145.793C0.131629 145.217 0.188503 144.872 0.264336 144.853C0.340169 144.834 0.491833 145.102 0.852038 145.467C1.10387 145.703 1.40496 145.88 1.73309 145.982C2.06123 146.085 2.40801 146.112 2.74786 146.062C4.87117 145.889 7.94239 145.755 11.753 145.62C19.3363 145.39 29.877 145.237 41.4984 145.237C53.1197 145.237 63.6225 145.39 71.2437 145.62C75.0354 145.755 78.1255 145.889 80.2678 146.062C80.6077 146.114 80.9548 146.087 81.2832 145.984C81.6116 145.881 81.9126 145.705 82.1636 145.467C82.6186 145.16 82.7893 144.872 82.7893 144.911Z" fill="#5B5B5B"/>
<path opacity="0.03" d="M82.5614 145.545C82.5614 145.545 82.5614 145.928 82.1444 146.37C81.865 146.651 81.5191 146.856 81.1396 146.964C80.6603 147.076 80.1714 147.14 79.6798 147.156C77.5754 147.31 74.5611 147.444 70.8074 147.578C63.2241 147.808 52.9867 147.962 41.5549 147.962C30.1231 147.962 19.7909 147.808 12.3024 147.578C8.51081 147.444 5.53438 147.31 3.43002 147.156C2.93843 147.14 2.44953 147.076 1.97024 146.964C1.59069 146.856 1.2448 146.651 0.965457 146.37C0.529419 145.928 0.491502 145.583 0.548377 145.545C0.962839 145.838 1.43314 146.04 1.92928 146.14C2.42543 146.239 2.93654 146.232 3.43002 146.12C5.53438 145.967 8.56768 145.813 12.3024 145.698C19.7909 145.468 30.1421 145.314 41.5549 145.314C52.9677 145.314 63.3189 145.468 70.8074 145.698C74.599 145.813 77.5754 145.967 79.6798 146.12C80.1731 146.234 80.6847 146.242 81.1812 146.143C81.6777 146.044 82.148 145.84 82.5614 145.545Z" fill="#5B5B5B"/>
<path opacity="0.05" d="M82.107 146.082C82.107 146.082 82.107 146.446 81.4813 146.734C81.1472 146.911 80.7778 147.009 80.4007 147.022L78.9978 147.137C76.9314 147.29 73.9549 147.444 70.2771 147.559C62.9213 147.789 52.7597 147.943 41.5175 147.943C30.2753 147.943 20.2275 147.712 12.7959 147.559C9.118 147.444 6.14157 147.29 4.07512 147.137L2.71014 147.022C2.33916 147.009 1.97596 146.911 1.64848 146.734C1.09869 146.446 0.965985 146.12 1.02286 146.082C1.07973 146.043 1.32619 146.082 1.8191 146.235C2.11405 146.285 2.41519 146.285 2.71014 146.235L4.07512 146.12C6.14157 145.948 9.118 145.813 12.7959 145.698C20.1517 145.468 30.3322 145.314 41.5554 145.314C52.7787 145.314 62.9592 145.468 70.315 145.698C73.9929 145.813 76.9693 145.948 79.0357 146.12L80.4007 146.235C80.6957 146.285 80.9968 146.285 81.2918 146.235C81.7847 146.159 82.0311 145.986 82.107 146.082Z" fill="#5B5B5B"/>
<path opacity="0.07" d="M81.4997 146.446C81.4997 146.446 81.3291 146.753 80.7414 146.888C80.1537 147.022 79.4143 147.06 78.3906 147.137C76.3621 147.29 73.4425 147.425 69.8215 147.54C62.5984 147.77 52.5885 147.924 41.5549 147.924C30.5212 147.924 20.5302 147.77 13.2882 147.54C9.66721 147.425 6.74766 147.29 4.71913 147.137C3.69539 147.137 2.93706 146.984 2.36832 146.888C1.79957 146.792 1.57208 146.504 1.60999 146.446C1.64791 146.389 1.93228 146.446 2.40624 146.446C2.88019 146.446 3.71435 146.293 4.71913 146.216C6.74766 146.063 9.66721 145.928 13.2882 145.813C20.5302 145.583 30.5212 145.43 41.5549 145.43C52.5885 145.43 62.5984 145.583 69.8215 145.813C73.4425 145.928 76.3621 146.063 78.3906 146.216C79.3954 146.216 80.2864 146.389 80.7035 146.446C81.1206 146.504 81.4618 146.35 81.4997 146.446Z" fill="#5B5B5B"/>
<path opacity="0.08" d="M80.8935 146.619C80.8935 147.002 76.4952 147.29 69.3859 147.52C62.2765 147.75 52.4562 147.885 41.6121 147.885C30.7681 147.885 20.8909 147.712 13.7815 147.52C6.67222 147.328 2.27393 147.002 2.27393 146.619C2.27393 146.235 6.67222 145.966 13.7815 145.755C20.8909 145.544 30.7112 145.372 41.5553 145.372C52.3993 145.372 62.2197 145.525 69.329 145.755C76.4383 145.985 80.8935 146.312 80.8935 146.619Z" fill="#5B5B5B"/>
<path opacity="0.1" d="M80.1355 146.638C80.1355 146.983 75.832 147.29 68.7606 147.501C61.6892 147.712 52.1343 147.866 41.4798 147.866C30.8253 147.866 21.2514 147.712 14.2748 147.501C7.2982 147.29 2.8999 146.983 2.8999 146.638C2.8999 146.293 7.22237 145.986 14.2748 145.755C21.3272 145.525 30.9011 145.41 41.5556 145.41C52.2101 145.41 61.9356 145.544 68.8364 145.794C75.7372 146.043 80.1355 146.293 80.1355 146.638Z" fill="#5B5B5B"/>
<path opacity="0.11" d="M79.4526 146.638C79.4526 146.964 75.2059 147.271 68.3431 147.501C61.4802 147.732 52.0201 147.847 41.5552 147.847C31.0903 147.847 21.6301 147.713 14.7673 147.501C7.90443 147.29 3.67676 146.964 3.67676 146.638C3.67676 146.312 7.90443 146.005 14.7673 145.775C21.6301 145.545 31.0903 145.43 41.5552 145.43C52.0201 145.43 61.4992 145.564 68.3431 145.775C75.187 145.986 79.4526 146.293 79.4526 146.638Z" fill="#5B5B5B"/>
<path opacity="0.13" d="M78.7507 146.638C78.7507 146.964 74.5799 147.271 67.8498 147.482C61.1196 147.693 51.8301 147.827 41.5548 147.827C31.2795 147.827 21.99 147.712 15.2598 147.482C8.52968 147.252 4.35889 146.964 4.35889 146.638C4.35889 146.312 8.52968 146.005 15.2598 145.794C21.99 145.583 31.2795 145.449 41.5548 145.449C51.8301 145.449 61.1196 145.583 67.8498 145.794C74.5799 146.005 78.7507 146.312 78.7507 146.638Z" fill="#5B5B5B"/>
<path opacity="0.15" d="M78.05 146.637C78.05 146.964 73.974 147.251 67.3576 147.462C60.7412 147.673 51.6413 147.808 41.5555 147.808C31.4698 147.808 22.3509 147.712 15.7534 147.462C9.156 147.213 5.06104 146.964 5.06104 146.637C5.06104 146.311 9.13704 146.024 15.7534 145.813C22.3698 145.602 31.4698 145.467 41.5555 145.467C51.6413 145.467 60.7601 145.602 67.3576 145.813C73.955 146.024 78.05 146.311 78.05 146.637Z" fill="#5B5B5B"/>
<path opacity="0.16" d="M77.3483 146.638C77.3483 146.945 73.3481 147.233 66.8644 147.444C60.3807 147.655 51.4514 147.712 41.5552 147.712C31.6591 147.712 22.7298 147.712 16.2461 147.444C9.76238 147.175 5.76221 146.945 5.76221 146.638C5.76221 146.331 9.76238 146.043 16.2461 145.832C22.7298 145.621 31.678 145.487 41.5552 145.487C51.4324 145.487 60.3996 145.621 66.8644 145.832C73.3291 146.043 77.3483 146.312 77.3483 146.638Z" fill="#5B5B5B"/>
<path opacity="0.18" d="M76.6654 146.638C76.6654 146.945 72.7411 147.232 66.3711 147.424C60.0012 147.616 51.2046 147.75 41.5549 147.75C31.9052 147.75 23.0896 147.635 16.7386 147.424C10.3876 147.213 6.44434 146.945 6.44434 146.638C6.44434 146.331 10.3876 146.043 16.7386 145.851C23.0896 145.659 31.9052 145.506 41.5549 145.506C51.2046 145.506 60.0201 145.64 66.3711 145.851C72.7221 146.062 76.6654 146.331 76.6654 146.638Z" fill="#5B5B5B"/>
<path opacity="0.2" d="M75.9642 146.638C75.9642 146.945 72.1725 147.213 65.8784 147.405C59.5843 147.597 51.0531 147.712 41.5551 147.712C32.057 147.712 23.45 147.712 17.2317 147.405C11.0135 147.098 7.146 146.945 7.146 146.638C7.146 146.331 10.9376 146.062 17.2317 145.851C23.5259 145.64 32.057 145.544 41.5551 145.544C51.0531 145.544 59.6601 145.66 65.8784 145.851C72.0967 146.043 75.9642 146.331 75.9642 146.638Z" fill="#5B5B5B"/>
<path opacity="0.21" d="M75.206 146.637C75.206 146.925 71.4144 147.194 65.3478 147.405C59.2812 147.616 50.8637 147.712 41.5553 147.712C32.2468 147.712 23.8104 147.596 17.7249 147.405C11.6393 147.213 7.84766 146.925 7.84766 146.637C7.84766 146.35 11.6393 146.062 17.7249 145.87C23.8104 145.678 32.2468 145.563 41.5553 145.563C50.8637 145.563 59.3001 145.678 65.4047 145.87C71.5092 146.062 75.206 146.33 75.206 146.637Z" fill="#5B5B5B"/>
<path opacity="0.23" d="M74.5801 146.637C74.5801 146.925 70.7885 147.194 64.9115 147.386C59.0344 147.577 50.6739 147.712 41.555 147.712C32.4361 147.712 24.1893 147.597 18.2175 147.405C12.2457 147.213 8.54883 146.944 8.54883 146.657C8.54883 146.369 12.2267 146.1 18.2175 145.908C24.2083 145.717 32.4361 145.602 41.555 145.602C50.6739 145.602 58.9207 145.717 64.9115 145.908C70.9022 146.1 74.5801 146.35 74.5801 146.637Z" fill="#5B5B5B"/>
<path opacity="0.25" d="M73.8787 146.638C73.8787 146.926 70.2577 147.175 64.3997 147.367C58.5416 147.559 50.5602 147.712 41.5551 147.712C32.5499 147.712 24.4927 147.597 18.8053 147.405C13.1178 147.214 9.32617 146.964 9.32617 146.677C9.32617 146.389 12.9472 146.139 18.8053 145.948C24.6633 145.756 32.7206 145.641 41.6499 145.641C50.5792 145.641 58.7122 145.756 64.5134 145.948C70.3146 146.139 73.8787 146.35 73.8787 146.638Z" fill="#5B5B5B"/>
<path opacity="0.26" d="M73.1776 146.638C73.1776 146.906 69.6324 147.175 63.926 147.348C58.2196 147.52 50.295 147.655 41.5553 147.655C32.8156 147.655 24.9101 147.539 19.2036 147.348C13.4972 147.156 9.93311 146.906 9.93311 146.638C9.93311 146.369 13.4783 146.101 19.2036 145.928C24.929 145.755 32.8156 145.621 41.5553 145.621C50.295 145.621 58.2006 145.736 63.926 145.928C69.6513 146.12 73.1776 146.35 73.1776 146.638Z" fill="#5B5B5B"/>
<path opacity="0.28" d="M72.4763 146.638C72.4763 146.907 69.0259 147.156 63.4333 147.329C57.8406 147.501 50.1626 147.617 41.5555 147.617C32.9485 147.617 25.2894 147.617 19.6968 147.329C14.1041 147.041 10.6348 146.907 10.6348 146.638C10.6348 146.37 14.0852 146.12 19.6968 145.928C25.3084 145.737 32.9675 145.641 41.5555 145.641C50.1436 145.641 57.8217 145.756 63.4333 145.928C69.0449 146.101 72.4763 146.37 72.4763 146.638Z" fill="#5B5B5B"/>
<path opacity="0.3" d="M71.793 146.637C71.793 146.906 68.3995 147.136 62.9395 147.328C57.4796 147.52 49.8963 147.597 41.5547 147.597C33.2131 147.597 25.6488 147.597 20.1699 147.328C14.691 147.059 11.3164 146.906 11.3164 146.637C11.3164 146.369 14.7099 146.119 20.1699 145.947C25.6298 145.774 33.2131 145.678 41.5547 145.678C49.8963 145.678 57.4606 145.678 62.9395 145.947C68.4184 146.215 71.793 146.369 71.793 146.637Z" fill="#5B5B5B"/>
<path opacity="0.31" d="M71.0916 146.638C71.0916 146.906 67.7929 147.136 62.4467 147.309C57.1004 147.482 49.7068 147.578 41.5927 147.578C33.4786 147.578 26.047 147.482 20.7387 147.309C15.4304 147.136 12.0938 146.906 12.0938 146.638C12.0938 146.369 15.3925 146.139 20.7387 145.966C26.0849 145.793 33.4975 145.793 41.5547 145.793C49.612 145.793 57.1004 145.793 62.4087 146.062C67.717 146.331 71.0916 146.369 71.0916 146.638Z" fill="#5B5B5B"/>
<path opacity="0.33" d="M70.3901 146.638C67.6088 147.157 64.7808 147.375 61.9537 147.29C56.7213 147.462 49.5172 147.558 41.5548 147.558C33.5923 147.558 26.3882 147.558 21.1558 147.29C18.3035 147.381 15.4498 147.162 12.6436 146.638C15.4249 146.118 18.2529 145.9 21.0799 145.985C26.3882 145.793 33.5923 145.793 41.5548 145.793C49.5172 145.793 56.7213 145.889 61.9537 146.062C64.7781 145.951 67.6061 146.144 70.3901 146.638Z" fill="#5B5B5B"/>
<path opacity="0.34" d="M69.7082 146.638C66.9905 147.154 64.2249 147.366 61.4614 147.271C56.3616 147.444 49.3282 147.54 41.5553 147.54C33.7825 147.54 26.749 147.54 21.6492 147.271C18.8919 147.367 16.1326 147.155 13.4214 146.638C16.1326 146.121 18.8919 145.909 21.6492 146.005C26.749 145.832 33.7825 145.736 41.5553 145.736C49.3282 145.736 56.3616 145.736 61.4614 146.005C64.2249 145.909 66.9905 146.122 69.7082 146.638Z" fill="#5B5B5B"/>
<path opacity="0.36" d="M69.0069 146.638C66.358 147.141 63.6622 147.347 60.9686 147.251C56.0016 147.424 49.1387 147.52 41.5554 147.52C33.9722 147.52 27.1093 147.424 22.1423 147.251C19.4487 147.347 16.7529 147.141 14.104 146.638C16.7467 146.135 19.436 145.93 22.1233 146.024C27.1093 145.793 33.9722 145.793 41.5554 145.793C49.1387 145.793 56.0016 145.793 60.9686 146.062C63.6608 145.954 66.3566 146.147 69.0069 146.638Z" fill="#5B5B5B"/>
<path opacity="0.38" d="M68.3048 146.638C65.723 147.116 63.0984 147.315 60.4751 147.233C55.6407 147.405 48.9485 147.482 41.5169 147.482C34.0853 147.482 27.4499 147.482 22.5587 147.233C19.9354 147.315 17.3108 147.116 14.729 146.638C17.3092 146.147 19.9345 145.941 22.5587 146.024C27.412 145.871 34.0853 145.775 41.5169 145.775C48.9485 145.775 55.6028 145.871 60.4751 146.024C63.0992 145.941 65.7246 146.147 68.3048 146.638Z" fill="#5B5B5B"/>
<path opacity="0.39" d="M67.6228 146.638C65.1235 147.111 62.581 147.31 60.0395 147.232C55.3189 147.366 48.8163 147.462 41.6122 147.462C34.4081 147.462 27.9054 147.366 23.1848 147.232C20.6433 147.311 18.1008 147.112 15.6016 146.638C18.1008 146.163 20.6433 145.964 23.1848 146.043C27.8106 145.889 34.3702 145.793 41.5553 145.793C48.7404 145.793 55.2621 145.793 59.9826 146.043C62.5431 145.961 65.1049 146.16 67.6228 146.638Z" fill="#5B5B5B"/>
<path opacity="0.41" d="M66.921 146.638C64.4717 147.101 61.9799 147.294 59.4894 147.213C54.9015 147.348 48.5506 147.443 41.555 147.443C34.5594 147.443 28.2843 147.443 23.6206 147.213C21.1301 147.294 18.6383 147.101 16.189 146.638C18.6383 146.174 21.1301 145.981 23.6206 146.062C28.2084 145.909 34.5594 145.832 41.555 145.832C48.5506 145.832 54.8257 145.832 59.4894 146.062C61.9799 145.981 64.4717 146.174 66.921 146.638Z" fill="#5B5B5B"/>
<path opacity="0.43" d="M66.2203 146.638C63.8395 147.087 61.4177 147.274 58.9972 147.194C54.542 147.329 48.3617 147.425 41.5557 147.425C34.7497 147.425 28.5883 147.425 24.1142 147.194C21.6937 147.274 19.2718 147.087 16.8911 146.638C19.2718 146.189 21.6937 146.002 24.1142 146.082C28.5883 145.928 34.7497 145.852 41.5557 145.852C48.3617 145.852 54.542 145.852 58.9972 146.082C61.4177 146.002 63.8395 146.189 66.2203 146.638Z" fill="#5B5B5B"/>
<path opacity="0.44" d="M65.5185 146.638C63.2066 147.075 60.8545 147.255 58.504 147.175C54.1626 147.309 48.1718 147.405 41.5554 147.405C34.939 147.405 28.9482 147.405 24.6068 147.175C22.2563 147.255 19.9042 147.075 17.5923 146.638C19.9042 146.201 22.2563 146.021 24.6068 146.101C28.9482 145.947 34.939 145.871 41.5554 145.871C48.1718 145.871 54.1626 145.871 58.504 146.101C60.8545 146.021 63.2066 146.201 65.5185 146.638Z" fill="#5B5B5B"/>
<path opacity="0.46" d="M64.8359 146.638C62.5861 147.06 60.2978 147.233 58.011 147.156C53.8023 147.291 47.9821 147.386 41.5553 147.386C35.1285 147.386 29.3083 147.386 25.0996 147.156C22.8317 147.232 20.5624 147.058 18.3315 146.638C20.5732 146.202 22.8561 146.022 25.1375 146.101C29.3462 145.967 35.1664 145.89 41.5932 145.89C48.02 145.89 53.8402 145.89 58.0489 146.101C60.3239 146.026 62.6002 146.206 64.8359 146.638Z" fill="#5B5B5B"/>
<path opacity="0.48" d="M64.1344 146.638C61.9535 147.048 59.7354 147.222 57.518 147.156C53.442 147.271 47.7925 147.367 41.5553 147.367C35.318 147.367 29.6874 147.367 25.5925 147.156C23.3751 147.22 21.1572 147.047 18.9761 146.638C21.1572 146.229 23.3751 146.055 25.5925 146.12C29.6874 145.985 35.318 145.909 41.5553 145.909C47.7925 145.909 53.442 145.909 57.518 146.12C59.7354 146.053 61.9535 146.227 64.1344 146.638Z" fill="#5B5B5B"/>
<path opacity="0.49" d="M63.4332 146.638C61.3209 147.034 59.1727 147.201 57.0253 147.136C53.0631 147.251 47.5462 147.328 41.5555 147.328C35.5647 147.328 30.0479 147.328 26.0856 147.136C23.9382 147.201 21.7901 147.034 19.6777 146.638C21.7901 146.241 23.9382 146.074 26.0856 146.139C30.0479 146.024 35.5647 145.928 41.5555 145.928C47.5462 145.928 53.0631 146.024 57.0253 146.139C59.1727 146.074 61.3209 146.241 63.4332 146.638Z" fill="#5B5B5B"/>
<path opacity="0.51" d="M62.7509 146.638C60.7007 147.019 58.6163 147.18 56.5326 147.117C52.741 147.232 47.4137 147.309 41.5557 147.309C35.6976 147.309 30.4083 147.309 26.5787 147.117C24.5013 147.181 22.4231 147.02 20.3794 146.638C22.4216 146.243 24.501 146.083 26.5787 146.158C30.3703 146.043 35.7166 145.966 41.5557 145.966C47.3948 145.966 52.7031 145.966 56.5326 146.158C58.6166 146.083 60.7022 146.244 62.7509 146.638Z" fill="#5B5B5B"/>
<path opacity="0.52" d="M62.0486 146.638C60.0671 147.007 58.0526 147.161 56.0389 147.098C52.2472 147.214 47.2233 147.29 41.5548 147.29C35.8863 147.29 30.7676 147.29 27.0708 147.098C25.0571 147.161 23.0425 147.007 21.061 146.638C23.0409 146.257 25.0568 146.103 27.0708 146.178C30.7676 146.063 35.9053 145.986 41.5548 145.986C47.2043 145.986 52.342 145.986 56.0389 146.178C58.0528 146.103 60.0687 146.257 62.0486 146.638Z" fill="#5B5B5B"/>
<path opacity="0.54" d="M61.3474 146.638C59.4345 146.993 57.4899 147.141 55.5462 147.079C51.9631 147.194 47.015 147.271 41.555 147.271C36.0951 147.271 31.147 147.271 27.5639 147.079C25.6202 147.141 23.6755 146.993 21.7627 146.638C23.6755 146.283 25.6202 146.135 27.5639 146.197C31.147 146.082 36.0951 146.005 41.555 146.005C47.015 146.005 51.9631 146.005 55.5462 146.197C57.4899 146.135 59.4345 146.283 61.3474 146.638Z" fill="#5B5B5B"/>
<path opacity="0.56" d="M60.6462 146.638C58.7727 147 56.8643 147.141 54.9587 147.06C51.5083 147.175 46.7309 147.252 41.4605 147.252C36.1901 147.252 31.4127 147.252 27.9623 147.06C26.0883 147.132 24.2123 146.991 22.3696 146.638C24.2122 146.284 26.0877 146.136 27.9623 146.197C31.4127 146.197 36.1901 146.024 41.4605 146.024C46.7309 146.024 51.5083 146.024 54.9587 146.197C56.8649 146.127 58.7728 146.275 60.6462 146.638Z" fill="#5B5B5B"/>
<path opacity="0.57" d="M60.0395 146.638C58.2577 146.966 56.447 147.108 54.6364 147.06C51.3188 147.06 46.7119 147.232 41.6311 147.232C36.5503 147.232 31.9435 147.232 28.6258 147.06C26.8215 147.109 25.017 146.967 23.2417 146.638C25.0155 146.296 26.8212 146.154 28.6258 146.216C31.9435 146.216 36.5503 146.043 41.6311 146.043C46.7119 146.043 51.3188 146.043 54.6364 146.216C56.4473 146.155 58.2593 146.296 60.0395 146.638Z" fill="#5B5B5B"/>
<path opacity="0.59" d="M59.262 146.638C57.5488 146.953 55.8081 147.088 54.0675 147.041C50.8635 147.041 46.4842 147.194 41.5551 147.194C36.626 147.194 32.2466 147.194 29.0427 147.041C27.3021 147.088 25.5614 146.953 23.8481 146.638C25.5598 146.311 27.3018 146.176 29.0427 146.235C32.2466 146.235 36.626 146.062 41.5551 146.062C46.4842 146.062 50.8635 146.063 54.0675 146.235C55.8083 146.176 57.5503 146.311 59.262 146.638Z" fill="#5B5B5B"/>
<path opacity="0.61" d="M58.5603 146.638C56.9174 146.952 55.2452 147.081 53.5743 147.022C50.5031 147.022 46.2564 147.175 41.5548 147.175C36.8532 147.175 32.6065 147.175 29.5353 147.022C27.8644 147.081 26.1922 146.952 24.5493 146.638C26.1922 146.324 27.8644 146.196 29.5353 146.255C32.6065 146.255 36.8532 146.101 41.5548 146.101C46.2564 146.101 50.5031 146.101 53.5743 146.255C55.2452 146.196 56.9174 146.324 58.5603 146.638Z" fill="#5B5B5B"/>
<path opacity="0.62" d="M57.878 146.638C56.302 146.924 54.7011 147.046 53.1005 147.002C50.1431 147.098 46.067 147.156 41.555 147.156C37.043 147.156 32.967 147.156 30.0284 147.002C28.4278 147.048 26.8268 146.925 25.251 146.638C26.8253 146.338 28.4275 146.216 30.0284 146.273C32.967 146.273 37.043 146.12 41.555 146.12C46.067 146.12 50.1431 146.12 53.1005 146.273C54.7014 146.217 56.3035 146.339 57.878 146.638Z" fill="#5B5B5B"/>
<path opacity="0.64" d="M57.1766 146.637C55.6709 146.923 54.1386 147.039 52.6077 146.983C49.7639 146.983 45.8775 147.136 41.555 147.136C37.2326 147.136 33.3462 147.136 30.5214 146.983C28.9779 147.039 27.4329 146.924 25.9146 146.637C27.4267 146.351 28.9647 146.229 30.5024 146.273C33.3272 146.273 37.2326 146.139 41.5361 146.139C45.8396 146.139 49.745 146.139 52.5887 146.273C54.1265 146.227 55.6648 146.349 57.1766 146.637Z" fill="#5B5B5B"/>
<path opacity="0.66" d="M56.4754 146.638C55.0383 146.909 53.5759 147.019 52.115 146.964C49.404 146.964 45.6693 147.117 41.5553 147.117C37.4414 147.117 33.7067 147.117 31.0146 146.964C29.5474 147.019 28.0786 146.91 26.6353 146.638C28.0786 146.364 29.5468 146.248 31.0146 146.292C33.7067 146.292 37.4414 146.158 41.5553 146.158C45.6693 146.158 49.404 146.158 52.115 146.292C53.5765 146.249 55.0384 146.365 56.4754 146.638Z" fill="#5B5B5B"/>
<path opacity="0.67" d="M55.7742 146.638C54.4043 146.885 53.0135 146.994 51.6223 146.964C49.044 146.964 45.4799 147.098 41.5555 147.098C37.6312 147.098 34.0671 147.098 31.5077 146.964C30.1102 146.994 28.7132 146.885 27.3369 146.638C28.71 146.366 30.1097 146.257 31.5077 146.312C34.0671 146.312 37.6312 146.177 41.5555 146.177C45.4799 146.177 49.1388 146.177 51.6223 146.312C53.0141 146.257 54.4074 146.367 55.7742 146.638Z" fill="#5B5B5B"/>
<path opacity="0.69" d="M55.0917 146.638C53.7856 146.884 52.4572 146.986 51.1294 146.945C48.6838 146.945 45.2903 147.06 41.6503 147.06C38.0104 147.06 34.541 147.06 32.1712 146.945C30.8434 146.988 29.5149 146.885 28.209 146.638C29.5149 146.391 30.8434 146.288 32.1712 146.331C34.6168 146.331 37.9914 146.197 41.6503 146.197C45.3093 146.197 48.7786 146.197 51.1294 146.331C52.4572 146.29 53.7856 146.393 55.0917 146.638Z" fill="#5B5B5B"/>
<path opacity="0.7" d="M54.3521 146.638C53.1022 146.872 51.8309 146.969 50.5605 146.926C48.2286 146.926 45.0247 147.041 41.4795 147.041C37.9344 147.041 34.7304 147.041 32.3986 146.926C31.1281 146.969 29.8568 146.872 28.6069 146.638C29.8568 146.404 31.1281 146.308 32.3986 146.35C34.7304 146.35 37.9344 146.235 41.4795 146.235C45.0247 146.235 48.2286 146.235 50.5605 146.35C51.8309 146.308 53.1022 146.404 54.3521 146.638Z" fill="#5B5B5B"/>
<path opacity="0.72" d="M53.6883 146.638C52.5197 146.856 51.331 146.946 50.1432 146.906C47.944 146.906 44.9107 147.021 41.5551 147.021C38.1995 147.021 35.1662 147.021 32.9671 146.906C31.7792 146.945 30.5907 146.855 29.4219 146.638C30.5891 146.408 31.779 146.318 32.9671 146.369C35.1662 146.369 38.1995 146.254 41.5551 146.254C44.9107 146.254 47.944 146.254 50.1432 146.369C51.3312 146.318 52.5211 146.408 53.6883 146.638Z" fill="#5B5B5B"/>
<path opacity="0.74" d="M53.0056 146.638C51.899 146.841 50.7741 146.925 49.65 146.887C47.5835 146.887 44.7208 147.002 41.5548 147.002C38.3888 147.002 35.5451 147.002 33.4597 146.887C32.3418 146.926 31.2231 146.842 30.123 146.638C31.2355 146.429 32.3666 146.339 33.4976 146.369C35.583 146.369 38.4267 146.369 41.5927 146.369C44.7588 146.369 47.6214 146.369 49.6879 146.369C50.7999 146.345 51.9115 146.435 53.0056 146.638Z" fill="#5B5B5B"/>
<path opacity="0.75" d="M52.3044 146.638C51.2665 146.829 50.212 146.913 49.1573 146.887C47.2615 146.887 44.5315 146.983 41.5741 146.983C38.6166 146.983 35.8866 146.983 33.9908 146.887C32.9361 146.913 31.8817 146.829 30.8438 146.638C31.8801 146.435 32.9358 146.351 33.9908 146.389C35.8866 146.389 38.6356 146.389 41.5741 146.389C44.5126 146.389 47.2615 146.389 49.1573 146.389C50.2123 146.351 51.2681 146.435 52.3044 146.638Z" fill="#5B5B5B"/>
<path opacity="0.77" d="M51.6029 146.638C50.6354 146.829 49.6494 146.906 48.6644 146.868C46.7686 146.868 44.323 146.868 41.5551 146.868C38.7872 146.868 36.2658 146.868 34.4458 146.868C33.4924 146.899 32.5386 146.821 31.6021 146.638C32.5696 146.447 33.5556 146.37 34.5406 146.408C36.4364 146.408 38.882 146.408 41.6499 146.408C44.4178 146.408 46.9392 146.408 48.7592 146.408C49.7126 146.377 50.6664 146.454 51.6029 146.638Z" fill="#5B5B5B"/>
<path opacity="0.79" d="M50.9017 146.638C50.0013 146.802 49.0865 146.873 48.1718 146.849C46.4845 146.849 44.1337 146.849 41.5554 146.849C38.9771 146.849 36.6452 146.849 34.939 146.849C34.0242 146.873 33.1095 146.802 32.209 146.638C33.1095 146.473 34.0242 146.402 34.939 146.426C36.6452 146.426 38.9771 146.426 41.5554 146.426C44.1337 146.426 46.4845 146.426 48.1718 146.426C49.0865 146.402 50.0013 146.473 50.9017 146.638Z" fill="#5B5B5B"/>
<path opacity="0.8" d="M50.2189 146.637C49.3807 146.788 48.5295 146.853 47.6785 146.829C46.105 146.829 43.8869 146.829 41.555 146.829C39.2231 146.829 37.005 146.829 35.4315 146.829C34.5805 146.851 33.7295 146.787 32.8911 146.637C33.728 146.476 34.5803 146.412 35.4315 146.446C37.005 146.446 39.2231 146.446 41.555 146.446C43.8869 146.446 46.105 146.446 47.6785 146.446C48.5298 146.41 49.3822 146.474 50.2189 146.637Z" fill="#5B5B5B"/>
<path opacity="0.82" d="M49.5176 146.638C48.7496 146.787 47.967 146.844 47.1858 146.81C45.7449 146.81 43.7543 146.81 41.4983 146.81C39.2423 146.81 37.3086 146.81 35.8109 146.81C35.0296 146.844 34.247 146.787 33.479 146.638C34.247 146.489 35.0296 146.431 35.8109 146.465C37.2517 146.465 39.2423 146.465 41.4983 146.465C43.7543 146.465 45.6881 146.465 47.1858 146.465C47.967 146.431 48.7496 146.489 49.5176 146.638Z" fill="#5B5B5B"/>
<path opacity="0.84" d="M48.8159 146.639C48.115 146.761 47.4036 146.813 46.6926 146.792C45.3845 146.792 43.5645 146.792 41.5549 146.792C39.5454 146.792 37.7633 146.792 36.4173 146.792C35.7062 146.813 34.9949 146.761 34.2939 146.639C34.9948 146.514 35.7057 146.456 36.4173 146.466C37.7254 146.466 39.5454 146.466 41.5549 146.466C43.5645 146.466 45.3466 146.466 46.6926 146.466C47.4041 146.456 48.115 146.514 48.8159 146.639Z" fill="#5B5B5B"/>
<path opacity="0.85" d="M48.1339 146.638C47.5092 146.758 46.8736 146.809 46.2381 146.791C45.0437 146.791 43.4133 146.791 41.5933 146.791C39.7733 146.791 38.1429 146.791 36.9486 146.791C36.3129 146.812 35.6771 146.76 35.0527 146.638C35.6771 146.515 36.3129 146.464 36.9486 146.484C38.1429 146.484 39.7733 146.484 41.5933 146.484C43.4133 146.484 45.0437 146.484 46.2381 146.484C46.8736 146.466 47.5092 146.518 48.1339 146.638Z" fill="#5B5B5B"/>
<path opacity="0.87" d="M47.4323 146.638C46.8638 146.748 46.2853 146.793 45.7071 146.773C44.6454 146.773 43.1857 146.773 41.5553 146.773C39.9249 146.773 38.4651 146.773 37.4034 146.773C36.8252 146.793 36.2467 146.748 35.6782 146.638C36.2467 146.529 36.8252 146.484 37.4034 146.503C38.4651 146.503 39.9438 146.503 41.5553 146.503C43.1667 146.503 44.6454 146.503 45.7071 146.503C46.2853 146.484 46.8638 146.529 47.4323 146.638Z" fill="#5B5B5B"/>
<path opacity="0.89" d="M46.7686 146.638C46.2675 146.723 45.7599 146.761 45.252 146.754C44.323 146.754 43.0149 146.754 41.5931 146.754C40.1712 146.754 38.8631 146.754 37.9341 146.754C37.4262 146.76 36.9188 146.721 36.4175 146.638C36.9173 146.543 37.4259 146.504 37.9341 146.523C38.8631 146.523 40.1712 146.523 41.5931 146.523C43.0149 146.523 44.323 146.523 45.252 146.523C45.7602 146.503 46.269 146.542 46.7686 146.638Z" fill="#5B5B5B"/>
<path opacity="0.9" d="M46.0293 146.639C45.5947 146.689 45.1558 146.689 44.7212 146.639C43.906 146.639 42.8254 146.639 41.5552 146.639C40.285 146.639 39.2044 146.639 38.3892 146.639C37.9545 146.689 37.5157 146.689 37.0811 146.639C37.5157 146.589 37.9545 146.589 38.3892 146.639C39.2044 146.639 40.285 146.639 41.5552 146.639C42.8254 146.639 43.906 146.639 44.7212 146.639C45.1558 146.589 45.5947 146.589 46.0293 146.639Z" fill="#5B5B5B"/>
<path opacity="0.92" d="M45.3469 146.638C44.9752 146.679 44.6001 146.679 44.2284 146.638C43.5459 146.638 42.598 146.638 41.5553 146.638C40.5126 146.638 39.5647 146.638 38.8822 146.638C38.5105 146.679 38.1354 146.679 37.7637 146.638C38.1356 146.601 38.5102 146.601 38.8822 146.638H44.2284C44.6004 146.601 44.975 146.601 45.3469 146.638Z" fill="#5B5B5B"/>
<path opacity="0.93" d="M44.6452 146.638C44.3426 146.668 44.0378 146.668 43.7352 146.638H39.3748C39.0722 146.668 38.7674 146.668 38.4648 146.638C38.7667 146.595 39.0729 146.595 39.3748 146.638H43.7352C44.0371 146.595 44.3433 146.595 44.6452 146.638Z" fill="#5B5B5B"/>
<path opacity="0.95" d="M43.944 146.638C43.7106 146.66 43.4758 146.66 43.2425 146.638H39.868C39.6346 146.66 39.3998 146.66 39.1665 146.638H39.868H43.2425H43.944Z" fill="#5B5B5B"/>
<path opacity="0.97" d="M43.2612 146.638C43.0909 146.653 42.9196 146.653 42.7493 146.638H40.3606C40.1966 146.652 40.0317 146.652 39.8677 146.638C40.0309 146.611 40.1974 146.611 40.3606 146.638H42.7493C42.9188 146.61 43.0917 146.61 43.2612 146.638Z" fill="#5B5B5B"/>
<path d="M79.851 15.3463L76.5333 11.1452C76.2797 10.9096 75.9796 10.7314 75.6527 10.6222C75.3258 10.5131 74.9798 10.4755 74.6375 10.5121H8.28388C7.94158 10.4755 7.59552 10.5131 7.26866 10.6222C6.9418 10.7314 6.64162 10.9096 6.38806 11.1452L3.16517 15.3463C3.01351 15.5382 3.3358 15.7684 3.73392 15.7684H79.2822C79.6803 15.6724 80.0026 15.4422 79.851 15.3463Z" fill="url(#paint4_linear_157_4909)"/>
<path d="M3.69587 15.6724L6.52064 12.1811C6.77137 11.9412 7.07119 11.7602 7.39883 11.6508C7.72648 11.5414 8.0739 11.5063 8.41645 11.548H74.77C75.1126 11.5063 75.46 11.5414 75.7877 11.6508C76.1153 11.7602 76.4151 11.9412 76.6659 12.1811L79.4906 15.6724C79.8508 15.6724 80.1163 15.4231 79.9835 15.2504L76.5332 11.1452C76.2796 10.9096 75.9794 10.7314 75.6526 10.6222C75.3257 10.5131 74.9796 10.4755 74.6373 10.5121H8.28374C7.94145 10.4755 7.59538 10.5131 7.26852 10.6222C6.94166 10.7314 6.64149 10.9096 6.38793 11.1452L3.16504 15.3463C3.16504 15.3463 3.33566 15.6533 3.69587 15.6724Z" fill="url(#paint5_linear_157_4909)"/>
<path d="M22.0224 0H60.9645C62.9042 0.00404258 64.8113 0.481355 66.508 1.38745C68.2047 2.29354 69.6358 3.59891 70.6678 5.18189L77.0201 15.031H64.4997V9.70718C64.4939 8.93656 64.191 8.19555 63.65 7.62816C63.1089 7.06076 62.3683 6.70752 61.5721 6.63708L48.3889 5.6433C44.2343 5.32386 40.0599 5.32386 35.9053 5.6433L21.5069 6.72581C20.6958 6.77078 19.9328 7.11103 19.3722 7.67772C18.8116 8.2444 18.4953 8.9952 18.4873 9.77816V15.102H6.04053L12.3007 5.32386C13.3127 3.7085 14.7381 2.37065 16.4403 1.43845C18.1426 0.506263 20.0646 0.0109624 22.0224 0Z" fill="url(#paint6_linear_157_4909)"/>
<path fill-rule="evenodd" clip-rule="evenodd" d="M52.1011 87.8475C50.8855 88.688 49.2877 88.8144 48.0499 88.2681C48.0499 88.2681 47.7125 88.142 47.3976 87.8059C47.1266 87.4897 40.2845 80.2812 40.2845 80.2812L40.2624 80.2598C42.3784 80.6173 44.6967 79.6718 45.8895 77.9483C47.0816 76.3087 47.0376 73.9758 45.912 72.3363C44.562 70.55 41.928 69.9617 39.7223 70.2345C35.8962 70.7391 33.1504 73.9128 32.2957 77.2342C31.4172 81.0166 32.048 84.5898 33.4217 87.9526C33.7359 88.6677 34.1637 89.403 34.6816 90.0327C30.6523 88.3942 27.0961 85.3676 25.2285 81.3107C23.1578 76.939 23.2029 71.4118 25.6563 66.9771C27.5915 63.5512 31.0122 60.3775 35.2439 59.0322C39.6772 57.3299 45.6418 57.6871 49.9636 59.957C55.2073 62.3949 59.1684 68.4699 59.1909 73.8921C59.3711 79.5038 56.7142 84.5898 52.1011 87.8475Z" fill="#BFA161"/>
<path fill-rule="evenodd" clip-rule="evenodd" d="M37.5436 89.8658C35.5224 87.8919 33.8954 85.3316 35.1275 82.666C36.2188 80.6299 37.1948 78.5516 37.6598 76.2004C37.8458 78.6568 39.4961 80.8398 40.2851 83.191C40.5873 84.3241 40.6109 85.4998 40.123 86.6749C39.5887 87.9552 38.7285 89.0464 37.7059 90.0329L37.5436 89.8658Z" fill="#BFA161"/>
<defs>
<linearGradient id="paint0_linear_157_4909" x1="0.150879" y1="81.625" x2="82.9602" y2="81.625" gradientUnits="userSpaceOnUse">
<stop stop-color="#6F6F6F"/>
<stop offset="0.04" stop-color="#636363"/>
<stop offset="0.13" stop-color="#4B4B4B"/>
<stop offset="0.19" stop-color="#424242"/>
<stop offset="0.58" stop-color="#474747"/>
<stop offset="0.76" stop-color="#424242"/>
<stop offset="0.95" stop-color="#505050"/>
<stop offset="1" stop-color="#6F6F6F"/>
</linearGradient>
<linearGradient id="paint1_linear_157_4909" x1="0.0745781" y1="13.4663" x2="82.9787" y2="13.4663" gradientUnits="userSpaceOnUse">
<stop stop-color="#5A5A5A"/>
<stop offset="0.01" stop-color="#595959"/>
<stop offset="0.23" stop-color="#424242"/>
<stop offset="0.46" stop-color="#6F6F6F"/>
<stop offset="0.6" stop-color="#6F6F6F"/>
<stop offset="0.67" stop-color="#606060"/>
<stop offset="0.8" stop-color="#4A4A4A"/>
<stop offset="0.88" stop-color="#424242"/>
<stop offset="1" stop-color="#565656"/>
</linearGradient>
<linearGradient id="paint2_linear_157_4909" x1="2.52023" y1="78.1143" x2="9.62955" y2="78.1143" gradientUnits="userSpaceOnUse">
<stop stop-color="white"/>
<stop offset="0.27" stop-color="#FDFCFC"/>
<stop offset="0.46" stop-color="#F5F3F3"/>
<stop offset="0.63" stop-color="#E8E4E4"/>
<stop offset="0.78" stop-color="#D5CFCE"/>
<stop offset="0.84" stop-color="#CCC4C3"/>
</linearGradient>
<linearGradient id="paint3_linear_157_4909" x1="77.7644" y1="78.1128" x2="70.6361" y2="78.1128" gradientUnits="userSpaceOnUse">
<stop stop-color="white"/>
<stop offset="0.27" stop-color="#FDFCFC"/>
<stop offset="0.46" stop-color="#F5F3F3"/>
<stop offset="0.63" stop-color="#E8E4E4"/>
<stop offset="0.78" stop-color="#D5CFCE"/>
<stop offset="0.84" stop-color="#CCC4C3"/>
</linearGradient>
<linearGradient id="paint4_linear_157_4909" x1="22.3888" y1="0.997141" x2="57.9977" y2="25.4646" gradientUnits="userSpaceOnUse">
<stop offset="0.05" stop-color="#C0BEBF"/>
<stop offset="0.35" stop-color="#C6C4C5"/>
<stop offset="0.6" stop-color="#A9A7A8"/>
<stop offset="0.61" stop-color="#ACABAC"/>
<stop offset="0.8" stop-color="#D8D7D8"/>
<stop offset="1" stop-color="#7C797A"/>
</linearGradient>
<linearGradient id="paint5_linear_157_4909" x1="3.16504" y1="13.1019" x2="79.8888" y2="13.1019" gradientUnits="userSpaceOnUse">
<stop offset="0.23" stop-color="#303030"/>
<stop offset="0.88" stop-color="#303030"/>
</linearGradient>
<linearGradient id="paint6_linear_157_4909" x1="5.94847" y1="7.50665" x2="76.9096" y2="7.50665" gradientUnits="userSpaceOnUse">
<stop offset="0.05" stop-color="#C0BEBF"/>
<stop offset="0.224122" stop-color="#C6C4C5"/>
<stop offset="0.799749" stop-color="#7C797A"/>
</linearGradient>
</defs>
</svg>