<svg width="1442" height="148" viewBox="0 0 1442 148" fill="none" xmlns="http://www.w3.org/2000/svg">
<mask id="mask0_857_1094" style="mask-type:luminance" maskUnits="userSpaceOnUse" x="630" y="0" width="148" height="147">
<path d="M777.639 0H630.879V146.556H777.639V0Z" fill="white"/>
</mask>
<g mask="url(#mask0_857_1094)">
<mask id="mask1_857_1094" style="mask-type:luminance" maskUnits="userSpaceOnUse" x="630" y="0" width="148" height="147">
<path d="M777.638 0H630.879V146.556H777.638V0Z" fill="white"/>
</mask>
<g mask="url(#mask1_857_1094)">
<path d="M777.638 73.2779C777.638 32.8076 744.785 0 704.259 0C663.732 0 630.879 32.8076 630.879 73.2779C630.879 113.748 663.732 146.556 704.259 146.556C744.785 146.556 777.638 113.748 777.638 73.2779Z" fill="#00479A"/>
<path d="M682.723 44.1951H680.277C675.635 44.1951 673.099 46.8087 673.099 52.0371V77.2529C673.099 83.7448 670.903 86.0232 665.752 86.0232C661.699 86.0232 658.407 84.251 655.788 81.0471C655.534 80.7106 650.217 83.2387 650.217 89.4809C650.217 96.2265 656.547 100.36 668.29 100.36C682.558 100.36 690.078 93.1909 690.078 77.5067V52.0371C690.07 46.8155 687.537 44.1951 682.723 44.1951ZM739.592 56.5071C725.741 56.5071 716.537 65.2774 716.537 78.3548C716.537 91.7646 725.401 100.368 739.337 100.368C753.184 100.368 762.301 91.7647 762.301 78.4417C762.31 65.2774 753.272 56.5071 739.592 56.5071ZM739.422 87.961C734.015 87.961 730.301 83.9986 730.301 78.348C730.301 72.7844 734.106 68.8192 739.422 68.8192C744.739 68.8192 748.542 72.7844 748.542 78.4336C748.543 83.913 744.659 87.961 739.424 87.961H739.422ZM704.835 56.9278H703.143C699.008 56.9278 695.884 58.8656 695.884 64.7712V91.7566C695.884 97.745 698.925 99.6013 703.314 99.6013H705.004C709.142 99.6013 712.096 97.5754 712.096 91.7566V64.7712C712.096 58.7 709.228 56.9278 704.835 56.9278ZM703.906 37.3667C698.669 37.3667 695.377 40.3195 695.377 44.9578C695.377 49.6774 698.756 52.6289 704.159 52.6289C709.395 52.6289 712.689 49.6774 712.689 44.9578C712.689 40.2381 709.311 37.3667 703.906 37.3667Z" fill="white"/>
</g>
</g>
<path d="M11.0153 5.5C11.0153 2.46243 8.54944 0 5.50765 0C2.46586 0 0 2.46243 0 5.5C0 8.53757 2.46586 11 5.50765 11C8.54944 11 11.0153 8.53757 11.0153 5.5Z" fill="#0078AD"/>
<path d="M45.07 5.5C45.07 2.46243 42.6041 0 39.5623 0C36.5205 0 34.0547 2.46243 34.0547 5.5C34.0547 8.53757 36.5205 11 39.5623 11C42.6041 11 45.07 8.53757 45.07 5.5Z" fill="#0078AD"/>
<path d="M79.1286 5.5C79.1286 2.46243 76.6627 0 73.6209 0C70.5791 0 68.1133 2.46243 68.1133 5.5C68.1133 8.53757 70.5791 11 73.6209 11C76.6627 11 79.1286 8.53757 79.1286 5.5Z" fill="#0078AD"/>
<path d="M113.186 5.5C113.186 2.46243 110.72 0 107.679 0C104.637 0 102.171 2.46243 102.171 5.5C102.171 8.53757 104.637 11 107.679 11C110.72 11 113.186 8.53757 113.186 5.5Z" fill="#00479A"/>
<path d="M147.237 5.5C147.237 2.46243 144.771 0 141.729 0C138.688 0 136.222 2.46243 136.222 5.5C136.222 8.53757 138.688 11 141.729 11C144.771 11 147.237 8.53757 147.237 5.5Z" fill="#0078AD"/>
<path d="M181.301 5.5C181.301 2.46243 178.836 0 175.794 0C172.752 0 170.286 2.46243 170.286 5.5C170.286 8.53757 172.752 11 175.794 11C178.836 11 181.301 8.53757 181.301 5.5Z" fill="#00479A"/>
<path d="M215.362 5.5C215.362 2.46243 212.896 0 209.854 0C206.813 0 204.347 2.46243 204.347 5.5C204.347 8.53757 206.813 11 209.854 11C212.896 11 215.362 8.53757 215.362 5.5Z" fill="#6789F4"/>
<path d="M249.421 5.5C249.421 2.46243 246.955 0 243.913 0C240.871 0 238.405 2.46243 238.405 5.5C238.405 8.53757 240.871 11 243.913 11C246.955 11 249.421 8.53757 249.421 5.5Z" fill="#6789F4"/>
<path d="M283.47 5.5C283.47 2.46243 281.005 0 277.963 0C274.921 0 272.455 2.46243 272.455 5.5C272.455 8.53757 274.921 11 277.963 11C281.005 11 283.47 8.53757 283.47 5.5Z" fill="#00479A"/>
<path d="M317.533 5.5C317.533 2.46243 315.067 0 312.025 0C308.983 0 306.518 2.46243 306.518 5.5C306.518 8.53757 308.983 11 312.025 11C315.067 11 317.533 8.53757 317.533 5.5Z" fill="#00479A"/>
<path d="M351.59 5.5C351.59 2.46243 349.124 0 346.082 0C343.04 0 340.574 2.46243 340.574 5.5C340.574 8.53757 343.04 11 346.082 11C349.124 11 351.59 8.53757 351.59 5.5Z" fill="#00479A"/>
<path d="M385.652 5.5C385.652 2.46243 383.186 0 380.144 0C377.103 0 374.637 2.46243 374.637 5.5C374.637 8.53757 377.103 11 380.144 11C383.186 11 385.652 8.53757 385.652 5.5Z" fill="#6789F4"/>
<path d="M419.705 5.5C419.705 2.46243 417.239 0 414.197 0C411.155 0 408.689 2.46243 408.689 5.5C408.689 8.53757 411.155 11 414.197 11C417.239 11 419.705 8.53757 419.705 5.5Z" fill="#00479A"/>
<path d="M453.762 5.5C453.762 2.46243 451.297 0 448.255 0C445.213 0 442.747 2.46243 442.747 5.5C442.747 8.53757 445.213 11 448.255 11C451.297 11 453.762 8.53757 453.762 5.5Z" fill="#0078AD"/>
<path d="M487.803 5.5C487.803 2.46243 485.338 0 482.296 0C479.254 0 476.788 2.46243 476.788 5.5C476.788 8.53757 479.254 11 482.296 11C485.338 11 487.803 8.53757 487.803 5.5Z" fill="#0078AD"/>
<path d="M521.866 5.5C521.866 2.46243 519.4 0 516.358 0C513.316 0 510.851 2.46243 510.851 5.5C510.851 8.53757 513.316 11 516.358 11C519.4 11 521.866 8.53757 521.866 5.5Z" fill="#6789F4"/>
<path d="M555.921 5.5C555.921 2.46243 553.455 0 550.413 0C547.371 0 544.905 2.46243 544.905 5.5C544.905 8.53757 547.371 11 550.413 11C553.455 11 555.921 8.53757 555.921 5.5Z" fill="#6789F4"/>
<path d="M589.973 5.5C589.973 2.46243 587.507 0 584.466 0C581.424 0 578.958 2.46243 578.958 5.5C578.958 8.53757 581.424 11 584.466 11C587.507 11 589.973 8.53757 589.973 5.5Z" fill="#0078AD"/>
<path d="M828.382 5.5C828.382 2.46243 825.916 0 822.874 0C819.832 0 817.366 2.46243 817.366 5.5C817.366 8.53757 819.832 11 822.874 11C825.916 11 828.382 8.53757 828.382 5.5Z" fill="#0078AD"/>
<path d="M862.442 5.5C862.442 2.46243 859.976 0 856.934 0C853.893 0 851.427 2.46243 851.427 5.5C851.427 8.53757 853.893 11 856.934 11C859.976 11 862.442 8.53757 862.442 5.5Z" fill="#00479A"/>
<path d="M896.495 5.5C896.495 2.46243 894.029 0 890.987 0C887.945 0 885.479 2.46243 885.479 5.5C885.479 8.53757 887.945 11 890.987 11C894.029 11 896.495 8.53757 896.495 5.5Z" fill="#6789F4"/>
<path d="M930.546 5.5C930.546 2.46243 928.08 0 925.038 0C921.996 0 919.53 2.46243 919.53 5.5C919.53 8.53757 921.996 11 925.038 11C928.08 11 930.546 8.53757 930.546 5.5Z" fill="#00479A"/>
<path d="M964.608 5.5C964.608 2.46243 962.142 0 959.1 0C956.059 0 953.593 2.46243 953.593 5.5C953.593 8.53757 956.059 11 959.1 11C962.142 11 964.608 8.53757 964.608 5.5Z" fill="#6789F4"/>
<path d="M998.668 5.5C998.668 2.46243 996.202 0 993.16 0C990.118 0 987.652 2.46243 987.652 5.5C987.652 8.53757 990.118 11 993.16 11C996.202 11 998.668 8.53757 998.668 5.5Z" fill="#00479A"/>
<path d="M1032.72 5.5C1032.72 2.46243 1030.26 0 1027.22 0C1024.17 0 1021.71 2.46243 1021.71 5.5C1021.71 8.53757 1024.17 11 1027.22 11C1030.26 11 1032.72 8.53757 1032.72 5.5Z" fill="#6789F4"/>
<path d="M1066.78 5.5C1066.78 2.46243 1064.32 0 1061.27 0C1058.23 0 1055.77 2.46243 1055.77 5.5C1055.77 8.53757 1058.23 11 1061.27 11C1064.32 11 1066.78 8.53757 1066.78 5.5Z" fill="#00479A"/>
<path d="M1100.84 5.5C1100.84 2.46243 1098.38 0 1095.33 0C1092.29 0 1089.83 2.46243 1089.83 5.5C1089.83 8.53757 1092.29 11 1095.33 11C1098.38 11 1100.84 8.53757 1100.84 5.5Z" fill="#0078AD"/>
<path d="M1134.9 5.5C1134.9 2.46243 1132.43 0 1129.39 0C1126.35 0 1123.88 2.46243 1123.88 5.5C1123.88 8.53757 1126.35 11 1129.39 11C1132.43 11 1134.9 8.53757 1134.9 5.5Z" fill="#0078AD"/>
<path d="M1168.94 5.5C1168.94 2.46243 1166.47 0 1163.43 0C1160.39 0 1157.92 2.46243 1157.92 5.5C1157.92 8.53757 1160.39 11 1163.43 11C1166.47 11 1168.94 8.53757 1168.94 5.5Z" fill="#00479A"/>
<path d="M1203 5.5C1203 2.46243 1200.53 0 1197.49 0C1194.45 0 1191.98 2.46243 1191.98 5.5C1191.98 8.53757 1194.45 11 1197.49 11C1200.53 11 1203 8.53757 1203 5.5Z" fill="#00479A"/>
<path d="M1237.06 5.5C1237.06 2.46243 1234.59 0 1231.55 0C1228.51 0 1226.04 2.46243 1226.04 5.5C1226.04 8.53757 1228.51 11 1231.55 11C1234.59 11 1237.06 8.53757 1237.06 5.5Z" fill="#00479A"/>
<path d="M1271.11 5.5C1271.11 2.46243 1268.65 0 1265.6 0C1262.56 0 1260.1 2.46243 1260.1 5.5C1260.1 8.53757 1262.56 11 1265.6 11C1268.65 11 1271.11 8.53757 1271.11 5.5Z" fill="#6789F4"/>
<path d="M1305.18 5.5C1305.18 2.46243 1302.71 0 1299.67 0C1296.63 0 1294.16 2.46243 1294.16 5.5C1294.16 8.53757 1296.63 11 1299.67 11C1302.71 11 1305.18 8.53757 1305.18 5.5Z" fill="#0078AD"/>
<path d="M1339.23 5.5C1339.23 2.46243 1336.76 0 1333.72 0C1330.68 0 1328.21 2.46243 1328.21 5.5C1328.21 8.53757 1330.68 11 1333.72 11C1336.76 11 1339.23 8.53757 1339.23 5.5Z" fill="#0078AD"/>
<path d="M1373.29 5.5C1373.29 2.46243 1370.82 0 1367.78 0C1364.74 0 1362.27 2.46243 1362.27 5.5C1362.27 8.53757 1364.74 11 1367.78 11C1370.82 11 1373.29 8.53757 1373.29 5.5Z" fill="#0078AD"/>
<path d="M1407.34 5.5C1407.34 2.46243 1404.88 0 1401.84 0C1398.79 0 1396.33 2.46243 1396.33 5.5C1396.33 8.53757 1398.79 11 1401.84 11C1404.88 11 1407.34 8.53757 1407.34 5.5Z" fill="#6789F4"/>
<path d="M1441.4 5.5C1441.4 2.46243 1438.93 0 1435.89 0C1432.85 0 1430.38 2.46243 1430.38 5.5C1430.38 8.53757 1432.85 11 1435.89 11C1438.93 11 1441.4 8.53757 1441.4 5.5Z" fill="#00479A"/>
<path d="M11.0153 32.7227C11.0153 29.6851 8.54944 27.2227 5.50765 27.2227C2.46586 27.2227 0 29.6851 0 32.7227C0 35.7602 2.46586 38.2227 5.50765 38.2227C8.54944 38.2227 11.0153 35.7602 11.0153 32.7227Z" fill="#00479A"/>
<path d="M45.07 32.7227C45.07 29.6851 42.6041 27.2227 39.5623 27.2227C36.5205 27.2227 34.0547 29.6851 34.0547 32.7227C34.0547 35.7602 36.5205 38.2227 39.5623 38.2227C42.6041 38.2227 45.07 35.7602 45.07 32.7227Z" fill="#6789F4"/>
<path d="M79.1286 32.7222C79.1286 29.6846 76.6627 27.2222 73.6209 27.2222C70.5791 27.2222 68.1133 29.6846 68.1133 32.7222C68.1133 35.7597 70.5791 38.2222 73.6209 38.2222C76.6627 38.2222 79.1286 35.7597 79.1286 32.7222Z" fill="#0078AD"/>
<path d="M113.186 32.7222C113.186 29.6846 110.72 27.2222 107.679 27.2222C104.637 27.2222 102.171 29.6846 102.171 32.7222C102.171 35.7597 104.637 38.2222 107.679 38.2222C110.72 38.2222 113.186 35.7597 113.186 32.7222Z" fill="#00479A"/>
<path d="M147.237 32.7222C147.237 29.6846 144.771 27.2222 141.729 27.2222C138.688 27.2222 136.222 29.6846 136.222 32.7222C136.222 35.7597 138.688 38.2222 141.729 38.2222C144.771 38.2222 147.237 35.7597 147.237 32.7222Z" fill="#0078AD"/>
<path d="M181.301 32.7222C181.301 29.6846 178.836 27.2222 175.794 27.2222C172.752 27.2222 170.286 29.6846 170.286 32.7222C170.286 35.7597 172.752 38.2222 175.794 38.2222C178.836 38.2222 181.301 35.7597 181.301 32.7222Z" fill="#0078AD"/>
<path d="M215.362 32.7222C215.362 29.6846 212.896 27.2222 209.854 27.2222C206.813 27.2222 204.347 29.6846 204.347 32.7222C204.347 35.7597 206.813 38.2222 209.854 38.2222C212.896 38.2222 215.362 35.7597 215.362 32.7222Z" fill="#0078AD"/>
<path d="M249.421 32.7222C249.421 29.6846 246.955 27.2222 243.913 27.2222C240.871 27.2222 238.405 29.6846 238.405 32.7222C238.405 35.7597 240.871 38.2222 243.913 38.2222C246.955 38.2222 249.421 35.7597 249.421 32.7222Z" fill="#6789F4"/>
<path d="M283.47 32.7227C283.47 29.6851 281.005 27.2227 277.963 27.2227C274.921 27.2227 272.455 29.6851 272.455 32.7227C272.455 35.7602 274.921 38.2227 277.963 38.2227C281.005 38.2227 283.47 35.7602 283.47 32.7227Z" fill="#00479A"/>
<path d="M317.533 32.7227C317.533 29.6851 315.067 27.2227 312.025 27.2227C308.983 27.2227 306.518 29.6851 306.518 32.7227C306.518 35.7602 308.983 38.2227 312.025 38.2227C315.067 38.2227 317.533 35.7602 317.533 32.7227Z" fill="#6789F4"/>
<path d="M351.59 32.7222C351.59 29.6846 349.124 27.2222 346.082 27.2222C343.04 27.2222 340.574 29.6846 340.574 32.7222C340.574 35.7597 343.04 38.2222 346.082 38.2222C349.124 38.2222 351.59 35.7597 351.59 32.7222Z" fill="#6789F4"/>
<path d="M385.652 32.7222C385.652 29.6846 383.186 27.2222 380.144 27.2222C377.103 27.2222 374.637 29.6846 374.637 32.7222C374.637 35.7597 377.103 38.2222 380.144 38.2222C383.186 38.2222 385.652 35.7597 385.652 32.7222Z" fill="#00479A"/>
<path d="M419.705 32.7222C419.705 29.6846 417.239 27.2222 414.197 27.2222C411.155 27.2222 408.689 29.6846 408.689 32.7222C408.689 35.7597 411.155 38.2222 414.197 38.2222C417.239 38.2222 419.705 35.7597 419.705 32.7222Z" fill="#00479A"/>
<path d="M453.762 32.7227C453.762 29.6851 451.297 27.2227 448.255 27.2227C445.213 27.2227 442.747 29.6851 442.747 32.7227C442.747 35.7602 445.213 38.2227 448.255 38.2227C451.297 38.2227 453.762 35.7602 453.762 32.7227Z" fill="#0078AD"/>
<path d="M487.803 32.7227C487.803 29.6851 485.338 27.2227 482.296 27.2227C479.254 27.2227 476.788 29.6851 476.788 32.7227C476.788 35.7602 479.254 38.2227 482.296 38.2227C485.338 38.2227 487.803 35.7602 487.803 32.7227Z" fill="#6789F4"/>
<path d="M521.866 32.7222C521.866 29.6846 519.4 27.2222 516.358 27.2222C513.316 27.2222 510.851 29.6846 510.851 32.7222C510.851 35.7597 513.316 38.2222 516.358 38.2222C519.4 38.2222 521.866 35.7597 521.866 32.7222Z" fill="#00479A"/>
<path d="M555.921 32.7222C555.921 29.6846 553.455 27.2222 550.413 27.2222C547.371 27.2222 544.905 29.6846 544.905 32.7222C544.905 35.7597 547.371 38.2222 550.413 38.2222C553.455 38.2222 555.921 35.7597 555.921 32.7222Z" fill="#00479A"/>
<path d="M589.973 32.7222C589.973 29.6846 587.507 27.2222 584.466 27.2222C581.424 27.2222 578.958 29.6846 578.958 32.7222C578.958 35.7597 581.424 38.2222 584.466 38.2222C587.507 38.2222 589.973 35.7597 589.973 32.7222Z" fill="#6789F4"/>
<path d="M828.382 32.7222C828.382 29.6846 825.916 27.2222 822.874 27.2222C819.832 27.2222 817.366 29.6846 817.366 32.7222C817.366 35.7597 819.832 38.2222 822.874 38.2222C825.916 38.2222 828.382 35.7597 828.382 32.7222Z" fill="#0078AD"/>
<path d="M862.442 32.7222C862.442 29.6846 859.976 27.2222 856.934 27.2222C853.893 27.2222 851.427 29.6846 851.427 32.7222C851.427 35.7597 853.893 38.2222 856.934 38.2222C859.976 38.2222 862.442 35.7597 862.442 32.7222Z" fill="#6789F4"/>
<path d="M896.495 32.7227C896.495 29.6851 894.029 27.2227 890.987 27.2227C887.945 27.2227 885.479 29.6851 885.479 32.7227C885.479 35.7602 887.945 38.2227 890.987 38.2227C894.029 38.2227 896.495 35.7602 896.495 32.7227Z" fill="#00479A"/>
<path d="M930.546 32.7227C930.546 29.6851 928.08 27.2227 925.038 27.2227C921.996 27.2227 919.53 29.6851 919.53 32.7227C919.53 35.7602 921.996 38.2227 925.038 38.2227C928.08 38.2227 930.546 35.7602 930.546 32.7227Z" fill="#6789F4"/>
<path d="M964.608 32.7227C964.608 29.6851 962.142 27.2227 959.1 27.2227C956.059 27.2227 953.593 29.6851 953.593 32.7227C953.593 35.7602 956.059 38.2227 959.1 38.2227C962.142 38.2227 964.608 35.7602 964.608 32.7227Z" fill="#6789F4"/>
<path d="M998.668 32.7222C998.668 29.6846 996.202 27.2222 993.16 27.2222C990.118 27.2222 987.652 29.6846 987.652 32.7222C987.652 35.7597 990.118 38.2222 993.16 38.2222C996.202 38.2222 998.668 35.7597 998.668 32.7222Z" fill="#6789F4"/>
<path d="M1032.72 32.7222C1032.72 29.6846 1030.26 27.2222 1027.22 27.2222C1024.17 27.2222 1021.71 29.6846 1021.71 32.7222C1021.71 35.7597 1024.17 38.2222 1027.22 38.2222C1030.26 38.2222 1032.72 35.7597 1032.72 32.7222Z" fill="#00479A"/>
<path d="M1066.78 32.7222C1066.78 29.6846 1064.32 27.2222 1061.27 27.2222C1058.23 27.2222 1055.77 29.6846 1055.77 32.7222C1055.77 35.7597 1058.23 38.2222 1061.27 38.2222C1064.32 38.2222 1066.78 35.7597 1066.78 32.7222Z" fill="#0078AD"/>
<path d="M1100.84 32.7222C1100.84 29.6846 1098.38 27.2222 1095.33 27.2222C1092.29 27.2222 1089.83 29.6846 1089.83 32.7222C1089.83 35.7597 1092.29 38.2222 1095.33 38.2222C1098.38 38.2222 1100.84 35.7597 1100.84 32.7222Z" fill="#00479A"/>
<path d="M1134.9 32.7222C1134.9 29.6846 1132.43 27.2222 1129.39 27.2222C1126.35 27.2222 1123.88 29.6846 1123.88 32.7222C1123.88 35.7597 1126.35 38.2222 1129.39 38.2222C1132.43 38.2222 1134.9 35.7597 1134.9 32.7222Z" fill="#00479A"/>
<path d="M1168.94 32.7222C1168.94 29.6846 1166.47 27.2222 1163.43 27.2222C1160.39 27.2222 1157.92 29.6846 1157.92 32.7222C1157.92 35.7597 1160.39 38.2222 1163.43 38.2222C1166.47 38.2222 1168.94 35.7597 1168.94 32.7222Z" fill="#0078AD"/>
<path d="M1203 32.7222C1203 29.6846 1200.53 27.2222 1197.49 27.2222C1194.45 27.2222 1191.98 29.6846 1191.98 32.7222C1191.98 35.7597 1194.45 38.2222 1197.49 38.2222C1200.53 38.2222 1203 35.7597 1203 32.7222Z" fill="#0078AD"/>
<path d="M1237.06 32.7222C1237.06 29.6846 1234.59 27.2222 1231.55 27.2222C1228.51 27.2222 1226.04 29.6846 1226.04 32.7222C1226.04 35.7597 1228.51 38.2222 1231.55 38.2222C1234.59 38.2222 1237.06 35.7597 1237.06 32.7222Z" fill="#6789F4"/>
<path d="M1271.11 32.7222C1271.11 29.6846 1268.65 27.2222 1265.6 27.2222C1262.56 27.2222 1260.1 29.6846 1260.1 32.7222C1260.1 35.7597 1262.56 38.2222 1265.6 38.2222C1268.65 38.2222 1271.11 35.7597 1271.11 32.7222Z" fill="#00479A"/>
<path d="M1305.18 32.7222C1305.18 29.6846 1302.71 27.2222 1299.67 27.2222C1296.63 27.2222 1294.16 29.6846 1294.16 32.7222C1294.16 35.7597 1296.63 38.2222 1299.67 38.2222C1302.71 38.2222 1305.18 35.7597 1305.18 32.7222Z" fill="#00479A"/>
<path d="M1339.23 32.7222C1339.23 29.6846 1336.76 27.2222 1333.72 27.2222C1330.68 27.2222 1328.21 29.6846 1328.21 32.7222C1328.21 35.7597 1330.68 38.2222 1333.72 38.2222C1336.76 38.2222 1339.23 35.7597 1339.23 32.7222Z" fill="#0078AD"/>
<path d="M1373.29 32.7227C1373.29 29.6851 1370.82 27.2227 1367.78 27.2227C1364.74 27.2227 1362.27 29.6851 1362.27 32.7227C1362.27 35.7602 1364.74 38.2227 1367.78 38.2227C1370.82 38.2227 1373.29 35.7602 1373.29 32.7227Z" fill="#6789F4"/>
<path d="M1407.34 32.7227C1407.34 29.6851 1404.88 27.2227 1401.84 27.2227C1398.79 27.2227 1396.33 29.6851 1396.33 32.7227C1396.33 35.7602 1398.79 38.2227 1401.84 38.2227C1404.88 38.2227 1407.34 35.7602 1407.34 32.7227Z" fill="#0078AD"/>
<path d="M1441.4 32.7222C1441.4 29.6846 1438.93 27.2222 1435.89 27.2222C1432.85 27.2222 1430.38 29.6846 1430.38 32.7222C1430.38 35.7597 1432.85 38.2222 1435.89 38.2222C1438.93 38.2222 1441.4 35.7597 1441.4 32.7222Z" fill="#6789F4"/>
<path d="M11.0153 59.9448C11.0153 56.9073 8.54944 54.4448 5.50765 54.4448C2.46586 54.4448 0 56.9073 0 59.9448C0 62.9824 2.46586 65.4448 5.50765 65.4448C8.54944 65.4448 11.0153 62.9824 11.0153 59.9448Z" fill="#6789F4"/>
<path d="M45.07 59.9448C45.07 56.9073 42.6041 54.4448 39.5623 54.4448C36.5205 54.4448 34.0547 56.9073 34.0547 59.9448C34.0547 62.9824 36.5205 65.4448 39.5623 65.4448C42.6041 65.4448 45.07 62.9824 45.07 59.9448Z" fill="#6789F4"/>
<path d="M79.1286 59.9448C79.1286 56.9073 76.6627 54.4448 73.6209 54.4448C70.5791 54.4448 68.1133 56.9073 68.1133 59.9448C68.1133 62.9824 70.5791 65.4448 73.6209 65.4448C76.6627 65.4448 79.1286 62.9824 79.1286 59.9448Z" fill="#6789F4"/>
<path d="M113.186 59.9448C113.186 56.9073 110.72 54.4448 107.679 54.4448C104.637 54.4448 102.171 56.9073 102.171 59.9448C102.171 62.9824 104.637 65.4448 107.679 65.4448C110.72 65.4448 113.186 62.9824 113.186 59.9448Z" fill="#00479A"/>
<path d="M147.237 59.9448C147.237 56.9073 144.771 54.4448 141.729 54.4448C138.688 54.4448 136.222 56.9073 136.222 59.9448C136.222 62.9824 138.688 65.4448 141.729 65.4448C144.771 65.4448 147.237 62.9824 147.237 59.9448Z" fill="#0078AD"/>
<path d="M181.301 59.9448C181.301 56.9073 178.836 54.4448 175.794 54.4448C172.752 54.4448 170.286 56.9073 170.286 59.9448C170.286 62.9824 172.752 65.4448 175.794 65.4448C178.836 65.4448 181.301 62.9824 181.301 59.9448Z" fill="#6789F4"/>
<path d="M215.362 59.9448C215.362 56.9073 212.896 54.4448 209.854 54.4448C206.813 54.4448 204.347 56.9073 204.347 59.9448C204.347 62.9824 206.813 65.4448 209.854 65.4448C212.896 65.4448 215.362 62.9824 215.362 59.9448Z" fill="#6789F4"/>
<path d="M249.421 59.9448C249.421 56.9073 246.955 54.4448 243.913 54.4448C240.871 54.4448 238.405 56.9073 238.405 59.9448C238.405 62.9824 240.871 65.4448 243.913 65.4448C246.955 65.4448 249.421 62.9824 249.421 59.9448Z" fill="#00479A"/>
<path d="M283.47 59.9448C283.47 56.9073 281.005 54.4448 277.963 54.4448C274.921 54.4448 272.455 56.9073 272.455 59.9448C272.455 62.9824 274.921 65.4448 277.963 65.4448C281.005 65.4448 283.47 62.9824 283.47 59.9448Z" fill="#00479A"/>
<path d="M317.533 59.9448C317.533 56.9073 315.067 54.4448 312.025 54.4448C308.983 54.4448 306.518 56.9073 306.518 59.9448C306.518 62.9824 308.983 65.4448 312.025 65.4448C315.067 65.4448 317.533 62.9824 317.533 59.9448Z" fill="#0078AD"/>
<path d="M351.59 59.9448C351.59 56.9073 349.124 54.4448 346.082 54.4448C343.04 54.4448 340.574 56.9073 340.574 59.9448C340.574 62.9824 343.04 65.4448 346.082 65.4448C349.124 65.4448 351.59 62.9824 351.59 59.9448Z" fill="#6789F4"/>
<path d="M385.652 59.9448C385.652 56.9073 383.186 54.4448 380.144 54.4448C377.103 54.4448 374.637 56.9073 374.637 59.9448C374.637 62.9824 377.103 65.4448 380.144 65.4448C383.186 65.4448 385.652 62.9824 385.652 59.9448Z" fill="#0078AD"/>
<path d="M419.705 59.9448C419.705 56.9073 417.239 54.4448 414.197 54.4448C411.155 54.4448 408.689 56.9073 408.689 59.9448C408.689 62.9824 411.155 65.4448 414.197 65.4448C417.239 65.4448 419.705 62.9824 419.705 59.9448Z" fill="#0078AD"/>
<path d="M453.762 59.9448C453.762 56.9073 451.297 54.4448 448.255 54.4448C445.213 54.4448 442.747 56.9073 442.747 59.9448C442.747 62.9824 445.213 65.4448 448.255 65.4448C451.297 65.4448 453.762 62.9824 453.762 59.9448Z" fill="#00479A"/>
<path d="M487.803 59.9448C487.803 56.9073 485.338 54.4448 482.296 54.4448C479.254 54.4448 476.788 56.9073 476.788 59.9448C476.788 62.9824 479.254 65.4448 482.296 65.4448C485.338 65.4448 487.803 62.9824 487.803 59.9448Z" fill="#00479A"/>
<path d="M521.866 59.9448C521.866 56.9073 519.4 54.4448 516.358 54.4448C513.316 54.4448 510.851 56.9073 510.851 59.9448C510.851 62.9824 513.316 65.4448 516.358 65.4448C519.4 65.4448 521.866 62.9824 521.866 59.9448Z" fill="#0078AD"/>
<path d="M555.921 59.9448C555.921 56.9073 553.455 54.4448 550.413 54.4448C547.371 54.4448 544.905 56.9073 544.905 59.9448C544.905 62.9824 547.371 65.4448 550.413 65.4448C553.455 65.4448 555.921 62.9824 555.921 59.9448Z" fill="#6789F4"/>
<path d="M589.973 59.9448C589.973 56.9073 587.507 54.4448 584.466 54.4448C581.424 54.4448 578.958 56.9073 578.958 59.9448C578.958 62.9824 581.424 65.4448 584.466 65.4448C587.507 65.4448 589.973 62.9824 589.973 59.9448Z" fill="#6789F4"/>
<path d="M828.382 59.9448C828.382 56.9073 825.916 54.4448 822.874 54.4448C819.832 54.4448 817.366 56.9073 817.366 59.9448C817.366 62.9824 819.832 65.4448 822.874 65.4448C825.916 65.4448 828.382 62.9824 828.382 59.9448Z" fill="#6789F4"/>
<path d="M862.442 59.9448C862.442 56.9073 859.976 54.4448 856.934 54.4448C853.893 54.4448 851.427 56.9073 851.427 59.9448C851.427 62.9824 853.893 65.4448 856.934 65.4448C859.976 65.4448 862.442 62.9824 862.442 59.9448Z" fill="#0078AD"/>
<path d="M896.495 59.9448C896.495 56.9073 894.029 54.4448 890.987 54.4448C887.945 54.4448 885.479 56.9073 885.479 59.9448C885.479 62.9824 887.945 65.4448 890.987 65.4448C894.029 65.4448 896.495 62.9824 896.495 59.9448Z" fill="#0078AD"/>
<path d="M930.546 59.9448C930.546 56.9073 928.08 54.4448 925.038 54.4448C921.996 54.4448 919.53 56.9073 919.53 59.9448C919.53 62.9824 921.996 65.4448 925.038 65.4448C928.08 65.4448 930.546 62.9824 930.546 59.9448Z" fill="#00479A"/>
<path d="M964.608 59.9448C964.608 56.9073 962.142 54.4448 959.1 54.4448C956.059 54.4448 953.593 56.9073 953.593 59.9448C953.593 62.9824 956.059 65.4448 959.1 65.4448C962.142 65.4448 964.608 62.9824 964.608 59.9448Z" fill="#0078AD"/>
<path d="M998.668 59.9448C998.668 56.9073 996.202 54.4448 993.16 54.4448C990.118 54.4448 987.652 56.9073 987.652 59.9448C987.652 62.9824 990.118 65.4448 993.16 65.4448C996.202 65.4448 998.668 62.9824 998.668 59.9448Z" fill="#00479A"/>
<path d="M1032.72 59.9448C1032.72 56.9073 1030.26 54.4448 1027.22 54.4448C1024.17 54.4448 1021.71 56.9073 1021.71 59.9448C1021.71 62.9824 1024.17 65.4448 1027.22 65.4448C1030.26 65.4448 1032.72 62.9824 1032.72 59.9448Z" fill="#00479A"/>
<path d="M1066.78 59.9448C1066.78 56.9073 1064.32 54.4448 1061.27 54.4448C1058.23 54.4448 1055.77 56.9073 1055.77 59.9448C1055.77 62.9824 1058.23 65.4448 1061.27 65.4448C1064.32 65.4448 1066.78 62.9824 1066.78 59.9448Z" fill="#00479A"/>
<path d="M1100.84 59.9448C1100.84 56.9073 1098.38 54.4448 1095.33 54.4448C1092.29 54.4448 1089.83 56.9073 1089.83 59.9448C1089.83 62.9824 1092.29 65.4448 1095.33 65.4448C1098.38 65.4448 1100.84 62.9824 1100.84 59.9448Z" fill="#6789F4"/>
<path d="M1134.9 59.9448C1134.9 56.9073 1132.43 54.4448 1129.39 54.4448C1126.35 54.4448 1123.88 56.9073 1123.88 59.9448C1123.88 62.9824 1126.35 65.4448 1129.39 65.4448C1132.43 65.4448 1134.9 62.9824 1134.9 59.9448Z" fill="#6789F4"/>
<path d="M1168.94 59.9448C1168.94 56.9073 1166.47 54.4448 1163.43 54.4448C1160.39 54.4448 1157.92 56.9073 1157.92 59.9448C1157.92 62.9824 1160.39 65.4448 1163.43 65.4448C1166.47 65.4448 1168.94 62.9824 1168.94 59.9448Z" fill="#0078AD"/>
<path d="M1203 59.9448C1203 56.9073 1200.53 54.4448 1197.49 54.4448C1194.45 54.4448 1191.98 56.9073 1191.98 59.9448C1191.98 62.9824 1194.45 65.4448 1197.49 65.4448C1200.53 65.4448 1203 62.9824 1203 59.9448Z" fill="#6789F4"/>
<path d="M1237.06 59.9448C1237.06 56.9073 1234.59 54.4448 1231.55 54.4448C1228.51 54.4448 1226.04 56.9073 1226.04 59.9448C1226.04 62.9824 1228.51 65.4448 1231.55 65.4448C1234.59 65.4448 1237.06 62.9824 1237.06 59.9448Z" fill="#0078AD"/>
<path d="M1271.11 59.9448C1271.11 56.9073 1268.65 54.4448 1265.6 54.4448C1262.56 54.4448 1260.1 56.9073 1260.1 59.9448C1260.1 62.9824 1262.56 65.4448 1265.6 65.4448C1268.65 65.4448 1271.11 62.9824 1271.11 59.9448Z" fill="#6789F4"/>
<path d="M1305.18 59.9448C1305.18 56.9073 1302.71 54.4448 1299.67 54.4448C1296.63 54.4448 1294.16 56.9073 1294.16 59.9448C1294.16 62.9824 1296.63 65.4448 1299.67 65.4448C1302.71 65.4448 1305.18 62.9824 1305.18 59.9448Z" fill="#0078AD"/>
<path d="M1339.23 59.9448C1339.23 56.9073 1336.76 54.4448 1333.72 54.4448C1330.68 54.4448 1328.21 56.9073 1328.21 59.9448C1328.21 62.9824 1330.68 65.4448 1333.72 65.4448C1336.76 65.4448 1339.23 62.9824 1339.23 59.9448Z" fill="#00479A"/>
<path d="M1373.29 59.9448C1373.29 56.9073 1370.82 54.4448 1367.78 54.4448C1364.74 54.4448 1362.27 56.9073 1362.27 59.9448C1362.27 62.9824 1364.74 65.4448 1367.78 65.4448C1370.82 65.4448 1373.29 62.9824 1373.29 59.9448Z" fill="#6789F4"/>
<path d="M1407.34 59.9448C1407.34 56.9073 1404.88 54.4448 1401.84 54.4448C1398.79 54.4448 1396.33 56.9073 1396.33 59.9448C1396.33 62.9824 1398.79 65.4448 1401.84 65.4448C1404.88 65.4448 1407.34 62.9824 1407.34 59.9448Z" fill="#0078AD"/>
<path d="M1441.4 59.9448C1441.4 56.9073 1438.93 54.4448 1435.89 54.4448C1432.85 54.4448 1430.38 56.9073 1430.38 59.9448C1430.38 62.9824 1432.85 65.4448 1435.89 65.4448C1438.93 65.4448 1441.4 62.9824 1441.4 59.9448Z" fill="#0078AD"/>
<path d="M11.0153 87.168C11.0153 84.1304 8.54944 81.668 5.50765 81.668C2.46586 81.668 0 84.1304 0 87.168C0 90.2055 2.46586 92.668 5.50765 92.668C8.54944 92.668 11.0153 90.2055 11.0153 87.168Z" fill="#0078AD"/>
<path d="M45.07 87.168C45.07 84.1304 42.6041 81.668 39.5623 81.668C36.5205 81.668 34.0547 84.1304 34.0547 87.168C34.0547 90.2055 36.5205 92.668 39.5623 92.668C42.6041 92.668 45.07 90.2055 45.07 87.168Z" fill="#6789F4"/>
<path d="M79.1286 87.168C79.1286 84.1304 76.6627 81.668 73.6209 81.668C70.5791 81.668 68.1133 84.1304 68.1133 87.168C68.1133 90.2055 70.5791 92.668 73.6209 92.668C76.6627 92.668 79.1286 90.2055 79.1286 87.168Z" fill="#0078AD"/>
<path d="M113.186 87.168C113.186 84.1304 110.72 81.668 107.679 81.668C104.637 81.668 102.171 84.1304 102.171 87.168C102.171 90.2055 104.637 92.668 107.679 92.668C110.72 92.668 113.186 90.2055 113.186 87.168Z" fill="#0078AD"/>
<path d="M147.237 87.168C147.237 84.1304 144.771 81.668 141.729 81.668C138.688 81.668 136.222 84.1304 136.222 87.168C136.222 90.2055 138.688 92.668 141.729 92.668C144.771 92.668 147.237 90.2055 147.237 87.168Z" fill="#00479A"/>
<path d="M181.301 87.168C181.301 84.1304 178.836 81.668 175.794 81.668C172.752 81.668 170.286 84.1304 170.286 87.168C170.286 90.2055 172.752 92.668 175.794 92.668C178.836 92.668 181.301 90.2055 181.301 87.168Z" fill="#0078AD"/>
<path d="M215.362 87.168C215.362 84.1304 212.896 81.668 209.854 81.668C206.813 81.668 204.347 84.1304 204.347 87.168C204.347 90.2055 206.813 92.668 209.854 92.668C212.896 92.668 215.362 90.2055 215.362 87.168Z" fill="#00479A"/>
<path d="M249.421 87.168C249.421 84.1304 246.955 81.668 243.913 81.668C240.871 81.668 238.405 84.1304 238.405 87.168C238.405 90.2055 240.871 92.668 243.913 92.668C246.955 92.668 249.421 90.2055 249.421 87.168Z" fill="#0078AD"/>
<path d="M283.47 87.168C283.47 84.1304 281.005 81.668 277.963 81.668C274.921 81.668 272.455 84.1304 272.455 87.168C272.455 90.2055 274.921 92.668 277.963 92.668C281.005 92.668 283.47 90.2055 283.47 87.168Z" fill="#6789F4"/>
<path d="M317.533 87.168C317.533 84.1304 315.067 81.668 312.025 81.668C308.983 81.668 306.518 84.1304 306.518 87.168C306.518 90.2055 308.983 92.668 312.025 92.668C315.067 92.668 317.533 90.2055 317.533 87.168Z" fill="#0078AD"/>
<path d="M351.59 87.168C351.59 84.1304 349.124 81.668 346.082 81.668C343.04 81.668 340.574 84.1304 340.574 87.168C340.574 90.2055 343.04 92.668 346.082 92.668C349.124 92.668 351.59 90.2055 351.59 87.168Z" fill="#0078AD"/>
<path d="M385.652 87.168C385.652 84.1304 383.186 81.668 380.144 81.668C377.103 81.668 374.637 84.1304 374.637 87.168C374.637 90.2055 377.103 92.668 380.144 92.668C383.186 92.668 385.652 90.2055 385.652 87.168Z" fill="#6789F4"/>
<path d="M419.705 87.168C419.705 84.1304 417.239 81.668 414.197 81.668C411.155 81.668 408.689 84.1304 408.689 87.168C408.689 90.2055 411.155 92.668 414.197 92.668C417.239 92.668 419.705 90.2055 419.705 87.168Z" fill="#6789F4"/>
<path d="M453.762 87.168C453.762 84.1304 451.297 81.668 448.255 81.668C445.213 81.668 442.747 84.1304 442.747 87.168C442.747 90.2055 445.213 92.668 448.255 92.668C451.297 92.668 453.762 90.2055 453.762 87.168Z" fill="#0078AD"/>
<path d="M487.803 87.168C487.803 84.1304 485.338 81.668 482.296 81.668C479.254 81.668 476.788 84.1304 476.788 87.168C476.788 90.2055 479.254 92.668 482.296 92.668C485.338 92.668 487.803 90.2055 487.803 87.168Z" fill="#00479A"/>
<path d="M521.866 87.168C521.866 84.1304 519.4 81.668 516.358 81.668C513.316 81.668 510.851 84.1304 510.851 87.168C510.851 90.2055 513.316 92.668 516.358 92.668C519.4 92.668 521.866 90.2055 521.866 87.168Z" fill="#0078AD"/>
<path d="M555.921 87.168C555.921 84.1304 553.455 81.668 550.413 81.668C547.371 81.668 544.905 84.1304 544.905 87.168C544.905 90.2055 547.371 92.668 550.413 92.668C553.455 92.668 555.921 90.2055 555.921 87.168Z" fill="#0078AD"/>
<path d="M589.973 87.168C589.973 84.1304 587.507 81.668 584.466 81.668C581.424 81.668 578.958 84.1304 578.958 87.168C578.958 90.2055 581.424 92.668 584.466 92.668C587.507 92.668 589.973 90.2055 589.973 87.168Z" fill="#00479A"/>
<path d="M828.382 87.168C828.382 84.1304 825.916 81.668 822.874 81.668C819.832 81.668 817.366 84.1304 817.366 87.168C817.366 90.2055 819.832 92.668 822.874 92.668C825.916 92.668 828.382 90.2055 828.382 87.168Z" fill="#6789F4"/>
<path d="M862.442 87.168C862.442 84.1304 859.976 81.668 856.934 81.668C853.893 81.668 851.427 84.1304 851.427 87.168C851.427 90.2055 853.893 92.668 856.934 92.668C859.976 92.668 862.442 90.2055 862.442 87.168Z" fill="#0078AD"/>
<path d="M896.495 87.168C896.495 84.1304 894.029 81.668 890.987 81.668C887.945 81.668 885.479 84.1304 885.479 87.168C885.479 90.2055 887.945 92.668 890.987 92.668C894.029 92.668 896.495 90.2055 896.495 87.168Z" fill="#6789F4"/>
<path d="M930.546 87.168C930.546 84.1304 928.08 81.668 925.038 81.668C921.996 81.668 919.53 84.1304 919.53 87.168C919.53 90.2055 921.996 92.668 925.038 92.668C928.08 92.668 930.546 90.2055 930.546 87.168Z" fill="#6789F4"/>
<path d="M964.608 87.168C964.608 84.1304 962.142 81.668 959.1 81.668C956.059 81.668 953.593 84.1304 953.593 87.168C953.593 90.2055 956.059 92.668 959.1 92.668C962.142 92.668 964.608 90.2055 964.608 87.168Z" fill="#00479A"/>
<path d="M998.668 87.168C998.668 84.1304 996.202 81.668 993.16 81.668C990.118 81.668 987.652 84.1304 987.652 87.168C987.652 90.2055 990.118 92.668 993.16 92.668C996.202 92.668 998.668 90.2055 998.668 87.168Z" fill="#0078AD"/>
<path d="M1032.72 87.168C1032.72 84.1304 1030.26 81.668 1027.22 81.668C1024.17 81.668 1021.71 84.1304 1021.71 87.168C1021.71 90.2055 1024.17 92.668 1027.22 92.668C1030.26 92.668 1032.72 90.2055 1032.72 87.168Z" fill="#0078AD"/>
<path d="M1066.78 87.168C1066.78 84.1304 1064.32 81.668 1061.27 81.668C1058.23 81.668 1055.77 84.1304 1055.77 87.168C1055.77 90.2055 1058.23 92.668 1061.27 92.668C1064.32 92.668 1066.78 90.2055 1066.78 87.168Z" fill="#0078AD"/>
<path d="M1100.84 87.168C1100.84 84.1304 1098.38 81.668 1095.33 81.668C1092.29 81.668 1089.83 84.1304 1089.83 87.168C1089.83 90.2055 1092.29 92.668 1095.33 92.668C1098.38 92.668 1100.84 90.2055 1100.84 87.168Z" fill="#6789F4"/>
<path d="M1134.9 87.168C1134.9 84.1304 1132.43 81.668 1129.39 81.668C1126.35 81.668 1123.88 84.1304 1123.88 87.168C1123.88 90.2055 1126.35 92.668 1129.39 92.668C1132.43 92.668 1134.9 90.2055 1134.9 87.168Z" fill="#00479A"/>
<path d="M1168.94 87.168C1168.94 84.1304 1166.47 81.668 1163.43 81.668C1160.39 81.668 1157.92 84.1304 1157.92 87.168C1157.92 90.2055 1160.39 92.668 1163.43 92.668C1166.47 92.668 1168.94 90.2055 1168.94 87.168Z" fill="#6789F4"/>
<path d="M1203 87.168C1203 84.1304 1200.53 81.668 1197.49 81.668C1194.45 81.668 1191.98 84.1304 1191.98 87.168C1191.98 90.2055 1194.45 92.668 1197.49 92.668C1200.53 92.668 1203 90.2055 1203 87.168Z" fill="#00479A"/>
<path d="M1237.06 87.168C1237.06 84.1304 1234.59 81.668 1231.55 81.668C1228.51 81.668 1226.04 84.1304 1226.04 87.168C1226.04 90.2055 1228.51 92.668 1231.55 92.668C1234.59 92.668 1237.06 90.2055 1237.06 87.168Z" fill="#6789F4"/>
<path d="M1271.11 87.168C1271.11 84.1304 1268.65 81.668 1265.6 81.668C1262.56 81.668 1260.1 84.1304 1260.1 87.168C1260.1 90.2055 1262.56 92.668 1265.6 92.668C1268.65 92.668 1271.11 90.2055 1271.11 87.168Z" fill="#00479A"/>
<path d="M1305.18 87.168C1305.18 84.1304 1302.71 81.668 1299.67 81.668C1296.63 81.668 1294.16 84.1304 1294.16 87.168C1294.16 90.2055 1296.63 92.668 1299.67 92.668C1302.71 92.668 1305.18 90.2055 1305.18 87.168Z" fill="#6789F4"/>
<path d="M1339.23 87.168C1339.23 84.1304 1336.76 81.668 1333.72 81.668C1330.68 81.668 1328.21 84.1304 1328.21 87.168C1328.21 90.2055 1330.68 92.668 1333.72 92.668C1336.76 92.668 1339.23 90.2055 1339.23 87.168Z" fill="#00479A"/>
<path d="M1373.29 87.168C1373.29 84.1304 1370.82 81.668 1367.78 81.668C1364.74 81.668 1362.27 84.1304 1362.27 87.168C1362.27 90.2055 1364.74 92.668 1367.78 92.668C1370.82 92.668 1373.29 90.2055 1373.29 87.168Z" fill="#00479A"/>
<path d="M1407.34 87.168C1407.34 84.1304 1404.88 81.668 1401.84 81.668C1398.79 81.668 1396.33 84.1304 1396.33 87.168C1396.33 90.2055 1398.79 92.668 1401.84 92.668C1404.88 92.668 1407.34 90.2055 1407.34 87.168Z" fill="#00479A"/>
<path d="M1441.4 87.168C1441.4 84.1304 1438.93 81.668 1435.89 81.668C1432.85 81.668 1430.38 84.1304 1430.38 87.168C1430.38 90.2055 1432.85 92.668 1435.89 92.668C1438.93 92.668 1441.4 90.2055 1441.4 87.168Z" fill="#6789F4"/>
<path d="M11.0153 114.391C11.0153 111.353 8.54944 108.891 5.50765 108.891C2.46586 108.891 0 111.353 0 114.391C0 117.428 2.46586 119.891 5.50765 119.891C8.54944 119.891 11.0153 117.428 11.0153 114.391Z" fill="#00479A"/>
<path d="M45.07 114.391C45.07 111.353 42.6041 108.891 39.5623 108.891C36.5205 108.891 34.0547 111.353 34.0547 114.391C34.0547 117.428 36.5205 119.891 39.5623 119.891C42.6041 119.891 45.07 117.428 45.07 114.391Z" fill="#00479A"/>
<path d="M79.1286 114.39C79.1286 111.353 76.6627 108.89 73.6209 108.89C70.5791 108.89 68.1133 111.353 68.1133 114.39C68.1133 117.428 70.5791 119.89 73.6209 119.89C76.6627 119.89 79.1286 117.428 79.1286 114.39Z" fill="#6789F4"/>
<path d="M113.186 114.39C113.186 111.353 110.72 108.89 107.679 108.89C104.637 108.89 102.171 111.353 102.171 114.39C102.171 117.428 104.637 119.89 107.679 119.89C110.72 119.89 113.186 117.428 113.186 114.39Z" fill="#00479A"/>
<path d="M147.237 114.39C147.237 111.353 144.771 108.89 141.729 108.89C138.688 108.89 136.222 111.353 136.222 114.39C136.222 117.428 138.688 119.89 141.729 119.89C144.771 119.89 147.237 117.428 147.237 114.39Z" fill="#6789F4"/>
<path d="M181.301 114.39C181.301 111.353 178.836 108.89 175.794 108.89C172.752 108.89 170.286 111.353 170.286 114.39C170.286 117.428 172.752 119.89 175.794 119.89C178.836 119.89 181.301 117.428 181.301 114.39Z" fill="#6789F4"/>
<path d="M215.362 114.39C215.362 111.353 212.896 108.89 209.854 108.89C206.813 108.89 204.347 111.353 204.347 114.39C204.347 117.428 206.813 119.89 209.854 119.89C212.896 119.89 215.362 117.428 215.362 114.39Z" fill="#00479A"/>
<path d="M249.421 114.39C249.421 111.353 246.955 108.89 243.913 108.89C240.871 108.89 238.405 111.353 238.405 114.39C238.405 117.428 240.871 119.89 243.913 119.89C246.955 119.89 249.421 117.428 249.421 114.39Z" fill="#00479A"/>
<path d="M283.47 114.391C283.47 111.353 281.005 108.891 277.963 108.891C274.921 108.891 272.455 111.353 272.455 114.391C272.455 117.428 274.921 119.891 277.963 119.891C281.005 119.891 283.47 117.428 283.47 114.391Z" fill="#00479A"/>
<path d="M317.533 114.391C317.533 111.353 315.067 108.891 312.025 108.891C308.983 108.891 306.518 111.353 306.518 114.391C306.518 117.428 308.983 119.891 312.025 119.891C315.067 119.891 317.533 117.428 317.533 114.391Z" fill="#6789F4"/>
<path d="M351.59 114.39C351.59 111.353 349.124 108.89 346.082 108.89C343.04 108.89 340.574 111.353 340.574 114.39C340.574 117.428 343.04 119.89 346.082 119.89C349.124 119.89 351.59 117.428 351.59 114.39Z" fill="#00479A"/>
<path d="M385.652 114.39C385.652 111.353 383.186 108.89 380.144 108.89C377.103 108.89 374.637 111.353 374.637 114.39C374.637 117.428 377.103 119.89 380.144 119.89C383.186 119.89 385.652 117.428 385.652 114.39Z" fill="#00479A"/>
<path d="M419.705 114.39C419.705 111.353 417.239 108.89 414.197 108.89C411.155 108.89 408.689 111.353 408.689 114.39C408.689 117.428 411.155 119.89 414.197 119.89C417.239 119.89 419.705 117.428 419.705 114.39Z" fill="#6789F4"/>
<path d="M453.762 114.391C453.762 111.353 451.297 108.891 448.255 108.891C445.213 108.891 442.747 111.353 442.747 114.391C442.747 117.428 445.213 119.891 448.255 119.891C451.297 119.891 453.762 117.428 453.762 114.391Z" fill="#0078AD"/>
<path d="M487.803 114.391C487.803 111.353 485.338 108.891 482.296 108.891C479.254 108.891 476.788 111.353 476.788 114.391C476.788 117.428 479.254 119.891 482.296 119.891C485.338 119.891 487.803 117.428 487.803 114.391Z" fill="#0078AD"/>
<path d="M521.866 114.39C521.866 111.353 519.4 108.89 516.358 108.89C513.316 108.89 510.851 111.353 510.851 114.39C510.851 117.428 513.316 119.89 516.358 119.89C519.4 119.89 521.866 117.428 521.866 114.39Z" fill="#6789F4"/>
<path d="M555.921 114.39C555.921 111.353 553.455 108.89 550.413 108.89C547.371 108.89 544.905 111.353 544.905 114.39C544.905 117.428 547.371 119.89 550.413 119.89C553.455 119.89 555.921 117.428 555.921 114.39Z" fill="#00479A"/>
<path d="M589.973 114.39C589.973 111.353 587.507 108.89 584.466 108.89C581.424 108.89 578.958 111.353 578.958 114.39C578.958 117.428 581.424 119.89 584.466 119.89C587.507 119.89 589.973 117.428 589.973 114.39Z" fill="#6789F4"/>
<path d="M828.382 114.39C828.382 111.353 825.916 108.89 822.874 108.89C819.832 108.89 817.366 111.353 817.366 114.39C817.366 117.428 819.832 119.89 822.874 119.89C825.916 119.89 828.382 117.428 828.382 114.39Z" fill="#0078AD"/>
<path d="M862.442 114.39C862.442 111.353 859.976 108.89 856.934 108.89C853.893 108.89 851.427 111.353 851.427 114.39C851.427 117.428 853.893 119.89 856.934 119.89C859.976 119.89 862.442 117.428 862.442 114.39Z" fill="#00479A"/>
<path d="M896.495 114.391C896.495 111.353 894.029 108.891 890.987 108.891C887.945 108.891 885.479 111.353 885.479 114.391C885.479 117.428 887.945 119.891 890.987 119.891C894.029 119.891 896.495 117.428 896.495 114.391Z" fill="#0078AD"/>
<path d="M930.546 114.391C930.546 111.353 928.08 108.891 925.038 108.891C921.996 108.891 919.53 111.353 919.53 114.391C919.53 117.428 921.996 119.891 925.038 119.891C928.08 119.891 930.546 117.428 930.546 114.391Z" fill="#6789F4"/>
<path d="M964.608 114.391C964.608 111.353 962.142 108.891 959.1 108.891C956.059 108.891 953.593 111.353 953.593 114.391C953.593 117.428 956.059 119.891 959.1 119.891C962.142 119.891 964.608 117.428 964.608 114.391Z" fill="#6789F4"/>
<path d="M998.668 114.39C998.668 111.353 996.202 108.89 993.16 108.89C990.118 108.89 987.652 111.353 987.652 114.39C987.652 117.428 990.118 119.89 993.16 119.89C996.202 119.89 998.668 117.428 998.668 114.39Z" fill="#6789F4"/>
<path d="M1032.72 114.39C1032.72 111.353 1030.26 108.89 1027.22 108.89C1024.17 108.89 1021.71 111.353 1021.71 114.39C1021.71 117.428 1024.17 119.89 1027.22 119.89C1030.26 119.89 1032.72 117.428 1032.72 114.39Z" fill="#0078AD"/>
<path d="M1066.78 114.39C1066.78 111.353 1064.32 108.89 1061.27 108.89C1058.23 108.89 1055.77 111.353 1055.77 114.39C1055.77 117.428 1058.23 119.89 1061.27 119.89C1064.32 119.89 1066.78 117.428 1066.78 114.39Z" fill="#00479A"/>
<path d="M1100.84 114.39C1100.84 111.353 1098.38 108.89 1095.33 108.89C1092.29 108.89 1089.83 111.353 1089.83 114.39C1089.83 117.428 1092.29 119.89 1095.33 119.89C1098.38 119.89 1100.84 117.428 1100.84 114.39Z" fill="#6789F4"/>
<path d="M1134.9 114.39C1134.9 111.353 1132.43 108.89 1129.39 108.89C1126.35 108.89 1123.88 111.353 1123.88 114.39C1123.88 117.428 1126.35 119.89 1129.39 119.89C1132.43 119.89 1134.9 117.428 1134.9 114.39Z" fill="#6789F4"/>
<path d="M1168.94 114.39C1168.94 111.353 1166.47 108.89 1163.43 108.89C1160.39 108.89 1157.92 111.353 1157.92 114.39C1157.92 117.428 1160.39 119.89 1163.43 119.89C1166.47 119.89 1168.94 117.428 1168.94 114.39Z" fill="#0078AD"/>
<path d="M1203 114.39C1203 111.353 1200.53 108.89 1197.49 108.89C1194.45 108.89 1191.98 111.353 1191.98 114.39C1191.98 117.428 1194.45 119.89 1197.49 119.89C1200.53 119.89 1203 117.428 1203 114.39Z" fill="#00479A"/>
<path d="M1237.06 114.39C1237.06 111.353 1234.59 108.89 1231.55 108.89C1228.51 108.89 1226.04 111.353 1226.04 114.39C1226.04 117.428 1228.51 119.89 1231.55 119.89C1234.59 119.89 1237.06 117.428 1237.06 114.39Z" fill="#6789F4"/>
<path d="M1271.11 114.39C1271.11 111.353 1268.65 108.89 1265.6 108.89C1262.56 108.89 1260.1 111.353 1260.1 114.39C1260.1 117.428 1262.56 119.89 1265.6 119.89C1268.65 119.89 1271.11 117.428 1271.11 114.39Z" fill="#00479A"/>
<path d="M1305.18 114.39C1305.18 111.353 1302.71 108.89 1299.67 108.89C1296.63 108.89 1294.16 111.353 1294.16 114.39C1294.16 117.428 1296.63 119.89 1299.67 119.89C1302.71 119.89 1305.18 117.428 1305.18 114.39Z" fill="#00479A"/>
<path d="M1339.23 114.39C1339.23 111.353 1336.76 108.89 1333.72 108.89C1330.68 108.89 1328.21 111.353 1328.21 114.39C1328.21 117.428 1330.68 119.89 1333.72 119.89C1336.76 119.89 1339.23 117.428 1339.23 114.39Z" fill="#6789F4"/>
<path d="M1373.29 114.391C1373.29 111.353 1370.82 108.891 1367.78 108.891C1364.74 108.891 1362.27 111.353 1362.27 114.391C1362.27 117.428 1364.74 119.891 1367.78 119.891C1370.82 119.891 1373.29 117.428 1373.29 114.391Z" fill="#6789F4"/>
<path d="M1407.34 114.391C1407.34 111.353 1404.88 108.891 1401.84 108.891C1398.79 108.891 1396.33 111.353 1396.33 114.391C1396.33 117.428 1398.79 119.891 1401.84 119.891C1404.88 119.891 1407.34 117.428 1407.34 114.391Z" fill="#6789F4"/>
<path d="M1441.4 114.39C1441.4 111.353 1438.93 108.89 1435.89 108.89C1432.85 108.89 1430.38 111.353 1430.38 114.39C1430.38 117.428 1432.85 119.89 1435.89 119.89C1438.93 119.89 1441.4 117.428 1441.4 114.39Z" fill="#0078AD"/>
<path d="M11.0153 141.613C11.0153 138.575 8.54944 136.113 5.50765 136.113C2.46586 136.113 0 138.575 0 141.613C0 144.65 2.46586 147.113 5.50765 147.113C8.54944 147.113 11.0153 144.65 11.0153 141.613Z" fill="#6789F4"/>
<path d="M45.07 141.613C45.07 138.575 42.6041 136.113 39.5623 136.113C36.5205 136.113 34.0547 138.575 34.0547 141.613C34.0547 144.65 36.5205 147.113 39.5623 147.113C42.6041 147.113 45.07 144.65 45.07 141.613Z" fill="#6789F4"/>
<path d="M79.1286 141.613C79.1286 138.576 76.6627 136.113 73.6209 136.113C70.5791 136.113 68.1133 138.576 68.1133 141.613C68.1133 144.651 70.5791 147.113 73.6209 147.113C76.6627 147.113 79.1286 144.651 79.1286 141.613Z" fill="#6789F4"/>
<path d="M113.186 141.613C113.186 138.576 110.72 136.113 107.679 136.113C104.637 136.113 102.171 138.576 102.171 141.613C102.171 144.651 104.637 147.113 107.679 147.113C110.72 147.113 113.186 144.651 113.186 141.613Z" fill="#00479A"/>
<path d="M147.237 141.613C147.237 138.576 144.771 136.113 141.729 136.113C138.688 136.113 136.222 138.576 136.222 141.613C136.222 144.651 138.688 147.113 141.729 147.113C144.771 147.113 147.237 144.651 147.237 141.613Z" fill="#0078AD"/>
<path d="M181.301 141.613C181.301 138.576 178.836 136.113 175.794 136.113C172.752 136.113 170.286 138.576 170.286 141.613C170.286 144.651 172.752 147.113 175.794 147.113C178.836 147.113 181.301 144.651 181.301 141.613Z" fill="#6789F4"/>
<path d="M215.362 141.613C215.362 138.576 212.896 136.113 209.854 136.113C206.813 136.113 204.347 138.576 204.347 141.613C204.347 144.651 206.813 147.113 209.854 147.113C212.896 147.113 215.362 144.651 215.362 141.613Z" fill="#00479A"/>
<path d="M249.421 141.613C249.421 138.576 246.955 136.113 243.913 136.113C240.871 136.113 238.405 138.576 238.405 141.613C238.405 144.651 240.871 147.113 243.913 147.113C246.955 147.113 249.421 144.651 249.421 141.613Z" fill="#6789F4"/>
<path d="M283.47 141.613C283.47 138.575 281.005 136.113 277.963 136.113C274.921 136.113 272.455 138.575 272.455 141.613C272.455 144.65 274.921 147.113 277.963 147.113C281.005 147.113 283.47 144.65 283.47 141.613Z" fill="#00479A"/>
<path d="M317.533 141.613C317.533 138.575 315.067 136.113 312.025 136.113C308.983 136.113 306.518 138.575 306.518 141.613C306.518 144.65 308.983 147.113 312.025 147.113C315.067 147.113 317.533 144.65 317.533 141.613Z" fill="#0078AD"/>
<path d="M351.59 141.613C351.59 138.576 349.124 136.113 346.082 136.113C343.04 136.113 340.574 138.576 340.574 141.613C340.574 144.651 343.04 147.113 346.082 147.113C349.124 147.113 351.59 144.651 351.59 141.613Z" fill="#0078AD"/>
<path d="M385.652 141.613C385.652 138.576 383.186 136.113 380.144 136.113C377.103 136.113 374.637 138.576 374.637 141.613C374.637 144.651 377.103 147.113 380.144 147.113C383.186 147.113 385.652 144.651 385.652 141.613Z" fill="#00479A"/>
<path d="M419.705 141.613C419.705 138.576 417.239 136.113 414.197 136.113C411.155 136.113 408.689 138.576 408.689 141.613C408.689 144.651 411.155 147.113 414.197 147.113C417.239 147.113 419.705 144.651 419.705 141.613Z" fill="#00479A"/>
<path d="M453.762 141.613C453.762 138.575 451.297 136.113 448.255 136.113C445.213 136.113 442.747 138.575 442.747 141.613C442.747 144.65 445.213 147.113 448.255 147.113C451.297 147.113 453.762 144.65 453.762 141.613Z" fill="#6789F4"/>
<path d="M487.803 141.613C487.803 138.575 485.338 136.113 482.296 136.113C479.254 136.113 476.788 138.575 476.788 141.613C476.788 144.65 479.254 147.113 482.296 147.113C485.338 147.113 487.803 144.65 487.803 141.613Z" fill="#0078AD"/>
<path d="M521.866 141.613C521.866 138.576 519.4 136.113 516.358 136.113C513.316 136.113 510.851 138.576 510.851 141.613C510.851 144.651 513.316 147.113 516.358 147.113C519.4 147.113 521.866 144.651 521.866 141.613Z" fill="#6789F4"/>
<path d="M555.921 141.613C555.921 138.576 553.455 136.113 550.413 136.113C547.371 136.113 544.905 138.576 544.905 141.613C544.905 144.651 547.371 147.113 550.413 147.113C553.455 147.113 555.921 144.651 555.921 141.613Z" fill="#00479A"/>
<path d="M589.973 141.613C589.973 138.576 587.507 136.113 584.466 136.113C581.424 136.113 578.958 138.576 578.958 141.613C578.958 144.651 581.424 147.113 584.466 147.113C587.507 147.113 589.973 144.651 589.973 141.613Z" fill="#6789F4"/>
<path d="M828.382 141.613C828.382 138.576 825.916 136.113 822.874 136.113C819.832 136.113 817.366 138.576 817.366 141.613C817.366 144.651 819.832 147.113 822.874 147.113C825.916 147.113 828.382 144.651 828.382 141.613Z" fill="#0078AD"/>
<path d="M862.442 141.613C862.442 138.576 859.976 136.113 856.934 136.113C853.893 136.113 851.427 138.576 851.427 141.613C851.427 144.651 853.893 147.113 856.934 147.113C859.976 147.113 862.442 144.651 862.442 141.613Z" fill="#00479A"/>
<path d="M896.495 141.613C896.495 138.575 894.029 136.113 890.987 136.113C887.945 136.113 885.479 138.575 885.479 141.613C885.479 144.65 887.945 147.113 890.987 147.113C894.029 147.113 896.495 144.65 896.495 141.613Z" fill="#00479A"/>
<path d="M930.546 141.613C930.546 138.575 928.08 136.113 925.038 136.113C921.996 136.113 919.53 138.575 919.53 141.613C919.53 144.65 921.996 147.113 925.038 147.113C928.08 147.113 930.546 144.65 930.546 141.613Z" fill="#00479A"/>
<path d="M964.608 141.613C964.608 138.575 962.142 136.113 959.1 136.113C956.059 136.113 953.593 138.575 953.593 141.613C953.593 144.65 956.059 147.113 959.1 147.113C962.142 147.113 964.608 144.65 964.608 141.613Z" fill="#6789F4"/>
<path d="M998.668 141.613C998.668 138.576 996.202 136.113 993.16 136.113C990.118 136.113 987.652 138.576 987.652 141.613C987.652 144.651 990.118 147.113 993.16 147.113C996.202 147.113 998.668 144.651 998.668 141.613Z" fill="#0078AD"/>
<path d="M1032.72 141.613C1032.72 138.576 1030.26 136.113 1027.22 136.113C1024.17 136.113 1021.71 138.576 1021.71 141.613C1021.71 144.651 1024.17 147.113 1027.22 147.113C1030.26 147.113 1032.72 144.651 1032.72 141.613Z" fill="#6789F4"/>
<path d="M1066.78 141.613C1066.78 138.576 1064.32 136.113 1061.27 136.113C1058.23 136.113 1055.77 138.576 1055.77 141.613C1055.77 144.651 1058.23 147.113 1061.27 147.113C1064.32 147.113 1066.78 144.651 1066.78 141.613Z" fill="#00479A"/>
<path d="M1100.84 141.613C1100.84 138.576 1098.38 136.113 1095.33 136.113C1092.29 136.113 1089.83 138.576 1089.83 141.613C1089.83 144.651 1092.29 147.113 1095.33 147.113C1098.38 147.113 1100.84 144.651 1100.84 141.613Z" fill="#0078AD"/>
<path d="M1134.9 141.613C1134.9 138.576 1132.43 136.113 1129.39 136.113C1126.35 136.113 1123.88 138.576 1123.88 141.613C1123.88 144.651 1126.35 147.113 1129.39 147.113C1132.43 147.113 1134.9 144.651 1134.9 141.613Z" fill="#00479A"/>
<path d="M1168.94 141.613C1168.94 138.576 1166.47 136.113 1163.43 136.113C1160.39 136.113 1157.92 138.576 1157.92 141.613C1157.92 144.651 1160.39 147.113 1163.43 147.113C1166.47 147.113 1168.94 144.651 1168.94 141.613Z" fill="#00479A"/>
<path d="M1203 141.613C1203 138.576 1200.53 136.113 1197.49 136.113C1194.45 136.113 1191.98 138.576 1191.98 141.613C1191.98 144.651 1194.45 147.113 1197.49 147.113C1200.53 147.113 1203 144.651 1203 141.613Z" fill="#00479A"/>
<path d="M1237.06 141.613C1237.06 138.576 1234.59 136.113 1231.55 136.113C1228.51 136.113 1226.04 138.576 1226.04 141.613C1226.04 144.651 1228.51 147.113 1231.55 147.113C1234.59 147.113 1237.06 144.651 1237.06 141.613Z" fill="#0078AD"/>
<path d="M1271.11 141.613C1271.11 138.576 1268.65 136.113 1265.6 136.113C1262.56 136.113 1260.1 138.576 1260.1 141.613C1260.1 144.651 1262.56 147.113 1265.6 147.113C1268.65 147.113 1271.11 144.651 1271.11 141.613Z" fill="#6789F4"/>
<path d="M1305.18 141.613C1305.18 138.576 1302.71 136.113 1299.67 136.113C1296.63 136.113 1294.16 138.576 1294.16 141.613C1294.16 144.651 1296.63 147.113 1299.67 147.113C1302.71 147.113 1305.18 144.651 1305.18 141.613Z" fill="#0078AD"/>
<path d="M1339.23 141.613C1339.23 138.576 1336.76 136.113 1333.72 136.113C1330.68 136.113 1328.21 138.576 1328.21 141.613C1328.21 144.651 1330.68 147.113 1333.72 147.113C1336.76 147.113 1339.23 144.651 1339.23 141.613Z" fill="#00479A"/>
<path d="M1373.29 141.613C1373.29 138.575 1370.82 136.113 1367.78 136.113C1364.74 136.113 1362.27 138.575 1362.27 141.613C1362.27 144.65 1364.74 147.113 1367.78 147.113C1370.82 147.113 1373.29 144.65 1373.29 141.613Z" fill="#0078AD"/>
<path d="M1407.34 141.613C1407.34 138.575 1404.88 136.113 1401.84 136.113C1398.79 136.113 1396.33 138.575 1396.33 141.613C1396.33 144.65 1398.79 147.113 1401.84 147.113C1404.88 147.113 1407.34 144.65 1407.34 141.613Z" fill="#6789F4"/>
<path d="M1441.4 141.613C1441.4 138.576 1438.93 136.113 1435.89 136.113C1432.85 136.113 1430.38 138.576 1430.38 141.613C1430.38 144.651 1432.85 147.113 1435.89 147.113C1438.93 147.113 1441.4 144.651 1441.4 141.613Z" fill="#6789F4"/>
</svg>
