<svg width="54" height="64" viewBox="0 0 54 64" fill="none" xmlns="http://www.w3.org/2000/svg">
<path d="M17.9458 37.0676C17.5943 37.0676 17.2571 36.9264 17.0104 36.6758C16.7606 36.4306 16.6201 36.095 16.6201 35.7449C16.6201 35.3949 16.7606 35.0601 17.0104 34.8148L25.5006 26.3141V9.43096C25.5621 8.74686 26.1361 8.22296 26.8225 8.22296C27.5097 8.22296 28.0829 8.74686 28.1452 9.43096V26.8472C28.1452 27.1935 28.0085 27.526 27.764 27.772L18.8821 36.6539C18.6392 36.9128 18.3013 37.0617 17.9459 37.0677L17.9458 37.0676Z" fill="#00479A" stroke="white"/>
<path d="M26.8291 29.5882C25.7221 29.5928 24.7214 28.9284 24.2963 27.9072C23.8703 26.8852 24.1034 25.7069 24.8862 24.9247C25.669 24.1419 26.8467 23.9088 27.8687 24.334C28.8907 24.7599 29.5543 25.7599 29.5505 26.8669C29.5444 28.3672 28.3296 29.5821 26.8292 29.5881L26.8291 29.5882ZM26.8291 26.7797V26.7805C26.7805 26.7805 26.7418 26.8192 26.7418 26.867C26.7471 26.9111 26.7843 26.9437 26.8291 26.9437C26.8709 26.9437 26.9051 26.9095 26.9051 26.867C26.9081 26.845 26.9013 26.823 26.8868 26.8063C26.8724 26.7896 26.8512 26.7797 26.8291 26.7805V26.7797Z" fill="#00479A" stroke="white"/>
<path d="M30.3087 63.9427C30.3945 63.9784 30.4877 64 30.5807 64C30.767 64 30.953 63.9283 31.0892 63.7924L38.0486 56.8331C38.5067 56.8757 38.9506 56.9117 39.3802 56.9117C39.8098 56.9117 40.2538 56.876 40.7119 56.8259L47.6712 63.7852C47.8072 63.9211 47.9934 63.9928 48.1797 63.9928C48.2727 63.9928 48.366 63.9784 48.4518 63.9355C48.7167 63.8281 48.8958 63.5632 48.8958 63.2768V59.9403H52.2323C52.5187 59.9403 52.7836 59.7684 52.891 59.4963C52.9984 59.2242 52.9411 58.9236 52.7335 58.716L47.5067 53.4892C49.6259 51.3629 50.8361 48.4775 50.8361 45.4559C50.8361 39.141 45.6954 34 39.3801 34C33.0652 34 27.9242 39.1407 27.9242 45.4559C27.9242 48.4774 29.1341 51.3628 31.2464 53.5033L26.0196 58.7301C25.812 58.9377 25.7547 59.2455 25.8621 59.5104C25.9695 59.7753 26.2344 59.9544 26.5209 59.9544H29.8574V63.2909C29.8645 63.5702 30.0364 63.8351 30.3085 63.9425L30.3087 63.9427ZM50.5067 58.5155H48.1797C47.7858 58.5155 47.4636 58.8377 47.4636 59.2316V61.5586L42.4088 56.5038C43.8766 56.1027 45.244 55.4154 46.447 54.4632L50.5067 58.5155ZM29.3568 45.456C29.3568 39.9287 33.8531 35.4325 39.3804 35.4325C44.9076 35.4325 49.4039 39.9288 49.4039 45.456C49.4039 48.3272 48.1725 51.0623 46.0245 52.9597C44.571 54.2485 42.7882 55.0861 40.8838 55.3725C39.8314 55.5156 38.9435 55.5156 37.8983 55.3725C35.9867 55.0861 34.2039 54.2557 32.7504 52.9597C30.5881 51.0625 29.3566 48.3275 29.3566 45.456H29.3568ZM28.2541 58.5155L32.3066 54.463C33.5096 55.4079 34.877 56.1025 36.3448 56.5035L31.2971 61.5512V59.2242C31.2971 58.8303 30.975 58.5081 30.5811 58.5081L28.2541 58.5083V58.5155Z" fill="#00479A"/>
<path d="M39.3804 51.9001C42.9317 51.9001 45.8242 49.0075 45.8242 45.4562C45.8242 41.9049 42.9317 39.0124 39.3804 39.0124C35.8291 39.0124 32.9365 41.9049 32.9365 45.4562C32.9365 49.0075 35.8291 51.9001 39.3804 51.9001ZM39.3804 40.4441C42.1442 40.4441 44.3923 42.6923 44.3923 45.4561C44.3923 48.2199 42.1442 50.4681 39.3804 50.4681C36.6166 50.4681 34.3684 48.2199 34.3684 45.4561C34.3684 42.6923 36.6166 40.4441 39.3804 40.4441Z" fill="#00479A"/>
<path d="M24.8621 52.9467C24.8183 53.4781 24.3517 53.8751 23.8223 53.8124C18.5295 53.1851 13.5327 51.004 9.46844 47.534C5.15905 43.8547 2.11644 38.9129 0.771533 33.4084C-0.573373 27.9039 -0.152401 22.1158 1.97482 16.8639C4.10205 11.612 7.8277 7.16238 12.6241 4.14537C17.4205 1.12836 23.0446 -0.303161 28.6997 0.0535547C34.3549 0.410271 39.7545 2.53714 44.1338 6.13294C48.5131 9.72874 51.6501 14.6112 53.1005 20.0888C54.4684 25.2549 54.2708 30.7034 52.5443 35.7458C52.3716 36.2502 51.8117 36.4988 51.3138 36.3082C50.8159 36.1176 50.5686 35.56 50.7399 35.0551C52.3224 30.3916 52.4983 25.3574 51.2341 20.583C49.8874 15.4971 46.9747 10.9638 42.9086 7.6251C38.8424 4.28643 33.8289 2.31165 28.5782 1.98044C23.3274 1.64923 18.1055 2.97839 13.6521 5.77966C9.19867 8.58093 5.73944 12.7123 3.76432 17.5887C1.78921 22.4651 1.39834 27.8393 2.64708 32.9501C3.89581 38.061 6.72085 42.6495 10.7221 46.0656C14.4782 49.2726 19.0921 51.2938 23.981 51.8868C24.5103 51.951 24.9059 52.4154 24.8621 52.9467Z" fill="#00479A"/>
</svg>
