<svg width="27" height="28" viewBox="0 0 27 28" fill="none" xmlns="http://www.w3.org/2000/svg">
<path class="primaryMenuColor" d="M11.9523 16.293H20.8953C21.0109 16.293 21.1219 16.2469 21.2036 16.165C21.2855 16.083 21.3314 15.9719 21.3314 15.856V12.1431C21.3314 12.0273 21.2855 11.9162 21.2036 11.8342C21.1219 11.7523 21.0109 11.7062 20.8953 11.7062H11.9523C11.7114 11.7062 11.5162 11.9019 11.5162 12.1431V15.856C11.5162 15.9719 11.5622 16.083 11.6439 16.165C11.7257 16.2469 11.8366 16.293 11.9523 16.293Z" fill="#00479A"/>
<path class="primaryMenuColor" d="M20.9387 19.2629H11.9089C11.668 19.2629 11.4725 19.4585 11.4725 19.6997V24.0678C11.4725 24.1838 11.5186 24.2948 11.6003 24.3768C11.6822 24.4586 11.7932 24.5047 11.9089 24.5047H20.9387C21.0546 24.5047 21.1653 24.4586 21.2473 24.3768C21.329 24.2948 21.375 24.1838 21.375 24.0678V19.6997C21.375 19.5838 21.329 19.4727 21.2473 19.3909C21.1653 19.309 21.0546 19.2629 20.9387 19.2629ZM20.5024 23.6311H12.3449V20.1365H20.5024V23.6311Z" fill="#00479A"/>
<path class="primaryMenuColor" d="M20.9387 3.53779H11.9089C11.668 3.53779 11.4725 3.7333 11.4725 3.97451V8.34264C11.4725 8.45846 11.5186 8.5696 11.6003 8.65163C11.6822 8.73346 11.7932 8.77956 11.9089 8.77956H20.9387C21.0546 8.77956 21.1653 8.73347 21.2473 8.65163C21.329 8.5696 21.375 8.45846 21.375 8.34264V3.97451C21.375 3.85869 21.329 3.74755 21.2473 3.66572C21.1653 3.58369 21.0546 3.53779 20.9387 3.53779ZM20.5024 7.90593H12.3449V4.41139H20.5024V7.90593Z" fill="#00479A"/>
<path class="primaryMenuColor" d="M9.42272 15.6375H0.479768C0.238883 15.6375 0.0436362 15.833 0.0436362 16.0742V19.7873C0.0436362 19.9031 0.0894726 20.0142 0.171394 20.0961C0.253119 20.1781 0.364104 20.224 0.479768 20.224H9.42272C9.53838 20.224 9.64936 20.1781 9.73109 20.0961C9.81301 20.0142 9.85885 19.9031 9.85885 19.7873V16.0742C9.85885 15.9584 9.81301 15.8472 9.73109 15.7654C9.64936 15.6835 9.53838 15.6375 9.42272 15.6375Z" fill="#00479A"/>
<path class="primaryMenuColor" d="M9.46616 7.46898H0.436327C0.195247 7.46898 0 7.66468 0 7.90589V12.274C0 12.3898 0.046032 12.501 0.127758 12.5828C0.209678 12.6648 0.320663 12.7107 0.436327 12.7107H9.46616C9.58182 12.7107 9.69281 12.6648 9.77473 12.5828C9.85645 12.501 9.90249 12.3898 9.90249 12.274V7.90589C9.90249 7.79007 9.85645 7.67894 9.77473 7.59691C9.69281 7.51507 9.58182 7.46898 9.46616 7.46898ZM9.02983 11.8371H0.872324V8.34258H9.02983V11.8371Z" fill="#00479A"/>
<path class="primaryMenuColor" d="M26.8367 13.5935L25.9643 12.8902C25.5168 12.5447 25.2555 12.0103 25.2576 11.4443V3.05779C25.2576 2.24664 24.9358 1.46895 24.3631 0.895497C23.7905 0.322049 23.0138 0 22.2039 0C21.9631 0 21.7678 0.195509 21.7678 0.436914C21.7678 0.678123 21.9631 0.873632 22.2039 0.873632C22.7825 0.873632 23.3372 1.10371 23.7464 1.51328C24.1554 1.92285 24.3852 2.47853 24.3852 3.05783V11.4443C24.3793 12.2775 24.7615 13.0656 25.419 13.5761L25.8553 13.9343L25.419 14.2883C24.7603 14.7996 24.378 15.5896 24.3852 16.4242V24.9422C24.3852 25.5215 24.1554 26.0771 23.7464 26.4867C23.3372 26.8963 22.7825 27.1264 22.2039 27.1264C21.9631 27.1264 21.7678 27.3219 21.7678 27.5631C21.7678 27.8045 21.9631 28 22.2039 28C23.0138 28 23.7905 27.6779 24.3631 27.1045C24.9358 26.5311 25.2576 25.7534 25.2576 24.9422V16.4242C25.2549 15.8568 25.5161 15.3207 25.9643 14.9738L26.8367 14.275C26.9399 14.1922 27 14.0668 27 13.9344C27 13.8018 26.9399 13.6765 26.8367 13.5935Z" fill="#00479A"/>
</svg>
