<svg width="37" height="40" viewBox="0 0 37 40" fill="none" xmlns="http://www.w3.org/2000/svg">
<path  class="primaryMenuColor" d="M24.894 34.1879C24.7094 37.4278 21.917 40 18.4999 40C15.0828 40 12.2904 37.4279 12.1058 34.1879H2.13662C0.955369 34.1879 0 33.2726 0 32.139V30.0858C0 27.8222 1.91338 25.9831 4.27083 25.9831C4.26786 25.9831 4.26934 17.7777 4.26934 17.7777C4.26934 11.9981 8.03055 6.93107 13.5194 4.96359V4.7833C13.5194 2.14245 15.7523 0 18.5 0C21.2505 0 23.4805 2.14098 23.4805 4.7833V4.96359C28.9694 6.93095 32.7306 11.999 32.7306 17.7777V25.9821C35.0832 25.983 37 27.8211 37 30.0857V32.1389C37 33.2678 36.0416 34.1878 34.8634 34.1878L24.894 34.1879ZM22.0402 34.1879H14.9595C15.1382 35.9158 16.655 37.2651 18.4998 37.2651C20.3446 37.2651 21.8614 35.9158 22.04 34.1879H22.0402ZM34.1535 31.4532V30.0858C34.1535 29.3332 33.5127 28.7184 32.729 28.7184C31.1567 28.7184 29.8845 27.4965 29.8845 25.9822V17.7779C29.8845 12.872 26.4946 8.60478 21.6629 7.26549L20.6345 6.98029V4.78399C20.6345 3.65316 19.6791 2.73605 18.4998 2.73605C17.323 2.73605 16.3651 3.65464 16.3651 4.78399V6.98029L15.3367 7.26549C10.505 8.60478 7.1151 12.8705 7.1151 17.7779V25.9822C7.1151 27.4922 5.84006 28.7184 4.27063 28.7184C3.48495 28.7184 2.84617 29.3322 2.84617 30.0858V31.4532H34.1535Z" fill="#00479A"/>
</svg>
