<svg width="40" height="40" viewBox="0 0 40 40" fill="none" xmlns="http://www.w3.org/2000/svg">
<path class="primaryMenuColor" d="M20 0C8.97218 0 0 8.97143 0 20C0 31.0286 8.97218 40 20 40C31.0278 40 40 31.0286 40 20C40 8.97143 31.0278 0 20 0ZM20 2.23241C29.797 2.23241 37.7669 10.2031 37.7669 19.9993C37.7669 24.4043 36.1553 28.4399 33.4909 31.5474C30.8611 28.4119 27.2204 26.2978 23.2353 25.5486C27.1594 24.2014 29.9878 20.4743 29.9878 16.0989C29.9878 10.5917 25.5074 6.11098 19.9998 6.11098C14.4923 6.11098 10.0119 10.5914 10.0119 16.0989C10.0119 20.4742 12.8399 24.2012 16.7644 25.5486C12.7795 26.2978 9.13812 28.4119 6.5088 31.5474C3.84429 28.4395 2.23278 24.404 2.23278 19.9993C2.23278 10.2023 10.2027 2.23241 19.9997 2.23241H20ZM12.2451 16.0993C12.2451 11.823 15.7241 8.34444 20 8.34444C24.2759 8.34444 27.7549 11.8234 27.7549 16.0993C27.7549 20.3756 24.2759 23.8542 20 23.8542C15.7241 23.8542 12.2451 20.3756 12.2451 16.0993ZM8.07451 33.158C10.981 29.5859 15.3698 27.4795 20.0001 27.4795C24.6304 27.4795 29.0189 29.5857 31.9256 33.158C28.7707 36.0201 24.5854 37.7665 20.0001 37.7665C15.4147 37.7665 11.2294 36.0201 8.07451 33.158Z" fill="#00479A"/>
</svg>
