<svg width="69" height="69" viewBox="0 0 69 69" fill="none" xmlns="http://www.w3.org/2000/svg">
<path fill-rule="evenodd" clip-rule="evenodd" d="M45.9382 9.79866C45.4739 10.1582 44.7839 10.0679 44.4259 9.60372L40.6747 4.73329C40.2397 4.16877 40.4813 3.31564 41.1434 3.06278L46.3487 1.07035C46.9035 0.859962 47.5275 1.13694 47.7397 1.69476C47.9524 2.2526 47.6733 2.87748 47.1171 3.09029L44.8653 3.95212C55.1739 7.56293 63.2052 16.3945 65.738 27.218C65.8737 27.799 65.5143 28.3809 64.935 28.517C64.3642 28.6502 63.7743 28.2849 63.6396 27.7117C61.298 17.7076 53.9285 9.52652 44.447 6.09372L46.1321 8.28256C46.4959 8.75492 46.4093 9.43386 45.9382 9.79866ZM9.61596 24.5961L4.74826 28.3485L4.74868 28.3481C4.01234 28.7421 3.30461 28.5212 3.06191 27.8814L1.07032 22.6743C0.8582 22.1206 1.14217 21.5032 1.70427 21.2942C2.26643 21.0862 2.89261 21.3655 3.10473 21.9192L3.95177 24.1333C7.5629 13.8262 16.3881 5.79624 27.2054 3.26326C27.7913 3.12458 28.3757 3.48132 28.5146 4.05755C28.6539 4.63281 28.2927 5.21047 27.7088 5.34724C17.6965 7.69157 9.51207 15.0842 6.09044 24.5928L8.27576 22.9085C8.7495 22.5446 9.4315 22.625 9.80235 23.0922C10.1722 23.5579 10.0887 24.2312 9.61596 24.5961ZM25.2771 59.8231C24.9744 59.3153 24.317 59.1492 23.8093 59.4508C23.3011 59.7524 23.1343 60.4086 23.4364 60.9159L25.0519 63.6269C15.325 60.3722 7.72488 52.1403 5.34681 42.0251C5.21151 41.4505 4.6335 41.0935 4.05974 41.2286C3.48412 41.3632 3.12698 41.9387 3.26181 42.5133C5.75554 53.1229 13.6159 61.7989 23.7281 65.4297L21.8483 65.8945C21.2746 66.0367 20.9242 66.6161 21.0667 67.1893C21.2067 67.7543 21.7981 68.1094 22.3642 67.9695L27.7352 66.6414C28.4188 66.472 28.7602 65.6641 28.3973 65.057L25.2771 59.8231ZM65.9373 41.888L67.9304 47.096L67.93 47.0968C68.1413 47.6507 67.8581 48.2691 67.2956 48.4781C66.7408 48.6832 66.1025 48.3982 65.8941 47.853L65.0503 45.6486C61.4278 55.9383 52.6069 63.9528 41.7956 66.4829C41.2199 66.6177 40.622 66.2562 40.4855 65.6884C40.3461 65.1131 40.7075 64.5353 41.2918 64.3985C51.3025 62.0551 59.4848 54.671 62.9138 45.1719L60.7186 46.863C60.2446 47.2275 59.5621 47.1461 59.1909 46.6793C58.8208 46.2135 58.9043 45.5401 59.3775 45.1752L64.2488 41.4222C64.8176 40.9831 65.6842 41.2241 65.9373 41.888Z" fill="#00479A"/>
<path d="M44.4259 9.60372L44.2279 9.75626L44.228 9.75639L44.4259 9.60372ZM45.9382 9.79866L46.0913 9.99633L46.0913 9.99632L45.9382 9.79866ZM40.6747 4.73329L40.8728 4.58074L40.8727 4.58071L40.6747 4.73329ZM41.1434 3.06278L41.2326 3.29633L41.2327 3.29626L41.1434 3.06278ZM46.3487 1.07035L46.26 0.83659L46.2593 0.836867L46.3487 1.07035ZM47.7397 1.69476L47.5061 1.78365L47.5061 1.78382L47.7397 1.69476ZM47.1171 3.09029L47.0278 2.8568L47.0278 2.85681L47.1171 3.09029ZM44.8653 3.95212L44.7759 3.71863L44.1387 3.96251L44.7826 4.18806L44.8653 3.95212ZM65.738 27.218L65.9815 27.1611L65.9815 27.161L65.738 27.218ZM64.935 28.517L64.9918 28.7605L64.9921 28.7604L64.935 28.517ZM63.6396 27.7117L63.3962 27.7686L63.3962 27.7689L63.6396 27.7117ZM44.447 6.09372L44.5321 5.85865L43.7258 5.56672L44.2489 6.24622L44.447 6.09372ZM46.1321 8.28256L45.934 8.43507L45.934 8.4351L46.1321 8.28256ZM4.74826 28.3485L4.57545 28.1678L4.90089 28.5465L4.74826 28.3485ZM9.61596 24.5961L9.76859 24.7941L9.7687 24.794L9.61596 24.5961ZM4.74868 28.3481L4.92149 28.5287L4.63073 28.1277L4.74868 28.3481ZM3.06191 27.8814L3.29566 27.7927L3.29541 27.7921L3.06191 27.8814ZM1.07032 22.6743L1.30382 22.5849L1.30378 22.5848L1.07032 22.6743ZM1.70427 21.2942L1.61751 21.0598L1.61715 21.0599L1.70427 21.2942ZM3.10473 21.9192L3.33823 21.8299L3.33819 21.8298L3.10473 21.9192ZM3.95177 24.1333L3.71827 24.2226L3.96209 24.86L4.18771 24.216L3.95177 24.1333ZM27.2054 3.26326L27.2624 3.50667L27.263 3.50653L27.2054 3.26326ZM28.5146 4.05755L28.2715 4.11611L28.2716 4.11639L28.5146 4.05755ZM27.7088 5.34724L27.7658 5.59065L27.7658 5.59065L27.7088 5.34724ZM6.09044 24.5928L5.85521 24.5081L5.56561 25.3129L6.24305 24.7908L6.09044 24.5928ZM8.27576 22.9085L8.12346 22.7103L8.12315 22.7105L8.27576 22.9085ZM9.80235 23.0922L9.60654 23.2476L9.60658 23.2477L9.80235 23.0922ZM23.8093 59.4508L23.9369 59.6658L23.937 59.6658L23.8093 59.4508ZM25.2771 59.8231L25.0623 59.9511L25.0623 59.9511L25.2771 59.8231ZM23.4364 60.9159L23.2216 61.0438L23.2217 61.0439L23.4364 60.9159ZM25.0519 63.6269L24.9725 63.864L25.6116 64.0778L25.2666 63.499L25.0519 63.6269ZM5.34681 42.0251L5.59017 41.9678L5.59015 41.9677L5.34681 42.0251ZM4.05974 41.2286L4.11665 41.472L4.11702 41.4719L4.05974 41.2286ZM3.26181 42.5133L3.01842 42.5704L3.01844 42.5705L3.26181 42.5133ZM23.7281 65.4297L23.7882 65.6724L24.591 65.4739L23.8126 65.1944L23.7281 65.4297ZM21.8483 65.8945L21.7883 65.6518L21.7882 65.6519L21.8483 65.8945ZM21.0667 67.1893L21.3093 67.1291L21.3093 67.129L21.0667 67.1893ZM22.3642 67.9695L22.4242 68.2122L22.4243 68.2122L22.3642 67.9695ZM27.7352 66.6414L27.7952 66.8841L27.7953 66.8841L27.7352 66.6414ZM28.3973 65.057L28.1826 65.185L28.1827 65.1853L28.3973 65.057ZM67.9304 47.096L68.1649 47.1824L68.1974 47.0943L68.1638 47.0066L67.9304 47.096ZM65.9373 41.888L65.7037 41.9771L65.7038 41.9774L65.9373 41.888ZM67.93 47.0968L67.6954 47.0104L67.663 47.0984L67.6965 47.186L67.93 47.0968ZM67.2956 48.4781L67.3823 48.7126L67.3827 48.7124L67.2956 48.4781ZM65.8941 47.853L66.1276 47.7637L66.1276 47.7636L65.8941 47.853ZM65.0503 45.6486L65.2838 45.5592L65.0405 44.9236L64.8145 45.5655L65.0503 45.6486ZM41.7956 66.4829L41.7386 66.2394L41.7385 66.2395L41.7956 66.4829ZM40.4855 65.6884L40.7285 65.63L40.7284 65.6296L40.4855 65.6884ZM41.2918 64.3985L41.3488 64.642H41.3488L41.2918 64.3985ZM62.9138 45.1719L63.1489 45.2567L63.4398 44.4511L62.7612 44.9738L62.9138 45.1719ZM60.7186 46.863L60.871 47.0612L60.8712 47.061L60.7186 46.863ZM59.1909 46.6793L58.9952 46.8349L58.9952 46.8349L59.1909 46.6793ZM59.3775 45.1752L59.2249 44.9771L59.2248 44.9772L59.3775 45.1752ZM64.2488 41.4222L64.4013 41.6202L64.4015 41.6201L64.2488 41.4222ZM44.228 9.75639C44.67 10.3296 45.5172 10.4408 46.0913 9.99633L45.7851 9.60099C45.4307 9.87547 44.8978 9.80624 44.6239 9.45105L44.228 9.75639ZM40.4766 4.88584L44.2279 9.75626L44.624 9.45117L40.8728 4.58074L40.4766 4.88584ZM41.0542 2.82923C40.2354 3.14193 39.9396 4.18887 40.4767 4.88588L40.8727 4.58071C40.5399 4.14867 40.7272 3.48935 41.2326 3.29633L41.0542 2.82923ZM46.2593 0.836867L41.054 2.8293L41.2327 3.29626L46.4381 1.30383L46.2593 0.836867ZM47.9734 1.60587C47.7119 0.91831 46.943 0.577585 46.26 0.836592L46.4373 1.3041C46.8639 1.14234 47.3432 1.35558 47.5061 1.78365L47.9734 1.60587ZM47.2064 3.32379C47.8919 3.06155 48.235 2.2921 47.9734 1.6057L47.5061 1.78382C47.6698 2.21311 47.4548 2.69342 47.0278 2.8568L47.2064 3.32379ZM44.9546 4.1856L47.2065 3.32378L47.0278 2.85681L44.7759 3.71863L44.9546 4.1856ZM65.9815 27.161C63.4291 16.2539 55.3368 7.35509 44.9479 3.71617L44.7826 4.18806C55.011 7.77078 62.9814 16.5352 65.4946 27.2749L65.9815 27.161ZM64.9921 28.7604C65.7065 28.5926 66.1484 27.8757 65.9815 27.1611L65.4946 27.2748C65.5991 27.7223 65.322 28.1693 64.8778 28.2736L64.9921 28.7604ZM63.3962 27.7689C63.5625 28.4762 64.2866 28.925 64.9918 28.7605L64.8781 28.2736C64.4419 28.3754 63.9862 28.0936 63.883 27.6545L63.3962 27.7689ZM44.3619 6.32878C53.7644 9.73299 61.0739 17.8474 63.3962 27.7686L63.883 27.6547C61.522 17.5678 54.0926 9.32006 44.5321 5.85865L44.3619 6.32878ZM46.3302 8.13006L44.6451 5.94121L44.2489 6.24622L45.934 8.43507L46.3302 8.13006ZM46.0913 9.99632C46.6715 9.54694 46.7778 8.71131 46.3302 8.13003L45.934 8.4351C46.2139 8.79853 46.147 9.32078 45.7851 9.601L46.0913 9.99632ZM4.90089 28.5465L9.76859 24.7941L9.46332 24.3981L4.59563 28.1505L4.90089 28.5465ZM4.57587 28.1674L4.57545 28.1678L4.92107 28.5292L4.92149 28.5287L4.57587 28.1674ZM2.82816 27.97C2.97652 28.3612 3.27362 28.6343 3.65118 28.7427C4.02473 28.85 4.45283 28.79 4.86663 28.5685L4.63073 28.1277C4.30819 28.3003 4.01426 28.3268 3.78919 28.2621C3.56812 28.1987 3.39 28.0414 3.29566 27.7927L2.82816 27.97ZM0.836817 22.7636L2.82841 27.9707L3.29541 27.7921L1.30382 22.5849L0.836817 22.7636ZM1.61715 21.0599C0.92752 21.3163 0.573946 22.0774 0.836865 22.7637L1.30378 22.5848C1.14245 22.1637 1.35682 21.6901 1.79139 21.5286L1.61715 21.0599ZM3.33819 21.8298C3.07614 21.1457 2.30565 20.8051 1.61751 21.0598L1.79103 21.5287C2.22721 21.3673 2.70908 21.5853 2.87127 22.0087L3.33819 21.8298ZM4.18527 24.044L3.33823 21.8299L2.87124 22.0086L3.71827 24.2226L4.18527 24.044ZM27.1484 3.01984C16.2473 5.57242 7.35504 13.6634 3.71583 24.0507L4.18771 24.216C7.77077 13.989 16.5288 6.02005 27.2624 3.50667L27.1484 3.01984ZM28.7576 3.99899C28.586 3.28673 27.8655 2.85011 27.1479 3.01998L27.263 3.50653C27.7171 3.39905 28.1655 3.67591 28.2715 4.11611L28.7576 3.99899ZM27.7658 5.59065C28.4817 5.42299 28.9303 4.71207 28.7575 3.99871L28.2716 4.11639C28.3775 4.55355 28.1038 4.99796 27.6518 5.10382L27.7658 5.59065ZM6.32567 24.6774C9.71884 15.248 17.8366 7.91553 27.7658 5.59065L27.6518 5.10382C17.5564 7.46761 9.3053 14.9205 5.85521 24.5081L6.32567 24.6774ZM8.12315 22.7105L5.93783 24.3948L6.24305 24.7908L8.42837 23.1066L8.12315 22.7105ZM9.99816 22.9367C9.54143 22.3613 8.70418 22.2642 8.12346 22.7103L8.42806 23.1068C8.79481 22.8251 9.32157 22.8886 9.60654 23.2476L9.99816 22.9367ZM9.7687 24.794C10.3511 24.3446 10.4554 23.5124 9.99812 22.9367L9.60658 23.2477C9.88912 23.6034 9.82644 24.1179 9.46322 24.3982L9.7687 24.794ZM23.937 59.6658C24.3264 59.4345 24.8304 59.562 25.0623 59.9511L25.4918 59.6951C25.1184 59.0686 24.3077 58.864 23.6817 59.2359L23.937 59.6658ZM23.6512 60.7879C23.4198 60.3995 23.5475 59.8969 23.9369 59.6658L23.6817 59.2358C23.0547 59.608 22.8487 60.4177 23.2216 61.0438L23.6512 60.7879ZM25.2666 63.499L23.6512 60.7879L23.2217 61.0439L24.8371 63.7549L25.2666 63.499ZM5.10344 42.0823C7.50149 52.2825 15.1642 60.582 24.9725 63.864L25.1312 63.3899C15.4859 60.1624 7.94827 51.9981 5.59017 41.9678L5.10344 42.0823ZM4.11702 41.4719C4.55653 41.3685 4.99984 41.6423 5.10347 42.0824L5.59015 41.9677C5.42317 41.2586 4.71047 40.8186 4.00246 40.9852L4.11702 41.4719ZM3.5052 42.4562C3.40196 42.0162 3.6754 41.5752 4.11665 41.472L4.00282 40.9851C3.29284 41.1511 2.852 41.8611 3.01842 42.5704L3.5052 42.4562ZM23.8126 65.1944C13.7792 61.5919 5.97931 52.9824 3.50517 42.4561L3.01844 42.5705C5.53176 53.2635 13.4526 62.0058 23.6437 65.665L23.8126 65.1944ZM21.9083 66.1372L23.7882 65.6724L23.6681 65.187L21.7883 65.6518L21.9083 66.1372ZM21.3093 67.129C21.2003 66.6904 21.4682 66.2463 21.9085 66.1372L21.7882 65.6519C21.081 65.8272 20.6481 66.5417 20.824 67.2496L21.3093 67.129ZM22.3043 67.7268C21.8714 67.8337 21.416 67.5595 21.3093 67.1291L20.824 67.2494C20.9975 67.9492 21.7249 68.385 22.4242 68.2122L22.3043 67.7268ZM27.6752 66.3987L22.3042 67.7268L22.4243 68.2122L27.7952 66.8841L27.6752 66.3987ZM28.1827 65.1853C28.4587 65.6469 28.1971 66.2694 27.675 66.3988L27.7953 66.8841C28.6405 66.6746 29.0617 65.6812 28.6119 64.9288L28.1827 65.1853ZM25.0623 59.9511L28.1826 65.185L28.6121 64.929L25.4918 59.6951L25.0623 59.9511ZM68.1638 47.0066L66.1708 41.7986L65.7038 41.9774L67.6969 47.1853L68.1638 47.0066ZM68.1646 47.1833L68.1649 47.1824L67.6958 47.0095L67.6954 47.0104L68.1646 47.1833ZM67.3827 48.7124C68.0732 48.4558 68.4253 47.6935 68.1636 47.0077L67.6965 47.186C67.8574 47.6078 67.643 48.0823 67.2085 48.2437L67.3827 48.7124ZM65.6606 47.9422C65.9189 48.6181 66.7017 48.9643 67.3823 48.7126L67.2089 48.2436C66.7799 48.4022 66.2861 48.1783 66.1276 47.7637L65.6606 47.9422ZM64.8168 45.7379L65.6606 47.9423L66.1276 47.7636L65.2838 45.5592L64.8168 45.7379ZM41.8525 66.7263C52.7475 64.1766 61.6355 56.1013 65.2861 45.7316L64.8145 45.5655C61.2201 55.7752 52.4664 63.7289 41.7386 66.2394L41.8525 66.7263ZM40.2424 65.7469C40.4119 66.4518 41.1466 66.8917 41.8526 66.7263L41.7385 66.2395C41.2933 66.3438 40.8321 66.0605 40.7285 65.63L40.2424 65.7469ZM41.2349 64.1551C40.5187 64.3228 40.0696 65.0337 40.2425 65.7473L40.7284 65.6296C40.6225 65.1925 40.8963 64.7479 41.3488 64.642L41.2349 64.1551ZM62.6786 45.087C59.2781 54.5071 51.1625 61.8311 41.2349 64.1551L41.3488 64.642C51.4425 62.279 59.6914 54.8348 63.1489 45.2567L62.6786 45.087ZM60.8712 47.061L63.0664 45.3699L62.7612 44.9738L60.5661 46.665L60.8712 47.061ZM58.9952 46.8349C59.452 47.4095 60.2897 47.5081 60.871 47.0612L60.5663 46.6648C60.1995 46.9468 59.6721 46.8828 59.3866 46.5238L58.9952 46.8349ZM59.2248 44.9772C58.642 45.4267 58.5376 46.259 58.9952 46.8349L59.3867 46.5238C59.1039 46.168 59.1666 45.6535 59.5301 45.3731L59.2248 44.9772ZM64.0962 41.2241L59.2249 44.9771L59.53 45.3732L64.4013 41.6202L64.0962 41.2241ZM66.1709 41.7989C65.8571 40.976 64.7955 40.6844 64.096 41.2243L64.4015 41.6201C64.8397 41.2818 65.5113 41.4723 65.7037 41.9771L66.1709 41.7989Z" fill="white"/>
<path d="M51.0515 24.9508V25.8991V28.3719V31.873V35.8423V39.7915V43.1766V45.4613V46.0415V46.1575C51.0515 46.1975 51.0515 46.2416 51.0475 46.2816C51.0475 46.3216 51.0315 46.4456 51.0475 46.3416C51.0395 46.3936 51.0275 46.4496 51.0155 46.5016C51.0035 46.5537 50.9875 46.6057 50.9755 46.6577C50.9675 46.6817 50.9595 46.7097 50.9515 46.7337C50.9475 46.7457 50.9075 46.8457 50.9315 46.7857C50.9555 46.7337 50.8955 46.8578 50.8835 46.8818C50.8595 46.9298 50.8315 46.9738 50.8035 47.0178C50.7755 47.0618 50.7474 47.1058 50.7154 47.1458C50.6754 47.2019 50.7234 47.1338 50.7314 47.1258C50.7074 47.1538 50.6874 47.1779 50.6634 47.2059C50.5914 47.2819 50.5154 47.3539 50.4394 47.4219C50.5154 47.3579 50.4273 47.4299 50.3953 47.4539C50.3393 47.494 50.2793 47.53 50.2153 47.562C50.1673 47.586 50.1233 47.61 50.0752 47.634C50.1673 47.59 50.0592 47.638 50.0232 47.65C49.9112 47.686 49.7992 47.714 49.6831 47.734C49.6111 47.746 49.6991 47.73 49.7071 47.73C49.6791 47.734 49.6511 47.734 49.6231 47.738C49.5751 47.742 49.5311 47.742 49.4831 47.742H49.4791H49.255H47.8866H45.4778H42.3049H38.5837H34.5825H30.5732H26.7641H23.447H20.8342H19.2018H18.8296H18.7696H18.7136C18.6576 47.742 18.6016 47.734 18.5496 47.73C18.6616 47.738 18.5055 47.722 18.4655 47.714C18.3615 47.69 18.2575 47.658 18.1574 47.622C18.0934 47.598 18.1694 47.626 18.1774 47.63C18.1534 47.618 18.1294 47.61 18.1054 47.598C18.0494 47.57 17.9974 47.542 17.9454 47.51C17.9014 47.482 17.8573 47.4539 17.8133 47.4219C17.7213 47.3619 17.8493 47.4619 17.7693 47.3859C17.6813 47.3019 17.5933 47.2179 17.5132 47.1258C17.5773 47.2019 17.5052 47.1138 17.4812 47.0818C17.4532 47.0378 17.4252 46.9938 17.3972 46.9498C17.3692 46.9058 17.3492 46.8578 17.3252 46.8097C17.3212 46.8017 17.2852 46.7217 17.3132 46.7857C17.3412 46.8458 17.2972 46.7457 17.2932 46.7337C17.2612 46.6297 17.2292 46.5297 17.2092 46.4216C17.2051 46.3936 17.2011 46.3696 17.1971 46.3416C17.1971 46.3536 17.2051 46.4376 17.2011 46.3656C17.1971 46.3016 17.1931 46.2376 17.1931 46.1695V46.1535V45.7854V43.8248V40.6438V36.7786V32.7734V29.1123V26.3474C17.1931 25.8993 17.1891 25.4552 17.1931 25.007V24.963C17.1931 24.919 17.2092 24.871 17.1891 24.951C17.2011 24.907 17.2452 24.8069 17.1971 24.895C17.2172 24.855 17.2852 24.7749 17.2172 24.847C17.2452 24.815 17.3332 24.7509 17.2492 24.807C17.2692 24.7909 17.2932 24.7789 17.3172 24.7669C17.2292 24.7949 17.3972 24.7269 17.3172 24.7669C17.3412 24.7589 17.3692 24.7549 17.3932 24.7469C17.3772 24.7509 17.3012 24.7469 17.3692 24.7549C17.3932 24.7589 17.3892 24.7549 17.3972 24.7549H17.4012H17.6173H18.9056H21.1783H24.2153H27.7844H31.7095H35.7388H39.704H43.3731H46.518H48.9548H50.4512H50.7833H50.8394H50.8434C50.9554 24.7549 50.8154 24.7429 50.8714 24.7549C50.8954 24.7589 50.9234 24.7669 50.9474 24.7749C50.9394 24.7709 50.8634 24.7349 50.9234 24.7669C50.9474 24.7789 50.9674 24.7909 50.9914 24.807C50.9834 24.8029 50.9194 24.7469 50.9714 24.7949C50.9914 24.811 51.0074 24.831 51.0234 24.851C51.0154 24.843 50.9674 24.7749 51.0074 24.831C51.0234 24.851 51.0354 24.875 51.0474 24.899C51.0434 24.891 51.0114 24.811 51.0354 24.875C51.0434 24.899 51.0514 24.927 51.0554 24.951C51.0514 24.927 51.0474 24.831 51.0514 24.951C51.0634 25.2631 51.3195 25.5672 51.6516 25.5512C51.9677 25.5352 52.2638 25.2871 52.2518 24.951C52.2238 24.1628 51.6116 23.5586 50.8234 23.5505H50.5273H49.0788H46.6621H43.4971H39.8039H35.8027H31.7134H27.7521H24.139H21.0941H18.8374H17.585H17.4049C16.6127 23.5705 16.0125 24.1947 16.0045 24.983C16.0005 25.4111 16.0045 25.8352 16.0045 26.2634V29.0162V32.6934V36.7586V40.6638V43.8648V45.8214V46.1615C16.0125 47.0698 16.4446 47.89 17.1728 48.4262C17.761 48.8583 18.4453 48.9383 19.1414 48.9383H20.7259H23.3187H26.6638H30.501H34.5702H38.6114H42.3646H45.5696H47.9703H49.3027H49.4868C50.5111 48.9263 51.5114 48.3461 51.9596 47.4098C52.2557 46.7976 52.2557 46.1894 52.2557 45.5372V43.2766V39.8835V35.9023V31.8731V28.344V25.8552V24.951C52.2557 24.6389 51.9796 24.3348 51.6555 24.3508C51.3274 24.3668 51.0513 24.6149 51.0513 24.951L51.0515 24.9508Z" fill="#00479A"/>
<path d="M25.9585 20.8339V24.1184C26.2126 23.9198 26.4666 23.7212 26.7206 23.5227H21.9249H21.234C21.488 23.7212 21.742 23.9198 21.996 24.1184V21.0485C21.996 20.9889 22.0062 20.9214 21.996 20.8578V20.83C22.0214 20.83 21.93 20.9651 21.9198 20.977C21.9046 20.9889 21.742 21.0643 21.7319 21.0365C21.7369 21.0524 22.184 21.0365 22.2094 21.0365H24.6225H25.8316C25.9383 21.0365 26.0501 21.0405 26.1567 21.0365C26.1618 21.0365 26.2126 21.0405 26.2126 21.0365C26.2075 21.0485 26.1059 21.0167 26.0805 21.0087C26.0043 20.977 25.9637 20.9055 25.9586 20.834C25.984 21.1438 26.2888 21.4456 26.7206 21.4297C27.1118 21.4178 27.5131 21.1676 27.4827 20.834C27.4319 20.2462 26.8832 19.853 26.1364 19.8491C25.8469 19.8451 25.5573 19.8491 25.2728 19.8491H22.5651C22.3009 19.8491 22.0419 19.8451 21.7777 19.8491C21.0512 19.861 20.5076 20.2701 20.4772 20.838C20.4467 21.3543 20.4772 21.8785 20.4772 22.3948V24.1145C20.4772 24.4362 20.8277 24.7102 21.2392 24.7102H26.0349H26.7258C27.1373 24.7102 27.4878 24.4362 27.4878 24.1145V20.8301C27.4878 20.5203 27.1373 20.2185 26.7258 20.2344C26.3041 20.2542 25.9587 20.5005 25.9587 20.8341L25.9585 20.8339Z" fill="#00479A"/>
<path d="M46.0681 20.8339V24.1184C46.3026 23.9198 46.537 23.7212 46.7715 23.5227H42.3447H41.707C41.9414 23.7212 42.1759 23.9198 42.4104 24.1184V21.0485C42.4104 20.9889 42.4197 20.9214 42.4104 20.8578V20.83C42.4338 20.83 42.3494 20.9651 42.34 20.977C42.326 20.9889 42.1759 21.0643 42.1665 21.0365C42.1712 21.0524 42.5839 21.0365 42.6073 21.0365H44.8348H45.9509C46.0494 21.0365 46.1526 21.0405 46.251 21.0365C46.2557 21.0365 46.3026 21.0405 46.3026 21.0365C46.2979 21.0485 46.2041 21.0167 46.1807 21.0087C46.115 20.977 46.0775 20.9055 46.0682 20.834C46.0916 21.1438 46.373 21.4456 46.7716 21.4297C47.1326 21.4178 47.5031 21.1676 47.475 20.834C47.4281 20.2462 46.9216 19.853 46.2323 19.8491C45.965 19.8451 45.6977 19.8491 45.4351 19.8491H42.9357C42.6918 19.8491 42.4527 19.8451 42.2088 19.8491C41.5383 19.861 41.0365 20.2701 41.0084 20.838C40.9802 21.3543 41.0084 21.8785 41.0084 22.3948V24.1145C41.0084 24.4362 41.3319 24.7102 41.7118 24.7102H46.1385H46.7763C47.1561 24.7102 47.4797 24.4362 47.4797 24.1145V20.8301C47.4797 20.5203 47.1561 20.2185 46.7763 20.2344C46.3918 20.2542 46.0682 20.5005 46.0682 20.8341L46.0681 20.8339Z" fill="#00479A"/>
<path d="M21.2138 38.676H26.1273H26.8155C27.1276 38.676 27.4317 38.3999 27.4157 38.0758C27.3997 37.7517 27.1516 37.4756 26.8155 37.4756H21.902H21.2138C20.9017 37.4756 20.5976 37.7517 20.6136 38.0758C20.6296 38.4039 20.8777 38.676 21.2138 38.676Z" fill="#00479A"/>
<path d="M41.436 38.676H46.3495H47.0377C47.3498 38.676 47.6539 38.3999 47.6379 38.0758C47.6219 37.7517 47.3738 37.4756 47.0377 37.4756H42.1242H41.436C41.1239 37.4756 40.8198 37.7517 40.8358 38.0758C40.8478 38.4039 41.0999 38.676 41.436 38.676Z" fill="#00479A"/>
<path d="M44.8376 40.8767V35.9632V35.275C44.8376 34.9629 44.5615 34.6588 44.2374 34.6748C43.9133 34.6908 43.6372 34.9389 43.6372 35.275V40.1885V40.8767C43.6372 41.1888 43.9133 41.4929 44.2374 41.4769C44.5615 41.4649 44.8376 41.2128 44.8376 40.8767Z" fill="#00479A"/>
<path d="M16.6008 29.4528H17.5411H20.0859H23.863H28.4565H33.506H38.6036H43.3371H47.3383H50.2272C50.6833 29.4528 51.1395 29.4608 51.5916 29.4528H51.6476C51.9597 29.4528 52.2638 29.1767 52.2478 28.8526C52.2318 28.5285 51.9837 28.2524 51.6476 28.2524H50.7073H48.1625H44.3854H39.7919H34.7424H29.6448H24.9113H20.9101H18.0212C17.5651 28.2524 17.1089 28.2444 16.6568 28.2524H16.6008C16.2887 28.2524 15.9846 28.5285 16.0006 28.8526C16.0166 29.1767 16.2647 29.4528 16.6008 29.4528Z" fill="#00479A"/>
</svg>
