<svg width="62" height="55" viewBox="0 0 62 55" fill="none" xmlns="http://www.w3.org/2000/svg">
<path d="M46.9445 6.90943V8.17949V11.4913V16.1803V21.4963V26.7856V31.3192V34.3792V35.1562V35.3117C46.9445 35.3652 46.9445 35.4242 46.9392 35.4778C46.9392 35.5314 46.9177 35.6975 46.9392 35.5582C46.9284 35.6278 46.9124 35.7029 46.8963 35.7725C46.8802 35.8422 46.8588 35.9118 46.8427 35.9815C46.832 36.0137 46.8213 36.0512 46.8105 36.0833C46.8052 36.0994 46.7516 36.2334 46.7838 36.153C46.8159 36.0833 46.7355 36.2495 46.7194 36.2816C46.6873 36.3459 46.6498 36.4049 46.6123 36.4638C46.5747 36.5228 46.5372 36.5817 46.4944 36.6353C46.4408 36.7103 46.5051 36.6192 46.5158 36.6085C46.4836 36.646 46.4569 36.6782 46.4247 36.7157C46.3282 36.8175 46.2264 36.914 46.1246 37.0051C46.2264 36.9193 46.1085 37.0158 46.0657 37.0479C45.9906 37.1015 45.9103 37.1498 45.8245 37.1926C45.7602 37.2248 45.7013 37.2569 45.6369 37.2891C45.7602 37.2301 45.6155 37.2944 45.5673 37.3105C45.4172 37.3588 45.2672 37.3963 45.1118 37.4231C45.0153 37.4391 45.1332 37.4177 45.1439 37.4177C45.1064 37.4231 45.0689 37.4231 45.0314 37.4284C44.9671 37.4338 44.9081 37.4338 44.8438 37.4338H44.8385H44.5384H42.7057H39.4796H35.23H30.2463H24.8874H19.5178H14.4162H9.97367H6.47432H4.28794H3.78957H3.70919H3.63417C3.55914 37.4338 3.48412 37.4231 3.41445 37.4177C3.56449 37.4284 3.3555 37.407 3.30192 37.3963C3.16259 37.3641 3.02325 37.3212 2.88929 37.273C2.80355 37.2409 2.90537 37.2784 2.91608 37.2837C2.88393 37.2677 2.85178 37.2569 2.81962 37.2409C2.7446 37.2033 2.67493 37.1658 2.60527 37.123C2.54632 37.0854 2.48738 37.0479 2.42842 37.0051C2.30517 36.9247 2.47665 37.0587 2.36948 36.9568C2.25158 36.8443 2.13369 36.7318 2.02651 36.6085C2.11225 36.7103 2.01579 36.5924 1.98364 36.5496C1.94613 36.4906 1.90861 36.4317 1.8711 36.3727C1.83359 36.3138 1.8068 36.2495 1.77465 36.1852C1.76929 36.1744 1.72106 36.0673 1.75857 36.153C1.79608 36.2334 1.73713 36.0994 1.73177 36.0833C1.6889 35.944 1.64603 35.81 1.61924 35.6653C1.61388 35.6278 1.60852 35.5957 1.60317 35.5582C1.60317 35.5742 1.61388 35.6868 1.60852 35.5903C1.60317 35.5046 1.59781 35.4188 1.59781 35.3277V35.3063V34.8133V32.1874V27.9271V22.7504V17.3862V12.4828V8.77985C1.59781 8.17966 1.59245 7.58486 1.59781 6.98466V6.92571C1.59781 6.86677 1.61924 6.80246 1.59245 6.90964C1.60852 6.85069 1.66747 6.71671 1.60317 6.83461C1.62996 6.78102 1.72106 6.67385 1.62996 6.77031C1.66747 6.72744 1.78536 6.64169 1.67283 6.71672C1.69963 6.69528 1.73178 6.67921 1.76393 6.66313C1.64604 6.70064 1.87111 6.60954 1.76393 6.66313C1.79609 6.65241 1.8336 6.64705 1.86575 6.63633C1.84432 6.64169 1.7425 6.63633 1.8336 6.64705C1.86575 6.65241 1.8604 6.64705 1.87111 6.64705H1.87647H2.16585H3.89137H6.93516H11.0026H15.7827H21.0397H26.436H31.7466H36.6607H40.8727H44.1363H46.1405H46.5853H46.6603H46.6657C46.8157 6.64705 46.6282 6.63097 46.7032 6.64705C46.7354 6.65241 46.7729 6.66313 46.805 6.67385C46.7943 6.66849 46.6925 6.62026 46.7729 6.66313C46.805 6.6792 46.8318 6.69528 46.864 6.71672C46.8533 6.71136 46.7675 6.63633 46.8372 6.70064C46.864 6.72208 46.8854 6.74887 46.9069 6.77566C46.8961 6.76495 46.8318 6.67384 46.8854 6.74887C46.9069 6.77566 46.9229 6.80782 46.939 6.83997C46.9337 6.82925 46.8908 6.72208 46.9229 6.80782C46.9337 6.83997 46.9444 6.87748 46.9497 6.90964C46.9444 6.87749 46.939 6.74888 46.9444 6.90964C46.9604 7.32763 47.3034 7.73491 47.7482 7.71347C48.1715 7.69203 48.5681 7.35978 48.552 6.90964C48.5145 5.85398 47.6946 5.04478 46.6389 5.034H46.2424H44.3025H41.0657H36.8268H31.8806H26.5216H21.0448H15.7395H10.9004H6.82233H3.7999H2.12259H1.88144C0.820398 5.06079 0.0165787 5.89678 0.00579967 6.95246C0.000440843 7.52587 0.00579967 8.09386 0.00579967 8.6673V12.3542V17.279V22.7236V27.9539V32.241V34.8614V35.3169C0.0165179 36.5334 0.595273 37.632 1.57062 38.35C2.35837 38.9288 3.27477 39.036 4.20716 39.036H6.32925H9.80185H14.2819H19.421H24.871H30.2834H35.31H39.6025H42.8178H44.6023H44.8488C46.2207 39.0199 47.5604 38.2429 48.1606 36.9889C48.5572 36.1689 48.5572 35.3544 48.5572 34.4809V31.4532V26.9088V21.5768V16.1804V11.4539V8.12065V6.90958C48.5572 6.49159 48.1874 6.08431 47.7534 6.10575C47.3139 6.12719 46.9442 6.45944 46.9442 6.90958L46.9445 6.90943Z" fill="#00479A"/>
<path d="M13.3377 1.39568V5.79454C13.6778 5.52859 14.018 5.26264 14.3582 4.99669H7.93536H7.01003C7.35023 5.26265 7.69043 5.5286 8.03061 5.79454V1.68299C8.03061 1.60321 8.04422 1.51279 8.03061 1.42768V1.39045C8.06463 1.39045 7.94216 1.5713 7.92856 1.58725C7.90815 1.60321 7.69042 1.70426 7.67682 1.66703C7.68362 1.68831 8.28236 1.66703 8.31638 1.66703H11.5483H13.1677C13.3105 1.66703 13.4602 1.67235 13.6031 1.66703C13.6099 1.66703 13.6779 1.67235 13.6779 1.66703C13.6711 1.68299 13.5351 1.64044 13.501 1.6298C13.399 1.58725 13.3446 1.4915 13.3377 1.39577C13.3718 1.81065 13.78 2.2149 14.3583 2.19362C14.8822 2.17766 15.4197 1.84256 15.3789 1.39577C15.3109 0.608551 14.576 0.081957 13.5759 0.0767048C13.1881 0.0713858 12.8003 0.0767048 12.4192 0.0767048H8.79282C8.43901 0.0767048 8.09202 0.0713858 7.73821 0.0767048C6.76526 0.0926616 6.03722 0.640521 5.99641 1.40112C5.95559 2.09259 5.99641 2.79469 5.99641 3.48622V5.78938C5.99641 6.22022 6.46588 6.58722 7.017 6.58722H13.4399H14.3652C14.9163 6.58722 15.3858 6.22022 15.3858 5.78938V1.39052C15.3858 0.975637 14.9163 0.571388 14.3652 0.592669C13.8005 0.619264 13.3378 0.949046 13.3378 1.39584L13.3377 1.39568Z" fill="#00479A"/>
<path d="M40.2703 1.39568V5.79454C40.5843 5.52859 40.8984 5.26264 41.2124 4.99669H35.2836H34.4294C34.7435 5.26265 35.0575 5.5286 35.3715 5.79454V1.68299C35.3715 1.60321 35.3841 1.51279 35.3715 1.42768V1.39045C35.4029 1.39045 35.2899 1.5713 35.2773 1.58725C35.2585 1.60321 35.0575 1.70426 35.0449 1.66703C35.0512 1.68831 35.6039 1.66703 35.6353 1.66703H38.6186H40.1134C40.2453 1.66703 40.3835 1.67235 40.5154 1.66703C40.5216 1.66703 40.5844 1.67235 40.5844 1.66703C40.5782 1.68299 40.4525 1.64044 40.4211 1.6298C40.3332 1.58725 40.283 1.4915 40.2704 1.39577C40.3018 1.81065 40.6786 2.2149 41.2125 2.19362C41.6961 2.17766 42.1922 1.84256 42.1546 1.39577C42.0917 0.608551 41.4135 0.081957 40.4902 0.0767048C40.1322 0.0713858 39.7743 0.0767048 39.4226 0.0767048H36.0751C35.7485 0.0767048 35.4282 0.0713858 35.1016 0.0767048C34.2035 0.0926616 33.5315 0.640521 33.4938 1.40112C33.4561 2.09259 33.4938 2.79469 33.4938 3.48622V5.78938C33.4938 6.22022 33.9271 6.58722 34.4359 6.58722H40.3647H41.2188C41.7275 6.58722 42.1609 6.22022 42.1609 5.78938V1.39052C42.1609 0.975637 41.7275 0.571388 41.2188 0.592669C40.7038 0.619264 40.2705 0.949046 40.2705 1.39584L40.2703 1.39568Z" fill="#00479A"/>
<path d="M6.98286 25.2915H13.5635H14.4853C14.9033 25.2915 15.3105 24.9217 15.2891 24.4877C15.2676 24.0536 14.9354 23.6838 14.4853 23.6838H7.90458H6.98286C6.56487 23.6838 6.15759 24.0536 6.17903 24.4877C6.20047 24.9271 6.53272 25.2915 6.98286 25.2915Z" fill="#00479A"/>
<path d="M34.0666 25.2915H40.6473H41.569C41.987 25.2915 42.3943 24.9217 42.3728 24.4877C42.3514 24.0536 42.0191 23.6838 41.569 23.6838H34.9883H34.0666C33.6486 23.6838 33.2413 24.0536 33.2628 24.4877C33.2789 24.9271 33.6165 25.2915 34.0666 25.2915Z" fill="#00479A"/>
<path d="M38.6223 28.239V21.6584V20.7366C38.6223 20.3187 38.2525 19.9114 37.8185 19.9328C37.3844 19.9543 37.0146 20.2865 37.0146 20.7366V27.3173V28.239C37.0146 28.657 37.3844 29.0643 37.8185 29.0429C38.2525 29.0268 38.6223 28.6892 38.6223 28.239Z" fill="#00479A"/>
<path d="M0.80464 12.9388H2.06402H5.47224H10.531H16.683H23.4459H30.2731H36.6127H41.9716H45.8407C46.4516 12.9388 47.0625 12.9495 47.668 12.9388H47.743C48.161 12.9388 48.5683 12.569 48.5468 12.1349C48.5254 11.7009 48.1931 11.3311 47.743 11.3311H46.4836H43.0754H38.0166H31.8647H25.1017H18.2745H11.935H6.57607H2.707C2.09608 11.3311 1.48515 11.3204 0.879663 11.3311H0.80464C0.38665 11.3311 -0.0206296 11.7009 0.000810838 12.1349C0.0222463 12.569 0.354499 12.9388 0.80464 12.9388Z" fill="#00479A"/>
<rect x="10" y="13" width="40" height="28" fill="white"/>
<path d="M59.8683 22.7136V23.9837V27.2955V31.9845V37.3005V42.5898V47.1234V50.1834V50.9604V51.1159C59.8683 51.1694 59.8683 51.2284 59.863 51.282C59.863 51.3356 59.8415 51.5017 59.863 51.3624C59.8523 51.432 59.8362 51.5071 59.8201 51.5767C59.804 51.6464 59.7826 51.716 59.7665 51.7857C59.7558 51.8179 59.7451 51.8554 59.7344 51.8875C59.729 51.9036 59.6754 52.0376 59.7076 51.9572C59.7397 51.8875 59.6593 52.0537 59.6433 52.0858C59.6111 52.1501 59.5736 52.2091 59.5361 52.268C59.4986 52.327 59.4611 52.3859 59.4182 52.4395C59.3646 52.5145 59.4289 52.4234 59.4396 52.4127C59.4075 52.4502 59.3807 52.4824 59.3485 52.5199C59.2521 52.6217 59.1503 52.7182 59.0484 52.8093C59.1503 52.7235 59.0324 52.82 58.9895 52.8521C58.9145 52.9057 58.8341 52.954 58.7483 52.9968C58.684 53.029 58.6251 53.0611 58.5608 53.0933C58.684 53.0343 58.5393 53.0986 58.4911 53.1147C58.3411 53.163 58.191 53.2005 58.0356 53.2273C57.9391 53.2433 58.057 53.2219 58.0678 53.2219C58.0303 53.2273 57.9927 53.2273 57.9552 53.2326C57.8909 53.238 57.832 53.238 57.7677 53.238H57.7623H57.4622H55.6295H52.4034H48.1539H43.1701H37.8112H32.4416H27.34H22.8975H19.3981H17.2118H16.7134H16.633H16.558C16.483 53.238 16.4079 53.2273 16.3383 53.2219C16.4883 53.2326 16.2793 53.2112 16.2257 53.2005C16.0864 53.1683 15.9471 53.1254 15.8131 53.0772C15.7274 53.0451 15.8292 53.0826 15.8399 53.0879C15.8078 53.0718 15.7756 53.0611 15.7435 53.0451C15.6684 53.0075 15.5988 52.97 15.5291 52.9272C15.4701 52.8896 15.4112 52.8521 15.3523 52.8093C15.229 52.7289 15.4005 52.8629 15.2933 52.761C15.1754 52.6485 15.0575 52.536 14.9503 52.4127C15.0361 52.5145 14.9396 52.3966 14.9075 52.3538C14.87 52.2948 14.8324 52.2359 14.7949 52.1769C14.7574 52.118 14.7306 52.0537 14.6985 51.9894C14.6931 51.9786 14.6449 51.8715 14.6824 51.9572C14.7199 52.0376 14.661 51.9036 14.6556 51.8875C14.6127 51.7482 14.5699 51.6142 14.5431 51.4695C14.5377 51.432 14.5324 51.3999 14.527 51.3624C14.527 51.3784 14.5377 51.491 14.5324 51.3945C14.527 51.3088 14.5216 51.223 14.5216 51.1319V51.1105V50.6175V47.9916V43.7313V38.5546V33.1904V28.287V24.5841C14.5216 23.9839 14.5163 23.3891 14.5216 22.7889V22.7299C14.5216 22.671 14.5431 22.6067 14.5163 22.7138C14.5324 22.6549 14.5913 22.5209 14.527 22.6388C14.5538 22.5852 14.6449 22.478 14.5538 22.5745C14.5913 22.5316 14.7092 22.4459 14.5967 22.5209C14.6235 22.4995 14.6556 22.4834 14.6878 22.4673C14.5699 22.5048 14.7949 22.4137 14.6878 22.4673C14.7199 22.4566 14.7574 22.4513 14.7896 22.4405C14.7681 22.4459 14.6663 22.4405 14.7574 22.4513C14.7896 22.4566 14.7842 22.4513 14.7949 22.4513H14.8003H15.0897H16.8152H19.859H23.9264H28.7065H33.9635H39.3599H44.6705H49.5845H53.7966H57.0601H59.0644H59.5091H59.5842H59.5895C59.7396 22.4513 59.552 22.4352 59.627 22.4513C59.6592 22.4566 59.6967 22.4673 59.7289 22.478C59.7181 22.4727 59.6163 22.4245 59.6967 22.4673C59.7289 22.4834 59.7557 22.4995 59.7878 22.5209C59.7771 22.5156 59.6914 22.4405 59.761 22.5048C59.7878 22.5263 59.8092 22.5531 59.8307 22.5799C59.82 22.5691 59.7557 22.478 59.8092 22.5531C59.8307 22.5799 59.8468 22.612 59.8628 22.6442C59.8575 22.6335 59.8146 22.5263 59.8468 22.612C59.8575 22.6442 59.8682 22.6817 59.8736 22.7138C59.8682 22.6817 59.8628 22.5531 59.8682 22.7138C59.8843 23.1318 60.2272 23.5391 60.672 23.5177C61.0954 23.4962 61.4919 23.164 61.4759 22.7138C61.4383 21.6582 60.6184 20.849 59.5628 20.8382H59.1662H57.2263H53.9896H49.7507H44.8044H39.4455H33.9687H28.6633H23.8242H19.7462H16.7237H15.0464H14.8053C13.7442 20.865 12.9404 21.701 12.9296 22.7567C12.9243 23.3301 12.9296 23.8981 12.9296 24.4715V28.1584V33.0832V38.5278V43.7581V48.0452V50.6656V51.1211C12.9403 52.3376 13.5191 53.4362 14.4944 54.1542C15.2822 54.733 16.1986 54.8402 17.131 54.8402H19.2531H22.7257H27.2057H32.3449H37.7948H43.2072H48.2339H52.5264H55.7416H57.5261H57.7727C59.1445 54.8241 60.4843 54.0471 61.0845 52.7931C61.481 51.9731 61.481 51.1586 61.481 50.2851V47.2574V42.713V37.381V31.9846V27.2581V23.9248V22.7138C61.481 22.2958 61.1113 21.8885 60.6772 21.91C60.2378 21.9314 59.868 22.2636 59.868 22.7138L59.8683 22.7136Z" fill="#00479A"/>
<path d="M26.2615 17.1999V21.5987C26.6017 21.3328 26.9419 21.0668 27.2821 20.8009H20.8592H19.9339C20.2741 21.0668 20.6143 21.3328 20.9544 21.5987V17.4872C20.9544 17.4074 20.968 17.317 20.9544 17.2319V17.1946C20.9885 17.1946 20.866 17.3755 20.8524 17.3914C20.832 17.4074 20.6142 17.5085 20.6006 17.4712C20.6074 17.4925 21.2062 17.4712 21.2402 17.4712H24.4721H26.0915C26.2344 17.4712 26.3841 17.4766 26.5269 17.4712C26.5337 17.4712 26.6018 17.4766 26.6018 17.4712C26.595 17.4872 26.4589 17.4446 26.4249 17.434C26.3228 17.3914 26.2684 17.2957 26.2616 17.2C26.2956 17.6148 26.7038 18.0191 27.2822 17.9978C27.806 17.9819 28.3436 17.6468 28.3027 17.2C28.2347 16.4128 27.4999 15.8862 26.4997 15.8809C26.1119 15.8756 25.7241 15.8809 25.3431 15.8809H21.7166C21.3628 15.8809 21.0158 15.8756 20.662 15.8809C19.6891 15.8969 18.9611 16.4447 18.9202 17.2053C18.8794 17.8968 18.9202 18.5989 18.9202 19.2904V21.5936C18.9202 22.0244 19.3897 22.3914 19.9408 22.3914H26.3637H27.289C27.8401 22.3914 28.3096 22.0244 28.3096 21.5936V17.1947C28.3096 16.7798 27.8401 16.3756 27.289 16.3969C26.7243 16.4235 26.2616 16.7532 26.2616 17.2L26.2615 17.1999Z" fill="#00479A"/>
<path d="M53.1941 17.1999V21.5987C53.5082 21.3328 53.8222 21.0668 54.1362 20.8009H48.2074H47.3533C47.6673 21.0668 47.9813 21.3328 48.2953 21.5987V17.4872C48.2953 17.4074 48.3079 17.317 48.2953 17.2319V17.1946C48.3268 17.1946 48.2137 17.3755 48.2011 17.3914C48.1823 17.4074 47.9813 17.5085 47.9688 17.4712C47.975 17.4925 48.5277 17.4712 48.5591 17.4712H51.5424H53.0372C53.1691 17.4712 53.3073 17.4766 53.4392 17.4712C53.4455 17.4712 53.5083 17.4766 53.5083 17.4712C53.502 17.4872 53.3764 17.4446 53.345 17.434C53.257 17.3914 53.2068 17.2957 53.1942 17.2C53.2256 17.6148 53.6025 18.0191 54.1363 17.9978C54.6199 17.9819 55.1161 17.6468 55.0784 17.2C55.0156 16.4128 54.3373 15.8862 53.4141 15.8809C53.0561 15.8756 52.6981 15.8809 52.3464 15.8809H48.9989C48.6723 15.8809 48.352 15.8756 48.0254 15.8809C47.1273 15.8969 46.4553 16.4447 46.4176 17.2053C46.3799 17.8968 46.4176 18.5989 46.4176 19.2904V21.5936C46.4176 22.0244 46.851 22.3914 47.3597 22.3914H53.2885H54.1426C54.6514 22.3914 55.0847 22.0244 55.0847 21.5936V17.1947C55.0847 16.7798 54.6514 16.3756 54.1426 16.3969C53.6276 16.4235 53.1943 16.7532 53.1943 17.2L53.1941 17.1999Z" fill="#00479A"/>
<path d="M19.9067 41.0957H26.4874H27.4091C27.8271 41.0957 28.2344 40.7259 28.2129 40.2919C28.1915 39.8578 27.8592 39.488 27.4091 39.488H20.8284H19.9067C19.4887 39.488 19.0814 39.8578 19.1029 40.2919C19.1243 40.7313 19.4566 41.0957 19.9067 41.0957Z" fill="#00479A"/>
<path d="M46.9904 41.0957H53.5711H54.4928C54.9108 41.0957 55.3181 40.7259 55.2967 40.2919C55.2752 39.8578 54.943 39.488 54.4928 39.488H47.9122H46.9904C46.5724 39.488 46.1652 39.8578 46.1866 40.2919C46.2027 40.7313 46.5403 41.0957 46.9904 41.0957Z" fill="#00479A"/>
<path d="M51.5461 44.0432V37.4626V36.5408C51.5461 36.1229 51.1764 35.7156 50.7423 35.737C50.3082 35.7585 49.9385 36.0907 49.9385 36.5408V43.1215V44.0432C49.9385 44.4612 50.3082 44.8685 50.7423 44.8471C51.1764 44.831 51.5461 44.4934 51.5461 44.0432Z" fill="#00479A"/>
<path d="M13.7285 28.743H14.9878H18.3961H23.4548H29.6068H36.3697H43.197H49.5365H54.8954H58.7645C59.3754 28.743 59.9863 28.7537 60.5918 28.743H60.6668C61.0848 28.743 61.4921 28.3732 61.4707 27.9391C61.4492 27.5051 61.117 27.1353 60.6668 27.1353H59.4075H55.9992H50.9405H44.7885H38.0256H31.1983H24.8588H19.4999H15.6308C15.0199 27.1353 14.409 27.1246 13.8035 27.1353H13.7285C13.3105 27.1353 12.9032 27.5051 12.9246 27.9391C12.9461 28.3732 13.2783 28.743 13.7285 28.743Z" fill="#00479A"/>
</svg>
