<svg width="165" height="165" viewBox="0 0 165 165" fill="none" xmlns="http://www.w3.org/2000/svg">
<path d="M111.741 9.67339V155.58C111.741 156.554 112.137 157.489 112.841 158.177C113.545 158.866 114.497 159.254 115.494 159.254H152.785C153.78 159.254 154.735 158.866 155.439 158.177C156.143 157.489 156.538 156.554 156.538 155.58V9.67339C156.538 8.69968 156.143 7.76496 155.439 7.0762C154.735 6.38744 153.78 6 152.785 6H115.494C113.421 6 111.741 7.644 111.741 9.67339V9.67339ZM119.248 13.3468H149.032V151.907H119.248V13.3468Z" fill="#0B34B0"/>
<path d="M63.6241 159.254H100.915C101.91 159.254 102.865 158.868 103.569 158.181C104.272 157.495 104.668 156.564 104.668 155.594V59.1728C104.668 58.2005 104.272 57.2713 103.569 56.583C102.865 55.8967 101.91 55.5127 100.915 55.5127H63.6241C61.5528 55.5127 59.8711 57.1507 59.8711 59.1728V155.594C59.8711 156.564 60.2669 157.495 60.9706 158.181C61.6743 158.868 62.6293 159.254 63.6241 159.254ZM67.3771 62.8642H97.0112V151.934H67.3771V62.8642Z" fill="#0B34B0"/>
<path d="M11.7456 93.2413C9.67633 93.2413 8 94.8582 8 96.8541V155.64C8 156.597 8.39296 157.517 9.09736 158.194C9.79967 158.872 10.7507 159.253 11.7456 159.253H48.9617C49.9713 159.277 50.9474 158.906 51.6685 158.226C52.3896 157.545 52.7972 156.614 52.7972 155.64V96.7922C52.7805 95.8285 52.3666 94.9112 51.6476 94.2439C50.9265 93.5765 49.9609 93.2137 48.9618 93.2379L11.7456 93.2413ZM45.2161 152.027H15.4913V100.405H45.2161V152.027Z" fill="#0B34B0"/>
</svg>
