<svg width="165" height="165" viewBox="0 0 165 165" fill="none" xmlns="http://www.w3.org/2000/svg">
<path d="M53.4587 73.2871C51.4855 79.7902 51.7086 87.048 54.2995 93.3622C56.5644 98.8701 60.1848 103.503 65.0404 107.003C67.6485 108.873 70.5998 110.263 73.6539 111.224C72.8131 110.126 71.9724 109.011 71.1316 107.912V124.47V150.654V156.711C72.2812 155.561 73.4136 154.429 74.5634 153.279C74.083 153.227 73.6025 153.176 73.105 153.107C72.9505 153.09 72.779 153.09 72.6246 153.039C73.5511 153.262 72.7961 153.056 72.5731 153.021C71.6637 152.884 70.7371 152.747 69.8278 152.575C68.0604 152.249 66.3103 151.872 64.5602 151.426C61.1971 150.568 57.9199 149.435 54.7112 148.149C54.145 147.925 54.797 148.2 54.8828 148.217C54.6597 148.131 54.4538 148.028 54.2308 147.943C53.8705 147.788 53.5101 147.634 53.1669 147.462C52.309 147.085 51.4683 146.673 50.6447 146.261C49.1176 145.506 47.6248 144.683 46.1492 143.825C44.6908 142.967 43.2495 142.057 41.8424 141.097C41.1389 140.616 40.4525 140.118 39.7662 139.621C39.4573 139.398 39.1485 139.158 38.8397 138.935C38.6681 138.814 38.0332 138.42 38.8053 138.9C38.6166 138.78 38.445 138.609 38.2563 138.471C35.5967 136.361 33.0916 134.079 30.7582 131.642C29.5572 130.39 28.4075 129.103 27.2922 127.781C26.7775 127.164 26.2627 126.529 25.7651 125.894C25.2675 125.259 26.2284 126.495 25.7308 125.86C25.645 125.74 25.5421 125.619 25.4563 125.499C25.1474 125.105 24.8557 124.693 24.564 124.298C22.5565 121.502 20.7206 118.585 19.1076 115.547C18.3011 114.038 17.5461 112.493 16.8598 110.932C16.7054 110.589 16.4995 110.228 16.3965 109.868C16.6539 110.743 16.4652 110.022 16.3794 109.817C16.3107 109.628 16.2249 109.456 16.1563 109.268C15.8131 108.427 15.5043 107.586 15.1954 106.745C14.0115 103.468 13.0507 100.122 12.3472 96.7077C11.9869 94.9747 11.7466 93.2244 11.4378 91.4916C11.6094 92.5382 11.3863 91.0969 11.3692 90.8396C11.3177 90.342 11.2662 89.8444 11.2147 89.3468C11.0946 88.1457 11.0088 86.9446 10.9574 85.7606C10.8373 83.3413 10.8373 80.9047 10.9574 78.4853C11.0088 77.2842 11.0946 76.0832 11.2147 74.8991C11.2662 74.4358 11.3005 73.9898 11.352 73.5265C11.3863 73.2863 11.4035 73.0461 11.4378 72.8058C11.4549 72.6514 11.4721 72.4798 11.5064 72.3254C11.4378 72.7887 11.4206 72.9088 11.4721 72.6342C11.9868 69.1168 12.6903 65.6338 13.6855 62.2193C14.1659 60.5549 14.6979 58.9076 15.2984 57.2777C15.5729 56.5398 15.8475 55.8192 16.1392 55.0814C16.225 54.8583 16.3108 54.6524 16.3965 54.4294C16.4652 54.2406 16.8255 53.5371 16.4137 54.3779C16.6196 53.9661 16.7912 53.52 16.9799 53.091C18.3869 49.9854 19.9998 46.9656 21.8014 44.0656C22.7107 42.6243 23.6544 41.2174 24.6496 39.8447C24.8898 39.5016 25.1472 39.1584 25.4046 38.8153C25.5247 38.6608 25.6448 38.5064 25.7478 38.352C26.2282 37.7 25.2673 38.9525 25.7821 38.3176C26.314 37.6485 26.8287 36.9965 27.3778 36.3444C29.5741 33.7192 31.9592 31.2485 34.4984 28.9493C35.7853 27.7825 37.1065 26.6673 38.462 25.5862C38.5821 25.4832 38.7022 25.3975 38.8223 25.2945C38.1188 25.8951 38.7022 25.3803 38.8566 25.2602C39.1655 25.02 39.4744 24.7969 39.7832 24.5739C40.521 24.0248 41.2931 23.4929 42.0481 22.9781C44.8621 21.0564 47.8133 19.3405 50.8673 17.8307C51.6052 17.4704 52.343 17.1101 53.0808 16.7841C53.4754 16.6125 53.87 16.4238 54.2647 16.2522C54.4363 16.1664 54.625 16.0978 54.7966 16.0291C55.0368 15.9262 54.9339 15.9605 54.5221 16.1492C54.6593 16.0806 54.8137 16.0291 54.951 15.9776C56.5467 15.3256 58.1767 14.7251 59.807 14.1932C63.1186 13.095 66.5159 12.2371 69.9647 11.6194C70.8398 11.465 71.7148 11.3277 72.5899 11.1905C72.6585 11.1733 73.4478 11.0704 72.8473 11.1562C72.2467 11.2248 73.0532 11.139 73.1218 11.1218C73.6022 11.0704 74.0827 11.0017 74.5802 10.9503C73.4306 9.80064 72.2982 8.66822 71.1484 7.51844V24.0591V50.4143V56.454C71.9892 55.3559 72.83 54.2406 73.6707 53.1424C63.9934 56.0936 56.4781 63.6433 53.4582 73.2862C52.9263 75.002 54.093 77.1124 55.8603 77.5071C57.7306 77.936 59.498 76.9409 60.0812 75.1049C60.2528 74.5559 60.4416 73.9896 60.6475 73.4406C60.7333 73.2175 60.8019 72.9602 60.922 72.7542C60.6646 73.2347 60.8019 73.0288 60.9735 72.6685C61.4024 71.7247 61.8829 70.8154 62.4148 69.9403C62.6893 69.477 62.981 69.0309 63.2727 68.6019C63.41 68.396 63.5472 68.2073 63.7017 68.0014C63.9419 67.6754 64.0449 67.4523 63.7531 67.9156C64.3194 67.0577 65.1258 66.2684 65.8636 65.5306C66.5843 64.8099 67.3564 64.1408 68.1457 63.4887C68.3344 63.3343 68.2658 63.3858 67.9398 63.6432C68.077 63.5402 68.1972 63.4544 68.3344 63.3515C68.5403 63.2142 68.729 63.0598 68.935 62.9225C69.3468 62.648 69.7586 62.3735 70.1704 62.1161C71.0797 61.5499 72.0406 61.0523 73.0186 60.6062C73.1387 60.5547 73.2417 60.5032 73.3618 60.4517C73.602 60.3488 73.5162 60.3831 73.1216 60.5547C73.2245 60.5718 73.7222 60.3145 73.8251 60.2801C74.3742 60.0742 74.9404 59.8855 75.5066 59.7139C76.9479 59.2678 78.0289 57.9466 78.0289 56.4023V39.8616V13.5064V7.46669C78.0289 5.75084 76.4504 3.8463 74.5971 4.03487C59.5834 5.63058 45.4966 11.3616 33.6399 20.6957C22.2297 29.6524 13.6163 41.8348 8.65741 55.3904C3.02933 70.7985 2.51477 88.0583 7.04454 103.812C11.0424 117.71 18.9866 130.459 29.7106 140.169C40.5718 149.984 54.144 156.796 68.6096 159.284C70.5828 159.627 72.5732 159.901 74.5636 160.107C76.4167 160.296 77.9955 158.374 77.9955 156.675V140.118V113.934V107.877C77.9955 106.333 76.9145 105.012 75.4732 104.566C74.9069 104.394 74.3579 104.205 73.7916 103.999C73.6887 103.965 72.8136 103.605 73.2769 103.794C73.723 103.982 73.2254 103.759 73.1053 103.708C72.9166 103.622 72.7279 103.536 72.5391 103.45C71.4581 102.936 70.4115 102.335 69.3991 101.683C68.9187 101.357 68.4554 101.031 67.9921 100.688C67.6832 100.465 68.198 100.842 68.198 100.842C68.198 100.791 67.872 100.585 67.8205 100.533C67.5631 100.328 67.3229 100.105 67.0656 99.8986C66.139 99.075 65.2811 98.2 64.4747 97.2734C64.2859 97.0504 64.0972 96.8273 63.9256 96.6042C63.857 96.5184 63.7883 96.3812 63.7025 96.3125C64.1315 96.6214 63.9771 96.6729 63.7883 96.4155C63.428 95.9179 63.0677 95.4031 62.7417 94.8884C62.0897 93.876 61.5234 92.8122 61.0087 91.7314C60.9401 91.577 60.8714 91.4226 60.8028 91.2681C60.5969 90.822 60.9229 91.251 60.8543 91.4054C60.8886 91.3025 60.6312 90.822 60.5797 90.7019C60.3395 90.0499 60.1165 89.3979 59.9277 88.7287C59.7218 88.0252 59.5503 87.3217 59.413 86.6182C59.3444 86.2579 59.2757 85.8976 59.2243 85.5372C59.2071 85.3828 59.1728 85.2284 59.1556 85.074C59.2414 85.7603 59.1556 85.0225 59.1385 84.8852C58.9669 83.1351 58.9497 81.3677 59.1213 79.6176C59.1385 79.4117 59.1556 79.2058 59.1899 78.9999C59.2243 78.6739 59.2586 78.6567 59.1899 78.9828C59.2586 78.571 59.3272 78.1763 59.3958 77.7645C59.5674 76.8723 59.8076 75.9801 60.065 75.105C60.5797 73.3891 59.4473 71.2957 57.6629 70.8841C55.8269 70.4551 54.0083 71.4331 53.4592 73.2862L53.4587 73.2871Z" fill="#0B34B0"/>
<path d="M157.079 70.9186H140.521H114.321H108.264C109.413 72.0682 110.546 73.2007 111.696 74.3504C111.575 72.6346 110.786 71.5364 109.156 70.9186C109.963 71.725 110.752 72.5143 111.558 73.3208C108.521 63.6606 100.886 56.0594 91.2086 53.074L93.6107 55.4762C93.2504 53.8118 91.7062 53.1083 90.1789 52.9196C91.3285 54.0692 92.461 55.2016 93.6107 56.3514V39.828V13.4901V7.45036C92.4611 8.59998 91.3287 9.7324 90.1789 10.8822C89.9215 10.8479 89.647 10.7964 89.3896 10.7621C89.6813 10.8479 89.9902 10.8993 90.3162 10.8822C90.4706 10.8993 90.6422 10.9165 90.7966 10.9337C91.2427 10.9851 91.6889 11.0366 92.1178 11.0881C92.6497 11.1567 91.2427 10.968 92.0491 11.0709C92.255 11.1052 92.4438 11.1224 92.6497 11.1567C93.0958 11.2253 93.5248 11.294 93.9537 11.3626C95.6524 11.6371 97.3338 11.9803 98.9982 12.3921C102.224 13.1642 105.398 14.1422 108.487 15.3433C108.881 15.4977 109.293 15.6522 109.688 15.8237C109.825 15.8752 109.979 15.9438 110.117 15.9953C110.872 16.3042 109.413 15.6865 110.168 16.0125C110.957 16.3556 111.747 16.6988 112.519 17.0591C113.995 17.7454 115.453 18.5004 116.877 19.2897C119.726 20.8511 122.454 22.6183 125.079 24.54C125.388 24.7631 125.697 25.0033 126.006 25.2264C126.126 25.3122 126.263 25.4151 126.366 25.5009C125.662 24.8832 126.246 25.4151 126.4 25.5352C127.069 26.0671 127.721 26.599 128.373 27.1481C129.609 28.1947 130.81 29.2757 131.977 30.391C134.31 32.6388 136.489 35.0239 138.514 37.5461C138.754 37.8378 139.029 38.1295 139.235 38.4555C138.685 37.6148 139.406 38.6957 139.543 38.8673C140.058 39.5536 140.556 40.24 141.036 40.9263C141.963 42.2647 142.855 43.6201 143.696 45.0101C145.377 47.8069 146.887 50.7066 148.208 53.6922C148.294 53.8981 148.397 54.1212 148.483 54.3443C148.757 54.9791 148.226 53.6922 148.5 54.3957C148.672 54.8247 148.86 55.2708 149.032 55.6997C149.375 56.5748 149.701 57.467 150.01 58.3421C150.611 60.058 151.142 61.7909 151.606 63.541C152.103 65.3941 152.532 67.247 152.875 69.1346C153.047 70.0783 153.219 71.0391 153.356 71.9828C153.373 72.1373 153.407 72.3089 153.425 72.4633C153.476 72.8407 153.476 72.7893 153.407 72.2745C153.425 72.4289 153.442 72.6005 153.476 72.7549C153.527 73.2354 153.596 73.7158 153.648 74.1963C153.819 75.8263 154.608 76.9416 156.17 77.5079C155.672 77.2162 155.157 76.9245 154.66 76.6328L154.677 76.65C154.334 75.8435 154.008 75.0371 153.665 74.2307V74.3336C153.802 76.1181 155.14 77.8511 157.097 77.7654C158.847 77.6796 160.683 76.2555 160.528 74.3336C160.391 72.6178 159.585 71.4853 157.989 70.9018C158.83 71.9999 159.67 73.1152 160.511 74.2134C159.018 60.1781 153.94 46.6227 145.429 35.3145C137.124 24.2645 126.092 15.3592 113.342 9.95454C109.618 8.37599 105.826 7.03762 101.897 6.04237C100.044 5.56195 98.1737 5.16728 96.2862 4.8413C95.3425 4.66971 94.3816 4.53245 93.4207 4.39517C92.6829 4.29222 91.928 4.18927 91.1902 4.10348C90.9843 4.08632 90.7784 4.03485 90.5896 4.03485C91.2588 4.1378 91.4647 4.15495 91.2244 4.12064C90.8813 4.03485 90.5553 4.00053 90.2121 4.00053C88.359 3.96621 86.7803 5.59624 86.7803 7.43235V23.9558V50.2937V56.3334C86.7803 58.3581 88.3588 59.5249 90.2121 59.7652C90.2464 59.7652 90.2807 59.7652 90.315 59.7824C89.3198 59.2162 88.3418 58.6499 87.3467 58.0837C87.2437 57.8263 87.1236 57.5518 87.0206 57.2944C87.278 58.4783 88.3075 59.3534 89.4228 59.6966C89.989 59.8682 90.5381 60.0569 91.0872 60.2628C91.3102 60.3486 91.5847 60.4172 91.7906 60.5373C90.9842 60.0569 91.9279 60.606 92.1167 60.6918C93.0947 61.1379 94.0384 61.6526 94.9649 62.2189C95.4282 62.4934 95.8743 62.8022 96.3033 63.1111C96.5263 63.2655 96.8009 63.42 97.0068 63.6258C96.4062 63.0253 96.9381 63.5744 97.0926 63.6945C97.9505 64.398 98.7741 65.1529 99.5462 65.9422C99.9237 66.3197 100.284 66.7315 100.627 67.1261C100.782 67.3149 100.936 67.5036 101.108 67.6924C101.348 67.9841 101.313 67.9497 101.022 67.5723C101.125 67.7095 101.228 67.8296 101.313 67.9669C101.948 68.8248 102.532 69.7342 103.064 70.6607C103.355 71.1583 103.613 71.6731 103.87 72.205C103.973 72.4281 104.076 72.6511 104.179 72.8913C104.539 73.6634 103.904 72.1878 104.23 72.9943C104.453 73.5433 104.659 74.0924 104.831 74.6415C105.294 76.0485 105.946 76.975 107.388 77.5241C106.701 76.9922 106.015 76.4774 105.329 75.9455V75.9627C105.174 75.3793 105.02 74.8131 104.865 74.2297V74.3327C105.002 76.1857 106.324 77.7645 108.297 77.7645H124.855H151.055H157.112C158.914 77.7645 160.63 76.1859 160.544 74.3327C160.424 72.4967 159 70.9181 157.078 70.9181L157.079 70.9186Z" fill="#0B34B0"/>
<path d="M153.751 89.0579C153.631 89.5898 153.613 90.1732 153.545 90.7223C153.51 90.9625 153.493 91.2027 153.459 91.4429C153.459 91.5116 153.356 92.3009 153.425 91.7003C153.493 91.0998 153.39 91.9062 153.39 91.9577C153.356 92.1636 153.339 92.3523 153.305 92.5582C153.236 92.9872 153.167 93.4333 153.099 93.8623C152.824 95.5095 152.481 97.1567 152.086 98.7866C151.314 102.012 150.319 105.17 149.118 108.258C148.981 108.618 148.826 108.979 148.689 109.356C148.603 109.562 148.535 109.802 148.414 110.008C148.826 109.27 148.535 109.734 148.449 109.94C148.123 110.695 147.797 111.432 147.436 112.187C146.75 113.663 145.995 115.121 145.206 116.546C143.644 119.394 141.877 122.122 139.956 124.748C139.732 125.056 139.492 125.365 139.269 125.674C139.149 125.846 138.772 126.48 139.235 125.708C139.132 125.863 138.995 126.017 138.875 126.154C138.377 126.789 137.862 127.407 137.33 128.025C136.284 129.26 135.203 130.461 134.087 131.628C131.84 133.961 129.455 136.141 126.932 138.165C126.744 138.302 126.572 138.457 126.383 138.594C126.332 138.628 125.731 139.109 126.177 138.749C126.623 138.405 126.023 138.869 125.971 138.903C125.817 139.023 125.663 139.143 125.508 139.246C124.856 139.727 124.204 140.207 123.535 140.67C122.197 141.597 120.841 142.489 119.451 143.33C116.654 145.011 113.755 146.521 110.769 147.843C110.563 147.928 110.34 148.066 110.117 148.117C110.975 147.86 110.289 148.049 110.065 148.134C109.637 148.306 109.19 148.495 108.761 148.666C107.886 149.009 106.994 149.335 106.119 149.644C104.369 150.245 102.584 150.794 100.8 151.274C98.9984 151.755 97.1624 152.167 95.3266 152.51C94.3829 152.681 93.4221 152.853 92.4784 152.99C92.3239 153.007 92.1523 153.042 91.9979 153.059C91.6205 153.11 91.6719 153.11 92.1867 153.042C92.0322 153.059 91.8607 153.076 91.7063 153.11C91.2258 153.162 90.7454 153.23 90.2649 153.282C91.0714 153.625 91.8778 153.951 92.6843 154.294C91.9808 153.625 91.1228 153.316 90.1448 153.282C91.2944 154.431 92.4269 155.564 93.5766 156.714V140.173V114.024V107.984C92.427 109.133 91.2946 110.266 90.1448 111.416C91.8607 111.296 92.9416 110.506 93.5766 108.876C92.7702 109.683 91.9809 110.472 91.1745 111.278C100.886 108.293 108.573 100.674 111.559 90.9457C111.027 91.632 110.512 92.3183 109.98 93.0047C109.997 92.9875 110.014 92.9875 110.032 92.9703C109.448 93.1247 108.882 93.2792 108.299 93.4336H124.839H151.006H157.045C158.847 93.4336 160.563 91.8551 160.477 90.0018C160.391 88.1487 158.967 86.57 157.045 86.57H149.581H133.092H116.397C113.72 86.57 110.992 86.4156 108.316 86.57C107.835 86.6043 107.406 86.6729 106.977 86.8617C105.725 87.3936 105.158 88.4745 104.764 89.7099C104.592 90.2247 104.403 90.7394 104.215 91.237C103.974 91.8548 104.455 90.7394 104.18 91.34C104.06 91.5974 103.94 91.8719 103.82 92.1293C103.34 93.1245 102.791 94.1025 102.19 95.029C101.915 95.4408 101.641 95.8526 101.349 96.2473C101.298 96.333 101.058 96.5733 101.058 96.6419C101.058 96.6247 101.469 96.1443 101.212 96.436C101.023 96.659 100.852 96.8821 100.663 97.1052C99.9766 97.9116 99.2388 98.6837 98.4667 99.4044C98.072 99.7647 97.6774 100.125 97.2656 100.451C97.1626 100.537 97.0768 100.605 96.9739 100.691C96.7337 100.897 96.6136 100.794 97.094 100.605C96.8538 100.691 96.6136 100.966 96.4077 101.12C95.5326 101.738 94.6404 102.304 93.6967 102.819C93.2334 103.076 92.753 103.316 92.2554 103.557C92.0323 103.66 91.8092 103.763 91.569 103.866C91.4832 103.9 91.0886 104.054 91.5175 103.883C92.0151 103.694 91.3288 103.951 91.2259 103.986C90.7626 104.157 90.2822 104.329 89.8017 104.483C88.3776 104.947 87.4682 105.616 86.9191 107.04C87.451 106.353 87.9658 105.667 88.4977 104.981H88.4805C89.0639 104.826 89.6301 104.672 90.2135 104.518H90.1105C88.2574 104.655 86.6787 105.976 86.6787 107.949V124.49V150.639V156.679C86.6787 158.584 88.2573 160.042 90.1105 160.111H90.2135C89.6301 159.956 89.0639 159.802 88.4805 159.648C86.5759 158.429 88.9952 159.922 89.3213 160.008C89.8875 160.162 90.2135 160.128 90.7111 160.077C91.1057 160.025 91.5175 159.991 91.9122 159.939C93.0103 159.802 94.1256 159.648 95.2238 159.476C96.9568 159.201 98.6898 158.858 100.406 158.464C103.717 157.692 106.96 156.696 110.135 155.478C116.655 152.973 122.849 149.696 128.477 145.561C139.596 137.393 148.638 126.446 154.163 113.765C155.793 110.025 157.183 106.216 158.229 102.269C158.727 100.416 159.139 98.5456 159.482 96.6754C159.653 95.7317 159.808 94.7708 159.945 93.8271C160.048 93.1236 160.134 92.4201 160.237 91.7166C160.271 91.4764 160.305 91.2362 160.323 90.9959C160.357 90.6528 160.614 89.5546 160.323 90.9102C160.717 89.16 159.791 87.1182 157.92 86.6893C156.239 86.2603 154.18 87.1868 153.751 89.0571L153.751 89.0579Z" fill="#0B34B0"/>
</svg>
