<svg width="165" height="165" viewBox="0 0 165 165" fill="none" xmlns="http://www.w3.org/2000/svg">
<path d="M39.7164 148.183H69.9669C71.2368 153.933 76.3698 158.25 82.4986 158.25C88.6274 158.25 93.7604 153.933 95.0303 148.183H132.884C134.154 153.933 139.287 158.25 145.416 158.25C152.493 158.25 158.249 152.494 158.249 145.417C158.249 138.34 152.493 132.583 145.416 132.583C139.291 132.583 134.154 136.9 132.884 142.65H95.0303C93.7604 136.901 88.6274 132.583 82.4986 132.583C76.3698 132.583 71.2367 136.901 69.9669 142.65H39.7164C24.5907 142.65 12.2833 130.343 12.2833 115.217V112.7C12.2833 97.5744 24.5907 85.2669 39.7164 85.2669H39.7679C41.0379 91.0165 46.1708 95.3336 52.2996 95.3336C58.4285 95.3336 63.5615 91.0165 64.8314 85.2669H102.685C103.955 91.0165 109.088 95.3336 115.217 95.3336C121.389 95.3336 126.543 90.951 127.766 85.137C144.783 83.8608 158.25 69.6404 158.25 52.2998V49.7832C158.25 31.606 143.461 16.8166 125.284 16.8166H95.0331C93.7631 11.067 88.6268 6.75 82.5014 6.75C76.376 6.75 71.2397 11.067 69.9697 16.8166H32.1158C30.8457 11.067 25.7094 6.75 19.5841 6.75C12.5072 6.75 6.75081 12.5064 6.75081 19.5833C6.75081 26.6601 12.5072 32.4166 19.5841 32.4166C25.7094 32.4166 30.8458 28.0995 32.1158 22.3499H69.9697C71.2396 28.0995 76.3726 32.4166 82.5014 32.4166C88.6302 32.4166 93.7633 28.0995 95.0331 22.3499H125.284C140.409 22.3499 152.717 34.6574 152.717 49.7832V52.2998C152.717 66.6055 141.703 78.367 127.71 79.602C126.393 73.92 121.297 69.6664 115.217 69.6664C109.092 69.6664 103.955 73.9835 102.685 79.7331H64.8314C63.5614 73.9835 58.4285 69.6664 52.2996 69.6664C46.1708 69.6664 41.0378 73.9835 39.7679 79.7331H39.7164C21.5393 79.7331 6.75 94.5224 6.75 112.7V115.216C6.75 133.393 21.5393 148.183 39.7164 148.183ZM145.416 138.117C149.44 138.117 152.716 141.392 152.716 145.417C152.716 149.441 149.44 152.717 145.416 152.717C141.391 152.717 138.116 149.441 138.116 145.417C138.116 141.392 141.391 138.117 145.416 138.117ZM82.4995 138.117C86.5241 138.117 89.7994 141.392 89.7994 145.417C89.7994 149.441 86.5241 152.717 82.4995 152.717C78.4748 152.717 75.1995 149.441 75.1995 145.417C75.1995 141.392 78.4749 138.117 82.4995 138.117ZM19.5832 26.8838C15.5586 26.8838 12.2833 23.6085 12.2833 19.5839C12.2833 15.5592 15.5586 12.2839 19.5832 12.2839C23.6079 12.2839 26.8832 15.5592 26.8832 19.5839C26.8832 23.6085 23.6079 26.8838 19.5832 26.8838ZM82.4995 26.8838C78.4749 26.8838 75.1995 23.6085 75.1995 19.5839C75.1995 15.5592 78.4749 12.2839 82.4995 12.2839C86.5241 12.2839 89.7994 15.5592 89.7994 19.5839C89.7994 23.6085 86.5241 26.8838 82.4995 26.8838ZM115.216 75.2003C119.241 75.2003 122.516 78.4757 122.516 82.5003C122.516 86.5249 119.241 89.8003 115.216 89.8003C111.191 89.8003 107.916 86.5249 107.916 82.5003C107.916 78.4757 111.191 75.2003 115.216 75.2003ZM52.2997 75.2003C56.3243 75.2003 59.5996 78.4757 59.5996 82.5003C59.5996 86.5249 56.3243 89.8003 52.2997 89.8003C48.2751 89.8003 44.9997 86.5249 44.9997 82.5003C44.9997 78.4757 48.2751 75.2003 52.2997 75.2003Z" fill="#0B34B0" stroke="#0B34B0" stroke-width="0.5"/>
</svg>
