<svg width="165" height="165" viewBox="0 0 165 165" fill="none" xmlns="http://www.w3.org/2000/svg">
<path d="M94.2033 74.0778H152.817C153.912 74.0778 154.953 73.596 155.661 72.7589C156.369 71.923 156.673 70.8171 156.492 69.7363C153.912 54.3162 146.583 40.0861 135.527 29.0309C124.471 17.975 110.239 10.6455 94.818 8.06626C93.7373 7.88392 92.6313 8.1887 91.7942 8.89543C90.9584 9.60347 90.4766 10.6443 90.4766 11.7396V70.3531C90.4766 71.342 90.8692 72.2896 91.5679 72.9884C92.2667 73.6871 93.2143 74.0797 94.2032 74.0797L94.2033 74.0778ZM97.9301 16.2854C110.171 19.1682 121.365 25.4064 130.257 34.2967C139.148 43.1888 145.385 54.383 148.268 66.6236H97.9308L97.9301 16.2854Z" fill="#0B34B0"/>
<path d="M153.828 80.7968H83.7577V10.7266C83.7577 9.73773 83.3651 8.79009 82.6664 8.09135C81.9676 7.39261 81.02 7 80.0311 7C60.0658 7 43.1674 14.9309 29.0481 29.0481C14.9309 43.1654 7 62.312 7 82.2783C7 102.245 14.9309 121.389 29.0481 135.508C43.1654 149.626 62.312 157.557 82.2783 157.557C102.245 157.557 121.389 149.626 135.508 135.508C149.626 121.391 157.557 104.492 157.557 84.5255C157.557 83.5366 157.164 82.589 156.465 81.8902C155.767 81.1915 154.819 80.7989 153.83 80.7989L153.828 80.7968ZM82.2775 150.1C64.612 150.1 47.6436 143.207 34.9826 130.89C22.3202 118.571 14.9641 101.798 14.4796 84.1398C13.9938 66.4811 20.4169 49.3322 32.3819 36.3372C44.3482 23.3406 58.6643 15.5269 76.3018 14.5566V84.5246C76.3018 85.5135 76.6944 86.4611 77.3932 87.1599C78.0919 87.8586 79.0395 88.2512 80.0284 88.2512H150C149.026 105.561 141.469 119.595 128.877 131.514C116.285 143.431 99.6123 150.081 82.2769 150.103L82.2775 150.1Z" fill="#0B34B0"/>
</svg>
