<svg width="165" height="165" viewBox="0 0 165 165" fill="none" xmlns="http://www.w3.org/2000/svg">
<path d="M157.702 141.776V141.276H157.202H22.9259V7V6.5H22.4259H19.1786H18.6786V7V141.276H7H6.5V141.776V145.024V145.524H7H18.6786V157.202V157.702H19.1786H22.4259H22.9259V157.202V145.524H43.0357V156.213V156.713H43.5357H46.7831H47.2831V156.213V145.524H73.8876V156.213V156.713H74.3876H77.636H78.136V156.213V145.524H104.741V156.213V156.713H105.241H108.488H108.988V156.213V145.524H135.592V156.213V156.713H136.092H139.34H139.84V156.213V145.524H157.202H157.702V145.024V141.776Z" fill="#0B34B0" stroke="#0B34B0"/>
<path d="M88.9938 70.6678L88.9939 70.6668C109.652 70.0524 126.495 60.2204 138.162 49.3992C143.997 43.9873 148.548 38.3192 151.643 33.4133C153.19 30.9606 154.378 28.6921 155.18 26.7358C155.978 24.7907 156.412 23.1144 156.412 21.8587V21.3587H155.912H152.664H152.164V21.8587C152.164 22.5626 151.831 23.7779 151.107 25.4172C150.391 27.0362 149.319 29.0119 147.903 31.2142C145.069 35.618 140.872 40.9037 135.43 46.0258C124.543 56.2719 108.708 65.83 88.8684 66.4197C67.8415 67.0447 54.1761 77.4795 45.7663 87.7935C37.3652 98.097 34.1935 108.295 34.1226 108.531L33.9788 109.011L34.4585 109.154L37.5699 110.083L38.049 110.226L38.192 109.746C38.2385 109.591 41.1876 100.093 49.0111 90.4976C56.8259 80.9131 69.4886 71.2467 88.9938 70.6678Z" fill="#0B34B0" stroke="#0B34B0"/>
<path d="M81.6946 86.1606C77.6655 86.1606 74.3877 89.4387 74.3877 93.4675C74.3877 97.4963 77.6658 100.774 81.6946 100.774C85.7236 100.774 89.0014 97.4963 89.0014 93.4675C89.0014 89.4387 85.7222 86.1606 81.6946 86.1606Z" fill="#0B34B0"/>
<path d="M118.637 122.128C122.666 122.128 125.944 118.85 125.944 114.821C125.944 110.792 122.666 107.514 118.637 107.514C114.608 107.514 111.33 110.792 111.33 114.821C111.33 118.85 114.608 122.128 118.637 122.128Z" fill="#0B34B0"/>
<path d="M137.31 76.4187C137.31 72.3896 134.032 69.1118 130.003 69.1118C125.974 69.1118 122.696 72.3911 122.696 76.4187C122.696 80.4478 125.974 83.7256 130.003 83.7256C134.032 83.7267 137.31 80.4475 137.31 76.4187Z" fill="#0B34B0"/>
<path d="M135.686 106.459C139.715 106.459 142.993 103.181 142.993 99.1523C142.993 95.1235 139.715 91.8455 135.686 91.8455C131.657 91.8455 128.379 95.1235 128.379 99.1523C128.379 103.181 131.657 106.459 135.686 106.459Z" fill="#0B34B0"/>
<path d="M95.2229 116.445C99.252 116.445 102.53 113.167 102.53 109.138C102.53 105.109 99.2517 101.831 95.2229 101.831C91.1938 101.831 87.916 105.11 87.916 109.138C87.916 113.166 91.1941 116.445 95.2229 116.445Z" fill="#0B34B0"/>
<path d="M117.418 89.5223C117.418 85.4933 114.14 82.2155 110.112 82.2155C106.082 82.2155 102.805 85.4936 102.805 89.5223C102.805 93.5511 106.083 96.8292 110.112 96.8292C114.139 96.8292 117.418 93.5523 117.418 89.5223Z" fill="#0B34B0"/>
</svg>
