<svg xmlns="http://www.w3.org/2000/svg" width="20" height="20" viewBox="0 0 20 20"><defs><style>.a{fill:#666;}</style></defs><g transform="translate(2383.718 986.91)"><path class="a" d="M1360.282,7.519a8.571,8.571,0,1,1-8.571,8.571,8.581,8.581,0,0,1,8.571-8.571m0-1.429a10,10,0,1,0,10,10,10,10,0,0,0-10-10" transform="translate(-3734 -993)"/><path class="a" d="M1390.256,41.768a1,1,0,0,1-1-1V30.091a1,1,0,0,1,2,0V40.767a1,1,0,0,1-1,1" transform="translate(-3763.98 -1012.339)"/><path class="a" d="M1384.932,47.092h-10.676a1,1,0,0,1,0-2h10.676a1,1,0,0,1,0,2" transform="translate(-3753.316 -1023.001)"/></g></svg>