<svg xmlns="http://www.w3.org/2000/svg" width="20" height="20" viewBox="0 0 20 20"><defs><style>.a{fill:none;}.b{fill:#fff;}</style></defs><g transform="translate(-376 -12561)"><rect class="a" width="19.988" height="19.998" transform="translate(376 12561)"/><rect class="a" width="19.988" height="19.998" transform="translate(376.012 12561.002)"/><g transform="translate(379.282 12562.258)"><g transform="translate(0 0)"><path class="b" d="M399.522,12584.242h0a1.187,1.187,0,0,1-.945-.453c-.127-.166-.268-.348-.427-.555-1.725-2.232-5.316-6.877-5.316-10.021a6.7,6.7,0,0,1,13.377,0c0,3.236-3.6,7.834-5.328,10.045-.155.2-.293.375-.411.527A1.193,1.193,0,0,1,399.522,12584.242Zm0-16.168a5.278,5.278,0,0,0-5.4,5.139c0,2.732,3.546,7.32,5.061,9.279.122.16.234.3.335.436.1-.125.207-.266.326-.418,1.517-1.937,5.068-6.477,5.068-9.3A5.279,5.279,0,0,0,399.522,12568.074Z" transform="translate(-392.834 -12566.832)"/></g><path class="b" d="M415.25,12587.61a1.071,1.071,0,1,1-1.071,1.071,1.072,1.072,0,0,1,1.071-1.071m0-1.294a2.365,2.365,0,1,0,2.364,2.365,2.368,2.368,0,0,0-2.364-2.365Z" transform="translate(-408.562 -12582.335)"/></g></g></svg>