<?xml version="1.0" encoding="iso-8859-1"?>
<!-- Generator: Adobe Illustrator 19.0.0, SVG Export Plug-In . SVG Version: 6.00 Build 0)  -->
<svg version="1.1" id="Capa_1" xmlns="http://www.w3.org/2000/svg" xmlns:xlink="http://www.w3.org/1999/xlink" x="0px" y="0px"
	 viewBox="0 0 227.855 227.855" style="enable-background:new 0 0 227.855 227.855;" xml:space="preserve">
<g>
	<path fill="#c83638" d="M113.928,0C65.997,0,27.001,38.995,27.001,86.927c0,25.866,16.889,62.388,32.694,87.94
		c15.844,25.616,38.411,52.988,54.232,52.988c15.374,0,37.898-27.368,53.852-52.98c15.989-25.669,33.074-62.254,33.074-87.948
		C200.854,38.995,161.859,0,113.928,0z M176.863,87.591c0,34.702-28.232,62.935-62.936,62.935
		c-34.702,0-62.935-28.232-62.935-62.935s28.232-62.935,62.935-62.935C148.63,24.656,176.863,52.889,176.863,87.591z"/>
	<path fill="#c83638" d="M113.927,110.182c-7.417,0-13.451,6.035-13.451,13.452s6.034,13.452,13.451,13.452s13.452-6.035,13.452-13.452
		S121.344,110.182,113.927,110.182z"/>
	<path fill="#c83638" d="M123.931,41.928h-20.008c-2.764,0-5.255,1.075-7.015,3.028c-1.725,1.915-2.521,4.438-2.243,7.107l8.072,46.864h22.38
		l8.045-46.666l0.028-0.199c0.277-2.669-0.521-5.193-2.246-7.107C129.185,43.003,126.695,41.928,123.931,41.928z"/>
</g>
</svg>
