<!-- <svg width="43" height="47" viewBox="0 0 43 47" fill="none" xmlns="http://www.w3.org/2000/svg">
  <circle cx="21.1985" cy="23.8634" r="2.51289" stroke="#000000" stroke-width="2" />
  <circle cx="3.51289" cy="34.0386" r="2.51289" stroke="#000000" stroke-width="2" />
  <circle cx="38.6417" cy="34.0386" r="2.51289" stroke="#000000" stroke-width="2" />
  <circle cx="20.9561" cy="3.51289" r="2.51289" stroke="#000000" stroke-width="2" />
  <path d="M24.5737 14.7173C27.7397 16.232 31.0103 20.4717 30.3882 24.6503" stroke="#000000" stroke-width="2" />
  <path d="M26.7838 31.5646C24.1057 33.433 18.7758 34.1598 15.2742 31.518" stroke="#000000" stroke-width="2" />
  <path d="M11.3142 24.876C10.7809 20.4717 13.3247 16.4742 17.2863 15.037" stroke="#000000" stroke-width="2" />
  <path d="M23.1223 18.3036C25.0899 19.245 27.1226 21.8799 26.7359 24.4769" stroke="#000000" stroke-width="2" />
  <path d="M24.4959 28.7741C22.8314 29.9353 19.5189 30.387 17.3427 28.7452" stroke="#000000" stroke-width="2" />
  <path d="M14.8817 24.6172C14.5503 21.8799 16.1312 19.3956 18.5933 18.5023" stroke="#000000" stroke-width="2" />
  <line x1="21.3505" y1="6.02579" x2="21.3505" y2="21.3458" stroke="#000000" stroke-width="2" />
  <line x1="18.4778" y1="25.5685" x2="6.22562" y2="32.9304" stroke="#000000" stroke-width="2" />
  <line x1="24" y1="25.0567" x2="36.169" y2="32.0824" stroke="#000000" stroke-width="2" />
  <line x1="21.3505" y1="33.433" x2="21.3505" y2="43.1237" stroke="#000000" stroke-width="2" />
  <line x1="4.39132" y1="13.6789" x2="12.6979" y2="18.67" stroke="#000000" stroke-width="2" />
  <line x1="36.6755" y1="14.9176" x2="29.1224" y2="19.2784" stroke="#000000" stroke-width="2" />
  <circle cx="38.3995" cy="13.4459" r="2.54381" fill="#000000" />
  <circle cx="3.75512" cy="13.9304" r="2.54381" fill="#000000" />
  <circle cx="21.2438" cy="44.4562" r="2.54381" fill="#000000" />
</svg> -->

<svg width="34" height="34" viewBox="0 0 34 34" fill="none" xmlns="http://www.w3.org/2000/svg"><path fill-rule="evenodd" clip-rule="evenodd" d="M27.064 16.203a3.52 3.52 0 0 1 3.421-2.718A3.519 3.519 0 0 1 34 17a3.52 3.52 0 0 1-3.515 3.516 3.52 3.52 0 0 1-3.42-2.718h-2.679a7.39 7.39 0 0 1-1.604 3.859l1.897 1.896a3.49 3.49 0 0 1 1.856-.533c.94 0 1.822.366 2.486 1.03a3.52 3.52 0 0 1 0 4.97 3.493 3.493 0 0 1-2.486 1.03c-.94 0-1.822-.366-2.486-1.03a3.493 3.493 0 0 1-1.03-2.485c0-.667.189-1.304.533-1.856l-1.897-1.896a7.402 7.402 0 0 1-3.858 1.603v2.678a3.519 3.519 0 0 1 2.718 3.421A3.52 3.52 0 0 1 17 34a3.52 3.52 0 0 1-3.516-3.516 3.52 3.52 0 0 1 2.718-3.421v-2.678a7.39 7.39 0 0 1-3.858-1.604l-1.897 1.896c.345.553.533 1.19.533 1.857 0 .939-.366 1.822-1.03 2.486a3.49 3.49 0 0 1-2.486 1.03 3.492 3.492 0 0 1-2.485-1.03 3.52 3.52 0 0 1 0-4.971 3.493 3.493 0 0 1 2.486-1.03 3.49 3.49 0 0 1 1.855.533l1.898-1.897a7.395 7.395 0 0 1-1.604-3.858H6.936a3.518 3.518 0 0 1-3.42 2.718A3.52 3.52 0 0 1 0 17a3.52 3.52 0 0 1 3.516-3.516 3.52 3.52 0 0 1 3.42 2.718h2.679a7.39 7.39 0 0 1 1.603-3.858l-1.896-1.897a3.494 3.494 0 0 1-1.857.533 3.492 3.492 0 0 1-2.486-1.03 3.52 3.52 0 0 1 0-4.971 3.492 3.492 0 0 1 2.486-1.03c.939 0 1.822.366 2.486 1.03a3.52 3.52 0 0 1 .497 4.34l1.897 1.898a7.393 7.393 0 0 1 3.859-1.603V6.936a3.519 3.519 0 0 1-2.72-3.42A3.519 3.519 0 0 1 17 0a3.518 3.518 0 0 1 3.515 3.515 3.519 3.519 0 0 1-2.719 3.42v2.68a7.392 7.392 0 0 1 3.859 1.603l1.897-1.897a3.52 3.52 0 0 1 .496-4.342 3.493 3.493 0 0 1 2.487-1.03c.939 0 1.822.366 2.486 1.03a3.52 3.52 0 0 1 0 4.972 3.492 3.492 0 0 1-2.486 1.03 3.487 3.487 0 0 1-1.856-.533l-1.897 1.898a7.39 7.39 0 0 1 1.604 3.857h2.678Zm-.529-10.66a1.922 1.922 0 0 0-1.36 3.28l.002.002c.726.724 1.991.725 2.718 0a1.925 1.925 0 0 0 0-2.719 1.909 1.909 0 0 0-1.36-.562ZM17 1.594a1.923 1.923 0 0 0 0 3.844c1.06 0 1.922-.862 1.922-1.922A1.924 1.924 0 0 0 17 1.595ZM6.106 6.107a1.924 1.924 0 0 0 0 2.718c.725.726 1.992.726 2.719 0a1.924 1.924 0 0 0-1.36-3.281c-.513 0-.996.2-1.359.563ZM1.594 17c0 1.06.862 1.921 1.921 1.921 1.06 0 1.922-.862 1.922-1.921 0-1.06-.862-1.922-1.922-1.922A1.924 1.924 0 0 0 1.594 17Zm21.242 0a5.843 5.843 0 0 0-5.837-5.836A5.842 5.842 0 0 0 11.164 17 5.842 5.842 0 0 0 17 22.835 5.843 5.843 0 0 0 22.836 17ZM6.106 27.893c.726.725 1.992.726 2.718 0 .362-.363.563-.845.563-1.358 0-.514-.2-.996-.563-1.36a1.907 1.907 0 0 0-1.359-.562c-.514 0-.996.2-1.36.563a1.925 1.925 0 0 0 .001 2.717ZM17 32.406c1.06 0 1.922-.862 1.922-1.922s-.863-1.922-1.922-1.922a1.923 1.923 0 0 0 0 3.844Zm10.895-4.513a1.925 1.925 0 0 0 0-2.717 1.91 1.91 0 0 0-1.36-.564c-.513 0-.995.2-1.358.563a1.909 1.909 0 0 0-.564 1.36c0 .513.2.995.564 1.359.724.724 1.99.725 2.718 0ZM28.563 17c0 1.06.862 1.922 1.922 1.922s1.921-.862 1.921-1.922a1.922 1.922 0 0 0-3.843 0Zm-12.976 3.109a.798.798 0 0 1 0-1.128c.754-.755 2.073-.755 2.828 0a.796.796 0 1 1-1.127 1.127.403.403 0 0 0-.574 0 .794.794 0 0 1-1.127 0ZM17 16.074c-1.002 0-1.944.39-2.653 1.1a.796.796 0 1 0 1.127 1.126c.408-.408.95-.632 1.526-.632a2.15 2.15 0 0 1 1.527.632.794.794 0 0 0 1.127 0 .796.796 0 0 0 0-1.127A3.733 3.733 0 0 0 17 16.075Zm0-.825c-1.13 0-2.192.44-2.99 1.24a.797.797 0 0 1-1.126-1.128A5.784 5.784 0 0 1 17 13.656a5.79 5.79 0 0 1 4.118 1.705.796.796 0 1 1-1.128 1.127A4.202 4.202 0 0 0 17 15.249Z" fill="#000"/></svg>