<?xml version="1.0" encoding="utf-8"?>
<!-- Generator: Adobe Illustrator 23.0.3, SVG Export Plug-In . SVG Version: 6.00 Build 0)  -->
<svg version="1.1" id="Layer_1" xmlns="http://www.w3.org/2000/svg" xmlns:xlink="http://www.w3.org/1999/xlink" x="0px" y="0px"
	 viewBox="0 0 512 512" style="enable-background:new 0 0 512 512;" xml:space="preserve">
<g>
	<rect x="136.9" y="193.2" width="239.8" height="137" fill="#034ea2"/>
	<path d="M445.2,380.8V144.4c0-10.3-8.5-18.8-18.9-18.8h-49.6c0-0.4,0-0.7,0-1.1V90.6c0-9.7-7.7-17.3-17.1-17.3
		c-9.5,0-17.1,7.7-17.1,17.3v33.9c0,0.4,0,0.7,0,1.1h-68.6c0-0.4,0-0.7,0-1.1V90.6c0-9.7-7.7-17.3-17.1-17.3
		c-9.5,0-17.1,7.7-17.1,17.3v33.9c0,0.4,0,0.7,0,1.1h-68.6c0-0.4,0-0.7,0-1.1V90.6c0-9.7-7.7-17.3-17.1-17.3
		c-9.5,0-17.1,7.7-17.1,17.3v33.9c0,0.4,0,0.7,0,1.1H87.3c-10.4,0-18.9,8.4-18.9,18.8v236.4c0,10.3,8.5,18.8,18.9,18.8h49.6v29.6
		c0,9.7,7.7,17.3,17.1,17.3c9.5,0,17.1-7.7,17.1-17.3v-29.6h68.5v29.6c0,9.7,7.7,17.3,17.1,17.3c9.5,0,17.1-7.7,17.1-17.3v-29.6
		h68.5v33.2c0,9.7,7.7,17.3,17.1,17.3c9.5,0,17.1-7.7,17.1-17.3v-33.2h49.6C436.6,399.6,445.2,391.2,445.2,380.8L445.2,380.8z
		 M410.9,364.5H102.6V159h308.3V364.5z" fill="#034ea2" />
</g>
</svg>
