<svg id="Group_3485" data-name="Group 3485" xmlns="http://www.w3.org/2000/svg" viewBox="0 0 16.152 25.352">
  <path id="Path_1441" data-name="Path 1441" class="cls-1" d="M22.289,65.58a1.139,1.139,0,1,0,1.139,1.139,1.139,1.139,0,0,0-1.139-1.139Z" transform="translate(-14.451 -46.556)"/>
  <g id="Group_3384" data-name="Group 3384" transform="translate(0 0)">
    <path id="Path_1451" data-name="Path 1451" class="cls-1" d="M13.907,25.352H2.248A2.25,2.25,0,0,1,0,23.1V5.188A2.25,2.25,0,0,1,2.248,2.94H4.029V1.832A1.833,1.833,0,0,1,5.861,0h4.43a1.833,1.833,0,0,1,1.832,1.832V2.94H13.9a2.25,2.25,0,0,1,2.248,2.248V23.1A2.25,2.25,0,0,1,13.907,25.352ZM2.248,4.753a.438.438,0,0,0-.438.438V23.106a.437.437,0,0,0,.438.435H13.907a.438.438,0,0,0,.438-.438V5.188a.438.438,0,0,0-.438-.438H11.221a.9.9,0,0,1-.905-.905V1.832a.026.026,0,0,0-.024-.021H5.861a.021.021,0,0,0-.021.021V3.845a.9.9,0,0,1-.905.905H2.248Z"/>
    <path id="Path_1452" data-name="Path 1452" class="cls-1" d="M20.353,61H13.785a.9.9,0,0,1-.905-.905V57.155a.9.9,0,0,1,.905-.905h6.567a.9.9,0,0,1,.905.905V60.1A.9.9,0,0,1,20.353,61Z" transform="translate(-8.993 -39.273)"/>
  </g>
</svg>
