<svg xmlns="http://www.w3.org/2000/svg" viewBox="0 0 19.018 12.117">
  <g id="Group_3486" data-name="Group 3486" transform="translate(19.018) rotate(90)">
    <path id="Path_1455" data-name="Path 1455" d="M10.432,19.017H1.687A1.688,1.688,0,0,1,0,17.331V3.892A1.688,1.688,0,0,1,1.687,2.205H3.022V1.374A1.375,1.375,0,0,1,4.4,0H7.72A1.375,1.375,0,0,1,9.094,1.374v.831H10.43a1.688,1.688,0,0,1,1.687,1.687V17.331A1.687,1.687,0,0,1,10.432,19.017ZM1.687,3.566a.329.329,0,0,0-.328.328V17.333a.328.328,0,0,0,.328.326h8.746a.329.329,0,0,0,.328-.328V3.892a.329.329,0,0,0-.328-.328H8.417a.678.678,0,0,1-.679-.679V1.374a.019.019,0,0,0-.018-.016H4.4a.015.015,0,0,0-.016.016v1.51a.678.678,0,0,1-.679.679H1.687Z"/>
    <path id="Path_1456" data-name="Path 1456" d="M18.163,33.4H12.969a.678.678,0,0,1-.679-.679V22.929a.678.678,0,0,1,.679-.679h5.194a.678.678,0,0,1,.679.679v9.792A.678.678,0,0,1,18.163,33.4Z" transform="translate(-9.508 -17.213)"/>
  </g>
</svg>
