<svg xmlns="http://www.w3.org/2000/svg" width="32" height="32" viewBox="0 0 32 32">
  <defs>
    <style>
      .menu-alerts-none {
        fill: none;
      }

      .menu-alerts-file1 {
        fill: #000000;
      }
    </style>
  </defs>
  <g transform="translate(-760 -12943)">
    <rect class="menu-alerts-none" width="31.982" height="31.996" transform="translate(760 12943)" />
    <rect class="menu-alerts-none" width="31.982" height="31.996" transform="translate(760.018 12943.004)" />
    <rect class="menu-alerts-none" width="31.982" height="31.996" transform="translate(760.018 12943.004)" />
    <g transform="translate(763.459 12944.996)">
      <path class="menu-alerts-file1"
        d="M798.238,13022.387c-.5,0-.886.2-.756.761a3.581,3.581,0,0,0,6.974,0c.131-.561-.258-.761-.755-.761Z"
        transform="translate(-788.419 -12997.903)" />
      <path class="menu-alerts-file1"
        d="M804.69,12953.078a1.66,1.66,0,0,1-1.66-1.661v-.751a1.66,1.66,0,1,1,3.321,0v.751A1.66,1.66,0,0,1,804.69,12953.078Z"
        transform="translate(-792.14 -12949.004)" />
      <path class="menu-alerts-file1" d="M794.509,13012.754h-23.1a1,1,0,1,1,0-1.994h23.1a1,1,0,1,1,0,1.994Z"
        transform="translate(-770.409 -12990.159)" />
      <path class="menu-alerts-file1"
        d="M796.635,12975.9a1,1,0,0,1-1-1v-8.941a8.441,8.441,0,0,0-16.882,0v8.941a1,1,0,0,1-2,0v-8.941a10.444,10.444,0,0,1,20.886-.1h0v9.04A1,1,0,0,1,796.635,12975.9Z"
        transform="translate(-774.642 -12953.382)" />
    </g>
  </g>
</svg>
