<svg id="svg" version="1.1" xmlns="http://www.w3.org/2000/svg" xmlns:xlink="http://www.w3.org/1999/xlink" width="400" height="400" viewBox="0, 0, 400,400"><g id="svgg"><path id="path0" d="M193.721 146.441 C 189.747 147.969,186.564 151.724,185.618 156.000 C 185.043 158.598,185.063 223.300,185.640 226.080 C 187.009 232.681,191.537 236.109,199.189 236.337 C 207.478 236.583,212.530 233.396,214.282 226.812 C 214.934 224.364,215.013 157.586,214.366 155.560 C 211.721 147.269,202.343 143.126,193.721 146.441 M195.000 259.337 C 194.340 259.586,193.710 259.882,193.600 259.995 C 193.490 260.109,192.876 260.471,192.235 260.801 C 184.451 264.804,183.095 276.853,189.672 283.563 C 200.306 294.413,218.699 283.210,213.959 268.770 C 211.429 261.064,202.373 256.559,195.000 259.337 " stroke="none" fill="#fcf3eb" fill-rule="evenodd"></path><path id="path1" d="M197.800 70.400 C 197.664 70.620,196.483 70.800,195.176 70.800 C 193.859 70.800,192.800 70.978,192.800 71.200 C 192.800 71.420,192.361 71.600,191.824 71.600 C 191.287 71.600,190.736 71.780,190.600 72.000 C 190.464 72.220,190.003 72.400,189.576 72.400 C 189.149 72.400,188.800 72.580,188.800 72.800 C 188.800 73.020,188.480 73.200,188.088 73.200 C 187.697 73.200,187.117 73.560,186.800 74.000 C 186.483 74.440,185.986 74.800,185.695 74.800 C 185.091 74.800,184.694 75.108,182.085 77.600 C 181.048 78.590,179.945 79.895,179.632 80.500 C 179.320 81.105,178.915 81.600,178.732 81.600 C 178.550 81.600,178.400 81.945,178.400 82.367 C 178.400 82.788,178.248 83.193,178.062 83.267 C 177.698 83.410,176.969 84.695,175.549 87.700 C 175.054 88.745,174.504 89.600,174.325 89.600 C 174.146 89.600,174.000 89.960,174.000 90.400 C 174.000 90.840,173.820 91.200,173.600 91.200 C 173.380 91.200,173.200 91.470,173.200 91.800 C 173.200 92.130,173.020 92.400,172.800 92.400 C 172.580 92.400,172.400 92.670,172.400 93.000 C 172.400 93.330,172.220 93.600,172.000 93.600 C 171.780 93.600,171.600 93.870,171.600 94.200 C 171.600 94.530,171.420 94.800,171.200 94.800 C 170.980 94.800,170.800 95.160,170.800 95.600 C 170.800 96.040,170.620 96.400,170.400 96.400 C 170.180 96.400,170.000 96.678,170.000 97.017 C 170.000 97.356,169.640 98.020,169.200 98.492 C 168.760 98.964,168.400 99.587,168.400 99.875 C 168.400 100.164,168.220 100.400,168.000 100.400 C 167.780 100.400,167.600 100.760,167.600 101.200 C 167.600 101.640,167.420 102.000,167.200 102.000 C 166.980 102.000,166.800 102.320,166.800 102.712 C 166.800 103.103,166.440 103.683,166.000 104.000 C 165.560 104.317,165.200 104.897,165.200 105.288 C 165.200 105.680,165.020 106.000,164.800 106.000 C 164.580 106.000,164.400 106.278,164.400 106.617 C 164.400 106.956,164.040 107.620,163.600 108.092 C 163.160 108.564,162.800 109.187,162.800 109.475 C 162.800 109.764,162.664 110.000,162.498 110.000 C 162.331 110.000,161.941 110.585,161.630 111.300 C 161.319 112.015,160.960 112.690,160.832 112.800 C 160.258 113.295,158.842 116.308,159.074 116.541 C 159.217 116.683,159.123 116.800,158.867 116.800 C 158.610 116.800,158.400 117.120,158.400 117.512 C 158.400 117.903,158.040 118.483,157.600 118.800 C 157.160 119.117,156.800 119.697,156.800 120.088 C 156.800 120.480,156.620 120.800,156.400 120.800 C 156.180 120.800,156.000 121.160,156.000 121.600 C 156.000 122.040,155.820 122.400,155.600 122.400 C 155.380 122.400,155.200 122.636,155.200 122.925 C 155.200 123.213,154.875 123.798,154.478 124.225 C 154.080 124.651,153.497 125.585,153.180 126.300 C 152.864 127.015,152.469 127.600,152.302 127.600 C 152.136 127.600,152.000 127.836,152.000 128.125 C 152.000 128.413,151.640 129.036,151.200 129.508 C 150.760 129.980,150.400 130.644,150.400 130.983 C 150.400 131.322,150.220 131.600,150.000 131.600 C 149.780 131.600,149.600 131.878,149.600 132.217 C 149.600 132.556,149.240 133.220,148.800 133.692 C 148.360 134.164,148.000 134.787,148.000 135.075 C 148.000 135.364,147.820 135.600,147.600 135.600 C 147.380 135.600,147.200 135.960,147.200 136.400 C 147.200 136.840,147.020 137.200,146.800 137.200 C 146.580 137.200,146.400 137.478,146.400 137.817 C 146.400 138.156,146.040 138.820,145.600 139.292 C 145.160 139.764,144.800 140.387,144.800 140.675 C 144.800 140.964,144.654 141.200,144.475 141.200 C 144.296 141.200,143.899 141.839,143.592 142.619 C 143.286 143.400,142.803 144.232,142.518 144.468 C 142.233 144.705,142.000 145.236,142.000 145.649 C 142.000 146.062,141.820 146.400,141.600 146.400 C 141.380 146.400,141.200 146.678,141.200 147.017 C 141.200 147.356,140.840 148.020,140.400 148.492 C 139.960 148.964,139.600 149.587,139.600 149.875 C 139.600 150.164,139.420 150.400,139.200 150.400 C 138.980 150.400,138.800 150.760,138.800 151.200 C 138.800 151.640,138.620 152.000,138.400 152.000 C 138.180 152.000,138.000 152.320,138.000 152.712 C 138.000 153.103,137.640 153.683,137.200 154.000 C 136.760 154.317,136.400 154.897,136.400 155.288 C 136.400 155.680,136.220 156.000,136.000 156.000 C 135.780 156.000,135.600 156.360,135.600 156.800 C 135.600 157.240,135.420 157.600,135.200 157.600 C 134.980 157.600,134.800 157.836,134.800 158.125 C 134.800 158.413,134.440 159.036,134.000 159.508 C 133.560 159.980,133.200 160.554,133.200 160.783 C 133.200 161.012,133.020 161.200,132.800 161.200 C 132.580 161.200,132.400 161.545,132.400 161.967 C 132.400 162.388,132.265 162.793,132.100 162.867 C 131.724 163.034,130.425 165.164,130.129 166.100 C 130.007 166.485,129.748 166.800,129.553 166.800 C 129.359 166.800,129.200 167.160,129.200 167.600 C 129.200 168.040,129.055 168.400,128.879 168.400 C 128.702 168.400,128.117 169.297,127.579 170.394 C 127.040 171.490,126.465 172.390,126.300 172.394 C 126.135 172.397,126.000 172.738,126.000 173.151 C 126.000 173.564,125.767 174.095,125.482 174.332 C 125.197 174.568,124.714 175.400,124.408 176.181 C 124.101 176.961,123.704 177.600,123.525 177.600 C 123.346 177.600,123.200 177.920,123.200 178.312 C 123.200 178.703,122.840 179.283,122.400 179.600 C 121.960 179.917,121.600 180.497,121.600 180.888 C 121.600 181.280,121.420 181.600,121.200 181.600 C 120.980 181.600,120.800 181.960,120.800 182.400 C 120.800 182.840,120.620 183.200,120.400 183.200 C 120.180 183.200,120.000 183.470,120.000 183.800 C 120.000 184.130,119.820 184.400,119.600 184.400 C 119.380 184.400,119.200 184.670,119.200 185.000 C 119.200 185.330,119.020 185.600,118.800 185.600 C 118.580 185.600,118.400 185.960,118.400 186.400 C 118.400 186.840,118.220 187.200,118.000 187.200 C 117.780 187.200,117.600 187.478,117.600 187.817 C 117.600 188.156,117.240 188.820,116.800 189.292 C 116.360 189.764,116.000 190.387,116.000 190.675 C 116.000 190.964,115.854 191.200,115.675 191.200 C 115.496 191.200,115.102 191.830,114.800 192.600 C 114.498 193.370,114.104 194.000,113.925 194.000 C 113.746 194.000,113.600 194.270,113.600 194.600 C 113.600 194.930,113.454 195.200,113.275 195.200 C 113.096 195.200,112.702 195.830,112.400 196.600 C 112.098 197.370,111.704 198.000,111.525 198.000 C 111.346 198.000,111.200 198.345,111.200 198.767 C 111.200 199.188,111.058 199.593,110.884 199.667 C 110.604 199.785,109.047 202.553,107.829 205.097 C 107.593 205.590,107.265 205.995,107.100 205.997 C 106.935 205.999,106.800 206.360,106.800 206.800 C 106.800 207.240,106.620 207.600,106.400 207.600 C 106.180 207.600,106.000 207.870,106.000 208.200 C 106.000 208.530,105.820 208.800,105.600 208.800 C 105.380 208.800,105.200 209.070,105.200 209.400 C 105.200 209.730,105.020 210.000,104.800 210.000 C 104.580 210.000,104.400 210.270,104.400 210.600 C 104.400 210.930,104.220 211.200,104.000 211.200 C 103.780 211.200,103.600 211.560,103.600 212.000 C 103.600 212.440,103.420 212.800,103.200 212.800 C 102.980 212.800,102.800 213.078,102.800 213.417 C 102.800 213.756,102.440 214.420,102.000 214.892 C 101.560 215.364,101.200 215.987,101.200 216.275 C 101.200 216.564,101.020 216.800,100.800 216.800 C 100.580 216.800,100.400 217.160,100.400 217.600 C 100.400 218.040,100.220 218.400,100.000 218.400 C 99.780 218.400,99.600 218.636,99.600 218.925 C 99.600 219.213,99.240 219.836,98.800 220.308 C 98.360 220.780,98.000 221.444,98.000 221.783 C 98.000 222.122,97.820 222.400,97.600 222.400 C 97.380 222.400,97.200 222.678,97.200 223.017 C 97.200 223.356,96.840 224.020,96.400 224.492 C 95.960 224.964,95.600 225.587,95.600 225.875 C 95.600 226.164,95.454 226.400,95.275 226.400 C 95.096 226.400,94.702 227.030,94.400 227.800 C 94.098 228.570,93.716 229.200,93.552 229.200 C 93.229 229.200,92.591 230.810,92.721 231.300 C 92.764 231.465,92.620 231.600,92.400 231.600 C 92.180 231.600,92.000 231.960,92.000 232.400 C 92.000 232.840,91.820 233.200,91.600 233.200 C 91.380 233.200,91.200 233.520,91.200 233.912 C 91.200 234.303,90.840 234.883,90.400 235.200 C 89.960 235.517,89.600 236.097,89.600 236.488 C 89.600 236.880,89.420 237.200,89.200 237.200 C 88.980 237.200,88.800 237.478,88.800 237.817 C 88.800 238.156,88.440 238.820,88.000 239.292 C 87.560 239.764,87.200 240.387,87.200 240.675 C 87.200 240.964,87.054 241.200,86.875 241.200 C 86.696 241.200,86.302 241.830,86.000 242.600 C 85.698 243.370,85.304 244.000,85.125 244.000 C 84.946 244.000,84.800 244.270,84.800 244.600 C 84.800 244.930,84.620 245.200,84.400 245.200 C 84.180 245.200,84.000 245.470,84.000 245.800 C 84.000 246.130,83.820 246.400,83.600 246.400 C 83.380 246.400,83.200 246.760,83.200 247.200 C 83.200 247.640,83.020 248.000,82.800 248.000 C 82.580 248.000,82.400 248.278,82.400 248.617 C 82.400 248.956,82.040 249.620,81.600 250.092 C 81.160 250.564,80.800 251.187,80.800 251.475 C 80.800 251.764,80.620 252.000,80.400 252.000 C 80.180 252.000,80.000 252.360,80.000 252.800 C 80.000 253.240,79.841 253.600,79.647 253.600 C 79.452 253.600,79.193 253.915,79.071 254.300 C 78.836 255.042,77.557 257.263,77.171 257.600 C 76.895 257.841,76.296 259.396,76.474 259.409 C 76.543 259.415,76.195 259.853,75.700 260.385 C 75.205 260.916,74.800 261.677,74.800 262.075 C 74.800 262.474,74.620 262.800,74.400 262.800 C 74.180 262.800,74.000 263.078,74.000 263.417 C 74.000 263.756,73.640 264.420,73.200 264.892 C 72.760 265.364,72.400 265.987,72.400 266.275 C 72.400 266.564,72.220 266.800,72.000 266.800 C 71.780 266.800,71.600 267.160,71.600 267.600 C 71.600 268.040,71.420 268.400,71.200 268.400 C 70.980 268.400,70.800 268.720,70.800 269.112 C 70.800 269.503,70.440 270.083,70.000 270.400 C 69.560 270.717,69.200 271.297,69.200 271.688 C 69.200 272.080,69.020 272.400,68.800 272.400 C 68.580 272.400,68.400 272.760,68.400 273.200 C 68.400 273.640,68.220 274.000,68.000 274.000 C 67.780 274.000,67.600 274.270,67.600 274.600 C 67.600 274.930,67.420 275.200,67.200 275.200 C 66.980 275.200,66.800 275.470,66.800 275.800 C 66.800 276.130,66.620 276.400,66.400 276.400 C 66.180 276.400,66.000 276.670,66.000 277.000 C 66.000 277.330,65.820 277.600,65.600 277.600 C 65.380 277.600,65.200 277.945,65.200 278.367 C 65.200 278.788,65.065 279.193,64.900 279.267 C 64.524 279.434,63.225 281.564,62.929 282.500 C 62.807 282.885,62.548 283.200,62.353 283.200 C 62.159 283.200,62.000 283.560,62.000 284.000 C 62.000 284.440,61.820 284.800,61.600 284.800 C 61.380 284.800,61.200 285.160,61.200 285.600 C 61.200 286.040,61.059 286.400,60.887 286.400 C 60.715 286.400,60.348 287.255,60.071 288.300 C 59.795 289.345,59.407 290.740,59.209 291.400 C 57.910 295.743,60.229 308.577,62.485 309.533 C 62.658 309.607,62.800 309.925,62.800 310.240 C 62.800 310.955,68.228 316.399,69.708 317.168 C 70.308 317.480,70.800 317.885,70.800 318.068 C 70.800 318.250,71.160 318.400,71.600 318.400 C 72.040 318.400,72.400 318.580,72.400 318.800 C 72.400 319.020,72.760 319.200,73.200 319.200 C 73.640 319.200,74.000 319.380,74.000 319.600 C 74.000 319.820,74.439 320.000,74.976 320.000 C 75.513 320.000,76.064 320.180,76.200 320.400 C 76.336 320.620,77.236 320.800,78.200 320.800 C 79.164 320.800,80.064 320.980,80.200 321.200 C 80.543 321.755,319.457 321.755,319.800 321.200 C 319.936 320.980,320.847 320.800,321.824 320.800 C 322.801 320.800,323.600 320.620,323.600 320.400 C 323.600 320.180,324.140 320.000,324.800 320.000 C 325.460 320.000,326.000 319.820,326.000 319.600 C 326.000 319.380,326.360 319.200,326.800 319.200 C 327.240 319.200,327.600 319.020,327.600 318.800 C 327.600 318.580,327.960 318.400,328.400 318.400 C 328.840 318.400,329.200 318.250,329.200 318.068 C 329.200 317.885,329.692 317.480,330.292 317.168 C 331.772 316.399,337.200 310.955,337.200 310.240 C 337.200 309.925,337.342 309.607,337.515 309.533 C 338.002 309.327,340.090 304.831,340.538 303.021 C 341.340 299.782,340.891 288.800,339.956 288.800 C 339.760 288.800,339.600 288.260,339.600 287.600 C 339.600 286.940,339.420 286.400,339.200 286.400 C 338.980 286.400,338.800 286.040,338.800 285.600 C 338.800 285.160,338.620 284.800,338.400 284.800 C 338.180 284.800,338.000 284.455,338.000 284.033 C 338.000 283.612,337.865 283.207,337.700 283.133 C 337.324 282.966,336.025 280.836,335.729 279.900 C 335.607 279.515,335.348 279.200,335.153 279.200 C 334.959 279.200,334.800 278.840,334.800 278.400 C 334.800 277.960,334.620 277.600,334.400 277.600 C 334.180 277.600,334.000 277.330,334.000 277.000 C 334.000 276.670,333.820 276.400,333.600 276.400 C 333.380 276.400,333.200 276.130,333.200 275.800 C 333.200 275.470,333.020 275.200,332.800 275.200 C 332.580 275.200,332.400 274.930,332.400 274.600 C 332.400 274.270,332.220 274.000,332.000 274.000 C 331.780 274.000,331.600 273.640,331.600 273.200 C 331.600 272.760,331.420 272.400,331.200 272.400 C 330.980 272.400,330.800 272.080,330.800 271.688 C 330.800 271.297,330.440 270.717,330.000 270.400 C 329.560 270.083,329.200 269.503,329.200 269.112 C 329.200 268.720,329.020 268.400,328.800 268.400 C 328.580 268.400,328.400 268.040,328.400 267.600 C 328.400 267.160,328.220 266.800,328.000 266.800 C 327.780 266.800,327.600 266.564,327.600 266.275 C 327.600 265.987,327.240 265.364,326.800 264.892 C 326.360 264.420,326.000 263.756,326.000 263.417 C 326.000 263.078,325.820 262.800,325.600 262.800 C 325.380 262.800,325.200 262.526,325.200 262.192 C 325.200 261.858,324.750 260.871,324.200 260.000 C 323.650 259.129,323.200 258.247,323.200 258.041 C 323.200 257.835,323.065 257.607,322.900 257.533 C 322.524 257.366,321.225 255.236,320.929 254.300 C 320.807 253.915,320.548 253.600,320.353 253.600 C 320.159 253.600,320.000 253.240,320.000 252.800 C 320.000 252.360,319.820 252.000,319.600 252.000 C 319.380 252.000,319.200 251.764,319.200 251.475 C 319.200 251.187,318.840 250.564,318.400 250.092 C 317.960 249.620,317.600 248.956,317.600 248.617 C 317.600 248.278,317.420 248.000,317.200 248.000 C 316.980 248.000,316.800 247.640,316.800 247.200 C 316.800 246.760,316.620 246.400,316.400 246.400 C 316.180 246.400,316.000 246.130,316.000 245.800 C 316.000 245.470,315.820 245.200,315.600 245.200 C 315.380 245.200,315.200 244.930,315.200 244.600 C 315.200 244.270,315.054 244.000,314.875 244.000 C 314.696 244.000,314.302 243.370,314.000 242.600 C 313.698 241.830,313.304 241.200,313.125 241.200 C 312.946 241.200,312.800 240.964,312.800 240.675 C 312.800 240.387,312.440 239.764,312.000 239.292 C 311.560 238.820,311.200 238.156,311.200 237.817 C 311.200 237.478,311.020 237.200,310.800 237.200 C 310.580 237.200,310.400 236.922,310.400 236.583 C 310.400 236.244,310.055 235.596,309.633 235.144 C 309.212 234.691,308.749 233.851,308.605 233.276 C 308.460 232.701,307.847 231.497,307.243 230.601 C 306.638 229.705,305.887 228.393,305.574 227.686 C 305.261 226.979,304.869 226.400,304.702 226.400 C 304.536 226.400,304.400 226.164,304.400 225.875 C 304.400 225.587,304.040 224.964,303.600 224.492 C 303.160 224.020,302.800 223.356,302.800 223.017 C 302.800 222.678,302.620 222.400,302.400 222.400 C 302.180 222.400,302.000 222.122,302.000 221.783 C 302.000 221.444,301.640 220.780,301.200 220.308 C 300.760 219.836,300.400 219.213,300.400 218.925 C 300.400 218.636,300.220 218.400,300.000 218.400 C 299.780 218.400,299.600 218.040,299.600 217.600 C 299.600 217.160,299.420 216.800,299.200 216.800 C 298.980 216.800,298.800 216.564,298.800 216.275 C 298.800 215.987,298.440 215.364,298.000 214.892 C 297.560 214.420,297.200 213.756,297.200 213.417 C 297.200 213.078,297.020 212.800,296.800 212.800 C 296.580 212.800,296.400 212.440,296.400 212.000 C 296.400 211.560,296.220 211.200,296.000 211.200 C 295.780 211.200,295.600 210.930,295.600 210.600 C 295.600 210.270,295.420 210.000,295.200 210.000 C 294.980 210.000,294.800 209.730,294.800 209.400 C 294.800 209.070,294.620 208.800,294.400 208.800 C 294.180 208.800,294.000 208.530,294.000 208.200 C 294.000 207.870,293.820 207.600,293.600 207.600 C 293.380 207.600,293.200 207.240,293.200 206.800 C 293.200 206.360,293.020 206.000,292.800 206.000 C 292.580 206.000,292.400 205.640,292.400 205.200 C 292.400 204.760,292.265 204.400,292.100 204.399 C 291.935 204.399,291.274 203.319,290.630 201.999 C 289.987 200.680,289.312 199.600,289.130 199.600 C 288.949 199.600,288.800 199.240,288.800 198.800 C 288.800 198.360,288.654 198.000,288.475 198.000 C 288.296 198.000,287.902 197.370,287.600 196.600 C 287.298 195.830,286.904 195.200,286.725 195.200 C 286.546 195.200,286.400 194.930,286.400 194.600 C 286.400 194.270,286.254 194.000,286.075 194.000 C 285.896 194.000,285.502 193.370,285.200 192.600 C 284.898 191.830,284.504 191.200,284.325 191.200 C 284.146 191.200,284.000 190.880,284.000 190.488 C 284.000 190.097,283.640 189.517,283.200 189.200 C 282.760 188.883,282.400 188.303,282.400 187.912 C 282.400 187.520,282.220 187.200,282.000 187.200 C 281.780 187.200,281.600 186.840,281.600 186.400 C 281.600 185.960,281.420 185.600,281.200 185.600 C 280.980 185.600,280.800 185.330,280.800 185.000 C 280.800 184.670,280.620 184.400,280.400 184.400 C 280.180 184.400,280.000 184.130,280.000 183.800 C 280.000 183.470,279.820 183.200,279.600 183.200 C 279.380 183.200,279.200 182.840,279.200 182.400 C 279.200 181.960,279.020 181.600,278.800 181.600 C 278.580 181.600,278.400 181.322,278.400 180.983 C 278.400 180.644,278.040 179.980,277.600 179.508 C 277.160 179.036,276.800 178.413,276.800 178.125 C 276.800 177.836,276.657 177.600,276.482 177.600 C 276.307 177.600,275.830 176.790,275.422 175.800 C 275.013 174.810,274.527 174.000,274.340 174.000 C 274.153 174.000,274.000 173.640,274.000 173.200 C 274.000 172.760,273.865 172.397,273.700 172.394 C 273.535 172.390,272.960 171.490,272.421 170.394 C 271.883 169.297,271.298 168.400,271.121 168.400 C 270.945 168.400,270.800 168.055,270.800 167.633 C 270.800 167.212,270.665 166.807,270.500 166.733 C 270.124 166.566,268.825 164.436,268.529 163.500 C 268.407 163.115,268.148 162.800,267.953 162.800 C 267.759 162.800,267.600 162.440,267.600 162.000 C 267.600 161.560,267.420 161.200,267.200 161.200 C 266.980 161.200,266.800 160.930,266.800 160.600 C 266.800 160.270,266.620 160.000,266.400 160.000 C 266.180 160.000,266.000 159.730,266.000 159.400 C 266.000 159.070,265.820 158.800,265.600 158.800 C 265.380 158.800,265.200 158.530,265.200 158.200 C 265.200 157.870,265.020 157.600,264.800 157.600 C 264.580 157.600,264.400 157.240,264.400 156.800 C 264.400 156.360,264.220 156.000,264.000 156.000 C 263.780 156.000,263.600 155.680,263.600 155.288 C 263.600 154.897,263.240 154.317,262.800 154.000 C 262.360 153.683,262.000 153.103,262.000 152.712 C 262.000 152.320,261.820 152.000,261.600 152.000 C 261.380 152.000,261.200 151.640,261.200 151.200 C 261.200 150.760,261.020 150.400,260.800 150.400 C 260.580 150.400,260.400 150.164,260.400 149.875 C 260.400 149.587,260.040 148.964,259.600 148.492 C 259.160 148.020,258.800 147.381,258.800 147.073 C 258.800 146.764,258.383 145.897,257.874 145.147 C 257.364 144.396,256.690 143.201,256.376 142.491 C 256.062 141.781,255.669 141.200,255.502 141.200 C 255.336 141.200,255.200 140.964,255.200 140.675 C 255.200 140.387,254.840 139.764,254.400 139.292 C 253.960 138.820,253.600 138.156,253.600 137.817 C 253.600 137.478,253.420 137.200,253.200 137.200 C 252.980 137.200,252.800 136.840,252.800 136.400 C 252.800 135.960,252.620 135.600,252.400 135.600 C 252.180 135.600,252.000 135.364,252.000 135.075 C 252.000 134.787,251.640 134.164,251.200 133.692 C 250.760 133.220,250.400 132.556,250.400 132.217 C 250.400 131.878,250.220 131.600,250.000 131.600 C 249.780 131.600,249.600 131.322,249.600 130.983 C 249.600 130.644,249.240 129.980,248.800 129.508 C 248.360 129.036,248.000 128.413,248.000 128.125 C 248.000 127.836,247.864 127.600,247.698 127.600 C 247.531 127.600,247.136 127.015,246.820 126.300 C 246.503 125.585,245.920 124.651,245.522 124.225 C 245.125 123.798,244.800 123.213,244.800 122.925 C 244.800 122.636,244.620 122.400,244.400 122.400 C 244.180 122.400,244.000 122.040,244.000 121.600 C 244.000 121.160,243.820 120.800,243.600 120.800 C 243.380 120.800,243.200 120.480,243.200 120.088 C 243.200 119.697,242.840 119.117,242.400 118.800 C 241.960 118.483,241.600 117.972,241.600 117.666 C 241.600 117.123,239.642 113.200,239.171 112.800 C 239.042 112.690,238.681 112.015,238.370 111.300 C 238.059 110.585,237.669 110.000,237.502 110.000 C 237.336 110.000,237.200 109.764,237.200 109.475 C 237.200 109.187,236.840 108.564,236.400 108.092 C 235.960 107.620,235.600 106.956,235.600 106.617 C 235.600 106.278,235.420 106.000,235.200 106.000 C 234.980 106.000,234.800 105.722,234.800 105.383 C 234.800 105.044,234.440 104.380,234.000 103.908 C 233.560 103.436,233.200 102.813,233.200 102.525 C 233.200 102.236,233.020 102.000,232.800 102.000 C 232.580 102.000,232.400 101.640,232.400 101.200 C 232.400 100.760,232.220 100.400,232.000 100.400 C 231.780 100.400,231.600 100.164,231.600 99.875 C 231.600 99.587,231.240 98.964,230.800 98.492 C 230.360 98.020,230.000 97.356,230.000 97.017 C 230.000 96.678,229.820 96.400,229.600 96.400 C 229.380 96.400,229.200 96.040,229.200 95.600 C 229.200 95.160,229.020 94.800,228.800 94.800 C 228.580 94.800,228.400 94.530,228.400 94.200 C 228.400 93.870,228.220 93.600,228.000 93.600 C 227.780 93.600,227.600 93.330,227.600 93.000 C 227.600 92.670,227.420 92.400,227.200 92.400 C 226.980 92.400,226.800 92.130,226.800 91.800 C 226.800 91.470,226.620 91.200,226.400 91.200 C 226.180 91.200,226.000 90.840,226.000 90.400 C 226.000 89.960,225.834 89.600,225.632 89.600 C 225.429 89.600,225.145 89.060,225.000 88.400 C 224.855 87.740,224.616 87.197,224.468 87.194 C 224.321 87.190,223.760 86.290,223.221 85.194 C 222.683 84.097,222.098 83.200,221.921 83.200 C 221.745 83.200,221.600 82.840,221.600 82.400 C 221.600 81.960,221.450 81.600,221.268 81.600 C 221.085 81.600,220.680 81.105,220.368 80.500 C 220.055 79.895,218.952 78.590,217.915 77.600 C 215.306 75.108,214.909 74.800,214.305 74.800 C 214.014 74.800,213.517 74.440,213.200 74.000 C 212.883 73.560,212.303 73.200,211.912 73.200 C 211.520 73.200,211.200 73.020,211.200 72.800 C 211.200 72.580,210.840 72.400,210.400 72.400 C 209.960 72.400,209.600 72.220,209.600 72.000 C 209.600 71.780,209.060 71.600,208.400 71.600 C 207.740 71.600,207.200 71.420,207.200 71.200 C 207.200 70.978,206.141 70.800,204.824 70.800 C 203.517 70.800,202.336 70.620,202.200 70.400 C 202.064 70.180,201.074 70.000,200.000 70.000 C 198.926 70.000,197.936 70.180,197.800 70.400 M206.266 145.529 C 206.670 145.737,207.530 146.153,208.178 146.453 C 209.560 147.095,212.332 149.691,213.459 151.400 C 215.425 154.380,215.400 153.862,215.400 191.000 C 215.400 220.146,215.307 226.092,214.825 227.600 C 210.842 240.079,191.726 241.164,185.893 229.243 L 184.600 226.600 184.600 191.200 L 184.600 155.800 185.541 153.468 C 186.533 151.008,189.705 147.431,191.718 146.500 C 194.056 145.420,194.650 145.218,196.000 145.049 C 198.206 144.773,205.456 145.112,206.266 145.529 M203.281 258.132 C 204.315 258.405,205.290 258.757,205.447 258.914 C 205.605 259.071,206.063 259.200,206.467 259.200 C 206.870 259.200,207.200 259.380,207.200 259.600 C 207.200 259.820,207.465 260.000,207.790 260.000 C 208.114 260.000,209.436 261.035,210.726 262.300 C 218.810 270.224,216.012 283.794,205.504 287.635 C 203.101 288.513,197.157 288.693,195.319 287.944 C 192.216 286.678,191.486 286.237,189.504 284.425 C 184.206 279.584,183.027 271.489,186.733 265.400 C 187.906 263.474,191.445 260.000,192.234 260.000 C 192.545 260.000,192.800 259.820,192.800 259.600 C 192.800 259.380,193.149 259.200,193.576 259.200 C 194.003 259.200,194.464 259.020,194.600 258.800 C 194.736 258.580,195.332 258.397,195.924 258.394 C 196.516 258.391,197.270 258.213,197.600 258.000 C 198.418 257.472,201.007 257.532,203.281 258.132 " stroke="none" fill="#ec434c" fill-rule="evenodd"></path><path id="path2" d="M198.711 145.093 C 199.651 145.178,201.091 145.177,201.911 145.091 C 202.730 145.005,201.960 144.936,200.200 144.937 C 198.440 144.939,197.770 145.009,198.711 145.093 M190.811 147.020 C 190.047 147.559,189.542 148.000,189.688 148.000 C 190.039 148.000,192.800 146.368,192.800 146.160 C 192.800 145.800,192.125 146.092,190.811 147.020 M208.800 146.906 C 208.800 146.994,209.565 147.674,210.500 148.417 C 211.435 149.160,211.946 149.452,211.636 149.065 C 211.051 148.337,208.800 146.623,208.800 146.906 M186.517 151.504 C 186.063 152.327,185.571 153.450,185.424 154.000 C 185.277 154.550,185.696 153.924,186.354 152.609 C 187.688 149.946,187.801 149.178,186.517 151.504 M212.400 150.066 C 212.400 150.205,212.848 151.102,213.395 152.059 C 213.943 153.017,214.393 153.565,214.395 153.279 C 214.398 152.992,213.950 152.095,213.400 151.286 C 212.850 150.477,212.400 149.928,212.400 150.066 M214.668 155.400 C 214.971 157.377,215.202 157.714,215.194 156.167 C 215.191 155.525,215.016 154.730,214.805 154.400 C 214.545 153.991,214.501 154.310,214.668 155.400 M184.606 157.700 C 184.115 162.471,184.553 226.522,185.083 227.400 C 185.491 228.076,185.521 227.952,185.283 226.600 C 185.127 225.720,185.000 209.295,185.000 190.100 C 185.000 170.905,184.969 155.200,184.932 155.200 C 184.894 155.200,184.748 156.325,184.606 157.700 M215.391 191.200 C 215.391 209.790,215.440 217.395,215.500 208.100 C 215.560 198.805,215.560 183.595,215.500 174.300 C 215.440 165.005,215.391 172.610,215.391 191.200 M214.854 225.867 C 214.825 226.344,214.696 227.064,214.570 227.467 C 214.352 228.161,214.364 228.162,214.796 227.488 C 215.047 227.097,215.175 226.377,215.081 225.888 C 214.909 225.001,214.909 225.001,214.854 225.867 M185.604 228.622 C 185.584 230.812,190.790 235.731,194.000 236.556 C 194.550 236.697,194.091 236.386,192.980 235.864 C 190.281 234.597,188.186 232.696,186.773 230.231 C 186.132 229.114,185.606 228.390,185.604 228.622 M213.682 229.560 C 212.722 231.727,210.027 234.341,207.476 235.579 C 206.114 236.239,205.231 236.784,205.513 236.790 C 207.842 236.836,214.883 230.449,214.330 228.791 C 214.258 228.573,213.966 228.919,213.682 229.560 M196.600 237.228 C 197.260 237.381,198.790 237.505,200.000 237.505 C 201.210 237.505,202.740 237.381,203.400 237.228 C 204.076 237.072,202.593 236.951,200.000 236.951 C 197.407 236.951,195.924 237.072,196.600 237.228 M197.739 257.906 C 197.485 258.068,198.625 258.208,200.272 258.217 C 201.919 258.226,202.936 258.104,202.533 257.945 C 201.560 257.562,198.321 257.535,197.739 257.906 M191.029 260.609 C 190.605 260.929,190.335 261.268,190.429 261.361 C 190.523 261.455,191.025 261.187,191.544 260.766 C 192.638 259.879,192.179 259.739,191.029 260.609 M186.581 265.629 C 186.016 266.525,185.639 267.470,185.745 267.729 C 185.882 268.066,185.946 268.055,185.968 267.692 C 185.986 267.413,186.452 266.468,187.005 265.592 C 187.558 264.716,187.920 264.000,187.810 264.000 C 187.700 264.000,187.147 264.733,186.581 265.629 M212.400 264.247 C 212.400 264.467,212.664 264.996,212.987 265.424 C 213.310 265.851,213.575 266.020,213.575 265.800 C 213.575 265.580,213.310 265.051,212.987 264.624 C 212.664 264.196,212.400 264.027,212.400 264.247 M184.967 269.270 C 184.488 270.724,184.626 276.570,185.159 277.429 C 185.626 278.181,185.634 278.180,185.453 277.400 C 184.942 275.195,184.834 272.783,185.159 270.800 C 185.546 268.436,185.462 267.766,184.967 269.270 M214.668 269.800 C 214.971 271.777,215.202 272.114,215.194 270.567 C 215.191 269.925,215.016 269.130,214.805 268.800 C 214.545 268.391,214.501 268.710,214.668 269.800 M215.293 273.200 C 215.293 273.970,215.375 274.285,215.476 273.900 C 215.576 273.515,215.576 272.885,215.476 272.500 C 215.375 272.115,215.293 272.430,215.293 273.200 M214.846 275.650 C 214.821 276.227,214.535 277.449,214.212 278.366 C 213.889 279.282,213.774 279.940,213.957 279.826 C 214.466 279.512,215.302 276.193,215.085 275.348 C 214.946 274.807,214.880 274.890,214.846 275.650 M185.615 278.662 C 185.562 280.313,191.160 286.847,192.568 286.779 C 192.806 286.767,192.550 286.462,192.000 286.100 C 190.152 284.883,187.254 281.666,186.438 279.926 C 185.993 278.976,185.623 278.408,185.615 278.662 M213.200 280.728 C 213.200 281.498,210.043 284.648,207.852 286.065 C 206.545 286.909,205.653 287.600,205.869 287.600 C 206.086 287.600,207.100 287.045,208.124 286.368 C 210.727 284.643,214.479 280.400,213.400 280.400 C 213.290 280.400,213.200 280.548,213.200 280.728 " stroke="none" fill="#f4767d" fill-rule="evenodd"></path><path id="path3" d="M198.100 145.494 C 199.145 145.576,200.855 145.576,201.900 145.494 C 202.945 145.412,202.090 145.344,200.000 145.344 C 197.910 145.344,197.055 145.412,198.100 145.494 M191.578 147.146 C 190.600 147.777,189.260 148.896,188.600 149.634 C 187.678 150.666,187.845 150.579,189.324 149.258 C 190.382 148.313,192.002 147.197,192.924 146.779 C 193.846 146.360,194.320 146.014,193.978 146.009 C 193.636 146.004,192.556 146.516,191.578 147.146 M207.076 146.779 C 207.998 147.197,209.618 148.313,210.676 149.258 C 212.155 150.579,212.322 150.666,211.400 149.634 C 210.004 148.074,206.922 145.996,206.022 146.009 C 205.680 146.014,206.154 146.360,207.076 146.779 M214.056 154.400 C 214.056 154.730,214.211 155.360,214.400 155.800 C 214.617 156.304,214.744 156.378,214.744 156.000 C 214.744 155.670,214.589 155.040,214.400 154.600 C 214.183 154.096,214.056 154.022,214.056 154.400 M185.449 155.015 C 185.312 155.373,185.218 156.056,185.241 156.533 C 185.267 157.081,185.403 156.886,185.610 156.003 C 185.960 154.516,185.865 153.933,185.449 155.015 M185.206 225.633 C 185.209 226.165,185.389 226.870,185.606 227.200 C 185.882 227.622,185.923 227.385,185.742 226.400 C 185.425 224.675,185.198 224.349,185.206 225.633 M214.229 226.629 C 214.081 227.215,214.038 227.772,214.132 227.866 C 214.227 227.960,214.424 227.558,214.571 226.971 C 214.719 226.385,214.762 225.828,214.668 225.734 C 214.573 225.640,214.376 226.042,214.229 226.629 M209.847 233.598 C 207.945 235.037,207.544 235.447,208.600 234.874 C 209.517 234.376,211.901 232.430,211.600 232.426 C 211.490 232.424,210.701 232.951,209.847 233.598 M194.938 236.494 C 195.192 236.656,197.470 236.788,200.000 236.788 C 202.530 236.788,204.808 236.656,205.062 236.494 C 205.316 236.332,203.038 236.200,200.000 236.200 C 196.962 236.200,194.684 236.332,194.938 236.494 M198.300 258.693 C 199.235 258.777,200.765 258.777,201.700 258.693 C 202.635 258.609,201.870 258.540,200.000 258.540 C 198.130 258.540,197.365 258.609,198.300 258.693 M214.056 268.800 C 214.056 269.130,214.211 269.760,214.400 270.200 C 214.617 270.704,214.744 270.778,214.744 270.400 C 214.744 270.070,214.589 269.440,214.400 269.000 C 214.183 268.496,214.056 268.422,214.056 268.800 M185.449 269.415 C 185.312 269.773,185.218 270.456,185.241 270.933 C 185.267 271.481,185.403 271.286,185.610 270.403 C 185.960 268.916,185.865 268.333,185.449 269.415 M185.228 275.633 C 185.244 276.165,185.419 276.960,185.619 277.400 C 185.871 277.958,185.907 277.715,185.738 276.600 C 185.455 274.743,185.187 274.236,185.228 275.633 M214.229 276.629 C 214.081 277.215,214.038 277.772,214.132 277.866 C 214.227 277.960,214.424 277.558,214.571 276.971 C 214.719 276.385,214.762 275.828,214.668 275.734 C 214.573 275.640,214.376 276.042,214.229 276.629 M188.629 282.838 C 189.273 283.629,189.881 284.208,189.979 284.125 C 190.078 284.042,189.551 283.395,188.809 282.687 L 187.458 281.400 188.629 282.838 M190.782 284.931 C 191.398 285.725,194.854 287.602,195.687 287.596 C 195.969 287.594,195.211 287.132,194.001 286.569 C 192.792 286.006,191.445 285.243,191.008 284.873 C 190.253 284.233,190.242 284.236,190.782 284.931 M208.975 284.840 C 208.826 285.082,207.600 285.802,206.252 286.439 C 204.903 287.077,204.031 287.600,204.313 287.600 C 205.081 287.600,208.574 285.755,209.174 285.031 C 209.462 284.684,209.597 284.400,209.473 284.400 C 209.349 284.400,209.125 284.598,208.975 284.840 M199.505 288.283 C 200.002 288.379,200.722 288.375,201.105 288.275 C 201.487 288.175,201.080 288.096,200.200 288.101 C 199.320 288.105,199.007 288.187,199.505 288.283 " stroke="none" fill="#fcacac" fill-rule="evenodd"></path><path id="path4" d="M210.000 148.125 C 210.000 148.194,210.585 148.779,211.300 149.425 L 212.600 150.600 211.425 149.300 C 210.330 148.088,210.000 147.816,210.000 148.125 M214.991 191.200 C 214.991 210.010,215.040 217.705,215.100 208.300 C 215.160 198.895,215.160 183.505,215.100 174.100 C 215.040 164.695,214.991 172.390,214.991 191.200 M184.991 191.000 C 184.991 209.480,185.040 216.982,185.100 207.670 C 185.160 198.359,185.160 183.239,185.100 174.070 C 185.040 164.902,184.991 172.520,184.991 191.000 M199.300 237.076 C 199.685 237.176,200.315 237.176,200.700 237.076 C 201.085 236.975,200.770 236.893,200.000 236.893 C 199.230 236.893,198.915 236.975,199.300 237.076 M199.100 258.282 C 199.595 258.378,200.405 258.378,200.900 258.282 C 201.395 258.187,200.990 258.109,200.000 258.109 C 199.010 258.109,198.605 258.187,199.100 258.282 M188.975 262.900 L 187.800 264.200 189.100 263.025 C 190.312 261.930,190.584 261.600,190.275 261.600 C 190.206 261.600,189.621 262.185,188.975 262.900 M214.909 273.200 C 214.909 274.190,214.987 274.595,215.082 274.100 C 215.178 273.605,215.178 272.795,215.082 272.300 C 214.987 271.805,214.909 272.210,214.909 273.200 M184.893 273.200 C 184.893 273.970,184.975 274.285,185.076 273.900 C 185.176 273.515,185.176 272.885,185.076 272.500 C 184.975 272.115,184.893 272.430,184.893 273.200 " stroke="none" fill="#f49c9c" fill-rule="evenodd"></path></g></svg>