<svg id="svg" version="1.1" xmlns="http://www.w3.org/2000/svg" xmlns:xlink="http://www.w3.org/1999/xlink" width="400" height="400" viewBox="0, 0, 400,400"><g id="svgg"><path id="path0" d="M68.600 29.600 C 68.464 29.820,67.463 30.000,66.376 30.000 C 65.289 30.000,64.400 30.180,64.400 30.400 C 64.400 30.620,64.057 30.800,63.638 30.800 C 62.680 30.800,59.612 32.370,58.753 33.300 C 58.397 33.685,57.898 34.000,57.644 34.000 C 57.009 34.000,52.800 38.260,52.800 38.903 C 52.800 39.189,52.440 39.683,52.000 40.000 C 51.560 40.317,51.200 40.897,51.200 41.288 C 51.200 41.680,51.020 42.000,50.800 42.000 C 50.580 42.000,50.400 42.450,50.400 43.000 C 50.400 43.550,50.220 44.000,50.000 44.000 C 49.780 44.000,49.600 44.540,49.600 45.200 C 49.600 45.860,49.420 46.400,49.200 46.400 C 48.947 46.400,48.800 49.267,48.800 54.200 L 48.800 62.000 47.024 62.000 C 46.047 62.000,45.136 62.180,45.000 62.400 C 44.864 62.620,44.461 62.800,44.104 62.800 C 43.218 62.800,39.600 64.464,39.600 64.871 C 39.600 65.052,39.280 65.200,38.888 65.200 C 38.497 65.200,37.917 65.560,37.600 66.000 C 37.283 66.440,36.788 66.800,36.501 66.800 C 35.932 66.800,32.400 70.170,32.400 70.714 C 32.400 70.898,32.085 71.407,31.700 71.845 C 30.732 72.946,29.747 74.696,28.800 77.000 C 28.529 77.660,28.148 78.513,27.953 78.895 C 27.759 79.277,27.600 80.391,27.600 81.371 C 27.600 82.351,27.420 83.264,27.200 83.400 C 26.957 83.550,26.800 86.471,26.800 90.824 L 26.800 98.000 21.424 98.000 C 18.271 98.000,15.945 98.165,15.800 98.400 C 15.664 98.620,15.034 98.800,14.400 98.800 C 13.766 98.800,13.136 98.980,13.000 99.200 C 12.864 99.420,12.403 99.600,11.976 99.600 C 11.549 99.600,11.200 99.736,11.200 99.902 C 11.200 100.069,10.649 100.449,9.975 100.747 C 8.483 101.407,2.800 107.010,2.800 107.819 C 2.800 108.139,2.620 108.400,2.400 108.400 C 2.180 108.400,2.000 108.670,2.000 109.000 C 2.000 109.330,1.820 109.600,1.600 109.600 C 1.380 109.600,1.200 109.945,1.200 110.367 C 1.200 110.788,0.975 111.208,0.700 111.300 C 0.321 111.426,0.200 113.489,0.200 119.800 C 0.200 126.111,0.321 128.174,0.700 128.300 C 0.975 128.392,1.200 128.812,1.200 129.233 C 1.200 129.655,1.380 130.000,1.600 130.000 C 1.820 130.000,2.000 130.360,2.000 130.800 C 2.000 131.240,2.180 131.600,2.400 131.600 C 2.620 131.600,2.800 131.882,2.800 132.227 C 2.800 135.054,12.264 141.201,17.100 141.516 L 20.000 141.705 20.000 222.253 C 20.000 302.533,19.997 302.800,19.200 302.800 C 18.760 302.800,18.400 302.980,18.400 303.200 C 18.400 303.420,17.860 303.600,17.200 303.600 C 16.540 303.600,16.000 303.780,16.000 304.000 C 16.000 304.220,15.640 304.400,15.200 304.400 C 14.760 304.400,14.400 304.580,14.400 304.800 C 14.400 305.020,14.133 305.200,13.807 305.200 C 12.595 305.200,7.600 310.193,7.600 311.405 C 7.600 311.732,7.420 312.000,7.200 312.000 C 6.980 312.000,6.800 312.360,6.800 312.800 C 6.800 313.240,6.620 313.600,6.400 313.600 C 6.180 313.600,6.000 314.050,6.000 314.600 C 6.000 315.150,5.820 315.600,5.600 315.600 C 5.338 315.600,5.200 323.733,5.200 339.200 C 5.200 354.667,5.338 362.800,5.600 362.800 C 5.820 362.800,6.000 363.160,6.000 363.600 C 6.000 364.040,6.180 364.400,6.400 364.400 C 6.620 364.400,6.800 364.676,6.800 365.013 C 6.800 365.699,9.342 368.400,9.987 368.400 C 10.214 368.400,10.401 368.535,10.403 368.700 C 10.409 369.217,12.501 370.000,13.880 370.000 C 14.606 370.000,15.200 370.180,15.200 370.401 C 15.200 370.879,381.012 370.719,383.200 370.240 C 387.427 369.313,391.600 365.341,391.600 362.243 C 391.600 361.696,391.780 361.136,392.000 361.000 C 392.551 360.659,392.551 318.400,392.000 318.400 C 391.780 318.400,391.599 317.815,391.598 317.100 C 391.591 313.441,386.848 306.000,384.522 306.000 C 384.235 306.000,383.999 305.865,383.997 305.700 C 383.994 305.386,382.094 304.400,381.492 304.400 C 379.957 304.400,380.000 306.741,380.000 222.481 L 380.000 141.705 382.900 141.516 C 387.736 141.201,397.200 135.054,397.200 132.227 C 397.200 131.882,397.380 131.600,397.600 131.600 C 397.820 131.600,398.000 131.240,398.000 130.800 C 398.000 130.360,398.180 130.000,398.400 130.000 C 398.620 130.000,398.800 129.655,398.800 129.233 C 398.800 128.812,399.025 128.392,399.300 128.300 C 400.023 128.059,400.023 111.541,399.300 111.300 C 399.025 111.208,398.800 110.788,398.800 110.367 C 398.800 109.945,398.620 109.600,398.400 109.600 C 398.180 109.600,398.000 109.330,398.000 109.000 C 398.000 108.670,397.820 108.400,397.600 108.400 C 397.380 108.400,397.200 108.151,397.200 107.846 C 397.200 107.309,392.309 102.000,391.814 102.000 C 391.678 102.000,391.180 101.640,390.708 101.200 C 390.236 100.760,389.613 100.400,389.325 100.400 C 389.036 100.400,388.800 100.220,388.800 100.000 C 388.800 99.780,388.451 99.600,388.024 99.600 C 387.597 99.600,387.136 99.420,387.000 99.200 C 386.864 98.980,386.234 98.800,385.600 98.800 C 384.966 98.800,384.336 98.620,384.200 98.400 C 384.055 98.165,381.729 98.000,378.576 98.000 L 373.200 98.000 373.200 90.824 C 373.200 86.471,373.043 83.550,372.800 83.400 C 372.580 83.264,372.400 82.351,372.400 81.371 C 372.400 80.391,372.241 79.277,372.047 78.895 C 371.852 78.513,371.468 77.660,371.193 77.000 C 370.198 74.612,369.859 74.000,369.532 74.000 C 369.350 74.000,369.200 73.640,369.200 73.200 C 369.200 72.760,369.050 72.400,368.868 72.400 C 368.685 72.400,368.280 71.907,367.968 71.305 C 367.237 69.895,364.505 67.163,363.095 66.432 C 362.493 66.120,362.000 65.715,362.000 65.532 C 362.000 65.350,361.722 65.200,361.383 65.200 C 361.044 65.200,360.380 64.840,359.908 64.400 C 359.436 63.960,358.734 63.600,358.348 63.600 C 357.963 63.600,357.536 63.420,357.400 63.200 C 357.264 62.980,356.724 62.800,356.200 62.800 C 355.676 62.800,355.136 62.620,355.000 62.400 C 354.864 62.180,353.953 62.000,352.976 62.000 L 351.200 62.000 351.200 54.200 C 351.200 49.267,351.053 46.400,350.800 46.400 C 350.580 46.400,350.400 45.860,350.400 45.200 C 350.400 44.540,350.220 44.000,350.000 44.000 C 349.780 44.000,349.600 43.550,349.600 43.000 C 349.600 42.450,349.420 42.000,349.200 42.000 C 348.980 42.000,348.800 41.680,348.800 41.288 C 348.800 40.897,348.440 40.317,348.000 40.000 C 347.560 39.683,347.200 39.189,347.200 38.903 C 347.200 38.260,342.991 34.000,342.356 34.000 C 342.102 34.000,341.603 33.685,341.247 33.300 C 340.388 32.370,337.320 30.800,336.362 30.800 C 335.943 30.800,335.600 30.620,335.600 30.400 C 335.600 30.180,334.711 30.000,333.624 30.000 C 332.537 30.000,331.536 29.820,331.400 29.600 C 331.068 29.062,320.000 29.062,320.000 29.600 C 320.000 29.820,319.111 30.000,318.024 30.000 C 316.937 30.000,315.936 30.180,315.800 30.400 C 315.664 30.620,315.113 30.800,314.576 30.800 C 314.039 30.800,313.600 30.980,313.600 31.200 C 313.600 31.420,313.366 31.600,313.080 31.600 C 312.344 31.600,310.407 32.541,310.403 32.900 C 310.401 33.065,310.217 33.200,309.994 33.200 C 309.396 33.200,303.600 39.097,303.600 39.705 C 303.600 39.990,303.240 40.483,302.800 40.800 C 302.360 41.117,302.000 41.609,302.000 41.894 C 302.000 42.178,301.820 42.768,301.600 43.205 C 301.380 43.642,301.020 44.358,300.800 44.795 C 300.580 45.232,300.400 46.312,300.400 47.195 C 300.400 48.078,300.220 48.800,300.000 48.800 C 299.751 48.800,299.600 51.133,299.600 55.000 L 299.600 61.200 286.000 61.200 C 274.178 61.200,272.400 61.122,272.400 60.600 C 272.400 60.270,272.220 60.000,272.000 60.000 C 271.780 60.000,271.600 59.460,271.600 58.800 C 271.600 58.140,271.420 57.600,271.200 57.600 C 270.980 57.600,270.800 57.060,270.800 56.400 C 270.800 55.740,270.620 55.200,270.400 55.200 C 270.180 55.200,270.000 54.660,270.000 54.000 C 270.000 53.340,269.820 52.800,269.600 52.800 C 269.380 52.800,269.200 52.271,269.200 51.624 C 269.200 50.977,269.020 50.336,268.800 50.200 C 268.580 50.064,268.400 49.434,268.400 48.800 C 268.400 48.166,268.220 47.536,268.000 47.400 C 267.780 47.264,267.600 46.724,267.600 46.200 C 267.600 45.676,267.420 45.136,267.200 45.000 C 266.980 44.864,266.800 44.313,266.800 43.776 C 266.800 43.239,266.620 42.800,266.400 42.800 C 266.180 42.800,266.000 42.440,266.000 42.000 C 266.000 41.560,265.820 41.200,265.600 41.200 C 265.380 41.200,265.200 40.840,265.200 40.400 C 265.200 39.960,265.020 39.600,264.800 39.600 C 264.580 39.600,264.400 39.280,264.400 38.888 C 264.400 38.497,264.040 37.917,263.600 37.600 C 263.160 37.283,262.800 36.780,262.800 36.483 C 262.800 35.813,261.822 34.800,261.175 34.800 C 260.911 34.800,260.401 34.485,260.043 34.100 C 259.141 33.131,257.760 32.400,256.829 32.400 C 256.399 32.400,255.936 32.220,255.800 32.000 C 255.458 31.447,144.542 31.447,144.200 32.000 C 144.064 32.220,143.513 32.400,142.976 32.400 C 142.439 32.400,142.000 32.580,142.000 32.800 C 142.000 33.020,141.680 33.200,141.288 33.200 C 140.897 33.200,140.317 33.560,140.000 34.000 C 139.683 34.440,139.180 34.800,138.883 34.800 C 138.276 34.800,137.200 35.756,137.200 36.296 C 137.200 36.490,136.885 36.998,136.500 37.425 C 135.603 38.419,134.000 41.505,134.000 42.238 C 134.000 42.547,133.820 42.800,133.600 42.800 C 133.380 42.800,133.200 43.239,133.200 43.776 C 133.200 44.313,133.020 44.864,132.800 45.000 C 132.580 45.136,132.400 45.676,132.400 46.200 C 132.400 46.724,132.220 47.264,132.000 47.400 C 131.780 47.536,131.600 48.166,131.600 48.800 C 131.600 49.434,131.420 50.064,131.200 50.200 C 130.980 50.336,130.800 50.977,130.800 51.624 C 130.800 52.271,130.620 52.800,130.400 52.800 C 130.180 52.800,130.000 53.340,130.000 54.000 C 130.000 54.660,129.820 55.200,129.600 55.200 C 129.380 55.200,129.200 55.740,129.200 56.400 C 129.200 57.060,129.020 57.600,128.800 57.600 C 128.580 57.600,128.400 58.140,128.400 58.800 C 128.400 59.460,128.220 60.000,128.000 60.000 C 127.780 60.000,127.600 60.270,127.600 60.600 C 127.600 61.122,125.822 61.200,114.000 61.200 L 100.400 61.200 100.400 55.000 C 100.400 51.133,100.249 48.800,100.000 48.800 C 99.780 48.800,99.600 48.078,99.600 47.195 C 99.600 46.312,99.420 45.232,99.200 44.795 C 98.980 44.358,98.620 43.642,98.400 43.205 C 98.180 42.768,98.000 42.178,98.000 41.894 C 98.000 41.609,97.640 41.117,97.200 40.800 C 96.760 40.483,96.400 39.990,96.400 39.705 C 96.400 39.097,90.604 33.200,90.006 33.200 C 89.783 33.200,89.599 33.065,89.597 32.900 C 89.593 32.541,87.656 31.600,86.920 31.600 C 86.634 31.600,86.400 31.420,86.400 31.200 C 86.400 30.980,85.961 30.800,85.424 30.800 C 84.887 30.800,84.336 30.620,84.200 30.400 C 84.064 30.180,83.063 30.000,81.976 30.000 C 80.889 30.000,80.000 29.820,80.000 29.600 C 80.000 29.352,77.875 29.200,74.424 29.200 C 71.137 29.200,68.746 29.364,68.600 29.600 M80.776 42.668 C 85.966 44.344,87.579 47.524,87.591 56.100 L 87.600 62.400 74.408 62.400 L 61.215 62.400 60.956 61.366 C 59.626 56.068,61.648 46.938,64.711 44.413 C 67.664 41.979,75.879 41.086,80.776 42.668 M333.470 43.368 C 337.786 45.717,338.759 48.085,338.782 56.300 L 338.800 62.400 325.600 62.400 L 312.400 62.400 312.400 56.219 C 312.400 49.781,312.533 49.107,314.356 46.277 C 317.068 42.067,328.018 40.401,333.470 43.368 M253.043 45.500 C 253.335 45.885,253.580 46.605,253.587 47.100 C 253.594 47.595,253.780 48.000,254.000 48.000 C 254.220 48.000,254.400 48.540,254.400 49.200 C 254.400 49.860,254.580 50.400,254.800 50.400 C 255.020 50.400,255.200 50.940,255.200 51.600 C 255.200 52.260,255.380 52.800,255.600 52.800 C 255.820 52.800,256.000 53.340,256.000 54.000 C 256.000 54.660,256.180 55.200,256.400 55.200 C 256.620 55.200,256.800 55.740,256.800 56.400 C 256.800 57.060,256.980 57.600,257.200 57.600 C 257.420 57.600,257.600 58.039,257.600 58.576 C 257.600 59.113,257.780 59.664,258.000 59.800 C 260.262 61.198,260.190 61.200,200.000 61.200 C 139.810 61.200,139.738 61.198,142.000 59.800 C 142.220 59.664,142.400 59.113,142.400 58.576 C 142.400 58.039,142.580 57.600,142.800 57.600 C 143.020 57.600,143.200 57.060,143.200 56.400 C 143.200 55.740,143.380 55.200,143.600 55.200 C 143.820 55.200,144.000 54.660,144.000 54.000 C 144.000 53.340,144.180 52.800,144.400 52.800 C 144.620 52.800,144.800 52.260,144.800 51.600 C 144.800 50.940,144.980 50.400,145.200 50.400 C 145.420 50.400,145.600 49.860,145.600 49.200 C 145.600 48.540,145.780 48.000,146.000 48.000 C 146.220 48.000,146.400 47.542,146.400 46.983 C 146.400 44.690,142.891 44.832,199.956 44.815 C 249.550 44.801,252.542 44.839,253.043 45.500 M353.400 75.265 C 358.955 78.225,360.165 80.918,360.331 90.700 L 360.461 98.400 200.000 98.400 L 39.539 98.400 39.670 90.700 C 39.848 80.207,42.200 75.971,48.703 74.432 C 49.561 74.229,114.504 74.104,200.800 74.139 L 351.400 74.200 353.400 75.265 M209.416 136.100 C 209.875 138.228,210.692 139.467,212.290 140.461 L 213.800 141.400 290.901 141.505 L 368.002 141.610 367.901 222.305 L 367.800 303.000 363.600 303.266 C 351.085 304.060,344.400 311.077,344.400 323.420 L 344.400 326.800 279.850 326.800 C 244.348 326.800,214.723 326.915,214.019 327.056 C 212.210 327.418,210.168 329.490,209.622 331.519 L 209.164 333.218 201.684 333.109 L 194.203 333.000 193.680 331.403 C 193.137 329.745,191.977 328.261,190.600 327.463 C 190.006 327.119,172.133 326.948,121.200 326.800 L 52.600 326.600 52.381 321.600 C 51.892 310.404,45.331 303.941,33.600 303.100 L 32.200 303.000 32.099 222.300 L 31.998 141.600 109.699 141.590 C 198.853 141.579,192.327 141.934,193.648 137.019 C 194.248 134.787,194.147 134.813,202.068 134.806 L 209.136 134.800 209.416 136.100 M208.950 169.641 C 207.021 170.577,203.579 174.088,200.166 178.600 C 197.741 181.807,189.871 192.097,186.400 196.600 C 180.383 204.406,169.467 218.688,161.701 228.917 C 153.913 239.173,152.976 241.430,154.848 245.413 C 156.971 249.930,157.786 250.120,175.900 250.311 C 186.976 250.428,191.200 250.598,191.200 250.928 C 191.200 251.178,190.400 254.627,189.423 258.591 C 188.446 262.556,186.554 270.300,185.219 275.800 C 183.883 281.300,182.613 286.451,182.395 287.246 C 180.597 293.826,183.368 299.200,188.559 299.200 C 192.521 299.200,195.270 296.957,201.795 288.400 C 203.892 285.650,207.390 281.060,209.570 278.200 C 219.492 265.177,226.278 256.317,239.593 239.000 C 246.794 229.635,247.762 225.103,243.311 221.601 C 240.596 219.465,240.492 219.453,224.100 219.288 C 211.284 219.159,208.800 219.043,208.800 218.571 C 208.800 217.948,211.889 204.967,213.552 198.600 C 213.782 197.720,214.705 193.940,215.603 190.200 C 216.501 186.460,217.453 182.590,217.718 181.600 C 220.024 172.988,215.308 166.555,208.950 169.641 M310.049 183.861 C 307.780 185.017,307.203 186.437,307.201 190.867 C 307.199 196.279,307.444 196.000,302.718 196.000 C 296.725 196.000,294.398 197.580,294.401 201.647 C 294.405 205.665,296.642 207.244,302.800 207.575 L 307.000 207.800 307.113 212.297 L 307.226 216.794 308.717 218.361 C 313.169 223.041,318.048 219.936,318.400 212.200 L 318.600 207.800 322.802 207.561 C 328.988 207.209,331.195 205.652,331.199 201.638 C 331.202 197.742,328.615 196.000,322.827 196.000 C 318.140 196.000,318.516 196.474,318.299 190.288 C 318.091 184.356,314.527 181.580,310.049 183.861 M202.400 195.762 C 202.400 195.852,201.852 198.147,201.182 200.862 C 199.995 205.676,199.608 207.219,198.813 210.300 C 195.402 223.525,195.623 226.565,200.199 229.400 L 202.135 230.600 216.468 230.727 C 224.350 230.797,230.800 230.994,230.800 231.165 C 230.800 231.424,223.981 240.477,214.805 252.400 C 210.543 257.939,203.493 267.126,201.494 269.746 C 200.342 271.256,199.100 272.876,198.734 273.346 C 198.368 273.816,197.954 274.085,197.813 273.945 C 197.606 273.739,201.229 258.055,202.801 252.354 C 204.270 247.027,202.395 242.076,198.102 239.947 C 196.235 239.020,195.953 239.001,182.700 238.873 C 175.275 238.802,169.200 238.590,169.200 238.402 C 169.200 238.059,169.501 237.647,175.343 230.000 C 181.532 221.900,183.768 218.980,185.604 216.600 C 189.193 211.947,193.335 206.540,197.478 201.100 C 201.038 196.425,202.400 194.948,202.400 195.762 M67.400 196.744 C 63.493 199.157,63.412 204.337,67.245 206.600 C 69.371 207.855,93.360 207.834,95.046 206.575 C 98.820 203.757,98.687 198.610,94.788 196.594 C 92.864 195.599,69.043 195.729,67.400 196.744 " stroke="none" fill="#131f28" fill-rule="evenodd"></path><path id="path1" d="M47.200 75.311 C 44.089 76.816,42.350 78.548,40.978 81.512 C 40.052 83.511,40.000 84.018,40.000 91.012 L 40.000 98.400 176.900 98.400 C 252.195 98.399,324.195 98.280,336.900 98.134 L 360.000 97.869 360.000 90.534 C 360.000 85.911,359.852 83.200,359.600 83.200 C 359.380 83.200,359.200 82.750,359.200 82.200 C 359.200 81.650,359.020 81.200,358.800 81.200 C 358.580 81.200,358.400 80.921,358.400 80.581 C 358.400 79.776,354.624 76.000,353.819 76.000 C 353.479 76.000,353.200 75.820,353.200 75.600 C 353.200 75.380,352.761 75.200,352.224 75.200 C 351.687 75.200,351.136 75.020,351.000 74.800 C 350.836 74.534,300.051 74.407,199.876 74.420 L 49.000 74.440 47.200 75.311 M197.994 201.033 C 196.145 203.435,194.527 205.490,194.397 205.600 C 194.268 205.710,193.729 206.430,193.200 207.200 C 192.671 207.970,192.139 208.690,192.017 208.800 C 191.895 208.910,190.640 210.530,189.228 212.400 C 183.750 219.654,179.032 225.809,178.802 226.000 C 178.670 226.110,178.129 226.830,177.600 227.600 C 177.071 228.370,176.539 229.090,176.418 229.200 C 176.297 229.310,175.394 230.480,174.412 231.800 C 173.429 233.120,171.928 235.054,171.076 236.099 C 169.105 238.515,168.215 238.341,183.400 238.506 C 197.289 238.656,197.596 238.702,200.369 241.036 C 203.167 243.390,204.289 248.837,202.915 253.400 C 202.651 254.280,201.517 258.870,200.396 263.600 C 199.276 268.330,198.274 272.450,198.170 272.757 C 197.783 273.901,199.144 272.330,203.426 266.690 C 205.802 263.561,207.857 260.910,207.993 260.800 C 208.128 260.690,208.671 259.970,209.200 259.200 C 209.729 258.430,210.269 257.710,210.400 257.600 C 210.531 257.490,211.077 256.770,211.614 256.000 C 212.150 255.230,212.809 254.330,213.077 254.000 C 214.309 252.488,218.569 246.954,222.007 242.400 C 224.083 239.650,225.876 237.310,225.992 237.200 C 226.107 237.090,227.012 235.920,228.001 234.600 C 228.990 233.280,229.935 232.140,230.100 232.067 C 231.608 231.396,228.779 231.198,217.500 231.183 C 203.281 231.163,201.852 231.017,199.508 229.346 C 196.366 227.105,195.240 223.190,196.432 218.646 C 198.645 210.206,201.630 197.490,201.494 197.082 C 201.418 196.854,199.843 198.632,197.994 201.033 " stroke="none" fill="#f9cd71" fill-rule="evenodd"></path><path id="path2" d="M194.480 136.480 C 194.216 136.744,194.000 137.158,194.000 137.400 C 194.000 138.400,192.957 139.931,191.725 140.739 L 190.411 141.600 111.870 141.600 L 33.330 141.600 33.065 155.465 C 32.919 163.091,32.800 199.361,32.800 236.065 L 32.800 302.800 34.934 302.800 C 45.113 302.800,53.174 311.761,53.194 323.100 L 53.200 326.400 121.405 326.400 C 175.226 326.400,189.800 326.505,190.505 326.900 C 191.874 327.665,194.000 330.019,194.000 330.770 C 194.000 332.245,194.766 332.400,202.080 332.400 C 208.949 332.400,209.200 332.372,209.200 331.595 C 209.200 330.094,211.412 327.200,212.558 327.200 C 212.885 327.200,213.264 327.020,213.400 326.800 C 213.563 326.536,235.784 326.400,278.762 326.400 L 343.877 326.400 344.134 321.630 C 344.372 317.200,344.549 316.315,345.738 313.600 C 348.669 306.907,355.358 302.800,363.328 302.800 L 367.200 302.800 367.200 222.200 L 367.200 141.600 289.800 141.600 C 247.230 141.600,212.400 141.463,212.400 141.295 C 212.400 141.127,211.995 140.812,211.500 140.595 C 211.005 140.378,210.422 139.795,210.205 139.300 C 209.988 138.805,209.673 138.400,209.505 138.400 C 209.337 138.400,209.200 137.860,209.200 137.200 L 209.200 136.000 202.080 136.000 C 197.076 136.000,194.817 136.143,194.480 136.480 M214.493 168.981 C 218.691 170.735,219.860 175.812,217.812 183.400 C 217.456 184.720,216.984 186.610,216.763 187.600 C 216.542 188.590,216.190 190.075,215.980 190.900 C 214.914 195.104,214.417 197.215,213.791 200.200 C 213.653 200.860,213.386 201.760,213.197 202.200 C 213.009 202.640,212.763 203.540,212.652 204.200 C 212.540 204.860,212.258 206.165,212.025 207.100 C 210.969 211.324,210.774 212.102,210.364 213.700 C 210.125 214.635,209.837 216.155,209.726 217.078 L 209.523 218.756 224.661 218.878 C 242.746 219.024,242.984 219.079,245.559 223.712 C 246.453 225.320,246.704 228.646,246.026 229.905 C 245.821 230.287,245.417 231.185,245.129 231.900 C 244.840 232.615,244.469 233.200,244.302 233.200 C 244.136 233.200,244.000 233.470,244.000 233.800 C 244.000 234.130,243.859 234.400,243.686 234.400 C 243.514 234.400,243.057 234.933,242.672 235.585 C 242.287 236.237,241.747 237.002,241.473 237.285 C 241.198 237.568,240.538 238.430,240.006 239.200 C 239.474 239.970,238.928 240.690,238.792 240.800 C 238.657 240.910,236.347 243.919,233.659 247.486 C 230.971 251.053,228.547 254.203,228.272 254.486 C 227.998 254.769,227.338 255.630,226.806 256.400 C 226.274 257.170,225.731 257.890,225.600 258.000 C 225.469 258.110,224.929 258.830,224.400 259.600 C 223.871 260.370,223.337 261.090,223.214 261.200 C 223.090 261.310,221.559 263.290,219.810 265.600 C 214.528 272.579,212.669 274.990,212.409 275.200 C 212.273 275.310,211.729 276.030,211.200 276.800 C 210.671 277.570,210.134 278.290,210.005 278.400 C 209.877 278.510,208.214 280.670,206.310 283.200 C 197.141 295.380,196.000 296.675,192.851 298.482 C 188.154 301.176,183.327 299.434,181.655 294.440 C 180.812 291.923,180.887 291.446,184.386 277.000 C 185.026 274.360,186.108 269.860,186.791 267.000 C 187.474 264.140,188.205 261.125,188.416 260.300 C 188.627 259.475,188.992 258.035,189.227 257.100 C 189.462 256.165,189.822 254.847,190.027 254.172 C 190.232 253.496,190.400 252.471,190.400 251.894 L 190.400 250.844 175.300 250.715 C 158.753 250.573,158.839 250.585,156.124 248.070 C 151.592 243.874,152.778 239.212,160.923 229.200 C 161.192 228.870,161.850 227.970,162.386 227.200 C 162.923 226.430,163.466 225.710,163.594 225.600 C 163.722 225.490,165.441 223.240,167.413 220.600 C 169.386 217.960,171.095 215.710,171.210 215.600 C 171.326 215.490,172.041 214.590,172.800 213.600 C 173.559 212.610,174.283 211.710,174.409 211.600 C 174.535 211.490,175.071 210.770,175.600 210.000 C 176.129 209.230,176.661 208.510,176.782 208.400 C 176.903 208.290,177.744 207.210,178.652 206.000 C 182.309 201.122,189.772 191.387,189.998 191.200 C 190.130 191.090,190.671 190.370,191.200 189.600 C 191.729 188.830,192.266 188.110,192.395 188.000 C 192.523 187.890,194.188 185.730,196.096 183.200 C 202.404 174.834,202.903 174.217,205.099 172.063 C 208.555 168.674,211.469 167.718,214.493 168.981 M315.904 183.598 C 318.240 185.022,318.797 186.465,318.799 191.100 L 318.800 195.200 321.900 195.204 C 328.517 195.214,331.600 197.312,331.600 201.806 C 331.600 206.058,329.006 207.911,322.800 208.090 L 319.000 208.200 318.800 212.639 C 318.566 217.842,317.991 218.976,314.943 220.249 C 312.631 221.216,310.294 220.694,308.384 218.784 L 306.826 217.226 306.713 212.713 L 306.600 208.200 302.800 208.096 C 298.110 207.968,296.033 207.082,294.571 204.587 C 291.535 199.406,295.522 195.391,304.000 195.092 L 306.600 195.000 306.800 190.697 C 307.121 183.787,311.111 180.676,315.904 183.598 M93.453 195.699 C 96.915 196.625,98.944 199.814,98.206 203.171 C 97.896 204.582,95.615 207.200,94.695 207.200 C 94.339 207.200,93.936 207.380,93.800 207.600 C 93.263 208.469,69.409 208.103,67.496 207.196 C 62.095 204.637,62.885 197.698,68.800 195.746 C 70.823 195.078,90.990 195.040,93.453 195.699 " stroke="none" fill="#f7f1f9" fill-rule="evenodd"></path><path id="path3" d="M67.785 42.637 C 63.085 44.305,61.148 47.832,60.881 55.207 C 60.780 58.026,60.813 60.797,60.956 61.366 L 61.215 62.400 74.408 62.400 L 87.600 62.400 87.591 56.100 C 87.579 47.524,85.966 44.344,80.776 42.668 C 78.125 41.812,70.162 41.793,67.785 42.637 M194.581 135.106 C 194.350 135.268,193.949 136.127,193.689 137.017 C 193.148 138.872,191.442 140.681,189.758 141.185 C 188.767 141.481,188.731 141.536,189.506 141.566 C 190.827 141.616,192.991 140.048,193.559 138.630 C 194.590 136.056,194.084 136.209,201.943 136.091 L 209.200 135.982 209.200 137.191 C 209.200 137.856,209.337 138.400,209.505 138.400 C 209.673 138.400,209.988 138.805,210.205 139.300 C 210.422 139.795,211.005 140.378,211.500 140.595 C 211.995 140.812,212.400 141.127,212.400 141.295 C 212.400 141.463,212.895 141.596,213.500 141.591 C 214.500 141.583,214.446 141.512,212.908 140.814 C 211.075 139.982,209.822 138.309,209.418 136.153 L 209.164 134.800 202.082 134.806 C 198.187 134.809,194.811 134.944,194.581 135.106 M32.400 222.400 L 32.400 303.200 34.300 303.214 C 41.991 303.272,49.996 309.035,51.782 315.800 C 51.956 316.460,52.186 316.761,52.293 316.468 C 52.630 315.549,49.948 310.853,47.831 308.654 C 44.441 305.133,39.285 302.800,34.896 302.800 L 32.724 302.800 32.862 222.200 C 32.938 177.870,32.865 141.600,32.700 141.600 C 32.535 141.600,32.400 177.960,32.400 222.400 M367.200 222.200 L 367.200 302.800 363.328 302.800 C 356.402 302.800,350.839 305.601,347.344 310.846 C 345.547 313.543,344.387 316.357,344.428 317.919 C 344.447 318.631,344.695 318.167,345.156 316.559 C 347.543 308.219,353.530 303.905,363.600 303.266 L 367.800 303.000 367.901 222.300 C 367.968 168.569,367.868 141.600,367.601 141.600 C 367.334 141.600,367.200 168.603,367.200 222.200 M212.000 168.791 C 217.605 169.676,219.716 174.555,217.716 182.000 C 217.296 183.565,215.103 192.491,211.394 207.736 C 210.814 210.121,210.434 212.168,210.550 212.284 C 210.666 212.400,210.869 211.978,211.000 211.347 C 211.319 209.821,211.967 207.288,212.427 205.772 C 212.632 205.096,212.800 204.072,212.800 203.495 C 212.800 202.919,212.960 202.348,213.156 202.227 C 213.351 202.106,213.612 201.421,213.734 200.704 C 214.084 198.643,214.721 195.864,215.980 190.900 C 216.190 190.075,216.542 188.590,216.763 187.600 C 216.984 186.610,217.456 184.720,217.812 183.400 C 220.267 174.304,217.762 168.228,211.651 168.453 C 210.239 168.505,210.248 168.514,212.000 168.791 M207.469 170.038 C 205.068 171.628,202.323 174.812,195.604 183.800 C 193.960 186.000,192.513 187.890,192.388 188.000 C 192.263 188.110,191.729 188.830,191.200 189.600 C 190.671 190.370,190.132 191.090,190.003 191.200 C 189.775 191.393,186.310 195.896,180.614 203.400 C 179.111 205.380,177.683 207.260,177.440 207.577 C 177.119 207.997,177.120 208.082,177.442 207.889 C 177.685 207.743,179.293 205.774,181.015 203.512 C 184.020 199.564,187.331 195.242,190.814 190.722 C 191.713 189.555,193.466 187.250,194.710 185.600 C 195.954 183.950,197.698 181.686,198.586 180.570 C 199.474 179.453,200.650 177.929,201.200 177.181 C 203.703 173.781,205.776 171.701,208.378 169.978 C 209.356 169.330,209.972 168.800,209.747 168.800 C 209.522 168.800,208.496 169.357,207.469 170.038 M310.157 183.191 C 308.833 183.726,306.792 186.450,306.860 187.591 L 306.920 188.600 307.083 187.540 C 307.402 185.459,309.584 183.523,311.855 183.304 C 315.189 182.984,316.992 184.135,318.270 187.400 C 318.622 188.299,318.746 188.400,318.768 187.800 C 318.887 184.506,313.732 181.747,310.157 183.191 M302.929 195.169 C 297.896 195.497,297.777 196.000,302.733 196.000 C 306.081 196.000,306.800 195.894,306.800 195.400 C 306.800 195.070,306.755 194.829,306.700 194.865 C 306.645 194.900,304.948 195.037,302.929 195.169 M69.400 195.600 C 68.931 195.801,73.820 195.944,81.200 195.944 C 88.580 195.944,93.469 195.801,93.000 195.600 C 92.560 195.411,87.250 195.256,81.200 195.256 C 75.150 195.256,69.840 195.411,69.400 195.600 M318.800 195.600 C 318.800 195.842,320.415 195.989,322.900 195.972 C 325.563 195.954,326.720 195.823,326.200 195.600 C 325.060 195.110,318.800 195.110,318.800 195.600 M66.289 196.854 C 62.904 199.379,63.735 207.107,67.400 207.183 C 67.620 207.187,67.239 206.749,66.554 206.209 C 63.738 203.989,63.643 200.036,66.345 197.515 C 68.104 195.874,68.074 195.522,66.289 196.854 M95.679 197.205 C 98.172 199.259,98.596 202.555,96.733 205.386 L 95.934 206.600 96.955 205.408 C 99.364 202.597,97.761 196.000,94.669 196.000 C 94.421 196.000,94.876 196.542,95.679 197.205 M295.606 197.394 C 294.863 198.161,294.363 198.896,294.495 199.028 C 294.627 199.160,294.941 198.883,295.193 198.413 C 295.445 197.942,296.225 197.207,296.926 196.780 C 297.626 196.353,297.920 196.002,297.578 196.001 C 297.237 196.001,296.349 196.627,295.606 197.394 M328.715 196.855 C 331.717 198.778,332.170 202.947,329.662 205.583 C 327.990 207.340,327.977 207.740,329.637 206.300 C 332.874 203.493,331.561 195.951,327.846 196.007 C 327.601 196.010,327.992 196.392,328.715 196.855 M293.867 199.867 C 292.836 200.897,294.230 204.963,296.137 206.491 C 297.629 207.686,297.695 207.259,296.219 205.963 C 294.684 204.615,293.815 202.276,294.232 200.615 C 294.486 199.601,294.370 199.363,293.867 199.867 M68.538 207.694 C 69.148 208.082,93.498 208.088,93.738 207.700 C 93.840 207.535,88.108 207.400,81.000 207.400 C 73.892 207.400,68.284 207.532,68.538 207.694 M298.200 207.520 C 298.652 208.004,306.802 208.364,306.801 207.900 C 306.800 207.735,305.225 207.598,303.300 207.595 C 301.375 207.592,299.350 207.477,298.800 207.340 C 298.099 207.165,297.919 207.219,298.200 207.520 M322.700 207.498 C 320.555 207.570,318.800 207.757,318.799 207.914 C 318.798 208.335,326.935 208.013,327.380 207.574 C 327.618 207.340,327.544 207.231,327.180 207.284 C 326.861 207.330,324.845 207.426,322.700 207.498 M175.668 209.848 C 175.155 210.640,174.922 211.172,175.149 211.031 C 175.782 210.641,177.299 208.399,176.927 208.405 C 176.747 208.408,176.181 209.057,175.668 209.848 M173.300 212.927 C 172.806 213.654,172.086 214.597,171.700 215.024 C 170.903 215.908,165.272 223.361,164.473 224.590 C 163.369 226.290,166.892 221.980,170.760 216.900 C 172.980 213.985,174.662 211.601,174.498 211.603 C 174.334 211.604,173.795 212.200,173.300 212.927 M210.049 213.200 C 210.016 213.530,209.889 214.250,209.767 214.800 C 209.575 215.664,209.607 215.703,209.999 215.088 C 210.248 214.697,210.375 213.977,210.281 213.488 C 210.186 213.000,210.082 212.870,210.049 213.200 M306.841 215.900 C 306.795 217.361,309.413 220.408,310.700 220.391 C 311.141 220.385,310.871 220.075,309.973 219.554 C 308.384 218.632,307.605 217.588,307.172 215.800 L 306.882 214.600 306.841 215.900 M318.243 216.111 C 317.986 217.481,316.419 219.264,315.043 219.751 C 314.626 219.898,314.386 220.119,314.508 220.242 C 314.850 220.584,316.497 219.594,317.487 218.450 C 318.347 217.459,319.073 215.340,318.686 214.953 C 318.582 214.848,318.382 215.370,318.243 216.111 M209.100 217.150 C 208.935 217.893,208.800 218.644,208.800 218.821 C 208.800 218.997,215.775 219.200,224.300 219.271 C 239.291 219.396,239.853 219.428,241.400 220.263 C 244.669 222.027,246.227 224.697,245.910 227.991 C 245.806 229.081,245.873 229.878,246.060 229.763 C 246.757 229.332,246.420 225.260,245.559 223.712 C 242.985 219.081,242.737 219.024,224.723 218.878 L 209.646 218.756 209.523 217.278 L 209.400 215.800 209.100 217.150 M312.100 220.676 C 312.485 220.776,313.115 220.776,313.500 220.676 C 313.885 220.575,313.570 220.493,312.800 220.493 C 312.030 220.493,311.715 220.575,312.100 220.676 M162.468 227.048 C 161.955 227.840,161.722 228.372,161.949 228.231 C 162.582 227.841,164.099 225.599,163.727 225.605 C 163.547 225.608,162.981 226.257,162.468 227.048 M160.797 229.100 C 160.796 229.265,159.715 230.750,158.397 232.400 C 152.902 239.276,152.159 244.398,156.124 248.070 C 158.839 250.585,158.753 250.573,175.300 250.715 L 190.400 250.844 190.400 251.894 C 190.400 252.471,190.232 253.496,190.027 254.172 C 189.443 256.095,188.569 259.557,186.838 266.800 C 186.181 269.550,184.991 274.464,184.194 277.719 C 183.398 280.974,182.825 283.854,182.922 284.119 C 183.018 284.384,183.228 283.880,183.387 283.000 C 183.546 282.120,183.827 280.860,184.011 280.200 C 184.571 278.191,185.113 276.025,186.362 270.800 C 187.019 268.050,188.372 262.490,189.367 258.444 C 190.363 254.398,191.082 250.933,190.965 250.744 C 190.848 250.555,184.508 250.389,176.876 250.376 C 161.328 250.349,159.852 250.210,157.481 248.543 C 152.393 244.968,152.803 240.459,158.958 232.300 C 160.410 230.375,161.419 228.800,161.199 228.800 C 160.980 228.800,160.799 228.935,160.797 229.100 M244.717 231.723 C 244.115 232.986,239.857 238.772,231.945 249.078 C 229.885 251.760,225.550 257.430,222.311 261.678 C 219.072 265.925,214.767 271.560,212.743 274.200 C 210.720 276.840,207.350 281.250,205.256 284.000 C 196.894 294.976,195.872 296.138,192.947 297.993 C 189.447 300.213,184.848 299.421,182.992 296.278 C 182.623 295.655,182.224 295.242,182.105 295.361 C 180.963 296.503,185.785 299.714,188.642 299.714 C 193.288 299.714,195.278 297.854,206.310 283.200 C 208.214 280.670,209.877 278.510,210.005 278.400 C 210.134 278.290,210.671 277.570,211.200 276.800 C 211.729 276.030,212.273 275.310,212.409 275.200 C 212.669 274.990,214.528 272.579,219.810 265.600 C 221.559 263.290,223.090 261.310,223.214 261.200 C 223.337 261.090,223.871 260.370,224.400 259.600 C 224.929 258.830,225.469 258.110,225.600 258.000 C 225.731 257.890,226.274 257.170,226.806 256.400 C 227.338 255.630,227.998 254.769,228.272 254.486 C 228.547 254.203,230.971 251.053,233.659 247.486 C 236.347 243.919,238.657 240.910,238.792 240.800 C 238.928 240.690,239.474 239.970,240.006 239.200 C 240.538 238.430,241.198 237.568,241.473 237.285 C 241.747 237.002,242.287 236.237,242.672 235.585 C 243.057 234.933,243.514 234.400,243.686 234.400 C 243.859 234.400,244.000 234.130,244.000 233.800 C 244.000 233.470,244.136 233.200,244.302 233.200 C 244.664 233.200,245.762 230.829,245.515 230.582 C 245.421 230.487,245.062 231.001,244.717 231.723 M182.200 286.000 C 182.048 286.691,182.014 287.347,182.124 287.457 C 182.234 287.567,182.448 287.091,182.600 286.400 C 182.752 285.709,182.786 285.053,182.676 284.943 C 182.566 284.833,182.352 285.309,182.200 286.000 M181.450 289.250 C 181.122 290.890,181.178 293.199,181.569 294.200 C 181.758 294.684,181.889 293.616,181.899 291.500 C 181.917 287.718,181.837 287.316,181.450 289.250 M52.692 321.600 C 52.807 324.130,53.021 326.333,53.166 326.495 C 53.515 326.885,190.379 327.089,190.138 326.700 C 190.036 326.535,159.183 326.400,121.576 326.400 L 53.200 326.400 53.153 322.900 C 53.127 320.975,52.965 318.860,52.793 318.200 C 52.622 317.540,52.576 319.070,52.692 321.600 M344.081 323.100 L 344.000 326.400 278.824 326.400 C 242.977 326.400,213.564 326.535,213.462 326.700 C 213.282 326.991,343.997 326.936,344.288 326.645 C 344.368 326.565,344.373 324.992,344.298 323.150 L 344.163 319.800 344.081 323.100 M211.000 328.149 C 209.837 329.456,209.200 330.676,209.200 331.595 C 209.200 332.372,208.949 332.400,202.080 332.400 C 194.818 332.400,194.003 332.241,193.998 330.820 C 193.997 330.479,193.537 329.660,192.976 329.000 L 191.956 327.800 192.678 328.972 C 193.075 329.616,193.586 330.786,193.812 331.572 L 194.225 333.000 201.695 333.109 L 209.164 333.218 209.618 331.533 C 209.868 330.606,210.667 329.253,211.396 328.524 C 212.124 327.796,212.513 327.211,212.260 327.224 C 212.007 327.238,211.440 327.654,211.000 328.149 " stroke="none" fill="#94b7d2" fill-rule="evenodd"></path><path id="path4" d="M320.133 42.357 C 317.986 42.914,315.385 44.679,314.356 46.277 C 312.533 49.107,312.400 49.781,312.400 56.219 L 312.400 62.400 325.600 62.400 L 338.800 62.400 338.782 56.300 C 338.759 48.085,337.786 45.717,333.470 43.368 C 331.365 42.222,323.072 41.593,320.133 42.357 M124.900 74.300 C 166.205 74.356,233.795 74.356,275.100 74.300 C 316.405 74.244,282.610 74.198,200.000 74.198 C 117.390 74.198,83.595 74.244,124.900 74.300 M46.889 75.065 C 46.168 75.420,45.642 75.775,45.721 75.854 C 45.799 75.933,46.569 75.645,47.432 75.214 C 48.294 74.784,48.820 74.429,48.600 74.425 C 48.380 74.421,47.610 74.709,46.889 75.065 M351.000 74.800 C 351.136 75.020,351.642 75.197,352.124 75.194 C 352.836 75.189,352.888 75.115,352.400 74.800 C 351.612 74.291,350.685 74.291,351.000 74.800 M353.200 75.586 C 353.200 75.814,353.479 76.000,353.819 76.000 C 354.624 76.000,358.400 79.776,358.400 80.581 C 358.400 80.921,358.585 81.200,358.810 81.200 C 359.487 81.200,358.187 79.114,356.533 77.547 C 354.773 75.880,353.200 74.954,353.200 75.586 M44.056 76.834 C 43.536 77.255,43.266 77.594,43.456 77.587 C 43.944 77.569,45.376 76.443,45.171 76.239 C 45.077 76.145,44.575 76.413,44.056 76.834 M359.206 82.300 C 359.203 82.795,359.380 83.200,359.600 83.200 C 360.101 83.200,360.101 82.776,359.600 82.000 C 359.286 81.515,359.211 81.572,359.206 82.300 M39.766 91.200 C 39.766 95.270,39.825 96.935,39.898 94.900 C 39.971 92.865,39.971 89.535,39.898 87.500 C 39.825 85.465,39.766 87.130,39.766 91.200 M360.000 90.995 L 360.000 97.991 344.500 98.100 L 329.000 98.210 344.700 98.305 L 360.400 98.400 360.400 91.200 C 360.400 87.240,360.310 84.000,360.200 84.000 C 360.090 84.000,360.000 87.148,360.000 90.995 M32.196 222.200 C 32.196 266.640,32.243 284.761,32.300 262.468 C 32.357 240.176,32.357 203.816,32.300 181.668 C 32.243 159.521,32.196 177.760,32.196 222.200 M306.942 191.800 C 306.941 193.780,307.008 194.640,307.092 193.712 C 307.176 192.784,307.177 191.164,307.095 190.112 C 307.012 189.060,306.943 189.820,306.942 191.800 M318.542 191.800 C 318.541 193.780,318.608 194.640,318.692 193.712 C 318.776 192.784,318.777 191.164,318.695 190.112 C 318.612 189.060,318.543 189.820,318.542 191.800 M198.037 200.372 C 196.037 202.997,194.400 205.267,194.400 205.417 C 194.400 205.566,195.962 203.658,197.871 201.177 C 200.658 197.554,201.394 196.812,201.604 197.411 C 201.836 198.073,201.895 198.046,202.127 197.179 C 202.849 194.479,202.059 195.096,198.037 200.372 M201.050 199.650 C 200.717 201.317,201.040 201.640,201.400 200.000 C 201.552 199.309,201.593 198.659,201.491 198.558 C 201.389 198.456,201.191 198.947,201.050 199.650 M200.250 202.850 C 199.917 204.517,200.240 204.840,200.600 203.200 C 200.752 202.509,200.793 201.859,200.691 201.758 C 200.589 201.656,200.391 202.147,200.250 202.850 M199.429 206.229 C 199.281 206.815,199.251 207.384,199.361 207.494 C 199.471 207.604,199.681 207.215,199.829 206.629 C 199.976 206.042,200.006 205.473,199.896 205.363 C 199.786 205.253,199.576 205.642,199.429 206.229 M192.627 207.400 C 192.040 208.170,191.703 208.798,191.880 208.795 C 192.056 208.792,192.607 208.162,193.104 207.395 C 194.268 205.597,194.000 205.600,192.627 207.400 M306.942 211.400 C 306.941 213.380,307.008 214.240,307.092 213.312 C 307.176 212.384,307.177 210.764,307.095 209.712 C 307.012 208.660,306.943 209.420,306.942 211.400 M318.542 211.400 C 318.541 213.380,318.608 214.240,318.692 213.312 C 318.776 212.384,318.777 210.764,318.695 209.712 C 318.612 208.660,318.543 209.420,318.542 211.400 M198.629 209.429 C 198.481 210.015,198.451 210.584,198.561 210.694 C 198.671 210.804,198.881 210.415,199.029 209.829 C 199.176 209.242,199.206 208.673,199.096 208.563 C 198.986 208.453,198.776 208.842,198.629 209.429 M190.744 209.900 C 189.475 211.432,189.019 212.142,189.481 211.865 C 189.993 211.558,191.769 209.200,191.489 209.200 C 191.398 209.200,191.063 209.515,190.744 209.900 M197.800 212.800 C 197.648 213.491,197.614 214.147,197.724 214.257 C 197.834 214.367,198.048 213.891,198.200 213.200 C 198.352 212.509,198.386 211.853,198.276 211.743 C 198.166 211.633,197.952 212.109,197.800 212.800 M188.321 213.100 C 187.990 213.485,186.826 214.970,185.736 216.400 C 184.645 217.830,182.540 220.575,181.058 222.500 C 179.577 224.425,178.507 225.992,178.682 225.982 C 178.857 225.972,180.980 223.347,183.400 220.150 C 185.820 216.953,188.130 213.901,188.533 213.368 C 189.377 212.255,189.220 212.056,188.321 213.100 M197.073 215.753 C 196.923 216.145,196.811 216.766,196.825 217.133 C 196.842 217.575,196.981 217.474,197.237 216.834 C 197.449 216.303,197.561 215.682,197.485 215.454 C 197.409 215.227,197.224 215.361,197.073 215.753 M196.252 219.300 C 195.907 220.587,195.943 225.118,196.300 225.338 C 196.465 225.439,196.600 223.920,196.600 221.961 C 196.600 218.036,196.597 218.013,196.252 219.300 M196.807 226.138 C 196.791 226.950,198.601 228.885,200.326 229.898 L 202.200 231.000 216.500 231.200 C 224.366 231.310,230.801 231.277,230.800 231.127 C 230.800 230.977,224.365 230.797,216.500 230.727 L 202.200 230.600 200.345 229.510 C 199.325 228.910,198.114 227.830,197.652 227.110 C 197.191 226.389,196.810 225.952,196.807 226.138 M174.541 231.031 C 169.370 237.794,169.376 237.785,169.865 237.483 C 170.112 237.331,171.635 235.449,173.250 233.303 C 174.864 231.156,176.287 229.310,176.412 229.200 C 176.855 228.809,178.451 226.400,178.268 226.400 C 178.165 226.400,176.488 228.484,174.541 231.031 M228.917 233.305 C 228.431 234.017,227.651 235.095,227.183 235.700 C 226.716 236.305,226.412 236.800,226.508 236.800 C 226.604 236.800,227.530 235.720,228.568 234.400 C 229.605 233.080,230.306 232.002,230.127 232.005 C 229.947 232.008,229.402 232.593,228.917 233.305 M225.193 238.130 C 224.867 238.642,222.350 241.987,219.600 245.564 C 212.843 254.352,212.958 254.197,213.453 253.891 C 213.693 253.742,215.024 252.131,216.411 250.310 C 217.798 248.490,220.625 244.795,222.693 242.100 C 224.762 239.405,226.304 237.200,226.120 237.200 C 225.936 237.200,225.519 237.619,225.193 238.130 M169.200 238.500 C 169.200 238.665,174.825 238.763,181.700 238.719 C 194.986 238.632,193.763 238.473,178.500 238.304 C 173.384 238.247,169.199 238.335,169.200 238.500 M195.600 239.173 C 197.850 239.624,199.937 240.797,201.255 242.352 C 201.930 243.148,202.288 243.414,202.050 242.943 C 201.062 240.984,197.360 238.754,195.251 238.846 C 194.376 238.884,194.435 238.939,195.600 239.173 M203.314 248.600 C 203.317 249.700,203.395 250.103,203.487 249.495 C 203.579 248.886,203.577 247.986,203.482 247.495 C 203.387 247.003,203.311 247.500,203.314 248.600 M202.629 252.629 C 202.481 253.215,202.451 253.784,202.561 253.894 C 202.671 254.004,202.881 253.615,203.029 253.029 C 203.176 252.442,203.206 251.873,203.096 251.763 C 202.986 251.653,202.776 252.042,202.629 252.629 M211.668 255.848 C 211.155 256.640,210.922 257.172,211.149 257.031 C 211.782 256.641,213.299 254.399,212.927 254.405 C 212.747 254.408,212.181 255.057,211.668 255.848 M201.822 256.222 C 201.672 257.025,201.628 257.762,201.726 257.860 C 201.824 257.957,202.027 257.381,202.178 256.578 C 202.328 255.775,202.372 255.038,202.274 254.940 C 202.176 254.843,201.973 255.419,201.822 256.222 M209.296 259.005 C 208.132 260.803,208.400 260.800,209.773 259.000 C 210.360 258.230,210.697 257.602,210.520 257.605 C 210.344 257.608,209.793 258.238,209.296 259.005 M201.000 259.600 C 200.848 260.291,200.807 260.941,200.909 261.042 C 201.011 261.144,201.209 260.653,201.350 259.950 C 201.683 258.283,201.360 257.960,201.000 259.600 M203.857 266.102 C 201.688 268.961,200.089 271.192,200.303 271.060 C 200.836 270.730,208.107 261.169,207.937 261.022 C 207.862 260.956,206.026 263.242,203.857 266.102 M200.200 262.800 C 200.048 263.491,200.007 264.141,200.109 264.242 C 200.211 264.344,200.409 263.853,200.550 263.150 C 200.883 261.483,200.560 261.160,200.200 262.800 M198.829 268.486 C 198.347 270.529,197.854 272.605,197.733 273.100 C 197.413 274.412,198.206 274.202,199.244 272.700 L 200.142 271.400 199.049 272.391 C 198.441 272.941,198.047 273.119,198.162 272.791 C 198.659 271.364,200.027 265.094,199.874 264.941 C 199.781 264.848,199.311 266.443,198.829 268.486 M52.460 323.276 C 52.427 324.968,52.535 326.437,52.700 326.539 C 52.865 326.642,52.949 325.707,52.887 324.463 C 52.692 320.556,52.522 320.085,52.460 323.276 " stroke="none" fill="#e87c7c" fill-rule="evenodd"></path></g></svg>