<svg id="svg" version="1.1" xmlns="http://www.w3.org/2000/svg" xmlns:xlink="http://www.w3.org/1999/xlink" width="400" height="400" viewBox="0, 0, 400,400"><g id="svgg"><path id="path0" d="M196.769 178.110 C 192.636 180.894,192.504 185.981,196.487 188.931 C 197.362 189.580,198.705 189.833,203.383 190.231 C 233.821 192.825,258.159 210.554,267.588 237.000 C 269.248 241.655,269.539 242.634,270.326 246.200 C 271.659 252.238,272.000 254.528,272.000 257.451 C 272.000 265.083,274.235 268.800,278.826 268.800 C 284.350 268.800,286.421 263.253,284.787 252.833 C 283.424 244.140,281.719 237.060,280.011 233.000 C 279.826 232.560,279.405 231.480,279.075 230.600 C 271.371 210.025,251.571 190.502,230.600 182.803 C 229.280 182.318,227.840 181.768,227.400 181.580 C 219.471 178.189,199.936 175.975,196.769 178.110 " stroke="none" fill="#e3e1e0" fill-rule="evenodd"></path><path id="path1" d="M61.680 327.280 C 61.314 327.646,61.200 335.653,61.200 360.880 L 61.200 394.000 200.000 394.000 L 338.800 394.000 338.800 360.880 C 338.800 335.653,338.686 327.646,338.320 327.280 C 337.442 326.402,306.426 326.612,305.776 327.500 C 305.065 328.471,94.918 328.338,94.156 327.366 C 93.553 326.598,62.445 326.515,61.680 327.280 " stroke="none" fill="#6c6c74" fill-rule="evenodd"></path><path id="path2" d="M196.400 6.400 C 196.400 6.620,196.130 6.800,195.800 6.800 C 195.470 6.800,195.200 6.980,195.200 7.200 C 195.200 7.420,194.951 7.600,194.647 7.600 C 194.342 7.600,193.989 7.915,193.861 8.300 C 193.733 8.685,193.355 9.720,193.020 10.600 C 192.193 12.777,192.078 117.330,192.900 120.092 C 194.018 123.850,197.378 125.684,201.899 125.006 C 203.985 124.693,206.800 122.281,206.800 120.807 C 206.800 120.389,206.980 119.936,207.200 119.800 C 207.463 119.637,207.600 101.140,207.600 65.608 L 207.600 11.662 206.700 9.623 C 206.103 8.269,205.430 7.419,204.700 7.094 C 204.095 6.825,203.600 6.469,203.600 6.302 C 203.600 6.136,201.980 6.000,200.000 6.000 C 197.867 6.000,196.400 6.163,196.400 6.400 M85.600 36.000 C 85.600 36.220,85.324 36.400,84.987 36.400 C 84.203 36.400,81.600 38.985,81.600 39.763 C 81.600 40.087,81.420 40.464,81.200 40.600 C 80.980 40.736,80.800 41.737,80.800 42.824 C 80.800 43.911,80.980 44.800,81.200 44.800 C 81.420 44.800,81.600 45.034,81.600 45.320 C 81.600 46.056,82.541 47.993,82.900 47.997 C 83.065 47.999,83.200 48.360,83.200 48.800 C 83.200 49.240,83.380 49.600,83.600 49.600 C 83.820 49.600,84.000 49.920,84.000 50.312 C 84.000 50.703,84.360 51.283,84.800 51.600 C 85.240 51.917,85.600 52.497,85.600 52.888 C 85.600 53.280,85.780 53.600,86.000 53.600 C 86.220 53.600,86.400 53.960,86.400 54.400 C 86.400 54.840,86.580 55.200,86.800 55.200 C 87.020 55.200,87.200 55.470,87.200 55.800 C 87.200 56.130,87.380 56.400,87.600 56.400 C 87.820 56.400,88.000 56.670,88.000 57.000 C 88.000 57.330,88.180 57.600,88.400 57.600 C 88.620 57.600,88.800 57.870,88.800 58.200 C 88.800 58.530,88.980 58.800,89.200 58.800 C 89.420 58.800,89.600 59.160,89.600 59.600 C 89.600 60.040,89.780 60.400,90.000 60.400 C 90.220 60.400,90.400 60.760,90.400 61.200 C 90.400 61.640,90.563 62.000,90.762 62.000 C 90.961 62.000,91.623 63.080,92.232 64.400 C 92.842 65.720,93.489 66.800,93.670 66.800 C 93.852 66.800,94.000 67.160,94.000 67.600 C 94.000 68.040,94.146 68.400,94.325 68.400 C 94.504 68.400,94.898 69.030,95.200 69.800 C 95.502 70.570,95.896 71.200,96.075 71.200 C 96.254 71.200,96.400 71.470,96.400 71.800 C 96.400 72.130,96.546 72.400,96.725 72.400 C 96.904 72.400,97.298 73.030,97.600 73.800 C 97.902 74.570,98.296 75.200,98.475 75.200 C 98.654 75.200,98.800 75.436,98.800 75.725 C 98.800 76.013,99.160 76.636,99.600 77.108 C 100.040 77.580,100.400 78.244,100.400 78.583 C 100.400 78.922,100.580 79.200,100.800 79.200 C 101.020 79.200,101.200 79.560,101.200 80.000 C 101.200 80.440,101.380 80.800,101.600 80.800 C 101.820 80.800,102.000 81.070,102.000 81.400 C 102.000 81.730,102.180 82.000,102.400 82.000 C 102.620 82.000,102.800 82.270,102.800 82.600 C 102.800 82.930,102.980 83.200,103.200 83.200 C 103.420 83.200,103.600 83.560,103.600 84.000 C 103.600 84.440,103.780 84.800,104.000 84.800 C 104.220 84.800,104.400 85.120,104.400 85.512 C 104.400 85.903,104.760 86.483,105.200 86.800 C 105.640 87.117,106.000 87.697,106.000 88.088 C 106.000 88.480,106.136 88.800,106.302 88.800 C 106.469 88.800,106.859 89.385,107.170 90.100 C 107.481 90.815,107.850 91.490,107.989 91.600 C 108.129 91.710,108.945 93.195,109.803 94.900 C 110.660 96.605,111.506 98.000,111.681 98.000 C 111.857 98.000,112.000 98.360,112.000 98.800 C 112.000 99.240,112.180 99.600,112.400 99.600 C 112.620 99.600,112.800 99.836,112.800 100.125 C 112.800 100.413,113.160 101.036,113.600 101.508 C 114.040 101.980,114.400 102.644,114.400 102.983 C 114.400 103.322,114.580 103.600,114.800 103.600 C 115.020 103.600,115.200 103.960,115.200 104.400 C 115.200 104.840,115.380 105.200,115.600 105.200 C 115.820 105.200,116.000 105.470,116.000 105.800 C 116.000 106.130,116.180 106.400,116.400 106.400 C 116.620 106.400,116.800 106.670,116.800 107.000 C 116.800 107.330,116.980 107.600,117.200 107.600 C 117.420 107.600,117.600 107.870,117.600 108.200 C 117.600 108.530,117.780 108.800,118.000 108.800 C 118.220 108.800,118.400 109.160,118.400 109.600 C 118.400 110.040,118.580 110.400,118.800 110.400 C 119.020 110.400,119.200 110.720,119.200 111.112 C 119.200 111.503,119.560 112.083,120.000 112.400 C 120.440 112.717,120.800 113.297,120.800 113.688 C 120.800 114.080,120.980 114.400,121.200 114.400 C 121.420 114.400,121.600 114.760,121.600 115.200 C 121.600 115.640,121.780 116.000,122.000 116.000 C 122.220 116.000,122.400 116.270,122.400 116.600 C 122.400 116.930,122.580 117.200,122.800 117.200 C 123.020 117.200,123.200 117.470,123.200 117.800 C 123.200 118.130,123.380 118.400,123.600 118.400 C 123.820 118.400,124.000 118.745,124.000 119.167 C 124.000 119.588,124.135 119.993,124.300 120.067 C 124.465 120.140,125.140 121.280,125.800 122.600 C 126.460 123.920,127.213 125.226,127.474 125.502 C 127.734 125.779,128.062 126.364,128.201 126.802 C 128.340 127.241,128.622 127.600,128.827 127.600 C 129.032 127.600,129.200 127.960,129.200 128.400 C 129.200 128.840,129.380 129.200,129.600 129.200 C 129.820 129.200,130.000 129.560,130.000 130.000 C 130.000 130.440,130.158 130.800,130.351 130.800 C 130.545 130.800,130.927 131.340,131.200 132.000 C 131.473 132.660,131.855 133.200,132.049 133.200 C 132.242 133.200,132.400 133.560,132.400 134.000 C 132.400 134.440,132.580 134.800,132.800 134.800 C 133.020 134.800,133.200 135.036,133.200 135.325 C 133.200 135.613,133.560 136.236,134.000 136.708 C 134.440 137.180,134.800 137.778,134.800 138.036 C 134.800 139.374,138.396 141.200,141.030 141.200 C 142.725 141.200,144.800 140.540,144.800 140.000 C 144.800 139.851,145.230 139.532,145.757 139.293 C 147.551 138.475,149.217 130.800,147.600 130.800 C 147.380 130.800,147.200 130.528,147.200 130.195 C 147.200 129.639,146.477 128.076,145.999 127.600 C 145.889 127.490,145.530 126.860,145.202 126.200 C 144.874 125.540,144.289 124.709,143.903 124.353 C 143.516 123.997,143.200 123.412,143.200 123.053 C 143.200 122.694,143.020 122.400,142.800 122.400 C 142.580 122.400,142.400 122.040,142.400 121.600 C 142.400 121.160,142.220 120.800,142.000 120.800 C 141.780 120.800,141.600 120.453,141.600 120.029 C 141.600 119.604,141.375 119.019,141.100 118.729 C 140.825 118.438,140.226 117.480,139.770 116.600 C 138.607 114.358,137.839 113.034,137.568 112.800 C 137.440 112.690,137.081 112.015,136.770 111.300 C 136.459 110.585,136.069 110.000,135.902 110.000 C 135.736 110.000,135.600 109.730,135.600 109.400 C 135.600 109.070,135.420 108.800,135.200 108.800 C 134.980 108.800,134.800 108.530,134.800 108.200 C 134.800 107.870,134.620 107.600,134.400 107.600 C 134.180 107.600,134.000 107.240,134.000 106.800 C 134.000 106.360,133.820 106.000,133.600 106.000 C 133.380 106.000,133.200 105.680,133.200 105.288 C 133.200 104.897,132.840 104.317,132.400 104.000 C 131.960 103.683,131.600 103.103,131.600 102.712 C 131.600 102.320,131.420 102.000,131.200 102.000 C 130.980 102.000,130.800 101.640,130.800 101.200 C 130.800 100.760,130.620 100.400,130.400 100.400 C 130.180 100.400,130.000 100.164,130.000 99.875 C 130.000 99.587,129.640 98.964,129.200 98.492 C 128.760 98.020,128.400 97.356,128.400 97.017 C 128.400 96.678,128.220 96.400,128.000 96.400 C 127.780 96.400,127.600 96.040,127.600 95.600 C 127.600 95.160,127.420 94.800,127.200 94.800 C 126.980 94.800,126.800 94.530,126.800 94.200 C 126.800 93.870,126.620 93.600,126.400 93.600 C 126.180 93.600,126.000 93.330,126.000 93.000 C 126.000 92.670,125.865 92.399,125.700 92.399 C 125.535 92.398,125.067 91.588,124.660 90.599 C 124.254 89.609,123.759 88.800,123.560 88.800 C 123.362 88.800,123.200 88.440,123.200 88.000 C 123.200 87.560,123.020 87.200,122.800 87.200 C 122.580 87.200,122.400 86.840,122.400 86.400 C 122.400 85.960,122.220 85.600,122.000 85.600 C 121.780 85.600,121.600 85.364,121.600 85.075 C 121.600 84.787,121.240 84.164,120.800 83.692 C 120.360 83.220,120.000 82.556,120.000 82.217 C 120.000 81.878,119.841 81.600,119.647 81.600 C 119.452 81.600,119.193 81.285,119.071 80.900 C 118.854 80.213,117.595 77.994,117.199 77.600 C 117.089 77.490,116.729 76.860,116.399 76.200 C 116.070 75.540,115.485 74.651,115.100 74.225 C 114.715 73.798,114.400 73.213,114.400 72.925 C 114.400 72.636,114.220 72.400,114.000 72.400 C 113.780 72.400,113.600 72.040,113.600 71.600 C 113.600 71.160,113.420 70.800,113.200 70.800 C 112.980 70.800,112.800 70.480,112.800 70.088 C 112.800 69.697,112.440 69.117,112.000 68.800 C 111.560 68.483,111.200 67.903,111.200 67.512 C 111.200 67.120,111.020 66.800,110.800 66.800 C 110.580 66.800,110.400 66.440,110.400 66.000 C 110.400 65.560,110.265 65.198,110.100 65.195 C 109.935 65.193,109.441 64.428,109.003 63.495 C 107.981 61.321,105.889 57.839,105.500 57.667 C 105.335 57.593,105.200 57.188,105.200 56.767 C 105.200 56.345,105.020 56.000,104.800 56.000 C 104.580 56.000,104.400 55.722,104.400 55.383 C 104.400 55.044,104.040 54.380,103.600 53.908 C 103.160 53.436,102.800 52.813,102.800 52.525 C 102.800 52.236,102.620 52.000,102.400 52.000 C 102.180 52.000,102.000 51.640,102.000 51.200 C 102.000 50.760,101.820 50.400,101.600 50.400 C 101.380 50.400,101.200 50.164,101.200 49.875 C 101.200 49.587,100.840 48.964,100.400 48.492 C 99.960 48.020,99.600 47.356,99.600 47.017 C 99.600 46.678,99.420 46.400,99.200 46.400 C 98.980 46.400,98.800 46.040,98.800 45.600 C 98.800 45.160,98.620 44.800,98.400 44.800 C 98.180 44.800,98.000 44.530,98.000 44.200 C 98.000 43.870,97.820 43.600,97.600 43.600 C 97.380 43.600,97.200 43.330,97.200 43.000 C 97.200 42.670,97.020 42.400,96.800 42.400 C 96.580 42.400,96.400 42.130,96.400 41.800 C 96.400 41.470,96.220 41.200,96.000 41.200 C 95.780 41.200,95.600 40.912,95.600 40.560 C 95.600 40.209,95.094 39.444,94.475 38.860 C 93.857 38.277,93.233 37.485,93.088 37.100 C 92.943 36.715,92.459 36.400,92.013 36.400 C 91.566 36.400,91.200 36.220,91.200 36.000 C 91.200 35.771,90.000 35.600,88.400 35.600 C 86.800 35.600,85.600 35.771,85.600 36.000 M308.600 36.000 C 308.464 36.220,308.003 36.400,307.576 36.400 C 307.149 36.400,306.800 36.643,306.800 36.941 C 306.800 37.238,306.260 38.046,305.600 38.737 C 304.940 39.428,304.400 40.264,304.400 40.596 C 304.400 40.928,304.220 41.200,304.000 41.200 C 303.780 41.200,303.600 41.470,303.600 41.800 C 303.600 42.130,303.420 42.400,303.200 42.400 C 302.980 42.400,302.800 42.670,302.800 43.000 C 302.800 43.330,302.620 43.600,302.400 43.600 C 302.180 43.600,302.000 43.870,302.000 44.200 C 302.000 44.530,301.820 44.800,301.600 44.800 C 301.380 44.800,301.200 45.160,301.200 45.600 C 301.200 46.040,301.020 46.400,300.800 46.400 C 300.580 46.400,300.400 46.678,300.400 47.017 C 300.400 47.356,300.040 48.020,299.600 48.492 C 299.160 48.964,298.800 49.587,298.800 49.875 C 298.800 50.164,298.620 50.400,298.400 50.400 C 298.180 50.400,298.000 50.760,298.000 51.200 C 298.000 51.640,297.820 52.000,297.600 52.000 C 297.380 52.000,297.200 52.236,297.200 52.525 C 297.200 52.813,296.840 53.436,296.400 53.908 C 295.960 54.380,295.600 55.044,295.600 55.383 C 295.600 55.722,295.420 56.000,295.200 56.000 C 294.980 56.000,294.800 56.345,294.800 56.767 C 294.800 57.188,294.645 57.593,294.456 57.667 C 294.153 57.784,291.839 61.798,290.633 64.297 C 290.395 64.790,290.065 65.195,289.900 65.197 C 289.735 65.199,289.600 65.560,289.600 66.000 C 289.600 66.440,289.420 66.800,289.200 66.800 C 288.980 66.800,288.800 67.120,288.800 67.512 C 288.800 67.903,288.440 68.483,288.000 68.800 C 287.560 69.117,287.200 69.697,287.200 70.088 C 287.200 70.480,287.020 70.800,286.800 70.800 C 286.580 70.800,286.400 71.078,286.400 71.417 C 286.400 71.756,286.040 72.420,285.600 72.892 C 285.160 73.364,284.800 73.987,284.800 74.275 C 284.800 74.564,284.654 74.800,284.475 74.800 C 284.296 74.800,283.902 75.430,283.600 76.200 C 283.298 76.970,282.904 77.600,282.725 77.600 C 282.546 77.600,282.400 77.870,282.400 78.200 C 282.400 78.530,282.220 78.800,282.000 78.800 C 281.780 78.800,281.600 79.070,281.600 79.400 C 281.600 79.730,281.420 80.000,281.200 80.000 C 280.980 80.000,280.800 80.360,280.800 80.800 C 280.800 81.240,280.620 81.600,280.400 81.600 C 280.180 81.600,280.000 81.878,280.000 82.217 C 280.000 82.556,279.640 83.220,279.200 83.692 C 278.760 84.164,278.400 84.787,278.400 85.075 C 278.400 85.364,278.220 85.600,278.000 85.600 C 277.780 85.600,277.600 85.960,277.600 86.400 C 277.600 86.840,277.420 87.200,277.200 87.200 C 276.980 87.200,276.800 87.560,276.800 88.000 C 276.800 88.440,276.638 88.800,276.440 88.800 C 276.241 88.800,275.746 89.609,275.340 90.599 C 274.933 91.588,274.465 92.398,274.300 92.399 C 274.135 92.399,274.000 92.670,274.000 93.000 C 274.000 93.330,273.820 93.600,273.600 93.600 C 273.380 93.600,273.200 93.870,273.200 94.200 C 273.200 94.530,273.020 94.800,272.800 94.800 C 272.580 94.800,272.400 95.160,272.400 95.600 C 272.400 96.040,272.220 96.400,272.000 96.400 C 271.780 96.400,271.600 96.678,271.600 97.017 C 271.600 97.356,271.240 98.020,270.800 98.492 C 270.360 98.964,270.000 99.587,270.000 99.875 C 270.000 100.164,269.820 100.400,269.600 100.400 C 269.380 100.400,269.200 100.760,269.200 101.200 C 269.200 101.640,269.020 102.000,268.800 102.000 C 268.580 102.000,268.400 102.320,268.400 102.712 C 268.400 103.103,268.040 103.683,267.600 104.000 C 267.160 104.317,266.800 104.897,266.800 105.288 C 266.800 105.680,266.620 106.000,266.400 106.000 C 266.180 106.000,266.000 106.360,266.000 106.800 C 266.000 107.240,265.820 107.600,265.600 107.600 C 265.380 107.600,265.200 107.870,265.200 108.200 C 265.200 108.530,265.020 108.800,264.800 108.800 C 264.580 108.800,264.400 109.070,264.400 109.400 C 264.400 109.730,264.264 110.000,264.098 110.000 C 263.931 110.000,263.541 110.585,263.230 111.300 C 262.919 112.015,262.560 112.690,262.432 112.800 C 262.122 113.068,261.252 114.588,260.087 116.898 C 259.561 117.942,258.966 118.897,258.765 119.021 C 258.564 119.146,258.400 119.597,258.400 120.024 C 258.400 120.451,258.220 120.800,258.000 120.800 C 257.780 120.800,257.600 121.160,257.600 121.600 C 257.600 122.040,257.420 122.400,257.200 122.400 C 256.980 122.400,256.800 122.694,256.800 123.053 C 256.800 123.412,256.484 123.997,256.097 124.353 C 255.711 124.709,255.126 125.540,254.798 126.200 C 254.470 126.860,254.111 127.490,254.001 127.600 C 252.073 129.521,251.218 136.211,252.728 137.553 C 253.128 137.909,253.572 138.515,253.715 138.900 C 253.858 139.285,254.251 139.600,254.587 139.600 C 254.924 139.600,255.200 139.780,255.200 140.000 C 255.200 140.220,255.549 140.400,255.976 140.400 C 256.403 140.400,256.864 140.580,257.000 140.800 C 257.985 142.393,265.200 139.955,265.200 138.029 C 265.200 137.793,265.380 137.600,265.600 137.600 C 265.820 137.600,266.000 137.330,266.000 137.000 C 266.000 136.670,266.180 136.400,266.400 136.400 C 266.620 136.400,266.800 136.040,266.800 135.600 C 266.800 135.160,266.980 134.800,267.200 134.800 C 267.420 134.800,267.600 134.522,267.600 134.183 C 267.600 133.844,267.960 133.180,268.400 132.708 C 268.840 132.236,269.200 131.613,269.200 131.325 C 269.200 131.036,269.380 130.800,269.600 130.800 C 269.820 130.800,270.000 130.440,270.000 130.000 C 270.000 129.560,270.180 129.200,270.400 129.200 C 270.620 129.200,270.800 128.922,270.800 128.583 C 270.800 128.244,271.160 127.580,271.600 127.108 C 272.040 126.636,272.400 126.013,272.400 125.725 C 272.400 125.436,272.580 125.200,272.800 125.200 C 273.020 125.200,273.200 125.016,273.200 124.792 C 273.200 124.568,273.650 123.671,274.200 122.800 C 274.750 121.929,275.200 120.942,275.200 120.608 C 275.200 120.274,275.380 120.000,275.600 120.000 C 275.820 120.000,276.000 119.722,276.000 119.383 C 276.000 119.044,276.360 118.380,276.800 117.908 C 277.240 117.436,277.600 116.813,277.600 116.525 C 277.600 116.236,277.780 116.000,278.000 116.000 C 278.220 116.000,278.400 115.640,278.400 115.200 C 278.400 114.760,278.580 114.400,278.800 114.400 C 279.020 114.400,279.200 114.080,279.200 113.688 C 279.200 113.297,279.560 112.717,280.000 112.400 C 280.440 112.083,280.800 111.503,280.800 111.112 C 280.800 110.720,280.980 110.400,281.200 110.400 C 281.420 110.400,281.600 110.040,281.600 109.600 C 281.600 109.160,281.780 108.800,282.000 108.800 C 282.220 108.800,282.400 108.530,282.400 108.200 C 282.400 107.870,282.580 107.600,282.800 107.600 C 283.020 107.600,283.200 107.330,283.200 107.000 C 283.200 106.670,283.380 106.400,283.600 106.400 C 283.820 106.400,284.000 106.130,284.000 105.800 C 284.000 105.470,284.180 105.200,284.400 105.200 C 284.620 105.200,284.800 104.855,284.800 104.433 C 284.800 104.012,284.935 103.607,285.100 103.533 C 285.476 103.366,286.775 101.236,287.071 100.300 C 287.193 99.915,287.452 99.600,287.647 99.600 C 287.841 99.600,288.000 99.240,288.000 98.800 C 288.000 98.360,288.145 98.000,288.321 98.000 C 288.498 98.000,289.083 97.103,289.621 96.006 C 290.160 94.910,290.735 94.010,290.900 94.006 C 291.065 94.003,291.200 93.653,291.200 93.229 C 291.200 92.804,291.470 92.187,291.800 91.857 C 292.130 91.527,292.400 91.064,292.400 90.829 C 292.400 90.593,292.580 90.400,292.800 90.400 C 293.020 90.400,293.200 90.040,293.200 89.600 C 293.200 89.160,293.380 88.800,293.600 88.800 C 293.820 88.800,294.000 88.564,294.000 88.275 C 294.000 87.987,294.360 87.364,294.800 86.892 C 295.240 86.420,295.600 85.756,295.600 85.417 C 295.600 85.078,295.780 84.800,296.000 84.800 C 296.220 84.800,296.400 84.522,296.400 84.183 C 296.400 83.844,296.760 83.180,297.200 82.708 C 297.640 82.236,298.000 81.613,298.000 81.325 C 298.000 81.036,298.180 80.800,298.400 80.800 C 298.620 80.800,298.800 80.440,298.800 80.000 C 298.800 79.560,298.980 79.200,299.200 79.200 C 299.420 79.200,299.600 78.922,299.600 78.583 C 299.600 78.244,299.960 77.580,300.400 77.108 C 300.840 76.636,301.200 76.013,301.200 75.725 C 301.200 75.436,301.346 75.200,301.525 75.200 C 301.704 75.200,302.098 74.570,302.400 73.800 C 302.702 73.030,303.067 72.400,303.212 72.400 C 303.356 72.400,303.908 71.545,304.437 70.500 C 304.967 69.455,305.535 68.540,305.700 68.467 C 305.865 68.393,306.000 67.988,306.000 67.567 C 306.000 67.145,306.149 66.800,306.330 66.800 C 306.512 66.800,307.187 65.720,307.830 64.401 C 308.474 63.081,309.135 62.001,309.300 62.001 C 309.465 62.000,309.600 61.640,309.600 61.200 C 309.600 60.760,309.780 60.400,310.000 60.400 C 310.220 60.400,310.400 60.040,310.400 59.600 C 310.400 59.160,310.580 58.800,310.800 58.800 C 311.020 58.800,311.200 58.530,311.200 58.200 C 311.200 57.870,311.380 57.600,311.600 57.600 C 311.820 57.600,312.000 57.330,312.000 57.000 C 312.000 56.670,312.180 56.400,312.400 56.400 C 312.620 56.400,312.800 56.130,312.800 55.800 C 312.800 55.470,312.980 55.200,313.200 55.200 C 313.420 55.200,313.600 54.840,313.600 54.400 C 313.600 53.960,313.780 53.600,314.000 53.600 C 314.220 53.600,314.400 53.280,314.400 52.888 C 314.400 52.497,314.760 51.917,315.200 51.600 C 315.640 51.283,316.000 50.703,316.000 50.312 C 316.000 49.920,316.180 49.600,316.400 49.600 C 316.620 49.600,316.800 49.240,316.800 48.800 C 316.800 48.360,316.936 48.000,317.102 48.000 C 317.269 48.000,317.640 47.415,317.929 46.700 C 318.217 45.985,318.621 45.087,318.826 44.705 C 320.085 42.367,317.346 36.400,315.013 36.400 C 314.676 36.400,314.400 36.220,314.400 36.000 C 314.400 35.772,313.208 35.600,311.624 35.600 C 310.097 35.600,308.736 35.780,308.600 36.000 M6.400 117.200 C 6.070 117.413,5.201 117.591,4.469 117.594 C 3.432 117.599,2.780 117.972,1.525 119.278 L -0.087 120.956 0.068 124.807 C 0.227 128.766,1.186 130.800,2.894 130.800 C 3.185 130.800,3.683 131.160,4.000 131.600 C 4.317 132.040,4.897 132.400,5.288 132.400 C 5.680 132.400,6.000 132.580,6.000 132.800 C 6.000 133.020,6.278 133.200,6.617 133.200 C 6.956 133.200,7.620 133.560,8.092 134.000 C 8.564 134.440,9.187 134.800,9.475 134.800 C 9.764 134.800,10.000 134.980,10.000 135.200 C 10.000 135.420,10.270 135.600,10.600 135.600 C 10.930 135.600,11.200 135.780,11.200 136.000 C 11.200 136.220,11.560 136.400,12.000 136.400 C 12.440 136.400,12.800 136.559,12.800 136.753 C 12.800 136.948,13.115 137.207,13.500 137.329 C 14.436 137.625,16.566 138.924,16.733 139.300 C 16.807 139.465,17.212 139.600,17.633 139.600 C 18.055 139.600,18.400 139.747,18.400 139.926 C 18.400 140.324,21.001 141.600,21.814 141.600 C 22.136 141.600,22.400 141.780,22.400 142.000 C 22.400 142.220,22.636 142.400,22.925 142.400 C 23.213 142.400,23.798 142.725,24.225 143.122 C 24.651 143.520,25.585 144.103,26.300 144.420 C 27.015 144.736,27.600 145.131,27.600 145.298 C 27.600 145.464,27.870 145.600,28.200 145.600 C 28.530 145.600,28.800 145.780,28.800 146.000 C 28.800 146.220,29.070 146.400,29.400 146.400 C 29.730 146.400,30.000 146.580,30.000 146.800 C 30.000 147.020,30.360 147.200,30.800 147.200 C 31.240 147.200,31.600 147.380,31.600 147.600 C 31.600 147.820,31.878 148.000,32.217 148.000 C 32.556 148.000,33.220 148.360,33.692 148.800 C 34.164 149.240,34.787 149.600,35.075 149.600 C 35.364 149.600,35.600 149.780,35.600 150.000 C 35.600 150.220,35.960 150.400,36.400 150.400 C 36.840 150.400,37.200 150.580,37.200 150.800 C 37.200 151.020,37.520 151.200,37.912 151.200 C 38.303 151.200,38.883 151.560,39.200 152.000 C 39.517 152.440,40.097 152.800,40.488 152.800 C 40.880 152.800,41.200 152.946,41.200 153.125 C 41.200 153.304,41.830 153.698,42.600 154.000 C 43.370 154.302,44.000 154.675,44.000 154.828 C 44.000 154.981,44.945 155.574,46.100 156.146 C 47.255 156.717,48.740 157.547,49.400 157.990 C 50.060 158.433,50.915 158.796,51.300 158.797 C 51.685 158.799,52.000 158.980,52.000 159.200 C 52.000 159.420,52.320 159.600,52.712 159.600 C 53.103 159.600,53.683 159.960,54.000 160.400 C 54.317 160.840,54.897 161.200,55.288 161.200 C 55.680 161.200,56.000 161.380,56.000 161.600 C 56.000 161.820,56.360 162.000,56.800 162.000 C 57.240 162.000,57.600 162.180,57.600 162.400 C 57.600 162.620,57.870 162.800,58.200 162.800 C 58.530 162.800,58.800 162.980,58.800 163.200 C 58.800 163.420,59.070 163.600,59.400 163.600 C 59.730 163.600,60.000 163.780,60.000 164.000 C 60.000 164.220,60.270 164.400,60.600 164.400 C 60.930 164.400,61.200 164.580,61.200 164.800 C 61.200 165.020,61.560 165.200,62.000 165.200 C 62.440 165.200,62.800 165.380,62.800 165.600 C 62.800 165.820,63.036 166.000,63.325 166.000 C 63.613 166.000,64.236 166.360,64.708 166.800 C 65.180 167.240,65.844 167.600,66.183 167.600 C 66.522 167.600,66.800 167.780,66.800 168.000 C 66.800 168.220,67.078 168.400,67.417 168.400 C 67.756 168.400,68.420 168.760,68.892 169.200 C 69.364 169.640,69.987 170.000,70.275 170.000 C 70.564 170.000,70.800 170.180,70.800 170.400 C 70.800 170.620,71.160 170.800,71.600 170.800 C 72.040 170.800,72.400 170.980,72.400 171.200 C 72.400 171.420,72.745 171.600,73.167 171.600 C 73.588 171.600,73.993 171.760,74.067 171.956 C 74.225 172.379,77.343 174.247,78.900 174.851 C 79.505 175.086,80.000 175.441,80.000 175.639 C 80.000 175.838,80.360 176.000,80.800 176.000 C 81.240 176.000,81.600 176.180,81.600 176.400 C 81.600 176.620,81.878 176.800,82.217 176.800 C 82.556 176.800,83.220 177.160,83.692 177.600 C 84.164 178.040,84.787 178.400,85.075 178.400 C 85.364 178.400,85.600 178.580,85.600 178.800 C 85.600 179.020,85.960 179.200,86.400 179.200 C 86.840 179.200,87.200 179.380,87.200 179.600 C 87.200 179.820,87.520 180.000,87.912 180.000 C 88.303 180.000,88.883 180.360,89.200 180.800 C 89.517 181.240,90.097 181.600,90.488 181.600 C 90.880 181.600,91.200 181.746,91.200 181.925 C 91.200 182.104,91.830 182.498,92.600 182.800 C 93.370 183.102,94.000 183.496,94.000 183.675 C 94.000 183.854,95.620 184.000,97.600 184.000 C 99.580 184.000,101.200 183.864,101.200 183.698 C 101.200 183.531,101.695 183.174,102.300 182.903 C 103.347 182.434,104.400 180.839,104.400 179.720 C 104.400 179.434,104.580 179.200,104.800 179.200 C 105.020 179.200,105.200 178.210,105.200 177.000 C 105.200 175.790,105.020 174.800,104.800 174.800 C 104.580 174.800,104.400 174.525,104.400 174.189 C 104.400 173.396,101.004 170.000,100.211 170.000 C 99.875 170.000,99.600 169.820,99.600 169.600 C 99.600 169.380,99.364 169.200,99.075 169.200 C 98.787 169.200,98.164 168.840,97.692 168.400 C 97.220 167.960,96.556 167.600,96.217 167.600 C 95.878 167.600,95.600 167.420,95.600 167.200 C 95.600 166.980,95.240 166.800,94.800 166.800 C 94.360 166.800,94.000 166.642,94.000 166.449 C 94.000 166.255,93.460 165.873,92.800 165.600 C 92.140 165.327,91.600 164.989,91.600 164.849 C 91.600 164.710,91.015 164.341,90.300 164.030 C 89.585 163.719,88.910 163.360,88.800 163.232 C 88.467 162.846,86.247 161.566,85.500 161.329 C 85.115 161.207,84.800 160.948,84.800 160.753 C 84.800 160.559,84.440 160.400,84.000 160.400 C 83.560 160.400,83.200 160.253,83.200 160.074 C 83.200 159.676,80.599 158.400,79.786 158.400 C 79.464 158.400,79.200 158.220,79.200 158.000 C 79.200 157.780,78.964 157.600,78.675 157.600 C 78.387 157.600,77.764 157.240,77.292 156.800 C 76.820 156.360,76.156 156.000,75.817 156.000 C 75.478 156.000,75.200 155.820,75.200 155.600 C 75.200 155.380,74.930 155.200,74.600 155.200 C 74.270 155.200,74.000 155.020,74.000 154.800 C 74.000 154.580,73.730 154.400,73.400 154.400 C 73.070 154.400,72.800 154.220,72.800 154.000 C 72.800 153.780,72.530 153.600,72.200 153.600 C 71.870 153.600,71.600 153.420,71.600 153.200 C 71.600 152.980,71.240 152.800,70.800 152.800 C 70.360 152.800,70.000 152.620,70.000 152.400 C 70.000 152.180,69.722 152.000,69.383 152.000 C 69.044 152.000,68.380 151.640,67.908 151.200 C 67.436 150.760,66.813 150.400,66.525 150.400 C 66.236 150.400,66.000 150.220,66.000 150.000 C 66.000 149.780,65.640 149.600,65.200 149.600 C 64.760 149.600,64.400 149.420,64.400 149.200 C 64.400 148.980,64.080 148.800,63.688 148.800 C 63.297 148.800,62.717 148.440,62.400 148.000 C 62.083 147.560,61.503 147.200,61.112 147.200 C 60.720 147.200,60.400 147.020,60.400 146.800 C 60.400 146.580,60.040 146.400,59.600 146.400 C 59.160 146.400,58.800 146.220,58.800 146.000 C 58.800 145.780,58.564 145.600,58.275 145.600 C 57.987 145.600,57.402 145.285,56.975 144.900 C 56.549 144.515,55.120 143.660,53.800 143.000 C 52.480 142.340,51.340 141.665,51.267 141.500 C 51.193 141.335,50.788 141.200,50.367 141.200 C 49.945 141.200,49.600 141.020,49.600 140.800 C 49.600 140.580,49.280 140.400,48.888 140.400 C 48.497 140.400,47.917 140.040,47.600 139.600 C 47.283 139.160,46.703 138.800,46.312 138.800 C 45.920 138.800,45.600 138.620,45.600 138.400 C 45.600 138.180,45.240 138.000,44.800 138.000 C 44.360 138.000,44.000 137.820,44.000 137.600 C 44.000 137.380,43.706 137.200,43.347 137.200 C 42.988 137.200,42.403 136.871,42.047 136.470 C 41.691 136.068,40.815 135.484,40.100 135.172 C 39.385 134.860,38.800 134.469,38.800 134.302 C 38.800 134.136,38.564 134.000,38.275 134.000 C 37.987 134.000,37.364 133.640,36.892 133.200 C 36.420 132.760,35.756 132.400,35.417 132.400 C 35.078 132.400,34.800 132.220,34.800 132.000 C 34.800 131.780,34.440 131.600,34.000 131.600 C 33.560 131.600,33.200 131.442,33.200 131.249 C 33.200 131.055,32.660 130.673,32.000 130.400 C 31.340 130.127,30.800 129.745,30.800 129.551 C 30.800 129.358,30.440 129.200,30.000 129.200 C 29.560 129.200,29.200 129.020,29.200 128.800 C 29.200 128.580,28.840 128.400,28.400 128.400 C 27.960 128.400,27.600 128.263,27.600 128.097 C 27.600 127.930,26.252 127.075,24.603 126.197 C 22.955 125.318,21.605 124.465,21.603 124.300 C 21.602 124.135,21.240 124.000,20.800 124.000 C 20.360 124.000,20.000 123.820,20.000 123.600 C 20.000 123.380,19.640 123.200,19.200 123.200 C 18.760 123.200,18.400 123.020,18.400 122.800 C 18.400 122.580,18.130 122.400,17.800 122.400 C 17.470 122.400,17.200 122.220,17.200 122.000 C 17.200 121.780,16.930 121.600,16.600 121.600 C 16.270 121.600,16.000 121.420,16.000 121.200 C 16.000 120.980,15.640 120.800,15.200 120.800 C 14.760 120.800,14.400 120.620,14.400 120.400 C 14.400 120.180,14.122 120.000,13.783 120.000 C 13.444 120.000,12.780 119.640,12.308 119.200 C 11.836 118.760,11.213 118.400,10.925 118.400 C 10.636 118.400,10.400 118.220,10.400 118.000 C 10.400 117.780,9.860 117.600,9.200 117.600 C 8.540 117.600,8.000 117.420,8.000 117.200 C 8.000 116.694,7.183 116.694,6.400 117.200 M392.000 117.153 C 392.000 117.399,391.460 117.600,390.800 117.600 C 390.140 117.600,389.600 117.780,389.600 118.000 C 389.600 118.220,389.322 118.400,388.983 118.400 C 388.644 118.400,387.980 118.760,387.508 119.200 C 387.036 119.640,386.413 120.000,386.125 120.000 C 385.836 120.000,385.600 120.180,385.600 120.400 C 385.600 120.620,385.240 120.800,384.800 120.800 C 384.360 120.800,384.000 120.980,384.000 121.200 C 384.000 121.420,383.680 121.600,383.288 121.600 C 382.897 121.600,382.317 121.960,382.000 122.400 C 381.683 122.840,381.103 123.200,380.712 123.200 C 380.320 123.200,380.000 123.380,380.000 123.600 C 380.000 123.820,379.640 124.000,379.200 124.000 C 378.760 124.000,378.398 124.135,378.395 124.300 C 378.393 124.465,377.628 124.957,376.695 125.394 C 375.763 125.831,374.910 126.281,374.800 126.394 C 374.420 126.786,372.197 128.050,371.500 128.271 C 371.115 128.393,370.800 128.652,370.800 128.847 C 370.800 129.041,370.440 129.200,370.000 129.200 C 369.560 129.200,369.200 129.380,369.200 129.600 C 369.200 129.820,368.964 130.000,368.675 130.000 C 368.387 130.000,367.764 130.360,367.292 130.800 C 366.820 131.240,366.156 131.600,365.817 131.600 C 365.478 131.600,365.200 131.780,365.200 132.000 C 365.200 132.220,364.840 132.400,364.400 132.400 C 363.960 132.400,363.600 132.580,363.600 132.800 C 363.600 133.020,363.364 133.200,363.075 133.200 C 362.787 133.200,362.164 133.560,361.692 134.000 C 361.220 134.440,360.556 134.800,360.217 134.800 C 359.878 134.800,359.600 134.980,359.600 135.200 C 359.600 135.420,359.330 135.600,359.000 135.600 C 358.670 135.600,358.400 135.780,358.400 136.000 C 358.400 136.220,358.164 136.400,357.875 136.400 C 357.587 136.400,356.964 136.760,356.492 137.200 C 356.020 137.640,355.356 138.000,355.017 138.000 C 354.678 138.000,354.400 138.180,354.400 138.400 C 354.400 138.620,354.122 138.800,353.783 138.800 C 353.444 138.800,352.780 139.160,352.308 139.600 C 351.836 140.040,351.213 140.400,350.925 140.400 C 350.636 140.400,350.400 140.580,350.400 140.800 C 350.400 141.020,350.040 141.200,349.600 141.200 C 349.160 141.200,348.800 141.380,348.800 141.600 C 348.800 141.820,348.451 142.000,348.024 142.000 C 347.597 142.000,347.143 142.168,347.016 142.374 C 346.889 142.580,345.822 143.220,344.645 143.796 C 343.468 144.371,342.129 145.193,341.669 145.621 C 341.210 146.050,340.556 146.400,340.217 146.400 C 339.878 146.400,339.600 146.580,339.600 146.800 C 339.600 147.020,339.322 147.200,338.983 147.200 C 338.644 147.200,337.980 147.560,337.508 148.000 C 337.036 148.440,336.413 148.800,336.125 148.800 C 335.836 148.800,335.600 148.980,335.600 149.200 C 335.600 149.420,335.240 149.600,334.800 149.600 C 334.360 149.600,334.000 149.780,334.000 150.000 C 334.000 150.220,333.680 150.400,333.288 150.400 C 332.897 150.400,332.317 150.760,332.000 151.200 C 331.683 151.640,331.103 152.000,330.712 152.000 C 330.320 152.000,330.000 152.180,330.000 152.400 C 330.000 152.620,329.640 152.800,329.200 152.800 C 328.760 152.800,328.400 152.980,328.400 153.200 C 328.400 153.420,328.130 153.600,327.800 153.600 C 327.470 153.600,327.200 153.780,327.200 154.000 C 327.200 154.220,326.930 154.400,326.600 154.400 C 326.270 154.400,326.000 154.580,326.000 154.800 C 326.000 155.020,325.730 155.200,325.400 155.200 C 325.070 155.200,324.800 155.380,324.800 155.600 C 324.800 155.820,324.440 156.000,324.000 156.000 C 323.560 156.000,323.200 156.180,323.200 156.400 C 323.200 156.620,322.880 156.800,322.488 156.800 C 322.097 156.800,321.517 157.160,321.200 157.600 C 320.883 158.040,320.399 158.400,320.125 158.400 C 319.381 158.400,316.800 159.699,316.800 160.074 C 316.800 160.253,316.455 160.400,316.033 160.400 C 315.612 160.400,315.207 160.535,315.133 160.700 C 315.060 160.865,314.145 161.433,313.100 161.963 C 312.055 162.492,311.200 163.044,311.200 163.188 C 311.200 163.333,310.570 163.698,309.800 164.000 C 309.030 164.302,308.400 164.696,308.400 164.875 C 308.400 165.054,308.164 165.200,307.875 165.200 C 307.587 165.200,306.964 165.560,306.492 166.000 C 306.020 166.440,305.356 166.800,305.017 166.800 C 304.678 166.800,304.400 166.980,304.400 167.200 C 304.400 167.420,304.040 167.600,303.600 167.600 C 303.160 167.600,302.800 167.780,302.800 168.000 C 302.800 168.220,302.564 168.400,302.275 168.400 C 301.987 168.400,301.364 168.760,300.892 169.200 C 300.420 169.640,299.822 170.000,299.564 170.000 C 299.305 170.000,298.803 170.327,298.447 170.728 C 298.091 171.128,297.485 171.572,297.100 171.715 C 296.715 171.858,296.400 172.251,296.400 172.587 C 296.400 172.924,296.220 173.200,296.000 173.200 C 295.780 173.200,295.600 173.560,295.600 174.000 C 295.600 174.440,295.420 174.800,295.200 174.800 C 294.980 174.800,294.800 175.433,294.800 176.206 C 294.800 177.811,295.644 180.800,296.097 180.800 C 296.264 180.800,296.400 181.060,296.400 181.377 C 296.400 181.695,296.940 182.274,297.600 182.664 C 298.260 183.054,298.800 183.514,298.800 183.686 C 298.800 183.859,300.420 184.000,302.400 184.000 C 304.533 184.000,306.000 183.837,306.000 183.600 C 306.000 183.380,306.360 183.200,306.800 183.200 C 307.240 183.200,307.600 183.020,307.600 182.800 C 307.600 182.580,307.870 182.400,308.200 182.400 C 308.530 182.400,308.800 182.220,308.800 182.000 C 308.800 181.780,309.120 181.600,309.512 181.600 C 309.903 181.600,310.483 181.240,310.800 180.800 C 311.117 180.360,311.697 180.000,312.088 180.000 C 312.480 180.000,312.800 179.820,312.800 179.600 C 312.800 179.380,313.160 179.200,313.600 179.200 C 314.040 179.200,314.400 179.020,314.400 178.800 C 314.400 178.580,314.636 178.400,314.925 178.400 C 315.213 178.400,315.836 178.040,316.308 177.600 C 316.780 177.160,317.444 176.800,317.783 176.800 C 318.122 176.800,318.400 176.620,318.400 176.400 C 318.400 176.180,318.760 176.000,319.200 176.000 C 319.640 176.000,320.000 175.865,320.000 175.699 C 320.000 175.534,321.044 174.906,322.321 174.303 C 323.597 173.700,325.030 172.845,325.504 172.403 C 325.978 171.962,326.644 171.600,326.983 171.600 C 327.322 171.600,327.600 171.420,327.600 171.200 C 327.600 170.980,327.960 170.800,328.400 170.800 C 328.840 170.800,329.200 170.620,329.200 170.400 C 329.200 170.180,329.436 170.000,329.725 170.000 C 330.013 170.000,330.636 169.640,331.108 169.200 C 331.580 168.760,332.244 168.400,332.583 168.400 C 332.922 168.400,333.200 168.220,333.200 168.000 C 333.200 167.780,333.478 167.600,333.817 167.600 C 334.156 167.600,334.820 167.240,335.292 166.800 C 335.764 166.360,336.387 166.000,336.675 166.000 C 336.964 166.000,337.200 165.820,337.200 165.600 C 337.200 165.380,337.560 165.200,338.000 165.200 C 338.440 165.200,338.800 165.020,338.800 164.800 C 338.800 164.580,339.070 164.400,339.400 164.400 C 339.730 164.400,340.000 164.220,340.000 164.000 C 340.000 163.780,340.270 163.600,340.600 163.600 C 340.930 163.600,341.200 163.420,341.200 163.200 C 341.200 162.980,341.470 162.800,341.800 162.800 C 342.130 162.800,342.400 162.620,342.400 162.400 C 342.400 162.180,342.760 162.000,343.200 162.000 C 343.640 162.000,344.000 161.820,344.000 161.600 C 344.000 161.380,344.320 161.200,344.712 161.200 C 345.103 161.200,345.683 160.840,346.000 160.400 C 346.317 159.960,346.897 159.600,347.288 159.600 C 347.680 159.600,348.000 159.420,348.000 159.200 C 348.000 158.980,348.287 158.800,348.638 158.800 C 349.218 158.800,351.513 157.701,352.000 157.190 C 352.110 157.075,353.055 156.535,354.100 155.991 C 355.145 155.447,356.000 154.900,356.000 154.775 C 356.000 154.651,356.630 154.302,357.400 154.000 C 358.170 153.698,358.800 153.304,358.800 153.125 C 358.800 152.946,359.120 152.800,359.512 152.800 C 359.903 152.800,360.483 152.440,360.800 152.000 C 361.117 151.560,361.697 151.200,362.088 151.200 C 362.480 151.200,362.800 151.020,362.800 150.800 C 362.800 150.580,363.160 150.400,363.600 150.400 C 364.040 150.400,364.400 150.220,364.400 150.000 C 364.400 149.780,364.636 149.600,364.925 149.600 C 365.213 149.600,365.836 149.240,366.308 148.800 C 366.780 148.360,367.444 148.000,367.783 148.000 C 368.122 148.000,368.400 147.820,368.400 147.600 C 368.400 147.380,368.678 147.200,369.017 147.200 C 369.356 147.200,370.020 146.840,370.492 146.400 C 370.964 145.960,371.587 145.600,371.875 145.600 C 372.164 145.600,372.400 145.464,372.400 145.298 C 372.400 145.131,372.985 144.740,373.700 144.428 C 374.415 144.116,375.291 143.532,375.647 143.130 C 376.003 142.729,376.588 142.400,376.947 142.400 C 377.306 142.400,377.600 142.220,377.600 142.000 C 377.600 141.780,377.864 141.600,378.186 141.600 C 378.999 141.600,381.600 140.324,381.600 139.926 C 381.600 139.747,381.960 139.600,382.400 139.600 C 382.840 139.600,383.200 139.441,383.200 139.247 C 383.200 139.052,383.515 138.793,383.900 138.671 C 384.647 138.434,386.867 137.154,387.200 136.768 C 387.310 136.640,387.985 136.281,388.700 135.970 C 389.415 135.659,390.000 135.269,390.000 135.102 C 390.000 134.936,390.270 134.800,390.600 134.800 C 390.930 134.800,391.200 134.620,391.200 134.400 C 391.200 134.180,391.470 134.000,391.800 134.000 C 392.130 134.000,392.400 133.820,392.400 133.600 C 392.400 133.380,392.760 133.200,393.200 133.200 C 393.640 133.200,394.000 133.020,394.000 132.800 C 394.000 132.580,394.320 132.400,394.712 132.400 C 395.103 132.400,395.683 132.040,396.000 131.600 C 396.317 131.160,396.815 130.800,397.106 130.800 C 398.814 130.800,399.773 128.766,399.932 124.807 L 400.087 120.956 398.522 119.327 C 397.358 118.116,396.554 117.647,395.379 117.495 C 394.511 117.383,393.395 117.159,392.900 116.999 C 392.330 116.814,392.000 116.870,392.000 117.153 M200.500 177.087 C 201.105 177.178,202.095 177.178,202.700 177.087 C 203.305 176.995,202.810 176.920,201.600 176.920 C 200.390 176.920,199.895 176.995,200.500 177.087 M208.033 177.346 C 208.125 177.426,209.190 177.594,210.400 177.719 C 211.820 177.866,212.246 177.829,211.600 177.613 C 210.609 177.283,207.713 177.065,208.033 177.346 M213.633 178.144 C 213.725 178.224,214.610 178.396,215.600 178.527 C 216.802 178.686,217.134 178.647,216.600 178.410 C 215.836 178.072,213.286 177.843,213.633 178.144 M218.033 178.944 C 218.125 179.023,218.740 179.208,219.400 179.356 C 220.276 179.552,220.438 179.515,220.000 179.218 C 219.460 178.853,217.632 178.598,218.033 178.944 M242.200 188.207 C 242.640 188.566,243.360 189.035,243.800 189.251 L 244.600 189.644 243.800 188.993 C 243.360 188.634,242.640 188.165,242.200 187.949 L 241.400 187.556 242.200 188.207 M201.400 190.415 C 202.966 190.747,208.296 190.941,207.967 190.655 C 207.875 190.575,206.000 190.413,203.800 190.294 C 201.137 190.149,200.335 190.190,201.400 190.415 M245.600 190.101 C 245.600 190.355,248.696 192.400,249.080 192.400 C 249.244 192.400,249.023 192.158,248.589 191.861 C 246.681 190.559,245.600 189.922,245.600 190.101 M210.000 191.180 C 210.999 191.520,213.482 191.732,213.167 191.451 C 213.075 191.369,212.100 191.199,211.000 191.072 C 209.651 190.916,209.326 190.951,210.000 191.180 M215.000 192.000 C 215.440 192.189,216.160 192.338,216.600 192.332 C 217.243 192.323,217.204 192.257,216.400 192.000 C 215.032 191.562,213.981 191.562,215.000 192.000 M218.000 192.782 C 218.330 193.005,218.945 193.191,219.367 193.194 C 220.390 193.202,220.071 192.973,218.600 192.644 C 217.724 192.448,217.562 192.485,218.000 192.782 M225.600 195.133 C 225.930 195.336,226.650 195.624,227.200 195.771 C 227.895 195.957,228.017 195.925,227.600 195.667 C 227.270 195.464,226.550 195.176,226.000 195.029 C 225.305 194.843,225.183 194.875,225.600 195.133 M255.374 197.493 C 256.240 198.424,257.035 199.099,257.141 198.993 C 257.247 198.887,257.256 198.755,257.162 198.700 C 257.068 198.645,256.273 197.970,255.396 197.201 L 253.800 195.801 255.374 197.493 M234.800 199.390 C 234.800 199.494,235.385 199.865,236.100 200.214 L 237.400 200.848 236.400 200.033 C 235.437 199.248,234.800 198.992,234.800 199.390 M260.400 202.191 C 261.610 203.506,262.645 204.661,262.700 204.757 C 262.755 204.854,262.885 204.848,262.990 204.744 C 263.094 204.640,262.059 203.485,260.690 202.177 L 258.200 199.800 260.400 202.191 M238.800 201.737 C 238.800 201.823,239.565 202.398,240.500 203.015 C 241.461 203.649,241.952 203.834,241.629 203.442 C 241.087 202.782,238.800 201.404,238.800 201.737 M264.600 206.800 C 265.459 207.680,266.252 208.400,266.362 208.400 C 266.472 208.400,265.859 207.680,265.000 206.800 C 264.141 205.920,263.348 205.200,263.238 205.200 C 263.128 205.200,263.741 205.920,264.600 206.800 M245.600 206.525 C 245.600 206.594,246.185 207.179,246.900 207.825 L 248.200 209.000 247.025 207.700 C 245.930 206.488,245.600 206.216,245.600 206.525 M249.238 210.100 C 249.332 210.155,250.127 210.830,251.004 211.600 L 252.600 213.000 251.222 211.500 C 250.463 210.675,249.668 210.000,249.455 210.000 C 249.241 210.000,249.144 210.045,249.238 210.100 M254.056 215.100 C 255.061 216.145,256.198 217.450,256.583 218.000 C 256.968 218.550,257.207 218.738,257.114 218.419 C 256.886 217.632,253.098 213.262,252.615 213.227 C 252.403 213.212,253.052 214.055,254.056 215.100 M270.693 214.797 C 271.268 215.676,271.810 216.323,271.898 216.235 C 272.110 216.023,270.278 213.211,269.924 213.205 C 269.771 213.202,270.118 213.919,270.693 214.797 M273.856 219.900 C 275.244 222.318,276.000 223.451,276.000 223.110 C 276.000 222.719,273.197 218.000,272.964 218.000 C 272.855 218.000,273.257 218.855,273.856 219.900 M260.015 222.600 C 260.017 222.820,260.386 223.450,260.836 224.000 C 261.379 224.664,261.515 224.731,261.240 224.200 C 260.566 222.895,260.012 222.172,260.015 222.600 M262.406 226.436 C 262.403 226.566,262.937 227.646,263.593 228.836 C 264.906 231.218,265.271 231.259,264.015 228.884 C 263.090 227.133,262.415 226.106,262.406 226.436 M282.056 239.200 C 282.056 239.530,282.211 240.160,282.400 240.600 C 282.617 241.104,282.744 241.178,282.744 240.800 C 282.744 240.470,282.589 239.840,282.400 239.400 C 282.183 238.896,282.056 238.822,282.056 239.200 M269.044 242.200 C 269.373 243.671,269.602 243.990,269.594 242.967 C 269.591 242.545,269.405 241.930,269.182 241.600 C 268.885 241.162,268.848 241.324,269.044 242.200 M282.868 242.200 C 282.862 242.640,283.011 243.360,283.200 243.800 C 283.638 244.819,283.638 243.768,283.200 242.400 C 282.943 241.596,282.877 241.557,282.868 242.200 M269.656 244.400 C 269.656 244.730,269.811 245.360,270.000 245.800 C 270.217 246.304,270.344 246.378,270.344 246.000 C 270.344 245.670,270.189 245.040,270.000 244.600 C 269.783 244.096,269.656 244.022,269.656 244.400 M283.687 246.000 C 283.683 246.550,283.824 247.450,284.000 248.000 C 284.431 249.344,284.431 247.892,284.000 246.200 C 283.726 245.122,283.694 245.102,283.687 246.000 M270.893 250.000 C 270.893 250.770,270.975 251.085,271.076 250.700 C 271.176 250.315,271.176 249.685,271.076 249.300 C 270.975 248.915,270.893 249.230,270.893 250.000 M284.672 252.200 C 284.799 253.300,284.969 254.275,285.051 254.367 C 285.332 254.682,285.120 252.199,284.780 251.200 C 284.551 250.526,284.516 250.851,284.672 252.200 M271.492 255.400 C 271.588 257.380,271.727 259.180,271.801 259.400 C 272.084 260.235,271.906 253.752,271.620 252.800 C 271.454 252.250,271.397 253.420,271.492 255.400 M285.320 261.200 C 285.320 262.410,285.395 262.905,285.487 262.300 C 285.578 261.695,285.578 260.705,285.487 260.100 C 285.395 259.495,285.320 259.990,285.320 261.200 M273.114 265.804 C 273.341 266.247,273.948 266.966,274.463 267.402 C 275.367 268.166,275.365 268.152,274.406 266.997 C 272.813 265.079,272.679 264.955,273.114 265.804 M281.800 268.027 C 281.140 268.450,280.805 268.797,281.056 268.798 C 281.306 268.799,281.936 268.446,282.456 268.013 C 283.645 267.023,283.359 267.029,281.800 268.027 " stroke="none" fill="#fc4c24" fill-rule="evenodd"></path><path id="path3" d="M200.000 166.580 C 200.000 174.564,199.897 176.419,199.438 176.680 C 199.128 176.856,201.243 177.045,204.138 177.100 C 209.063 177.193,211.731 177.480,216.600 178.439 C 220.715 179.250,225.961 180.685,228.200 181.612 C 228.640 181.794,230.027 182.310,231.282 182.759 C 235.464 184.255,248.324 191.146,249.200 192.361 C 249.310 192.514,250.030 193.071,250.800 193.600 C 251.570 194.129,252.290 194.661,252.400 194.783 C 252.510 194.905,253.320 195.538,254.200 196.191 C 256.892 198.186,264.873 206.414,267.402 209.800 C 268.716 211.560,270.079 213.318,270.432 213.707 C 270.784 214.095,271.320 214.905,271.624 215.507 C 271.927 216.108,272.660 217.329,273.251 218.219 C 277.889 225.198,282.891 238.735,284.404 248.400 C 286.515 261.878,285.424 267.728,280.600 268.810 C 275.066 270.052,272.311 266.921,271.790 258.800 C 270.975 246.101,266.949 233.161,261.128 224.528 C 260.507 223.608,260.000 222.663,260.000 222.428 C 260.000 222.193,259.859 222.000,259.686 222.000 C 259.514 222.000,259.075 221.505,258.711 220.900 C 256.646 217.466,249.181 209.492,245.200 206.468 C 244.430 205.883,243.710 205.299,243.600 205.170 C 241.125 202.268,226.034 194.734,219.600 193.189 C 218.830 193.004,217.480 192.653,216.600 192.408 C 214.160 191.729,210.688 191.239,205.400 190.828 C 202.760 190.623,200.330 190.382,200.000 190.293 C 199.670 190.204,199.535 190.207,199.700 190.299 C 199.865 190.391,200.000 221.412,200.000 259.233 L 200.000 328.000 252.551 328.000 C 296.672 328.000,305.175 327.912,305.559 327.450 C 306.120 326.774,306.169 258.483,305.610 256.358 C 305.414 255.611,305.150 253.470,305.024 251.600 C 304.593 245.211,304.333 243.000,303.966 242.620 C 303.765 242.411,303.600 241.556,303.600 240.720 C 303.600 239.884,303.420 239.200,303.200 239.200 C 302.980 239.200,302.800 238.491,302.800 237.624 C 302.800 236.757,302.620 235.936,302.400 235.800 C 302.180 235.664,302.000 235.034,302.000 234.400 C 302.000 233.766,301.820 233.136,301.600 233.000 C 301.380 232.864,301.200 232.133,301.200 231.376 C 301.200 230.619,301.020 230.000,300.800 230.000 C 300.580 230.000,300.400 229.550,300.400 229.000 C 300.400 228.450,300.220 228.000,300.000 228.000 C 299.780 228.000,299.600 227.561,299.600 227.024 C 299.600 226.487,299.420 225.936,299.200 225.800 C 298.980 225.664,298.800 225.124,298.800 224.600 C 298.800 224.076,298.620 223.536,298.400 223.400 C 298.180 223.264,298.000 222.803,298.000 222.376 C 298.000 221.949,297.820 221.600,297.600 221.600 C 297.380 221.600,297.200 221.251,297.200 220.824 C 297.200 220.397,297.020 219.936,296.800 219.800 C 296.580 219.664,296.400 219.203,296.400 218.776 C 296.400 218.349,296.264 218.000,296.098 218.000 C 295.931 218.000,295.544 217.415,295.236 216.700 C 293.810 213.386,293.012 211.789,292.719 211.667 C 292.543 211.593,292.400 211.351,292.400 211.128 C 292.400 210.906,292.066 210.246,291.657 209.662 C 291.249 209.078,290.459 207.776,289.903 206.768 C 288.199 203.681,287.808 203.008,287.598 202.800 C 287.486 202.690,286.242 201.070,284.833 199.200 C 283.424 197.330,282.120 195.740,281.935 195.667 C 281.751 195.593,281.600 195.365,281.600 195.160 C 281.600 194.955,280.295 193.469,278.700 191.859 C 277.105 190.248,274.628 187.686,273.197 186.165 C 270.605 183.413,265.556 179.098,262.703 177.197 C 261.879 176.649,261.204 176.065,261.203 175.900 C 261.201 175.735,260.906 175.600,260.547 175.600 C 260.188 175.600,259.603 175.284,259.247 174.897 C 258.891 174.511,258.060 173.926,257.400 173.597 C 256.740 173.269,255.851 172.685,255.425 172.300 C 254.998 171.915,254.428 171.600,254.158 171.600 C 253.888 171.600,253.607 171.465,253.533 171.300 C 253.337 170.859,251.474 169.824,247.200 167.782 C 245.110 166.784,243.087 165.794,242.705 165.583 C 242.323 165.373,241.738 165.200,241.405 165.200 C 241.072 165.200,240.800 165.053,240.800 164.872 C 240.800 164.692,239.900 164.300,238.800 164.000 C 237.700 163.700,236.800 163.308,236.800 163.128 C 236.800 162.947,236.464 162.800,236.053 162.800 C 235.643 162.800,234.428 162.464,233.353 162.054 C 230.154 160.831,228.354 160.313,228.119 160.547 C 227.998 160.669,227.412 160.517,226.818 160.209 C 226.224 159.902,225.392 159.706,224.969 159.773 C 224.546 159.841,224.020 159.786,223.800 159.651 C 222.884 159.089,219.659 158.434,217.724 158.418 C 216.582 158.408,215.536 158.220,215.400 158.000 C 215.264 157.780,213.824 157.600,212.200 157.600 C 210.576 157.600,209.136 157.420,209.000 157.200 C 208.860 156.973,206.863 156.800,204.376 156.800 L 200.000 156.800 200.000 166.580 " stroke="none" fill="#cc2c04" fill-rule="evenodd"></path><path id="path4" d="M190.600 157.200 C 190.464 157.420,189.024 157.600,187.400 157.600 C 185.776 157.600,184.336 157.780,184.200 158.000 C 184.064 158.220,182.883 158.400,181.576 158.400 C 180.269 158.400,179.200 158.538,179.200 158.707 C 179.200 158.875,178.460 159.033,177.555 159.057 C 176.650 159.080,175.774 159.318,175.610 159.584 C 175.445 159.850,175.194 160.042,175.052 160.010 C 174.446 159.874,170.943 160.472,170.305 160.820 C 169.923 161.029,169.169 161.200,168.629 161.200 C 168.089 161.200,167.536 161.380,167.400 161.600 C 167.264 161.820,166.713 162.000,166.176 162.000 C 165.639 162.000,165.200 162.180,165.200 162.400 C 165.200 162.620,164.838 162.800,164.395 162.800 C 163.952 162.800,163.232 162.980,162.795 163.200 C 162.358 163.420,161.642 163.780,161.205 164.000 C 160.768 164.220,160.183 164.406,159.905 164.413 C 159.627 164.419,158.325 164.959,157.010 165.613 C 155.696 166.266,154.391 166.800,154.110 166.800 C 153.830 166.800,153.600 166.980,153.600 167.200 C 153.600 167.420,153.240 167.600,152.800 167.600 C 152.360 167.600,152.000 167.780,152.000 168.000 C 152.000 168.220,151.640 168.400,151.200 168.400 C 150.760 168.400,150.400 168.580,150.400 168.800 C 150.400 169.020,150.122 169.200,149.783 169.200 C 149.444 169.200,148.780 169.560,148.308 170.000 C 147.836 170.440,147.213 170.800,146.925 170.800 C 146.636 170.800,146.400 170.980,146.400 171.200 C 146.400 171.420,146.207 171.600,145.972 171.600 C 145.737 171.600,144.759 172.140,143.800 172.800 C 142.841 173.460,141.863 174.000,141.628 174.000 C 141.393 174.000,141.200 174.150,141.200 174.332 C 141.200 174.515,140.705 174.919,140.100 175.230 C 139.495 175.540,138.712 176.107,138.359 176.490 C 138.007 176.872,137.602 177.069,137.459 176.926 C 137.317 176.783,137.200 176.865,137.200 177.106 C 137.200 177.348,136.834 177.662,136.387 177.804 C 135.940 177.946,135.169 178.467,134.674 178.963 C 134.178 179.458,133.479 180.029,133.119 180.232 C 132.115 180.797,124.000 188.508,124.000 188.896 C 124.000 189.084,122.695 190.539,121.100 192.129 C 118.119 195.099,117.685 195.600,116.014 198.000 C 115.477 198.770,114.931 199.490,114.800 199.600 C 114.669 199.710,114.129 200.430,113.600 201.200 C 113.071 201.970,112.526 202.690,112.389 202.800 C 112.252 202.910,111.704 203.810,111.170 204.800 C 110.637 205.790,110.020 206.732,109.800 206.894 C 109.580 207.056,109.548 207.191,109.729 207.194 C 109.909 207.197,109.773 207.485,109.425 207.832 C 109.077 208.180,108.895 208.630,109.020 208.832 C 109.145 209.035,109.057 209.200,108.824 209.200 C 108.591 209.200,108.400 209.470,108.400 209.800 C 108.400 210.130,108.245 210.400,108.057 210.400 C 107.868 210.400,106.770 212.335,105.616 214.700 C 104.463 217.065,103.358 219.313,103.160 219.695 C 102.962 220.077,102.800 220.662,102.800 220.995 C 102.800 221.328,102.620 221.600,102.400 221.600 C 102.180 221.600,102.000 221.949,102.000 222.376 C 102.000 222.803,101.820 223.264,101.600 223.400 C 101.380 223.536,101.200 224.087,101.200 224.624 C 101.200 225.161,101.020 225.600,100.800 225.600 C 100.580 225.600,100.400 226.039,100.400 226.576 C 100.400 227.113,100.220 227.664,100.000 227.800 C 99.780 227.936,99.600 228.487,99.600 229.024 C 99.600 229.561,99.420 230.000,99.200 230.000 C 98.980 230.000,98.800 230.529,98.800 231.176 C 98.800 231.823,98.620 232.464,98.400 232.600 C 98.180 232.736,98.000 233.456,98.000 234.200 C 98.000 234.944,97.820 235.664,97.600 235.800 C 97.380 235.936,97.200 236.667,97.200 237.424 C 97.200 238.181,97.020 238.800,96.800 238.800 C 96.580 238.800,96.400 239.700,96.400 240.800 C 96.400 241.900,96.235 242.800,96.034 242.800 C 95.833 242.800,95.569 243.925,95.447 245.300 C 95.326 246.675,95.011 249.780,94.747 252.200 C 94.415 255.253,94.258 267.497,94.234 292.200 L 94.200 327.800 147.100 327.901 L 200.000 328.003 200.000 259.244 C 200.000 184.536,200.159 190.000,197.988 190.000 C 197.577 190.000,196.396 189.202,195.363 188.226 L 193.485 186.453 193.460 183.673 C 193.424 179.794,194.701 178.123,198.600 176.944 L 199.800 176.581 199.907 166.691 L 200.014 156.800 195.431 156.800 C 192.806 156.800,190.742 156.971,190.600 157.200 M226.300 328.300 C 240.655 328.358,264.145 328.358,278.500 328.300 C 292.855 328.242,281.110 328.194,252.400 328.194 C 223.690 328.194,211.945 328.242,226.300 328.300 " stroke="none" fill="#ac2404" fill-rule="evenodd"></path></g></svg>