<svg xmlns="http://www.w3.org/2000/svg" viewBox="0 0 141.73 141.73"><defs><style>.cls-1{fill:#2b3990;}.cls-2{fill:#fff;}</style></defs><g id="Layer_2" data-name="Layer 2"><g id="Layer_1-2" data-name="Layer 1"><path class="cls-1" d="M70.87,0a70.87,70.87,0,1,0,70.86,70.87A70.87,70.87,0,0,0,70.87,0Z"/><path class="cls-2" d="M50.07,42.74H47.7c-4.48,0-6.93,2.53-6.93,7.59V74.71c0,6.28-2.12,8.48-7.09,8.48a12,12,0,0,1-9.63-4.81c-.24-.33-5.38,2.12-5.38,8.16,0,6.52,6.12,10.52,17.45,10.52,13.79,0,21-6.94,21-22.1V50.33C57.16,45.27,54.72,42.74,50.07,42.74ZM71.42,55.06H69.79c-4,0-7,1.87-7,7.58v26.1c0,5.79,2.93,7.58,7.17,7.58h1.63c4,0,6.85-1.95,6.85-7.58V62.64C78.43,56.77,75.66,55.06,71.42,55.06Zm-.9-18.92c-5,0-8.23,2.85-8.23,7.34s3.26,7.42,8.48,7.42c5,0,8.24-2.86,8.24-7.42S75.74,36.14,70.52,36.14ZM105,54.65c-13.38,0-22.27,8.48-22.27,21.12,0,13,8.56,21.29,22,21.29s22.19-8.32,22.19-21.21C126.93,63.13,118.2,54.65,105,54.65Zm-.17,30.42c-5.22,0-8.8-3.83-8.8-9.3s3.67-9.21,8.8-9.21,8.81,3.83,8.81,9.29C113.63,81.15,109.88,85.07,104.82,85.07Z"/></g></g></svg>