<svg xmlns="http://www.w3.org/2000/svg" width="32" height="32" viewBox="0 0 32 32"><defs><style>.a{fill:#fff;}.b{fill:none;}</style></defs><g transform="translate(2.614 2.012)"><g transform="translate(17.863)"><path class="a" d="M3327.143,9502.573a1.006,1.006,0,0,0,1.006-1.006v-7a1.006,1.006,0,0,0-2.012,0v7A1.006,1.006,0,0,0,3327.143,9502.573Z" transform="translate(-3323.149 -9492.974)"/><path class="a" d="M3324.289,9512.18a1.006,1.006,0,0,0,.711-1.717l-3.038-3.039a1.007,1.007,0,0,0-.711-.294h0a1,1,0,0,0-.711.295l-3.019,3.019a1.006,1.006,0,0,0,1.423,1.422l2.308-2.308,2.327,2.327A1,1,0,0,0,3324.289,9512.18Z" transform="translate(-3317.226 -9507.13)"/></g><path class="a" d="M3276.693,9523.827a13.27,13.27,0,1,1,2.53-26.3,1.006,1.006,0,0,1-.382,1.976,11.244,11.244,0,1,0,8.706,8.056,1.006,1.006,0,0,1,1.94-.535,13.281,13.281,0,0,1-12.794,16.8Z" transform="translate(-3263.424 -9496.3)"/><g transform="translate(8 6.988)"><path class="a" d="M225.984,9518.043h-8.125a1.016,1.016,0,1,1,0-2.031h8.125a1.016,1.016,0,0,1,0,2.031Z" transform="translate(-216.806 -9516.012)"/><path class="a" d="M225.984,9528.543h-8.125a1.016,1.016,0,1,1,0-2.031h8.125a1.016,1.016,0,0,1,0,2.031Z" transform="translate(-216.806 -9522.957)"/><path class="a" d="M223.245,9530.51l-4.91-5.71a1.016,1.016,0,0,1,.77-1.678h1.351a2.54,2.54,0,0,0,0-5.079H217.75a1.016,1.016,0,1,1,0-2.031h2.707a4.571,4.571,0,0,1,.8,9.07l3.528,4.1Z" transform="translate(-216.734 -9516.012)"/></g></g><rect class="b" width="32" height="32"/></svg>