<svg id="Group_3484" data-name="Group 3484" xmlns="http://www.w3.org/2000/svg" viewBox="0 0 24.228 25.225">
  <path id="Path_1446" data-name="Path 1446" d="M21.288,29.269H2.94A2.909,2.909,0,0,1,0,26.4V8.654A2.912,2.912,0,0,1,2.94,5.78H21.288a2.91,2.91,0,0,1,2.94,2.874V26.4A2.909,2.909,0,0,1,21.288,29.269ZM2.94,7.582A1.108,1.108,0,0,0,1.8,8.654V26.4A1.107,1.107,0,0,0,2.94,27.468H21.288A1.107,1.107,0,0,0,22.426,26.4V8.654a1.108,1.108,0,0,0-1.138-1.072Z" transform="translate(0 -4.044)"/>
  <path id="Path_1447" data-name="Path 1447" d="M18.921,5.276a.9.9,0,0,1-.9-.9V.9a.9.9,0,0,1,1.8,0V4.375A.9.9,0,0,1,18.921,5.276Z" transform="translate(-12.609)"/>
  <path id="Path_1448" data-name="Path 1448" d="M57.561,5.276a.9.9,0,0,1-.9-.9V.9a.9.9,0,0,1,1.8,0V4.375A.9.9,0,0,1,57.561,5.276Z" transform="translate(-39.645)"/>
  <rect id="Rectangle_2171" data-name="Rectangle 2171" width="22.426" height="1.802" transform="translate(0.901 7.661)"/>
  <g id="Group_3382" data-name="Group 3382" transform="translate(9.093 11.94)">
    <path id="Path_1449" data-name="Path 1449" d="M40.181,48.836a.9.9,0,0,1-.9-.9V40.671a.9.9,0,0,1,1.8,0v7.264A.9.9,0,0,1,40.181,48.836Z" transform="translate(-36.577 -39.767)"/>
    <path id="Path_1450" data-name="Path 1450" d="M31.181,43.637a.891.891,0,0,1-.715-.354.9.9,0,0,1,.168-1.264l2.706-2.072a.9.9,0,0,1,1.1,1.432L31.73,43.451A.912.912,0,0,1,31.181,43.637Z" transform="translate(-30.28 -39.76)"/>
  </g>
</svg>
