<?xml version="1.0" encoding="utf-8"?>
<!-- Generator: Adobe Illustrator 23.0.3, SVG Export Plug-In . SVG Version: 6.00 Build 0)  -->
<svg version="1.1" id="Capa_1" xmlns="http://www.w3.org/2000/svg" xmlns:xlink="http://www.w3.org/1999/xlink" x="0px" y="0px"
	 viewBox="0 0 512 512" style="enable-background:new 0 0 512 512;" xml:space="preserve">
<path d="M472.6,433.2c0,54.1-112.3,78.8-216.6,78.8S39.4,487.3,39.4,433.2c0-41.6,62-61.3,113.9-70.4c10.8-1.9,20.9,5.3,22.8,16
	c1.9,10.7-5.3,20.9-16,22.8c-62.7,11-80.4,28.2-81.4,31.9c3,10.3,62.1,39.1,177.3,39.1s174.2-28.8,177.3-39.7
	c-1-3.1-18.8-20.4-82-31.4c-10.7-1.9-17.9-12.1-16-22.8c1.9-10.7,11.9-17.8,22.8-16C410.3,371.8,472.6,391.4,472.6,433.2z"/>
<g>
	<path d="M255.9,178.2l0.4,0c20.9,0,39.7,1.5,47.4,3c1,0.2,1.9,0.3,2.9,0.4c3.7,0.4,6.3,2,7.9,3.4v90.1c-21.8,0.3-39.4,18.1-39.4,40
		v97.8h-38.2v-97.8c0-21.9-17.6-39.7-39.4-40V185c1.6-1.4,4.2-3,7.9-3.4c0.9-0.1,1.8-0.2,2.8-0.4C216.1,179.7,235,178.2,255.9,178.2
		 M255.9,138.2c-22,0-43.8,1.6-55.1,3.7c-27.4,3.2-43.2,25.3-43.2,35.4v118.1c0,10.9,8.8,19.7,19.7,19.7h19.7v118.1
		c0,10.9,8.8,19.7,19.7,19.7h78.8c10.9,0,19.7-8.8,19.7-19.7V315.1h19.7c10.9,0,19.7-8.8,19.7-19.7V177.2
		c0-10.1-15.8-32.2-43.3-35.4c-11.3-2.2-33-3.7-54.9-3.7C256.2,138.2,256,138.2,255.9,138.2L255.9,138.2z"/>
</g>
<g>
	<path d="M256,40c10.5,0,19.1,8.6,19.1,19.1c0,10.5-8.6,19.1-19.1,19.1c-10.5,0-19.1-8.6-19.1-19.1C236.9,48.6,245.5,40,256,40
		 M256,0c-32.6,0-59.1,26.5-59.1,59.1c0,32.6,26.5,59.1,59.1,59.1s59.1-26.5,59.1-59.1C315.1,26.5,288.6,0,256,0L256,0z"/>
</g>
</svg>
