<svg xmlns="http://www.w3.org/2000/svg" width="18" height="20" viewBox="0 0 18 20"><defs><style>.a{fill:#666;}</style></defs><g transform="translate(0)"><path class="a" d="M986.2,968.01h-3.628v-.247A2.72,2.72,0,0,0,979.906,965h-4.024a2.7,2.7,0,0,0-2.66,2.629,1,1,0,0,0-.009.133v.247h-3.628a.715.715,0,0,0,0,1.429h1.487v12.8A2.72,2.72,0,0,0,973.741,985h8.306a2.7,2.7,0,0,0,2.66-2.629,1.008,1.008,0,0,0,.009-.133v-12.8H986.2a.715.715,0,0,0,0-1.429m-11.61-.213c0-.027.006-.056.007-.086a1.3,1.3,0,0,1,1.281-1.282h4.024a1.313,1.313,0,0,1,1.288,1.333v.247h-6.6Zm8.742,14.407c0,.027-.006.055-.007.086a1.3,1.3,0,0,1-1.281,1.282h-8.306a1.313,1.313,0,0,1-1.289-1.333v-12.8h10.883Z" transform="translate(-968.894 -965)"/><path class="a" d="M992.218,1004.088a.729.729,0,0,0,.729-.729V995.5a.729.729,0,0,0-1.458,0v7.857a.729.729,0,0,0,.729.729" transform="translate(-986.313 -987.805)"/><path class="a" d="M1005.729,1004.088a.729.729,0,0,0,.729-.729V995.5a.729.729,0,1,0-1.457,0v7.857a.729.729,0,0,0,.729.729" transform="translate(-996.729 -987.805)"/><path class="a" d="M1019.24,1004.088a.729.729,0,0,0,.729-.729V995.5a.729.729,0,0,0-1.458,0v7.857a.729.729,0,0,0,.729.729" transform="translate(-1007.145 -987.805)"/></g></svg>