<?xml version="1.0" encoding="utf-8"?>
<!-- Generator: Adobe Illustrator 23.0.3, SVG Export Plug-In . SVG Version: 6.00 Build 0)  -->
<svg version="1.1" id="Layer_1" xmlns="http://www.w3.org/2000/svg" xmlns:xlink="http://www.w3.org/1999/xlink" x="0px" y="0px"
	 viewBox="0 0 512 512" style="enable-background:new #FFFFFF;" xml:space="preserve">
<title>devices</title>
<path d="M68.5,344.5c0,9.3-0.2,18,0.1,26.7c0.2,6.4-2.7,8.9-8.8,8.9c-13.4-0.1-26.8-0.2-40.2,0c-7,0.1-9.6-2.9-9.6-9.9
	c0.3-24.1,0.1-48.1,0.1-72.2c0-10.9,0.7-11.5,11.6-11.8c1.9,0,3.8-0.2,6.9-0.4V277c0-46.2,0-92.4,0-138.7c0-21.7,8.2-29.8,29.6-29.8
	c97.9,0,195.9,0,293.8,0c20.7,0,29,8.2,29,28.6c0,21.6,0,43.2,0,64.8v10h41.6c16.2,0,20.3,4.2,20.3,20.4v82.1
	c3.4,0.2,6.2,0.5,9.1,0.5c12.9,0,25.7,0,38.6,0c6.8,0,11.2,2.8,11.3,10c0.1,22.7,0.1,45.4,0,68.1c0,6.7-4,10.1-10.4,10.2
	c-36.1,0.1-72.2,0.1-108.3,0c-6.9,0-10.3-4.3-10.5-11.1c-0.1-3.8,0-7.6,0-12.5h-38.1c-6.6,0-13.1,0.2-19.7-0.1
	c-9.7-0.4-14.3-5.4-14.5-15.1c-0.1-6-0.2-12-0.2-18c-0.1-0.5-0.3-1.1-0.5-1.5h-59.7c3.5,14.1,6.9,27.8,10.3,41.5
	c3,11.9-1,17-13.3,17.1c-21.3,0.1-42.7,0.1-64,0c-12.1,0-16.2-5.3-13.3-17.1c3.4-13.7,6.8-27.4,10.4-41.8L68.5,344.5z M49.1,285.8
	c3,0.2,5.4,0.4,7.8,0.4c11.3,0.2,11.6,0.4,11.6,11.5c0,8.4,0,16.8,0,25.4h231.8v-9.4c0-28.4,0-56.9,0-85.3
	c0-11.6,4.8-16.4,16.5-16.5c8.2-0.1,16.4,0,24.6,0h19.8c0-22.9,0-44.5,0-66.1c0-13.5-3.5-17-16.9-17c-93,0-185.9,0-278.9,0
	c-13.1,0-16.6,3.5-16.6,16.5c0,44,0,88,0,132.1C48.8,280.1,49,282.8,49.1,285.8z M430.9,314.9c0-28.5,0.1-55.8-0.1-83.1
	c0-5.3-3.6-7.7-8.7-7.7c-33.6,0-67.2,0-100.9,0c-6,0-9.2,3-9.2,9c0,41.8,0,83.6,0,125.4c0,6.5,3.6,9.3,10,9.2c8.7-0.1,17.5,0,26.2,0
	h24.5c0-14,0-26.6,0-39.1c0-10.8,2.9-13.7,13.5-13.7C400.8,314.8,415.2,314.9,430.9,314.9z M436.9,395.1c16.1,0,32.2-0.1,48.4,0.1
	c6.3,0.1,8.8-2.5,8.7-8.8c-0.2-18.3-0.1-36.6,0-54.9c0-5.9-2.3-8.4-8.3-8.4c-32,0.1-64,0.1-95.9,0c-6.4,0-8.8,2.6-8.7,8.8
	c0.2,18,0.2,36.1,0,54.1c-0.1,6.7,2.4,9.4,9.1,9.2C405.8,394.9,421.4,395.1,436.9,395.1z M15.6,333.2c0,10.9,0.1,21.8-0.1,32.7
	c-0.1,6.3,2.7,8.9,8.9,8.8c10.1-0.2,20.2-0.1,30.3,0c5.8,0.1,8.5-2.6,8.5-8.4c0-22.1,0-44.2,0-66.3c0-5.8-2.8-8.4-8.5-8.4
	c-10.1,0.1-20.2,0.1-30.3,0c-6.2-0.1-8.9,2.7-8.8,8.9C15.8,311.4,15.6,322.3,15.6,333.2z" fill="#034ea2"/>
</svg>
