<svg id="Group_3482" data-name="Group 3482" xmlns="http://www.w3.org/2000/svg" viewBox="0 0 14.235 23.915">
  <path id="Path_1440" data-name="Path 1440" class="cls-1" d="M11.71,23.915H2.525A2.668,2.668,0,0,1,0,21.131V2.784A2.668,2.668,0,0,1,2.525,0h9.187a2.668,2.668,0,0,1,2.522,2.784V21.128A2.669,2.669,0,0,1,11.71,23.915ZM2.525,1.708c-.444,0-.817.493-.817,1.076V21.128c0,.586.373,1.079.817,1.079h9.187c.441,0,.817-.493.817-1.076V2.784c0-.584-.376-1.076-.82-1.076Z"/>
  <path id="Path_1441" data-name="Path 1441" class="cls-1" d="M22.289,65.58a1.139,1.139,0,1,0,1.139,1.139,1.139,1.139,0,0,0-1.139-1.139Z" transform="translate(-15.128 -46.909)"/>
</svg>
