<svg xmlns="http://www.w3.org/2000/svg" width="32" height="32" viewBox="0 0 32 32">
  <defs>
    <style>
      .fill-white {
        fill: #fff;
      }

      .stroke-black {
        stroke: #000;
        stroke-linecap: round;
        stroke-miterlimit: 10;
        stroke-width: 6px;
      }

      .fill-none {
        fill: none;
      }
    </style>
  </defs>
  <g transform="translate(-3255.892 -9871)">
    <g transform="translate(3257.934 9873.197)">
      <path class="fill-white" d="M3306.135,9902.376c-.182,0-.362.011-.541.027v2.019a3.793,3.793,0,0,1,.541-.043,3.838,3.838,0,0,1,0,7.676,3.793,3.793,0,0,1-.541-.043v2.018c.178.017.358.027.541.027a5.84,5.84,0,1,0,0-11.681Z" transform="translate(-3291.054 -9894.15)" />
      <path class="fill-white" d="M3318.123,9894.441a2.668,2.668,0,0,0-.887-.8l-.907-.523a.859.859,0,0,1-.422-.807c.014-.23.014-1.031,0-1.261a.86.86,0,0,1,.422-.807l.907-.523a2.664,2.664,0,0,0,.89-.8,2.826,2.826,0,0,0,.133-3.021l-1.384-2.4a2.859,2.859,0,0,0-3.905-1.045l-.857.494a.841.841,0,0,1-.881-.019,10.372,10.372,0,0,0-1.153-.667.839.839,0,0,1-.454-.752v-.988a2.861,2.861,0,0,0-2.858-2.856h-2.22v2h2.22a.855.855,0,0,1,.854.854v.988a2.856,2.856,0,0,0,1.565,2.545,8.7,8.7,0,0,1,.934.539,2.861,2.861,0,0,0,3,.088l.857-.5a.854.854,0,0,1,1.166.313l1.384,2.4a.822.822,0,0,1-.056.9.739.739,0,0,1-.234.193l-.907.523a2.849,2.849,0,0,0-1.42,2.662c.009.146.009.869,0,1.017a2.852,2.852,0,0,0,1.42,2.663l.907.522h0a.72.72,0,0,1,.233.192.82.82,0,0,1,.057.9l-1.412,2.444a.816.816,0,0,1-1.09.292l-.906-.522a2.865,2.865,0,0,0-3,.087,8.26,8.26,0,0,1-.932.54,2.855,2.855,0,0,0-1.566,2.545v.988a.855.855,0,0,1-.854.854h-2.22v2h2.22a2.86,2.86,0,0,0,2.858-2.856v-.988a.839.839,0,0,1,.454-.752,10.708,10.708,0,0,0,1.153-.667.843.843,0,0,1,.881-.02l.906.522a2.8,2.8,0,0,0,3.829-1.025l1.412-2.444A2.824,2.824,0,0,0,3318.123,9894.441Z" transform="translate(-3290.354 -9877.649)" />
      <g transform="translate(18.51 14.303)">
        <path class="stroke-black" d="M3317.542,9920.668" transform="translate(-3317.542 -9920.668)" />
      </g>
      <path class="fill-white" d="M3275.847,9905.662a14.024,14.024,0,1,1,0-28.048,1,1,0,1,1,0,1.993,12.03,12.03,0,1,0,0,24.061,1,1,0,0,1,0,1.994Z" transform="translate(-3261.823 -9877.614)" />
      <path class="fill-white" d="M3282.465,9908.89a10.828,10.828,0,1,1,0-21.655,1,1,0,1,1,0,1.993,8.834,8.834,0,1,0,0,17.669,1,1,0,1,1,0,1.993Z" transform="translate(-3268.377 -9884.038)" />
      <path class="fill-white" d="M3275.816,9918.238h-1.632a1,1,0,1,1,0-1.993h1.632a1,1,0,1,1,0,1.993Z" transform="translate(-3269.412 -9903.412)" />
      <path class="fill-white" d="M3279.02,9934.378a1,1,0,0,1-.632-1.768l1.643-1.344a1,1,0,0,1,1.262,1.544l-1.642,1.343A.994.994,0,0,1,3279.02,9934.378Z" transform="translate(-3272.641 -9913.292)" />
      <path class="fill-white" d="M3294.836,9942.983a1.017,1.017,0,0,1-.179-.017,1,1,0,0,1-.8-1.158l.4-2.191a1,1,0,0,1,1.961.355l-.4,2.191A1,1,0,0,1,3294.836,9942.983Z" transform="translate(-3283.202 -9918.474)" />
      <path class="fill-white" d="M3281.311,9901.766a1,1,0,0,1-.713-.3l-1.287-1.316a1,1,0,1,1,1.425-1.394l1.287,1.316a1,1,0,0,1-.712,1.692Z" transform="translate(-3273.312 -9891.533)" />
      <path class="fill-white" d="M3295.3,9892.8a1,1,0,0,1-.974-.791l-.373-1.767a1,1,0,0,1,1.95-.412l.373,1.767a1,1,0,0,1-.976,1.2Z" transform="translate(-3283.265 -9885.247)" />
      <g transform="translate(10.567 10.5)">
        <path class="fill-white" d="M3300.139,9917.581a2.4,2.4,0,1,1,2.4-2.4A2.4,2.4,0,0,1,3300.139,9917.581Zm0-2.8a.4.4,0,1,0,.4.4A.4.4,0,0,0,3300.139,9914.782Z" transform="translate(-3296.377 -9911.604)" />
        <path class="fill-white" d="M3296.419,9912.764a.992.992,0,0,1-.652-.243l-1.792-1.551a1,1,0,1,1,1.3-1.507l1.792,1.551a1,1,0,0,1-.653,1.75Z" transform="translate(-3293.631 -9909.22)" />
      </g>
      <path class="fill-white" d="M3303.526,9891.367a1,1,0,0,1-1-1v-11.653a1,1,0,1,1,1.993,0v11.653A1,1,0,0,1,3303.526,9891.367Z" transform="translate(-3289.006 -9877.685)" />
      <path class="fill-white" d="M3303.522,9935.85a1,1,0,0,1-1-1l0-10.6a1,1,0,0,1,1.993,0l0,10.6A1,1,0,0,1,3303.522,9935.85Z" transform="translate(-3289.003 -9908.094)" />
    </g>
    <rect class="fill-none" width="32" height="32" transform="translate(3255.892 9871)" />
  </g>
</svg>
