<svg width="50" height="40" viewBox="0 0 50 40" fill="none" xmlns="http://www.w3.org/2000/svg">
  <path
    d="M13.6867 0.000492256C13.9938 -0.00863382 14.2913 0.109468 14.5117 0.326884C14.7315 0.544296 14.8557 0.842778 14.8557 1.15467V6.28199H25.0002C25.3046 6.27769 25.5973 6.3974 25.814 6.61429C26.0307 6.83116 26.1527 7.1275 26.1527 7.43672C26.1527 7.7454 26.0307 8.04172 25.814 8.25861C25.5973 8.4755 25.3046 8.5952 25.0002 8.59091H13.7194C13.0916 8.59091 12.5833 8.07395 12.5828 7.43673V3.90867L2.75791 13.7182L12.5828 23.5277V19.9996C12.5833 19.3619 13.0916 18.8454 13.7194 18.8454H35.1454V13.7181C35.1454 13.2532 35.4202 12.8334 35.8419 12.6536C36.2641 12.4737 36.7508 12.5688 37.0779 12.8941L49.6607 25.4592C49.8779 25.676 50 25.9724 50 26.2821C50 26.5913 49.8779 26.8877 49.6607 27.1051L37.0779 39.6696C36.7508 39.9949 36.2641 40.09 35.8419 39.9101C35.4202 39.7303 35.1454 39.3105 35.1454 38.8456V33.7188H25.0009C24.6965 33.7231 24.4037 33.6034 24.1871 33.3865C23.9704 33.1691 23.8483 32.8733 23.8483 32.5641C23.8483 32.2554 23.9704 31.9591 24.1871 31.7422C24.4037 31.5253 24.6965 31.4056 25.0009 31.4099H36.2816C36.9094 31.4099 37.4178 31.9269 37.4183 32.5641V36.0921L47.2442 26.2826L37.4183 16.4715V19.9995C37.4178 20.6373 36.9094 21.1537 36.2816 21.1537H14.8557V26.2826C14.8551 26.7469 14.5803 27.1662 14.1581 27.3455C13.7364 27.5253 13.2497 27.4303 12.9232 27.105L0.340314 14.5415C0.122592 14.3247 0 14.0278 0 13.7181C0 13.4083 0.122599 13.1114 0.340314 12.894L12.9232 0.331129C13.1277 0.12713 13.4003 0.00906779 13.6867 0.000492256Z"
    fill="#fff" />
</svg>
