<svg xmlns="http://www.w3.org/2000/svg" width="11.049" height="15" viewBox="0 0 11.049 15"><defs><style>.a{fill:#666;}</style></defs><path class="a" d="M606.516,10836.378h-9.4a.444.444,0,1,1,0-.854h9.4a.444.444,0,1,1,0,.854" transform="translate(-596.302 -10821.378)"/><path class="a" d="M601.159,10761.707v4.666h1.11l1.889,0-3.835,5.067-3.843-5.075,1.884,0,1.112,0v-4.665h1.683m.19-1.184h-2.063a.954.954,0,0,0-.921.979v3.682l-2.984,0h0a.628.628,0,0,0-.451,1.022l4.942,6.528a.563.563,0,0,0,.9,0l4.932-6.518a.629.629,0,0,0-.45-1.023l-2.985,0v-3.686a.954.954,0,0,0-.921-.979" transform="translate(-594.794 -10760.523)"/></svg>