<svg xmlns="http://www.w3.org/2000/svg" width="20" height="20" viewBox="0 0 20 20"><defs><style>.a{fill:#666;}</style></defs><g transform="translate(0)"><path class="a" d="M1382.224,1355l1.577,1.577-10.536,10.536-1.577-1.577L1382.224,1355m0-1.775a1.172,1.172,0,0,0-.83.344l-11.691,11.691a.39.39,0,0,0,0,.552l3.286,3.286a.391.391,0,0,0,.552,0l11.691-11.691a1.171,1.171,0,0,0,0-1.656l-2.183-2.183a1.166,1.166,0,0,0-.827-.342" transform="translate(-1365.576 -1353.221)"/><path class="a" d="M1357.411,1406.981l.974.974c-.608.279-1.185.527-1.721.748.221-.536.469-1.113.748-1.721m-1.43,3.468h0m1.148-5.813a.6.6,0,0,0-.526.336,49.987,49.987,0,0,0-2.1,4.861c-.267.709-.051,1.145.486,1.145a1.571,1.571,0,0,0,.545-.115,49.991,49.991,0,0,0,4.861-2.1.549.549,0,0,0,.2-.856l-3.138-3.138a.459.459,0,0,0-.33-.133" transform="translate(-1354.388 -1390.977)"/></g></svg>