<svg xmlns="http://www.w3.org/2000/svg" width="32" height="32" viewBox="0 0 32 32"><defs><style>.fill-none{fill:none;}.fill-white{fill:#fff;}</style></defs><g transform="translate(-2871 -10261)"><rect class="fill-none" width="32" height="32" transform="translate(2871 10261)"/><g transform="translate(2874.011 10263.092)"><path class="fill-white" d="M2895.262,10294.475h-12.493a2.6,2.6,0,0,1-2.6-2.6v-21.908a2.6,2.6,0,0,1,2.6-2.6h15.924a2.6,2.6,0,0,1,2.6,2.6v2.95a.985.985,0,0,1-1.969,0v-2.95a.628.628,0,0,0-.628-.628h-15.924a.628.628,0,0,0-.628.628v21.908a.629.629,0,0,0,.628.628h12.493a.985.985,0,1,1,0,1.97Z" transform="translate(-2880.172 -10267.371)"/><path class="fill-white" d="M2903.538,10278.846v2.713h-9v-2.713h9m.653-2h-10.3a1.348,1.348,0,0,0-1.348,1.349v4.019a1.348,1.348,0,0,0,1.348,1.349h10.3a1.348,1.348,0,0,0,1.348-1.349v-4.019a1.348,1.348,0,0,0-1.348-1.349Z" transform="translate(-2888.481 -10273.734)"/><rect class="fill-white" width="3.3" height="2.421" rx="1.21" transform="translate(3.532 12.242)"/><rect class="fill-white" width="3.3" height="2.421" rx="1.21" transform="translate(3.532 16.259)"/><rect class="fill-white" width="3.3" height="2.421" rx="1.21" transform="translate(3.532 20.276)"/><rect class="fill-white" width="3.3" height="2.421" rx="1.21" transform="translate(7.491 12.242)"/><rect class="fill-white" width="3.3" height="2.421" rx="1.21" transform="translate(7.491 16.259)"/><rect class="fill-white" width="3.3" height="2.421" rx="1.21" transform="translate(7.491 20.276)"/><rect class="fill-white" width="3.3" height="2.421" rx="1.21" transform="translate(11.449 12.242)"/><rect class="fill-white" width="3.3" height="2.421" rx="1.21" transform="translate(11.449 16.259)"/><rect class="fill-white" width="3.3" height="2.421" rx="1.21" transform="translate(11.449 20.276)"/><path class="fill-white" d="M2937.9,10298.84a.68.68,0,0,0-.575-.29h-4.047a.134.134,0,0,1-.1-.042.1.1,0,0,1-.025-.095l1.814-7.288a.564.564,0,0,0-.411-.669.7.7,0,0,0-.816.255l-6.82,10.452a.515.515,0,0,0,0,.581.679.679,0,0,0,.575.291h4.077a.133.133,0,0,1,.1.042.1.1,0,0,1,.026.095l-1.8,7.3a.563.563,0,0,0,.413.667.771.771,0,0,0,.245.041.671.671,0,0,0,.57-.3l6.776-10.463A.515.515,0,0,0,2937.9,10298.84Z" transform="translate(-2911.515 -10282.851)"/></g></g></svg>