<svg xmlns="http://www.w3.org/2000/svg" width="32" height="32" viewBox="0 0 32 32"><defs><style>.a{fill:#fff;}.b{fill:none;}</style></defs><g transform="translate(-184.32 -9487)"><g transform="translate(185.839 9488.959)"><path class="a" d="M204.219,9521.225a14.22,14.22,0,1,1,14.219-14.219A14.235,14.235,0,0,1,204.219,9521.225Zm0-26.406a12.188,12.188,0,1,0,12.188,12.188A12.2,12.2,0,0,0,204.219,9494.818Z" transform="translate(-189.519 -9492.744)"/><g transform="translate(9.481 5.041)"><path class="a" d="M3296.2,9510.175l-1.5,6.862a.328.328,0,0,0,.32.4h3.341a.327.327,0,0,1,.285.489l-5.594,9.851a.327.327,0,0,1-.6-.231l1.487-6.873a.327.327,0,0,0-.32-.4h-3.365a.328.328,0,0,1-.284-.49l5.629-9.84A.327.327,0,0,1,3296.2,9510.175Z" transform="translate(-3289.703 -9509.555)"/><path class="a" d="M3292.338,9527.723a.554.554,0,0,1-.2-.039.538.538,0,0,1-.341-.628l1.487-6.874a.1.1,0,0,0-.021-.088.1.1,0,0,0-.083-.04h-3.365a.549.549,0,0,1-.477-.821l5.629-9.84a.549.549,0,0,1,1.012.389l-1.5,6.863a.1.1,0,0,0,.021.088.1.1,0,0,0,.083.04h3.341a.548.548,0,0,1,.478.819l-5.594,9.851A.539.539,0,0,1,3292.338,9527.723Zm3.1-18.166a.1.1,0,0,0-.086.055l-5.629,9.842a.106.106,0,0,0,.092.158h3.365a.549.549,0,0,1,.537.664l-1.487,6.874a.106.106,0,0,0,.2.074l5.594-9.851a.1.1,0,0,0,0-.105.1.1,0,0,0-.092-.053h-3.341a.549.549,0,0,1-.536-.666l1.5-6.861a.1.1,0,0,0-.065-.121A.117.117,0,0,0,3295.436,9509.557Z" transform="translate(-3289.264 -9509.114)"/></g></g><rect class="b" width="32" height="32" transform="translate(184.32 9487)"/></g></svg>