<svg height="456pt" viewBox="-4 0 456 456" width="456pt" xmlns="http://www.w3.org/2000/svg"><path fill="#ffffff" d="m272 16-40-13.335938v-2.664062h-16v56h16v-26.664062zm0 0"/><path fill="#ffffff" d="m80 280h16v16h-16zm0 0"/><path fill="#ffffff" d="m0 232v224h120v-224zm56 128c0 4.417969-3.582031 8-8 8h-32c-4.417969 0-8-3.582031-8-8v-32c0-4.417969 3.582031-8 8-8h32c4.417969 0 8 3.582031 8 8zm0-56c0 4.417969-3.582031 8-8 8h-32c-4.417969 0-8-3.582031-8-8v-32c0-4.417969 3.582031-8 8-8h32c4.417969 0 8 3.582031 8 8zm56 56c0 4.417969-3.582031 8-8 8h-32c-4.417969 0-8-3.582031-8-8v-32c0-4.417969 3.582031-8 8-8h32c4.417969 0 8 3.582031 8 8zm0-56c0 4.417969-3.582031 8-8 8h-32c-4.417969 0-8-3.582031-8-8v-32c0-4.417969 3.582031-8 8-8h32c4.417969 0 8 3.582031 8 8zm0 0"/><path fill="#ffffff" d="m80 336h16v16h-16zm0 0"/><path fill="#ffffff" d="m272 152h16v16h-16zm0 0"/><path fill="#ffffff" d="m272 280h16v16h-16zm0 0"/><path fill="#ffffff" d="m184 360h32v96h-32zm0 0"/><path fill="#ffffff" d="m232 360h32v96h-32zm0 0"/><path fill="#ffffff" d="m272 216h16v16h-16zm0 0"/><path fill="#ffffff" d="m408 336h16v16h-16zm0 0"/><path fill="#ffffff" d="m352 280h16v16h-16zm0 0"/><path fill="#ffffff" d="m408 280h16v16h-16zm0 0"/><path fill="#ffffff" d="m24 336h16v16h-16zm0 0"/><path fill="#ffffff" d="m24 280h16v16h-16zm0 0"/><path fill="#ffffff" d="m352 336h16v16h-16zm0 0"/><path fill="#ffffff" d="m448 456v-224h-120v224zm-56-184c0-4.417969 3.582031-8 8-8h32c4.417969 0 8 3.582031 8 8v32c0 4.417969-3.582031 8-8 8h-32c-4.417969 0-8-3.582031-8-8zm0 56c0-4.417969 3.582031-8 8-8h32c4.417969 0 8 3.582031 8 8v32c0 4.417969-3.582031 8-8 8h-32c-4.417969 0-8-3.582031-8-8zm-56-56c0-4.417969 3.582031-8 8-8h32c4.417969 0 8 3.582031 8 8v32c0 4.417969-3.582031 8-8 8h-32c-4.417969 0-8-3.582031-8-8zm0 56c0-4.417969 3.582031-8 8-8h32c4.417969 0 8 3.582031 8 8v32c0 4.417969-3.582031 8-8 8h-32c-4.417969 0-8-3.582031-8-8zm0 0"/><path fill="#ffffff" d="m160 152h16v16h-16zm0 0"/><path fill="#ffffff" d="m216 280h16v16h-16zm0 0"/><path fill="#ffffff" d="m160 216h16v16h-16zm0 0"/><path fill="#ffffff" d="m160 280h16v16h-16zm0 0"/><path fill="#ffffff" d="m120 72h208v16h-208zm0 0"/><path fill="#ffffff" d="m136 456h32v-104c0-4.417969 3.582031-8 8-8h96c4.417969 0 8 3.582031 8 8v104h32v-352h-176zm120-312c0-4.417969 3.582031-8 8-8h32c4.417969 0 8 3.582031 8 8v32c0 4.417969-3.582031 8-8 8h-32c-4.417969 0-8-3.582031-8-8zm0 64c0-4.417969 3.582031-8 8-8h32c4.417969 0 8 3.582031 8 8v32c0 4.417969-3.582031 8-8 8h-32c-4.417969 0-8-3.582031-8-8zm0 64c0-4.417969 3.582031-8 8-8h32c4.417969 0 8 3.582031 8 8v32c0 4.417969-3.582031 8-8 8h-32c-4.417969 0-8-3.582031-8-8zm-56-128c0-4.417969 3.582031-8 8-8h32c4.417969 0 8 3.582031 8 8v32c0 4.417969-3.582031 8-8 8h-32c-4.417969 0-8-3.582031-8-8zm0 64c0-4.417969 3.582031-8 8-8h32c4.417969 0 8 3.582031 8 8v32c0 4.417969-3.582031 8-8 8h-32c-4.417969 0-8-3.582031-8-8zm0 64c0-4.417969 3.582031-8 8-8h32c4.417969 0 8 3.582031 8 8v32c0 4.417969-3.582031 8-8 8h-32c-4.417969 0-8-3.582031-8-8zm-56-128c0-4.417969 3.582031-8 8-8h32c4.417969 0 8 3.582031 8 8v32c0 4.417969-3.582031 8-8 8h-32c-4.417969 0-8-3.582031-8-8zm0 64c0-4.417969 3.582031-8 8-8h32c4.417969 0 8 3.582031 8 8v32c0 4.417969-3.582031 8-8 8h-32c-4.417969 0-8-3.582031-8-8zm0 64c0-4.417969 3.582031-8 8-8h32c4.417969 0 8 3.582031 8 8v32c0 4.417969-3.582031 8-8 8h-32c-4.417969 0-8-3.582031-8-8zm0 0"/><path fill="#ffffff" d="m216 152h16v16h-16zm0 0"/><path fill="#ffffff" d="m216 216h16v16h-16zm0 0"/></svg>