<svg id="Layer_1" data-name="Layer 1" xmlns="http://www.w3.org/2000/svg" viewBox="0 0 32 32">
  <defs>
    <style>
      .cls-1 {
        fill: none;
      }
	  .a {
        fill: #fff;
      }
    </style>
  </defs>
  <g id="Gas_Meter" data-name="Gas Meter">
    <path class="a" d="M18.89,14.3a3.09,3.09,0,0,0-2.09-2.92V7.48a1,1,0,0,0-2,0v3.9a3.09,3.09,0,1,0,4.09,2.92Zm-4.19,0a1.1,1.1,0,0,1,1.1-1.1h0a1.09,1.09,0,1,1-1.1,1.09Z" />
    <path class="a" d="M28.5,24.75a1,1,0,0,0-1,1v.66H19.3V24.18a11.15,11.15,0,1,0-7,0v2.23H4.5v-.66a1,1,0,0,0-2,0v3.13a1,1,0,0,0,2,0v-.47h23v.47a1,1,0,0,0,2,0V25.75A1,1,0,0,0,28.5,24.75ZM6.65,13.6a9.15,9.15,0,1,1,9.15,9.15A9.17,9.17,0,0,1,6.65,13.6Zm7.65,11a10.59,10.59,0,0,0,1.5.12,10.59,10.59,0,0,0,1.5-.12v1.78h-3Z" />
    <rect id="Rectangle_14803" data-name="Rectangle 14803" class="cls-1" width="32" height="32" />
  </g>
</svg>