<?xml version="1.0" encoding="UTF-8"?>
<svg xmlns="http://www.w3.org/2000/svg" xmlns:xlink="http://www.w3.org/1999/xlink" width="30pt" height="30pt" viewBox="0 0 30 30" version="1.1">
<g id="surface1">
<path d="M 0.207031 3.109375 L 0.207031 6.046875 L 8.722656 6.015625 L 8.738281 3.097656 L 8.753906 0.175781 L 0.207031 0.175781 L 0.207031 3.109375 M 10.726562 3.109375 L 10.726562 6.046875 L 19.214844 6.046875 L 19.214844 0.175781 L 10.726562 0.175781 L 10.726562 3.109375 M 14.46875 7.523438 C 13.550781 7.746094 12.949219 9.121094 13.472656 9.804688 C 14.050781 10.558594 14.527344 10.757812 15.371094 10.605469 C 15.570312 10.570312 15.691406 10.496094 15.953125 10.230469 C 16.394531 9.78125 16.414062 9.753906 16.488281 9.414062 C 16.746094 8.214844 15.691406 7.226562 14.46875 7.523438 M 21.1875 10.957031 L 21.1875 13.890625 L 29.734375 13.890625 L 29.734375 8.023438 L 21.1875 8.023438 L 21.1875 10.957031 M 0.207031 10.984375 L 0.207031 13.890625 L 8.753906 13.890625 L 8.753906 8.078125 L 0.207031 8.078125 L 0.207031 10.984375 M 13.605469 11.292969 C 13.183594 11.351562 12.878906 11.445312 12.878906 11.523438 C 12.878906 11.546875 12.832031 11.566406 12.777344 11.570312 C 12.660156 11.570312 12.417969 11.773438 12.3125 11.960938 C 12.257812 12.054688 12.238281 12.554688 12.242188 13.90625 C 12.242188 16.078125 12.21875 15.996094 12.882812 16.03125 L 13.285156 16.054688 L 13.285156 17.671875 C 13.285156 19.933594 13.148438 19.757812 14.914062 19.757812 C 16.679688 19.757812 16.539062 19.933594 16.539062 17.671875 L 16.539062 16.054688 L 16.941406 16.03125 C 17.605469 15.996094 17.582031 16.078125 17.585938 13.90625 C 17.585938 12.554688 17.566406 12.054688 17.511719 11.960938 C 17.40625 11.773438 17.164062 11.570312 17.046875 11.570312 C 16.992188 11.566406 16.945312 11.546875 16.945312 11.523438 C 16.945312 11.28125 14.773438 11.128906 13.605469 11.292969 M 21.203125 18.847656 L 21.21875 21.765625 L 29.734375 21.796875 L 29.734375 15.925781 L 21.1875 15.925781 L 21.203125 18.847656 M 0.207031 19.152344 L 0.207031 22.085938 L 8.753906 22.085938 L 8.753906 16.214844 L 0.207031 16.214844 L 0.207031 19.152344 M 11.628906 17.394531 C 11.375 17.457031 11.007812 17.570312 10.816406 17.648438 C 10.625 17.722656 10.421875 17.785156 10.363281 17.785156 C 10.308594 17.785156 10.261719 17.8125 10.261719 17.84375 C 10.261719 17.875 10.199219 17.914062 10.117188 17.9375 C 10.039062 17.957031 9.972656 17.992188 9.972656 18.019531 C 9.972656 18.046875 9.898438 18.082031 9.8125 18.101562 C 9.652344 18.136719 9.332031 18.371094 9.332031 18.449219 C 9.332031 18.472656 9.269531 18.585938 9.1875 18.703125 C 8.996094 18.984375 8.984375 19.496094 9.160156 19.71875 C 9.222656 19.800781 9.273438 19.886719 9.273438 19.90625 C 9.273438 19.976562 9.59375 20.285156 9.667969 20.285156 C 9.707031 20.285156 9.738281 20.308594 9.738281 20.339844 C 9.738281 20.367188 9.859375 20.4375 10 20.492188 C 10.144531 20.546875 10.261719 20.609375 10.261719 20.632812 C 10.261719 20.722656 11.132812 20.953125 12.328125 21.183594 C 13.527344 21.414062 16.300781 21.414062 17.5 21.183594 C 18.691406 20.953125 19.5625 20.722656 19.5625 20.632812 C 19.5625 20.609375 19.679688 20.546875 19.824219 20.492188 C 19.96875 20.4375 20.085938 20.367188 20.085938 20.339844 C 20.085938 20.308594 20.117188 20.285156 20.15625 20.285156 C 20.230469 20.285156 20.550781 19.976562 20.550781 19.90625 C 20.550781 19.886719 20.601562 19.800781 20.667969 19.71875 C 20.804688 19.542969 20.824219 19.058594 20.707031 18.832031 C 20.449219 18.34375 20.34375 18.230469 20.046875 18.125 C 19.941406 18.085938 19.851562 18.035156 19.851562 18.011719 C 19.851562 17.992188 19.789062 17.957031 19.707031 17.9375 C 19.628906 17.914062 19.5625 17.875 19.5625 17.84375 C 19.5625 17.8125 19.515625 17.785156 19.460938 17.785156 C 19.40625 17.785156 19.203125 17.722656 19.011719 17.648438 C 17.71875 17.140625 17.058594 17.222656 17.066406 17.890625 C 17.066406 18.175781 17.753906 18.542969 18.285156 18.542969 C 18.367188 18.542969 18.535156 18.59375 18.660156 18.65625 C 18.785156 18.722656 18.925781 18.773438 18.964844 18.773438 C 19.007812 18.773438 19.195312 18.871094 19.386719 18.992188 L 19.726562 19.210938 L 19.601562 19.359375 C 19.425781 19.566406 18.808594 19.839844 18.285156 19.941406 C 16.558594 20.269531 16.722656 20.253906 14.882812 20.253906 C 13.300781 20.253906 13.085938 20.238281 12.550781 20.125 C 12.226562 20.050781 11.859375 19.992188 11.734375 19.992188 C 11.613281 19.992188 11.398438 19.941406 11.257812 19.875 C 11.121094 19.8125 10.980469 19.761719 10.953125 19.761719 C 10.820312 19.761719 10.335938 19.496094 10.222656 19.359375 L 10.097656 19.210938 L 10.441406 18.992188 C 10.628906 18.871094 10.816406 18.773438 10.859375 18.773438 C 10.902344 18.773438 11.039062 18.722656 11.164062 18.65625 C 11.289062 18.59375 11.457031 18.539062 11.539062 18.539062 C 11.699219 18.539062 12.328125 18.355469 12.390625 18.292969 C 12.414062 18.269531 12.472656 18.25 12.519531 18.25 C 12.816406 18.25 12.839844 17.75 12.558594 17.46875 C 12.324219 17.234375 12.285156 17.230469 11.628906 17.394531 M 10.726562 26.996094 L 10.726562 29.933594 L 19.214844 29.933594 L 19.214844 24.0625 L 10.726562 24.0625 L 10.726562 26.996094 M 21.226562 24.101562 C 21.207031 24.121094 21.1875 25.441406 21.1875 27.035156 L 21.1875 29.933594 L 29.734375 29.933594 L 29.734375 24.0625 L 25.5 24.0625 C 23.171875 24.0625 21.25 24.078125 21.226562 24.101562 "/>
</g>
</svg>
