<svg xmlns="http://www.w3.org/2000/svg" viewBox="0 0 15.358 14.967">
  <g id="Group_3488" data-name="Group 3488" transform="translate(0 14.967) rotate(-90)">
    <g id="Group_3372" data-name="Group 3372">
      <path id="Path_1434" data-name="Path 1434" class="cls-1" d="M6.558,15.358A7.685,7.685,0,0,1,.089,11.82a.554.554,0,1,1,.933-.6,6.705,6.705,0,0,0,.891,1.1,6.571,6.571,0,0,0,9.29-9.3,6.571,6.571,0,0,0-9.292,0,6.629,6.629,0,0,0-.891,1.1.554.554,0,1,1-.933-.6,7.728,7.728,0,0,1,1.038-1.29A7.678,7.678,0,0,1,14.237,7.679a7.681,7.681,0,0,1-7.679,7.679Z" transform="translate(0.729)"/>
      <path id="Path_1435" data-name="Path 1435" class="cls-1" d="M8.407,1.109H.554A.554.554,0,1,1,.554,0H8.407a.554.554,0,1,1,0,1.109Z" transform="translate(0 7.125)"/>
    </g>
    <g id="Group_3375" data-name="Group 3375" transform="translate(5.358 4.538)">
      <g id="Group_3373" data-name="Group 3373">
        <path id="Path_1436" data-name="Path 1436" class="cls-1" d="M3.049,3.7a.553.553,0,0,1-.4-.17L.156.939A.554.554,0,0,1,.954.17L3.448,2.757a.554.554,0,0,1-.4.939Z"/>
      </g>
      <g id="Group_3374" data-name="Group 3374" transform="translate(0.001 2.588)">
        <path id="Path_1437" data-name="Path 1437" class="cls-1" d="M.554,3.7a.554.554,0,0,1-.4-.939L2.649.17a.554.554,0,1,1,.8.769L.953,3.525A.553.553,0,0,1,.554,3.7Z"/>
      </g>
    </g>
  </g>
</svg>
