<svg xmlns="http://www.w3.org/2000/svg" viewBox="0 0 96 96"><g id="Layer_2" data-name="Layer 2"><g id="Layer_1-2" data-name="Layer 1"><rect class="cls-1" width="96" height="96" fill="none"/><path class="cls-2" d="M9.27,90a3,3,0,0,1-3-3V9a3,3,0,0,1,6,0V87A3,3,0,0,1,9.27,90Z"/><path class="cls-2" d="M86.68,90H9.27a3,3,0,1,1,0-6H86.68a3,3,0,0,1,0,6Z"/><path class="cls-2" d="M58.54,76.58a3,3,0,0,1-3-3V42.82a3,3,0,0,1,6,0V73.58A3,3,0,0,1,58.54,76.58Z"/><path class="cls-2" d="M41.41,76.58a3,3,0,0,1-3-3V33.79a3,3,0,1,1,6,0V73.58A3,3,0,0,1,41.41,76.58Z"/><path class="cls-2" d="M75.67,76.58a3,3,0,0,1-3-3V20.42a3,3,0,0,1,6,0V73.58A3,3,0,0,1,75.67,76.58Z"/><path class="cls-2" d="M24.28,76.58a3,3,0,0,1-3-3V55.71a3,3,0,0,1,6,0V73.58A3,3,0,0,1,24.28,76.58Z"/></g></g></svg>