<?xml version="1.0" encoding="iso-8859-1"?>
<!-- Generator: Adobe Illustrator 19.0.0, SVG Export Plug-In . SVG Version: 6.00 Build 0)  -->
<svg version="1.1" id="Capa_1" xmlns="http://www.w3.org/2000/svg" xmlns:xlink="http://www.w3.org/1999/xlink" x="0px" y="0px"
	 viewBox="0 0 512 512" style="enable-background:new 0 0 512 512;" xml:space="preserve">
<g>
	<g>
		<g>
			<path d="M256,0C114.833,0,0,114.844,0,256s114.833,256,256,256s256-114.844,256-256S397.167,0,256,0z M256,490.667
				C126.604,490.667,21.333,385.396,21.333,256S126.604,21.333,256,21.333S490.667,126.604,490.667,256S385.396,490.667,256,490.667
				z"/>
			<path d="M425.167,250.542l-38.104-64c-1.917-3.229-5.417-5.208-9.167-5.208h-70.12l-34.984-58.792
				c-1.917-3.229-5.396-5.208-9.167-5.208h-76.188c-3.771,0-7.271,2-9.188,5.25l-38.104,64.635
				c-1.979,3.375-1.979,7.563,0.042,10.917l34.833,57.926l-34.875,59.158c-1.979,3.375-1.979,7.563,0.042,10.917l38.104,63.365
				c1.938,3.208,5.396,5.167,9.146,5.167h76.188c3.771,0,7.25-1.979,9.167-5.208l34.984-58.792h70.12c3.75,0,7.25-1.979,9.167-5.208
				l38.104-64C427.167,258.094,427.167,253.906,425.167,250.542z M161.75,192.583l31.792-53.917h64.021L289.292,192l-31.729,53.333
				h-64.083L161.75,192.583z M257.563,373.333h-64.083l-31.729-52.75l31.792-53.917h63.667l32.066,53.362L257.563,373.333z
				 M371.833,309.333h-64.057l-31.563-53.042l31.599-53.625h64.021L403.583,256L371.833,309.333z"/>
		</g>
	</g>
</g>
<g>
</g>
<g>
</g>
<g>
</g>
<g>
</g>
<g>
</g>
<g>
</g>
<g>
</g>
<g>
</g>
<g>
</g>
<g>
</g>
<g>
</g>
<g>
</g>
<g>
</g>
<g>
</g>
<g>
</g>
</svg>
