<svg xmlns="http://www.w3.org/2000/svg" viewBox="0 0 73.79 84"><g id="Layer_2" data-name="Layer 2"><g id="Layer_1-2" data-name="Layer 1"><path d="M36.87,57.53a3,3,0,0,1-3-3V3a3,3,0,0,1,6,0V54.53A3,3,0,0,1,36.87,57.53Z"/><path d="M36.9,57.69a3,3,0,0,1-2.12-5.12l17-17A3,3,0,1,1,56,39.81l-17,17A3,3,0,0,1,36.9,57.69Z"/><path d="M36.9,57.69a3,3,0,0,1-2.12-.88l-17-17A3,3,0,1,1,22,35.57l17,17a3,3,0,0,1-2.12,5.12Z"/><path d="M65.85,84H7.94A8,8,0,0,1,0,76.06V34.21a3,3,0,0,1,6,0V76.06A1.94,1.94,0,0,0,7.94,78H65.85a1.94,1.94,0,0,0,1.94-1.94V34.21a3,3,0,1,1,6,0V76.06A8,8,0,0,1,65.85,84Z"/></g></g></svg>