<?xml version="1.0" encoding="utf-8"?>
<!-- Generator: Adobe Illustrator 23.0.4, SVG Export Plug-In . SVG Version: 6.00 Build 0)  -->
<svg version="1.1" id="Layer_1" xmlns="http://www.w3.org/2000/svg" xmlns:xlink="http://www.w3.org/1999/xlink" x="0px" y="0px"
	 viewBox="0 0 512 512" style="enable-background:new 0 0 512 512;" xml:space="preserve">
<path class="st0" d="M483,311.6L483,311.6"/>
<g>
	<path class="st0" d="M96,363.1L96,363.1"/>
</g>
<g>
	<polyline class="st0" points="277.9,44.3 277.9,0.8 152.2,0.8 152.2,87.8 277.9,87.8 277.9,44.3 	"/>
	<path class="st0" d="M126.7,87.2c0.3-0.3,0.6-19.8,0.6-43.4V0.8H0.8v86.9h62.7C97.9,87.8,126.4,87.5,126.7,87.2"/>
	<path class="st0" d="M126.7,200.8c0.3-0.3,0.6-19.8,0.6-43.4v-42.9H0.8v86.9h62.7C97.9,201.4,126.4,201.1,126.7,200.8"/>
</g>
<polyline class="st0" points="232.9,468.1 232.9,511.6 358.6,511.6 358.6,424.6 232.9,424.6 232.9,468.1 "/>
<path class="st0" d="M385.1,425.2c-0.3,0.3-0.6,19.8-0.6,43.4v42.9h126.6v-86.9h-62.7C413.9,424.6,385.5,424.9,385.1,425.2"/>
<path class="st0" d="M385.1,311.6c-0.3,0.3-0.6,19.8-0.6,43.4V398h126.6V311h-62.7C413.9,311,385.5,311.2,385.1,311.6"/>
<g>
	<path class="st0" d="M372.4,305.8L267.7,124.5c-3.4-5.9-9.7-9.5-16.4-9.5c-6.8,0-13,3.6-16.4,9.5L130.1,305.8
		c-3.4,5.9-3.4,13.1,0,19c3.4,5.9,9.7,9.5,16.4,9.5H356c6.8,0,13-3.6,16.4-9.5C375.8,319,375.8,311.7,372.4,305.8z M146.5,315.3
		L251.3,134L356,315.3H146.5z"/>
	<path class="st0" d="M238.1,199.3l5.4,62.3c0.3,3.7,3.2,6.7,7,7c4.2,0.4,8-2.8,8.4-7l5.4-62.3c0.1-0.7,0.1-1.5,0-2.3
		c-0.6-7.3-7-12.6-14.3-12C242.9,185.7,237.5,192.1,238.1,199.3z"/>
	<circle class="st0" cx="251.3" cy="283.4" r="10.9"/>
</g>
</svg>
