<svg width="43" height="42" viewBox="0 0 43 42" fill="none" xmlns="http://www.w3.org/2000/svg">
<style>
.purple-svg-active{fill:#034ea2;}.b{fill:none;}
</style>
  <path class="purple-svg-active"
    d="M41.7173 8.82383H36.6627C35.0738 8.82383 33.7803 7.5314 33.7803 5.94249V0.88785C33.7803 0.528847 33.9961 0.204619 34.3283 0.0677853C34.6603 -0.0700214 35.0418 0.00628864 35.2958 0.260322L42.3451 7.30867C42.5991 7.5627 42.6754 7.94392 42.5376 8.27617C42.4001 8.60716 42.0762 8.82385 41.7172 8.82385L41.7173 8.82383ZM35.5557 3.03058V5.94216C35.5557 6.5523 36.0525 7.04814 36.6627 7.04814H39.5742L35.5557 3.03058Z"
    fill="#034ea2" />
  <path class="purple-svg-active"
    d="M39.7259 42H10.5482C8.95926 42 7.66683 40.704 7.66683 39.1109V28.0148C7.66683 27.8329 7.72221 27.6552 7.82718 27.5067L11.3682 22.4366L9.79409 21.1509L9.20649 21.7881C8.95953 22.057 8.57026 22.1452 8.23123 22.0125C7.89059 21.8789 7.66681 21.5515 7.66681 21.1857V2.88486C7.66681 1.29686 8.95924 0.00418091 10.5481 0.00418091H34.6633C34.8983 0.00418091 35.1244 0.0978737 35.2908 0.263367L42.3468 7.31006C42.5133 7.47749 42.607 7.70287 42.607 7.93856V39.1101C42.6073 40.7036 41.3149 41.9995 39.726 41.9995L39.7259 42ZM9.44202 28.2943V39.111C9.44202 39.7256 9.93786 40.225 10.548 40.225H39.7249C40.335 40.225 40.8309 39.7257 40.8309 39.111L40.8312 8.30703L34.2951 1.77969H10.5476C9.93745 1.77969 9.4416 2.27553 9.4416 2.88502V19.0882C9.71979 19.0006 10.0328 19.0527 10.272 19.2495L13.1282 21.5831C13.4888 21.8771 13.5606 22.398 13.2946 22.7786L9.44202 28.2943Z"
    fill="#034ea2" />
  <path class="purple-svg-active"
    d="M19.3669 19.0676C17.531 19.0676 15.7643 18.4469 14.3148 17.2784C12.6347 15.9252 11.5826 13.9991 11.352 11.8539C11.1215 9.70917 11.7393 7.60287 13.0936 5.9228C15.8874 2.45352 20.9809 1.9068 24.4493 4.7006H24.4503C27.9176 7.49531 28.4656 12.5889 25.6715 16.0563C24.3182 17.737 22.3912 18.7895 20.2469 19.0201C19.952 19.0523 19.6583 19.0677 19.3669 19.0677L19.3669 19.0676ZM19.3885 4.69104C17.5455 4.69104 15.7189 5.49275 14.4752 7.03595C13.4194 8.34734 12.9365 9.99106 13.1168 11.664C13.2971 13.3379 14.1181 14.8409 15.4286 15.8969C16.7393 16.9527 18.3853 17.4337 20.056 17.2553C21.73 17.075 23.2329 16.254 24.2896 14.9435C26.4688 12.238 26.0405 8.26351 23.3353 6.08279C22.1739 5.14619 20.7766 4.6912 19.3885 4.6912L19.3885 4.69104Z"
    fill="#034ea2" />
  <path class="purple-svg-active"
    d="M11.1969 22.0415C11.0018 22.0415 10.805 21.9774 10.6405 21.8448C10.259 21.537 10.1994 20.9787 10.5069 20.5965L14.1596 16.0647C14.4665 15.6832 15.0238 15.6227 15.408 15.9311C15.7895 16.2389 15.8491 16.7972 15.5416 17.1794L11.8888 21.7112C11.7137 21.9288 11.4561 22.0415 11.1969 22.0415H11.1969Z"
    fill="#034ea2" />
  <path class="purple-svg-active"
    d="M2.90823 34.2116C2.23981 34.2116 1.61934 34.013 1.11037 33.6108C1.09491 33.5986 1.07753 33.5847 1.06111 33.5719H1.06014C0.441307 33.0664 0.0787852 32.3271 0.0111141 31.4333C-0.0877302 30.1113 0.477327 28.6334 1.52279 27.4788L9.05761 19.3322C9.37733 18.9855 9.91054 18.9517 10.2731 19.2492L13.1292 21.5828C13.4899 21.8768 13.5617 22.3977 13.2957 22.7783L6.96603 31.8442C6.71457 32.211 6.42093 32.5445 6.0957 32.8282L5.97271 32.9451C4.98006 33.7825 3.89213 34.2117 2.90814 34.2117L2.90823 34.2116ZM2.20954 32.216C2.76784 32.6607 3.85318 32.4102 4.79176 31.6197L4.90348 31.5122C5.14014 31.3052 5.33429 31.0849 5.50493 30.8351L11.3684 22.4359L9.79426 21.1503L2.83254 28.677C2.12355 29.4588 1.71848 30.4662 1.78096 31.2991C1.80189 31.5722 1.88657 31.9466 2.17184 32.1878C2.18407 32.1965 2.19695 32.2061 2.20919 32.2164L2.20954 32.216Z"
    fill="#034ea2" />
  <path class="purple-svg-active"
    d="M25.2842 38.0708C20.8175 38.0708 17.1827 34.436 17.1827 29.9693C17.1827 25.5026 20.8175 21.8684 25.2842 21.8684C28.854 21.8684 32.0492 24.2601 33.0557 27.6833C33.1945 28.154 32.9246 28.6473 32.4549 28.7851L26.5724 30.5153L29.4193 35.9461C29.6463 36.3795 29.4792 36.9162 29.0458 37.1441C27.889 37.7501 26.5879 38.0708 25.2842 38.0708H25.2842ZM25.2842 23.6439C21.796 23.6439 18.9581 26.4811 18.9581 29.9694C18.9581 33.4576 21.7963 36.2955 25.2842 36.2955C26.0055 36.2955 26.7257 36.1699 27.4054 35.9278L24.498 30.3808C24.375 30.1458 24.3637 29.8676 24.4667 29.6223C24.5707 29.3779 24.7787 29.1924 25.0337 29.1177L31.0411 27.3501C30.0266 25.1304 27.7712 23.6439 25.2842 23.6439L25.2842 23.6439Z"
    fill="#034ea2" />
  <path class="purple-svg-active"
    d="M28.732 20.8258C28.2413 20.8258 27.8443 20.4288 27.8443 19.938V16.6214C27.8443 16.1307 28.2413 15.7337 28.732 15.7337C29.2227 15.7337 29.6197 16.1307 29.6197 16.6214V19.938C29.6197 20.4287 29.2227 20.8258 28.732 20.8258Z"
    fill="#034ea2" />
  <path class="purple-svg-active"
    d="M33.1038 20.8258C32.6132 20.8258 32.2161 20.4288 32.2161 19.938V14.8731C32.2161 14.3824 32.6131 13.9854 33.1038 13.9854C33.5945 13.9854 33.9916 14.3824 33.9916 14.8731V19.938C33.9916 20.4287 33.5946 20.8258 33.1038 20.8258Z"
    fill="#034ea2" />
  <path class="purple-svg-active"
    d="M37.4757 20.8258C36.985 20.8258 36.588 20.4288 36.588 19.938V13.1244C36.588 12.6338 36.985 12.2367 37.4757 12.2367C37.9665 12.2367 38.3634 12.6337 38.3634 13.1244V19.938C38.3634 20.4287 37.9665 20.8258 37.4757 20.8258Z"
    fill="#034ea2" />
</svg>
