<svg id="Group_3513" data-name="Group 3513" xmlns="http://www.w3.org/2000/svg" viewBox="0 0 83.12 84">
  <defs>
    <style>
      .cls-1 {
        fill: #fff;
      }
    </style>
  </defs>
  <path id="Path_1531" data-name="Path 1531" class="cls-1" d="M41.56,84A41.564,41.564,0,0,1,12.17,13.05a41.328,41.328,0,0,1,6.98-5.62,3,3,0,1,1,3.24,5.06,35.878,35.878,0,0,0-5.98,4.82,35.557,35.557,0,0,0,50.3,50.27,35.561,35.561,0,0,0,0-50.3,35.878,35.878,0,0,0-5.98-4.82A3,3,0,1,1,63.97,7.4a41.827,41.827,0,0,1,6.98,5.62A41.575,41.575,0,0,1,41.56,84Z"/>
  <path id="Path_1532" data-name="Path 1532" class="cls-1" d="M41.56,25.97a3,3,0,0,1-3-3V3a3,3,0,0,1,6,0V22.97A3,3,0,0,1,41.56,25.97Z"/>
</svg>
