<?xml version="1.0" encoding="utf-8"?>
<!-- Generator: Adobe Illustrator 23.0.4, SVG Export Plug-In . SVG Version: 6.00 Build 0)  -->
<svg version="1.1" id="Capa_1" xmlns="http://www.w3.org/2000/svg" xmlns:xlink="http://www.w3.org/1999/xlink" x="0px" y="0px"
	 viewBox="0 0 53.5 53.5" style="enable-background:new 0 0 53.5 53.5;" xml:space="preserve">
<style type="text/css">
	.st0{fill:#c83638;stroke:#eee;stroke-miterlimit:10;}
	.st1{fill:none;stroke:#eee;stroke-width:2;stroke-linecap:round;stroke-linejoin:round;}
	.st2{fill:#eee;stroke:#eee;stroke-miterlimit:10;}
</style>
<g id="Group_2" transform="translate(-4.748 7.312)">
	
		<image style="overflow:visible;opacity:0.5;" width="83" height="109" xlink:href="5E192C5E7CDAC0F5.png"  transform="matrix(1 0 0 1 -10.252 -34.767)">
	</image>
	<g>
		<g>
			<g id="Group_1_9_" transform="translate(15.75 0.688)">
				<g transform="matrix(1, 0, 0, 1, -11, -8)">
					<g id="Ellipse_1-2_9_" transform="translate(20.87 8)">
						<circle class="st0" cx="5.4" cy="-0.1" r="3.8"/>
						<circle class="st1" cx="5.4" cy="-0.1" r="4.4"/>
					</g>
				</g>
				<g transform="matrix(1, 0, 0, 1, -11, -8)">
					<g id="Path_1-2_9_" transform="translate(-4.75 12.75)">
						<path class="st0" d="M33.9,36.9c-1.3,0-2.8-0.9-2.8-2.6c0,0,0,0,0,0c0,0,0,0,0,0c-0.1,1.7-1.5,2.6-2.8,2.6
							c-0.8,0-1.5-0.3-2-0.8c-0.5-0.5-0.7-1.1-0.7-1.9c0.2-6,0.3-12,0.3-18.7c-0.1,0.2-0.2,0.4-0.3,0.5c-0.4,0.5-1.1,0.7-1.8,0.7
							c-0.6,0-1.2-0.2-1.7-0.6c-0.5-0.4-0.9-1-1-1.7c-0.3-3.1,0.2-6.4,1.4-8.9c1.5-3.1,3.8-4.9,6.9-5.3c0.5-0.1,1.1-0.2,1.6-0.2
							c0.5,0,1,0,1.5,0.1c1.2,0.1,2.3,0.4,3.3,0.9c0.9,0.5,1.8,1.2,2.5,2c1.2,1.4,2,3.2,2.5,5.3c0.4,1.9,0.6,4,0.3,5.9
							c-0.1,0.7-0.4,1.3-1,1.7c-0.5,0.4-1.1,0.6-1.7,0.6c0,0,0,0,0,0c-0.7,0-1.3-0.3-1.8-0.7c-0.1-0.2-0.3-0.4-0.4-0.7
							c0,0,0,0.1,0,0.1c0,5.8,0,12.3,0.3,18.8c0,0.7-0.2,1.4-0.7,1.9C35.4,36.7,34.7,36.9,33.9,36.9z M36.2,10.6c0,0.3,0,0.6,0,0.8
							c0,0.8,0,1.7,0,2.5C36.3,12.7,36.3,11.6,36.2,10.6z"/>
						<path class="st2" d="M31,0.6c-0.5,0-1,0.1-1.5,0.2c-6.3,0.7-8.3,8-7.8,13.6c0.1,1.2,1.1,1.8,2.1,1.8c0.9,0,1.8-0.6,1.7-1.8
							c-0.2-2-0.1-5.1,1-7.3V15c0,0.1,0,0.2,0,0.3c0,0,0,0.1,0,0.1c0,6.3,0,12.6-0.3,18.8c-0.1,1.4,1,2.1,2.1,2.1
							c1.1,0,2.2-0.7,2.3-2.1c0.2-4.9,0.3-9.8,0.3-14.8c0.1,0,0.2,0,0.3,0c0.1,0,0.2,0,0.3,0c0,4.9,0.1,9.8,0.3,14.8
							c0.1,1.4,1.2,2.1,2.3,2.1c1.1,0,2.1-0.7,2.1-2.1c-0.3-6.3-0.3-12.6-0.3-18.8c0-0.2,0-0.4-0.1-0.5c0-2.7-0.1-5.5-0.1-8.2
							c1.3,2.2,1.4,5.5,1.2,7.7c-0.1,1.2,0.8,1.8,1.7,1.8c0.9,0,2-0.6,2.1-1.8C41.1,8.7,39,1.2,32.4,0.8C31.9,0.7,31.5,0.6,31,0.6
							 M31-0.5v1.1V-0.5c0.5,0,1,0,1.5,0.1c1.3,0.1,2.4,0.4,3.5,1c1,0.5,1.9,1.3,2.7,2.2c1.2,1.4,2.1,3.4,2.6,5.6
							c0.4,2,0.6,4.1,0.4,6.1c-0.2,1.9-1.8,2.8-3.2,2.8c-0.6,0-1.1-0.2-1.6-0.4c0,5.4,0,11.4,0.3,17.3c0,0.9-0.2,1.7-0.8,2.3
							c-0.6,0.6-1.5,1-2.4,1c-0.8,0-1.6-0.3-2.2-0.8c-0.2-0.2-0.4-0.4-0.6-0.6c-0.2,0.2-0.4,0.5-0.6,0.6c-0.6,0.5-1.4,0.8-2.2,0.8
							c-0.9,0-1.8-0.4-2.4-1c-0.6-0.6-0.9-1.4-0.8-2.3c0.2-5.6,0.3-11.2,0.3-17.3c-0.4,0.2-1,0.4-1.5,0.4c-1.5,0-3-1-3.2-2.8
							c-0.3-3.2,0.2-6.6,1.4-9.2c0.7-1.5,1.7-2.8,2.8-3.7c1.3-1,2.8-1.7,4.5-1.9C29.8-0.4,30.4-0.5,31-0.5z"/>
					</g>
				</g>
			</g>
		</g>
	</g>
</g>
</svg>
