<svg xmlns="http://www.w3.org/2000/svg" width="32" height="32" viewBox="0 0 32 32"><defs><style>.a{fill:#fff;}.b{fill:none;}</style></defs><g transform="translate(-2870.648 -9486)"><g transform="translate(2872.993 9488.866)"><path class="a" d="M2888.73,9521.492c-.042,0-.084,0-.126,0a2.665,2.665,0,0,1-1.86-.872h0l-9-9.866a2.685,2.685,0,0,1,.175-3.793l12.624-11.51a2.879,2.879,0,0,1,2.348-.726l7.787.673a3.812,3.812,0,0,1,3.232,3.459l0,.063.156,8.042a2.907,2.907,0,0,1-.935,2.342l-12.6,11.49A2.663,2.663,0,0,1,2888.73,9521.492Zm-.525-2.209a.7.7,0,0,0,.489.229.708.708,0,0,0,.509-.184l12.6-11.489a.92.92,0,0,0,.294-.751l0-.063-.156-8.034a1.842,1.842,0,0,0-1.529-1.638l-7.78-.672a.9.9,0,0,0-.751.228l-12.624,11.51a.705.705,0,0,0-.046,1Z" transform="translate(-2877.047 -9494.693)"/><path class="a" d="M2930.711,9514.08c-.053,0-.106,0-.159,0a3.356,3.356,0,1,1,.159,0Zm0-4.768a1.394,1.394,0,0,0-1.031,2.334h0a1.395,1.395,0,0,0,1.971.092,1.394,1.394,0,0,0-.94-2.426Z" transform="translate(-2910.757 -9503.167)"/></g><rect class="b" width="32" height="32" transform="translate(2870.648 9486)"/></g></svg>