<svg xmlns="http://www.w3.org/2000/svg" xmlns:xlink="http://www.w3.org/1999/xlink" width="32" height="32"
  viewBox="0 0 32 32">
  <defs>
    <style>
      .menu-home-fill {
        fill: #fff;
      }

      .menu-home-none {
        clip-path: url(#purple-svg);
      }
    </style>
    <clipPath id="a">
      <rect class="purple-svg" width="32" height="32" />
    </clipPath>
  </defs>
  <g class="menu-home-none">
    <path class="menu-home-fill"
      d="M28.315,34H23.983a1.422,1.422,0,0,1-1.42-1.42V25.9H17.3v6.686A1.422,1.422,0,0,1,15.879,34H11.558A1.878,1.878,0,0,1,9.67,32.1V20.762H7.635a1.613,1.613,0,0,1-1.513-1.019,1.922,1.922,0,0,1,.461-2.1L18.49,6.606c.017-.016.035-.032.054-.046a2.09,2.09,0,0,1,2.881,0c.019.015.038.031.055.048L33.389,17.7l.038.038a1.886,1.886,0,0,1,.443,2.033,1.632,1.632,0,0,1-1.535.99H30.193V32.07A1.866,1.866,0,0,1,28.315,34M28.3,32h0m-3.734,0h3.628V19.761a1,1,0,0,1,1-1h2.4L20.147,8.1a.848.848,0,0,0-.162-.1.9.9,0,0,0-.163.105L8.325,18.76H10.67a1,1,0,0,1,1,1V32H15.3V25.832A1.863,1.863,0,0,1,17.212,23.9h5.414a1.873,1.873,0,0,1,1.938,1.935Z"
      transform="translate(-3.989 -3.988)" />
  </g>
</svg>
