<svg width="31" height="32" viewBox="0 0 31 32" fill="none" xmlns="http://www.w3.org/2000/svg">
<path d="M13.723 18.6205H23.9908C24.1236 18.6205 24.2511 18.5678 24.3449 18.4743C24.439 18.3806 24.4916 18.2536 24.4916 18.1212V13.8779C24.4916 13.7455 24.439 13.6185 24.3449 13.5248C24.2511 13.4312 24.1236 13.3786 23.9908 13.3786H13.723C13.4464 13.3786 13.2223 13.6022 13.2223 13.8779V18.1212C13.2223 18.2536 13.2751 18.3806 13.369 18.4743C13.4628 18.5678 13.5902 18.6205 13.723 18.6205Z" fill="#fff"/>
<path d="M24.0407 22.0148H13.6731C13.3966 22.0148 13.1722 22.2382 13.1722 22.5139V27.5061C13.1722 27.6386 13.225 27.7654 13.3189 27.8592C13.4129 27.9527 13.5403 28.0054 13.6731 28.0054H24.0407C24.1737 28.0054 24.301 27.9527 24.395 27.8592C24.4888 27.7654 24.5417 27.6386 24.5417 27.5061V22.5139C24.5417 22.3815 24.4888 22.2545 24.395 22.161C24.301 22.0675 24.1737 22.0148 24.0407 22.0148ZM23.5398 27.0069H14.1737V23.0132H23.5398V27.0069Z" fill="#fff"/>
<path d="M24.0407 4.04319H13.6731C13.3966 4.04319 13.1722 4.26663 13.1722 4.54229V9.53445C13.1722 9.66682 13.225 9.79383 13.3189 9.88758C13.4129 9.9811 13.5403 10.0338 13.6731 10.0338H24.0407C24.1737 10.0338 24.301 9.9811 24.395 9.88758C24.4888 9.79383 24.5417 9.66682 24.5417 9.53445V4.54229C24.5417 4.40993 24.4888 4.28292 24.395 4.18939C24.301 4.09564 24.1737 4.04319 24.0407 4.04319ZM23.5398 9.03534H14.1737V5.04158H23.5398V9.03534Z" fill="#fff"/>
<path d="M10.8187 17.8714H0.550845C0.274273 17.8714 0.0501008 18.0948 0.0501008 18.3705V22.614C0.0501008 22.7464 0.102728 22.8734 0.196785 22.9669C0.290618 23.0607 0.418046 23.1131 0.550845 23.1131H10.8187C10.9515 23.1131 11.0789 23.0607 11.1727 22.9669C11.2668 22.8734 11.3194 22.7464 11.3194 22.614V18.3705C11.3194 18.2381 11.2668 18.1111 11.1727 18.0176C11.0789 17.9241 10.9515 17.8714 10.8187 17.8714Z" fill="#fff"/>
<path d="M10.8686 8.53597H0.500968C0.224172 8.53597 0 8.75964 0 9.0353V14.0275C0 14.1598 0.0528516 14.2868 0.146685 14.3804C0.240741 14.4741 0.368168 14.5266 0.500968 14.5266H10.8686C11.0014 14.5266 11.1288 14.4741 11.2228 14.3804C11.3167 14.2868 11.3695 14.1598 11.3695 14.0275V9.0353C11.3695 8.90294 11.3167 8.77593 11.2228 8.68218C11.1288 8.58865 11.0014 8.53597 10.8686 8.53597ZM10.3676 13.5281H1.00156V9.53437H10.3676V13.5281Z" fill="#fff"/>
<path d="M30.8126 15.5354L29.8108 14.7316C29.2971 14.3367 28.997 13.726 28.9995 13.0792V3.49462C28.9995 2.56759 28.63 1.6788 27.9725 1.02343C27.315 0.368056 26.4232 0 25.4934 0C25.2168 0 24.9927 0.223439 24.9927 0.49933C24.9927 0.774998 25.2168 0.998437 25.4934 0.998437C26.1576 0.998437 26.7945 1.26138 27.2644 1.72946C27.734 2.19754 27.9978 2.8326 27.9978 3.49466V13.0792C27.9911 14.0314 28.4298 14.9321 29.1847 15.5156L29.6857 15.925L29.1847 16.3294C28.4285 16.9138 27.9895 17.8167 27.9978 18.7705V28.5053C27.9978 29.1674 27.734 29.8024 27.2644 30.2705C26.7946 30.7386 26.1576 31.0016 25.4934 31.0016C25.2168 31.0016 24.9927 31.225 24.9927 31.5007C24.9927 31.7766 25.2168 32 25.4934 32C26.4232 32 27.315 31.6319 27.9725 30.9766C28.63 30.3212 28.9995 29.4324 28.9995 28.5054V18.7706C28.9964 18.1221 29.2962 17.5094 29.8108 17.113L30.8126 16.3143C30.931 16.2196 31 16.0763 31 15.925C31 15.7734 30.931 15.6303 30.8126 15.5354Z" fill="#fff"/>
</svg>
