<svg xmlns="http://www.w3.org/2000/svg" width="32" height="32" viewBox="0 0 32 32"><defs><style>.purple-svg-active{fill:#034ea2;}.purple-none{fill:none;}</style></defs><g transform="translate(-119 -371)"><g transform="translate(120.758 373.922)"><path class="purple-svg-active" d="M2905.609,9700.2l-.159-8.2,0-.065a3.889,3.889,0,0,0-3.3-3.527l-7.941-.686a2.936,2.936,0,0,0-2.395.74L2878.94,9700.2a2.737,2.737,0,0,0-.178,3.867l9.174,10.063h0a2.722,2.722,0,0,0,1.9.889c.043,0,.086,0,.129,0a2.717,2.717,0,0,0,1.842-.715l12.852-11.718A2.965,2.965,0,0,0,2905.609,9700.2Zm-4.9-2.277a3.414,3.414,0,0,1-2.314.9c-.054,0-.108,0-.163,0a3.44,3.44,0,1,1,2.477-.895Z" transform="translate(-2878.047 -9687.691)"/><path class="purple-svg-active" d="M2935.82,9706.332h-.067a1.41,1.41,0,0,0-.957.371,1.425,1.425,0,0,0-.093,2.011h0a1.423,1.423,0,1,0,1.117-2.381Z" transform="translate(-2915.409 -9700.064)"/></g><rect class="purple-none" width="32" height="32" transform="translate(119 371)"/></g></svg>