<svg width="37" height="32" viewBox="0 0 37 32" fill="none" xmlns="http://www.w3.org/2000/svg">
<style>
.purple-svg-active{fill:#034ea2;}.b{fill:none;}
</style>
<path class="purple-svg-active" d="M18.5001 0C17.5887 0 16.7667 0.449997 16.2995 1.24204L0.35116 28.1757V28.1919C-0.118489 28.9807 -0.115616 29.9484 0.35116 30.74C0.819735 31.5352 1.64505 32.0068 2.56743 31.9981C2.8424 31.9992 3.10591 31.8898 3.29986 31.6943C3.49382 31.4988 3.60173 31.2335 3.59957 30.9577C3.59742 30.6816 3.48557 30.4181 3.28839 30.2258C3.09157 30.0332 2.82627 29.9281 2.55166 29.9335C2.40073 29.9335 2.18419 29.8039 2.11786 29.6916C2.05261 29.5807 2.05117 29.3669 2.11786 29.2564V29.2402L18.0662 2.30647C18.0666 2.30107 18.0666 2.29567 18.0662 2.29027C18.1314 2.17975 18.344 2.06456 18.5 2.06456C18.656 2.06456 18.8685 2.17975 18.9338 2.29027C18.9334 2.29567 18.9334 2.30107 18.9338 2.30647L34.8821 29.2402V29.2564C34.9488 29.3669 34.9474 29.5807 34.8821 29.6916C34.8169 29.8025 34.605 29.9342 34.4483 29.9335C34.1737 29.9281 33.9084 30.0332 33.7116 30.2258C33.5144 30.4181 33.4026 30.6816 33.4004 30.9577C33.3983 31.2335 33.5062 31.4988 33.7001 31.6943C33.8941 31.8898 34.1576 31.9992 34.4326 31.9981C35.3489 32.0032 36.1792 31.5366 36.6488 30.74C37.1156 29.9483 37.1185 28.9806 36.6488 28.1919V28.1757L20.7005 1.24204C20.2334 0.450034 19.4113 0 18.4999 0H18.5001ZM18.3875 10.8223C17.858 10.881 17.4607 11.3357 17.4722 11.8706V21.1603C17.4683 21.4365 17.5748 21.7029 17.768 21.8998C17.9612 22.0963 18.2247 22.2072 18.5001 22.2072C18.7754 22.2072 19.0389 22.0963 19.2322 21.8998C19.4254 21.7029 19.5319 21.4365 19.5279 21.1603V11.8706C19.5344 11.5733 19.4128 11.2878 19.1945 11.0869C18.9758 10.8864 18.6818 10.7899 18.3875 10.8223H18.3875ZM18.5001 23.7413C17.6486 23.7413 16.9581 24.4346 16.9581 25.2896C16.9581 26.1446 17.6486 26.838 18.5001 26.838C19.3516 26.838 20.042 26.1447 20.042 25.2896C20.042 24.4347 19.3516 23.7413 18.5001 23.7413ZM6.06868 29.9343C5.79585 29.9473 5.53952 30.0682 5.35561 30.2709C5.17205 30.4736 5.07597 30.7411 5.08852 31.015C5.10142 31.2886 5.22188 31.5464 5.42372 31.7307C5.62556 31.9154 5.89229 32.0115 6.16511 31.9989H30.8352C31.1105 32.0025 31.3758 31.8956 31.5715 31.7015C31.7676 31.5075 31.8777 31.2429 31.8777 30.9664C31.8777 30.6903 31.7676 30.4253 31.5715 30.2313C31.3758 30.0376 31.1105 29.9303 30.8352 29.9343H6.16511C6.13285 29.9329 6.10058 29.9329 6.06867 29.9343L6.06868 29.9343Z" fill="#034ea2"/>
</svg>
