<svg xmlns="http://www.w3.org/2000/svg" width="32" height="32" viewBox="0 0 32 32"><defs><style>.purple-svg-active{fill:#034ea2;}.b{fill:none;}</style></defs><g transform="translate(-184 -2574.948)"><g transform="translate(184 2575)"><path class="purple-svg-active" d="M212.329,2609.023h-4.335a1.422,1.422,0,0,1-1.421-1.421v-6.691h-5.267v6.691a1.422,1.422,0,0,1-1.421,1.421h-4.324a1.879,1.879,0,0,1-1.889-1.907v-11.344h-2.036a1.614,1.614,0,0,1-1.514-1.02,1.923,1.923,0,0,1,.461-2.1l11.915-11.049.054-.046a2.092,2.092,0,0,1,2.883,0c.019.016.038.031.056.048l11.915,11.1.038.037a1.887,1.887,0,0,1,.443,2.034,1.633,1.633,0,0,1-1.536.991h-2.143v11.316A1.867,1.867,0,0,1,212.329,2609.023Zm-.017-2h0Z" transform="translate(-187.987 -2578.987)"/><rect class="b" width="32" height="32" transform="translate(0 -0.051)"/></g></g></svg>