<svg xmlns="http://www.w3.org/2000/svg" xmlns:xlink="http://www.w3.org/1999/xlink" width="32" height="32" viewBox="0 0 32 32"><defs><style>.a{fill:#034ea2;}.b{clip-path:url(#a);}</style><clipPath id="a"><rect class="a" width="32" height="32" transform="translate(0)"/></clipPath></defs><g class="b" transform="translate(0)"><path class="a" d="M17.5,9.207H10.068a.649.649,0,0,0-.085.006A1.66,1.66,0,0,0,8.4,10.873v4.2a1.669,1.669,0,0,0,1.667,1.667H17.5a1.66,1.66,0,0,0,1.661-1.583.619.619,0,0,0,.006-.083v-4.2A1.668,1.668,0,0,0,17.5,9.207" transform="translate(-5.561 -6.094)"/><path class="a" d="M15.512,15.764H8.082A2.684,2.684,0,0,1,5.4,13.083v-4.2a2.677,2.677,0,0,1,2.51-2.672,1.611,1.611,0,0,1,.171-.009h7.43a2.684,2.684,0,0,1,2.681,2.681v4.2c0,.057,0,.113-.009.168a2.677,2.677,0,0,1-2.672,2.513M8.107,8.235l-.058,0a.642.642,0,0,0-.619.648v4.2a.653.653,0,0,0,.652.652h7.43a.642.642,0,0,0,.648-.62l0-.056V8.888a.653.653,0,0,0-.652-.652Z" transform="translate(-3.575 -4.109)"/><path class="a" d="M63.659,9.207H56.229a.65.65,0,0,0-.085.006,1.66,1.66,0,0,0-1.582,1.661V21.539a1.668,1.668,0,0,0,1.667,1.667h7.431a1.66,1.66,0,0,0,1.661-1.583.619.619,0,0,0,.006-.083V10.873a1.668,1.668,0,0,0-1.666-1.666" transform="translate(-36.117 -6.094)"/><path class="a" d="M61.672,22.234H54.242a2.684,2.684,0,0,1-2.681-2.681V8.888a2.677,2.677,0,0,1,2.51-2.672,1.616,1.616,0,0,1,.171-.009h7.431a2.684,2.684,0,0,1,2.681,2.681V19.553a1.692,1.692,0,0,1-.009.172,2.678,2.678,0,0,1-2.672,2.509m-7.4-14-.059,0a.642.642,0,0,0-.619.648V19.553a.653.653,0,0,0,.652.652h7.431a.642.642,0,0,0,.648-.62l0-.061V8.888a.653.653,0,0,0-.652-.652Z" transform="translate(-34.13 -4.109)"/><path class="a" d="M63.659,65.058H56.229a.65.65,0,0,0-.085.006,1.66,1.66,0,0,0-1.582,1.661v4.2a1.668,1.668,0,0,0,1.667,1.667h7.431A1.66,1.66,0,0,0,65.32,71a.628.628,0,0,0,.006-.084v-4.2a1.668,1.668,0,0,0-1.666-1.667" transform="translate(-36.117 -43.064)"/><path class="a" d="M61.672,71.615H54.242a2.684,2.684,0,0,1-2.681-2.681v-4.2a2.677,2.677,0,0,1,2.509-2.672,1.634,1.634,0,0,1,.172-.009h7.431a2.684,2.684,0,0,1,2.681,2.681v4.2a1.7,1.7,0,0,1-.009.172,2.677,2.677,0,0,1-2.672,2.508m-7.4-7.529-.06,0a.642.642,0,0,0-.619.648v4.2a.653.653,0,0,0,.652.652h7.431a.642.642,0,0,0,.648-.62l0-.061V64.739a.653.653,0,0,0-.652-.652Z" transform="translate(-34.13 -41.079)"/><path class="a" d="M17.5,45.921H10.068a.649.649,0,0,0-.085.006A1.66,1.66,0,0,0,8.4,47.588V58.253a1.669,1.669,0,0,0,1.667,1.667H17.5a1.66,1.66,0,0,0,1.661-1.583.628.628,0,0,0,.006-.084V47.588A1.668,1.668,0,0,0,17.5,45.921" transform="translate(-5.561 -30.397)"/><path class="a" d="M15.512,58.948H8.082A2.684,2.684,0,0,1,5.4,56.267V45.6A2.677,2.677,0,0,1,7.91,42.93a1.625,1.625,0,0,1,.172-.009h7.43A2.684,2.684,0,0,1,18.193,45.6V56.267c0,.057,0,.113-.009.168a2.677,2.677,0,0,1-2.672,2.513m-7.4-14-.059,0a.642.642,0,0,0-.619.648V56.267a.653.653,0,0,0,.652.652h7.43a.642.642,0,0,0,.648-.62l0-.056V45.6a.653.653,0,0,0-.652-.652Z" transform="translate(-3.575 -28.411)"/></g></svg>