<svg xmlns="http://www.w3.org/2000/svg" xmlns:xlink="http://www.w3.org/1999/xlink" width="32" height="32"
  viewBox="0 0 32 32">
  <defs>
    <style>
      .menu-dashboards-fill {
        fill: #fff;
      }

      .menu-dashboards-none {
        clip-path: url(#purple-svg);
      }
    </style>
    <clipPath id="a">
      <rect class="menu-dashboards-fill" width="32" height="32" transform="translate(0)" />
    </clipPath>
  </defs>
  <g transform="translate(-84 -474)">
    <g transform="translate(84 474)">
      <g class="menu-dashboards-none" transform="translate(0)">
        <path class="menu-dashboards-fill"
          d="M16.093,15.479H8.676A2.679,2.679,0,0,1,6,12.8V8.615A2.672,2.672,0,0,1,8.505,5.948a1.608,1.608,0,0,1,.171-.009h7.417a2.679,2.679,0,0,1,2.676,2.676V12.8a1.6,1.6,0,0,1-.009.171,2.672,2.672,0,0,1-2.667,2.5M8.7,7.964l-.058,0a.641.641,0,0,0-.618.647V12.8a.652.652,0,0,0,.651.651h7.417a.641.641,0,0,0,.647-.619l0-.059V8.615a.652.652,0,0,0-.651-.651Z"
          transform="translate(-3.975 -4.194)" />
        <path class="menu-dashboards-fill"
          d="M62.254,21.937H54.837a2.679,2.679,0,0,1-2.676-2.676V8.615a2.672,2.672,0,0,1,2.505-2.667,1.608,1.608,0,0,1,.171-.009h7.417A2.679,2.679,0,0,1,64.93,8.615V19.261a1.65,1.65,0,0,1-.009.169,2.673,2.673,0,0,1-2.667,2.507M54.862,7.964l-.058,0a.641.641,0,0,0-.618.647V19.261a.652.652,0,0,0,.651.651h7.417a.642.642,0,0,0,.647-.619l0-.057V8.615a.652.652,0,0,0-.651-.651Z"
          transform="translate(-34.559 -4.194)" />
        <path class="menu-dashboards-fill"
          d="M62.254,71.33H54.837a2.679,2.679,0,0,1-2.676-2.676V64.466a2.672,2.672,0,0,1,2.5-2.667,1.614,1.614,0,0,1,.171-.009h7.418a2.679,2.679,0,0,1,2.676,2.676v4.188a1.65,1.65,0,0,1-.009.169,2.673,2.673,0,0,1-2.667,2.507m-7.391-7.516-.06,0a.641.641,0,0,0-.618.647v4.188a.652.652,0,0,0,.651.651h7.418a.642.642,0,0,0,.647-.619l0-.057V64.466a.652.652,0,0,0-.651-.651Z"
          transform="translate(-34.559 -41.198)" />
        <path class="menu-dashboards-fill"
          d="M16.093,58.651H8.676A2.679,2.679,0,0,1,6,55.975V45.329a2.672,2.672,0,0,1,2.5-2.667,1.615,1.615,0,0,1,.171-.009h7.418a2.679,2.679,0,0,1,2.676,2.676V55.975a1.6,1.6,0,0,1-.009.171,2.672,2.672,0,0,1-2.667,2.5M8.7,44.678l-.06,0a.641.641,0,0,0-.618.647V55.975a.652.652,0,0,0,.651.651h7.418a.641.641,0,0,0,.647-.619l0-.059V45.329a.652.652,0,0,0-.651-.651Z"
          transform="translate(-3.975 -28.519)" />
      </g>
    </g>
  </g>
</svg>
