<svg xmlns="http://www.w3.org/2000/svg" width="32" height="32" viewBox="0 0 32 32">
  <defs>
    <style>
      .menu-logout-fill {
        fill: #fff;
      }

      .menu-logout-none {
        fill: none;
      }
    </style>
  </defs>
  <g transform="translate(1101 -9935)">
    <g transform="translate(-1099 9937)">
      <path class="menu-logout-fill"
        d="M1748.438,230.5a14.02,14.02,0,0,1-9.9-4.037,13.63,13.63,0,0,1,0-19.49,14.022,14.022,0,0,1,2.351-1.865,1.02,1.02,0,0,1,1.4.3.985.985,0,0,1-.305,1.374,12.07,12.07,0,0,0-2.013,1.6,11.662,11.662,0,0,0,0,16.677,12.113,12.113,0,0,0,16.941,0,11.663,11.663,0,0,0,0-16.677,12.051,12.051,0,0,0-2.013-1.6.985.985,0,0,1-.305-1.374,1.02,1.02,0,0,1,1.4-.3,14.031,14.031,0,0,1,2.351,1.865,13.631,13.631,0,0,1,0,19.49,14.021,14.021,0,0,1-9.9,4.037"
        transform="translate(-1734.438 -202.5)" />
      <path class="menu-logout-fill"
        d="M1774.058,207.155A1.058,1.058,0,0,1,1773,206.1v-7.039a1.058,1.058,0,1,1,2.115,0V206.1a1.057,1.057,0,0,1-1.057,1.058"
        transform="translate(-1760.058 -198)" />
    </g>
    <rect class="menu-logout-none" width="32" height="32" transform="translate(-1101 9935)" />
  </g>
</svg>
