<svg xmlns="http://www.w3.org/2000/svg" width="32" height="32" viewBox="0 0 32 32">
  <defs>
    <style>
      .purple-none {
        fill: none;
      }

      .purple-svg-active {
        fill: #034ea2;
      }
    </style>
  </defs>
  <g transform="translate(-119 -447)">
    <rect class="purple-none" width="32" height="32" transform="translate(119 447)" />
    <g transform="translate(123 449)">
      <path class="purple-svg-active"
        d="M2911.862,1621h-17.3a1.525,1.525,0,0,0-1.525,1.526v.409h17.533a1.29,1.29,0,0,1,1.29,1.29v20.5h.408a1.526,1.526,0,0,0,1.526-1.526v-20.265A1.935,1.935,0,0,0,2911.862,1621Z"
        transform="translate(-2889.666 -1621)" />
      <path class="purple-svg-active"
        d="M2901.719,1631.406h-17.533a1.614,1.614,0,0,0-1.612,1.612v20.5a1.614,1.614,0,0,0,1.612,1.612h17.533a1.614,1.614,0,0,0,1.612-1.612v-20.5A1.613,1.613,0,0,0,2901.719,1631.406Zm-4.775,19.41h-7.983a.967.967,0,1,1,0-1.934h7.983a.967.967,0,1,1,0,1.934Zm0-3.395h-7.983a.967.967,0,1,1,0-1.934h7.983a.967.967,0,1,1,0,1.934Zm.684-10.106-5.538,5.537a.967.967,0,0,1-1.368,0l-2.445-2.445a.967.967,0,0,1,1.367-1.368l1.761,1.761,4.854-4.854a.967.967,0,0,1,1.368,1.368Z"
        transform="translate(-2882.574 -1628.051)" />
    </g>
  </g>
</svg>
