<svg xmlns="http://www.w3.org/2000/svg" width="13.56" height="15" viewBox="0 0 13.56 15"><defs><style>.a{fill:#666;}</style></defs><g transform="translate(0 0)"><path class="a" d="M1741.218,217.045a6.871,6.871,0,0,1-4.794-1.911,6.351,6.351,0,0,1,0-9.226,6.76,6.76,0,0,1,1.139-.883.5.5,0,0,1,.676.142.46.46,0,0,1-.148.651,5.827,5.827,0,0,0-.975.756,5.434,5.434,0,0,0,0,7.894,5.964,5.964,0,0,0,8.2,0,5.434,5.434,0,0,0,0-7.894,5.815,5.815,0,0,0-.975-.756.46.46,0,0,1-.148-.651.5.5,0,0,1,.676-.142,6.765,6.765,0,0,1,1.139.883,6.351,6.351,0,0,1,0,9.226,6.872,6.872,0,0,1-4.794,1.911" transform="translate(-1734.438 -202.045)"/><g transform="translate(10.752 0.81) rotate(104)"><path class="a" d="M.385,3.214a.385.385,0,0,1-.272-.658L2.557.113A.385.385,0,1,1,3.1.658L.658,3.1a.384.384,0,0,1-.272.113" transform="translate(2.563 0)"/><path class="a" d="M2.828,3.214A.385.385,0,0,1,2.555,3.1L.113.659A.386.386,0,1,1,.659.113L3.1,2.555a.386.386,0,0,1-.273.659" transform="translate(0 0.135)"/></g></g></svg>