<svg height="511pt" viewBox="0 0 511.99973 511" width="511pt" xmlns="http://www.w3.org/2000/svg"><path d="m187.390625 141.886719-176.835937 208.367187c-15 17.730469-13.886719 44.480469 2.535156 60.898438l88.257812 88.257812c16.425782 16.429688 43.175782 17.527344 60.914063 2.519532l208.335937-176.804688c33.472656-28.328125 35.585938-79.308594 4.585938-110.308594l-77.5-77.5c-30.984375-30.988281-81.976563-28.898437-110.292969 4.570313zm163.808594 160.34375-208.335938 176.808593c-5.910156 5-14.828125 4.628907-20.300781-.84375l-88.257812-88.257812c-5.472657-5.472656-5.84375-14.390625-.855469-20.285156l176.835937-208.367188c17.082032-20.1875 47.621094-21.316406 66.183594-2.753906l77.5 77.503906c18.644531 18.644532 17.382812 49.144532-2.769531 66.195313zm0 0"/><path d="m347.042969.5c-8.285157 0-15.003907 6.71875-15.003907 15.003906s6.71875 15 15.003907 15c36.113281 0 70.019531 14.019532 95.476562 39.476563s39.476563 59.363281 39.476563 95.476562c0 8.285157 6.714844 15.003907 15 15.003907s15.003906-6.71875 15.003906-15.003907c0-44.128906-17.140625-85.570312-48.265625-116.691406-31.121094-31.125-72.5625-48.265625-116.691406-48.265625zm0 0"/><path d="m347.042969 90.484375c20.0625 0 38.902343 7.789063 53.042969 21.929687 14.140624 14.144532 21.929687 32.980469 21.929687 53.042969 0 8.285157 6.71875 15.003907 15.003906 15.003907 8.285157 0 15-6.71875 15-15.003907 0-28.078125-10.90625-54.449219-30.71875-74.257812-19.808593-19.8125-46.179687-30.71875-74.257812-30.71875-8.285157 0-15.003907 6.714843-15.003907 15 0 8.285156 6.71875 15.003906 15.003907 15.003906zm0 0"/><path d="m347.042969 150.453125c4.007812 0 7.773437 1.5625 10.609375 4.394531 2.832031 2.835938 4.394531 6.601563 4.394531 10.609375 0 8.285157 6.714844 15.003907 15 15.003907s15.003906-6.71875 15.003906-15.003907c0-12.023437-4.683593-23.324219-13.183593-31.824219-8.5-8.503906-19.800782-13.183593-31.824219-13.183593-8.285157 0-15.003907 6.71875-15.003907 15.003906s6.71875 15 15.003907 15zm0 0"/><path d="m251.542969 176.046875c-5.859375-5.859375-15.359375-5.859375-21.21875 0s-5.859375 15.355469 0 21.214844 15.359375 5.859375 21.21875 0 5.859375-15.355469 0-21.214844zm0 0"/><path d="m336.410156 260.917969c-5.859375-5.859375-15.359375-5.859375-21.214844 0-5.859374 5.859375-5.859374 15.355469 0 21.214843 5.855469 5.859376 15.355469 5.859376 21.214844 0 5.859375-5.859374 5.859375-15.355468 0-21.214843zm0 0"/><path d="m209.109375 218.480469c-5.859375-5.859375-15.359375-5.859375-21.21875 0s-5.859375 15.359375 0 21.21875c5.859375 5.855469 15.359375 5.855469 21.21875 0 5.859375-5.859375 5.859375-15.359375 0-21.21875zm0 0"/><path d="m251.542969 260.914062c-5.859375-5.859374-15.359375-5.859374-21.21875 0-5.859375 5.859376-5.859375 15.359376 0 21.214844 5.859375 5.859375 15.359375 5.859375 21.21875 0 5.859375-5.855468 5.859375-15.355468 0-21.214844zm0 0"/><path d="m293.976562 303.351562c-5.859374-5.859374-15.359374-5.859374-21.21875 0-5.859374 5.859376-5.859374 15.355469 0 21.214844 5.859376 5.859375 15.359376 5.859375 21.21875 0 5.859376-5.859375 5.859376-15.355468 0-21.214844zm0 0"/><path d="m166.675781 260.914062c-5.859375-5.859374-15.359375-5.859374-21.21875 0-5.859375 5.859376-5.859375 15.355469 0 21.214844s15.359375 5.859375 21.21875 0c5.855469-5.859375 5.855469-15.355468 0-21.214844zm0 0"/><path d="m209.109375 303.347656c-5.859375-5.859375-15.359375-5.859375-21.21875 0s-5.859375 15.355469 0 21.214844 15.359375 5.859375 21.21875 0c5.855469-5.859375 5.855469-15.355469 0-21.214844zm0 0"/><path d="m251.542969 345.78125c-5.859375-5.859375-15.359375-5.859375-21.21875 0s-5.859375 15.359375 0 21.21875 15.359375 5.859375 21.21875 0 5.859375-15.359375 0-21.21875zm0 0"/><path d="m163.304688 349.195312c-5.859376-5.859374-15.359376-5.859374-21.21875 0l-10.609376 10.609376-10.609374-10.609376c-5.855469-5.859374-15.355469-5.859374-21.214844 0-5.859375 5.859376-5.859375 15.359376 0 21.21875l10.609375 10.609376-10.609375 10.609374c-5.859375 5.855469-5.859375 15.355469 0 21.214844 5.855468 5.859375 15.355468 5.859375 21.214844 0l10.609374-10.609375 10.609376 10.609375c5.859374 5.859375 15.359374 5.859375 21.21875 0 5.855468-5.859375 5.855468-15.355468 0-21.214844l-10.609376-10.609374 10.609376-10.609376c5.859374-5.859374 5.859374-15.359374 0-21.21875zm0 0"/></svg>