<svg width="35" height="43" viewBox="0 0 35 43" fill="none" xmlns="http://www.w3.org/2000/svg">
<style>
.purple-svg-active{fill:#034ea2;}.b{fill:none;}
</style>
  <path class="purple-svg-active"
    d="M9.10566 36.02C9.61431 36.02 10.0255 35.6083 10.0255 35.1001V31.88C10.0255 31.3713 9.61391 30.9601 9.10566 30.9601C8.59701 30.9601 8.18579 31.3717 8.18579 31.88V35.1001C8.18541 35.6083 8.59702 36.02 9.10566 36.02Z"
    fill="#034ea2" stroke="#034ea2" stroke-width="0.4" stroke-linejoin="round" />
  <path class="purple-svg-active"
    d="M15.6212 35.1003V25.4403C15.6212 24.9317 15.2096 24.5204 14.7014 24.5204C14.1927 24.5204 13.7815 24.9321 13.7815 25.4403V35.1003C13.7815 35.609 14.1931 36.0202 14.7014 36.0202C15.21 36.0206 15.6212 35.609 15.6212 35.1003Z"
    fill="#034ea2" stroke="#034ea2" stroke-width="0.4" stroke-linejoin="round" />
  <path class="purple-svg-active"
    d="M21.2182 35.1003V29.1202C21.2182 28.6115 20.8065 28.2003 20.2983 28.2003C19.7896 28.2003 19.3784 28.6119 19.3784 29.1202V35.1003C19.3784 35.609 19.79 36.0202 20.2983 36.0202C20.8065 36.0206 21.2182 35.609 21.2182 35.1003Z"
    fill="#034ea2" stroke="#034ea2" stroke-width="0.4" stroke-linejoin="round" />
  <path class="purple-svg-active"
    d="M25.8953 21.7606C25.3867 21.7606 24.9755 22.1722 24.9755 22.6805V35.1005C24.9755 35.6091 25.3871 36.0204 25.8953 36.0204C26.404 36.0204 26.8152 35.6087 26.8152 35.1005V22.6805C26.8152 22.1722 26.404 21.7606 25.8953 21.7606Z"
    fill="#034ea2" stroke="#034ea2" stroke-width="0.4" stroke-linejoin="round" />
  <path class="purple-svg-active"
    d="M8.45413 20.8701C8.09488 21.2293 8.09488 21.8115 8.45413 22.1711C8.63394 22.3509 8.8692 22.4406 9.10447 22.4406C9.33974 22.4406 9.57538 22.3509 9.75481 22.1711L14.847 17.0777L19.8299 20.0129C20.1703 20.2123 20.5988 20.1754 20.898 19.9166L26.4954 15.0866C26.88 14.7551 26.9232 14.1737 26.5905 13.7894C26.259 13.4032 25.676 13.3616 25.2933 13.6943L20.1957 18.0931L15.1681 15.1309C14.8077 14.918 14.3468 14.9765 14.0503 15.273L8.45413 20.8701Z"
    fill="#034ea2" stroke="#034ea2" stroke-width="0.4" stroke-linejoin="round" />
  <path class="purple-svg-active"
    d="M33.1317 42C33.6118 42 34 41.6152 34 41.1401V1.85988C34 1.3844 33.6115 1 33.1317 1H11.2038C11.186 1 11.1704 1.009 11.1526 1.01008C11.0737 1.01476 10.9978 1.02987 10.9233 1.05543C10.8964 1.06443 10.8706 1.07163 10.8447 1.08315C10.7524 1.12526 10.6645 1.17816 10.5896 1.25195L1.25442 10.4967C1.17991 10.5705 1.12684 10.6572 1.08432 10.7487C1.07196 10.7749 1.06469 10.8019 1.05525 10.8293C1.03017 10.902 1.01527 10.9754 1.01054 11.0517C1.00945 11.0701 1 11.0863 1 11.1046V41.1401C1 41.6156 1.38854 42 1.86829 42L33.1317 42ZM32.2634 40.2799H2.73751V11.9647H11.2046C11.6847 11.9647 12.0729 11.5799 12.0729 11.1048V2.71976H32.2636L32.2634 40.2799ZM10.3355 3.93624V10.2452H3.96486L10.3355 3.93624Z"
    fill="#034ea2" stroke="#034ea2" stroke-width="0.4" stroke-linejoin="round" />
</svg>
