<?xml version="1.0" encoding="utf-8"?>
<!-- Generator: Adobe Illustrator 23.0.4, SVG Export Plug-In . SVG Version: 6.00 Build 0)  -->
<svg version="1.1" id="Layer_1" xmlns="http://www.w3.org/2000/svg" xmlns:xlink="http://www.w3.org/1999/xlink" x="0px" y="0px"
	 viewBox="0 0 512 512" style="enable-background:new 0 0 512 512;" xml:space="preserve">
<path class="st0" d="M482.4,311.6L482.4,311.6"/>
<g>
	<path class="st0" d="M95.5,363.1L95.5,363.1"/>
</g>
<g>
	<path class="st0" d="M119.1,285.5c-10.4,10.4-10.4,27,0,36.3c10.4,10.4,27,10.4,36.3,0c10.4-10.4,10.4-27,0-36.3
		C145.1,276.2,128.5,276.2,119.1,285.5z"/>
	<path class="st0" d="M331.7,177.7c10.4-10.4,10.4-27,0-36.3c-10.4-10.4-27-10.4-36.3,0c-10.4,10.4-10.4,27,0,36.3
		C304.8,188,321.4,188,331.7,177.7z"/>
	<path class="st0" d="M271.6,247.2h36.3c4.1,2.1,9.3,2.1,12.4-1l36.3-36.3l1-1c1-1,2.1-1,3.1-2.1c25.9-25.9,25.9-68.5,0-94.4
		c-25.9-25.9-69.5-25.9-95.4,0c-25.9,25.9-25.9,68.5,0,94.4c1,1,2.1,1,3.1,2.1l1,1l17.6,17.6h-15.6l0,0c-25.9,0-45.6,20.7-45.6,46.7
		c0,25.9,20.7,45.6,46.7,45.6h41.5c14.5,0,25.9,11.4,25.9,25.9c0,14.5-11.4,25.9-25.9,25.9H162.7l18.7-17.6l1-1c1-1,2.1-1,3.1-2.1
		c25.9-25.9,25.9-68.5,0-94.4c-25.9-25.9-69.5-25.9-95.4,0c-25.9,25.9-25.9,68.5,0,94.4c1,1,2.1,1,3.1,2.1l1,1l36.3,36.3
		c3.1,3.1,6.2,3.1,10.4,2.1h174.2l0,0c25.9,0,45.6-20.7,45.6-46.7c0-24.9-20.7-45.6-45.6-46.7l0,0h-43.6
		c-14.5,0-25.9-11.4-25.9-25.9C245.7,259.6,258.1,247.2,271.6,247.2z M279.9,191.2L279.9,191.2L279.9,191.2
		c-18.7-18.7-18.7-47.7,0-65.3c18.7-18.7,48.7-18.7,66.4,0c18.7,17.6,18.7,47.7,0,65.3l0,0l0,0l-33.2,32.2L279.9,191.2z
		 M136.8,368.5l-33.2-33.2l0,0l0,0c-18.7-17.6-18.7-47.7,0-65.3s47.7-17.6,66.4,0s18.7,47.7,0,65.3l0,0l0,0L136.8,368.5z"/>
</g>
<g>
	<polyline class="st0" points="277.4,44.3 277.4,0.8 151.7,0.8 151.7,87.8 277.4,87.8 277.4,44.3 	"/>
	<path class="st0" d="M126.2,87.2c0.3-0.3,0.6-19.8,0.6-43.4V0.8H0.2v86.9h62.7C97.4,87.8,125.8,87.5,126.2,87.2"/>
	<path class="st0" d="M126.2,200.8c0.3-0.3,0.6-19.8,0.6-43.4v-42.9H0.2v86.9h62.7C97.4,201.4,125.8,201.1,126.2,200.8"/>
</g>
<polyline class="st0" points="232.4,468.1 232.4,511.6 358.1,511.6 358.1,424.6 232.4,424.6 232.4,468.1 "/>
<path class="st0" d="M385.6,425.2c-0.3,0.3-0.6,19.8-0.6,43.4v42.9h126.6v-86.9h-62.7C414.4,424.6,385.9,424.9,385.6,425.2"/>
<path class="st0" d="M385.6,311.6c-0.3,0.3-0.6,19.8-0.6,43.4V398h126.6V311h-62.7C414.4,311,385.9,311.2,385.6,311.6"/>
</svg>
