<?xml version="1.0" encoding="utf-8"?>
<!-- Generator: Adobe Illustrator 23.0.4, SVG Export Plug-In . SVG Version: 6.00 Build 0)  -->
<svg version="1.1" id="Layer_1" xmlns="http://www.w3.org/2000/svg" xmlns:xlink="http://www.w3.org/1999/xlink" x="0px" y="0px"
	 viewBox="0 0 30 30" style="enable-background:new 0 0 30 30;" xml:space="preserve">
<path d="M4.8,19.2c-1,1-1,2.6,0,3.5c1,1,2.6,1,3.5,0c1-1,1-2.6,0-3.5C7.3,18.3,5.7,18.3,4.8,19.2z"/>
<path d="M25.3,8.8c1-1,1-2.6,0-3.5c-1-1-2.6-1-3.5,0c-1,1-1,2.6,0,3.5C22.7,9.8,24.3,9.8,25.3,8.8z"/>
<path d="M19.5,15.5H23c0.4,0.2,0.9,0.2,1.2-0.1l3.5-3.5c0,0,0.1-0.1,0.1-0.1c0.1-0.1,0.2-0.1,0.3-0.2c2.5-2.5,2.5-6.6,0-9.1
	c-2.5-2.5-6.7-2.5-9.2,0c-2.5,2.5-2.5,6.6,0,9.1c0.1,0.1,0.2,0.1,0.3,0.2c0,0,0.1,0.1,0.1,0.1l1.7,1.7h-1.5v0c-2.5,0-4.4,2-4.4,4.5
	c0,2.5,2,4.4,4.5,4.4h4c1.4,0,2.5,1.1,2.5,2.5c0,1.4-1.1,2.5-2.5,2.5H9l1.8-1.7c0,0,0.1-0.1,0.1-0.1c0.1-0.1,0.2-0.1,0.3-0.2
	c2.5-2.5,2.5-6.6,0-9.1c-2.5-2.5-6.7-2.5-9.2,0c-2.5,2.5-2.5,6.6,0,9.1c0.1,0.1,0.2,0.1,0.3,0.2c0,0,0.1,0.1,0.1,0.1l3.5,3.5
	c0.3,0.3,0.6,0.3,1,0.2h16.8v0c2.5,0,4.4-2,4.4-4.5c0-2.4-2-4.4-4.4-4.5v0l-4.2,0C18.1,20.5,17,19.4,17,18
	C17,16.7,18.2,15.5,19.5,15.5z M20.3,10.1L20.3,10.1C20.3,10.1,20.3,10.1,20.3,10.1c-1.8-1.8-1.8-4.6,0-6.3C22.1,2,25,2,26.7,3.8
	c1.8,1.7,1.8,4.6,0,6.3c0,0,0,0,0,0l0,0l-3.2,3.1L20.3,10.1z M6.5,27.2L3.3,24v0c0,0,0,0,0,0c-1.8-1.7-1.8-4.6,0-6.3
	c1.8-1.7,4.6-1.7,6.4,0c1.8,1.7,1.8,4.6,0,6.3c0,0,0,0,0,0l0,0L6.5,27.2z"/>
</svg>
