<svg xmlns="http://www.w3.org/2000/svg" width="32" height="32" viewBox="0 0 32 32"><defs><style>.a{fill:#fff;}.b{fill:none;}</style></defs><g transform="translate(1.519 1.959)"><path class="a" d="M204.219,9521.225a14.22,14.22,0,1,1,14.219-14.219A14.235,14.235,0,0,1,204.219,9521.225Zm0-26.406a12.188,12.188,0,1,0,12.188,12.188A12.2,12.2,0,0,0,204.219,9494.818Z" transform="translate(-190 -9492.785)"/><g transform="translate(9.051 7.863)"><path class="a" d="M225.984,9518.043h-8.125a1.016,1.016,0,1,1,0-2.031h8.125a1.016,1.016,0,0,1,0,2.031Z" transform="translate(-216.806 -9516.012)"/><path class="a" d="M225.984,9528.543h-8.125a1.016,1.016,0,1,1,0-2.031h8.125a1.016,1.016,0,0,1,0,2.031Z" transform="translate(-216.806 -9522.957)"/><path class="a" d="M223.245,9530.51l-4.91-5.71a1.016,1.016,0,0,1,.77-1.678h1.351a2.54,2.54,0,0,0,0-5.079H217.75a1.016,1.016,0,1,1,0-2.031h2.707a4.571,4.571,0,0,1,.8,9.07l3.528,4.1Z" transform="translate(-216.734 -9516.012)"/></g></g><rect class="b" width="32" height="32"/></svg>