<svg xmlns="http://www.w3.org/2000/svg" viewBox="0 0 79.095 84">
  <g id="Group_3517" data-name="Group 3517" transform="translate(0.004)">
    <path id="Path_1540" data-name="Path 1540" d="M43.58,84H35.46a8.561,8.561,0,0,1-8.55-8.56V72.48a2.5,2.5,0,0,0-1.36-2.25,31.233,31.233,0,0,1-3.45-2,2.509,2.509,0,0,0-2.64-.06l-2.71,1.57a8.568,8.568,0,0,1-9.08-.42,8.136,8.136,0,0,1-2.39-2.66L1.14,59.48A8.571,8.571,0,0,1,4.27,47.79l2.56-1.48a2.565,2.565,0,0,0,1.26-2.42c-.04-.69-.04-3.09,0-3.78a2.594,2.594,0,0,0-1.26-2.42L4.26,36.21A8.672,8.672,0,0,1,.89,24.97c.05-.1.09-.18,4.39-7.63a8.445,8.445,0,0,1,8.06-4.18,8.046,8.046,0,0,1,3.39,1.1l2.72,1.57a2.51,2.51,0,0,0,2.64-.06,31.914,31.914,0,0,1,3.45-2,2.5,2.5,0,0,0,1.36-2.25V8.56A8.57,8.57,0,0,1,35.46,0h8.12a8.561,8.561,0,0,1,8.55,8.56v2.96a2.5,2.5,0,0,0,1.36,2.25,31.915,31.915,0,0,1,3.45,2,2.531,2.531,0,0,0,2.64.06l2.57-1.48a8.535,8.535,0,0,1,11.68,3.13l4.14,7.18a8.473,8.473,0,0,1-.4,9.05,7.98,7.98,0,0,1-2.66,2.41L72.2,37.69a2.565,2.565,0,0,0-1.26,2.42c.04.69.04,3.09,0,3.78a2.584,2.584,0,0,0,1.26,2.42l2.71,1.57a8,8,0,0,1,2.65,2.39,8.488,8.488,0,0,1,.41,9.07l-4.23,7.33a8.394,8.394,0,0,1-11.46,3.08l-2.71-1.57a2.51,2.51,0,0,0-2.64.06,31.913,31.913,0,0,1-3.45,2,2.5,2.5,0,0,0-1.36,2.25v2.96A8.55,8.55,0,0,1,43.58,84ZM20.74,61.83a8.476,8.476,0,0,1,4.69,1.4,25.936,25.936,0,0,0,2.79,1.62,8.553,8.553,0,0,1,4.69,7.63v2.96A2.563,2.563,0,0,0,35.46,78h8.12a2.556,2.556,0,0,0,2.55-2.56V72.48a8.565,8.565,0,0,1,4.69-7.63,25,25,0,0,0,2.79-1.62,8.549,8.549,0,0,1,8.97-.26l2.71,1.57a2.442,2.442,0,0,0,3.26-.88l4.23-7.33a2.47,2.47,0,0,0-.17-2.69,2.149,2.149,0,0,0-.7-.58h0L69.2,51.49a8.553,8.553,0,0,1-4.25-7.98c.03-.44.03-2.6,0-3.05a8.553,8.553,0,0,1,4.25-7.98l2.71-1.57a2.263,2.263,0,0,0,.7-.58,2.47,2.47,0,0,0,.17-2.69l-4.14-7.18a2.562,2.562,0,0,0-3.49-.94L62.58,21a8.57,8.57,0,0,1-8.97-.26,26.657,26.657,0,0,0-2.79-1.62,8.559,8.559,0,0,1-4.68-7.62V8.56A2.563,2.563,0,0,0,43.59,6H35.47a2.556,2.556,0,0,0-2.55,2.56v2.96a8.565,8.565,0,0,1-4.69,7.63,25,25,0,0,0-2.79,1.62,8.549,8.549,0,0,1-8.97.26l-2.72-1.57a2.152,2.152,0,0,0-.85-.32,2.444,2.444,0,0,0-2.41,1.19s-3.8,6.6-4.24,7.37a2.666,2.666,0,0,0,1.03,3.31l2.56,1.48a8.553,8.553,0,0,1,4.25,7.98c-.03.44-.03,2.6,0,3.04a8.553,8.553,0,0,1-4.25,7.98L7.28,52.97a2.574,2.574,0,0,0-.94,3.5l4.14,7.18a2.212,2.212,0,0,0,.59.71,2.477,2.477,0,0,0,2.67.17l2.71-1.57A8.735,8.735,0,0,1,20.74,61.83Z"/>
    <path id="Path_1541" data-name="Path 1541" d="M39.55,59.5A17.5,17.5,0,1,1,57.05,42,17.519,17.519,0,0,1,39.55,59.5Zm0-29A11.5,11.5,0,1,0,51.05,42,11.514,11.514,0,0,0,39.55,30.5Z"/>
  </g>
</svg>
