<svg xmlns="http://www.w3.org/2000/svg" width="14" height="14.868" viewBox="0 0 14 14.868"><defs><style>.a{fill:#666;}</style></defs><path class="a" d="M16.287,20.619H14.85A1.516,1.516,0,0,1,13.336,19.1V18.58a.445.445,0,0,0-.24-.4,5.548,5.548,0,0,1-.611-.354.444.444,0,0,0-.467-.01l-.48.277a1.517,1.517,0,0,1-1.606-.075,1.419,1.419,0,0,1-.423-.47l-.733-1.27A1.517,1.517,0,0,1,9.33,14.21l.454-.262a.456.456,0,0,0,.224-.428c-.007-.122-.007-.547,0-.669a.456.456,0,0,0-.224-.428l-.454-.262a1.537,1.537,0,0,1-.6-1.99c.009-.019.016-.032.776-1.351a1.5,1.5,0,0,1,1.428-.74,1.413,1.413,0,0,1,.6.2l.481.278a.444.444,0,0,0,.467-.01,5.611,5.611,0,0,1,.611-.353.446.446,0,0,0,.24-.4V7.266A1.516,1.516,0,0,1,14.85,5.751h1.437A1.516,1.516,0,0,1,17.8,7.266V7.79a.445.445,0,0,0,.24.4,5.611,5.611,0,0,1,.611.354.445.445,0,0,0,.467.01l.454-.262a1.514,1.514,0,0,1,2.069.555l.733,1.271a1.5,1.5,0,0,1-.071,1.6,1.413,1.413,0,0,1-.472.426l-.48.278a.456.456,0,0,0-.224.428c.007.122.007.547,0,.669a.456.456,0,0,0,.224.428l.48.277a1.413,1.413,0,0,1,.47.424,1.5,1.5,0,0,1,.073,1.6l-.748,1.3a1.484,1.484,0,0,1-2.029.544l-.48-.277a.445.445,0,0,0-.467.01,5.592,5.592,0,0,1-.61.353.446.446,0,0,0-.24.4V19.1a1.516,1.516,0,0,1-1.514,1.515M12.244,16.7a1.5,1.5,0,0,1,.829.248,4.5,4.5,0,0,0,.494.286,1.515,1.515,0,0,1,.83,1.35V19.1a.453.453,0,0,0,.452.453h1.437a.453.453,0,0,0,.452-.453V18.58a1.515,1.515,0,0,1,.83-1.35,4.541,4.541,0,0,0,.494-.286A1.515,1.515,0,0,1,19.65,16.9l.48.277a.432.432,0,0,0,.577-.155l.748-1.3a.435.435,0,0,0-.03-.476.389.389,0,0,0-.123-.1l-.48-.277a1.513,1.513,0,0,1-.753-1.412c0-.078,0-.461,0-.539a1.512,1.512,0,0,1,.753-1.412l.48-.278a.389.389,0,0,0,.124-.1.436.436,0,0,0,.03-.476l-.733-1.271A.452.452,0,0,0,20.1,9.21l-.454.262a1.514,1.514,0,0,1-1.587-.046,4.547,4.547,0,0,0-.494-.287,1.514,1.514,0,0,1-.829-1.35V7.266a.453.453,0,0,0-.452-.453H14.85a.453.453,0,0,0-.452.453V7.79a1.515,1.515,0,0,1-.83,1.35,4.573,4.573,0,0,0-.494.286,1.514,1.514,0,0,1-1.588.046l-.481-.278a.384.384,0,0,0-.15-.056.433.433,0,0,0-.426.211s-.674,1.168-.751,1.3a.472.472,0,0,0,.183.586l.454.262a1.512,1.512,0,0,1,.752,1.412c0,.078,0,.461,0,.539a1.513,1.513,0,0,1-.752,1.412l-.454.262a.454.454,0,0,0-.165.619l.733,1.271a.391.391,0,0,0,.1.125.437.437,0,0,0,.473.03l.48-.277a1.515,1.515,0,0,1,.758-.2" transform="translate(-8.574 -5.751)"/><path class="a" d="M33.77,36.551a3.15,3.15,0,1,1,3.15-3.15,3.154,3.154,0,0,1-3.15,3.15m0-5.22a2.07,2.07,0,1,0,2.07,2.07,2.073,2.073,0,0,0-2.07-2.07" transform="translate(-26.77 -25.967)"/></svg>