<svg id="Group_3487" data-name="Group 3487" xmlns="http://www.w3.org/2000/svg" viewBox="0 0 10.409 13.081">
  <path id="Path_1460" data-name="Path 1460" d="M.577,52.4A.576.576,0,0,1,0,51.819V49.337a.577.577,0,0,1,1.154,0v2.482A.578.578,0,0,1,.577,52.4Z" transform="translate(0 -39.38)"/>
  <path id="Path_1461" data-name="Path 1461" d="M16.617,39.515a.576.576,0,0,1-.577-.577V33.307a.577.577,0,0,1,1.154,0v5.631A.576.576,0,0,1,16.617,39.515Z" transform="translate(-12.954 -26.434)"/>
  <path id="Path_1462" data-name="Path 1462" d="M32.657,26.3a.576.576,0,0,1-.577-.577V16.947a.577.577,0,1,1,1.154,0v8.778A.578.578,0,0,1,32.657,26.3Z" transform="translate(-25.909 -13.221)"/>
  <path id="Path_1463" data-name="Path 1463" d="M48.687,13.081a.576.576,0,0,1-.577-.577V.577a.577.577,0,1,1,1.154,0V12.5A.576.576,0,0,1,48.687,13.081Z" transform="translate(-38.855)"/>
</svg>
