<?xml version="1.0" encoding="iso-8859-1"?>
<!-- Generator: Adobe Illustrator 19.0.0, SVG Export Plug-In . SVG Version: 6.00 Build 0)  -->
<svg version="1.1" id="Capa_1" xmlns="http://www.w3.org/2000/svg" xmlns:xlink="http://www.w3.org/1999/xlink" x="0px" y="0px"
	 viewBox="0 0 512 512" style="enable-background:new 0 0 512 512;transform:rotateZ(90deg);" xml:space="preserve">
<g>
	<g>
		<path d="M384,0H192c-2.837,0-5.547,1.131-7.552,3.115L77.781,109.781c-1.984,2.005-3.115,4.715-3.115,7.552v341.333
			C74.667,488.064,98.603,512,128,512h256c29.397,0,53.333-23.936,53.333-53.333V53.333C437.333,23.936,413.397,0,384,0z
			 M373.333,416c0,17.643-14.357,32-32,32h-74.667v-74.667c0-5.888-4.779-10.667-10.667-10.667c-5.888,0-10.667,4.779-10.667,10.667
			V448h-74.667c-17.643,0-32-14.357-32-32v-96h64v53.333c0,5.888,4.779,10.667,10.667,10.667S224,379.221,224,373.333V320h64v53.333
			c0,5.888,4.779,10.667,10.667,10.667s10.667-4.779,10.667-10.667V320h64V416z M373.333,298.667H266.667v-53.333
			c0-5.888-4.779-10.667-10.667-10.667c-5.888,0-10.667,4.779-10.667,10.667v53.333H138.667v-96c0-17.643,14.357-32,32-32h32v74.667
			c0,5.888,4.779,10.667,10.667,10.667S224,251.221,224,245.333v-74.667h64v74.667c0,5.888,4.779,10.667,10.667,10.667
			s10.667-4.779,10.667-10.667v-74.667h32c17.643,0,32,14.357,32,32V298.667z"/>
	</g>
</g>
<g>
</g>
<g>
</g>
<g>
</g>
<g>
</g>
<g>
</g>
<g>
</g>
<g>
</g>
<g>
</g>
<g>
</g>
<g>
</g>
<g>
</g>
<g>
</g>
<g>
</g>
<g>
</g>
<g>
</g>
</svg>
