<svg id="Group_3483" data-name="Group 3483" xmlns="http://www.w3.org/2000/svg" viewBox="0 0 33.468 24.384">
  <g id="Group_3421" data-name="Group 3421" transform="translate(0 0)">
    <path id="Path_1466" data-name="Path 1466" d="M5.737,24.384a1.147,1.147,0,0,1-.837-.359A16.737,16.737,0,0,1,4.9.359a1.155,1.155,0,0,1,1.673,0,1.155,1.155,0,0,1,0,1.673,14.38,14.38,0,0,0,0,20.28,1.155,1.155,0,0,1,0,1.673A1.053,1.053,0,0,1,5.737,24.384Z" transform="translate(0 0)"/>
    <path id="Path_1467" data-name="Path 1467" d="M67.8,24.444a1.2,1.2,0,0,1-.837-2.032,14.38,14.38,0,0,0,0-20.28,1.155,1.155,0,0,1,0-1.673,1.155,1.155,0,0,1,1.673,0,16.737,16.737,0,0,1,0,23.667A1.37,1.37,0,0,1,67.8,24.444Z" transform="translate(-40.065 -0.06)"/>
    <path id="Path_1468" data-name="Path 1468" d="M25.938,6.191a8.267,8.267,0,1,1-8.287,8.287,8.264,8.264,0,0,1,8.287-8.287m0-2.391A10.638,10.638,0,1,0,36.576,14.438,10.636,10.636,0,0,0,25.938,3.8Z" transform="translate(-9.204 -2.286)"/>
  </g>
  <g id="Group_3422" data-name="Group 3422" transform="translate(9.961 9.642)">
    <path id="Path_1469" data-name="Path 1469" d="M27.749,25.555a.4.4,0,0,0-.239-.4,1.4,1.4,0,0,0-.637-.12,1.157,1.157,0,0,0-.558.12.348.348,0,0,0-.2.359c0,.12,0,.2.04.239a.311.311,0,0,0,.159.159,1.615,1.615,0,0,0,.4.12l.677.159c.319.08.6.2.837.279a1.2,1.2,0,0,1,.558.438,1.149,1.149,0,0,1,.239.757,1.264,1.264,0,0,1-.239.8,1.89,1.89,0,0,1-.677.558,3.042,3.042,0,0,1-1.076.2,2.751,2.751,0,0,1-1-.159,2.057,2.057,0,0,1-.757-.478A1.251,1.251,0,0,1,25,27.746v-.04h1.076a.54.54,0,0,0,.279.518,1.425,1.425,0,0,0,.757.159,1.517,1.517,0,0,0,.637-.12.438.438,0,0,0,.239-.4.553.553,0,0,0-.2-.4,1.366,1.366,0,0,0-.637-.279l-1.036-.279a1.242,1.242,0,0,1-1.076-1.275,1.346,1.346,0,0,1,.239-.8,1.188,1.188,0,0,1,.677-.478,2.338,2.338,0,0,1,.916-.159,2.411,2.411,0,0,1,.956.159,1.406,1.406,0,0,1,.677.478,1.264,1.264,0,0,1,.239.8h-1Z" transform="translate(-25 -24.2)"/>
    <path id="Path_1470" data-name="Path 1470" d="M40.762,27.985a2.322,2.322,0,0,1-.837.916,2.628,2.628,0,0,1-1.275.319,2.473,2.473,0,0,1-1.235-.319,2.083,2.083,0,0,1-.837-.916A2.721,2.721,0,0,1,36.3,26.71a2.616,2.616,0,0,1,.279-1.275,2.322,2.322,0,0,1,.837-.916,2.172,2.172,0,0,1,1.275-.319,2.473,2.473,0,0,1,1.235.319,2.083,2.083,0,0,1,.837.916,2.887,2.887,0,0,1,.279,1.315A2.67,2.67,0,0,1,40.762,27.985Zm-1.394.08a1.252,1.252,0,0,0,.438-.558,2.576,2.576,0,0,0,.159-.8,1.848,1.848,0,0,0-.159-.837,1.03,1.03,0,0,0-.438-.558,1.376,1.376,0,0,0-.717-.2,1.14,1.14,0,0,0-.677.2,1.252,1.252,0,0,0-.438.558,2.6,2.6,0,0,0-.159.837,1.678,1.678,0,0,0,.159.8,1.03,1.03,0,0,0,.438.558,1.376,1.376,0,0,0,.717.2A1.043,1.043,0,0,0,39.368,28.065Z" transform="translate(-31.798 -24.2)"/>
    <path id="Path_1471" data-name="Path 1471" d="M52.549,25.555a.4.4,0,0,0-.239-.4,1.4,1.4,0,0,0-.637-.12,1.157,1.157,0,0,0-.558.12.348.348,0,0,0-.2.359c0,.12,0,.2.04.239a.311.311,0,0,0,.159.159,1.615,1.615,0,0,0,.4.12l.677.159c.319.08.6.2.837.279a1.434,1.434,0,0,1,.558.438,1.149,1.149,0,0,1,.239.757,1.264,1.264,0,0,1-.239.8,1.89,1.89,0,0,1-.677.558,3.042,3.042,0,0,1-1.076.2,2.751,2.751,0,0,1-1-.159,2.057,2.057,0,0,1-.757-.478,1.251,1.251,0,0,1-.279-.837v-.04h1.076a.54.54,0,0,0,.279.518,1.425,1.425,0,0,0,.757.159,1.517,1.517,0,0,0,.637-.12.438.438,0,0,0,.239-.4.553.553,0,0,0-.2-.4,1.366,1.366,0,0,0-.637-.279l-1-.279a1.242,1.242,0,0,1-1.076-1.275,1.346,1.346,0,0,1,.239-.8,1.188,1.188,0,0,1,.677-.478,2.338,2.338,0,0,1,.916-.159,2.411,2.411,0,0,1,.956.159,1.406,1.406,0,0,1,.677.478,1.264,1.264,0,0,1,.239.8H52.549Z" transform="translate(-39.919 -24.2)"/>
  </g>
</svg>
