<svg id="Group_3516" data-name="Group 3516" xmlns="http://www.w3.org/2000/svg" viewBox="0 0 66.87 66.87">
    <defs>
    <style>
   
    </style>
  </defs>
  <g id="Group_3515" data-name="Group 3515">
    <path id="Path_1534" data-name="Path 1534" class="tagicon" d="M26.47,66.87a8.053,8.053,0,0,1-5.75-2.38L2.38,46.14a8.112,8.112,0,0,1,0-11.48L33.36,3.67A12.457,12.457,0,0,1,42.23,0H59.9a6.982,6.982,0,0,1,6.97,6.97V24.64a12.457,12.457,0,0,1-3.67,8.87L32.21,64.49A8.072,8.072,0,0,1,26.47,66.87ZM42.23,2.79a9.673,9.673,0,0,0-6.9,2.86L4.35,36.63a5.323,5.323,0,0,0,0,7.53L22.7,62.52a5.468,5.468,0,0,0,7.54,0L61.23,31.53a9.682,9.682,0,0,0,2.85-6.89V6.97A4.191,4.191,0,0,0,59.9,2.79Z"/>
    <path id="Path_1535" data-name="Path 1535" class="tagicon" d="M51.54,22.29a6.97,6.97,0,1,1,6.97-6.97A6.982,6.982,0,0,1,51.54,22.29Zm0-11.15a4.18,4.18,0,1,0,4.18,4.18A4.191,4.191,0,0,0,51.54,11.14Z"/>
  </g>
</svg>
