<svg width="47" height="40" viewBox="0 0 47 40" fill="none" xmlns="http://www.w3.org/2000/svg">
<style>
.default{
    fill:#fff;
}
</style>
<path class="default" fill-rule="evenodd" clip-rule="evenodd" d="M22.2895 39C23.6772 39.0011 25.0082 38.4515 25.9906 37.4713L37.4716 25.9903C38.4532 25.0087 39.0045 23.6773 39.0045 22.2892C39.0045 20.9008 38.4531 19.5697 37.4716 18.5878L21.42 2.53158C20.3957 1.508 18.9931 0.954754 17.5459 1.0029L3.48938 1.46376V1.46339C2.95659 1.47909 2.44973 1.69747 2.07251 2.07396C1.69492 2.45046 1.47545 2.9566 1.45828 3.48943L1.00291 17.5459C0.954702 18.9931 1.50794 20.3958 2.53159 21.4201L18.5878 37.466C19.5694 38.448 20.9008 38.9997 22.2892 38.9997L22.2895 39ZM3.09684 17.6142L3.55222 3.55768L17.6087 3.09682H17.7135C18.5465 3.09755 19.3448 3.42914 19.9335 4.01817L36.0102 20.0641C36.6003 20.6531 36.9316 21.4528 36.9316 22.2865C36.9316 23.1202 36.6003 23.9196 36.0102 24.5087L24.4928 35.9896C23.9037 36.5794 23.1043 36.911 22.2706 36.911C21.4369 36.911 20.6371 36.5794 20.0482 35.9896L4.01816 19.9381C3.40247 19.3243 3.06909 18.4826 3.09681 17.6138L3.09684 17.6142ZM30.0956 3.45859C29.6862 3.04959 29.023 3.04959 28.614 3.45859C28.2047 3.86795 28.2047 4.53115 28.614 4.94015L42.262 18.5835C43.2432 19.5651 43.7947 20.8965 43.7947 22.2846C43.7947 23.673 43.2433 25.0044 42.262 25.986L32.6077 35.6403C32.1987 36.0493 32.1987 36.7125 32.6077 37.1219C33.0167 37.5309 33.6803 37.5309 34.0893 37.1219L43.7436 27.4676C45.1181 26.0931 45.8905 24.2288 45.8905 22.2847C45.8905 20.3408 45.1181 18.4766 43.7436 17.102L30.0956 3.45859ZM10.8282 10.8243C11.7612 9.89932 13.0236 9.38332 14.3375 9.39026V9.39017C15.6438 9.39858 16.8938 9.92263 17.8155 10.848C18.7373 11.7738 19.2562 13.0259 19.2587 14.3322C19.2602 15.6461 18.7388 16.9068 17.8097 17.8358C16.8806 18.7648 15.6201 19.2863 14.3061 19.2848C12.9923 19.2833 11.7331 18.7593 10.8059 17.8281C9.87873 16.8973 9.36018 15.6356 9.36419 14.3216C9.36859 13.0077 9.89515 11.7497 10.8282 10.8243ZM12.31 16.371C12.8502 16.9027 13.5798 17.1977 14.3375 17.1908L14.3375 17.1853C15.0898 17.1784 15.8088 16.8749 16.3383 16.3406C16.8678 15.8061 17.1647 15.0845 17.1647 14.3322C17.1633 13.5744 16.8602 12.8481 16.3226 12.3138C15.7851 11.7796 15.0569 11.4812 14.2991 11.4845C13.5414 11.4878 12.8158 11.7924 12.283 12.3314C11.7498 12.87 11.4533 13.5989 11.4584 14.3566C11.4635 15.1147 11.7699 15.8393 12.31 16.371Z" fill="#804130"/>
<path class="default" d="M25.9906 37.4713L26.1671 37.6483L26.1673 37.6481L25.9906 37.4713ZM22.2895 39L22.0933 39.155L22.1683 39.2499L22.2893 39.25L22.2895 39ZM37.4716 25.9903L37.2948 25.8136L37.2948 25.8136L37.4716 25.9903ZM37.4716 18.5878L37.6484 18.411L37.6484 18.411L37.4716 18.5878ZM21.42 2.53158L21.5969 2.35483L21.5968 2.35474L21.42 2.53158ZM17.5459 1.0029L17.5541 1.25276L17.5542 1.25276L17.5459 1.0029ZM3.48938 1.46376H3.23938V1.72209L3.49758 1.71362L3.48938 1.46376ZM3.48938 1.46339H3.73938V1.20591L3.48202 1.2135L3.48938 1.46339ZM2.07251 2.07396L2.24903 2.251L2.24912 2.25091L2.07251 2.07396ZM1.45828 3.48943L1.70815 3.49753L1.70816 3.49748L1.45828 3.48943ZM1.00291 17.5459L1.25277 17.5543L1.25277 17.554L1.00291 17.5459ZM2.53159 21.4201L2.35475 21.5968L2.35487 21.5969L2.53159 21.4201ZM18.5878 37.466L18.7646 37.2892L18.7645 37.2892L18.5878 37.466ZM22.2892 38.9997L22.4854 38.8447L22.4103 38.7497H22.2892V38.9997ZM3.55222 3.55768L3.54402 3.30781L3.30993 3.31549L3.30235 3.54958L3.55222 3.55768ZM3.09684 17.6142L2.84748 17.6321L3.34671 17.6223L3.09684 17.6142ZM17.6087 3.09682L17.6087 2.84669L17.6005 2.84696L17.6087 3.09682ZM17.7135 3.09682L17.7138 2.84682H17.7135V3.09682ZM19.9335 4.01817L19.7566 4.19489L19.7568 4.19512L19.9335 4.01817ZM36.0102 20.0641L36.1868 19.8871L36.1868 19.8871L36.0102 20.0641ZM36.0102 24.5087L36.1867 24.6857L36.1868 24.6856L36.0102 24.5087ZM24.4928 35.9896L24.3163 35.8126L24.3159 35.813L24.4928 35.9896ZM20.0482 35.9896L20.2251 35.813L20.2251 35.813L20.0482 35.9896ZM4.01816 19.9381L4.19505 19.7615L4.19467 19.7611L4.01816 19.9381ZM3.09681 17.6138L3.34617 17.5959L2.84694 17.6058L3.09681 17.6138ZM30.0956 3.45859L30.2723 3.28178L30.2723 3.28173L30.0956 3.45859ZM28.614 4.94015L28.7908 4.76334L28.7907 4.76329L28.614 4.94015ZM42.262 18.5835L42.4388 18.4067L42.4388 18.4067L42.262 18.5835ZM42.262 25.986L42.4388 26.1628L42.4388 26.1628L42.262 25.986ZM32.6077 37.1219L32.4309 37.2986L32.431 37.2987L32.6077 37.1219ZM34.0893 37.1219L34.2661 37.2987L34.2661 37.2987L34.0893 37.1219ZM43.7436 27.4676L43.9203 27.6444L43.9203 27.6444L43.7436 27.4676ZM43.7436 17.102L43.9203 16.9252L43.9203 16.9252L43.7436 17.102ZM14.3375 9.39026L14.3362 9.64026L14.5875 9.64159V9.39026H14.3375ZM10.8282 10.8243L10.6522 10.6468L10.6521 10.6468L10.8282 10.8243ZM14.3375 9.39017L14.3392 9.14017L14.0875 9.13855V9.39017H14.3375ZM17.8155 10.848L17.9927 10.6716L17.9926 10.6716L17.8155 10.848ZM19.2587 14.3322L19.5087 14.3319L19.5087 14.3317L19.2587 14.3322ZM17.8097 17.8358L17.6329 17.659L17.6329 17.659L17.8097 17.8358ZM14.3061 19.2848L14.3058 19.5348L14.3059 19.5348L14.3061 19.2848ZM10.8059 17.8281L10.9831 17.6517L10.9831 17.6517L10.8059 17.8281ZM9.36419 14.3216L9.11419 14.3208L9.11419 14.3209L9.36419 14.3216ZM14.3375 17.1908L14.3398 17.4408L14.5879 17.4385L14.5875 17.1904L14.3375 17.1908ZM12.31 16.371L12.1346 16.5492L12.1346 16.5492L12.31 16.371ZM14.3375 17.1853L14.3352 16.9353L14.0871 16.9376L14.0875 17.1857L14.3375 17.1853ZM16.3383 16.3406L16.5159 16.5166L16.5159 16.5166L16.3383 16.3406ZM17.1647 14.3322L17.4147 14.3322L17.4147 14.3317L17.1647 14.3322ZM16.3226 12.3138L16.1464 12.4912L16.1464 12.4912L16.3226 12.3138ZM14.2991 11.4845L14.298 11.2345L14.298 11.2345L14.2991 11.4845ZM12.283 12.3314L12.4607 12.5072L12.4608 12.5071L12.283 12.3314ZM11.4584 14.3566L11.7084 14.355L11.7084 14.355L11.4584 14.3566ZM25.814 37.2943C24.8786 38.2277 23.6111 38.751 22.2897 38.75L22.2893 39.25C23.7432 39.2511 25.1379 38.6753 26.1671 37.6483L25.814 37.2943ZM37.2948 25.8136L25.8138 37.2945L26.1673 37.6481L37.6483 26.1671L37.2948 25.8136ZM38.7545 22.2892C38.7545 23.611 38.2295 24.8788 37.2948 25.8136L37.6483 26.1671C38.6768 25.1386 39.2545 23.7436 39.2545 22.2892H38.7545ZM37.2947 18.7645C38.2295 19.6996 38.7545 20.9671 38.7545 22.2892H39.2545C39.2545 20.8345 38.6768 19.4399 37.6484 18.411L37.2947 18.7645ZM21.2432 2.70833L37.2948 18.7645L37.6484 18.411L21.5969 2.35483L21.2432 2.70833ZM17.5542 1.25276C18.9323 1.20691 20.268 1.73375 21.2433 2.70842L21.5968 2.35474C20.5235 1.28225 19.0538 0.702594 17.5376 0.753037L17.5542 1.25276ZM3.49758 1.71362L17.5541 1.25276L17.5377 0.753033L3.48119 1.21389L3.49758 1.71362ZM3.23938 1.46339V1.46376H3.73938V1.46339H3.23938ZM2.24912 2.25091C2.58125 1.91942 3.02757 1.72711 3.49675 1.71328L3.48202 1.2135C2.88561 1.23108 2.31821 1.47552 1.89591 1.89702L2.24912 2.25091ZM1.70816 3.49748C1.72327 3.0282 1.91655 2.58251 2.24903 2.251L1.896 1.89693C1.47328 2.31841 1.22763 2.88501 1.20841 3.48138L1.70816 3.49748ZM1.25277 17.554L1.70815 3.49753L1.20842 3.48134L0.753037 17.5379L1.25277 17.554ZM2.70842 21.2434C1.73369 20.268 1.20686 18.9323 1.25277 17.5543L0.753045 17.5376C0.702539 19.0539 1.28219 20.5235 2.35475 21.5968L2.70842 21.2434ZM18.7645 37.2892L2.70831 21.2433L2.35487 21.5969L18.411 37.6428L18.7645 37.2892ZM22.2892 38.7497C20.9671 38.7497 19.6993 38.2243 18.7646 37.2892L18.411 37.6427C19.4394 38.6716 20.8345 39.2497 22.2892 39.2497V38.7497ZM22.4856 38.845L22.4854 38.8447L22.0931 39.1548L22.0933 39.155L22.4856 38.845ZM3.30235 3.54958L2.84697 17.6061L3.34671 17.6223L3.80209 3.56577L3.30235 3.54958ZM17.6005 2.84696L3.54402 3.30781L3.56041 3.80754L17.6169 3.34669L17.6005 2.84696ZM17.7135 2.84682H17.6087V3.34682H17.7135V2.84682ZM20.1103 3.84145C19.4748 3.2056 18.6131 2.84761 17.7138 2.84682L17.7133 3.34682C18.48 3.34749 19.2147 3.65267 19.7566 4.19489L20.1103 3.84145ZM36.1868 19.8871L20.1101 3.84122L19.7568 4.19512L35.8336 20.241L36.1868 19.8871ZM37.1816 22.2865C37.1816 21.3865 36.824 20.5231 36.1868 19.8871L35.8336 20.241C36.3767 20.7831 36.6816 21.5191 36.6816 22.2865H37.1816ZM36.1868 24.6856C36.824 24.0496 37.1816 23.1865 37.1816 22.2865H36.6816C36.6816 23.0539 36.3767 23.7896 35.8336 24.3317L36.1868 24.6856ZM24.6693 36.1667L36.1867 24.6857L35.8337 24.3316L24.3163 35.8126L24.6693 36.1667ZM22.2706 37.161C23.1707 37.161 24.0337 36.803 24.6696 36.1663L24.3159 35.813C23.7737 36.3558 23.0379 36.661 22.2706 36.661V37.161ZM19.8713 36.1663C20.5071 36.803 21.3705 37.161 22.2706 37.161V36.661C21.5032 36.661 20.7671 36.3558 20.2251 35.813L19.8713 36.1663ZM3.84126 20.1148L19.8713 36.1663L20.2251 35.813L4.19505 19.7615L3.84126 20.1148ZM2.84694 17.6058C2.81701 18.5437 3.17691 19.4524 3.84164 20.1152L4.19467 19.7611C3.62803 19.1961 3.32117 18.4214 3.34668 17.6218L2.84694 17.6058ZM3.3462 17.5963L3.34617 17.5959L2.84745 17.6317L2.84748 17.6321L3.3462 17.5963ZM28.7908 3.63536C29.1021 3.32404 29.6071 3.32392 29.9189 3.63544L30.2723 3.28173C29.7653 2.77525 28.9439 2.77514 28.4372 3.28181L28.7908 3.63536ZM28.7907 4.76329C28.4791 4.45199 28.479 3.94714 28.7908 3.63536L28.4372 3.28181C27.9303 3.78876 27.9302 4.61031 28.4373 5.117L28.7907 4.76329ZM42.4388 18.4067L28.7908 4.76334L28.4373 5.11696L42.0853 18.7603L42.4388 18.4067ZM44.0447 22.2846C44.0447 20.8302 43.4669 19.4352 42.4388 18.4067L42.0852 18.7602C43.0196 19.6949 43.5447 20.9628 43.5447 22.2846H44.0447ZM42.4388 26.1628C43.467 25.1343 44.0447 23.7393 44.0447 22.2846H43.5447C43.5447 23.6067 43.0196 24.8746 42.0852 25.8093L42.4388 26.1628ZM32.7845 35.8171L42.4388 26.1628L42.0852 25.8093L32.431 35.4635L32.7845 35.8171ZM32.7846 36.9452C32.4731 36.6334 32.4732 36.1284 32.7845 35.8171L32.431 35.4635C31.9243 35.9702 31.9244 36.7916 32.4309 37.2986L32.7846 36.9452ZM33.9125 36.9451C33.6011 37.2565 33.0959 37.2565 32.7845 36.9451L32.431 37.2987C32.9376 37.8053 33.7594 37.8053 34.2661 37.2987L33.9125 36.9451ZM43.5668 27.2908L33.9125 36.9451L34.2661 37.2987L43.9203 27.6444L43.5668 27.2908ZM45.6405 22.2847C45.6405 24.1625 44.8944 25.9632 43.5668 27.2908L43.9203 27.6444C45.3417 26.223 46.1405 24.2951 46.1405 22.2847H45.6405ZM43.5668 17.2788C44.8945 18.6065 45.6405 20.4071 45.6405 22.2847H46.1405C46.1405 20.2745 45.3418 18.3467 43.9203 16.9252L43.5668 17.2788ZM29.9188 3.63539L43.5668 17.2788L43.9203 16.9252L30.2723 3.28178L29.9188 3.63539ZM14.3389 9.14027C12.9585 9.13298 11.6323 9.67505 10.6522 10.6468L11.0042 11.0019C11.89 10.1236 13.0887 9.63367 14.3362 9.64026L14.3389 9.14027ZM14.0875 9.39017V9.39026H14.5875V9.39017H14.0875ZM17.9926 10.6716C17.0244 9.6995 15.7114 9.14901 14.3392 9.14017L14.3359 9.64016C15.5763 9.64815 16.7632 10.1457 17.6384 11.0244L17.9926 10.6716ZM19.5087 14.3317C19.506 12.9594 18.9609 11.6441 17.9927 10.6716L17.6383 11.0244C18.5136 11.9035 19.0063 13.0924 19.0087 14.3327L19.5087 14.3317ZM17.9865 18.0125C18.9625 17.0366 19.5103 15.7123 19.5087 14.3319L19.0087 14.3325C19.0101 15.58 18.515 16.7769 17.6329 17.659L17.9865 18.0125ZM14.3059 19.5348C15.6862 19.5363 17.0105 18.9885 17.9865 18.0125L17.6329 17.659C16.7508 18.5411 15.5539 19.0362 14.3064 19.0348L14.3059 19.5348ZM10.6288 18.0045C11.6028 18.9827 12.9256 19.5332 14.3058 19.5348L14.3064 19.0348C13.059 19.0334 11.8634 18.5359 10.9831 17.6517L10.6288 18.0045ZM9.11419 14.3209C9.10997 15.7012 9.65471 17.0266 10.6288 18.0045L10.9831 17.6517C10.1027 16.7679 9.61038 15.57 9.61419 14.3224L9.11419 14.3209ZM10.6521 10.6468C9.67197 11.6189 9.11881 12.9405 9.11419 14.3208L9.61419 14.3225C9.61836 13.0749 10.1183 11.8805 11.0042 11.0018L10.6521 10.6468ZM14.3353 16.9408C13.6439 16.9472 12.9783 16.678 12.4854 16.1928L12.1346 16.5492C12.7221 17.1274 13.5156 17.4483 14.3398 17.4408L14.3353 16.9408ZM14.0875 17.1857L14.0875 17.1912L14.5875 17.1904L14.5875 17.1849L14.0875 17.1857ZM16.1608 16.1647C15.6776 16.6521 15.0217 16.929 14.3352 16.9353L14.3398 17.4353C15.158 17.4277 15.94 17.0977 16.5159 16.5166L16.1608 16.1647ZM16.9147 14.3322C16.9147 15.0186 16.6438 15.677 16.1607 16.1647L16.5159 16.5166C17.0918 15.9352 17.4147 15.1504 17.4147 14.3322H16.9147ZM16.1464 12.4912C16.6368 12.9786 16.9134 13.6413 16.9147 14.3327L17.4147 14.3317C17.4131 13.5075 17.0835 12.7176 16.4988 12.1365L16.1464 12.4912ZM14.3002 11.7345C14.9916 11.7315 15.656 12.0037 16.1464 12.4912L16.4988 12.1365C15.9142 11.5554 15.1222 11.2309 14.298 11.2345L14.3002 11.7345ZM12.4608 12.5071C12.9468 12.0154 13.6089 11.7375 14.3002 11.7345L14.298 11.2345C13.474 11.2381 12.6847 11.5693 12.1052 12.1556L12.4608 12.5071ZM11.7084 14.355C11.7038 13.6636 11.9743 12.9986 12.4607 12.5072L12.1053 12.1555C11.5254 12.7414 11.2029 13.5342 11.2084 14.3583L11.7084 14.355ZM12.4854 16.1928C11.9926 15.7077 11.7131 15.0466 11.7084 14.355L11.2084 14.3583C11.214 15.1828 11.5472 15.9709 12.1346 16.5492L12.4854 16.1928Z" fill="#804130"/>
</svg>
