<svg width="46" height="40" viewBox="0 0 46 40" fill="none" xmlns="http://www.w3.org/2000/svg">
<style>
.purple-svg-active{fill:#034ea2;}.b{fill:none;}
</style>
<path class="purple-svg-active" fill-rule="evenodd" clip-rule="evenodd" d="M22.2895 39C23.6772 39.0011 25.0082 38.4515 25.9906 37.4713L37.4716 25.9903C38.4532 25.0087 39.0045 23.6773 39.0045 22.2892C39.0045 20.9008 38.4531 19.5697 37.4716 18.5878L21.42 2.53158C20.3957 1.508 18.9931 0.954754 17.5459 1.0029L3.48938 1.46376V1.46339C2.95659 1.47909 2.44973 1.69747 2.07251 2.07396C1.69492 2.45046 1.47545 2.9566 1.45828 3.48943L1.00291 17.5459C0.954702 18.9931 1.50794 20.3958 2.53159 21.4201L18.5878 37.466C19.5694 38.448 20.9008 38.9997 22.2892 38.9997L22.2895 39ZM3.09684 17.6142L3.55222 3.55768L17.6087 3.09682H17.7135C18.5465 3.09755 19.3448 3.42914 19.9335 4.01817L36.0102 20.0641C36.6003 20.6531 36.9316 21.4528 36.9316 22.2865C36.9316 23.1202 36.6003 23.9196 36.0102 24.5087L24.4928 35.9896C23.9037 36.5794 23.1043 36.911 22.2706 36.911C21.4369 36.911 20.6371 36.5794 20.0482 35.9896L4.01816 19.9381C3.40247 19.3243 3.06909 18.4826 3.09681 17.6138L3.09684 17.6142ZM30.0956 3.45859C29.6862 3.04959 29.023 3.04959 28.614 3.45859C28.2047 3.86795 28.2047 4.53115 28.614 4.94015L42.262 18.5835C43.2432 19.5651 43.7947 20.8965 43.7947 22.2846C43.7947 23.673 43.2433 25.0044 42.262 25.986L32.6077 35.6403C32.1987 36.0493 32.1987 36.7125 32.6077 37.1219C33.0167 37.5309 33.6803 37.5309 34.0893 37.1219L43.7436 27.4676C45.1181 26.0931 45.8905 24.2288 45.8905 22.2847C45.8905 20.3408 45.1181 18.4766 43.7436 17.102L30.0956 3.45859ZM10.8282 10.8243C11.7612 9.89932 13.0236 9.38332 14.3375 9.39026V9.39017C15.6438 9.39858 16.8938 9.92263 17.8155 10.848C18.7373 11.7738 19.2562 13.0259 19.2587 14.3322C19.2602 15.6461 18.7388 16.9068 17.8097 17.8358C16.8806 18.7648 15.6201 19.2863 14.3061 19.2848C12.9923 19.2833 11.7331 18.7593 10.8059 17.8281C9.87873 16.8973 9.36018 15.6356 9.36419 14.3216C9.36859 13.0077 9.89515 11.7497 10.8282 10.8243ZM12.31 16.371C12.8502 16.9027 13.5798 17.1977 14.3375 17.1908L14.3375 17.1853C15.0898 17.1784 15.8088 16.8749 16.3383 16.3406C16.8678 15.8061 17.1647 15.0845 17.1647 14.3322C17.1633 13.5744 16.8602 12.8481 16.3226 12.3138C15.7851 11.7796 15.0569 11.4812 14.2991 11.4845C13.5414 11.4878 12.8158 11.7924 12.283 12.3314C11.7498 12.87 11.4533 13.5989 11.4584 14.3566C11.4635 15.1147 11.7699 15.8393 12.31 16.371Z" fill="white"/>
<path class="purple-svg-active" d="M25.9906 37.4713L26.0612 37.5421L26.0613 37.542L25.9906 37.4713ZM22.2895 39L22.211 39.062L22.241 39.1L22.2894 39.1L22.2895 39ZM37.4716 25.9903L37.4008 25.9196L37.4008 25.9196L37.4716 25.9903ZM37.4716 18.5878L37.5423 18.5171L37.5423 18.5171L37.4716 18.5878ZM21.42 2.53158L21.4908 2.46088L21.4907 2.46084L21.42 2.53158ZM17.5459 1.0029L17.5492 1.10285L17.5492 1.10284L17.5459 1.0029ZM3.48938 1.46376H3.38938V1.56709L3.49266 1.5637L3.48938 1.46376ZM3.48938 1.46339H3.58938V1.3604L3.48644 1.36343L3.48938 1.46339ZM2.07251 2.07396L2.14312 2.14478L2.14316 2.14474L2.07251 2.07396ZM1.45828 3.48943L1.55823 3.49267L1.55823 3.49265L1.45828 3.48943ZM1.00291 17.5459L1.10285 17.5493L1.10285 17.5492L1.00291 17.5459ZM2.53159 21.4201L2.46085 21.4908L2.4609 21.4908L2.53159 21.4201ZM18.5878 37.466L18.6585 37.3953L18.6585 37.3953L18.5878 37.466ZM22.2892 38.9997L22.3677 38.9377L22.3377 38.8997H22.2892V38.9997ZM3.55222 3.55768L3.54894 3.45773L3.4553 3.4608L3.45227 3.55444L3.55222 3.55768ZM3.09684 17.6142L2.9971 17.6214L3.19679 17.6174L3.09684 17.6142ZM17.6087 3.09682V2.99677L17.6055 2.99688L17.6087 3.09682ZM17.7135 3.09682L17.7136 2.99682H17.7135V3.09682ZM19.9335 4.01817L19.8627 4.08886L19.8628 4.08895L19.9335 4.01817ZM36.0102 20.0641L36.0808 19.9933L36.0808 19.9933L36.0102 20.0641ZM36.0102 24.5087L36.0808 24.5795L36.0809 24.5794L36.0102 24.5087ZM24.4928 35.9896L24.4222 35.9188L24.422 35.919L24.4928 35.9896ZM20.0482 35.9896L20.1189 35.919L20.1189 35.919L20.0482 35.9896ZM4.01816 19.9381L4.08892 19.8675L4.08876 19.8673L4.01816 19.9381ZM3.09681 17.6138L3.19655 17.6066L2.99686 17.6106L3.09681 17.6138ZM30.0956 3.45859L30.1663 3.38786L30.1663 3.38784L30.0956 3.45859ZM28.614 4.94015L28.6847 4.86943L28.6847 4.86941L28.614 4.94015ZM42.262 18.5835L42.3327 18.5128L42.3327 18.5127L42.262 18.5835ZM42.262 25.986L42.3327 26.0567L42.3327 26.0567L42.262 25.986ZM32.6077 37.1219L32.537 37.1926L32.537 37.1926L32.6077 37.1219ZM34.0893 37.1219L34.16 37.1926L34.16 37.1926L34.0893 37.1219ZM43.7436 27.4676L43.8143 27.5383L43.8143 27.5383L43.7436 27.4676ZM43.7436 17.102L43.8143 17.0313L43.8143 17.0313L43.7436 17.102ZM14.3375 9.39026L14.337 9.49026L14.4375 9.49079V9.39026H14.3375ZM10.8282 10.8243L10.7578 10.7533L10.7578 10.7533L10.8282 10.8243ZM14.3375 9.39017L14.3382 9.29017L14.2375 9.28952V9.39017H14.3375ZM17.8155 10.848L17.8864 10.7774L17.8863 10.7774L17.8155 10.848ZM19.2587 14.3322L19.3587 14.3321L19.3587 14.332L19.2587 14.3322ZM17.8097 17.8358L17.739 17.7651L17.739 17.7651L17.8097 17.8358ZM14.3061 19.2848L14.306 19.3848L14.306 19.3848L14.3061 19.2848ZM10.8059 17.8281L10.8768 17.7575L10.8768 17.7575L10.8059 17.8281ZM9.36419 14.3216L9.26419 14.3213L9.26419 14.3213L9.36419 14.3216ZM14.3375 17.1908L14.3385 17.2908L14.4377 17.2899L14.4375 17.1907L14.3375 17.1908ZM12.31 16.371L12.2399 16.4423L12.2399 16.4423L12.31 16.371ZM14.3375 17.1853L14.3366 17.0853L14.2374 17.0862L14.2375 17.1855L14.3375 17.1853ZM16.3383 16.3406L16.4093 16.411L16.4094 16.411L16.3383 16.3406ZM17.1647 14.3322L17.2647 14.3322L17.2647 14.332L17.1647 14.3322ZM16.3226 12.3138L16.2521 12.3848L16.2521 12.3848L16.3226 12.3138ZM14.2991 11.4845L14.2987 11.3845L14.2987 11.3845L14.2991 11.4845ZM12.283 12.3314L12.3541 12.4017L12.3541 12.4017L12.283 12.3314ZM11.4584 14.3566L11.5584 14.356L11.5584 14.356L11.4584 14.3566ZM25.9199 37.4005C24.9564 38.362 23.6507 38.9011 22.2895 38.9L22.2894 39.1C23.7036 39.1011 25.0601 38.541 26.0612 37.5421L25.9199 37.4005ZM37.4008 25.9196L25.9199 37.4006L26.0613 37.542L37.5423 26.061L37.4008 25.9196ZM38.9045 22.2892C38.9045 23.6508 38.3637 24.9568 37.4008 25.9196L37.5423 26.061C38.5426 25.0607 39.1045 23.7038 39.1045 22.2892H38.9045ZM37.4008 18.6585C38.3637 19.6217 38.9045 20.9273 38.9045 22.2892H39.1045C39.1045 20.8743 38.5426 19.5178 37.5423 18.5171L37.4008 18.6585ZM21.3493 2.60228L37.4008 18.6585L37.5423 18.5171L21.4908 2.46088L21.3493 2.60228ZM17.5492 1.10284C18.9688 1.05562 20.3446 1.5983 21.3494 2.60231L21.4907 2.46084C20.4468 1.4177 19.0174 0.85389 17.5426 0.902954L17.5492 1.10284ZM3.49266 1.5637L17.5492 1.10285L17.5426 0.902953L3.48611 1.36381L3.49266 1.5637ZM3.38938 1.46339V1.46376H3.58938V1.46339H3.38938ZM2.14316 2.14474C2.50234 1.78625 2.98498 1.5783 3.49233 1.56335L3.48644 1.36343C2.9282 1.37989 2.39712 1.60869 2.00187 2.00319L2.14316 2.14474ZM1.55823 3.49265C1.57458 2.98524 1.78357 2.50328 2.14312 2.14478L2.00191 2.00315C1.60626 2.39764 1.37632 2.92796 1.35834 3.48621L1.55823 3.49265ZM1.10285 17.5492L1.55823 3.49267L1.35834 3.48619L0.902958 17.5427L1.10285 17.5492ZM2.60232 21.3494C1.59824 20.3447 1.05557 18.9688 1.10285 17.5493L0.902961 17.5426C0.853837 19.0174 1.41764 20.4469 2.46085 21.4908L2.60232 21.3494ZM18.6585 37.3953L2.60227 21.3494L2.4609 21.4908L18.5171 37.5367L18.6585 37.3953ZM22.2892 38.8997C20.9273 38.8997 19.6213 38.3585 18.6585 37.3953L18.517 37.5367C19.5174 38.5374 20.8743 39.0997 22.2892 39.0997V38.8997ZM22.3679 38.938L22.3677 38.9377L22.2108 39.0617L22.211 39.062L22.3679 38.938ZM3.45227 3.55444L2.99689 17.611L3.19679 17.6174L3.65216 3.56092L3.45227 3.55444ZM17.6055 2.99688L3.54894 3.45773L3.55549 3.65762L17.612 3.19677L17.6055 2.99688ZM17.7135 2.99682H17.6087V3.19682H17.7135V2.99682ZM20.0042 3.94748C19.3968 3.33972 18.5731 2.99757 17.7136 2.99682L17.7135 3.19682C18.5199 3.19753 19.2928 3.51855 19.8627 4.08886L20.0042 3.94748ZM36.0808 19.9933L20.0041 3.94739L19.8628 4.08895L35.9396 20.1348L36.0808 19.9933ZM37.0316 22.2865C37.0316 21.4263 36.6898 20.6011 36.0808 19.9933L35.9396 20.1348C36.5109 20.7051 36.8316 21.4793 36.8316 22.2865H37.0316ZM36.0809 24.5794C36.6898 23.9716 37.0316 23.1467 37.0316 22.2865H36.8316C36.8316 23.0937 36.5109 23.8676 35.9396 24.4379L36.0809 24.5794ZM24.5634 36.0605L36.0808 24.5795L35.9396 24.4378L24.4222 35.9188L24.5634 36.0605ZM22.2706 37.011C23.1309 37.011 23.9557 36.6688 24.5635 36.0603L24.422 35.919C23.8517 36.49 23.0778 36.811 22.2706 36.811V37.011ZM19.9774 36.0603C20.5851 36.6689 21.4104 37.011 22.2706 37.011V36.811C21.4634 36.811 20.6891 36.49 20.1189 35.919L19.9774 36.0603ZM3.9474 20.0088L19.9774 36.0603L20.1189 35.919L4.08892 19.8675L3.9474 20.0088ZM2.99686 17.6106C2.96826 18.507 3.31225 19.3755 3.94755 20.009L4.08876 19.8673C3.4927 19.273 3.16992 18.4581 3.19676 17.617L2.99686 17.6106ZM3.19658 17.607L3.19655 17.6066L2.99707 17.621L2.9971 17.6214L3.19658 17.607ZM28.6847 3.5293C29.0547 3.15937 29.6546 3.15932 30.0249 3.52933L30.1663 3.38784C29.7179 2.93985 28.9914 2.93981 28.5433 3.38788L28.6847 3.5293ZM28.6847 4.86941C28.3144 4.49948 28.3144 3.89963 28.6847 3.5293L28.5433 3.38788C28.0949 3.83628 28.0949 4.56281 28.5433 5.01089L28.6847 4.86941ZM42.3327 18.5127L28.6847 4.86943L28.5433 5.01087L42.1913 18.6542L42.3327 18.5127ZM43.8947 22.2846C43.8947 20.87 43.3327 19.5131 42.3327 18.5128L42.1913 18.6542C43.1538 19.617 43.6947 20.923 43.6947 22.2846H43.8947ZM42.3327 26.0567C43.3328 25.0564 43.8947 23.6995 43.8947 22.2846H43.6947C43.6947 23.6465 43.1538 24.9525 42.1913 25.9153L42.3327 26.0567ZM32.6784 35.711L42.3327 26.0567L42.1913 25.9153L32.537 35.5696L32.6784 35.711ZM32.6785 37.0512C32.3085 36.6809 32.3085 36.081 32.6784 35.711L32.537 35.5696C32.0889 36.0177 32.089 36.7442 32.537 37.1926L32.6785 37.0512ZM34.0186 37.0512C33.6486 37.4211 33.0484 37.4211 32.6784 37.0512L32.537 37.1926C32.9851 37.6406 33.7119 37.6406 34.16 37.1926L34.0186 37.0512ZM43.6729 27.3969L34.0186 37.0512L34.16 37.1926L43.8143 27.5383L43.6729 27.3969ZM45.7905 22.2847C45.7905 24.2023 45.0286 26.0411 43.6729 27.3969L43.8143 27.5383C45.2075 26.145 45.9905 24.2553 45.9905 22.2847H45.7905ZM43.6729 17.1727C45.0287 18.5286 45.7905 20.3673 45.7905 22.2847H45.9905C45.9905 20.3143 45.2076 18.4246 43.8143 17.0313L43.6729 17.1727ZM30.0249 3.52931L43.6729 17.1727L43.8143 17.0313L30.1663 3.38786L30.0249 3.52931ZM14.3381 9.29026C12.9976 9.28319 11.7096 9.80961 10.7578 10.7533L10.8986 10.8953C11.8127 9.98903 13.0496 9.48346 14.337 9.49026L14.3381 9.29026ZM14.2375 9.39017V9.39026H14.4375V9.39017H14.2375ZM17.8863 10.7774C16.946 9.83338 15.6708 9.29875 14.3382 9.29017L14.3369 9.49017C15.6168 9.49841 16.8415 10.0119 17.7446 10.9186L17.8863 10.7774ZM19.3587 14.332C19.3561 12.9993 18.8267 11.7219 17.8864 10.7774L17.7446 10.9185C18.6478 11.8257 19.1562 13.0525 19.1587 14.3324L19.3587 14.332ZM17.8804 17.9065C18.8282 16.9587 19.3603 15.6726 19.3587 14.3321L19.1587 14.3323C19.1602 15.6197 18.6493 16.8548 17.739 17.7651L17.8804 17.9065ZM14.306 19.3848C15.6465 19.3863 16.9326 18.8543 17.8804 17.9065L17.739 17.7651C16.8287 18.6753 15.5936 19.1862 14.3062 19.1848L14.306 19.3848ZM10.7351 17.8987C11.681 18.8487 12.9656 19.3833 14.306 19.3848L14.3062 19.1848C13.019 19.1833 11.7852 18.6699 10.8768 17.7575L10.7351 17.8987ZM9.26419 14.3213C9.26009 15.6618 9.78912 16.949 10.7351 17.8987L10.8768 17.7575C9.96834 16.8455 9.46026 15.6093 9.46419 14.3219L9.26419 14.3213ZM10.7578 10.7533C9.80588 11.6974 9.26868 12.9808 9.26419 14.3213L9.46419 14.322C9.4685 13.0346 9.98441 11.802 10.8986 10.8953L10.7578 10.7533ZM14.3366 17.0908C13.6055 17.0975 12.9014 16.8128 12.3802 16.2997L12.2399 16.4423C12.799 16.9926 13.5541 17.298 14.3385 17.2908L14.3366 17.0908ZM14.2375 17.1855L14.2375 17.191L14.4375 17.1907L14.4375 17.1852L14.2375 17.1855ZM16.2673 16.2703C15.7563 16.7858 15.0625 17.0786 14.3366 17.0853L14.3385 17.2853C15.1171 17.2781 15.8613 16.964 16.4093 16.411L16.2673 16.2703ZM17.0647 14.3322C17.0647 15.0581 16.7782 15.7544 16.2673 16.2703L16.4094 16.411C16.9574 15.8577 17.2647 15.1108 17.2647 14.3322H17.0647ZM16.2521 12.3848C16.7708 12.9003 17.0633 13.6012 17.0647 14.3324L17.2647 14.332C17.2632 13.5476 16.9495 12.7959 16.3931 12.2429L16.2521 12.3848ZM14.2995 11.5845C15.0307 11.5813 15.7334 11.8692 16.2521 12.3848L16.3931 12.2429C15.8367 11.6899 15.083 11.3811 14.2987 11.3845L14.2995 11.5845ZM12.3541 12.4017C12.8682 11.8816 13.5684 11.5877 14.2995 11.5845L14.2987 11.3845C13.5144 11.3879 12.7634 11.7032 12.2119 12.2611L12.3541 12.4017ZM11.5584 14.356C11.5535 13.6248 11.8396 12.9215 12.3541 12.4017L12.2119 12.261C11.6601 12.8186 11.3531 13.573 11.3584 14.3573L11.5584 14.356ZM12.3802 16.2997C11.8589 15.7867 11.5634 15.0875 11.5584 14.356L11.3584 14.3573C11.3637 15.142 11.6808 15.8919 12.2399 16.4423L12.3802 16.2997Z" fill="white"/>
</svg>
