<svg xmlns="http://www.w3.org/2000/svg" width="32" height="32" viewBox="0 0 32 32"><defs><style>.fill-none{fill:none;}.fill-white{fill:#fff;}</style></defs><g transform="translate(-2871 -9871)"><rect class="fill-none" width="32" height="32" transform="translate(2871 9871)"/><g transform="translate(2873.824 9872.834)"><g transform="translate(0.176 0.166)"><path class="fill-white" d="M2892.665,9907.663a13.192,13.192,0,1,1,2.515-26.144,1,1,0,1,1-.38,1.963,11.179,11.179,0,1,0,8.656,8.009,1,1,0,1,1,1.928-.53,13.2,13.2,0,0,1-12.719,16.7Z" transform="translate(-2879.473 -9879.687)"/><path class="fill-white" d="M2920.071,9880.215a1,1,0,0,1-.7-.282l-1.768-1.714a1,1,0,1,1,1.392-1.436l1.768,1.715a1,1,0,0,1-.7,1.717Z" transform="translate(-2904.693 -9876.501)"/><path class="fill-white" d="M2917.662,9885.946a1,1,0,0,1-.551-1.835l2.036-1.34a1,1,0,1,1,1.1,1.671l-2.036,1.339A1,1,0,0,1,2917.662,9885.946Z" transform="translate(-2904.265 -9880.571)"/></g><g transform="translate(18149.059 3277.408)"><path class="fill-white" d="M7416.785,6329.11c1.274,1.558,3.627,4.842,3.627,7.848a3.617,3.617,0,0,1-7.234,0q0-.1.006-.2v-.018c.125-3.041,2.376-6.154,3.6-7.631m0-1.653a1.081,1.081,0,0,0-.822.377c-1.4,1.618-4.078,5.181-4.229,8.847,0,.092-.008.184-.008.277a5.068,5.068,0,0,0,10.137,0c0-3.655-2.812-7.428-4.246-9.117a1.086,1.086,0,0,0-.831-.385Z" transform="translate(-25552.609 -9597.699)"/><path class="fill-white" d="M7421.792,6364.347a.738.738,0,0,1-.521-.215,2.164,2.164,0,0,1-.067-2.884.726.726,0,1,1,1.161.871c-.394.525-.171.873-.057,1a.723.723,0,0,1-.516,1.23Z" transform="translate(-25559.404 -9623.099)"/></g></g></g></svg>