<svg xmlns="http://www.w3.org/2000/svg" width="32" height="32" viewBox="0 0 32 32"><defs><style>.fill-none{fill:none;}.fill-white{fill:#fff;}.fill-black{stroke:#000;stroke-linecap:round;stroke-miterlimit:10;stroke-width:6px;}</style></defs><g transform="translate(-2871 -9871)"><rect class="fill-none" width="32" height="32" transform="translate(2871 9871)"/><g transform="translate(2873.824 9872.834)"><g transform="translate(0.176 0.166)"><path class="fill-white" d="M2892.665,9907.663a13.192,13.192,0,1,1,2.515-26.144,1,1,0,1,1-.38,1.963,11.179,11.179,0,1,0,8.656,8.009,1,1,0,1,1,1.928-.53,13.2,13.2,0,0,1-12.719,16.7Z" transform="translate(-2879.473 -9879.687)"/><path class="fill-white" d="M2920.071,9880.215a1,1,0,0,1-.7-.282l-1.768-1.714a1,1,0,1,1,1.392-1.436l1.768,1.715a1,1,0,0,1-.7,1.717Z" transform="translate(-2904.693 -9876.501)"/><path class="fill-white" d="M2917.662,9885.946a1,1,0,0,1-.551-1.835l2.036-1.34a1,1,0,1,1,1.1,1.671l-2.036,1.339A1,1,0,0,1,2917.662,9885.946Z" transform="translate(-2904.265 -9880.571)"/></g></g><g transform="translate(2875.74 9875.804)"><g transform="translate(14.952 11.712)"><path class="fill-black" d="M3317.542,9920.668" transform="translate(-3317.542 -9920.668)"/></g><g transform="translate(3.26 3.196)"><path class="fill-white" d="M3279.939,9903.838a8.3,8.3,0,0,1,0-16.6.764.764,0,1,1,0,1.528,6.773,6.773,0,1,0,0,13.547.764.764,0,1,1,0,1.528Z" transform="translate(-3271.637 -9887.234)"/><path class="fill-white" d="M3275.2,9917.773h-1.251a.764.764,0,0,1,0-1.528h1.251a.764.764,0,1,1,0,1.528Z" transform="translate(-3272.793 -9908.856)"/><path class="fill-white" d="M3278.787,9933.6a.764.764,0,0,1-.484-1.355l1.26-1.03a.764.764,0,0,1,.967,1.184l-1.259,1.03A.765.765,0,0,1,3278.787,9933.6Z" transform="translate(-3276.396 -9919.884)"/><path class="fill-white" d="M3294.6,9942.008a.817.817,0,0,1-.137-.014.764.764,0,0,1-.616-.888l.3-1.681a.764.764,0,0,1,1.5.273l-.3,1.68A.764.764,0,0,1,3294.6,9942.008Z" transform="translate(-3288.182 -9925.666)"/><path class="fill-white" d="M3280.778,9900.994a.765.765,0,0,1-.546-.229l-.987-1.009a.764.764,0,0,1,1.092-1.069l.987,1.01a.764.764,0,0,1-.546,1.3Z" transform="translate(-3277.145 -9895.599)"/><path class="fill-white" d="M3294.981,9891.928a.764.764,0,0,1-.747-.606l-.286-1.354a.764.764,0,0,1,1.5-.316l.286,1.354a.764.764,0,0,1-.59.905A.735.735,0,0,1,3294.981,9891.928Z" transform="translate(-3288.253 -9888.583)"/></g><g transform="translate(11.126 3.196)"><path class="fill-white" d="M3272.4,9903.838a8.3,8.3,0,0,0,0-16.6.764.764,0,1,0,0,1.528,6.773,6.773,0,1,1,0,13.547.764.764,0,1,0,0,1.528Z" transform="translate(-3271.637 -9887.234)"/><path class="fill-white" d="M3273.952,9917.773h1.251a.764.764,0,1,0,0-1.528h-1.251a.764.764,0,1,0,0,1.528Z" transform="translate(-3267.297 -9908.856)"/><path class="fill-white" d="M3280.046,9933.6a.764.764,0,0,0,.484-1.355l-1.26-1.03a.764.764,0,0,0-.967,1.184l1.259,1.03A.765.765,0,0,0,3280.046,9933.6Z" transform="translate(-3273.371 -9919.884)"/><path class="fill-white" d="M3294.9,9942.008a.827.827,0,0,0,.137-.014.764.764,0,0,0,.616-.888l-.3-1.681a.764.764,0,0,0-1.5.273l.3,1.68A.764.764,0,0,0,3294.9,9942.008Z" transform="translate(-3292.259 -9925.666)"/><path class="fill-white" d="M3279.791,9900.994a.765.765,0,0,0,.546-.229l.987-1.009a.764.764,0,0,0-1.093-1.069l-.987,1.01a.764.764,0,0,0,.546,1.3Z" transform="translate(-3274.358 -9895.599)"/><path class="fill-white" d="M3294.7,9891.928a.764.764,0,0,0,.747-.606l.286-1.354a.764.764,0,0,0-1.5-.316l-.286,1.354a.764.764,0,0,0,.59.905A.736.736,0,0,0,3294.7,9891.928Z" transform="translate(-3292.358 -9888.583)"/></g><g transform="translate(8.862 8.796)"><path class="fill-white" d="M3299.58,9916.463a1.837,1.837,0,1,1,1.837-1.837A1.839,1.839,0,0,1,3299.58,9916.463Zm0-2.146a.309.309,0,1,0,.309.309A.309.309,0,0,0,3299.58,9914.317Z" transform="translate(-3296.695 -9911.88)"/><path class="fill-white" d="M3295.769,9911.938a.762.762,0,0,1-.5-.187l-1.374-1.188a.764.764,0,1,1,1-1.155l1.374,1.189a.764.764,0,0,1-.5,1.342Z" transform="translate(-3293.631 -9909.22)"/></g></g></g></svg>