<svg xmlns="http://www.w3.org/2000/svg" width="32" height="32" viewBox="0 0 32 32"><defs><style>.fill-none{fill:none;}.fill-white{fill:#fff;}</style></defs><g transform="translate(18131 3166)"><rect class="fill-none" width="32" height="32" transform="translate(-18131 -3166)"/><g transform="translate(-18128 -3163)"><path class="fill-white" d="M4344.5,13815.317a13.22,13.22,0,0,0-4.867,1.566.986.986,0,0,0-.34,1.429l.024.035a.985.985,0,0,0,1.291.287,11.24,11.24,0,0,1,4.1-1.329.983.983,0,0,0,.872-.973v-.039A.976.976,0,0,0,4344.5,13815.317Z" transform="translate(-4332.758 -13815.311)"/><path class="fill-white" d="M4322.043,13848.041a11.282,11.282,0,0,1,.235-2.291.953.953,0,0,0-.6-1.1l-.1-.034a.947.947,0,0,0-1.255.682,13.38,13.38,0,0,0-.091,5.012.951.951,0,0,0,1.186.743l.085-.022a.967.967,0,0,0,.694-1.1A11.251,11.251,0,0,1,4322.043,13848.041Z" transform="translate(-4320.043 -13834.811)"/><path class="fill-white" d="M4323.845,13866.76l-.037.01a.958.958,0,0,0-.645,1.351,13.329,13.329,0,0,0,2.647,3.955.966.966,0,0,0,1.467-.045l.025-.03a.988.988,0,0,0-.057-1.324,11.364,11.364,0,0,1-2.244-3.349A.984.984,0,0,0,4323.845,13866.76Z" transform="translate(-4322.062 -13849.588)"/><path class="fill-white" d="M4325.549,13830.04a11.369,11.369,0,0,1,2.517-3.415.987.987,0,0,0,.145-1.291l-.022-.031a.961.961,0,0,0-1.484-.149,13.357,13.357,0,0,0-2.963,4.021.989.989,0,0,0,.545,1.363l.036.013A.987.987,0,0,0,4325.549,13830.04Z" transform="translate(-4322.442 -13821.684)"/><path class="fill-white" d="M4342.6,13884.956a11.222,11.222,0,0,1-3.672-1.48.988.988,0,0,0-1.285.192l-.027.031a.986.986,0,0,0,.235,1.469,13.227,13.227,0,0,0,4.345,1.748.963.963,0,0,0,1.19-.875l0-.037A.986.986,0,0,0,4342.6,13884.956Z" transform="translate(-4331.608 -13860.65)"/><path class="fill-white" d="M4360,13840.829a1,1,0,0,0,1.062,1,13.318,13.318,0,0,0,.574-26.493,1,1,0,0,0-1.135.992h0a1,1,0,0,0,.891.991,11.319,11.319,0,0,1-.458,22.514,1.006,1.006,0,0,0-.934,1Z" transform="translate(-4346.681 -13815.321)"/></g><g transform="translate(-18120 -3158)"><path class="fill-white" d="M7416.885,6329.142c1.3,1.59,3.7,4.938,3.7,8a3.689,3.689,0,0,1-7.378,0c0-.068,0-.136.006-.2v-.019c.127-3.1,2.424-6.277,3.672-7.783m0-1.686a1.106,1.106,0,0,0-.84.385c-1.425,1.649-4.159,5.284-4.313,9.023q-.007.141-.007.283a5.169,5.169,0,1,0,10.338,0c0-3.728-2.868-7.576-4.331-9.3a1.108,1.108,0,0,0-.847-.393Z" transform="translate(-7411.727 -6327.456)"/><path class="fill-white" d="M7421.813,6364.414a.752.752,0,0,1-.531-.219,2.206,2.206,0,0,1-.069-2.941.74.74,0,0,1,1.185.888c-.4.536-.174.889-.059,1.017a.737.737,0,0,1-.526,1.255Z" transform="translate(-7418.478 -6352.694)"/></g></g></svg>