<svg id="Layer_5" enable-background="new 0 0 64 64" height="512" viewBox="0 0 64 64" width="512" xmlns="http://www.w3.org/2000/svg"><path d="m8.375 46.219 1.249 1.562 3.375-2.7v6.686l7.748-4.649-5.146-4.118 5.147-4.117-7.748-4.65v6.686l-3.375-2.7-1.249 1.562 4.023 3.219zm6.625-8.452 2.252 1.351-2.252 1.801zm0 7.314 2.252 1.802-2.252 1.35z"/><path d="m13 27h2v2h-2z"/><path d="m17 27h2v2h-2z"/><path d="m9 27h2v2h-2z"/><path d="m10 57h8v2h-8z"/><path d="m53 1c-4.355 0-8.058 2.802-9.427 6.695-1.816-.452-3.684-.695-5.573-.695-9.989 0-18.873 6.546-21.895 16h-10.105c-2.757 0-5 2.243-5 5v30c0 2.757 2.243 5 5 5h16c2.757 0 5-2.243 5-5v-7.801c3.362 1.834 7.129 2.801 11 2.801 12.682 0 23-10.317 23-23 0-3.345-.708-6.559-2.088-9.566l2.408-3.612c1.099-1.647 1.68-3.565 1.68-5.547v-.275c0-5.514-4.486-10-10-10zm-9.896 8.638c-.061.447-.104.899-.104 1.362v.275c0 1.981.581 3.899 1.68 5.547l.119.178h-12.207c1.381-4.99 3.457-8 5.408-8 1.731 0 3.441.223 5.104.638zm-5.104 41.362c-1.951 0-4.027-3.01-5.408-8h10.79c.009.008.018.015.027.022-1.348 4.867-3.441 7.978-5.409 7.978zm-8.98-20c.016 1.109.058 2.176.123 3.205l-2.143 1.714v-4.919zm14.868-12c.657 3.035 1.027 6.45 1.086 10h-5.116c-.447-1.72-2-3-3.858-3s-3.411 1.28-3.858 3h-1.123c.062-3.752.459-7.13 1.082-10zm.761 17.251c-.235.085-.457.191-.669.316l-4.548-4.548c.186-.316.33-.656.425-1.019h5.113c-.029 1.792-.134 3.55-.321 5.251zm-10.649-6.251c0-1.103.897-2 2-2s2 .897 2 2-.897 2-2 2-2-.897-2-2zm-1.858 1c.057.218.124.431.215.634l-1.293 1.034c-.024-.546-.037-1.105-.046-1.668zm-7.142 22h-22v-20h22zm2-14.519 2.346-1.877c.168 1.575.393 3.04.67 4.396h-3.016zm4.226-3.381 2.387-1.909c.668.501 1.489.809 2.387.809.74 0 1.424-.215 2.019-.567l4.548 4.548c-.352.595-.567 1.279-.567 2.019 0 .347.058.678.142 1h-10.042c-.386-1.782-.686-3.758-.874-5.9zm12.774 4.9c0-1.103.897-2 2-2s2 .897 2 2-.897 2-2 2-2-.897-2-2zm4.618-3 3-6h7.331c-.173 3.656-1.279 7.064-3.095 10h-5.996c.084-.322.142-.653.142-1 0-1.2-.542-2.266-1.382-3zm-1.782-.909c-.053-.011-.109-.014-.163-.023.169-1.65.27-3.342.297-5.068h2.411zm.138-7.091c-.057-3.53-.416-6.934-1.047-10h.205l4.482 6.723c.25.375.584.672.963.889l-1.195 2.388zm-13.066-19.578c-1.351 1.677-2.55 4.226-3.429 7.578h-8.951c3.074-3.873 7.461-6.591 12.38-7.578zm-13.778 9.578h9.886c-.582 2.851-.941 6.19-.996 10h-2.02v-1c0-2.757-2.243-5-5-5h-3.792c.501-1.416 1.15-2.752 1.922-4zm-14.13 6h16c1.654 0 3 1.346 3 3v3h-22v-3c0-1.654 1.346-3 3-3zm16 36h-16c-1.654 0-3-1.346-3-3v-3h22v3c0 1.654-1.346 3-3 3zm5-18h3.479c.881 3.36 2.084 5.915 3.439 7.591-2.445-.482-4.782-1.397-6.918-2.714zm15.13 7.587c1.219-1.545 2.278-3.795 3.104-6.665.249.049.504.078.766.078 1.005 0 1.914-.385 2.618-1h5.843c-3.034 3.833-7.363 6.592-12.331 7.587zm16.842-21.587h-6.354l1.041-2.082c.699-.165 1.319-.583 1.728-1.196l2.198-3.297c.815 2.101 1.282 4.301 1.387 6.575zm2.028-17.725c0 1.585-.465 3.12-1.344 4.438l-5.934 8.901c-.323.484-1.122.484-1.445 0l-5.934-8.901c-.878-1.318-1.343-2.853-1.343-4.438v-.275c0-4.411 3.589-8 8-8s8 3.589 8 8z"/><path d="m53 5c-3.309 0-6 2.691-6 6s2.691 6 6 6 6-2.691 6-6-2.691-6-6-6zm0 10c-2.206 0-4-1.794-4-4s1.794-4 4-4 4 1.794 4 4-1.794 4-4 4z"/><path d="m18 13c0-1.654 1.346-3 3-3v-2c-2.757 0-5 2.243-5 5z"/><path d="m21 6v-2c-4.962 0-9 4.038-9 9h2c0-3.86 3.14-7 7-7z"/><path d="m57 46c0 1.654-1.346 3-3 3v2c2.757 0 5-2.243 5-5z"/><path d="m54 53v2c4.962 0 9-4.037 9-9h-2c0 3.859-3.14 7-7 7z"/></svg>