<?xml version="1.0" encoding="iso-8859-1"?>
<!-- Generator: Adobe Illustrator 19.0.0, SVG Export Plug-In . SVG Version: 6.00 Build 0)  -->
<!-- License: CC0. Made by SVG Repo: https://www.svgrepo.com/svg/293275/transportation-truck -->
<svg version="1.1" id="Layer_1" xmlns="http://www.w3.org/2000/svg" xmlns:xlink="http://www.w3.org/1999/xlink" x="0px" y="0px"
	 viewBox="0 0 512 512" style="enable-background:new 0 0 512 512;" xml:space="preserve">
<g>
	<g>
		<polygon class="purple-svg-active" points="0,86.154 0,281.463 12.288,281.463 34.444,281.463 34.444,86.154 		"/>
	</g>
</g>
<g>
	<g>
		<rect class="purple-svg-active" x="64.86" y="86.154" width="34.444" height="195.31"/>
	</g>
</g>
<g>
	<g>
		<rect class="purple-svg-active" x="129.713" y="86.154" width="34.444" height="195.31"/>
	</g>
</g>
<g>
	<g>
		<rect class="purple-svg-active" x="194.58" y="86.154" width="34.444" height="195.31"/>
	</g>
</g>
<g>
	<g>
		<rect class="purple-svg-active" x="259.437" y="86.154" width="34.444" height="195.31"/>
	</g>
</g>
<g>
	<g>
		<polygon class="purple-svg-active" points="324.297,86.154 324.297,281.463 358.741,281.463 358.741,154.057 358.741,86.154 		"/>
	</g>
</g>
<g>
	<g>
		<path class="purple-svg-active" d="M423.117,273.857v-89.384h-33.96v127.406h-64.86h-30.416h-34.444h-30.416h-34.444h-30.416h-34.444H99.302H64.86H42.704
			v42.997h33.005c11.327-13.448,28.275-22.013,47.192-22.013c18.918,0,35.865,8.565,47.192,22.013h19.565
			c11.327-13.448,28.275-22.013,47.192-22.013s35.865,8.565,47.192,22.013H402.12c11.327-13.448,28.275-22.013,47.192-22.013
			c18.918,0,35.865,8.565,47.192,22.013H512v-81.019H423.117z"/>
	</g>
</g>
<g>
	<g>
		<polygon class="purple-svg-active" points="463.752,184.473 453.533,184.473 453.533,243.441 500.006,243.441 		"/>
	</g>
</g>
<g>
	<g>
		<circle class="purple-svg-active" cx="122.9" cy="394.563" r="31.283"/>
	</g>
</g>
<g>
	<g>
		<circle class="purple-svg-active" cx="236.848" cy="394.563" r="31.283"/>
	</g>
</g>
<g>
	<g>
		<circle class="purple-svg-active" cx="449.313" cy="394.563" r="31.283"/>
	</g>
</g>
</svg>
