<svg xmlns="http://www.w3.org/2000/svg" viewBox="0 0 71.5 84"><defs><style>.cls-1{fill:#2F2F2F;}</style></defs><title>Asset 1</title><g id="Layer_2" data-name="Layer 2"><g id="Layer_1-2" data-name="Layer 1"><path class="cls-1" d="M33.43,76.33h-.09A34.4,34.4,0,0,1,18.27,11.56a3,3,0,1,1,2.82,5.3A28.4,28.4,0,0,0,33.52,70.33a3,3,0,0,1-.09,6Z"/><path class="cls-1" d="M39.41,76.51a3,3,0,0,1-2.18-.94l-7.49-8a3,3,0,1,1,4.37-4.11l7.49,8a3,3,0,0,1-2.19,5.05Z"/><path class="cls-1" d="M31.45,84a3,3,0,0,1-2.05-5.19l8-7.48a3,3,0,1,1,4.11,4.37l-8,7.49A3,3,0,0,1,31.45,84Z"/><path class="cls-1" d="M51.64,72.89a3,3,0,0,1-1.4-5.66A28.4,28.4,0,0,0,38,13.67a3,3,0,0,1,.19-6A34.4,34.4,0,0,1,53,72.54,2.93,2.93,0,0,1,51.64,72.89Z"/><path class="cls-1" d="M39.6,21.45a3,3,0,0,1-2.19-.95l-7.48-8a3,3,0,1,1,4.37-4.1l7.48,8a3,3,0,0,1-2.18,5.06Z"/><path class="cls-1" d="M32.12,13.48a3,3,0,0,1-2.06-5.19L38,.81a3,3,0,0,1,4.11,4.38l-8,7.48A3,3,0,0,1,32.12,13.48Z"/></g></g></svg>