<svg xmlns="http://www.w3.org/2000/svg" viewBox="0 0 24.317 29">
  <g id="Group_3507" data-name="Group 3507" transform="translate(-38 -128)">
    <g id="Group_3371" data-name="Group 3371" transform="translate(38 128)">
      <path id="Path_1433" data-name="Path 1433" d="M21.46,29H2.852A2.867,2.867,0,0,1,0,26.13a12.159,12.159,0,1,1,24.317,0A2.873,2.873,0,0,1,21.46,29Zm-9.3-12.526A9.621,9.621,0,0,0,2.6,26.13a.268.268,0,0,0,.255.273h18.6a.268.268,0,0,0,.255-.273A9.613,9.613,0,0,0,12.158,16.474Zm0-3.385a6.545,6.545,0,1,1,6.5-6.544A6.526,6.526,0,0,1,12.158,13.089Zm0-10.492a3.948,3.948,0,1,0,3.9,3.947A3.927,3.927,0,0,0,12.158,2.6Z"/>
    </g>
  </g>
</svg>
