<svg xmlns="http://www.w3.org/2000/svg" viewBox="0 0 86.34 86.03"><title>Customize icon-2</title><g id="Layer_2" data-name="Layer 2"><g id="Icons"><path class="cls-1" d="M37,84H11.59A5.09,5.09,0,0,1,11,84,11.55,11.55,0,0,1,0,72.41V11.59A11.6,11.6,0,0,1,11.59,0H72.41A11.55,11.55,0,0,1,84,11a5.27,5.27,0,0,1,0,.56V37a3,3,0,1,1-6,0V11.74a2.16,2.16,0,0,1,0-.35A5.57,5.57,0,0,0,72.41,6H11.59A5.6,5.6,0,0,0,6,11.59V72.41A5.56,5.56,0,0,0,11.37,78a2.22,2.22,0,0,1,.37,0H37a3,3,0,0,1,0,6Z"/><rect class="cls-1" x="15.15" y="15.89" width="57.45" height="18.72" rx="3"/><rect class="cls-1" x="15.15" y="42" width="18.72" height="18.72" rx="3"/><circle class="cls-2" cx="59.47" cy="73.48" r="2.79"/><circle class="cls-2" cx="52.02" cy="67.24" r="2.79"/><circle class="cls-2" cx="51.07" cy="57.85" r="2.79"/><circle class="cls-2" cx="58.03" cy="50.89" r="2.79"/><circle class="cls-2" cx="67.78" cy="50.89" r="2.79"/><circle class="cls-2" cx="73.36" cy="58.73" r="2.79"/><path class="cls-1" d="M62.21,86a24,24,0,0,1,0-48A25.44,25.44,0,0,1,80.9,46.31,20.31,20.31,0,0,1,86.22,62.2h0c-.1.86-1.16,8.07-10.57,8.07h-.26a4.3,4.3,0,0,0-3.45,1.2,6,6,0,0,0-1.06,4.13c.63,3.17.24,5.73-1.15,7.6a6.8,6.8,0,0,1-4.55,2.65A23.81,23.81,0,0,1,62.21,86Zm0-42a18,18,0,0,0,0,36,17.19,17.19,0,0,0,2.27-.15,2.9,2.9,0,0,0,1.91-1.14c.67-.93.82-2.41.44-4.29,0,0,0-.07,0-.1s-.47-3.66,1.65-6a6.58,6.58,0,0,1,5.31-2.06h0c5.91.09,6.4-3.87,6.43-4.32v-.06a14.8,14.8,0,0,0-3.9-11.57A19.22,19.22,0,0,0,62.22,44Z"/></g></g></svg>