<?xml version="1.0" encoding="utf-8"?>
<!-- Generator: Adobe Illustrator 23.0.4, SVG Export Plug-In . SVG Version: 6.00 Build 0)  -->
<svg version="1.1" id="Layer_1" xmlns="http://www.w3.org/2000/svg" xmlns:xlink="http://www.w3.org/1999/xlink" x="0px" y="0px"
	 viewBox="0 0 535.9 149.3" style="enable-background:new 0 0 535.9 149.3;" xml:space="preserve">
<style type="text/css">
	.st0{fill:#B1B3B6;stroke:#B1B3B6;stroke-width:35.4725;stroke-linecap:round;stroke-linejoin:round;stroke-miterlimit:10;}
	.st1{fill:#B1B3B6;stroke:#B1B3B6;stroke-width:28.8533;stroke-linecap:round;stroke-linejoin:round;stroke-miterlimit:10;}
	.st2{fill:#FFFFFF;stroke:#FFFFFF;stroke-width:24.9496;stroke-linecap:round;stroke-linejoin:round;stroke-miterlimit:10;}
	.st3{fill:#FFFFFF;stroke:#FFFFFF;stroke-width:24.9496;stroke-miterlimit:10;}
	.st4{fill:#FFFFFF;stroke:#FFFFFF;stroke-width:18.6698;stroke-linecap:round;stroke-linejoin:round;stroke-miterlimit:10;}
	.st5{fill:#FFFFFF;}
	.st6{fill:#9D56A1;stroke:#9D56A1;stroke-width:4.4315;stroke-miterlimit:10;}
	.st7{fill:#8CC540;stroke:#8CC540;stroke-width:4.4315;stroke-miterlimit:10;}
	.st8{fill:#FFC113;stroke:#FFC113;stroke-width:4.4315;stroke-miterlimit:10;}
	.st9{fill:#8CC540;}
</style>
<g>
	<g>
		<g>
			<path class="st0" d="M97,33.5l-1.1,6.1c-0.4,13.5-1,21.5-2.4,34.7l-1,5c-0.9,9-1.1,16.3-1.9,24.8c-0.2,2.3-0.6,6-5.5,6.6
				c-0.3,0-0.5,0.1-0.7,0.1c-4.1,0.2-5.8-2.9-7-4.9C73.6,99.1,67,84.5,64,76.4c0,0-3.8,23-9,30.7c-1.1,1.7-2.4,4.8-6.8,4.4
				c-3.5-0.4-4.4-2.7-5.1-4.6l-0.1-0.4c-6-15.8-8.2-32.4-10.4-48.5l-0.5-3.7c-0.2-1.4-0.4-2.9-0.6-4.3c-0.8-5-1.5-10.2-1.6-15.4
				c0-0.2,0-0.5-0.1-0.8c-0.1-1.2-0.4-3.8,3-4.1c1-0.1,1.9,0.1,2.6,0.6c1.3,0.9,1.7,2.5,1.8,3.6c0.6,6.6,2.1,13.2,3.6,19.6
				c0.8,3.7,1.3,9.6,2,13.4c2,10.8,4.2,21.5,7.1,30.4c1.4-2.3,3.3-6.9,4.2-9.1c0.7-1.7,4.6-20.1,4.9-21.8c0.2-1.3,1.7-5.6,5.4-5.2
				c3.3,0.4,3.9,2.7,4.4,4.5c1.8,6.8,9,22.2,13.5,28.3c0.2-2.4,0.5-4.8,0.8-7.1c0.8-7.6,2-14.8,2.7-22.6C86.2,58,86.3,51,86.8,45
				c0.2-2.9,0.5-5.8,0.7-8.7c0.2-2.1-0.8-8.7,4.3-8.7C96.9,27.7,97,31.3,97,33.5z"/>
			<path class="st0" d="M120.2,105.4c-0.3,0.1-0.6,0.1-0.9,0.2c-2.3,0.4-4.9,0.5-7.7,0.3c-3.4-0.2-6.3-1.3-8.5-3.3
				c-2.2-2-3.6-4.4-4-7.2c-0.4-3,0.6-7.4,3.1-10.7c2.4-3.4,5.6-5.4,9.4-6.1c3.9-0.7,8.2,1.2,10.6,2.9c0.1-1.3,0.3-2.2,0.4-3.5
				c0.3-3.6,0.6-7.4,0.9-10.9c0.2-3.1-0.1-6.2-0.7-8.9c-0.3-1.8-2.4-4.1-3.5-4.8c-1.1-0.7-3.3-0.2-3.3-0.2c-1.2,0.9-3.2,2.5-4.3,4.5
				c-1.1,2-2.1,4-2.4,4.7l0,2.2c-0.2,1.2,0,2-1,2.7c-1,0.6-2.1,0.9-3.3,0.6c-1.2-0.2-2.1-0.9-2.7-1.9c-0.7-1-0.9-2.1-0.7-3.3
				l0.3-1.1c0.1-0.3,0.1-0.6,0.2-0.9c0.1-0.3,0.2-0.6,0.3-0.9c0.1-0.3,0.3-0.6,0.3-0.8c0.1-0.2,0.3-0.5,0.5-1c0.3-0.4,0.4-0.8,0.5-1
				c0.1-0.2,0.3-0.6,0.7-1.2c0.4-0.6,0.6-1,0.7-1.3c2-3.6,4.2-6.3,6.4-7.9c3.2-2.3,7-2.4,11.3-0.2c4,2,6.5,5.3,7.4,9.8
				c0.7,3.5,1,7.2,0.8,11c-0.2,3.5-0.5,7.1-0.8,10.8c-0.3,3.6-0.7,6.9-1,9.8c-0.3,2.9-0.5,5.2-0.6,6.7c-0.2,1.6-0.3,3.2-0.4,4.8
				c-0.2,1.6-0.3,2.7-0.3,3.4c0,0.1,0,0.2,0,0.3c0,0.1,0,0.4,0,0.8c0,0.4,0,0.7-0.1,1c-0.1,0.3-0.2,0.6-0.5,1
				c-0.3,0.3-0.6,0.6-1,0.8c-0.4,0.2-0.9,0.3-1.6,0.3c-0.7,0-1.5-0.1-2.5-0.4L120.2,105.4z M120.9,97.3c0-1.4,0.1-2.1,0.2-3.6
				c0.2-1.8,0.2-4.7-1.2-5.9c-1-0.9-2.8-1.5-5.2-1.9c-1.2-0.2-1.8-0.1-3.1,0.2c-1.6,0.3-2.7,1.1-3.8,2.5c-0.5,0.6-0.7,1.1-0.9,1.6
				c-0.3,0.5-0.8,1.9-0.7,3.4c0.1,1.4,1.4,3.2,2,3.8c0.7,0.6,2.9,1.1,4.4,1.2c2.1,0.2,3.6,0.3,5.3,0
				C119.2,98.4,120.7,97.3,120.9,97.3z"/>
			<path class="st0" d="M207.7,63.6l-0.9-1.6c-1.6-1.6-2.7-2.2-5.7-2.3c-3-0.1-7.6,1.5-8.9,2.3c-2.6,1.5-4.5,3.7-5.8,6.5
				c-1.5,3-2.2,6.5-2,10.4c0.2,3.9,1.1,7.4,2.7,10.5c1.4,3.1,2.4,4.1,4.5,5.2c2.1,1.2,5.2,1.8,7.8,2.2c2.6,0.4,4.3,0.6,6.5-0.4
				c2-0.9,3-2.8,3-2.8c0.2-0.9,0.6-3.1,2.2-3.7c1.6-0.6,1-0.4,3-0.3c2,0.1,2.1,0.4,3.3,1.3c1.9,1.3,1.3,3.9,1.3,3.9
				c-0.3,1.4-1.4,2.9-3.4,4.7c-2.5,2.3-5.6,3.7-9.5,4.3c-3.6,0.5-7.7,0.3-12.4-0.7c-4.5-0.9-7.9-2.4-10.3-4.4
				c-1.9-1.6-3.8-4.2-5.6-7.8c-1.7-3.5-2.7-7.5-3-11.9c-0.2-4.4,0.6-8.5,2.3-12.1c1.9-3.9,4.8-6.9,8.7-9.2c4.9-2.9,10.3-4.3,16.1-4
				c3.6,0.1,6.6,0.6,9,1.5c1.4,0.5,2.6,1.1,3.6,1.9c1.5,1.3,2.4,2.4,2.7,3.3l0.3,0.7c0.3,0.9,0.2,3.2-0.7,4.2
				c-1,1.2-1.5,1.6-3.5,1.7c-2,0.2-2.3,0-3.3-0.7C208.2,65.3,208.1,64.6,207.7,63.6z"/>
			<path class="st0" d="M237.1,39.3l-0.7,6.6c-0.5,4.3-1.1,10.6-1.9,18.9c-0.2,2.6-0.3,5.1-0.5,7.4c2.2-0.9,5.8-1.2,8.3-1
				c3.8,0.3,6.8,1.8,9,4.5c1.9,2.4,3.1,5.5,3.5,9.4c0.3,3.1,0.4,6.2,0.3,9.3c-0.1,3-0.2,5.4-0.4,7l-0.3,2.2
				c-0.2,1.3-0.8,2.4-1.9,3.2c-1.1,0.8-2.4,1.2-3.8,1c-1.4-0.2-1.7-0.2-2.6-1.3c-0.9-1.1-0.8-2.8-0.7-4.1l0.3-2.2
				c0.2-1.4,0.3-3.4,0.4-6.1c0.1-2.7,0-5.5-0.3-8.2c-0.2-2-0.6-3.6-1.3-4.4c-0.4-0.4-1.2-1.3-2.5-1.7c-1.4-0.4-4.3-0.4-5.9,0.3
				c-1.5,0.7-2.4,1.4-2.4,1.4l-0.3,2.1c0,1.1,0,2.1-0.1,3.1c-0.2,6.7-0.4,10.9-0.7,12.5c-0.2,1.3-0.4,2.2-0.4,2.5l-0.1,0.6
				c-0.2,1.3-0.8,2.3-1.9,3.1c-1.1,0.8-1.2,1.1-2.6,1c-1.4-0.2-2.5-0.8-3.4-1.9c-0.9-1.1-1.3-2.3-1.1-3.6l0.1-0.6
				c0.1-0.4,0.2-1.3,0.4-2.8c0.2-1.2,0.4-4.9,0.6-11.3c0.2-6.6,0.7-14.1,1.4-22.4c0.7-8.3,1.3-14.7,1.8-19.2l0.7-6.7
				c0.2-1.3,0.8-2.4,1.9-3.2c1.1-0.8,2.4-1.2,3.8-1c1.4,0.2,1.3,0.8,2.2,1.8C236.9,36.8,237.3,38,237.1,39.3z"/>
			<path class="st0" d="M467.8,58.3c1.4,0.3,3.4,0.5,6,1.4l3.6,1.4c3.4,1.2,4.7,2.6,6.5,4.1c1.6,1.2,3.1,2.7,4.4,4.7
				c1.2,1.8,2.2,3.6,2.7,5.3c0.5,1.5,0.8,3.2,1.1,5.2c0.4,2,0.5,4.4,0.3,7.2c-0.2,2.7-0.6,5.2-1.3,7.4c-0.6,2.4-1.8,4.7-3.4,7
				c-1.6,2.4-3.9,4.4-6.8,6.1c-3.1,1.9-6.6,2.9-10.6,3c-3.7,0.1-7.2-0.4-10.5-1.5c-1.3-0.5-2.5-1-3.6-1.6c-3.1-1.7-5.6-3.6-7.6-5.8
				c-1.8-2-3.1-4.9-4.1-8.6c-0.9-3.5-0.9-7.8,0-13c0.9-5.3,3.1-9.8,6.7-13.4c3.7-3.7,5.7-6.2,8.7-7c0,0,2.9-1.4,4.4-1.8
				C465.6,58.2,466.3,58.1,467.8,58.3z M472.9,67.5c-2.9-0.6-4.8-1.5-7.8-0.5s-4.1,2.5-6.8,4.8c-2.7,2.3-5.3,7.2-5.5,10.7
				s-0.7,7.9,0,10.6c0.6,2.4,2,4.1,3.8,5.6c1.8,1.5,3.7,2.3,5.9,3.1c2.2,0.8,5.8,1.9,6.2,1.9c1.8-0.1,5.1-0.2,7.3-1.4
				s3.7-2.7,4.9-4.5c1.3-1.8,2.2-3.7,2.7-5.6c0.6-1.9,0.9-4,1.1-6.3c0.1-2.3,0-4.2-0.2-5.8c-0.3-1.6-0.6-3-1-4.2
				c-0.3-1-1.6-3.4-2.8-4.6S475.8,68.1,472.9,67.5z"/>
			<path class="st0" d="M171.8,94.8c-0.1-1.2-0.6-2.2-1.6-2.9c-1-0.7-2-1-3.2-0.9c-1.2,0.1-2.2,0.7-2.9,1.6l-0.2,0.3
				c-0.5,0.3-1.3,0.6-2.4,1.1c-0.8,0.3-1.5,0.6-2,0.7c-0.3-0.3-0.7-0.7-1.2-1.2c-0.7-0.8-1.3-2.1-1.7-3.7c-0.5-2-0.8-4.6-1-7.8
				c-0.1-1.7-0.2-3.7-0.3-6c0.5,0,1,0,1.5,0.1c3.4,0.2,5.8,0.3,7.1,0.3h1.9c1.2,0,2.2-0.4,3.1-1.3c0.9-0.9,1.3-1.9,1.3-3.1
				c0-1.2-0.4-2.2-1.3-3.1c-0.9-0.9-1.9-1.3-3.1-1.3h-1.9c-1.1,0-3.3-0.1-6.5-0.3c-1.1-0.1-1.9-0.1-2.2-0.2c0-5.1,0-9,0-11.7
				c0-3.6,0-6.6,0-8.9c0-1.8,0-3.3,0-4.5v-1.3c0-1.2-0.4-2.2-1.3-3.1c-0.9-0.9-1.9-1.3-3.1-1.3c-1.2,0-2.2,0.4-3.1,1.3
				c-0.9,0.9-1.3,1.9-1.3,3.1V42c0,1.2,0,2.7,0,4.5c0,2.3,0,5.3,0,8.9c0,2.5,0,6.3,0,11.4l-7.1-0.2c-2.2-0.1-4.1,1.7-4.1,4
				c0,2.3,1.8,4.3,4.1,4.3l7.2,0.2c0.1,2.8,0.2,5.2,0.3,7.4c0.2,3.7,0.6,6.8,1.3,9.3c0.7,2.9,1.9,5.3,3.5,7.2c1.7,2,3.5,3.3,5.4,4
				c2.1,0.7,4.8,0.3,8-1c0.2-0.1,0.7-0.3,1.5-0.6c0.8-0.3,1.3-0.5,1.6-0.7c0.3-0.1,0.7-0.4,1.1-0.8c0.5-0.4,0.9-0.8,1.4-1.3l0.4-0.6
				C171.6,97.1,171.9,96,171.8,94.8z"/>
			<g>
				<path class="st0" d="M439.6,93.1c-3.7,15.5-11.1,25.7-29.1,24.5c-15.6-1.1-22.4-7.2-28.3-22.3c-5.9-15.3-3.2-30.1,2.9-44.2
					c4.8-11.1,14.1-19.5,30.6-21.8c11.7-1.7,21.6,2.8,26.4,11.3c2.4,5.6,2.1,12.6,1.1,14.7c-1.6,3.4-5.2,3.5-6.9,1.3
					c-2-2.7-0.4-6.4-0.6-8.2c-0.6-4.3-3.5-8.6-7.7-9.7c-9.2-2.5-18.2-1.2-24.3,3.5c-9.5,7.2-12.8,16-14.7,26.4
					c-2,11,0.2,17.5,2.5,25.6c1.4,5,5.8,12.2,13.9,13.6c8.3,1.5,14.5,2,19.6-2.7c2.3-2.3,3.9-5.3,4.5-8.7c0.3-1.9,2.2-7.5,0.8-8.9
					c-1.6-1.5-5.5-2-7.9-2c-0.7,0-1.4,0-2,0.1c-4.7,0.9-11,1.9-12.3-2.6c-1.3-4.6,1.5-5.4,6-5.8c6.5,0.2,9.8,1,15.5,0.6
					C438.6,77.1,441.5,85.4,439.6,93.1z"/>
			</g>
			<path class="st0" d="M292.3,68.5c-3.9-5.4-8.2-10.4-11.8-16c-1-1.5-4.3-5.7-5.8-8c-1.3,16.2-3.8,33.5-4.1,48.8
				c-0.1,5-1.7,8.3-1.8,13.3c0,3.2-1.2,5.9-4.6,6.1c-3.3,0.2-4.3-2.4-4.9-5.3c1-7.3,1.7-14.2,2.6-20.6c2.4-17.5,3.2-29.9,4.2-46.5
				c0.1-2,0.1-4,0.5-6c0.4-2.4,0-5.4,3.1-6.2c3.3-0.9,4.9,2.2,6.5,4.3c3.6,5,8.8,11.7,12.1,16.9c2.8,4.5,6.7,6.8,9.8,11.7
				c4.4-7.3,8.7-14.1,12.6-21c1.5-2.7,4.2-5,5.4-7.2c3.5-3.3,7.2-2.4,8.2,2.3c0.9,4.4,2.3,25.6,2.8,30.2c1.6,14.3,2.3,22.9,5.4,44.5
				c0.4,2.9-0.9,5.6-4.2,5.7c-3.7,0.1-4.3-2.7-4.7-5.8c-1.6-12.9-2.1-18.1-3.4-33c-0.6-6.7-2.5-23.7-3.1-30.6
				c-4.5,7.6-9.6,13.4-13,20.9C300.8,74.1,296.8,74.7,292.3,68.5z"/>
			<path class="st0" d="M344.2,79.7c-0.1,4.3,1.3,7.2,1.6,9.3c0.3,2.2,2.2,7.1,4.6,8.8c2.3,1.7,7.1,2.4,8.8,1.7
				c1.7-0.7,3.7-2,4.3-3.2s1.2-2.7,1.3-4.3c0.1-1.7,1.7-3.5,2.5-3.8c0.9-0.4,1.6-0.4,3.2-0.3s3,0.5,4,1.3c1,0.8,0.8,2.8,0.3,4.2
				s-1,3.5-2.1,5.3c-1.3,2.1-3.9,4.3-5.8,5.8c-1.9,1.5-6.8,3.2-11.1,3.5c-5,0.4-12.1-3-13.9-5.1c-1.8-2.1-3.6-4.8-5.1-10.6
				c-1.5-5.6-2.1-11.3-2.4-16.4c-0.3-5.2,0.4-10.4,2-13.8c2.2-4.3,5.9-7.3,11.1-9c3.7-1.3,7-1.7,10.1-1.3c1.7,0.2,3.2,0.7,4.5,1.4
				c2.3,1.3,4.2,3,5.7,5c1.2,1.8,2.1,3.6,2.9,5.4c0.8,2,1,5.7,0.9,7c0,1-0.5,2.1-1.5,3.2c-1,1.1-2.3,2.2-4.2,2.8
				c-1.6,0.5-3.5,1.3-7.2,1.9c-3.5,0.6-8,1-9.6,1.4C347.5,80,344.4,79.7,344.2,79.7z M343.8,72.1c0.3,0,3.1,0.1,5.4-0.4
				c2.5-0.5,4.2-0.7,7.1-1.2c0.9-0.2,2.9-0.5,3.9-1c2.5-1.2,2.5-2.5,2-4.4c-0.4-1.6-1.4-4.1-2.9-5.2c-1.1-0.8-3.4-1.2-4.6-1.2
				c-1.2,0-2.7,0.3-3,0.4c-1.5,0.5-4.4,0.9-5.9,3.3S343.4,67.7,343.8,72.1z"/>
		</g>
		<g>
			<path class="st1" d="M495.3,109.5h-2.7V108h7.3v1.5h-2.7v8.2h-1.9V109.5z"/>
			<path class="st1" d="M501,108h2.6l2.5,6.5l2.4-6.5h2.5v9.7H509v-7.2l-2.8,7.2h-0.6l-2.9-7.2v7.2H501V108z"/>
		</g>
	</g>
	<g>
		<g>
			<g>
				<path class="st2" d="M97,33.5l-1.1,6.1c-0.4,13.5-1,21.5-2.4,34.7l-1,5c-0.9,9-1.1,16.3-1.9,24.8c-0.2,2.3-0.6,6-5.5,6.6
					c-0.3,0-0.5,0.1-0.7,0.1c-4.1,0.2-5.8-2.9-7-4.9C73.6,99.1,67,84.5,64,76.4c0,0-3.8,23-9,30.7c-1.1,1.7-2.4,4.8-6.8,4.4
					c-3.5-0.4-4.4-2.7-5.1-4.6l-0.1-0.4c-6-15.8-8.2-32.4-10.4-48.5l-0.5-3.7c-0.2-1.4-0.4-2.9-0.6-4.3c-0.8-5-1.5-10.2-1.6-15.4
					c0-0.2,0-0.5-0.1-0.8c-0.1-1.2-0.4-3.8,3-4.1c1-0.1,1.9,0.1,2.6,0.6c1.3,0.9,1.7,2.5,1.8,3.6c0.6,6.6,2.1,13.2,3.6,19.6
					c0.8,3.7,1.3,9.6,2,13.4c2,10.8,4.2,21.5,7.1,30.4c1.4-2.3,3.3-6.9,4.2-9.1c0.7-1.7,4.6-20.1,4.9-21.8c0.2-1.3,1.7-5.6,5.4-5.2
					c3.3,0.4,3.9,2.7,4.4,4.5c1.8,6.8,9,22.2,13.5,28.3c0.2-2.4,0.5-4.8,0.8-7.1c0.8-7.6,2-14.8,2.7-22.6C86.2,58,86.3,51,86.8,45
					c0.2-2.9,0.5-5.8,0.7-8.7c0.2-2.1-0.8-8.7,4.3-8.7C96.9,27.7,97,31.3,97,33.5z"/>
				<path class="st2" d="M120.2,105.4c-0.3,0.1-0.6,0.1-0.9,0.2c-2.3,0.4-4.9,0.5-7.7,0.3c-3.4-0.2-6.3-1.3-8.5-3.3
					c-2.2-2-3.6-4.4-4-7.2c-0.4-3,0.6-7.4,3.1-10.7c2.4-3.4,5.6-5.4,9.4-6.1c3.9-0.7,8.2,1.2,10.6,2.9c0.1-1.3,0.3-2.2,0.4-3.5
					c0.3-3.6,0.6-7.4,0.9-10.9c0.2-3.1-0.1-6.2-0.7-8.9c-0.3-1.8-2.4-4.1-3.5-4.8c-1.1-0.7-3.3-0.2-3.3-0.2
					c-1.2,0.9-3.2,2.5-4.3,4.5c-1.1,2-2.1,4-2.4,4.7l0,2.2c-0.2,1.2,0,2-1,2.7c-1,0.6-2.1,0.9-3.3,0.6c-1.2-0.2-2.1-0.9-2.7-1.9
					c-0.7-1-0.9-2.1-0.7-3.3l0.3-1.1c0.1-0.3,0.1-0.6,0.2-0.9c0.1-0.3,0.2-0.6,0.3-0.9c0.1-0.3,0.3-0.6,0.3-0.8
					c0.1-0.2,0.3-0.5,0.5-1c0.3-0.4,0.4-0.8,0.5-1c0.1-0.2,0.3-0.6,0.7-1.2c0.4-0.6,0.6-1,0.7-1.3c2-3.6,4.2-6.3,6.4-7.9
					c3.2-2.3,7-2.4,11.3-0.2c4,2,6.5,5.3,7.4,9.8c0.7,3.5,1,7.2,0.8,11c-0.2,3.5-0.5,7.1-0.8,10.8c-0.3,3.6-0.7,6.9-1,9.8
					c-0.3,2.9-0.5,5.2-0.6,6.7c-0.2,1.6-0.3,3.2-0.4,4.8c-0.2,1.6-0.3,2.7-0.3,3.4c0,0.1,0,0.2,0,0.3c0,0.1,0,0.4,0,0.8
					c0,0.4,0,0.7-0.1,1c-0.1,0.3-0.2,0.6-0.5,1c-0.3,0.3-0.6,0.6-1,0.8c-0.4,0.2-0.9,0.3-1.6,0.3c-0.7,0-1.5-0.1-2.5-0.4
					L120.2,105.4z M120.9,97.3c0-1.4,0.1-2.1,0.2-3.6c0.2-1.8,0.2-4.7-1.2-5.9c-1-0.9-2.8-1.5-5.2-1.9c-1.2-0.2-1.8-0.1-3.1,0.2
					c-1.6,0.3-2.7,1.1-3.8,2.5c-0.5,0.6-0.7,1.1-0.9,1.6c-0.3,0.5-0.8,1.9-0.7,3.4c0.1,1.4,1.4,3.2,2,3.8c0.7,0.6,2.9,1.1,4.4,1.2
					c2.1,0.2,3.6,0.3,5.3,0C119.2,98.4,120.7,97.3,120.9,97.3z"/>
				<path class="st3" d="M207.7,63.6l-0.9-1.6c-1.6-1.6-2.7-2.2-5.7-2.3c-3-0.1-7.6,1.5-8.9,2.3c-2.6,1.5-4.5,3.7-5.8,6.5
					c-1.5,3-2.2,6.5-2,10.4c0.2,3.9,1.1,7.4,2.7,10.5c1.4,3.1,2.4,4.1,4.5,5.2c2.1,1.2,5.2,1.8,7.8,2.2c2.6,0.4,4.3,0.6,6.5-0.4
					c2-0.9,3-2.8,3-2.8c0.2-0.9,0.6-3.1,2.2-3.7c1.6-0.6,1-0.4,3-0.3c2,0.1,2.1,0.4,3.3,1.3c1.9,1.3,1.3,3.9,1.3,3.9
					c-0.3,1.4-1.4,2.9-3.4,4.7c-2.5,2.3-5.6,3.7-9.5,4.3c-3.6,0.5-7.7,0.3-12.4-0.7c-4.5-0.9-7.9-2.4-10.3-4.4
					c-1.9-1.6-3.8-4.2-5.6-7.8c-1.7-3.5-2.7-7.5-3-11.9c-0.2-4.4,0.6-8.5,2.3-12.1c1.9-3.9,4.8-6.9,8.7-9.2c4.9-2.9,10.3-4.3,16.1-4
					c3.6,0.1,6.6,0.6,9,1.5c1.4,0.5,2.6,1.1,3.6,1.9c1.5,1.3,2.4,2.4,2.7,3.3l0.3,0.7c0.3,0.9,0.2,3.2-0.7,4.2
					c-1,1.2-1.5,1.6-3.5,1.7c-2,0.2-2.3,0-3.3-0.7C208.2,65.3,208.1,64.6,207.7,63.6z"/>
				<path class="st2" d="M237.1,39.3l-0.7,6.6c-0.5,4.3-1.1,10.6-1.9,18.9c-0.2,2.6-0.3,5.1-0.5,7.4c2.2-0.9,5.8-1.2,8.3-1
					c3.8,0.3,6.8,1.8,9,4.5c1.9,2.4,3.1,5.5,3.5,9.4c0.3,3.1,0.4,6.2,0.3,9.3c-0.1,3-0.2,5.4-0.4,7l-0.3,2.2
					c-0.2,1.3-0.8,2.4-1.9,3.2c-1.1,0.8-2.4,1.2-3.8,1c-1.4-0.2-1.7-0.2-2.6-1.3c-0.9-1.1-0.8-2.8-0.7-4.1l0.3-2.2
					c0.2-1.4,0.3-3.4,0.4-6.1c0.1-2.7,0-5.5-0.3-8.2c-0.2-2-0.6-3.6-1.3-4.4c-0.4-0.4-1.2-1.3-2.5-1.7c-1.4-0.4-4.3-0.4-5.9,0.3
					c-1.5,0.7-2.4,1.4-2.4,1.4l-0.3,2.1c0,1.1,0,2.1-0.1,3.1c-0.2,6.7-0.4,10.9-0.7,12.5c-0.2,1.3-0.4,2.2-0.4,2.5l-0.1,0.6
					c-0.2,1.3-0.8,2.3-1.9,3.1c-1.1,0.8-1.2,1.1-2.6,1c-1.4-0.2-2.5-0.8-3.4-1.9c-0.9-1.1-1.3-2.3-1.1-3.6l0.1-0.6
					c0.1-0.4,0.2-1.3,0.4-2.8c0.2-1.2,0.4-4.9,0.6-11.3c0.2-6.6,0.7-14.1,1.4-22.4c0.7-8.3,1.3-14.7,1.8-19.2l0.7-6.7
					c0.2-1.3,0.8-2.4,1.9-3.2c1.1-0.8,2.4-1.2,3.8-1c1.4,0.2,1.3,0.8,2.2,1.8C236.9,36.8,237.3,38,237.1,39.3z"/>
				<path class="st3" d="M467.8,58.3c1.4,0.3,3.4,0.5,6,1.4l3.6,1.4c3.4,1.2,4.7,2.6,6.5,4.1c1.6,1.2,3.1,2.7,4.4,4.7
					c1.2,1.8,2.2,3.6,2.7,5.3c0.5,1.5,0.8,3.2,1.1,5.2c0.4,2,0.5,4.4,0.3,7.2c-0.2,2.7-0.6,5.2-1.3,7.4c-0.6,2.4-1.8,4.7-3.4,7
					c-1.6,2.4-3.9,4.4-6.8,6.1c-3.1,1.9-6.6,2.9-10.6,3c-3.7,0.1-7.2-0.4-10.5-1.5c-1.3-0.5-2.5-1-3.6-1.6c-3.1-1.7-5.6-3.6-7.6-5.8
					c-1.8-2-3.1-4.9-4.1-8.6c-0.9-3.5-0.9-7.8,0-13c0.9-5.3,3.1-9.8,6.7-13.4c3.7-3.7,5.7-6.2,8.7-7c0,0,2.9-1.4,4.4-1.8
					C465.6,58.2,466.3,58.1,467.8,58.3z M472.9,67.5c-2.9-0.6-4.8-1.5-7.8-0.5s-4.1,2.5-6.8,4.8c-2.7,2.3-5.3,7.2-5.5,10.7
					s-0.7,7.9,0,10.6c0.6,2.4,2,4.1,3.8,5.6c1.8,1.5,3.7,2.3,5.9,3.1c2.2,0.8,5.8,1.9,6.2,1.9c1.8-0.1,5.1-0.2,7.3-1.4
					s3.7-2.7,4.9-4.5c1.3-1.8,2.2-3.7,2.7-5.6c0.6-1.9,0.9-4,1.1-6.3c0.1-2.3,0-4.2-0.2-5.8c-0.3-1.6-0.6-3-1-4.2
					c-0.3-1-1.6-3.4-2.8-4.6S475.8,68.1,472.9,67.5z"/>
				<path class="st2" d="M171.8,94.8c-0.1-1.2-0.6-2.2-1.6-2.9c-1-0.7-2-1-3.2-0.9c-1.2,0.1-2.2,0.7-2.9,1.6l-0.2,0.3
					c-0.5,0.3-1.3,0.6-2.4,1.1c-0.8,0.3-1.5,0.6-2,0.7c-0.3-0.3-0.7-0.7-1.2-1.2c-0.7-0.8-1.3-2.1-1.7-3.7c-0.5-2-0.8-4.6-1-7.8
					c-0.1-1.7-0.2-3.7-0.3-6c0.5,0,1,0,1.5,0.1c3.4,0.2,5.8,0.3,7.1,0.3h1.9c1.2,0,2.2-0.4,3.1-1.3c0.9-0.9,1.3-1.9,1.3-3.1
					c0-1.2-0.4-2.2-1.3-3.1c-0.9-0.9-1.9-1.3-3.1-1.3h-1.9c-1.1,0-3.3-0.1-6.5-0.3c-1.1-0.1-1.9-0.1-2.2-0.2c0-5.1,0-9,0-11.7
					c0-3.6,0-6.6,0-8.9c0-1.8,0-3.3,0-4.5v-1.3c0-1.2-0.4-2.2-1.3-3.1c-0.9-0.9-1.9-1.3-3.1-1.3c-1.2,0-2.2,0.4-3.1,1.3
					c-0.9,0.9-1.3,1.9-1.3,3.1V42c0,1.2,0,2.7,0,4.5c0,2.3,0,5.3,0,8.9c0,2.5,0,6.3,0,11.4l-7.1-0.2c-2.2-0.1-4.1,1.7-4.1,4
					c0,2.3,1.8,4.3,4.1,4.3l7.2,0.2c0.1,2.8,0.2,5.2,0.3,7.4c0.2,3.7,0.6,6.8,1.3,9.3c0.7,2.9,1.9,5.3,3.5,7.2c1.7,2,3.5,3.3,5.4,4
					c2.1,0.7,4.8,0.3,8-1c0.2-0.1,0.7-0.3,1.5-0.6c0.8-0.3,1.3-0.5,1.6-0.7c0.3-0.1,0.7-0.4,1.1-0.8c0.5-0.4,0.9-0.8,1.4-1.3
					l0.4-0.6C171.6,97.1,171.9,96,171.8,94.8z"/>
				<g>
					<path class="st3" d="M439.6,93.1c-3.7,15.5-11.1,25.7-29.1,24.5c-15.6-1.1-22.4-7.2-28.3-22.3c-5.9-15.3-3.2-30.1,2.9-44.2
						c4.8-11.1,14.1-19.5,30.6-21.8c11.7-1.7,21.6,2.8,26.4,11.3c2.4,5.6,2.1,12.6,1.1,14.7c-1.6,3.4-5.2,3.5-6.9,1.3
						c-2-2.7-0.4-6.4-0.6-8.2c-0.6-4.3-3.5-8.6-7.7-9.7c-9.2-2.5-18.2-1.2-24.3,3.5c-9.5,7.2-12.8,16-14.7,26.4
						c-2,11,0.2,17.5,2.5,25.6c1.4,5,5.8,12.2,13.9,13.6c8.3,1.5,14.5,2,19.6-2.7c2.3-2.3,3.9-5.3,4.5-8.7c0.3-1.9,2.2-7.5,0.8-8.9
						c-1.6-1.5-5.5-2-7.9-2c-0.7,0-1.4,0-2,0.1c-4.7,0.9-11,1.9-12.3-2.6c-1.3-4.6,1.5-5.4,6-5.8c6.5,0.2,9.8,1,15.5,0.6
						C438.6,77.1,441.5,85.4,439.6,93.1z"/>
				</g>
				<path class="st2" d="M292.3,68.5c-3.9-5.4-8.2-10.4-11.8-16c-1-1.5-4.3-5.7-5.8-8c-1.3,16.2-3.8,33.5-4.1,48.8
					c-0.1,5-1.7,8.3-1.8,13.3c0,3.2-1.2,5.9-4.6,6.1c-3.3,0.2-4.3-2.4-4.9-5.3c1-7.3,1.7-14.2,2.6-20.6c2.4-17.5,3.2-29.9,4.2-46.5
					c0.1-2,0.1-4,0.5-6c0.4-2.4,0-5.4,3.1-6.2c3.3-0.9,4.9,2.2,6.5,4.3c3.6,5,8.8,11.7,12.1,16.9c2.8,4.5,6.7,6.8,9.8,11.7
					c4.4-7.3,8.7-14.1,12.6-21c1.5-2.7,4.2-5,5.4-7.2c3.5-3.3,7.2-2.4,8.2,2.3c0.9,4.4,2.3,25.6,2.8,30.2
					c1.6,14.3,2.3,22.9,5.4,44.5c0.4,2.9-0.9,5.6-4.2,5.7c-3.7,0.1-4.3-2.7-4.7-5.8c-1.6-12.9-2.1-18.1-3.4-33
					c-0.6-6.7-2.5-23.7-3.1-30.6c-4.5,7.6-9.6,13.4-13,20.9C300.8,74.1,296.8,74.7,292.3,68.5z"/>
				<path class="st3" d="M344.2,79.7c-0.1,4.3,1.3,7.2,1.6,9.3c0.3,2.2,2.2,7.1,4.6,8.8c2.3,1.7,7.1,2.4,8.8,1.7
					c1.7-0.7,3.7-2,4.3-3.2s1.2-2.7,1.3-4.3c0.1-1.7,1.7-3.5,2.5-3.8c0.9-0.4,1.6-0.4,3.2-0.3s3,0.5,4,1.3c1,0.8,0.8,2.8,0.3,4.2
					s-1,3.5-2.1,5.3c-1.3,2.1-3.9,4.3-5.8,5.8c-1.9,1.5-6.8,3.2-11.1,3.5c-5,0.4-12.1-3-13.9-5.1c-1.8-2.1-3.6-4.8-5.1-10.6
					c-1.5-5.6-2.1-11.3-2.4-16.4c-0.3-5.2,0.4-10.4,2-13.8c2.2-4.3,5.9-7.3,11.1-9c3.7-1.3,7-1.7,10.1-1.3c1.7,0.2,3.2,0.7,4.5,1.4
					c2.3,1.3,4.2,3,5.7,5c1.2,1.8,2.1,3.6,2.9,5.4c0.8,2,1,5.7,0.9,7c0,1-0.5,2.1-1.5,3.2c-1,1.1-2.3,2.2-4.2,2.8
					c-1.6,0.5-3.5,1.3-7.2,1.9c-3.5,0.6-8,1-9.6,1.4C347.5,80,344.4,79.7,344.2,79.7z M343.8,72.1c0.3,0,3.1,0.1,5.4-0.4
					c2.5-0.5,4.2-0.7,7.1-1.2c0.9-0.2,2.9-0.5,3.9-1c2.5-1.2,2.5-2.5,2-4.4c-0.4-1.6-1.4-4.1-2.9-5.2c-1.1-0.8-3.4-1.2-4.6-1.2
					c-1.2,0-2.7,0.3-3,0.4c-1.5,0.5-4.4,0.9-5.9,3.3S343.4,67.7,343.8,72.1z"/>
			</g>
			<g>
				<path class="st4" d="M495.3,109.5h-2.7V108h7.3v1.5h-2.7v8.2h-1.9V109.5z"/>
				<path class="st4" d="M501,108h2.6l2.5,6.5l2.4-6.5h2.5v9.7H509v-7.2l-2.8,7.2h-0.6l-2.9-7.2v7.2H501V108z"/>
			</g>
		</g>
		<circle class="st5" cx="200.8" cy="79.6" r="15.5"/>
		<circle class="st5" cx="470.6" cy="85.2" r="17.7"/>
		<circle class="st5" cx="416.4" cy="67.5" r="22.1"/>
	</g>
	<g>
		<g>
			<path class="st6" d="M97,33.5l-1.1,6.1c-0.4,13.5-1,21.5-2.4,34.7l-1,5c-0.9,9-1.1,16.3-1.9,24.8c-0.2,2.3-0.6,6-5.5,6.6
				c-0.3,0-0.5,0.1-0.7,0.1c-4.1,0.2-5.8-2.9-7-4.9C73.6,99.1,67,84.5,64,76.4c0,0-3.8,23-9,30.7c-1.1,1.7-2.4,4.8-6.8,4.4
				c-3.5-0.4-4.4-2.7-5.1-4.6l-0.1-0.4c-6-15.8-8.2-32.4-10.4-48.5l-0.5-3.7c-0.2-1.4-0.4-2.9-0.6-4.3c-0.8-5-1.5-10.2-1.6-15.4
				c0-0.2,0-0.5-0.1-0.8c-0.1-1.2-0.4-3.8,3-4.1c1-0.1,1.9,0.1,2.6,0.6c1.3,0.9,1.7,2.5,1.8,3.6c0.6,6.6,2.1,13.2,3.6,19.6
				c0.8,3.7,1.3,9.6,2,13.4c2,10.8,4.2,21.5,7.1,30.4c1.4-2.3,3.3-6.9,4.2-9.1c0.7-1.7,4.6-20.1,4.9-21.8c0.2-1.3,1.7-5.6,5.4-5.2
				c3.3,0.4,3.9,2.7,4.4,4.5c1.8,6.8,9,22.2,13.5,28.3c0.2-2.4,0.5-4.8,0.8-7.1c0.8-7.6,2-14.8,2.7-22.6C86.2,58,86.3,51,86.8,45
				c0.2-2.9,0.5-5.8,0.7-8.7c0.2-2.1-0.8-8.7,4.3-8.7C96.9,27.7,97,31.3,97,33.5z"/>
			<path class="st6" d="M120.2,105.4c-0.3,0.1-0.6,0.1-0.9,0.2c-2.3,0.4-4.9,0.5-7.7,0.3c-3.4-0.2-6.3-1.3-8.5-3.3
				c-2.2-2-3.6-4.4-4-7.2c-0.4-3,0.6-7.4,3.1-10.7c2.4-3.4,5.6-5.4,9.4-6.1c3.9-0.7,8.2,1.2,10.6,2.9c0.1-1.3,0.3-2.2,0.4-3.5
				c0.3-3.6,0.6-7.4,0.9-10.9c0.2-3.1-0.1-6.2-0.7-8.9c-0.3-1.8-2.4-4.1-3.5-4.8c-1.1-0.7-3.3-0.2-3.3-0.2c-1.2,0.9-3.2,2.5-4.3,4.5
				c-1.1,2-2.1,4-2.4,4.7l0,2.2c-0.2,1.2,0,2-1,2.7c-1,0.6-2.1,0.9-3.3,0.6c-1.2-0.2-2.1-0.9-2.7-1.9c-0.7-1-0.9-2.1-0.7-3.3
				l0.3-1.1c0.1-0.3,0.1-0.6,0.2-0.9c0.1-0.3,0.2-0.6,0.3-0.9c0.1-0.3,0.3-0.6,0.3-0.8c0.1-0.2,0.3-0.5,0.5-1c0.3-0.4,0.4-0.8,0.5-1
				c0.1-0.2,0.3-0.6,0.7-1.2c0.4-0.6,0.6-1,0.7-1.3c2-3.6,4.2-6.3,6.4-7.9c3.2-2.3,7-2.4,11.3-0.2c4,2,6.5,5.3,7.4,9.8
				c0.7,3.5,1,7.2,0.8,11c-0.2,3.5-0.5,7.1-0.8,10.8c-0.3,3.6-0.7,6.9-1,9.8c-0.3,2.9-0.5,5.2-0.6,6.7c-0.2,1.6-0.3,3.2-0.4,4.8
				c-0.2,1.6-0.3,2.7-0.3,3.4c0,0.1,0,0.2,0,0.3c0,0.1,0,0.4,0,0.8c0,0.4,0,0.7-0.1,1c-0.1,0.3-0.2,0.6-0.5,1
				c-0.3,0.3-0.6,0.6-1,0.8c-0.4,0.2-0.9,0.3-1.6,0.3c-0.7,0-1.5-0.1-2.5-0.4L120.2,105.4z M120.9,97.3c0-1.4,0.1-2.1,0.2-3.6
				c0.2-1.8,0.2-4.7-1.2-5.9c-1-0.9-2.8-1.5-5.2-1.9c-1.2-0.2-1.8-0.1-3.1,0.2c-1.6,0.3-2.7,1.1-3.8,2.5c-0.5,0.6-0.7,1.1-0.9,1.6
				c-0.3,0.5-0.8,1.9-0.7,3.4c0.1,1.4,1.4,3.2,2,3.8c0.7,0.6,2.9,1.1,4.4,1.2c2.1,0.2,3.6,0.3,5.3,0
				C119.2,98.4,120.7,97.3,120.9,97.3z"/>
			<path class="st6" d="M207.7,63.6l-0.9-1.6c-1.6-1.6-2.7-2.2-5.7-2.3c-3-0.1-7.6,1.5-8.9,2.3c-2.6,1.5-4.5,3.7-5.8,6.5
				c-1.5,3-2.2,6.5-2,10.4c0.2,3.9,1.1,7.4,2.7,10.5c1.4,3.1,2.4,4.1,4.5,5.2c2.1,1.2,5.2,1.8,7.8,2.2c2.6,0.4,4.3,0.6,6.5-0.4
				c2-0.9,3-2.8,3-2.8c0.2-0.9,0.6-3.1,2.2-3.7c1.6-0.6,1-0.4,3-0.3c2,0.1,2.1,0.4,3.3,1.3c1.9,1.3,1.3,3.9,1.3,3.9
				c-0.3,1.4-1.4,2.9-3.4,4.7c-2.5,2.3-5.6,3.7-9.5,4.3c-3.6,0.5-7.7,0.3-12.4-0.7c-4.5-0.9-7.9-2.4-10.3-4.4
				c-1.9-1.6-3.8-4.2-5.6-7.8c-1.7-3.5-2.7-7.5-3-11.9c-0.2-4.4,0.6-8.5,2.3-12.1c1.9-3.9,4.8-6.9,8.7-9.2c4.9-2.9,10.3-4.3,16.1-4
				c3.6,0.1,6.6,0.6,9,1.5c1.4,0.5,2.6,1.1,3.6,1.9c1.5,1.3,2.4,2.4,2.7,3.3l0.3,0.7c0.3,0.9,0.2,3.2-0.7,4.2
				c-1,1.2-1.5,1.6-3.5,1.7c-2,0.2-2.3,0-3.3-0.7C208.2,65.3,208.1,64.6,207.7,63.6z"/>
			<path class="st6" d="M237.1,39.3l-0.7,6.6c-0.5,4.3-1.1,10.6-1.9,18.9c-0.2,2.6-0.3,5.1-0.5,7.4c2.2-0.9,5.8-1.2,8.3-1
				c3.8,0.3,6.8,1.8,9,4.5c1.9,2.4,3.1,5.5,3.5,9.4c0.3,3.1,0.4,6.2,0.3,9.3c-0.1,3-0.2,5.4-0.4,7l-0.3,2.2
				c-0.2,1.3-0.8,2.4-1.9,3.2c-1.1,0.8-2.4,1.2-3.8,1c-1.4-0.2-1.7-0.2-2.6-1.3c-0.9-1.1-0.8-2.8-0.7-4.1l0.3-2.2
				c0.2-1.4,0.3-3.4,0.4-6.1c0.1-2.7,0-5.5-0.3-8.2c-0.2-2-0.6-3.6-1.3-4.4c-0.4-0.4-1.2-1.3-2.5-1.7c-1.4-0.4-4.3-0.4-5.9,0.3
				c-1.5,0.7-2.4,1.4-2.4,1.4l-0.3,2.1c0,1.1,0,2.1-0.1,3.1c-0.2,6.7-0.4,10.9-0.7,12.5c-0.2,1.3-0.4,2.2-0.4,2.5l-0.1,0.6
				c-0.2,1.3-0.8,2.3-1.9,3.1c-1.1,0.8-1.2,1.1-2.6,1c-1.4-0.2-2.5-0.8-3.4-1.9c-0.9-1.1-1.3-2.3-1.1-3.6l0.1-0.6
				c0.1-0.4,0.2-1.3,0.4-2.8c0.2-1.2,0.4-4.9,0.6-11.3c0.2-6.6,0.7-14.1,1.4-22.4c0.7-8.3,1.3-14.7,1.8-19.2l0.7-6.7
				c0.2-1.3,0.8-2.4,1.9-3.2c1.1-0.8,2.4-1.2,3.8-1c1.4,0.2,1.3,0.8,2.2,1.8C236.9,36.8,237.3,38,237.1,39.3z"/>
			<path class="st7" d="M467.8,58.3c1.4,0.3,3.4,0.5,6,1.4l3.6,1.4c3.4,1.2,4.7,2.6,6.5,4.1c1.6,1.2,3.1,2.7,4.4,4.7
				c1.2,1.8,2.2,3.6,2.7,5.3c0.5,1.5,0.8,3.2,1.1,5.2c0.4,2,0.5,4.4,0.3,7.2c-0.2,2.7-0.6,5.2-1.3,7.4c-0.6,2.4-1.8,4.7-3.4,7
				c-1.6,2.4-3.9,4.4-6.8,6.1c-3.1,1.9-6.6,2.9-10.6,3c-3.7,0.1-7.2-0.4-10.5-1.5c-1.3-0.5-2.5-1-3.6-1.6c-3.1-1.7-5.6-3.6-7.6-5.8
				c-1.8-2-3.1-4.9-4.1-8.6c-0.9-3.5-0.9-7.8,0-13c0.9-5.3,3.1-9.8,6.7-13.4c3.7-3.7,5.7-6.2,8.7-7c0,0,2.9-1.4,4.4-1.8
				C465.6,58.2,466.3,58.1,467.8,58.3z M472.9,67.5c-2.9-0.6-4.8-1.5-7.8-0.5s-4.1,2.5-6.8,4.8c-2.7,2.3-5.3,7.2-5.5,10.7
				s-0.7,7.9,0,10.6c0.6,2.4,2,4.1,3.8,5.6c1.8,1.5,3.7,2.3,5.9,3.1c2.2,0.8,5.8,1.9,6.2,1.9c1.8-0.1,5.1-0.2,7.3-1.4
				s3.7-2.7,4.9-4.5c1.3-1.8,2.2-3.7,2.7-5.6c0.6-1.9,0.9-4,1.1-6.3c0.1-2.3,0-4.2-0.2-5.8c-0.3-1.6-0.6-3-1-4.2
				c-0.3-1-1.6-3.4-2.8-4.6S475.8,68.1,472.9,67.5z"/>
			<path class="st6" d="M171.8,94.8c-0.1-1.2-0.6-2.2-1.6-2.9c-1-0.7-2-1-3.2-0.9c-1.2,0.1-2.2,0.7-2.9,1.6l-0.2,0.3
				c-0.5,0.3-1.3,0.6-2.4,1.1c-0.8,0.3-1.5,0.6-2,0.7c-0.3-0.3-0.7-0.7-1.2-1.2c-0.7-0.8-1.3-2.1-1.7-3.7c-0.5-2-0.8-4.6-1-7.8
				c-0.1-1.7-0.2-3.7-0.3-6c0.5,0,1,0,1.5,0.1c3.4,0.2,5.8,0.3,7.1,0.3h1.9c1.2,0,2.2-0.4,3.1-1.3c0.9-0.9,1.3-1.9,1.3-3.1
				c0-1.2-0.4-2.2-1.3-3.1c-0.9-0.9-1.9-1.3-3.1-1.3h-1.9c-1.1,0-3.3-0.1-6.5-0.3c-1.1-0.1-1.9-0.1-2.2-0.2c0-5.1,0-9,0-11.7
				c0-3.6,0-6.6,0-8.9c0-1.8,0-3.3,0-4.5v-1.3c0-1.2-0.4-2.2-1.3-3.1c-0.9-0.9-1.9-1.3-3.1-1.3c-1.2,0-2.2,0.4-3.1,1.3
				c-0.9,0.9-1.3,1.9-1.3,3.1V42c0,1.2,0,2.7,0,4.5c0,2.3,0,5.3,0,8.9c0,2.5,0,6.3,0,11.4l-7.1-0.2c-2.2-0.1-4.1,1.7-4.1,4
				c0,2.3,1.8,4.3,4.1,4.3l7.2,0.2c0.1,2.8,0.2,5.2,0.3,7.4c0.2,3.7,0.6,6.8,1.3,9.3c0.7,2.9,1.9,5.3,3.5,7.2c1.7,2,3.5,3.3,5.4,4
				c2.1,0.7,4.8,0.3,8-1c0.2-0.1,0.7-0.3,1.5-0.6c0.8-0.3,1.3-0.5,1.6-0.7c0.3-0.1,0.7-0.4,1.1-0.8c0.5-0.4,0.9-0.8,1.4-1.3l0.4-0.6
				C171.6,97.1,171.9,96,171.8,94.8z"/>
			<g>
				<path class="st7" d="M439.6,93.1c-3.7,15.5-11.1,25.7-29.1,24.5c-15.6-1.1-22.4-7.2-28.3-22.3c-5.9-15.3-3.2-30.1,2.9-44.2
					c4.8-11.1,14.1-19.5,30.6-21.8c11.7-1.7,21.6,2.8,26.4,11.3c2.4,5.6,2.1,12.6,1.1,14.7c-1.6,3.4-5.2,3.5-6.9,1.3
					c-2-2.7-0.4-6.4-0.6-8.2c-0.6-4.3-3.5-8.6-7.7-9.7c-9.2-2.5-18.2-1.2-24.3,3.5c-9.5,7.2-12.8,16-14.7,26.4
					c-2,11,0.2,17.5,2.5,25.6c1.4,5,5.8,12.2,13.9,13.6c8.3,1.5,14.5,2,19.6-2.7c2.3-2.3,3.9-5.3,4.5-8.7c0.3-1.9,2.2-7.5,0.8-8.9
					c-1.6-1.5-5.5-2-7.9-2c-0.7,0-1.4,0-2,0.1c-4.7,0.9-11,1.9-12.3-2.6c-1.3-4.6,1.5-5.4,6-5.8c6.5,0.2,9.8,1,15.5,0.6
					C438.6,77.1,441.5,85.4,439.6,93.1z"/>
			</g>
			<path class="st8" d="M292.3,68.5c-3.9-5.4-8.2-10.4-11.8-16c-1-1.5-4.3-5.7-5.8-8c-1.3,16.2-3.8,33.5-4.1,48.8
				c-0.1,5-1.7,8.3-1.8,13.3c0,3.2-1.2,5.9-4.6,6.1c-3.3,0.2-4.3-2.4-4.9-5.3c1-7.3,1.7-14.2,2.6-20.6c2.4-17.5,3.2-29.9,4.2-46.5
				c0.1-2,0.1-4,0.5-6c0.4-2.4,0-5.4,3.1-6.2c3.3-0.9,4.9,2.2,6.5,4.3c3.6,5,8.8,11.7,12.1,16.9c2.8,4.5,6.7,6.8,9.8,11.7
				c4.4-7.3,8.7-14.1,12.6-21c1.5-2.7,4.2-5,5.4-7.2c3.5-3.3,7.2-2.4,8.2,2.3c0.9,4.4,2.3,25.6,2.8,30.2c1.6,14.3,2.3,22.9,5.4,44.5
				c0.4,2.9-0.9,5.6-4.2,5.7c-3.7,0.1-4.3-2.7-4.7-5.8c-1.6-12.9-2.1-18.1-3.4-33c-0.6-6.7-2.5-23.7-3.1-30.6
				c-4.5,7.6-9.6,13.4-13,20.9C300.8,74.1,296.8,74.7,292.3,68.5z"/>
			<path class="st8" d="M344.2,79.7c-0.1,4.3,1.3,7.2,1.6,9.3c0.3,2.2,2.2,7.1,4.6,8.8c2.3,1.7,7.1,2.4,8.8,1.7
				c1.7-0.7,3.7-2,4.3-3.2s1.2-2.7,1.3-4.3c0.1-1.7,1.7-3.5,2.5-3.8c0.9-0.4,1.6-0.4,3.2-0.3s3,0.5,4,1.3c1,0.8,0.8,2.8,0.3,4.2
				s-1,3.5-2.1,5.3c-1.3,2.1-3.9,4.3-5.8,5.8c-1.9,1.5-6.8,3.2-11.1,3.5c-5,0.4-12.1-3-13.9-5.1c-1.8-2.1-3.6-4.8-5.1-10.6
				c-1.5-5.6-2.1-11.3-2.4-16.4c-0.3-5.2,0.4-10.4,2-13.8c2.2-4.3,5.9-7.3,11.1-9c3.7-1.3,7-1.7,10.1-1.3c1.7,0.2,3.2,0.7,4.5,1.4
				c2.3,1.3,4.2,3,5.7,5c1.2,1.8,2.1,3.6,2.9,5.4c0.8,2,1,5.7,0.9,7c0,1-0.5,2.1-1.5,3.2c-1,1.1-2.3,2.2-4.2,2.8
				c-1.6,0.5-3.5,1.3-7.2,1.9c-3.5,0.6-8,1-9.6,1.4C347.5,80,344.4,79.7,344.2,79.7z M343.8,72.1c0.3,0,3.1,0.1,5.4-0.4
				c2.5-0.5,4.2-0.7,7.1-1.2c0.9-0.2,2.9-0.5,3.9-1c2.5-1.2,2.5-2.5,2-4.4c-0.4-1.6-1.4-4.1-2.9-5.2c-1.1-0.8-3.4-1.2-4.6-1.2
				c-1.2,0-2.7,0.3-3,0.4c-1.5,0.5-4.4,0.9-5.9,3.3S343.4,67.7,343.8,72.1z"/>
		</g>
		<g>
			<path class="st9" d="M495.3,109.5h-2.7V108h7.3v1.5h-2.7v8.2h-1.9V109.5z"/>
			<path class="st9" d="M501,108h2.6l2.5,6.5l2.4-6.5h2.5v9.7H509v-7.2l-2.8,7.2h-0.6l-2.9-7.2v7.2H501V108z"/>
		</g>
	</g>
</g>
</svg>
