<svg id="Layer_1" data-name="Layer 1" xmlns="http://www.w3.org/2000/svg" viewBox="0 0 32 32">
  <defs>
    <style>
      .cls-1 {
        fill: none;
      }
	  .a {
        fill: #fff;
      }
    </style>
  </defs>
  <g id="Water_Meter" data-name="Water Meter">
    <path class="a" d="M29,11.48H26.26a1.07,1.07,0,0,0-1.07,1.08v1H23.26a7.65,7.65,0,0,0-14.52,0H6.82v-1a1.09,1.09,0,0,0-1.08-1.08H3a1.08,1.08,0,0,0-1.08,1.08v6.88A1.08,1.08,0,0,0,3,20.52H5.74a1.09,1.09,0,0,0,1.08-1.08V18.9h2.1a7.65,7.65,0,0,0,14.16,0h2.11v.54a1.07,1.07,0,0,0,1.07,1.08H29a1.08,1.08,0,0,0,1.08-1.08V12.56A1.08,1.08,0,0,0,29,11.48Zm-24.22,7H3.88v-5h.94Zm2-1.62V15.57H8.36c0,.14,0,.28,0,.43a8.68,8.68,0,0,0,.06.9ZM16,21.66A5.66,5.66,0,1,1,21.66,16,5.67,5.67,0,0,1,16,21.66Zm7.6-4.76a8.68,8.68,0,0,0,.06-.9c0-.15,0-.29,0-.43h1.55V16.9Zm4.52,1.62h-.93v-5h.93Z" />
    <path class="a" d="M18.55,13.57h-5.1a1,1,0,0,0,0,2h5.1a1,1,0,1,0,0-2Z" />
    <circle class="a" cx="16" cy="18.67" r="1.33" />
    <rect id="Rectangle_14811" data-name="Rectangle 14811" class="cls-1" width="32" height="32" />
  </g>
</svg>