<svg xmlns="http://www.w3.org/2000/svg" width="20" height="20" viewBox="0 0 20 20"><defs><style>.a{fill:none;}.b{fill:#fff;}</style></defs><g transform="translate(-1528.045 -13518)"><rect class="a" width="20" height="20" transform="translate(1528.045 13518)"/><g transform="translate(1529.369 13519.688)"><path class="b" d="M1543.365,13527.23a7.636,7.636,0,1,1-7.636,7.636,7.644,7.644,0,0,1,7.636-7.636m0-1.273a8.909,8.909,0,1,0,8.909,8.909,8.909,8.909,0,0,0-8.909-8.909Z" transform="translate(-1534.456 -13525.957)"/><g transform="translate(4.462)"><path class="b" d="M1559.942,13527.23c.662,0,1.412.712,2.009,1.905a14.625,14.625,0,0,1,0,11.461c-.6,1.193-1.347,1.906-2.009,1.906s-1.413-.713-2.009-1.906a14.622,14.622,0,0,1,0-11.461c.6-1.193,1.347-1.905,2.009-1.905m0-1.273c-2.458,0-4.451,3.988-4.451,8.909s1.993,8.909,4.451,8.909,4.451-3.989,4.451-8.909-1.993-8.909-4.451-8.909Z" transform="translate(-1555.491 -13525.957)"/></g><rect class="b" width="16.122" height="1.273" transform="translate(0.841 5.584)"/><rect class="b" width="16.326" height="1.273" transform="translate(0.739 10.961)"/></g></g></svg>