<svg xmlns="http://www.w3.org/2000/svg" width="32" height="32" viewBox="0 0 32 32">
  <defs>
    <style>
      .a {
        fill: #ffff;
      }

      .stroke-black {
        fill: #ffff;
      }

      .b {
        fill: none;
      }
    </style>
  </defs>
  <g transform="translate(-760 -13903)">
    <rect class="b" width="32" height="32" transform="translate(760 13903)" />
    <g transform="translate(767.08 13905.291)">
      <path class="stroke-black"
        d="M796.6,13937.874H783.721a2.485,2.485,0,0,1-2.482-2.482V13915.6a2.485,2.485,0,0,1,2.482-2.481h1.968v-1.225a2.026,2.026,0,0,1,2.024-2.024h4.893a2.026,2.026,0,0,1,2.024,2.024v1.225H796.6a2.485,2.485,0,0,1,2.482,2.481v19.787A2.485,2.485,0,0,1,796.6,13937.874Zm-12.877-22.751a.482.482,0,0,0-.482.481v19.787a.483.483,0,0,0,.482.482H796.6a.483.483,0,0,0,.482-.482V13915.6a.482.482,0,0,0-.482-.481H793.63a1,1,0,0,1-1-1v-2.225a.024.024,0,0,0-.024-.024h-4.893a.024.024,0,0,0-.024.024v2.225a1,1,0,0,1-1,1Z"
        transform="translate(-781.239 -13909.874)" />
      <rect class="stroke-black" width="9.254" height="5.251" rx="2.625" transform="translate(4.293 18.749)" />
    </g>
  </g>
</svg>
