<svg width="25" height="30" viewBox="0 0 25 30" fill="none" xmlns="http://www.w3.org/2000/svg">
  <style>
    .purple-svg-active {
      fill: #034ea2;
    }

    .b {
      fill: none;
    }
  </style>
  <path class="purple-svg-active"
    d="M11.1559 0C10.8013 0 10.5712 0.221954 10.4197 0.421806C10.2682 0.621423 10.1595 0.848548 10.0694 1.09263C10.0285 1.20314 9.9938 1.31576 9.96431 1.42839H7.3415C5.86318 1.42839 4.65708 2.61999 4.65708 4.08172V7.1691H0.492458C0.220906 7.17004 0.00118704 7.38752 0 7.6558V29.5135C0.00118899 29.7818 0.220668 29.9991 0.49222 30H15.9122C16.1849 30.0012 16.407 29.7832 16.4082 29.5135V27.7426H22.3166C23.7949 27.7426 25 26.5501 25 25.0883V4.08286C25 2.62088 23.7949 1.42952 22.3166 1.42952H19.693C19.6635 1.3169 19.6298 1.20428 19.5889 1.09377C19.4985 0.849951 19.3901 0.622826 19.2386 0.422944C19.0871 0.223327 18.856 0.00113795 18.5015 0.00113795L11.1559 0ZM11.2332 0.976899H18.4248C18.4296 0.981131 18.43 0.980426 18.4498 1.00652C18.5087 1.08435 18.5896 1.24259 18.6583 1.42833C18.7958 1.79959 18.888 2.29544 18.888 2.56371C18.888 2.64953 18.8818 2.71043 18.8735 2.74781C18.8676 2.77438 18.864 2.80165 18.8628 2.82893V2.83269C18.8602 2.90017 18.8716 2.96742 18.8966 3.03019C18.8973 3.0316 18.898 3.03278 18.8985 3.03395C18.9035 3.04595 18.9089 3.0577 18.9149 3.06922C18.9156 3.07087 18.9163 3.07251 18.9168 3.07416C18.9349 3.10872 18.9567 3.14117 18.9824 3.17056C18.9836 3.1715 18.9846 3.17244 18.9855 3.17338C19.0029 3.1929 19.0219 3.21124 19.0423 3.2277C19.0433 3.2284 19.0445 3.22911 19.0454 3.22958C19.0656 3.24627 19.0873 3.26132 19.1101 3.27448C19.1113 3.27519 19.1127 3.2759 19.1139 3.27637C19.1367 3.28906 19.1608 3.29988 19.1852 3.30881H19.1862C19.1931 3.31116 19.1998 3.31351 19.2066 3.31563C19.2126 3.31751 19.2188 3.31939 19.225 3.32127C19.2266 3.32151 19.2281 3.32198 19.2297 3.32221C19.2416 3.32551 19.2535 3.32833 19.2654 3.33091C19.267 3.33115 19.2687 3.33138 19.2704 3.33185C19.2825 3.33373 19.2949 3.33538 19.307 3.33656C19.3182 3.3375 19.3296 3.3382 19.3408 3.33844C19.3434 3.33891 19.346 3.33914 19.3486 3.33938H19.3524H19.3555H19.866C20.2477 3.33938 20.5773 3.66902 20.5773 4.13998C20.5773 4.61094 20.2477 4.94058 19.866 4.94058H9.79263C9.41122 4.94058 9.08138 4.61094 9.08138 4.13998C9.08138 4.0812 9.08614 4.0243 9.09589 3.97022C9.15438 3.64576 9.37933 3.41439 9.65255 3.35489C9.69773 3.34501 9.74504 3.33961 9.79237 3.33961H10.3029C10.3167 3.33961 10.3305 3.33867 10.3443 3.33749C10.4558 3.32785 10.5604 3.28106 10.6415 3.20488C10.6515 3.19571 10.6612 3.18631 10.6705 3.1762C10.6891 3.15574 10.7057 3.13388 10.7207 3.11036C10.7935 2.9961 10.8153 2.8569 10.7804 2.72594C10.777 2.71371 10.7699 2.6634 10.7699 2.56371C10.7699 2.29544 10.8622 1.79958 10.9996 1.42833C11.0683 1.24258 11.148 1.08435 11.207 1.00652C11.2269 0.980186 11.2284 0.981131 11.2332 0.976899ZM7.3415 2.40523H9.42764C8.76181 2.5583 8.25394 3.11903 8.12598 3.80304C8.10482 3.91214 8.09316 4.02453 8.09316 4.13974C8.09316 4.37863 8.13953 4.60881 8.22442 4.81996V4.8209C8.26675 4.92623 8.31859 5.0271 8.37875 5.12138V5.12232C8.68097 5.59656 9.1958 5.91703 9.79242 5.91703H19.8658C20.4624 5.91703 20.9773 5.59632 21.2795 5.12232V5.12138C21.3397 5.0271 21.3915 4.92623 21.4338 4.8209V4.81996C21.5185 4.60882 21.5651 4.37864 21.5651 4.13974C21.5651 4.02571 21.5534 3.91379 21.5332 3.80493C21.533 3.80422 21.5323 3.80305 21.5323 3.80305C21.4043 3.1191 20.8955 2.5583 20.2297 2.40523H22.3168C23.2646 2.40523 24.0122 3.1442 24.0122 4.08167V25.0871C24.0122 26.0245 23.2646 26.7645 22.3168 26.7645H16.4084V12.6527C16.4086 12.4928 16.3297 12.3426 16.197 12.2511L10.4449 7.28672C10.3624 7.21619 10.2587 7.17457 10.1498 7.16846H10.1458C10.1289 7.16752 10.1118 7.16752 10.0946 7.16846H5.64537V4.08109C5.64537 3.14367 6.39394 2.40465 7.34174 2.40465L7.3415 2.40523ZM0.988275 8.14618H9.62445V12.6182C9.62564 12.8865 9.84536 13.1037 10.1167 13.1049L15.4201 13.1383V29.0221H0.988695L0.988275 8.14618ZM10.6124 8.73022L14.5823 12.1545L10.6124 12.1308V8.73022ZM20.0333 9.13768C19.0659 9.13768 18.262 9.88586 18.2144 10.8266C18.209 10.855 18.2063 10.8835 18.2061 10.9124V20.0434C18.2061 20.057 18.2066 20.0706 18.208 20.0843C18.2158 20.1809 18.2522 20.2728 18.3131 20.3486L19.6179 22.38C19.7087 22.5201 19.8654 22.6048 20.0338 22.6048C20.2019 22.6048 20.3586 22.5201 20.4497 22.38L21.7841 20.3067C21.7913 20.2952 21.7982 20.2834 21.8043 20.2715V20.2705C21.8074 20.2649 21.8103 20.259 21.8131 20.2533C21.8165 20.2468 21.8196 20.2399 21.8227 20.2334C21.8331 20.2082 21.8417 20.1823 21.8479 20.156V20.1551C21.851 20.1421 21.8536 20.129 21.8555 20.1158V20.1149C21.8574 20.1017 21.8586 20.0883 21.8593 20.0749V20.0739C21.86 20.0636 21.8605 20.0535 21.8605 20.0434V10.9124C21.8602 10.879 21.8567 10.8459 21.8498 10.8132C21.7951 9.87903 20.9963 9.13772 20.0338 9.13772L20.0333 9.13768ZM20.0333 10.1155C20.3127 10.1155 20.5486 10.2373 20.6991 10.4257H19.3665C19.517 10.2373 19.7539 10.1155 20.0333 10.1155ZM3.30027 10.5736C3.16853 10.5731 3.0425 10.6246 2.94929 10.7168C2.85608 10.8087 2.804 10.9338 2.80448 11.064C2.80519 11.1936 2.85774 11.3177 2.95072 11.4089C3.04369 11.5002 3.16948 11.5512 3.3005 11.5507H7.85606C7.98708 11.5512 8.11287 11.5002 8.20608 11.4089C8.29906 11.3177 8.35161 11.1936 8.35208 11.064C8.35256 10.9338 8.30048 10.8087 8.20727 10.7168C8.1143 10.6246 7.98779 10.5731 7.85606 10.5736H3.30027ZM19.1944 11.4026H20.8725V12.4895H19.1944V11.4026ZM19.1944 12.7583H20.8725V18.1968H19.1944V12.7583ZM3.30027 15.488C3.16925 15.4876 3.04369 15.5388 2.95072 15.63C2.85774 15.7213 2.80519 15.8452 2.80448 15.9747C2.804 16.105 2.85608 16.2301 2.94929 16.3222C3.0425 16.4142 3.16877 16.4657 3.3005 16.4652H12.7646C12.8956 16.4647 13.0211 16.4128 13.1134 16.3208C13.2057 16.2289 13.2573 16.1043 13.2568 15.9747C13.2556 15.7065 13.0359 15.4892 12.7646 15.4883L3.30027 15.488ZM19.1944 18.4656H20.8725V19.5554H19.1944V18.4656ZM3.50541 20.4037L3.50589 20.4039C3.23457 20.4049 3.01485 20.6221 3.01366 20.8904C3.01485 21.1587 3.23457 21.3759 3.50589 21.3771H12.9699C13.101 21.3776 13.2268 21.3266 13.3197 21.2353C13.4127 21.1441 13.4653 21.02 13.4657 20.8904C13.4653 20.7609 13.4127 20.6367 13.3197 20.5455C13.2268 20.4542 13.101 20.4032 12.9699 20.4039L3.50541 20.4037ZM19.6005 20.5335H20.466L20.0337 21.2071L19.6005 20.5335ZM3.50541 25.3147H3.50589C3.37487 25.3152 3.24931 25.3671 3.15705 25.4591C3.06479 25.5512 3.01318 25.6756 3.01366 25.8052C3.01414 26.0739 3.23409 26.2916 3.50588 26.2928H12.9699C13.101 26.2933 13.227 26.242 13.3202 26.1506C13.4132 26.0591 13.4655 25.9349 13.4657 25.8052C13.4664 25.6749 13.4144 25.5498 13.3212 25.4579C13.2279 25.3657 13.1014 25.3142 12.9699 25.3147H3.50541Z"
    fill="white" />
</svg>
