<svg width="27" height="29" viewBox="0 0 27 29" fill="none" xmlns="http://www.w3.org/2000/svg">
<path d="M10.4214 21.3942H9.27818L8.8241 20.2122H6.74448L6.31581 21.3942H5.20166L7.22799 16.1924H8.33873L10.422 21.3942H10.4214ZM8.48707 19.3366L7.77003 17.406L7.06754 19.3366H8.48707ZM10.9637 21.3942V16.1924H12.5356L13.479 19.7411L14.4117 16.1924H15.9873V21.3942H15.0123V17.2994L13.9793 21.3942H12.968L11.9385 17.2994V21.3942H10.9634H10.9637ZM17.034 21.3942V16.1924H19.2456C19.8015 16.1924 20.2048 16.2398 20.4566 16.333C20.7084 16.4262 20.9107 16.5922 21.0621 16.8307C21.2136 17.0705 21.2886 17.3431 21.2886 17.6506C21.2886 18.0406 21.1736 18.364 20.9448 18.6183C20.7159 18.8713 20.3717 19.0324 19.9152 19.0977C20.1429 19.2309 20.3306 19.3762 20.4783 19.5351C20.6261 19.6937 20.8246 19.9746 21.0755 20.3792L21.7114 21.3942H20.4554L19.6959 20.2618C19.4258 19.8573 19.2418 19.603 19.1424 19.4977C19.043 19.3924 18.9377 19.3208 18.8265 19.2809C18.715 19.2421 18.5393 19.2226 18.2971 19.2226H18.0853V21.3942L17.034 21.3942ZM18.0853 18.3919H18.8615C19.3654 18.3919 19.6801 18.3715 19.8062 18.329C19.931 18.2866 20.0289 18.2129 20.1004 18.1085C20.1707 18.0044 20.207 17.8746 20.207 17.7185C20.207 17.5429 20.1599 17.4023 20.0664 17.2945C19.9731 17.1867 19.8412 17.1189 19.6702 17.0898C19.5853 17.0789 19.3298 17.0727 18.9036 17.0727H18.085V18.3916L18.0853 18.3919Z" fill="white"/>
<path d="M3.58678 13.3502C3.58678 13.5766 3.77045 13.76 3.99656 13.76C4.22298 13.76 4.40635 13.5763 4.40635 13.3502V1.82016H18.76L22.5078 5.56803V13.3502C22.5078 13.5767 22.6915 13.76 22.9176 13.76C23.1441 13.76 23.3274 13.5764 23.3274 13.3502V5.39794C23.3274 5.29294 23.2875 5.18825 23.2072 5.10803L19.2209 1.12173C19.1466 1.04646 19.0435 1 18.9295 1H3.99621C3.76979 1 3.58643 1.18367 3.58643 1.40979V13.3497L3.58678 13.3502ZM23.3276 24.2347C23.3276 24.0083 23.1439 23.8249 22.9178 23.8249C22.6914 23.8249 22.508 24.0086 22.508 24.2347V27.6431H4.40619V24.2347C4.40619 24.0083 4.22252 23.8249 3.9964 23.8249C3.76998 23.8249 3.58662 24.0086 3.58662 24.2347V28.0528C3.58662 28.2793 3.77029 28.4626 3.9964 28.4626H22.9173C23.1437 28.4626 23.3271 28.279 23.3271 28.0528V24.2347H23.3276Z" fill="white" stroke="white" stroke-width="0.5"/>
<path d="M19.3396 1.41076C19.3396 1.18434 19.1559 1.00098 18.9298 1.00098C18.7034 1.00098 18.52 1.18465 18.52 1.41076V3.40483C18.52 4.06643 18.7904 4.66733 19.2259 5.10281C19.6614 5.5383 20.2626 5.8087 20.9239 5.8087H22.918C23.1444 5.8087 23.3277 5.62502 23.3277 5.39891C23.3277 5.17249 23.1441 4.98912 22.918 4.98912H20.9239C20.4887 4.98912 20.0929 4.81072 19.8055 4.52359C19.5183 4.23615 19.3399 3.8403 19.3399 3.40516V1.4111L19.3396 1.41076Z" fill="white" stroke="white" stroke-width="0.5"/>
<path d="M1.73331 23.8247H25.1803V13.76H1.73331V23.8247ZM25.5902 24.6446H1.32336C1.09694 24.6446 0.913574 24.4609 0.913574 24.2348V13.3502C0.913574 13.1238 1.09725 12.9404 1.32336 12.9404H25.5902C25.8166 12.9404 26 13.1241 26 13.3502V24.2348C26 24.4612 25.8163 24.6446 25.5902 24.6446Z" fill="white" stroke="white" stroke-width="0.5"/>
<path d="M7.23938 4.77246C7.01296 4.77246 6.82959 4.95614 6.82959 5.18225C6.82959 5.40867 7.01326 5.59203 7.23938 5.59203H16.071C16.2975 5.59203 16.4808 5.40836 16.4808 5.18225C16.4808 4.95583 16.2972 4.77246 16.071 4.77246H7.23938Z" fill="white" stroke="white" stroke-width="0.5"/>
<path d="M7.23938 8.36719C7.01296 8.36719 6.82959 8.55086 6.82959 8.77697C6.82959 9.0034 7.01326 9.18676 7.23938 9.18676H19.6741C19.9005 9.18676 20.0839 9.00309 20.0839 8.77697C20.0839 8.55055 19.9002 8.36719 19.6741 8.36719H7.23938Z" fill="white" stroke="white" stroke-width="0.5"/>
</svg>
