<svg width="28" height="30" viewBox="0 0 28 30" fill="none" xmlns="http://www.w3.org/2000/svg">
<path d="M4.14175 1.14267C2.41006 1.14267 1 2.54504 1 4.26746V28.6608V28.6606C1.00022 28.8181 1.0777 28.9655 1.20734 29.0556C1.33699 29.1459 1.50278 29.1673 1.65147 29.1132L6.12082 27.4847L10.5911 29.1132C10.6986 29.1524 10.8168 29.1524 10.9244 29.1132L15.3937 27.4847L19.864 29.1132C20.0127 29.1673 20.1785 29.1459 20.3081 29.0556C20.4377 28.9655 20.5152 28.8181 20.5154 28.6606V11.6548H26.5171C26.7849 11.654 27.0011 11.4369 27 11.1703V4.84538C27 2.82321 25.3655 1.17858 23.3403 1.14366V1.14344C23.3362 1.14301 23.3321 1.14279 23.328 1.14258L4.14175 1.14267ZM4.14175 2.10818H20.7644C20.0158 2.78553 19.5448 3.76142 19.5448 4.84545V27.9693L15.5622 26.5154C15.4546 26.4761 15.3365 26.4761 15.2289 26.5154L10.7595 28.1475L6.28907 26.5154C6.18172 26.4763 6.0642 26.4763 5.95684 26.5154L1.96947 27.9693V4.26669C1.96947 3.06366 2.92913 2.10741 4.1416 2.10741L4.14175 2.10818ZM23.2749 2.10818C24.8112 2.10818 26.0303 3.3207 26.0303 4.84545V10.6893H20.5156V4.84545C20.5156 3.32065 21.7387 2.10818 23.2749 2.10818V2.10818ZM5.57347 8.32665C5.44491 8.32601 5.32132 8.37644 5.22999 8.46674C5.13887 8.55682 5.08714 8.67946 5.08671 8.80747C5.08628 8.93613 5.13736 9.05963 5.22869 9.15079C5.32002 9.24174 5.44426 9.2926 5.57347 9.29217H15.9446C16.0731 9.29153 16.1963 9.24023 16.287 9.14929C16.3774 9.05856 16.4281 8.93549 16.4274 8.80748C16.4266 8.54239 16.211 8.32774 15.9446 8.32666L5.57347 8.32665ZM5.57347 13.3947V13.3945C5.44426 13.3941 5.32002 13.4449 5.22869 13.5359C5.13735 13.627 5.08627 13.7505 5.0867 13.8792C5.08714 14.0072 5.13887 14.1299 5.22998 14.2199C5.32132 14.3102 5.4449 14.3607 5.57346 14.36H15.9446C16.211 14.3592 16.4266 14.1443 16.4274 13.8792C16.4281 13.7512 16.3774 13.6281 16.287 13.5374C16.1963 13.4465 16.0731 13.3952 15.9446 13.3945L5.57347 13.3947ZM5.57347 18.4617C5.44426 18.4611 5.32002 18.512 5.22869 18.6031C5.13735 18.6941 5.08627 18.8176 5.0867 18.9462C5.08714 19.0742 5.13887 19.1969 5.22998 19.2872C5.32132 19.3773 5.4449 19.4277 5.57346 19.4273H15.9446C16.211 19.4262 16.4266 19.2115 16.4274 18.9462C16.4281 18.8182 16.3774 18.6954 16.287 18.6044C16.1963 18.5135 16.0731 18.4622 15.9446 18.4618L5.57347 18.4617Z" fill="white" stroke="white" stroke-width="0.5"/>
</svg>
