<svg width="27" height="28" viewBox="0 0 27 28" fill="none" xmlns="http://www.w3.org/2000/svg">
<path d="M4.36606 16.3291H5.53928C5.86833 16.3291 6.13483 16.6581 6.13483 16.9246V17.2225C6.13483 17.5516 5.86811 17.8181 5.53928 17.8181H4.36606C4.03701 17.8181 3.77051 17.489 3.77051 17.2225V16.9246C3.77051 16.5956 4.03723 16.3291 4.36606 16.3291Z" fill="white"/>
<path d="M4.36606 19.7158H5.53928C5.86833 19.7158 6.13483 20.0449 6.13483 20.3114V20.6093C6.13483 20.9383 5.86811 21.2048 5.53928 21.2048H4.36606C4.03701 21.2048 3.77051 20.8758 3.77051 20.6093V20.3114C3.77051 19.9823 4.03723 19.7158 4.36606 19.7158Z" fill="white"/>
<path d="M9.00815 12.9434H10.1814C10.5104 12.9434 10.7769 13.2724 10.7769 13.5389V13.8368C10.7769 14.1658 10.5102 14.4323 10.1814 14.4323H9.00815C8.6791 14.4323 8.4126 14.1033 8.4126 13.8368V13.5389C8.4126 13.2099 8.67932 12.9434 9.00815 12.9434Z" fill="white"/>
<path d="M9.00815 16.3291H10.1814C10.5104 16.3291 10.7769 16.6581 10.7769 16.9246V17.2225C10.7769 17.5516 10.5102 17.8181 10.1814 17.8181H9.00815C8.6791 17.8181 8.4126 17.489 8.4126 17.2225V16.9246C8.4126 16.5956 8.67932 16.3291 9.00815 16.3291Z" fill="white"/>
<path d="M9.00815 19.7158H10.1814C10.5104 19.7158 10.7769 20.0449 10.7769 20.3114V20.6093C10.7769 20.9383 10.5102 21.2048 10.1814 21.2048H9.00815C8.6791 21.2048 8.4126 20.8758 8.4126 20.6093V20.3114C8.4126 19.9823 8.67932 19.7158 9.00815 19.7158Z" fill="white"/>
<path d="M23.8238 14.6471V5.64453C23.8246 4.97379 23.5585 4.33001 23.0841 3.85576C22.6098 3.38151 21.9662 3.11541 21.2955 3.11604H19.2824V1.51696C19.2824 1.10586 18.949 0.772461 18.5379 0.772461C18.1266 0.772461 17.7934 1.10586 17.7934 1.51696V3.12211L6.0335 3.15493V1.51697C6.0335 1.10587 5.70009 0.772471 5.289 0.772471C4.87769 0.772471 4.5445 1.10587 4.5445 1.51697V3.15493H2.53142C1.86232 3.15721 1.22104 3.42352 0.747221 3.89571C0.273181 4.36808 0.00479382 5.00831 7.74313e-06 5.67719V22.0562C-0.00165409 22.7288 0.264242 23.3747 0.739085 23.8512C1.21395 24.3275 1.85855 24.5957 2.53136 24.5966H13.8717C15.0911 26.3006 16.998 27.3822 19.0864 27.5544C21.1745 27.7264 23.2329 26.9717 24.7148 25.4902C26.1965 24.0089 26.952 21.9507 26.7805 19.8623C26.6091 17.774 25.5278 15.8669 23.8243 14.6469L23.8238 14.6471ZM1.48874 5.6775C1.49269 5.40309 1.60404 5.14135 1.79888 4.94794C1.99373 4.75476 2.25672 4.6457 2.53115 4.64424H4.54423V6.24646C4.54423 6.65756 4.87743 6.99096 5.28873 6.99096C5.69983 6.99096 6.03323 6.65756 6.03323 6.24646V4.64424L17.7932 4.62638V6.24647C17.7932 6.65756 18.1264 6.99097 18.5377 6.99097C18.9488 6.99097 19.2822 6.65756 19.2822 6.24647V4.60851H21.2922C21.5682 4.60685 21.8333 4.71528 22.0289 4.90993C22.2244 5.10436 22.3345 5.36901 22.3345 5.64486V9.55785H1.48848L1.48874 5.6775ZM19.6546 26.0859C18.2736 26.0844 16.9412 25.5763 15.9098 24.6581C14.8786 23.7397 14.22 22.4751 14.0587 21.1037C14.0112 20.6924 13.6391 20.3978 13.228 20.4456C12.8167 20.4932 12.5222 20.8652 12.5697 21.2763C12.6466 21.9057 12.8078 22.5216 13.0492 23.1078H2.53097C2.25448 23.1078 1.9894 22.9979 1.79397 22.8024C1.59849 22.607 1.48861 22.3419 1.48861 22.0654V11.0468H22.3346V13.8223C21.0461 13.3036 19.6344 13.1715 18.2719 13.4423C16.9096 13.713 15.6556 14.375 14.6632 15.347V13.5782C14.6632 13.1669 14.33 12.8337 13.9187 12.8337C13.5076 12.8337 13.1742 13.1669 13.1742 13.5782V17.6461C13.1728 17.6658 13.1728 17.6858 13.1742 17.7055C13.1728 17.7234 13.1728 17.7415 13.1742 17.7593C13.1805 17.7975 13.1894 17.8354 13.201 17.8723C13.3041 18.1729 13.5864 18.375 13.904 18.3757H17.9928C18.4041 18.3757 18.7373 18.0423 18.7373 17.6312C18.7373 17.2201 18.4041 16.8867 17.9928 16.8867H15.2648C16.4832 15.3684 18.3964 14.5827 20.3301 14.8071C22.2639 15.0312 23.9465 16.234 24.7849 17.9907C25.6233 19.7477 25.4995 21.8123 24.4575 23.4565C23.4153 25.1008 21.6012 26.0938 19.6546 26.0857L19.6546 26.0859Z" fill="white"/>
</svg>
