<svg width="23" height="23" viewBox="0 0 23 23" fill="none" xmlns="http://www.w3.org/2000/svg">
<style>
.purple-svg-active{fill:#034ea2;}.b{fill:none;}
</style>
<path class="purple-svg-active" d="M10.0625 15.0938C10.2436 15.0932 10.4182 15.161 10.5515 15.2836C10.6847 15.4062 10.7668 15.5746 10.7812 15.7551V22.3388C10.7668 22.5193 10.6847 22.6876 10.5515 22.8101C10.4182 22.9327 10.2436 23.0006 10.0625 22.9999H0.71875C0.537617 23.0006 0.363063 22.9327 0.229754 22.8101C0.0965918 22.6876 0.0144489 22.5191 8.1471e-06 22.3386V15.7549C0.0144472 15.5744 0.0965918 15.406 0.229754 15.2834C0.363076 15.1609 0.537629 15.093 0.71875 15.0936L10.0625 15.0938ZM22.2812 10.2285C22.4718 10.2285 22.6547 10.3042 22.7895 10.439C22.9243 10.5737 23 10.7566 23 10.9472V22.2813C23 22.4718 22.9243 22.6547 22.7895 22.7895C22.6547 22.9243 22.4718 23 22.2812 23H13.8221C13.6315 23 13.4486 22.9243 13.3139 22.7895C13.1791 22.6547 13.1034 22.4718 13.1034 22.2813V10.9472C13.1034 10.7566 13.1791 10.5737 13.3139 10.439C13.4486 10.3042 13.6315 10.2285 13.8221 10.2285H22.2812ZM9.34375 16.4089H1.4375V21.6845L9.34375 21.6846V16.4089ZM21.5625 11.666H14.5409V21.5625H21.5625V11.666ZM10.0625 0.00016492C10.2531 0.00016492 10.436 0.0758919 10.5708 0.210654C10.7055 0.345417 10.7812 0.528315 10.7812 0.71891V12.053C10.7812 12.2436 10.7055 12.4264 10.5708 12.5612C10.436 12.696 10.2531 12.7717 10.0625 12.7717H0.71875C0.528154 12.7717 0.345255 12.696 0.210491 12.5612C0.0757275 12.4264 0 12.2436 0 12.053V0.71891C0 0.528315 0.0757275 0.345417 0.210491 0.210654C0.345255 0.0758919 0.528154 0.00016492 0.71875 0.00016492H10.0625ZM9.34375 1.43765H1.4375V11.3342H9.34375V1.43765ZM22.2812 0.00016492C22.4624 -0.000476817 22.6369 0.067386 22.7702 0.189959C22.9034 0.312531 22.9856 0.480985 23 0.661455V7.24516C22.9856 7.42564 22.9034 7.59394 22.7702 7.71649C22.6369 7.83907 22.4624 7.90693 22.2812 7.90629H13.8221C13.641 7.90693 13.4664 7.83907 13.3331 7.71649C13.2 7.59392 13.1178 7.42547 13.1034 7.245V0.661295C13.1178 0.480808 13.2 0.31235 13.3331 0.189798C13.4664 0.0672256 13.641 -0.000636214 13.8221 4.49587e-06L22.2812 0.00016492ZM21.5625 1.31539H14.5409V6.59097H21.5625V1.31539Z" fill="white"/>
</svg>
