<svg width="23" height="24" viewBox="0 0 23 24" fill="none" xmlns="http://www.w3.org/2000/svg">
<path d="M10.0625 15.6299C10.2436 15.6293 10.4182 15.6972 10.5515 15.8197C10.6847 15.9423 10.7668 16.1108 10.7812 16.2912V22.8749C10.7668 23.0554 10.6847 23.2237 10.5515 23.3463C10.4182 23.4688 10.2436 23.5367 10.0625 23.5361H0.71875C0.537617 23.5367 0.363063 23.4688 0.229754 23.3463C0.0965918 23.2237 0.0144489 23.0552 8.1471e-06 22.8748V16.2911C0.0144472 16.1106 0.0965918 15.9421 0.229754 15.8196C0.363076 15.697 0.537629 15.6291 0.71875 15.6298L10.0625 15.6299ZM22.2812 10.7646C22.4718 10.7646 22.6547 10.8403 22.7895 10.9751C22.9243 11.1098 23 11.2927 23 11.4833V22.8174C23 23.008 22.9243 23.1909 22.7895 23.3256C22.6547 23.4604 22.4718 23.5361 22.2812 23.5361H13.8221C13.6315 23.5361 13.4486 23.4604 13.3139 23.3256C13.1791 23.1909 13.1034 23.008 13.1034 22.8174V11.4833C13.1034 11.2927 13.1791 11.1098 13.3139 10.9751C13.4486 10.8403 13.6315 10.7646 13.8221 10.7646H22.2812ZM9.34375 16.945H1.4375V22.2206L9.34375 22.2208V16.945ZM21.5625 12.2021H14.5409V22.0986H21.5625V12.2021ZM10.0625 0.536298C10.2531 0.536298 10.436 0.612025 10.5708 0.746787C10.7055 0.88155 10.7812 1.06445 10.7812 1.25504V12.5891C10.7812 12.7797 10.7055 12.9626 10.5708 13.0973C10.436 13.2321 10.2531 13.3078 10.0625 13.3078H0.71875C0.528154 13.3078 0.345255 13.2321 0.210491 13.0973C0.0757275 12.9626 0 12.7797 0 12.5891V1.25504C0 1.06445 0.0757275 0.88155 0.210491 0.746787C0.345255 0.612025 0.528154 0.536298 0.71875 0.536298H10.0625ZM9.34375 1.97379H1.4375V11.8703H9.34375V1.97379ZM22.2812 0.536298C22.4624 0.535656 22.6369 0.603519 22.7702 0.726092C22.9034 0.848664 22.9856 1.01712 23 1.19759V7.78129C22.9856 7.96178 22.9034 8.13007 22.7702 8.25263C22.6369 8.3752 22.4624 8.44306 22.2812 8.44242H13.8221C13.641 8.44306 13.4664 8.3752 13.3331 8.25263C13.2 8.13005 13.1178 7.9616 13.1034 7.78113V1.19743C13.1178 1.01694 13.2 0.848483 13.3331 0.725931C13.4664 0.603358 13.641 0.535497 13.8221 0.536137L22.2812 0.536298ZM21.5625 1.85152H14.5409V7.12711H21.5625V1.85152Z" fill="white"/>
</svg>
