<svg width="31" height="22" viewBox="0 0 31 22" fill="none" xmlns="http://www.w3.org/2000/svg">
<path d="M3.07144 0.939181C1.93111 0.939181 1 1.83802 1 2.93883V15.7366C1 16.8374 1.93111 17.7362 3.07144 17.7362H11.2662L10.5802 20.1359H9.69996C9.67395 20.1334 9.64794 20.1334 9.62222 20.1359C9.39334 20.1566 9.22515 20.3524 9.24683 20.5734C9.26822 20.7943 9.47108 20.9564 9.69996 20.9357H17.9857C18.0964 20.9371 18.2033 20.8958 18.2822 20.8205C18.3614 20.7455 18.4059 20.6428 18.4059 20.5357C18.4059 20.4288 18.3614 20.3262 18.2822 20.2509C18.2033 20.1758 18.0964 20.1343 17.9857 20.1359H17.1052L16.4192 17.7362H20.0572V18.9361C20.0572 20.0369 20.988 20.9357 22.1287 20.9357H27.9286C29.0689 20.9357 30 20.0369 30 18.9361V10.1376C30 9.03681 29.0689 8.13797 27.9286 8.13797H26.6856V2.93882C26.6856 1.83801 25.7545 0.939174 24.6142 0.939174H3.01004C2.98403 0.936942 2.95802 0.936942 2.9323 0.939174C2.70342 0.959817 2.53523 1.15565 2.55691 1.3766C2.57829 1.59754 2.78116 1.75962 3.01004 1.73898H24.6142C25.31 1.73898 25.8571 2.26734 25.8571 2.93884V8.13799H22.1287C20.988 8.13799 20.0572 9.03683 20.0572 10.1376V12.1373H1.82852V2.93891C1.82852 2.26743 2.37585 1.73905 3.07146 1.73905C3.18243 1.74072 3.28935 1.69915 3.36824 1.62411C3.44714 1.54879 3.49164 1.44613 3.49164 1.33928C3.49164 1.23216 3.44714 1.1295 3.36824 1.05445C3.28935 0.979132 3.18241 0.937789 3.07144 0.939181ZM22.1287 8.93777H27.9286C28.6242 8.93777 29.1716 9.46585 29.1716 10.1376V18.9361C29.1716 19.6075 28.6242 20.1359 27.9286 20.1359H22.1287C21.4329 20.1359 20.8858 19.6076 20.8858 18.9361V10.1376C20.8858 9.46587 21.4328 8.93777 22.1287 8.93777ZM1.82858 12.9371H20.0573V16.9364H3.07144C2.37586 16.9364 1.8285 16.4083 1.8285 15.7365L1.82858 12.9371ZM13.8429 13.7368C13.1612 13.7368 12.6 14.2789 12.6 14.9367C12.6 15.5945 13.1612 16.1366 13.8429 16.1366C14.5244 16.1366 15.0856 15.5945 15.0856 14.9367C15.0856 14.2789 14.5244 13.7368 13.8429 13.7368ZM13.8429 14.5366C14.0764 14.5366 14.2571 14.711 14.2571 14.9367C14.2571 15.1624 14.0765 15.3367 13.8429 15.3367C13.6092 15.3367 13.4285 15.1624 13.4285 14.9367C13.4285 14.711 13.6092 14.5366 13.8429 14.5366ZM25.0287 16.9364C24.3473 16.9364 23.7858 17.4781 23.7858 18.1362C23.7858 18.794 24.3473 19.3361 25.0287 19.3361C25.7102 19.3361 26.2717 18.794 26.2717 18.1362C26.2717 17.4781 25.7102 16.9364 25.0287 16.9364ZM12.1207 17.7361H15.5645L16.2379 20.1359H11.4477L12.1207 17.7361ZM25.0287 17.7361C25.2625 17.7361 25.4429 17.9105 25.4429 18.1362C25.4429 18.3616 25.2625 18.5359 25.0287 18.5359C24.795 18.5359 24.6143 18.3616 24.6143 18.1362C24.6143 17.9105 24.795 17.7361 25.0287 17.7361Z" fill="white" stroke="white" stroke-width="0.7"/>
</svg>
