<svg width="24" height="29" viewBox="0 0 24 29" fill="none" xmlns="http://www.w3.org/2000/svg">
<path d="M21.3882 4.1166H17.8441V1.70729C17.8441 1.28224 17.5098 0.9375 17.0981 0.9375C16.6861 0.9375 16.352 1.28253 16.352 1.70729V4.1166H7.64759V1.70729C7.64759 1.28224 7.31319 0.9375 6.90152 0.9375C6.48958 0.9375 6.15546 1.28253 6.15546 1.70729V4.1166H2.6114C1.17183 4.1166 0 5.32541 0 6.81103V26.2431C0 27.729 1.17183 28.9375 2.6114 28.9375H21.3886C22.8282 28.9375 24 27.7287 24 26.2431L23.9997 6.81103C23.9997 5.32514 22.8279 4.1166 21.3883 4.1166H21.3882ZM22.5075 26.2431C22.5075 26.8798 22.0052 27.398 21.3882 27.398H2.611C1.99399 27.398 1.49173 26.8798 1.49173 26.2431V12.4929H22.5073L22.5075 26.2431ZM22.5075 10.9532H1.49186V6.81069C1.49186 6.17407 1.99411 5.65583 2.61113 5.65583H6.15519V8.25067C6.15519 8.67571 6.48958 9.02046 6.90125 9.02046C7.3132 9.02046 7.64732 8.67543 7.64732 8.25067V5.65583H16.3517V8.25067C16.3517 8.67571 16.6861 9.02046 17.0978 9.02046C17.5098 9.02046 17.8439 8.67543 17.8439 8.25067V5.65583H21.3879C22.0049 5.65583 22.5072 6.17405 22.5072 6.81069L22.5075 10.9532ZM11.9997 19.4134C13.1827 19.4134 14.1447 18.4202 14.1447 17.2001C14.1447 15.9798 13.1827 14.9869 11.9997 14.9869C10.8166 14.9869 9.8546 15.98 9.8546 17.2001C9.8546 18.4205 10.8166 19.4134 11.9997 19.4134ZM11.9997 16.5264C12.3596 16.5264 12.6526 16.8285 12.6526 17.2001C12.6526 17.5715 12.3598 17.8738 11.9997 17.8738C11.6398 17.8738 11.3467 17.5717 11.3467 17.2001C11.3467 16.8288 11.6398 16.5264 11.9997 16.5264ZM17.5957 19.4134C18.7787 19.4134 19.7407 18.4202 19.7407 17.2001C19.7407 15.9798 18.7787 14.9869 17.5957 14.9869C16.4126 14.9869 15.4506 15.98 15.4506 17.2001C15.4506 18.4205 16.4126 19.4134 17.5957 19.4134ZM17.5957 16.5264C17.9556 16.5264 18.2486 16.8285 18.2486 17.2001C18.2486 17.5715 17.9558 17.8738 17.5957 17.8738C17.2358 17.8738 16.9427 17.5717 16.9427 17.2001C16.9427 16.8288 17.2358 16.5264 17.5957 16.5264ZM6.40368 19.4134C7.5867 19.4134 8.54874 18.4202 8.54874 17.2001C8.54874 15.9798 7.5867 14.9869 6.40368 14.9869C5.22066 14.9869 4.25862 15.98 4.25862 17.2001C4.25862 18.4205 5.22066 19.4134 6.40368 19.4134ZM6.40368 16.5264C6.76357 16.5264 7.0566 16.8285 7.0566 17.2001C7.0566 17.5715 6.76384 17.8738 6.40368 17.8738C6.04378 17.8738 5.75076 17.5717 5.75076 17.2001C5.75076 16.8288 6.04378 16.5264 6.40368 16.5264ZM11.9997 25.1873C13.1827 25.1873 14.1447 24.1941 14.1447 22.9741C14.1447 21.7537 13.1827 20.7608 11.9997 20.7608C10.8166 20.7608 9.8546 21.754 9.8546 22.9741C9.8546 24.1944 10.8166 25.1873 11.9997 25.1873ZM11.9997 22.3004C12.3596 22.3004 12.6526 22.6024 12.6526 22.974C12.6526 23.3454 12.3598 23.6477 11.9997 23.6477C11.6398 23.6477 11.3467 23.3457 11.3467 22.974C11.3467 22.6027 11.6398 22.3004 11.9997 22.3004ZM17.5957 25.1873C18.7787 25.1873 19.7407 24.1941 19.7407 22.9741C19.7407 21.7537 18.7787 20.7608 17.5957 20.7608C16.4126 20.7608 15.4506 21.754 15.4506 22.9741C15.4506 24.1944 16.4126 25.1873 17.5957 25.1873ZM17.5957 22.3004C17.9556 22.3004 18.2486 22.6024 18.2486 22.974C18.2486 23.3454 17.9558 23.6477 17.5957 23.6477C17.2358 23.6477 16.9427 23.3457 16.9427 22.974C16.9427 22.6027 17.2358 22.3004 17.5957 22.3004ZM6.40368 25.1873C7.5867 25.1873 8.54874 24.1941 8.54874 22.9741C8.54874 21.7537 7.5867 20.7608 6.40368 20.7608C5.22066 20.7608 4.25862 21.754 4.25862 22.9741C4.25862 24.1944 5.22066 25.1873 6.40368 25.1873ZM6.40368 22.3004C6.76357 22.3004 7.0566 22.6024 7.0566 22.974C7.0566 23.3454 6.76384 23.6477 6.40368 23.6477C6.04378 23.6477 5.75076 23.3457 5.75076 22.974C5.75076 22.6027 6.04378 22.3004 6.40368 22.3004Z" fill="white"/>
</svg>
