<svg width="31" height="37" viewBox="0 0 31 37" fill="none" xmlns="http://www.w3.org/2000/svg">
<path fill-rule="evenodd" clip-rule="evenodd" d="M6.49416 7.77781C6.28192 7.99247 5.93667 7.995 5.72029 7.78444L3.6033 5.71918C3.38693 5.50861 3.38438 5.16609 3.59662 4.95142C3.80887 4.73676 4.15412 4.73423 4.37049 4.94479L6.48748 7.01005C6.70386 7.22093 6.70641 7.56346 6.49416 7.77781Z" fill="#fff"/>
<path fill-rule="evenodd" clip-rule="evenodd" d="M3.80435 11.8332C3.6898 12.1116 3.37159 12.2445 3.09062 12.1309L0.341011 11.019C0.0603562 10.9054 -0.0736046 10.5897 0.0409448 10.3109C0.155494 10.0325 0.473701 9.89957 0.754674 10.0132L3.50428 11.1251C3.78462 11.2391 3.9189 11.5547 3.80435 11.8332Z" fill="#fff"/>
<path fill-rule="evenodd" clip-rule="evenodd" d="M10.6209 5.00501C10.3412 5.12118 10.0218 4.99143 9.90466 4.71394L8.75754 1.99714C8.64044 1.71965 8.77122 1.4027 9.05092 1.28653C9.33063 1.17035 9.6501 1.3001 9.7672 1.57759L10.9143 4.29439C11.0314 4.57188 10.9006 4.88884 10.6209 5.00501Z" fill="#fff"/>
<path fill-rule="evenodd" clip-rule="evenodd" d="M15.5004 4.03197C15.1972 4.03197 14.9531 3.78952 14.9531 3.48898L14.9528 0.542988C14.9528 0.242133 15.1972 0 15.5001 0C15.8033 0 16.0474 0.242449 16.0474 0.542988V3.48866C16.0471 3.78951 15.8033 4.03197 15.5004 4.03197Z" fill="#fff"/>
<path fill-rule="evenodd" clip-rule="evenodd" d="M24.5058 7.77781C24.7181 7.99247 25.0633 7.995 25.2797 7.78444L27.3967 5.71918C27.6131 5.50861 27.6156 5.16609 27.4034 4.95142C27.1911 4.73676 26.8459 4.73423 26.6295 4.94479L24.5125 7.01005C24.2965 7.22093 24.2936 7.56346 24.5058 7.77781Z" fill="#fff"/>
<path fill-rule="evenodd" clip-rule="evenodd" d="M27.1957 11.8332C27.3102 12.1116 27.6284 12.2445 27.9094 12.1309L30.659 11.019C30.9396 10.9054 31.0736 10.5897 30.9591 10.3109C30.8445 10.0325 30.5263 9.89957 30.2453 10.0132L27.4957 11.1251C27.2154 11.2391 27.0817 11.5547 27.1957 11.8332Z" fill="#fff"/>
<path fill-rule="evenodd" clip-rule="evenodd" d="M20.3791 5.00501C20.6588 5.12118 20.9782 4.99143 21.0953 4.71394L22.2425 1.99714C22.3596 1.71965 22.2288 1.4027 21.9491 1.28653C21.6694 1.17035 21.3499 1.3001 21.2328 1.57759L20.0857 4.29439C19.9686 4.57188 20.0994 4.88884 20.3791 5.00501Z" fill="#fff"/>
<path fill-rule="evenodd" clip-rule="evenodd" d="M15.9566 5.9772C11.6873 5.82599 7.62891 8.28014 5.84656 12.2679C3.95294 16.5025 4.97885 21.4083 8.70182 24.2352C10.5098 25.6084 10.4707 28.2666 10.4045 30.0704C10.3857 30.5777 10.5684 31.0601 10.8799 31.4325C11.0062 31.5838 11.1558 31.7148 11.3162 31.8354C11.8234 32.9005 12.3096 33.7156 13.0943 34.4063C13.3355 35.8964 14.6946 36.9981 16.2948 37C17.8944 36.9975 19.2537 35.8967 19.4953 34.4073C20.3938 33.6471 21.0173 32.4996 21.3771 31.5414C21.8535 31.1572 22.1319 30.5935 22.1523 30.1114C22.1949 29.1198 22.3165 28.4796 22.5386 28.0401C22.7601 27.6007 23.0744 27.3096 23.6574 26.9823C24.1509 26.7051 24.5935 26.4134 24.9404 26.0207C25.2875 25.628 25.5176 25.116 25.55 24.5316L25.7114 21.5843L27.2194 20.6827C27.5382 20.4917 27.7886 20.1779 27.8736 19.7956C27.9589 19.4133 27.8631 18.9849 27.612 18.6219L25.2283 15.1629C25.0985 10.0917 21.296 6.56808 16.8135 6.04197C16.5278 6.00851 16.2417 5.98736 15.9569 5.97725L15.9566 5.9772ZM15.9162 7.11623C16.1695 7.12538 16.424 7.14432 16.6786 7.174C20.7233 7.64911 24.1239 10.7508 24.1239 15.4076C24.1239 15.5228 24.1589 15.6355 24.2248 15.7308L26.6647 19.2684C26.8391 19.5213 26.7748 19.616 26.6231 19.7063L24.857 20.7641C24.6944 20.8617 24.5903 21.0328 24.5798 21.2206L24.4004 24.4685C24.381 24.8198 24.2801 25.0373 24.0745 25.27C23.8687 25.503 23.5237 25.7161 23.0907 25.9869C22.3197 26.4693 21.7816 26.9955 21.4404 27.6831C20.4651 28.2333 19.2681 28.6829 17.9609 28.8928V20.8056H19.4535C20.4024 20.8056 21.2619 20.2455 21.6276 19.3833C21.9929 18.5215 21.7883 17.5208 21.1146 16.8629C20.441 16.2053 19.4329 16.0098 18.5556 16.365C17.6783 16.7202 17.0963 17.5618 17.0963 18.4962V19.9481H15.6975L15.6972 18.4965C15.6972 17.5621 15.1152 16.7204 14.2379 16.3653C13.3606 16.0102 12.3523 16.2053 11.6789 16.8632C11.0053 17.5208 10.8007 18.5212 11.166 19.3837C11.5313 20.2455 12.3917 20.8059 13.34 20.8059H14.8327V28.8932C13.6034 28.6946 12.4722 28.2842 11.53 27.7772C11.3973 26.2097 10.9197 24.4846 9.39968 23.3298C6.10306 20.8261 5.19616 16.5327 6.8964 12.7315C8.48968 9.17246 12.1152 6.98283 15.9165 7.11666L15.9162 7.11623ZM13.2633 17.0477C13.4813 17.0361 13.7037 17.0708 13.9138 17.1557C14.4744 17.3824 14.8343 17.9111 14.8343 18.4964V19.9483H13.3417C12.7339 19.9483 12.1907 19.5919 11.9603 19.0499C11.7303 18.5078 11.855 17.8923 12.282 17.4756C12.549 17.2145 12.9003 17.0667 13.2634 17.0478L13.2633 17.0477ZM19.5326 17.0477C19.8957 17.067 20.2466 17.2141 20.514 17.4752C20.9407 17.8922 21.0654 18.5074 20.8357 19.0495C20.6056 19.5915 20.0627 19.9479 19.4543 19.9479H17.9617L17.962 18.4964C17.962 17.9111 18.3225 17.3826 18.8826 17.1556C19.0926 17.0707 19.3147 17.036 19.5327 17.0477L19.5326 17.0477ZM15.6986 20.8054H17.0974V28.9977C16.8667 29.0144 16.6332 29.0233 16.3974 29.0233C16.1616 29.0233 15.929 29.0141 15.6983 28.9977L15.6986 20.8054ZM11.5765 29.0761C12.9547 29.7182 14.6087 30.1643 16.398 30.1633C18.1259 30.1643 19.728 29.7469 21.0775 29.1399C21.0434 29.429 21.0167 29.7321 21.004 30.0702C20.997 30.2634 20.9133 30.4288 20.6781 30.635C20.443 30.8411 20.0592 31.052 19.5711 31.2212C18.5949 31.5603 17.2224 31.7446 15.8548 31.7446C14.4885 31.7446 13.3216 31.5489 12.5623 31.2398C12.2426 31.1095 11.9947 30.9295 11.7624 30.7057C11.5886 30.5378 11.5438 30.3518 11.5527 30.1113C11.5638 29.8041 11.5734 29.4486 11.5765 29.0761ZM19.725 32.3681C19.4949 32.7418 19.2172 33.1036 18.8907 33.4149C18.2377 34.0358 17.4159 34.4648 16.2941 34.4648C15.1724 34.4648 14.3503 34.0358 13.6976 33.4149C13.4335 33.1636 13.2095 32.8754 13.0087 32.578C13.8363 32.7883 14.798 32.8874 15.8556 32.8874C17.2328 32.8877 18.6011 32.721 19.725 32.3681Z" fill="#fff"/>
</svg>
