<svg width="30" height="27" viewBox="0 0 30 27" fill="none" xmlns="http://www.w3.org/2000/svg">
<path d="M26.0718 12.4285C26.0718 12.8243 26.3927 13.1452 26.7884 13.1452H28.9383C29.3341 13.1452 29.655 12.8243 29.655 12.4285C29.655 12.0328 29.3341 11.7119 28.9383 11.7119H26.7884C26.3927 11.7119 26.0718 12.0328 26.0718 12.4285Z" fill="white" stroke="white" stroke-width="0.2"/>
<path d="M26.0973 9.22441C26.1603 9.28775 28.2421 8.47482 28.3627 8.44507C29.2415 8.10914 28.7629 6.78845 27.8722 7.09853L25.8522 7.83404C25.1052 8.0951 25.3179 9.23791 26.0976 9.22415L26.0973 9.22441Z" fill="white" stroke="white" stroke-width="0.2"/>
<path d="M2.28292 8.44395C2.40898 8.47594 4.48017 9.28532 4.54831 9.22265C5.32733 9.23577 5.54169 8.09364 4.79306 7.83197L2.77272 7.09677C1.88425 6.78996 1.40185 8.10612 2.28291 8.44397L2.28292 8.44395Z" fill="white" stroke="white" stroke-width="0.2"/>
<path d="M1.70627 13.1432H3.85618C4.79739 13.1276 4.79837 11.7259 3.85618 11.71H1.70627C0.765067 11.7256 0.764084 13.1273 1.70627 13.1432Z" fill="white" stroke="white" stroke-width="0.2"/>
<path d="M4.30278 15.6758L2.28277 16.411C1.40012 16.7504 1.88734 18.0666 2.77258 17.7582L4.79259 17.023C5.67205 16.6858 5.19346 15.3693 4.30278 15.6758Z" fill="white" stroke="white" stroke-width="0.2"/>
<path d="M25.8518 17.023L27.8721 17.7585C28.234 17.8938 28.6559 17.7061 28.7906 17.3305C28.926 16.9584 28.7343 16.547 28.3626 16.4119L26.3422 15.6764C25.4526 15.3674 24.972 16.6861 25.8518 17.023L25.8518 17.023Z" fill="white" stroke="white" stroke-width="0.2"/>
<path d="M7.96842 15.2199L11.8546 15.4515L9.30192 24.9836C9.25327 25.1582 9.26518 25.3441 9.33577 25.5109C9.40656 25.6777 9.5318 25.8157 9.69113 25.902C9.8271 25.9787 9.98216 26.0146 10.1381 26.0055C10.344 25.992 10.537 25.8999 10.6768 25.7481L22.7564 12.8616C22.8976 12.7109 22.9759 12.5119 22.9756 12.3055C22.975 12.099 22.8959 11.9005 22.7541 11.7504C22.6124 11.6002 22.4188 11.5099 22.2126 11.4976L18.3266 11.266L20.8793 1.73393C20.9422 1.49935 20.8967 1.24911 20.7551 1.05188C20.6138 0.854454 20.3915 0.730901 20.1493 0.714934C19.9069 0.698979 19.6704 0.792455 19.5044 0.969539L7.42479 13.8556C7.2836 14.0063 7.20526 14.2051 7.20564 14.4117C7.20619 14.618 7.28527 14.8167 7.42694 14.9668C7.5686 15.1168 7.76225 15.2073 7.96842 15.2196L7.96842 15.2199ZM19.7478 2.15068L17.2186 11.5951C17.1804 11.7381 17.2084 11.8907 17.2951 12.0108C17.3817 12.1307 17.5177 12.2055 17.6654 12.2141L21.7833 12.4597L10.4334 24.5675L12.9627 15.123C13.0009 14.9801 12.9728 14.8274 12.8862 14.7073C12.7996 14.5874 12.6635 14.5127 12.5159 14.504L8.39798 14.2585L19.7478 2.15068Z" fill="white" stroke="white" stroke-width="0.5"/>
</svg>
