<svg width="29" height="28" viewBox="0 0 29 28" fill="none" xmlns="http://www.w3.org/2000/svg">
<path d="M16.3994 21.0687C16.3994 17.9186 18.9525 15.3652 22.1028 15.3652C25.2529 15.3652 27.8062 17.9184 27.8062 21.0687C27.8062 24.2187 25.2531 26.7721 22.1028 26.7721C18.9528 26.7721 16.3994 24.219 16.3994 21.0687ZM25.0159 17.4226C24.2175 16.7839 23.2049 16.4022 22.1031 16.4022C19.5254 16.4022 17.4366 18.4912 17.4366 21.0687C17.4366 22.1707 17.8183 23.1832 18.457 23.9815L25.0159 17.4226ZM25.7492 18.1558L19.1901 24.7149C19.9884 25.3535 21.0011 25.7353 22.1029 25.7353C24.6805 25.7353 26.7693 23.6462 26.7693 21.0688C26.7693 19.9668 26.3878 18.9541 25.7492 18.1558Z" fill="white" stroke="white" stroke-width="0.5"/>
<path d="M25.3821 12.7272C25.3821 12.9516 25.2001 13.1336 24.9757 13.1336C24.7513 13.1336 24.5694 12.9516 24.5694 12.7272C24.5694 6.4431 19.4751 1.34887 13.1911 1.34887C6.90697 1.34887 1.81274 6.4431 1.81274 12.7272C1.81274 19.0113 6.90697 24.1055 13.1911 24.1055C13.4155 24.1055 13.5974 24.2875 13.5974 24.5119C13.5974 24.7363 13.4155 24.9182 13.1911 24.9182C6.45788 24.9182 1 19.4604 1 12.7272C1 5.99401 6.45788 0.536133 13.1911 0.536133C19.9242 0.536133 25.3821 5.99401 25.3821 12.7272ZM16.7368 12.7272C16.9612 12.7272 17.1431 12.9091 17.1431 13.1336C17.1431 13.358 16.9612 13.5399 16.7368 13.5399H12.7847C12.5603 13.5399 12.3783 13.358 12.3783 13.1336V7.66762C12.3783 7.44321 12.5603 7.26125 12.7847 7.26125C13.0091 7.26125 13.1911 7.44321 13.1911 7.66762V12.7272H16.7368Z" fill="white" stroke="white"/>
</svg>
