<svg width="26" height="28" viewBox="0 0 26 28" fill="none" xmlns="http://www.w3.org/2000/svg">
<path d="M13.5798 15.8163V21.2668V22.0407C13.7962 21.8243 14.0192 21.6012 14.2356 21.3848H10.2279C9.38172 21.3848 9.38172 22.6965 10.2279 22.6965H14.2356C14.5898 22.6965 14.8915 22.3948 14.8915 22.0407V16.5902V15.8163C14.8917 14.9701 13.5798 14.9701 13.5798 15.8163Z" fill="white"/>
<path d="M2.11395 22.0337V14.7988V3.35963V0.73593C1.89754 0.952339 1.6745 1.17538 1.4581 1.39178H5.80028H12.7266H14.327C14.1106 1.17537 13.8875 0.952328 13.6711 0.73593V6.18643V6.96034C13.6711 7.80652 14.9829 7.80652 14.9829 6.96034V1.50985V0.73593C14.9829 0.381803 14.6811 0.0800781 14.327 0.0800781H9.98481H3.05852H1.4581C1.10397 0.0800781 0.802246 0.381814 0.802246 0.73593V7.97085V19.41V22.0337C0.802246 22.8799 2.11395 22.8799 2.11395 22.0337V22.0337Z" fill="white"/>
<path d="M1.15037 1.31371C3.70842 2.58612 6.26641 3.8587 8.82452 5.13111C9.17864 5.30817 9.5394 5.48523 9.89377 5.6623C9.78236 5.47219 9.67736 5.28186 9.56572 5.09817V12.6411V24.5851V27.3399C9.89377 27.1498 10.2216 26.9595 10.5496 26.7758C7.99159 25.2277 5.4336 23.6799 2.87549 22.1385C2.5081 21.9154 2.14093 21.6924 1.78018 21.476C1.05868 21.0366 0.396153 22.1712 1.11771 22.6107C3.67576 24.1588 6.23375 25.7065 8.79186 27.248C9.15925 27.471 9.52642 27.6941 9.88717 27.9104C10.3136 28.1662 10.8711 27.8384 10.8711 27.3463V19.8033V7.85934V5.10457C10.8711 4.88816 10.7464 4.63881 10.543 4.54044C7.985 3.26804 5.42701 1.99545 2.8689 0.723046C2.51477 0.545985 2.15402 0.368919 1.79965 0.191858C1.05847 -0.194754 0.395942 0.933271 1.15041 1.3137L1.15037 1.31371Z" fill="white"/>
<path d="M19.1086 9.02663C20.5976 9.95791 22.0864 10.8895 23.5754 11.8207C23.7854 11.9518 24.0018 12.0898 24.2116 12.2209C24.323 11.8141 24.4346 11.4076 24.5396 11.0009H15.5993H14.3334C13.4872 11.0009 13.4872 12.3126 14.3334 12.3126H23.2737H24.5396C25.2021 12.3126 25.4119 11.4336 24.8677 11.0926C23.3786 10.1613 21.8898 9.22973 20.4009 8.29845C20.1909 8.16737 19.9745 8.02942 19.7647 7.89835C19.056 7.43922 18.3935 8.57388 19.1086 9.02663H19.1086Z" fill="white"/>
<path d="M24.2116 11.0867C22.7225 12.1363 21.2337 13.179 19.7383 14.2285C19.5283 14.3793 19.3185 14.5236 19.1022 14.6746C18.8135 14.878 18.6757 15.2451 18.8661 15.5732C19.0365 15.8619 19.4696 16.0127 19.7647 15.8093C21.2537 14.7597 22.7425 13.717 24.2379 12.6675C24.4479 12.5167 24.6577 12.3724 24.8741 12.2214C25.1628 12.018 25.3005 11.6508 25.1102 11.3228C24.9464 11.0341 24.5069 10.8833 24.2116 11.0867V11.0867Z" fill="white"/>
</svg>
