<svg width="25" height="26" viewBox="0 0 25 26" fill="none" xmlns="http://www.w3.org/2000/svg">
<path d="M23.8043 5.8615C23.6552 5.79673 23.4815 5.8284 23.365 5.94166C16.0409 13.0762 9.16284 19.5823 7.30547 21.3343V1.33829C7.30547 1.23201 7.26324 1.13002 7.18809 1.05487C7.11294 0.979727 7.01096 0.9375 6.90468 0.9375H1.40079C1.17946 0.9375 1 1.11696 1 1.33829V25.1805C1 25.2868 1.04223 25.3888 1.11737 25.4639C1.19252 25.5391 1.29451 25.5813 1.40079 25.5813H6.11775V25.5863L20.1289 25.5142C20.1483 25.5178 20.1678 25.5196 20.1874 25.5198H20.1991C20.2159 25.5189 20.2325 25.5169 20.2492 25.5137L23.6448 25.4981C23.8627 25.4981 24.0409 25.3238 24.0456 25.1059V6.23761C24.0492 6.07496 23.9535 5.92644 23.8043 5.8615ZM1.60095 21.9708H2.78133C2.94737 21.9708 3.08193 21.8362 3.08193 21.6702C3.08193 21.5043 2.94737 21.3696 2.78133 21.3696H1.60095V17.6234H4.71603C4.88207 17.6234 5.01662 17.4889 5.01662 17.3228C5.01662 17.1568 4.88207 17.0222 4.71603 17.0222H1.60095V13.2606H2.78133C2.94737 13.2606 3.08193 13.1258 3.08193 12.96C3.08193 12.7939 2.94737 12.6594 2.78133 12.6594H1.60095V8.91499H4.71603C4.88207 8.91499 5.01662 8.78044 5.01662 8.6144C5.01662 8.44853 4.88207 8.3138 4.71603 8.3138H1.60095C1.60095 6.77326 1.60095 6.10959 1.60095 4.56904H2.78133C2.94737 4.56904 3.08193 4.43449 3.08193 4.26845C3.08193 4.10258 2.94737 3.96785 2.78133 3.96785H1.60095C1.60095 3.13927 1.60095 2.49277 1.60095 2.30591V1.53887H6.70404V13.2596V24.9803H1.60095V21.9708ZM23.4443 24.8989L20.4759 24.912L20.4484 24.2C20.4418 24.0342 20.3022 23.9048 20.1362 23.9112C19.9701 23.9179 19.8408 24.0576 19.8474 24.2236L19.8739 24.915L16.9896 24.9301L16.9976 24.2151C16.9994 24.0492 16.8663 23.9131 16.7004 23.9113C16.5344 23.9095 16.3982 24.0426 16.3965 24.2087L16.3884 24.9331L13.2057 24.9496L13.2138 24.2151C13.2156 24.0492 13.0824 23.9131 12.9164 23.9113C12.7504 23.9095 12.6144 24.0426 12.6126 24.2086L12.6045 24.9526L9.36957 24.9696L9.37762 24.2151C9.37941 24.0494 9.24647 23.9134 9.08061 23.9116H9.07703C8.91242 23.9116 8.77841 24.044 8.77644 24.2086L8.76785 24.9726L7.30444 24.9802L7.30462 22.1606L8.22538 21.292L8.8076 21.8996C8.86217 21.9597 8.93858 21.9953 9.01981 21.9982C9.10086 22.0011 9.17977 21.971 9.23845 21.9148C9.29696 21.8586 9.33042 21.7812 9.33095 21.6999C9.33149 21.6187 9.29928 21.5407 9.24149 21.4838L8.66481 20.8771C9.33365 20.2444 10.2143 19.4097 11.2594 18.4161L11.8561 19.0398C11.971 19.1599 12.1612 19.164 12.2812 19.0491C12.4011 18.9343 12.4052 18.7441 12.2905 18.624L11.6949 18.0023C12.4995 17.2363 13.3902 16.3876 14.3501 15.4723L15.0274 16.1839C15.1422 16.3037 15.3324 16.3079 15.4525 16.193C15.5724 16.0783 15.5765 15.8879 15.4618 15.768L14.7824 15.0591C15.5634 14.3121 16.3856 13.5247 17.2373 12.7045L17.8385 13.3262C17.9539 13.4458 18.1444 13.4486 18.2638 13.3332C18.321 13.2778 18.3541 13.2017 18.3554 13.1219C18.3566 13.0421 18.3262 12.9652 18.2707 12.9077L17.6696 12.2876C18.4815 11.5071 19.3165 10.702 20.1745 9.87231L20.7442 10.467C20.86 10.5812 21.0457 10.5826 21.1633 10.4699C21.2806 10.3574 21.2873 10.1718 21.1781 10.0512L20.6074 9.45452C21.5337 8.55831 22.4791 7.64203 23.4335 6.71302L23.4443 24.8989Z" fill="white" stroke="white" stroke-width="0.7"/>
<path d="M20.5967 22.2786L20.6468 14.3975L11.6855 22.2786H20.5967ZM19.9994 21.6774H13.2799L20.0388 15.732L19.9994 21.6774Z" fill="white" stroke="white" stroke-width="0.7"/>
</svg>
