<svg width="23" height="24" viewBox="0 0 23 24" fill="none" xmlns="http://www.w3.org/2000/svg">
<path d="M8.90203 0.000256312C8.57448 0.00978956 8.29314 0.308337 8.25261 0.583632L7.98871 2.70855C7.04934 3.08406 6.18246 3.60116 5.41115 4.23991L3.49322 3.40658C3.20531 3.28335 2.83765 3.41077 2.68137 3.68793L0.0833953 8.31283C-0.074718 8.58928 -0.00109511 8.98109 0.245811 9.17728L1.89984 10.4689C1.82577 10.9718 1.75781 11.4808 1.75781 12C1.75781 12.5218 1.82486 13.0256 1.89984 13.5314L0.245811 14.8229C-0.00109511 15.0192 -0.0747122 15.411 0.0833953 15.6874L2.68137 20.3123C2.83767 20.5892 3.20531 20.7166 3.49322 20.5936L5.41115 19.7603C6.18223 20.3986 7.04981 20.9057 7.98871 21.2812L8.25261 23.4166C8.29202 23.737 8.5874 24.0025 8.90203 24H14.098C14.4126 24.0032 14.708 23.737 14.7474 23.4166L15.0113 21.2812C15.9502 20.9057 16.818 20.3986 17.5889 19.7603L19.5068 20.5936C19.7947 20.7166 20.1624 20.5892 20.3186 20.3123L22.9166 15.6874C23.0747 15.4109 23.0011 15.0191 22.7542 14.8229L21.1002 13.5314C21.1751 13.0259 21.2422 12.522 21.2422 12C21.2422 11.4808 21.1742 10.9718 21.1002 10.4686L22.7542 9.17704C23.0011 8.9808 23.0747 8.58902 22.9166 8.31259L20.3186 3.68769C20.1623 3.41077 19.7947 3.28335 19.5068 3.40634L17.5889 4.23967C16.8175 3.60099 15.9507 3.08409 15.0113 2.70832L14.7474 0.583394C14.708 0.262992 14.4126 -0.00254115 14.098 1.83501e-05L8.90203 0.000256312ZM9.48056 1.33346H13.5196L13.7529 3.23957C13.7871 3.4865 13.9679 3.70576 14.1994 3.78133C15.2722 4.15265 16.2496 4.74739 17.0814 5.50006C17.2631 5.66422 17.5381 5.71049 17.7615 5.61469L19.4866 4.86458L21.5162 8.46878L20.0244 9.62508C19.8334 9.77481 19.7353 10.0392 19.7809 10.2812C19.8878 10.8299 19.9433 11.4112 19.9433 11.9999C19.9433 12.5887 19.8878 13.1594 19.7809 13.7082C19.7312 13.9533 19.83 14.2237 20.0244 14.3748L21.5162 15.5311L19.4866 19.1353L17.7615 18.3852C17.5381 18.2891 17.2633 18.3357 17.0814 18.4998C16.2496 19.2525 15.2722 19.8368 14.1994 20.2081C13.9652 20.285 13.7835 20.5096 13.7529 20.76L13.5196 22.6662H9.48056L9.24725 20.76C9.21667 20.5094 9.035 20.285 8.80078 20.2081C7.72798 19.8367 6.75057 19.2524 5.91878 18.4998C5.73711 18.3357 5.46211 18.2894 5.23874 18.3852L3.51356 19.1353L1.48394 15.5311L2.97583 14.3748C3.17018 14.2234 3.26894 13.9533 3.21933 13.7082C3.11241 13.1595 3.05692 12.5886 3.05692 11.9999C3.05692 11.4113 3.11241 10.8299 3.21933 10.2812C3.26486 10.0392 3.16655 9.77456 2.97583 9.62508L1.48394 8.46878L3.51356 4.86458L5.23874 5.61469C5.46209 5.71072 5.73685 5.66422 5.91878 5.50006C6.75057 4.74739 7.72798 4.15264 8.80078 3.78133C9.03228 3.70577 9.21305 3.4865 9.24725 3.23957L9.48056 1.33346ZM11.5 5.99996C8.27932 5.99996 5.65467 8.69411 5.65467 11.9999C5.65467 15.3057 8.27938 17.9999 11.5 17.9999C14.7206 17.9999 17.3453 15.3057 17.3453 11.9999C17.3453 8.69411 14.7206 5.99996 11.5 5.99996ZM11.5 7.33317C14.0187 7.33317 16.0462 9.41464 16.0462 11.9997C16.0462 14.5848 14.0184 16.6662 11.5 16.6662C8.98157 16.6662 6.95374 14.5847 6.95374 11.9997C6.95374 9.41434 8.98157 7.33317 11.5 7.33317Z" fill="white"/>
</svg>
