<svg width="25" height="30" viewBox="0 0 25 30" fill="none" xmlns="http://www.w3.org/2000/svg">
<path d="M23.2639 29.5359H1.60365C1.27047 29.5359 1.00049 29.2659 1.00049 28.9327V6.05665C1.00049 5.8952 1.06524 5.74075 1.18009 5.62721L6.11615 0.759422C6.22881 0.648287 6.38108 0.585938 6.53946 0.585938H23.2635C23.5967 0.585938 23.8666 0.855895 23.8666 1.1891V28.9325C23.8666 29.2657 23.5967 29.5357 23.2635 29.5357L23.2639 29.5359ZM2.20682 28.3296H22.6607L22.6609 1.79253H6.78707L2.20676 6.3094L2.20682 28.3296Z" fill="white" stroke="white" stroke-width="0.3"/>
<path d="M6.53922 6.65989H1.60317C1.26999 6.65989 1 6.38993 1 6.05672C1 5.72354 1.26996 5.45355 1.60317 5.45355H5.93605V1.1891C5.93605 0.855923 6.20601 0.585938 6.53922 0.585938C6.8724 0.585938 7.14239 0.855895 7.14239 1.1891V6.05689C7.14239 6.38985 6.87243 6.65983 6.53922 6.65983V6.65989Z" fill="white" stroke="white" stroke-width="0.3"/>
<path d="M13.1745 24.8352H4.77944C4.44626 24.8352 4.17627 24.5653 4.17627 24.2321C4.17627 23.8989 4.44623 23.6289 4.77944 23.6289H13.1745C13.5077 23.6289 13.7777 23.8989 13.7777 24.2321C13.7777 24.565 13.5075 24.8352 13.1745 24.8352Z" fill="white" stroke="white" stroke-width="0.3"/>
<path d="M20.0877 21.3792H4.77944C4.44626 21.3792 4.17627 21.1092 4.17627 20.776C4.17627 20.4428 4.44623 20.1729 4.77944 20.1729H20.0877C20.4208 20.1729 20.6908 20.4428 20.6908 20.776C20.6908 21.1092 20.4209 21.3792 20.0877 21.3792Z" fill="white" stroke="white" stroke-width="0.3"/>
<path d="M20.0877 17.9222H4.77944C4.44626 17.9222 4.17627 17.6522 4.17627 17.319C4.17627 16.9858 4.44623 16.7158 4.77944 16.7158H20.0877C20.4208 16.7158 20.6908 16.9858 20.6908 17.319C20.6908 17.6522 20.4209 17.9222 20.0877 17.9222Z" fill="white" stroke="white" stroke-width="0.3"/>
<path d="M12.4273 14.8087C11.2405 14.8087 10.0521 14.3679 9.13196 13.4815C8.31598 12.6948 7.80712 11.6405 7.69904 10.5123C7.66753 10.1807 7.91058 9.88621 8.24202 9.85452L11.0654 9.58456L9.02277 7.61673C8.9077 7.50582 8.84098 7.35356 8.83813 7.19364C8.83529 7.03372 8.89588 6.87905 9.0068 6.76398C10.8248 4.87714 13.8374 4.82152 15.7245 6.63884C17.611 8.4568 17.6674 11.4701 15.8497 13.3566C14.9188 14.3226 13.6736 14.8085 12.4273 14.8088L12.4273 14.8087ZM9.00881 10.993C9.17617 11.6057 9.50629 12.1671 9.96878 12.6127C11.3766 13.9689 13.6246 13.9271 14.9807 12.5193C16.3369 11.112 16.2951 8.86352 14.8873 7.50737C13.6279 6.2941 11.6951 6.20068 10.3306 7.20198L12.8465 9.62568C13.016 9.7891 13.0751 10.0365 12.9976 10.2588C12.92 10.4811 12.72 10.6381 12.4855 10.6605L9.00881 10.993Z" fill="white" stroke="white" stroke-width="0.3"/>
</svg>
