<svg width="22" height="30" viewBox="0 0 22 30" fill="none" xmlns="http://www.w3.org/2000/svg">
<path d="M10.2021 6.71221e-06C9.8114 6.71221e-06 9.42071 0.169196 9.17685 0.391788C8.93298 0.614379 8.80749 0.84939 8.7041 1.03946C8.49733 1.41961 8.38684 1.59197 8.29292 1.64088L5.38332 3.15512H2.00411C0.906829 3.15512 0 4.06664 0 5.16928V27.9861C0 29.0885 0.906829 30 2.00411 30H19.9959C21.0932 30 22 29.0885 22 27.9861V5.16928C22 4.06664 21.0932 3.15512 19.9959 3.15512H16.8561L13.8452 1.70882C13.6918 1.54148 13.5537 1.2795 13.3204 0.916003C13.1946 0.72038 13.0323 0.496204 12.774 0.308506C12.5159 0.120815 12.1586 0 11.798 0L10.2021 6.71221e-06ZM10.2234 1.57928H11.7979C11.866 1.57928 11.8381 1.57876 11.8531 1.59462C11.8684 1.61048 11.9242 1.6578 12.0005 1.7765C12.1533 2.01415 12.3503 2.49081 12.8046 2.9238L12.8936 3.00708L15.7019 4.35795V5.55472C15.7019 5.99223 15.3764 6.31953 14.9408 6.31953H7.05915C6.68164 6.31953 6.29806 5.84421 6.29806 5.55472V4.46291L9.0172 3.05045C9.68489 2.70335 9.92006 2.09955 10.0824 1.80137C10.1571 1.6639 10.2084 1.60257 10.2234 1.58539L10.2234 1.57928ZM2.00434 4.69101H4.72665V5.54859C4.72665 6.79078 5.72237 7.8924 7.05935 7.8924H14.941C16.2198 7.8924 17.2737 6.83362 17.2737 5.54859V4.69101H19.996C20.2735 4.69101 20.4716 4.89033 20.4716 5.16923V27.9861C20.4716 28.265 20.2735 28.4672 19.996 28.4672H2.00421C1.72667 28.4672 1.52857 28.265 1.52857 27.9861V5.16923C1.52857 4.89033 1.72667 4.69101 2.00421 4.69101H2.00434ZM13.7254 10.2364L9.9748 14.2211L8.21327 12.5496L7.13282 13.6969L10.0364 16.4541L14.8672 11.3221L13.7254 10.2364ZM4.71439 18.9463V20.5253H17.2854V18.9463H4.71439ZM4.71439 23.6836V25.2626H17.2854V23.6836H4.71439Z" fill="white"/>
</svg>
