<svg xmlns="http://www.w3.org/2000/svg" width="32" height="32" viewBox="0 0 32 32">
  <g id="Group_3964" data-name="Group 3964" transform="translate(-1144 -7759)">
    <g id="Group_3963" data-name="Group 3963" transform="translate(1148.6 7761)">
      <path id="Path_1286" data-name="Path 1286" d="M1173.719,7814.3a1.5,1.5,0,0,1-1.4-2.007l4.265-13.785c.01-.032.021-.063.034-.093a2,2,0,0,1,3.862,0c.013.03.024.062.034.093l4.265,13.785a1.492,1.492,0,0,1-2.13,1.813l-4.05-2.182a.116.116,0,0,0-.107,0l-4.056,2.186A1.458,1.458,0,0,1,1173.719,7814.3Z" transform="translate(-1167.416 -7786.3)" fill="#fff"/>
      <circle id="Ellipse_5726" data-name="Ellipse 5726" cx="2.167" cy="2.167" r="2.167" transform="translate(8.963 3.894)" fill="#fff"/>
      <path id="Path_1287" data-name="Path 1287" d="M1171.5,7779.119a1,1,0,0,1-.707-.293,5.331,5.331,0,0,1,0-7.54,1,1,0,0,1,1.414,1.414,3.331,3.331,0,0,0,0,4.712,1,1,0,0,1-.707,1.707Z" transform="translate(-1165.421 -7768.996)" fill="#fff"/>
      <path id="Path_1288" data-name="Path 1288" d="M1204.345,7779.119a1,1,0,0,1-.707-1.707,3.331,3.331,0,0,0,0-4.712,1,1,0,0,1,1.414-1.414,5.331,5.331,0,0,1,0,7.54A1,1,0,0,1,1204.345,7779.119Z" transform="translate(-1188.164 -7768.996)" fill="#fff"/>
      <path id="Path_1289" data-name="Path 1289" d="M1160.894,7777.121a1,1,0,0,1-.707-.293,8.166,8.166,0,0,1,0-11.535,1,1,0,0,1,1.414,1.414,6.164,6.164,0,0,0,0,8.707,1,1,0,0,1-.707,1.707Z" transform="translate(-1157.801 -7765)" fill="#fff"/>
      <path id="Path_1290" data-name="Path 1290" d="M1213.3,7777.121a1,1,0,0,1-.707-1.707,6.164,6.164,0,0,0,0-8.707,1,1,0,0,1,1.414-1.414,8.166,8.166,0,0,1,0,11.535A1,1,0,0,1,1213.3,7777.121Z" transform="translate(-1194.137 -7765)" fill="#fff"/>
    </g>
    <rect id="Rectangle_11352" data-name="Rectangle 11352" width="32" height="32" transform="translate(1144 7759)" fill="none"/>
  </g>
</svg>
