<svg xmlns="http://www.w3.org/2000/svg" width="32" height="32" viewBox="0 0 32 32">
  <defs>
    <style>
      .a {
        fill: #fff;
      }

      .stroke-black {
        fill: #666;
      }

      .b {
        fill: none;
      }
    </style>
  </defs>
  <g transform="translate(-6791.063 -1519.315)">
    <g transform="translate(6795.28 1521.379)">
      <path class="stroke-black"
        d="M6815.508,1549.161a11.836,11.836,0,1,1,11.836-11.836A11.85,11.85,0,0,1,6815.508,1549.161Zm0-21.666a9.83,9.83,0,1,0,9.83,9.83A9.841,9.841,0,0,0,6815.508,1527.495Z"
        transform="translate(-6803.672 -1525.488)" />
      <g transform="translate(6.707 5.005)">
        <path class="stroke-black" d="M6832.981,1542.461h-8.252a1,1,0,1,1,0-2.007h8.252a1,1,0,0,1,0,2.007Z"
          transform="translate(-6823.726 -1540.454)" />
      </g>
      <path class="stroke-black"
        d="M6824.018,1588.238h-8.509a2.78,2.78,0,0,1-2.627-1.871l-2.524-7.3a1,1,0,0,1,1.9-.655l2.523,7.3a.775.775,0,0,0,.731.52h8.509a.767.767,0,0,0,.719-.492l2.865-7.366a1,1,0,1,1,1.87.728l-2.864,7.365A2.762,2.762,0,0,1,6824.018,1588.238Z"
        transform="translate(-6808.084 -1560.26)" />
      <path class="stroke-black"
        d="M15.1,19.091,12.8,15.119l-2.293-3.972a.405.405,0,0,0-.7,0L7.513,15.119,5.219,19.091a.405.405,0,0,0,.351.608h9.174a.405.405,0,0,0,.351-.608ZM9.8,14.4a.362.362,0,0,1,.724,0v2.273a.362.362,0,0,1-.724,0Zm.362,3.646a.394.394,0,1,1,.394-.394.394.394,0,0,1-.394.394Z"
        transform="translate(1.679 -2.226)" />
    </g>
    <rect class="b" width="32" height="32" transform="translate(6791.063 1519.315)" />
  </g>
</svg>
