<svg xmlns="http://www.w3.org/2000/svg" width="32" height="32" viewBox="0 0 32 32">
  <defs>
    <style>
      .a {
        fill: #ffff;
      }

      .stroke-black {
        fill: #666;
      }

      .b {
        fill: none;
      }
    </style>
  </defs>
  <g transform="translate(-568 -13903)">
    <rect class="b" width="32" height="32" transform="translate(568 13903)" />
    <g transform="translate(575.078 13905.236)">
      <path class="stroke-black"
        d="M604.592,13937.709H591.715a2.485,2.485,0,0,1-2.482-2.481v-19.788a2.485,2.485,0,0,1,2.482-2.481h1.968v-1.225a2.026,2.026,0,0,1,2.024-2.024H600.6a2.027,2.027,0,0,1,2.024,2.024v1.225h1.968a2.485,2.485,0,0,1,2.482,2.481v19.788A2.485,2.485,0,0,1,604.592,13937.709Zm-12.877-22.751a.482.482,0,0,0-.482.481v19.788a.482.482,0,0,0,.482.481h12.877a.482.482,0,0,0,.482-.481v-19.788a.482.482,0,0,0-.482-.481h-2.968a1,1,0,0,1-1-1v-2.225a.025.025,0,0,0-.024-.024h-4.893a.024.024,0,0,0-.024.024v2.225a1,1,0,0,1-1,1Z"
        transform="translate(-589.233 -13909.709)" />
      <rect class="stroke-black" width="9.547" height="10.835" rx="2" transform="translate(4.147 13.166)" />
    </g>
  </g>
</svg>
