<svg xmlns="http://www.w3.org/2000/svg" width="32" height="32" viewBox="0 0 32 32">
  <defs>
    <style>
      .a {
        fill: #fff;
      }

      .stroke-black {
        fill: #666;
      }

      .b {
        fill: none;
      }
    </style>
  </defs>
  <g transform="translate(-7171 -2287)">
    <rect class="b" width="32" height="32" transform="translate(7171 2287)" />
    <g transform="translate(7173.354 2292.961)">
      <path class="stroke-black"
        d="M7202.355,2328.451h-21.292a3,3,0,0,1-3-3v-12.333a3,3,0,0,1,3-3h21.292a3,3,0,0,1,3,3v12.333A3,3,0,0,1,7202.355,2328.451Zm-21.292-16.333a1,1,0,0,0-1,1v12.333a1,1,0,0,0,1,1h21.292a1,1,0,0,0,1-1v-12.333a1,1,0,0,0-1-1Z"
        transform="translate(-7178.063 -2308.373)" />
      <path class="stroke-black"
        d="M7193.694,2308.627a1,1,0,0,1-1-1v-1.745a1,1,0,0,1,2,0v1.745A1,1,0,0,1,7193.694,2308.627Z"
        transform="translate(-7187.817 -2304.882)" />
      <path class="stroke-black"
        d="M7242.582,2308.627a1,1,0,0,1-1-1v-1.745a1,1,0,0,1,2,0v1.745A1,1,0,0,1,7242.582,2308.627Z"
        transform="translate(-7220.409 -2304.882)" />
      <g transform="translate(12.668 6.489)">
        <path class="stroke-black"
          d="M7217.037,2345.12a.984.984,0,0,0-.672.252.909.909,0,0,0-.3.712.89.89,0,0,0,.309.72,1.009,1.009,0,0,0,.66.239.988.988,0,0,0,.682-.264.972.972,0,0,0,0-1.411A1.012,1.012,0,0,0,7217.037,2345.12Z"
          transform="translate(-7216.068 -2338.197)" />
        <path class="stroke-black"
          d="M7217.761,2324.665a.911.911,0,0,0-.708-.315.933.933,0,0,0-.71.3,1.18,1.18,0,0,0-.275.831v4.2a1.09,1.09,0,0,0,.277.78.941.941,0,0,0,.708.3.915.915,0,0,0,.7-.3,1.174,1.174,0,0,0,.265-.819v-4.161A1.208,1.208,0,0,0,7217.761,2324.665Z"
          transform="translate(-7216.068 -2324.35)" />
      </g>
    </g>
  </g>
</svg>
