<svg xmlns="http://www.w3.org/2000/svg" width="32" height="32" viewBox="0 0 32 32">
  <style>
      .fill-white {
        fill:  #666;
      }

           .fill-none {
        fill: none;
      }
    </style>
  </defs>
  <g transform="translate(-6983.063 -1519.315)">
    <rect class="fill-none" width="32" height="32" transform="translate(6983.063 1519.315)" />
    <g transform="translate(6984.084 1520.329)">
      <g transform="translate(0 0)">
        <g transform="translate(0 5.284)">
          <path class="fill-white" d="M7000.86,1556.034a10.558,10.558,0,1,1,10.558-10.558A10.57,10.57,0,0,1,7000.86,1556.034Zm0-19.117a8.558,8.558,0,1,0,8.558,8.559A8.567,8.567,0,0,0,7000.86,1536.918Z" transform="translate(-6990.302 -1534.918)" />
          <g transform="translate(5.917 4.417)">
            <g transform="translate(2.277 3.504)">
              <path  d="M7019.574,1562.75a.281.281,0,0,0-.243-.14h-1.715a.054.054,0,0,1-.043-.02.052.052,0,0,1-.011-.045l.768-3.522a.282.282,0,0,0-.52-.2l-2.888,5.05a.282.282,0,0,0,.244.422h1.728a.052.052,0,0,1,.042.02.053.053,0,0,1,.011.046l-.763,3.527a.277.277,0,0,0,.175.323.292.292,0,0,0,.1.019.278.278,0,0,0,.243-.144l2.87-5.055A.278.278,0,0,0,7019.574,1562.75Z" transform="translate(-7014.885 -1558.679)" />
            </g>
            <path class="fill-white" d="M7016.335,1550.168h-7.281a1,1,0,1,1,0-2h7.281a1,1,0,1,1,0,2Z" transform="translate(-7008.054 -1548.168)" />
          </g>
          <path class="fill-white" d="M7008.386,1590.668h-7.508a2.569,2.569,0,0,1-2.426-1.728l-2.227-6.443a1,1,0,0,1,1.891-.654l2.227,6.443a.568.568,0,0,0,.536.381h7.508a.564.564,0,0,0,.528-.361l2.528-6.5a1,1,0,1,1,1.863.725l-2.528,6.5A2.549,2.549,0,0,1,7008.386,1590.668Z" transform="translate(-6994.214 -1565.753)" />
        </g>
        <g transform="matrix(0.588, 0.809, -0.809, 0.588, 23.46, 0)">
          <path class="fill-white" d="M1.618.838a8.107,8.107,0,0,0-1-.845L-.006.62A7.173,7.173,0,0,1,1,1.457.437.437,0,0,0,1.618.838Z" transform="translate(9.743 1.444)" />
          <path class="fill-white" d="M5.734-.059h0A7.91,7.91,0,0,0,.1,2.274a.437.437,0,0,0,.619.618A7.047,7.047,0,0,1,5.731.814h0a7.137,7.137,0,0,1,2.131.325L8.551.454A7.941,7.941,0,0,0,5.734-.059Z" transform="translate(0 0.011)" />
          <path class="fill-white" d="M3.73-.038h0A5.089,5.089,0,0,0,.11,1.463a.437.437,0,0,0,.619.618A4.222,4.222,0,0,1,3.667.838L4.488.017A5.3,5.3,0,0,0,3.73-.038Z" transform="translate(2.002 2.509)" />
          <path class="fill-white" d="M.848,1.29A.437.437,0,0,0,1.467.672,5.145,5.145,0,0,0,.629-.007L-.006.629A4.232,4.232,0,0,1,.848,1.29Z" transform="translate(7.883 3.297)" />
          <path class="fill-white" d="M.964,1.184A.437.437,0,0,0,1.582.565,2.542,2.542,0,0,0,.706-.007L-.007.706A1.666,1.666,0,0,1,.964,1.184Z" transform="translate(5.957 5.146)" />
          <g transform="translate(5.154 7.606)">
            <path class="fill-white" d="M.165.165a.583.583,0,1,0,.824,0A.584.584,0,0,0,.165.165Z" transform="translate(0 0)" />
            <path class="fill-white" d="M.577-.006A.583.583,0,1,0,.99.165.585.585,0,0,0,.577-.006Z" transform="translate(0 0)" />
          </g>
          <path class="fill-white" d="M8.263.013a.329.329,0,0,0-.465,0L.014,7.8a.33.33,0,0,0,0,.466.324.324,0,0,0,.232.1.325.325,0,0,0,.233-.1L8.263.478A.329.329,0,0,0,8.263.013Z" transform="translate(2.156 -0.022)" />
        </g>
      </g>
    </g>
  </g>undefined
</svg>
