<svg xmlns="http://www.w3.org/2000/svg" width="32" height="32" viewBox="0 0 32 32">
  <defs>
  <style>
      .a {
        fill: #ffff;
      }
      .stroke-black {
        fill: #666;
      }
      .b {
        fill: none;
      }
    </style>
  </defs>
  <g transform="translate(-7171 -1899)">
    <g transform="translate(7175.387 1900.64)">
      <path class="stroke-black" d="M7193.989,1909.906v2.972a3.157,3.157,0,0,0,2.706,3.112l6.647.935a2.125,2.125,0,0,1,1.821,2.095V1932.3h-19v-22.39h7.827m.857-2h-9.541a1.143,1.143,0,0,0-1.143,1.143v24.1a1.143,1.143,0,0,0,1.143,1.143h20.715a1.143,1.143,0,0,0,1.143-1.143v-14.133a4.116,4.116,0,0,0-3.543-4.076l-6.647-.935a1.143,1.143,0,0,1-.984-1.132v-3.829a1.143,1.143,0,0,0-1.143-1.143Z" transform="translate(-7184.162 -1906.577)" />
      <path class="stroke-black" d="M7230.048,1913.59l-1.75-.969,2.737-4.942-2.285-1.6-5.884,6.809-1.513-1.308,6.161-7.131a1.526,1.526,0,0,1,2.035-.253l2.98,2.087a1.528,1.528,0,0,1,.461,1.994Z" transform="translate(-7208.956 -1903.918)" />
      <path class="stroke-black" d="M7198.837,1924.009h-2.018a1,1,0,0,1,0-2h2.018a1,1,0,0,1,0,2Z" transform="translate(-7191.933 -1915.979)" />
      <g transform="translate(8.188 13.72)">
        <path class="stroke-black" d="M7209.727,1952.052a1,1,0,0,1-.707-1.707l4.974-4.974a1,1,0,0,1,1.414,1.414l-4.974,4.974A1,1,0,0,1,7209.727,1952.052Z" transform="translate(-7208.727 -1945.079)" />
        <path class="stroke-black" d="M7214.7,1952.052a1,1,0,0,1-.707-.293l-4.974-4.974a1,1,0,0,1,1.414-1.414l4.974,4.974a1,1,0,0,1-.707,1.707Z" transform="translate(-7208.727 -1945.079)" />
      </g>
    </g>
    <rect class="b" width="32" height="32" transform="translate(7171 1899)" />
  </g>
</svg>
