<svg xmlns="http://www.w3.org/2000/svg" width="32" height="32" viewBox="0 0 32 32">
  <defs>
  <style>
      .a {
        fill: #ffff;
      }
      .stroke-black {
        fill: #666;
      }
      .b {
        fill: none;
      }
    </style>
  </defs>
  <g transform="translate(-7363 -1519)">
    <g transform="translate(7367.387 1520.64)">
      <path class="stroke-black" d="M7385.989,1529.906v2.972a3.157,3.157,0,0,0,2.706,3.112l6.647.935a2.126,2.126,0,0,1,1.821,2.1V1552.3h-19v-22.39h7.827m.857-2h-9.541a1.143,1.143,0,0,0-1.143,1.143v24.1a1.143,1.143,0,0,0,1.143,1.143h20.715a1.143,1.143,0,0,0,1.143-1.143v-14.133a4.116,4.116,0,0,0-3.543-4.076l-6.647-.935a1.143,1.143,0,0,1-.984-1.132v-3.829a1.143,1.143,0,0,0-1.143-1.143Z" transform="translate(-7376.162 -1526.577)" />
      <path class="stroke-black" d="M7422.048,1533.591l-1.75-.969,2.737-4.943-2.285-1.6-5.884,6.809-1.513-1.308,6.161-7.131a1.526,1.526,0,0,1,2.035-.253l2.98,2.087a1.528,1.528,0,0,1,.461,1.994Z" transform="translate(-7400.956 -1523.919)" />
      <path class="stroke-black" d="M7390.837,1544.009h-2.018a1,1,0,0,1,0-2h2.018a1,1,0,0,1,0,2Z" transform="translate(-7383.933 -1535.979)" />
      <path class="stroke-black" d="M7398.663,1571.259a6,6,0,1,1,6-6A6.007,6.007,0,0,1,7398.663,1571.259Zm0-10a4,4,0,1,0,4,4A4,4,0,0,0,7398.663,1561.259Z" transform="translate(-7387.163 -1547.479)" />
      <rect class="stroke-black" width="9.98" height="2" transform="matrix(0.719, -0.695, 0.695, 0.719, 7.219, 20.532)" />
    </g>
    <rect class="b" width="32" height="32" transform="translate(7363 1519)" />
  </g>
</svg>
