<svg xmlns="http://www.w3.org/2000/svg" width="32" height="32" viewBox="0 0 32 32"><defs><style>.a{fill:none;}.b{fill:#00b05f;}</style></defs><g transform="translate(-376 -13903)"><rect class="a" width="32" height="32" transform="translate(376 13903)"/><g transform="translate(383.185 13905.113)"><path class="b" d="M412.915,13937.34H400.038a2.485,2.485,0,0,1-2.482-2.481v-19.788a2.485,2.485,0,0,1,2.482-2.481h1.968v-1.225a2.027,2.027,0,0,1,2.024-2.024h4.893a2.027,2.027,0,0,1,2.024,2.024v1.225h1.968a2.485,2.485,0,0,1,2.482,2.481v19.788A2.485,2.485,0,0,1,412.915,13937.34Zm-12.877-22.751a.482.482,0,0,0-.482.481v19.788a.482.482,0,0,0,.482.481h12.877a.482.482,0,0,0,.482-.481v-19.788a.482.482,0,0,0-.482-.481h-2.968a1,1,0,0,1-1-1v-2.225a.025.025,0,0,0-.024-.024H404.03a.025.025,0,0,0-.024.024v2.225a1,1,0,0,1-1,1Z" transform="translate(-397.556 -13909.34)"/><rect class="b" width="9.645" height="16.418" rx="2" transform="translate(4.098 7.415)"/></g></g></svg>