<svg xmlns="http://www.w3.org/2000/svg" width="32" height="32" viewBox="0 0 32 32">
  <defs>
    <style>
      .a {
        fill: #fff;
      }

      .stroke-black {
        fill: #666;
      }

      .b {
        fill: none;
      }
    </style>
  </defs>
  <g transform="translate(-7363 -1900)">
    <g transform="translate(7365.148 1902.148)">
      <g transform="translate(10.112 8.549)">
        <path class="stroke-black" d="M7406.31,1934.092h-5.454a1,1,0,0,1,0-2h5.454a1,1,0,0,1,0,2Z"
          transform="translate(-7399.831 -1932.092)" />
        <path class="stroke-black" d="M7406.31,1941.25h-5.454a1,1,0,0,1,0-2h5.454a1,1,0,0,1,0,2Z"
          transform="translate(-7399.831 -1936.864)" />
        <path class="stroke-black"
          d="M7405.494,1942.343a1,1,0,0,1-1.418-.112l-3.143-3.714a1,1,0,0,1-.012-1.29,1.055,1.055,0,0,1,.822-.362h.794a1.427,1.427,0,0,0,1.441-1.248,1.388,1.388,0,0,0-1.379-1.524h-1.779a1.026,1.026,0,0,1-1.019-.8,1,1,0,0,1,.981-1.2h1.708a3.457,3.457,0,0,1,3.491,3.24,3.391,3.391,0,0,1-2.272,3.345l1.9,2.262a1,1,0,0,1-.114,1.4Z"
          transform="translate(-7399.782 -1932.092)" />
      </g>
      <path class="stroke-black"
        d="M7392.12,1938.56a9.44,9.44,0,1,1,9.44-9.44A9.45,9.45,0,0,1,7392.12,1938.56Zm0-16.88a7.44,7.44,0,1,0,7.44,7.44A7.448,7.448,0,0,0,7392.12,1921.68Z"
        transform="translate(-7378.269 -1915.268)" />
      <path class="stroke-black"
        d="M7383.3,1934.148a13.852,13.852,0,1,1,0-27.7,13.728,13.728,0,0,1,8.366,2.811,1,1,0,0,1-1.209,1.593,11.746,11.746,0,0,0-7.157-2.4,11.852,11.852,0,1,0,11.852,11.852,1,1,0,0,1,2,0A13.867,13.867,0,0,1,7383.3,1934.148Z"
        transform="translate(-7369.445 -1906.445)" />
      <g transform="translate(18.785 0.104)">
        <path class="stroke-black"
          d="M7433.479,1911.508a1,1,0,0,1-.978-.8l-.572-2.75a1,1,0,0,1,1.958-.407l.571,2.75a1,1,0,0,1-.98,1.2Z"
          transform="translate(-7429.873 -1906.758)" />
        <path class="stroke-black"
          d="M7426.8,1917.793a1,1,0,0,1-.288-1.958l2.607-.786a1,1,0,1,1,.577,1.915l-2.607.786A.989.989,0,0,1,7426.8,1917.793Z"
          transform="translate(-7425.801 -1912.257)" />
      </g>
    </g>
    <g transform="translate(7363 1900)">
      <rect class="b" width="32" height="32" />
    </g>
  </g>
</svg>
