<svg width="21" height="17" viewBox="0 0 21 17" fill="none" xmlns="http://www.w3.org/2000/svg">
<path fill-rule="evenodd" clip-rule="evenodd" d="M12.5192 4.63628C12.5192 5.06318 12.1575 5.40894 11.7116 5.40894C11.2654 5.40894 10.904 5.06316 10.904 4.63628V1.9318C10.904 1.71808 10.7231 1.54533 10.4975 1.54533H2.02201C1.79666 1.54533 1.61553 1.71862 1.61553 1.93423V15.0658C1.61553 15.2811 1.79666 15.4547 2.02201 15.4547H10.4975C10.7212 15.4547 10.904 15.28 10.904 15.0682V12.3637C10.904 11.9368 11.2654 11.591 11.7116 11.591C12.1575 11.591 12.5192 11.9368 12.5192 12.3637V15.0682C12.5192 16.1338 11.613 17 10.4975 17H2.02199C0.904231 17 0 16.1343 0 15.0658V1.93423C0 0.864834 0.904808 0 2.02199 0H10.4975C11.6147 0 12.5192 0.864282 12.5192 1.93182V4.63628ZM20.7041 9.1637L15.9347 13.6693C15.173 14.3964 14.0308 13.3055 14.7924 12.5789L17.9761 9.54179C18.1321 9.39275 18.0789 9.2712 17.8555 9.2712H9.0721C8.62421 9.2712 8.26248 8.92597 8.26248 8.49986C8.26248 8.07108 8.62502 7.72878 9.0721 7.72878H17.8555C18.0778 7.72878 18.1327 7.60751 17.9761 7.45793L14.7924 4.42111C14.0308 3.69399 15.173 2.60327 15.9347 3.33067L20.6984 7.80662C21.0987 8.18258 21.1004 8.78923 20.7041 9.16359L20.7041 9.1637Z" fill="#00479A"/>
</svg>
