<svg width="16" height="20" viewBox="0 0 16 20" fill="none" xmlns="http://www.w3.org/2000/svg">
<path d="M16 19.091C16 19.5932 15.6019 20 15.1112 20C14.6201 20 14.2221 19.5932 14.2221 19.091C14.2221 15.5763 11.4365 12.7275 8 12.7275C4.56349 12.7275 1.77794 15.5764 1.77794 19.091C1.77794 19.5932 1.37987 20 0.888809 20C0.398047 20 0 19.5932 0 19.091C0 14.5721 3.58167 10.9091 8 10.9091C12.4183 10.9091 16 14.5722 16 19.091ZM8 10C5.3 10 3.11095 7.76156 3.11095 4.99986C3.11095 2.23848 5.3 0 8 0C10.7 0 12.889 2.23848 12.889 4.99986C12.889 7.76148 10.7 10 8 10ZM8 8.18201C9.7181 8.18201 11.111 6.75741 11.111 4.99994C11.111 3.24279 9.7181 1.81819 8 1.81819C6.28191 1.81819 4.88897 3.24279 4.88897 4.99994C4.88897 6.75741 6.28191 8.18201 8 8.18201Z" fill="#00479A"/>
</svg>
