<svg width="22" height="22" viewBox="0 0 22 22" fill="none" xmlns="http://www.w3.org/2000/svg">
<path d="M0.603589 13.0573L2.86707 13.3393C3.04118 13.9448 3.2842 14.53 3.59347 15.0876L2.22574 16.9607C2.02512 17.235 2.0556 17.615 2.2965 17.8544L4.20671 19.7495C4.4492 19.9904 4.83215 20.0161 5.10483 19.8102L6.9491 18.4189C7.49079 18.7144 8.05923 18.9492 8.64893 19.1187L8.94363 21.4005C8.98762 21.7432 9.2794 22 9.62526 22H12.375C12.7201 22 13.0111 21.7448 13.0567 21.4035L13.3614 19.1124C13.9601 18.9382 14.537 18.6981 15.0848 18.395L16.9593 19.7733C17.2336 19.9755 17.6144 19.9458 17.8545 19.7041L19.7504 17.7955C19.9921 17.5517 20.0178 17.1671 19.8089 16.8944L18.4099 15.0608C18.7086 14.5175 18.945 13.947 19.1159 13.3557L21.4016 13.057C21.7443 13.0122 22.0003 12.7205 22.0003 12.3754V9.62481C22.0003 9.27976 21.7443 8.98798 21.4024 8.94318L19.1048 8.64239C18.9269 8.03762 18.6823 7.45539 18.3723 6.9047L19.7704 5.04829C19.9772 4.77399 19.9499 4.38946 19.7058 4.14725L17.7971 2.25054C17.5538 2.00885 17.1688 1.98314 16.8961 2.19118L15.0298 3.61217C14.4911 3.3188 13.9258 3.08717 13.3422 2.91833L13.0595 0.603967C13.0176 0.258919 12.7245 0 12.377 0H9.62587C9.28002 0 8.98825 0.256002 8.94424 0.598668L8.64266 2.91995C8.03869 3.09459 7.45722 3.33549 6.90497 3.64188L5.05249 2.23303C4.7782 2.0242 4.39154 2.05149 4.14827 2.29531L2.25156 4.20396C2.00774 4.45016 1.98416 4.8392 2.19749 5.11192L3.61 6.91799C3.30232 7.46816 3.05824 8.04854 2.88122 8.65276L0.601057 8.94215C0.257597 8.98535 0 9.27793 0 9.62459V12.3744C0.00106006 12.7221 0.259184 13.0147 0.603438 13.0573L0.603589 13.0573ZM1.3764 10.2312L3.51613 9.9593C3.80181 9.92273 4.03423 9.71231 4.0997 9.43193C4.2799 8.65226 4.5905 7.91365 5.02224 7.23684C5.17886 6.99143 5.16429 6.67315 4.98434 6.44367L3.65528 4.74384L4.69994 3.69307L6.44081 5.01759C6.66873 5.19091 6.98118 5.20522 7.22339 5.05178C7.90183 4.62404 8.63964 4.31771 9.4172 4.14145C9.69837 4.07758 9.90959 3.84516 9.9467 3.55948L10.2308 1.37572H11.7679L12.0339 3.5512C12.0689 3.83927 12.2817 4.07487 12.565 4.13847C13.3233 4.3094 14.0491 4.60729 14.7206 5.02227C14.9631 5.17201 15.2724 5.15664 15.4987 4.98438L17.2531 3.64846L18.3124 4.70086L16.9963 6.44865C16.8238 6.67815 16.8116 6.99114 16.9666 7.23286C17.3984 7.90759 17.7089 8.64381 17.8892 9.42056C17.9538 9.70015 18.1855 9.90977 18.4698 9.94714L20.6279 10.2299V11.7731L18.4805 12.0535C18.1948 12.0906 17.9629 12.3021 17.8993 12.583C17.726 13.3468 17.4244 14.0753 17.0041 14.7479C16.8523 14.9904 16.8666 15.3018 17.0407 15.5296L18.356 17.2538L17.2999 18.3168L15.5378 17.0207C15.3107 16.8534 15.0035 16.842 14.765 16.9926C14.0926 17.415 13.3607 17.719 12.5919 17.8952C12.3123 17.9591 12.1019 18.1899 12.0637 18.4751L11.7772 20.6278H10.234L9.95657 18.4843C9.91947 18.1978 9.70798 17.9654 9.42628 17.9015C8.6633 17.729 7.9369 17.4303 7.26613 17.0132C7.02443 16.8635 6.71595 16.8772 6.48965 17.0482L4.75644 18.3557L3.68899 17.2965L4.97456 15.5352C5.14019 15.3081 5.1508 15.0025 5.00106 14.764C4.57014 14.0786 4.26482 13.3393 4.09155 12.5657C4.02847 12.2824 3.79367 12.0696 3.5056 12.0338L1.37964 11.7694V10.2312L1.3764 10.2312Z" fill="#00479A"/>
</svg>
