<svg width="22" height="22" viewBox="0 0 22 22" fill="none" xmlns="http://www.w3.org/2000/svg">
<path fill-rule="evenodd" clip-rule="evenodd" d="M16.8929 10.3198L8.64286 5.55675C8.39978 5.41645 8.10022 5.41645 7.85714 5.55675C7.61407 5.69706 7.46429 5.95662 7.46429 6.23723V15.7637C7.46429 16.0443 7.61407 16.3039 7.85714 16.4442C8.10022 16.5845 8.39978 16.5845 8.64286 16.4442L16.8929 11.6811C17.1359 11.5405 17.2857 11.2809 17.2857 11.0003C17.2857 10.7197 17.1359 10.4601 16.8929 10.3198ZM9.03572 14.4024V7.5979L14.9286 11.0004L9.03572 14.4024ZM11 0C4.92477 0 0 4.92477 0 11C0 17.0752 4.92477 22 11 22C17.0752 22 22 17.0752 22 11C22 4.92477 17.0752 0 11 0ZM11 20.4286C5.79291 20.4286 1.57143 16.2071 1.57143 11C1.57143 5.79291 5.79291 1.57143 11 1.57143C16.2071 1.57143 20.4286 5.79291 20.4286 11C20.4286 16.2071 16.2071 20.4286 11 20.4286Z" fill="#00479A"/>
</svg>
