<svg xmlns="http://www.w3.org/2000/svg" viewBox="0 0 96 96"><defs><style>.cls-1{fill:none;}.cls-2{fill:#231f20;}</style></defs><g id="Layer_2" data-name="Layer 2"><g id="Layer_1-2" data-name="Layer 1"><rect class="cls-1" width="96" height="96"/><path class="cls-2" d="M80.11,22.59H76.75V20.36a3,3,0,0,0-6,0v2.23H27.87V20.36a3,3,0,0,0-6,0v2.23H16.23a9,9,0,0,0-9,9v37a9,9,0,0,0,9,9H80.11a9,9,0,0,0,9-9v-37A9,9,0,0,0,80.11,22.59ZM40.29,53.09H35v5.29a3,3,0,0,1-6,0V53.09H23.71a3,3,0,0,1,0-6H29V41.82a3,3,0,0,1,6,0V47.1h5.3a3,3,0,0,1,0,6Zm34.74,0H58.45a3,3,0,0,1,0-6H75a3,3,0,0,1,0,6Z"/></g></g></svg>