<svg id="Layer_1" data-name="Layer 1" xmlns="http://www.w3.org/2000/svg" viewBox="0 0 32 32"><defs><style>.cls-1{fill:none;}</style></defs><g id="Cooler"><path d="M21.94,19.78a1,1,0,0,0-1,1v2.55a.29.29,0,0,1-.29.29H10.77a.29.29,0,0,1-.28-.29V20.78a1,1,0,0,0-2,0v2.55a2.28,2.28,0,0,0,2.28,2.29h9.88a2.3,2.3,0,0,0,2.29-2.29V20.78A1,1,0,0,0,21.94,19.78Z"/><path d="M26.75,1.9H5.07A3.26,3.26,0,0,0,1.81,5.16V29A1.12,1.12,0,0,0,2.94,30.1h26A1.14,1.14,0,0,0,30,29V5.16A3.28,3.28,0,0,0,26.75,1.9ZM5.07,3.9H26.75A1.27,1.27,0,0,1,28,5.16V16H24.5a6.82,6.82,0,0,0-.22-2.29.56.56,0,0,1,0-.4l1.83-4a1.25,1.25,0,0,0-.63-1.65L23,6.51a1.25,1.25,0,0,0-1.66.62l-1.82,4a.63.63,0,0,1-.28.28A6.87,6.87,0,0,0,15.54,16H15a6.84,6.84,0,0,0-1.56-4.89.59.59,0,0,1-.14-.38V6.34a1.25,1.25,0,0,0-1.25-1.25H9.3A1.25,1.25,0,0,0,8.05,6.34v4.43a.59.59,0,0,1-.14.38A6.83,6.83,0,0,0,6.36,16H3.81V5.16A1.25,1.25,0,0,1,5.07,3.9ZM22.35,14.28A4.75,4.75,0,0,1,22.49,16H17.63a4.81,4.81,0,0,1,2.45-2.79A2.56,2.56,0,0,0,21.31,12l1.52-3.35L24,9.17l-1.51,3.36A2.58,2.58,0,0,0,22.35,14.28ZM8.37,16a4.84,4.84,0,0,1,1.08-3.61,2.58,2.58,0,0,0,.6-1.66V7.09h1.29v3.68a2.64,2.64,0,0,0,.6,1.66A4.79,4.79,0,0,1,13,16ZM3.81,28.1V18H28V28.1Z"/><rect id="Rectangle_14709" data-name="Rectangle 14709" class="cls-1" width="32" height="32"/></g></svg>