<!-- <svg width="150" height="150" viewBox="0 0 43 47" fill="none" xmlns="http://www.w3.org/2000/svg">
  <circle cx="21.1985" cy="23.8634" r="2.51289" stroke="#000000" stroke-width="2" />
  <circle cx="3.51289" cy="34.0386" r="2.51289" stroke="#000000" stroke-width="2" />
  <circle cx="38.6417" cy="34.0386" r="2.51289" stroke="#000000" stroke-width="2" />
  <circle cx="20.9561" cy="3.51289" r="2.51289" stroke="#000000" stroke-width="2" />
  <path d="M24.5737 14.7173C27.7397 16.232 31.0103 20.4717 30.3882 24.6503" stroke="#000000" stroke-width="2" />
  <path d="M26.7838 31.5646C24.1057 33.433 18.7758 34.1598 15.2742 31.518" stroke="#000000" stroke-width="2" />
  <path d="M11.3142 24.876C10.7809 20.4717 13.3247 16.4742 17.2863 15.037" stroke="#000000" stroke-width="2" />
  <path d="M23.1223 18.3036C25.0899 19.245 27.1226 21.8799 26.7359 24.4769" stroke="#000000" stroke-width="2" />
  <path d="M24.4959 28.7741C22.8314 29.9353 19.5189 30.387 17.3427 28.7452" stroke="#000000" stroke-width="2" />
  <path d="M14.8817 24.6172C14.5503 21.8799 16.1312 19.3956 18.5933 18.5023" stroke="#000000" stroke-width="2" />
  <line x1="21.3505" y1="6.02579" x2="21.3505" y2="21.3458" stroke="#000000" stroke-width="2" />
  <line x1="18.4778" y1="25.5685" x2="6.22562" y2="32.9304" stroke="#000000" stroke-width="2" />
  <line x1="24" y1="25.0567" x2="36.169" y2="32.0824" stroke="#000000" stroke-width="2" />
  <line x1="21.3505" y1="33.433" x2="21.3505" y2="43.1237" stroke="#000000" stroke-width="2" />
  <line x1="4.39132" y1="13.6789" x2="12.6979" y2="18.67" stroke="#000000" stroke-width="2" />
  <line x1="36.6755" y1="14.9176" x2="29.1224" y2="19.2784" stroke="#000000" stroke-width="2" />
  <circle cx="38.3995" cy="13.4459" r="2.54381" fill="#000000" />
  <circle cx="3.75512" cy="13.9304" r="2.54381" fill="#000000" />
  <circle cx="21.2438" cy="44.4562" r="2.54381" fill="#000000" />
</svg> -->

<svg width="34" height="34" viewBox="0 0 34 34" fill="none" xmlns="http://www.w3.org/2000/svg"><path fill-rule="evenodd" clip-rule="evenodd" d="M27.0639 16.2035C27.4263 14.6482 28.8208 13.4847 30.4852 13.4847C32.4234 13.4847 34 15.0613 34 16.9999C34 18.938 32.4233 20.5151 30.4854 20.5161C28.8214 20.5161 27.4269 19.3533 27.0641 17.7977H24.386C24.2302 19.2501 23.6534 20.5766 22.7816 21.6567L24.6787 23.5533C25.2308 23.2084 25.8678 23.0204 26.5349 23.0204C27.4741 23.0204 28.357 23.3858 29.0211 24.0499C30.3912 25.4207 30.3912 27.6503 29.0211 29.0209C28.3571 29.6849 27.4741 30.0504 26.5349 30.0504C25.5958 30.0504 24.7133 29.6845 24.0492 29.0209C23.3852 28.3568 23.0197 27.4739 23.0197 26.5347C23.0197 25.868 23.2075 25.231 23.5519 24.6791L21.6548 22.7825C20.5748 23.6532 19.2483 24.2295 17.7969 24.3858V27.0638C19.3524 27.4262 20.5152 28.8207 20.5152 30.4852C20.5152 32.4233 18.9381 34 17 34C15.0614 34 13.4847 32.4233 13.4836 30.4843C13.4836 28.8203 14.6471 27.4258 16.2019 27.0629V24.3848C14.75 24.2291 13.424 23.6523 12.344 22.7809L10.4469 24.6775C10.7917 25.2296 10.9798 25.8666 10.9798 26.5338C10.9793 27.4729 10.6139 28.3559 9.94977 29.0199C9.28616 29.684 8.4032 30.0495 7.46449 30.0495C6.52579 30.0495 5.64289 29.684 4.97879 29.0199C3.60867 27.6499 3.60824 25.4195 4.97832 24.049C5.64284 23.3849 6.52532 23.0194 7.46451 23.0194C8.13115 23.0194 8.76817 23.2075 9.32005 23.5523L11.2176 21.6553C10.3465 20.5747 9.76998 19.2487 9.6144 17.7968H6.93587C6.57371 19.3524 5.17916 20.5152 3.51523 20.5152C1.57669 20.5152 0 18.9381 0 17C0 15.0613 1.57663 13.4847 3.51572 13.484C5.17941 13.484 6.57396 14.6475 6.93635 16.2024H9.61488C9.77043 14.7504 10.3467 13.4239 11.2181 12.3439L9.32151 10.4473C8.76889 10.7921 8.13188 10.9802 7.46475 10.9802C6.52605 10.9802 5.64314 10.6148 4.97905 9.95069C3.60849 8.57964 3.60849 6.34931 4.97905 4.97875C5.64308 4.31468 6.52605 3.94922 7.46475 3.94922C8.40394 3.94922 9.28684 4.31465 9.95093 4.97875C11.127 6.15484 11.2907 7.96394 10.4476 9.31957L12.3451 11.2171C13.4252 10.3461 14.7516 9.76949 16.2036 9.61391V6.93587C14.6483 6.57371 13.4847 5.17916 13.4847 3.51523C13.4847 1.57669 15.0613 0 17 0C18.9381 0 20.5152 1.57663 20.5145 3.51523C20.5145 5.17892 19.3517 6.573 17.7962 6.93587V9.6144C19.2486 9.77019 20.5746 10.347 21.6546 11.2183L23.5517 9.32127C22.7086 7.96491 22.8715 6.15605 24.0483 4.97923C24.7123 4.31517 25.5953 3.9497 26.5345 3.9497C27.4737 3.9497 28.3566 4.31514 29.0207 4.97923C30.3908 6.35028 30.3903 8.58062 29.0202 9.95118C28.3562 10.6152 27.4737 10.9807 26.5345 10.9807C25.8674 10.9807 25.2308 10.7933 24.679 10.4485L22.7819 12.3456C23.6532 13.4256 24.2302 14.7516 24.3858 16.2035H27.0639ZM26.5355 5.54369C26.0223 5.54369 25.5394 5.74338 25.1761 6.10672C24.4264 6.8552 24.4264 8.074 25.1764 8.82413L25.1773 8.8246L25.1778 8.82555C25.9033 9.54916 27.1683 9.55032 27.8945 8.8246C28.6435 8.07569 28.6435 6.85594 27.8945 6.10624C27.5316 5.74339 27.0492 5.54369 26.5355 5.54369ZM17.0002 1.59371C15.9403 1.59371 15.0787 2.45603 15.0787 3.51519C15.0787 4.57508 15.9403 5.43668 17.0002 5.43668C18.0596 5.43668 18.9217 4.5746 18.9217 3.51519C18.9217 2.45603 18.0596 1.59371 17.0002 1.59371ZM6.10636 6.10599C5.35667 6.8552 5.35739 8.07422 6.10636 8.82392C6.83141 9.55012 8.09832 9.54964 8.82477 8.82343C9.57399 8.07374 9.57327 6.85496 8.8243 6.10599C8.46141 5.74266 7.97855 5.54296 7.46533 5.54296C6.95211 5.54296 6.46923 5.74312 6.10636 6.10599ZM1.59384 16.9998C1.59384 18.0592 2.45617 18.9213 3.51533 18.9213C4.57521 18.9213 5.43681 18.0592 5.43681 16.9998C5.43681 15.9407 4.57473 15.0783 3.51533 15.0783C2.45617 15.0783 1.59384 15.9399 1.59384 16.9998ZM22.8357 16.9995C22.8357 13.7819 20.2177 11.1638 16.9993 11.1638C13.7815 11.1638 11.1642 13.7817 11.1642 16.9995C11.1642 20.2171 13.7815 22.8352 16.9993 22.8352C20.2172 22.8352 22.8357 20.2178 22.8357 16.9995ZM6.10612 27.8932C6.83184 28.6182 8.09834 28.6189 8.82357 27.8936C9.18643 27.5303 9.38685 27.0479 9.38709 26.5347C9.38709 26.0215 9.18693 25.5391 8.82406 25.1757C8.46118 24.8124 7.9788 24.6127 7.4651 24.6127C6.9514 24.6127 6.46899 24.8124 6.10565 25.1757C5.35715 25.9249 5.35715 27.1442 6.10612 27.8932ZM17.0001 32.4055C18.0595 32.4055 18.9215 31.5438 18.9215 30.4844C18.9215 29.4245 18.0595 28.5625 17.0001 28.5625C15.9409 28.5625 15.0786 29.4245 15.0786 30.4844C15.0786 31.5439 15.9402 32.4055 17.0001 32.4055ZM27.8945 27.8932C28.643 27.1439 28.643 25.9247 27.8945 25.1757C27.5311 24.8124 27.0488 24.6124 26.5355 24.6122C26.0223 24.6122 25.5399 24.8119 25.1766 25.1752C24.8132 25.5386 24.6135 26.021 24.6135 26.5342C24.6135 27.0479 24.8132 27.5303 25.1766 27.8936C25.9014 28.6184 27.1678 28.6189 27.8945 27.8932ZM28.5633 16.9994C28.5633 18.0586 29.4254 18.9209 30.4853 18.9209C31.5448 18.9209 32.4064 18.0589 32.4064 16.9994C32.4064 15.9396 31.5447 15.078 30.4853 15.078C29.4257 15.078 28.5633 15.9396 28.5633 16.9994ZM15.5869 20.1075C15.2758 19.7964 15.2758 19.2922 15.5865 18.9803L15.5865 18.9803C16.3414 18.2253 17.6596 18.2253 18.4149 18.9803C18.7263 19.2917 18.7263 19.7957 18.4149 20.107C18.1035 20.4184 17.5995 20.4184 17.2881 20.107C17.2111 20.03 17.1091 19.988 17.0007 19.988C16.9378 19.988 16.8174 20.0034 16.7137 20.107C16.5586 20.2626 16.3539 20.3402 16.15 20.3402C15.946 20.3402 15.7425 20.2626 15.5869 20.1075ZM17 16.0742C15.998 16.0742 15.0557 16.4646 14.3468 17.1735C14.0354 17.4848 14.0354 17.9888 14.3468 18.3002C14.6582 18.6116 15.1629 18.6116 15.4736 18.3002C15.8815 17.8923 16.4235 17.668 17 17.668C17.5764 17.668 18.1188 17.8928 18.5269 18.3002C18.6825 18.4558 18.8864 18.5334 19.0906 18.5334C19.2946 18.5334 19.4985 18.4558 19.6544 18.3002C19.9658 17.9888 19.9658 17.4842 19.6544 17.1735C18.9443 16.4648 18.0025 16.0742 17 16.0742H17ZM17.0003 15.2493C15.8709 15.2493 14.8084 15.6897 14.0099 16.4883H14.01C13.6993 16.799 13.1939 16.799 12.8839 16.4883C12.5725 16.1775 12.5725 15.6729 12.8839 15.3615C13.9832 14.262 15.4455 13.6562 17.0011 13.6562C18.5564 13.6562 20.019 14.2618 21.1187 15.3615C21.4301 15.6722 21.4301 16.1769 21.1187 16.4883C20.9629 16.6438 20.7589 16.7214 20.555 16.7214C20.3508 16.7214 20.1468 16.6438 19.9912 16.4883C19.1922 15.6893 18.1302 15.2493 17.0003 15.2493Z" fill="#000000"/></svg>