<svg id="Layer_1" data-name="Layer 1" xmlns="http://www.w3.org/2000/svg" viewBox="0 0 32 32"><defs><style>.cls-1{fill:none;}</style></defs><g id="Diesel_Generator_" data-name="Diesel Generator "><path d="M26.9,9.13V5.72A1.77,1.77,0,0,0,25.13,4H22.56a1.77,1.77,0,0,0-1.77,1.77V9H13.13V7.31h.28A1.39,1.39,0,0,0,14.8,5.92v-2a1.39,1.39,0,0,0-1.39-1.39H5.21A1.39,1.39,0,0,0,3.82,3.92v2A1.39,1.39,0,0,0,5.21,7.31H5.9V9.05a4.68,4.68,0,0,0-4.6,4.67V24.61a1.54,1.54,0,0,0,1.54,1.54h.79v2a1.29,1.29,0,0,0,1.29,1.29H8.41A1.29,1.29,0,0,0,9.7,28.18v-2H22.3v2a1.29,1.29,0,0,0,1.29,1.29h3.49a1.29,1.29,0,0,0,1.29-1.29v-2h.79a1.55,1.55,0,0,0,1.54-1.53V13.72A4.7,4.7,0,0,0,26.9,9.13ZM22.79,6H24.9V9H22.79Zm-17-1.42h7v.78h-7Zm5.31,2.78V9H7.9V7.31ZM7.7,27.47H5.63V26.15H7.7Zm18.67,0H24.3V26.15h2.07Zm2.33-3.32H3.3V13.72A2.69,2.69,0,0,1,6,11H26a2.69,2.69,0,0,1,2.68,2.68Z"/><path d="M10.34,13.26h-4a1,1,0,0,0,0,2h4a1,1,0,0,0,0-2Z"/><path d="M10.34,16.6h-4a1,1,0,1,0,0,2h4a1,1,0,0,0,0-2Z"/><path d="M10.34,19.93h-4a1,1,0,1,0,0,2h4a1,1,0,0,0,0-2Z"/><path d="M21.78,12.6a5,5,0,1,0,5,5h0A5,5,0,0,0,21.78,12.6Zm3,5a3,3,0,1,1-3-3h0a3,3,0,0,1,3,3Z"/><path d="M22.47,16.6H21.09a1,1,0,1,0,0,2h1.38a1,1,0,0,0,0-2Z"/><rect id="Rectangle_14446" data-name="Rectangle 14446" class="cls-1" width="32" height="32"/></g></svg>