<svg xmlns="http://www.w3.org/2000/svg" viewBox="0 0 96 96"><defs><style>.cls-1{fill:none;}.cls-2{fill:#231f20;}</style></defs><g id="Layer_2" data-name="Layer 2"><g id="Layer_1-2" data-name="Layer 1"><rect class="cls-1" width="96" height="96"/><path class="cls-2" d="M80.46,26.23V21.66a5.85,5.85,0,0,0-5.84-5.84H63.28a5.85,5.85,0,0,0-5.84,5.84v4.55h-19V21.66a5.85,5.85,0,0,0-5.84-5.84H21.28a5.85,5.85,0,0,0-5.84,5.84v4.59a9,9,0,0,0-8.16,9v37a9,9,0,0,0,9,9H80.15a9,9,0,0,0,9-9v-37A9,9,0,0,0,80.46,26.23Zm-48,0h-11V21.82h11ZM55.78,53.06l-9.4,16.55a.9.9,0,0,1-.79.47,1.06,1.06,0,0,1-.34-.06A.92.92,0,0,1,44.68,69l2.5-11.55a.17.17,0,0,0,0-.15A.18.18,0,0,0,47,57.2H41.35a.89.89,0,0,1-.79-.46.92.92,0,0,1,0-.92L50,39.29a.92.92,0,0,1,1.7.65L49.19,51.47a.21.21,0,0,0,0,.15.18.18,0,0,0,.14.07H55a.93.93,0,0,1,.8.45A.94.94,0,0,1,55.78,53.06ZM74.46,26.21h-11V21.82h11Z"/></g></g></svg>