<svg id="Layer_1" data-name="Layer 1" xmlns="http://www.w3.org/2000/svg" viewBox="0 0 32 32"><defs><style>.cls-1{fill:none;}</style></defs><g id="HVAC"><path d="M28.22,11.25H22.56V8.63a1,1,0,1,0-2,0v2.62h-3V8.63a1,1,0,1,0-2,0v2.62h-3V8.63a1,1,0,1,0-2,0v2.62H4a1.81,1.81,0,0,0-1.8,1.81v10.5A1.81,1.81,0,0,0,4,25.36h2.6a1,1,0,0,0,0-2H4.16V13.25H28V23.36H25.71a1,1,0,0,0,0,2h2.51a1.81,1.81,0,0,0,1.8-1.8V13.06A1.81,1.81,0,0,0,28.22,11.25Z"/><path d="M22.24,25a4.91,4.91,0,0,0,.12-6l-.18-.24a1,1,0,1,0-1.6,1.2l.18.24a2.9,2.9,0,0,1-.07,3.57l-.09.11a4.93,4.93,0,0,0,0,6.18,1,1,0,0,0,1.41.15,1,1,0,0,0,.15-1.41,2.92,2.92,0,0,1,0-3.66Z"/><path d="M16.91,25A4.94,4.94,0,0,0,17,19l-.18-.24a1,1,0,0,0-1.6,1.2l.17.24a2.9,2.9,0,0,1-.07,3.57l-.08.11a4.93,4.93,0,0,0,0,6.18,1,1,0,0,0,.78.37,1,1,0,0,0,.77-1.63,2.92,2.92,0,0,1,0-3.66Z"/><path d="M11.57,25a4.91,4.91,0,0,0,.12-6l-.17-.24a1,1,0,0,0-1.61,1.2l.18.24A2.9,2.9,0,0,1,10,23.73l-.08.11a4.91,4.91,0,0,0,0,6.18,1,1,0,0,0,.78.37,1,1,0,0,0,.62-.22,1,1,0,0,0,.15-1.41,2.92,2.92,0,0,1,0-3.66Z"/><path d="M23.23,6.49a1,1,0,1,0-1-1A1,1,0,0,0,23.23,6.49Z"/><path d="M14.07,4.9a1,1,0,1,0-1-1A1,1,0,0,0,14.07,4.9Z"/><path d="M19.85,3.74A.86.86,0,1,0,19,2.89.85.85,0,0,0,19.85,3.74Z"/><path d="M10.59,6.62a.86.86,0,1,0-.85-.86A.85.85,0,0,0,10.59,6.62Z"/><path d="M17.64,7a.73.73,0,1,0,0-1.45.73.73,0,1,0,0,1.45Z"/><g id="Rectangle_14476" data-name="Rectangle 14476"><rect class="cls-1" width="32" height="32"/></g></g></svg>