<?xml version="1.0" encoding="utf-8"?>
<!-- Generator: Adobe Illustrator 23.0.1, SVG Export Plug-In . SVG Version: 6.00 Build 0)  -->
<svg version="1.1" xmlns="http://www.w3.org/2000/svg" xmlns:xlink="http://www.w3.org/1999/xlink" x="0px" y="0px"
	 viewBox="0 0 96 96" style="enable-background:new 0 0 96 96;" xml:space="preserve">
<style type="text/css">
	.tracker0{display:none;}
	.tracker1{display:inline;opacity:0.62;}
	.tracker2{fill:none;stroke:#E9E8E8;stroke-width:0.5;stroke-miterlimit:10;}
	.tracker3{fill:#808080;}
	.tracker4{fill:#E9E8E8;}
	.tracker5{fill:none;}
</style>
<g id="Grid" class="tracker0">
	<g class="tracker1">
		<line class="tracker2" x1="67" y1="-0.26" x2="67" y2="95.74"/>
		<line class="tracker2" x1="29" y1="-0.26" x2="29" y2="95.74"/>
		<line class="tracker2" x1="48" y1="95.74" x2="48" y2="-0.26"/>
		<line class="tracker2" x1="0" y1="-0.26" x2="96" y2="95.74"/>
		<line class="tracker2" x1="96" y1="-0.26" x2="0" y2="95.74"/>
		<g>
			<g>
				<path class="tracker3" d="M95.5,0.24v95h-95v-95H95.5 M96-0.26H0v96h96V-0.26L96-0.26z"/>
			</g>
		</g>
		<g>
			<g>
				<path class="tracker3" d="M79.5,0.24v95h-63v-95H79.5 M80-0.26H16v96h64V-0.26L80-0.26z"/>
			</g>
		</g>
		<line class="tracker2" x1="0" y1="28.74" x2="96" y2="28.74"/>
		<line class="tracker2" x1="0" y1="66.74" x2="96" y2="66.74"/>
		<line class="tracker2" x1="96" y1="47.74" x2="0" y2="47.74"/>
		<g>
			<g>
				<path class="tracker3" d="M89.5,6.24v83h-83v-83H89.5 M90,5.74H6v84h84V5.74L90,5.74z"/>
			</g>
		</g>
		<g>
			<g>
				<path class="tracker3" d="M95.5,16.24v63h-95v-63H95.5 M96,15.74H0v64h96V15.74L96,15.74z"/>
			</g>
		</g>
		<g>
			<path class="tracker4" d="M48,29.74c9.94,0,18,8.06,18,18s-8.06,18-18,18s-18-8.06-18-18S38.06,29.74,48,29.74 M48,29.24
				c-10.2,0-18.5,8.3-18.5,18.5s8.3,18.5,18.5,18.5s18.5-8.3,18.5-18.5S58.2,29.24,48,29.24L48,29.24z"/>
		</g>
		<g>
			<path class="tracker4" d="M48,21.24c14.61,0,26.5,11.89,26.5,26.5S62.61,74.24,48,74.24s-26.5-11.89-26.5-26.5S33.39,21.24,48,21.24
				 M48,20.74c-14.91,0-27,12.09-27,27s12.09,27,27,27s27-12.09,27-27S62.91,20.74,48,20.74L48,20.74z"/>
		</g>
	</g>
</g>
<g id="Icons">
	<g>
		<rect class="tracker5" width="96" height="96"/>
	</g>
	<g>
		<rect x="768" y="-225.26" class="tracker5" width="96" height="96"/>
	</g>
	<g>
		<g>
			<circle cx="62" cy="48" r="6.09"/>
		</g>
		<g>
			<path d="M63.08,27.83c6.02,0,10.92,4.9,10.92,10.92v18.5c0,6.02-4.9,10.92-10.92,10.92H32.92C26.9,68.17,22,63.27,22,57.25v-18.5
				c0-6.02,4.9-10.92,10.92-10.92H63.08 M63.08,21.83H32.92c-9.3,0-16.92,7.61-16.92,16.92v18.5c0,9.3,7.61,16.92,16.92,16.92h30.17
				c9.3,0,16.92-7.61,16.92-16.92v-18.5C80,29.45,72.39,21.83,63.08,21.83L63.08,21.83z"/>
		</g>
		<g>
			<path d="M74.23,26.04h-0.03c2.22,1.95,3.93,4.46,4.9,7.31c2.93,1.69,4.9,4.85,4.9,8.46v12.37c0,3.62-1.98,6.77-4.9,8.46
				c-0.97,2.85-2.68,5.36-4.9,7.31h0.03c8.68,0,15.77-7.1,15.77-15.77V41.81C90,33.14,82.9,26.04,74.23,26.04z"/>
			<path d="M16.9,62.65c-2.93-1.69-4.9-4.85-4.9-8.46V41.81c0-3.62,1.98-6.77,4.9-8.46c0.97-2.85,2.68-5.36,4.9-7.31h-0.03
				C13.1,26.04,6,33.14,6,41.81v12.37c0,8.68,7.1,15.77,15.77,15.77h0.03C19.58,68.01,17.87,65.5,16.9,62.65z"/>
		</g>
	</g>
</g>
</svg>
