<svg xmlns="http://www.w3.org/2000/svg" width="32" height="32" viewBox="0 0 32 32"><defs><style>.f{fill:#212529;}.z{fill:none;}</style></defs><g transform="translate(-0.483 -0.414)"><g transform="translate(2.116 7.522)"><path class="f" d="M8353.074,2225.053h-.782a2.2,2.2,0,0,0-2.193,2.194v6.266a2.2,2.2,0,0,0,2.193,2.194h.782Z" transform="translate(-8350.099 -2221.007)"/><path class="f" d="M8425.746,2225.053h-.855v10.654h.855a2.2,2.2,0,0,0,2.193-2.194v-6.266A2.2,2.2,0,0,0,8425.746,2225.053Z" transform="translate(-8399.581 -2221.007)"/><path class="f" d="M8379.627,2213.1h-15.172a2.568,2.568,0,0,0-2.565,2.566v12.4a2.568,2.568,0,0,0,2.565,2.566h15.172a2.569,2.569,0,0,0,2.566-2.566v-12.4A2.569,2.569,0,0,0,8379.627,2213.1Zm-8.564,4.826a1.016,1.016,0,0,1,2.031,0v4.566a1.016,1.016,0,0,1-2.031,0Zm1.016,8.893a1.354,1.354,0,1,1,1.354-1.354A1.354,1.354,0,0,1,8372.078,2226.817Z" transform="translate(-8357.899 -2213.098)"/></g><rect class="z" width="32" height="32" transform="translate(0.483 0.414)"/></g></svg>