<svg id="Layer_1" data-name="Layer 1" xmlns="http://www.w3.org/2000/svg" viewBox="0 0 32 32"><defs><style>.cls-1{fill:none;}</style></defs><g id="Power"><g id="Group_5666" data-name="Group 5666"><path id="Path_3403" data-name="Path 3403" d="M15.88,2.53A13.83,13.83,0,0,0,7.43,27.31a1,1,0,1,0,1.25-1.56l0,0a11.83,11.83,0,1,1,8.22,2.42V24.27h2a3.46,3.46,0,0,0,3.49-3.44V16a1.56,1.56,0,0,0-1.57-1.55H19.38V11.86a1,1,0,0,0-2,0v2.55h-3V11.86a1,1,0,0,0-2,0v2.55H11A1.56,1.56,0,0,0,9.39,16v4.87a3.48,3.48,0,0,0,3.49,3.44h2v4.92a1,1,0,0,0,1,1h0a13.83,13.83,0,1,0,0-27.66Zm-4.49,18.3V16.41h9v4.42a1.46,1.46,0,0,1-1.49,1.44h-6a1.47,1.47,0,0,1-1.49-1.44Z"/><circle id="Ellipse_6094" data-name="Ellipse 6094" cx="13.38" cy="8.53" r="1"/><circle id="Ellipse_6095" data-name="Ellipse 6095" cx="18.38" cy="8.53" r="1"/></g><rect id="Rectangle_12698" data-name="Rectangle 12698" class="cls-1" width="32" height="32"/></g></svg>