<svg xmlns="http://www.w3.org/2000/svg" width="32" height="32" viewBox="0 0 32 32"><defs><style>.c{fill:rgb(102, 102, 102);}.d{fill:none;}</style></defs><g transform="translate(0 -0.102)"><g transform="translate(2.054 7.368)"><g transform="translate(3.971)"><path class="c" d="M8003.959,2041.073a2,2,0,1,0,2,2A2,2,0,0,0,8003.959,2041.073Z" transform="translate(-7993.856 -2034.346)"/><path class="c" d="M7995.545,2021.1h-15.1a2.557,2.557,0,0,0-2.554,2.554v12.339a2.556,2.556,0,0,0,2.554,2.554h15.1a2.557,2.557,0,0,0,2.554-2.554v-12.339A2.557,2.557,0,0,0,7995.545,2021.1Zm-7.55,12.74a4.017,4.017,0,1,1,4.017-4.017A4.017,4.017,0,0,1,7988,2033.839Z" transform="translate(-7977.892 -2021.098)"/></g><path class="c" d="M7969.06,2033.053h-.778a2.186,2.186,0,0,0-2.183,2.184v6.236a2.186,2.186,0,0,0,2.183,2.184h.778Z" transform="translate(-7966.099 -2029.027)"/><path class="c" d="M8041.742,2033.053h-.851v10.6h.851a2.186,2.186,0,0,0,2.183-2.184v-6.236A2.186,2.186,0,0,0,8041.742,2033.053Z" transform="translate(-8015.702 -2029.027)"/></g><rect class="d" width="32" height="32" transform="translate(0 0.102)"/></g></svg>