<svg xmlns="http://www.w3.org/2000/svg" viewBox="0 0 96 96"><defs><style>.cls-1{fill:none;}</style></defs><g id="Layer_2" data-name="Layer 2"><g id="Layer_1-2" data-name="Layer 1"><path d="M62.62,77.58a7.31,7.31,0,0,1-7.32-7.3h0V26.61a1.31,1.31,0,0,0-2.61-.23.89.89,0,0,0,0,.23V70.27a7.31,7.31,0,0,1-14.62,0V26.61a1.31,1.31,0,0,0-2.61-.23.89.89,0,0,0,0,.23V52.27a6.58,6.58,0,0,1-6.57,6.57h-20a3,3,0,0,1,0-6h20a.59.59,0,0,0,.57-.57V26.61a7.31,7.31,0,1,1,14.61-.54,4.86,4.86,0,0,1,0,.54V70.27a1.31,1.31,0,0,0,2.62,0V26.61a7.31,7.31,0,1,1,14.61-.54,4.86,4.86,0,0,1,0,.54V70.27a1.32,1.32,0,0,0,2.63,0V35.35a7.31,7.31,0,0,1,14.61,0V62.4a.58.58,0,0,0,.57.57h7.78a3,3,0,1,1,0,6H79.1a6.58,6.58,0,0,1-6.57-6.57v-27a1.31,1.31,0,0,0-2.61,0V70.27A7.32,7.32,0,0,1,62.62,77.58Z"/><path d="M23.89,68.37H8.81a3,3,0,1,1,0-6H23.89a3,3,0,0,1,0,6Z"/><path d="M26.46,49.86V26.61A10.3,10.3,0,0,1,45.38,21,10.3,10.3,0,0,1,64.3,26.61v1.12a10.31,10.31,0,0,1,17.24,7.62V60h5.35a5.92,5.92,0,0,1,3.29,1V20.17a12,12,0,0,0-12-12H22.58a12,12,0,0,0-12,12V49.86Z"/><path d="M86.89,72H79.1a9.54,9.54,0,0,1-6.18-2.27v.57A10.31,10.31,0,0,1,54,75.92a10.31,10.31,0,0,1-18.92-5.65V59.59a9.52,9.52,0,0,1-6.18,2.27h-.16a6,6,0,0,1-4.84,9.51H10.62v4.46a12,12,0,0,0,12,12H78.28a12,12,0,0,0,12-12V71A6,6,0,0,1,86.89,72Z"/><rect class="cls-1" width="96" height="96"/></g></g></svg>