<?xml version="1.0" encoding="iso-8859-1"?>
<!-- Generator: Adobe Illustrator 16.0.0, SVG Export Plug-In . SVG Version: 6.00 Build 0)  -->
<!DOCTYPE svg PUBLIC "-//W3C//DTD SVG 1.1//EN" "http://www.w3.org/Graphics/SVG/1.1/DTD/svg11.dtd">
<svg version="1.1" id="Capa_1" xmlns="http://www.w3.org/2000/svg" xmlns:xlink="http://www.w3.org/1999/xlink" x="0px" y="0px"
	 width="103.291px" height="103.291px" viewBox="0 0 103.291 103.291" style="enable-background:new 0 0 103.291 103.291;"
	 xml:space="preserve">
<g>
	<g>
		<path d="M90.581,10.008c0-1.702-1.715-3.09-3.829-3.09H13.861c-2.113,0-3.833,1.388-3.833,3.09L0,61.892
			c0,1.7,1.719,3.087,3.833,3.087h5.811c2.689,1.854,20.016,13.141,42.353,13.141c12.053,0,25.566-3.299,39.009-13.141h8.45
			c2.114,0,3.836-1.387,3.836-3.087L90.581,10.008z M14.672,64.979H86.32C55.596,85.101,25.146,71.053,14.672,64.979z M4.601,61.269
			l10.029-50.64h71.356l12.702,50.64H4.601z"/>
		<polygon points="36.107,14.351 18.057,14.351 14.713,26.155 36.107,26.155 		"/>
		<rect x="40.989" y="14.351" width="21.394" height="11.805"/>
		<polygon points="67.084,14.351 67.084,26.155 87.142,26.155 83.802,14.351 		"/>
		<polygon points="11.457,41.79 36.198,41.79 36.198,29.983 14.804,29.983 		"/>
		<rect x="41.076" y="29.983" width="21.392" height="11.806"/>
		<polygon points="67.177,41.79 90.577,41.79 87.23,29.983 67.177,29.983 		"/>
		<polygon points="8.784,57.545 36.198,57.545 36.198,45.746 12.131,45.746 		"/>
		<rect x="41.076" y="45.746" width="21.392" height="11.806"/>
		<polygon points="67.177,45.746 67.177,57.545 93.921,57.545 90.577,45.746 		"/>
		<path d="M50.321,82.712H34.688c-0.739,0-1.336,0.599-1.336,1.338v10.988c0,0.739,0.597,1.335,1.336,1.335h8.042h20.059h8.453
			c0.739,0,1.338-0.596,1.338-1.335V84.05c0-0.735-0.599-1.338-1.338-1.338H55.195v-4.6h-3.199h-1.675V82.712z"/>
	</g>
</g>
<g>
</g>
<g>
</g>
<g>
</g>
<g>
</g>
<g>
</g>
<g>
</g>
<g>
</g>
<g>
</g>
<g>
</g>
<g>
</g>
<g>
</g>
<g>
</g>
<g>
</g>
<g>
</g>
<g>
</g>
</svg>
