<svg id="Layer_1" data-name="Layer 1" xmlns="http://www.w3.org/2000/svg" viewBox="0 0 32 32"><defs><style>.cls-1{fill:none;}</style></defs><g id="Street_Light" data-name="Street Light"><path d="M10.62,22.81V8.39A4.42,4.42,0,0,1,15,4h.25V5.81A2.62,2.62,0,0,0,17.9,8.43h4.42a2.62,2.62,0,0,0,2.62-2.62V2H15A6.43,6.43,0,0,0,8.62,8.39V22.9a2.68,2.68,0,0,0-1.56,2.43V30h5.36v-4.7A2.66,2.66,0,0,0,10.62,22.81Zm12.32-17a.62.62,0,0,1-.62.62H17.9a.62.62,0,0,1-.62-.62V4h5.66Z"/><path d="M20.09,9.7a1,1,0,0,0-1,1v2.87a1,1,0,0,0,2,0V10.7A1,1,0,0,0,20.09,9.7Z"/><path d="M25.17,12.83l-1.36-2.52a1,1,0,0,0-1.76.95l1.36,2.52a1,1,0,0,0,.88.53,1,1,0,0,0,.48-.12A1,1,0,0,0,25.17,12.83Z"/><path d="M17.77,9.91a1,1,0,0,0-1.36.4l-1.36,2.52a1,1,0,0,0,.4,1.36,1,1,0,0,0,.48.12,1,1,0,0,0,.88-.53l1.36-2.52A1,1,0,0,0,17.77,9.91Z"/><g id="Rectangle_14668" data-name="Rectangle 14668"><rect class="cls-1" width="32" height="32"/></g></g></svg>