<svg xmlns="http://www.w3.org/2000/svg" viewBox="0 0 96 96"><defs><style>.cls-1{fill:none;}</style></defs><g id="Layer_2" data-name="Layer 2"><g id="Layer_1-2" data-name="Layer 1"><rect class="cls-1" width="96" height="96"/><path d="M65.19,44.82a9,9,0,1,0,9,9A9,9,0,0,0,65.19,44.82Zm2.07,12H63.11a3,3,0,0,1,0-6h4.15a3,3,0,0,1,0,6Z"/><path d="M78.06,28.13H18a14.05,14.05,0,0,0-14,14V74.82a4.63,4.63,0,0,0,4.61,4.61h79a4.63,4.63,0,0,0,4.61-4.61V42.17a14.05,14.05,0,0,0-14.08-14ZM30.86,66.82h-12a3,3,0,0,1,0-6h12a3,3,0,1,1,0,6Zm0-10h-12a3,3,0,0,1,0-6h12a3,3,0,1,1,0,6Zm0-10h-12a3,3,0,0,1,0-6h12a3,3,0,1,1,0,6Zm34.33,22a15,15,0,1,1,15-15,15,15,0,0,1-15,15Z"/><path d="M66.9,82.45v3.09a3.88,3.88,0,0,0,3.87,3.88H81.24a3.88,3.88,0,0,0,3.87-3.88V82.45Z"/><path d="M10.9,82.45v3.09a3.88,3.88,0,0,0,3.87,3.88H25.24a3.88,3.88,0,0,0,3.87-3.88V82.45Z"/><path d="M78.06,25.13a16.71,16.71,0,0,1,2.64.23V18.15a5.3,5.3,0,0,0-5.3-5.3H67.69a5.31,5.31,0,0,0-5.31,5.3v7Z"/><path d="M40.24,6.58H15.65a4.18,4.18,0,0,0-4.18,4.18v6a4.18,4.18,0,0,0,4.18,4.18h2v4.21h6V21h9.68v4.2h6V21h.86a4.19,4.19,0,0,0,4.18-4.18v-6a4.18,4.18,0,0,0-4.17-4.19Z"/></g></g></svg>